<?xml version="1.0" encoding="utf-8"?>
<!-- Generator: Adobe Illustrator 27.9.0, SVG Export Plug-In . SVG Version: 6.00 Build 0)  -->
<svg version="1.1" id="Layer_1" xmlns="http://www.w3.org/2000/svg" xmlns:xlink="http://www.w3.org/1999/xlink" x="0px" y="0px"
	 viewBox="0 0 1404.5 1280" style="enable-background:new 0 0 1404.5 1280;" xml:space="preserve">
<style type="text/css">
	.st0{fill:#FFFFFF;}
	.st1{fill:#00FF00;}
	.st2{fill:#5A412A;}
	.st3{fill:#606060;}
	.st4{font-family:'ArialMT';}
	.st5{font-size:169.5151px;}
	.st6{fill:none;stroke:#5A412A;stroke-linecap:round;stroke-linejoin:round;stroke-miterlimit:10;}
	.st7{font-family:'#9Slide03NanamiRoundedLight';}
	.st8{font-size:33.8107px;}
</style>
<g>
	<path d="M108.2,1172.7c-1.3,0-2.4,0.4-3.2,1.3c-0.8,0.9-1.3,1.9-1.3,3.2v34.8l-29.5-37.6c-0.4-0.5-1-1-1.7-1.3
		c-0.8-0.3-1.6-0.5-2.4-0.5c-1.4,0-2.6,0.5-3.5,1.4s-1.4,2.1-1.4,3.5v47.2c0,1.3,0.4,2.4,1.2,3.2c0.8,0.9,1.9,1.3,3.2,1.3
		c1.3,0,2.4-0.4,3.3-1.3c0.8-0.9,1.3-1.9,1.3-3.2v-34.4l29.7,37.8c0.3,0.4,0.9,0.8,1.6,1s1.5,0.4,2.2,0.4c1.4,0,2.6-0.5,3.5-1.4
		s1.4-2.1,1.4-3.5v-47.2c0-1.3-0.4-2.4-1.2-3.2C110.5,1173.1,109.4,1172.7,108.2,1172.7z"/>
	<path d="M143.3,1165.2l8.1,4.3c0.6,0.3,1.3,0.5,1.9,0.5c1,0,1.8-0.3,2.5-0.8c0.6-0.5,0.9-1.2,0.9-2.1c0-0.8-0.4-1.5-1.1-2.2l-7-6.2
		c-1.4-1.2-2.7-1.8-4-1.8c-1,0-2,0.4-2.9,1.1c-0.9,0.8-1.4,1.7-1.4,2.8c0,0.8,0.3,1.6,0.8,2.3C141.6,1164,142.3,1164.6,143.3,1165.2
		z"/>
	<path d="M152.3,1188.2c-3.2-1.9-6.5-2.9-10.1-2.9s-7,0.9-10.2,2.8s-5.8,4.6-7.7,8.1c-1.9,3.5-2.9,7.6-2.9,12.2
		c0,4.2,0.9,7.9,2.8,11.2c1.8,3.3,4.4,5.9,7.8,7.8s7.3,2.8,11.9,2.8c2.6,0,5.2-0.4,7.7-1.3s4.6-1.9,6.1-3.2c1.5-1.2,2.3-2.5,2.3-4
		c0-1.1-0.4-2-1.2-2.8s-1.8-1.2-2.9-1.2c-0.9,0-1.8,0.2-2.8,0.7c-0.3,0.2-0.8,0.5-1.5,0.9c-0.7,0.5-1.7,0.9-3,1.3
		c-1.2,0.4-3,0.6-5.2,0.6c-2.9,0-5.5-0.9-7.9-2.7c-2.3-1.8-3.8-4.3-4.5-7.5h26.7c1.3,0,2.4-0.4,3.4-1.2c1-0.8,1.5-1.9,1.5-3.2
		c0-3.8-0.9-7.4-2.8-10.7C158,1192.8,155.5,1190.1,152.3,1188.2z M152.4,1203h-21.2c1.1-5.9,4.8-8.8,11.1-8.8c2.5,0,4.8,0.8,6.8,2.4
		s3.1,3.6,3.3,5.8L152.4,1203L152.4,1203z"/>
	<path d="M132.9,1180.9c0.6,0,1.2-0.1,1.6-0.2c0.4-0.2,0.9-0.4,1.3-0.9c0.5-0.4,0.8-0.7,1-0.9l4.6-3.8l4.3,3.8
		c0.2,0.2,0.5,0.4,0.9,0.8s0.8,0.6,1.2,0.9c0.4,0.2,1,0.3,1.8,0.3c0.7,0,1.3-0.2,1.7-0.6c0.5-0.4,0.7-0.9,0.7-1.4s-0.1-0.9-0.2-1.2
		c-0.1-0.3-0.4-0.8-0.8-1.3l-3.6-5c-0.6-0.9-1.2-1.5-1.8-1.9c-0.6-0.3-1.5-0.5-2.6-0.5h-2.9c-2.1,0-3.7,0.8-4.9,2.3l-4,5
		c-0.4,0.5-0.7,1-0.8,1.3s-0.2,0.7-0.2,1.2s0.2,1,0.7,1.4C131.7,1180.7,132.2,1180.9,132.9,1180.9z"/>
	<path d="M194,1185.3c-2.8,0-5.4,0.7-7.7,2.1s-4.3,3.1-5.7,5v-1.4c0-1.4-0.5-2.6-1.4-3.5s-2.1-1.4-3.5-1.4s-2.6,0.5-3.5,1.4
		s-1.4,2.1-1.4,3.5v33.5c0,1.4,0.5,2.6,1.4,3.5s2.1,1.4,3.5,1.4s2.6-0.5,3.5-1.4s1.4-2.1,1.4-3.5v-20.7c0-2.8,0.9-5,2.7-6.8
		s4.2-2.7,7.4-2.7c3,0,5.2,0.9,6.4,2.6s1.9,4,1.9,7v20.7c0,1.4,0.5,2.6,1.4,3.5s2.1,1.4,3.5,1.4s2.6-0.5,3.5-1.4s1.4-2.1,1.4-3.5
		v-20.7c0-5.8-1.1-10.3-3.2-13.6C203.3,1186.9,199.5,1185.3,194,1185.3z"/>
	<path d="M261.5,1195.8c1.3,0,2.4-0.4,3.2-1.3c0.9-0.8,1.3-1.9,1.3-3.1c0-1.3-0.4-2.4-1.3-3.2c-0.9-0.9-1.9-1.3-3.2-1.3h-5.8v-5.2
		c0-1.4-0.5-2.6-1.4-3.5s-2.1-1.4-3.4-1.4c-1.4,0-2.6,0.5-3.5,1.4s-1.4,2.1-1.4,3.5v5.2h-3.7c-1.3,0-2.4,0.4-3.2,1.3
		c-0.9,0.8-1.3,1.9-1.3,3.1c0,1.3,0.4,2.4,1.3,3.2c0.9,0.9,1.9,1.3,3.2,1.3h3.7v22.4c0,4.6,1.1,7.7,3.4,9.1c2.3,1.4,5.1,2.1,8.5,2.1
		c2,0,3.8-0.5,5.4-1.5s2.4-2.2,2.4-3.7c0-1.2-0.3-2.1-0.9-2.9c-0.6-0.7-1.3-1.1-2.1-1.1c-0.6,0-1.2,0.1-1.9,0.4
		c-0.8,0.2-1.4,0.3-1.8,0.3c-1,0-1.8-0.3-2.4-0.8s-0.9-1.3-0.9-2.5v-22h5.8L261.5,1195.8L261.5,1195.8z"/>
	<path d="M301.6,1186.6c-1.1-0.9-2.5-1.4-4.1-1.4c-2.6,0-5.1,0.6-7.5,1.7c-2.3,1.2-4.1,2.8-5.3,5.1v-1.1c0-1.4-0.5-2.6-1.4-3.5
		s-2.1-1.4-3.5-1.4s-2.6,0.5-3.5,1.4s-1.4,2.1-1.4,3.5v33.5c0,1.4,0.5,2.6,1.4,3.5s2.1,1.4,3.5,1.4s2.6-0.5,3.5-1.4s1.4-2.1,1.4-3.5
		v-19.1c0-2.4,0.4-4.5,1.3-6.3c0.8-1.8,1.9-3.1,3.2-3.9c1.3-0.9,2.6-1.3,4.1-1.3c0.6,0,1.3,0.1,1.8,0.2c0.6,0.2,0.9,0.3,1.1,0.3
		c1,0.4,1.9,0.6,2.8,0.6c1.2,0,2.2-0.4,3.1-1.3c0.9-0.8,1.3-2.1,1.3-3.8C303.2,1188.6,302.7,1187.6,301.6,1186.6z"/>
	<path d="M321.3,1180.7c2.2,1.3,4.9,1.9,8,1.9s5.7-0.7,8-2c2.2-1.3,3.9-3.2,4.9-5.7c0.2-0.6,0.3-1.2,0.3-1.7c0-0.8-0.3-1.4-0.8-1.9
		s-1.2-0.7-2-0.7c-1.1,0-2,0.2-2.6,0.7c-0.7,0.5-1.4,1.2-2.2,2.2c-1.3,1.5-3.2,2.2-5.6,2.2s-4.3-0.7-5.6-2.2c-0.8-1-1.6-1.8-2.2-2.2
		c-0.7-0.5-1.6-0.7-2.6-0.7c-0.8,0-1.5,0.2-2,0.7s-0.8,1.1-0.8,1.9c0,0.5,0.1,1.1,0.4,1.8C317.5,1177.6,319.1,1179.4,321.3,1180.7z"
		/>
	<path d="M328,1170.7c0.6,0.5,1.2,0.7,1.7,0.7c1.6,0,2.8-0.5,3.6-1.4l6.2-6.8c0.9-1.1,1.4-2.2,1.5-3.5c0.1-1.2-0.3-2.2-1-2.9
		c-0.7-0.8-1.8-1.1-3.3-1.1c-0.9,0-1.8,0.3-2.5,0.9c-0.8,0.6-1.4,1.4-1.9,2.3l-4.7,8.3c-0.3,0.5-0.5,1.1-0.5,1.5
		C327.1,1169.6,327.4,1170.2,328,1170.7z"/>
	<path d="M344.2,1185.3c-1.4,0-2.6,0.5-3.5,1.4s-1.4,2.1-1.4,3.5v0.1c-1.6-1.5-3.5-2.7-5.8-3.6s-4.7-1.4-7.3-1.4
		c-3.6,0-6.9,1-9.9,2.9s-5.4,4.6-7.1,8s-2.6,7.3-2.6,11.6c0,4.3,0.9,8.2,2.6,11.6c1.8,3.4,4.1,6.1,7.2,8c3,1.9,6.4,2.9,10.1,2.9
		c2.5,0,5-0.6,7.3-1.7s4.1-2.4,5.5-4c0.1,1.4,0.5,2.6,1.4,3.5s2,1.4,3.4,1.4s2.6-0.5,3.5-1.4s1.4-2.1,1.4-3.5v-34.3
		c0-1.5-0.5-2.6-1.4-3.6C346.8,1185.7,345.6,1185.3,344.2,1185.3z M336.5,1217.5c-2.2,2.6-5.1,3.8-8.6,3.8s-6.4-1.3-8.5-3.8
		c-2.2-2.6-3.3-5.8-3.3-9.7s1.1-7.1,3.3-9.7c2.2-2.6,5-3.9,8.5-3.9s6.4,1.3,8.6,3.9s3.3,5.8,3.3,9.7S338.7,1214.9,336.5,1217.5z"/>
	<path d="M382.8,1185.3c-2.8,0-5.4,0.7-7.7,2.1c-2.3,1.4-4.3,3.1-5.7,5v-1.4c0-1.4-0.5-2.6-1.4-3.5s-2.1-1.4-3.5-1.4
		s-2.6,0.5-3.5,1.4s-1.4,2.1-1.4,3.5v33.5c0,1.4,0.5,2.6,1.4,3.5s2.1,1.4,3.5,1.4s2.6-0.5,3.5-1.4s1.4-2.1,1.4-3.5v-20.7
		c0-2.8,0.9-5,2.7-6.8c1.8-1.8,4.2-2.7,7.4-2.7c3,0,5.2,0.9,6.4,2.6c1.2,1.7,1.9,4,1.9,7v20.7c0,1.4,0.5,2.6,1.4,3.5
		s2.1,1.4,3.5,1.4s2.6-0.5,3.5-1.4s1.4-2.1,1.4-3.5v-20.7c0-5.8-1.1-10.3-3.2-13.6C392.1,1186.9,388.3,1185.3,382.8,1185.3z"/>
	<path d="M443.8,1185.3c-1.4,0-2.6,0.5-3.5,1.4s-1.4,2.1-1.4,3.5v0.9c-1.5-1.6-3.4-3-5.8-4.1s-4.9-1.7-7.7-1.7
		c-3.7,0-7.1,1-10.2,2.9s-5.5,4.6-7.2,8c-1.8,3.4-2.6,7.3-2.6,11.6c0,4.3,0.9,8.2,2.7,11.6c1.8,3.4,4.2,6.1,7.3,8
		c3.1,1.9,6.5,2.9,10.3,2.9c2.8,0,5.3-0.7,7.7-2c2.4-1.3,4.2-2.9,5.4-4.5v3.9c0,2.9-1,5.2-3,6.8s-5,2.4-9,2.4c-2,0-4.2-0.5-6.7-1.4
		s-3.8-1.4-4-1.5c-0.5-0.2-1-0.2-1.5-0.2c-0.9,0-1.8,0.3-2.6,0.9c-0.8,0.6-1.3,1.5-1.7,2.7c-0.2,0.5-0.2,0.9-0.2,1.3
		c0,2,1.3,3.6,4,4.7c1.2,0.5,3.2,1.1,6,1.6s5.1,0.8,6.7,0.8c6.3,0,11.4-1.6,15.5-4.7c4.1-3.2,6.1-8,6.1-14.6v-36.1
		c0-1.5-0.5-2.6-1.4-3.6C446.4,1185.7,445.2,1185.3,443.8,1185.3z M435.9,1217.5c-2.3,2.6-5.3,3.8-8.9,3.8s-6.6-1.3-8.8-3.8
		c-2.3-2.6-3.4-5.8-3.4-9.7s1.1-7.1,3.4-9.7s5.2-3.9,8.8-3.9c3.6,0,6.6,1.3,8.9,3.9s3.4,5.8,3.4,9.7S438.2,1214.9,435.9,1217.5z"/>
	<path d="M499.7,1199.8h-14.1c-1.4,0-2.6,0.5-3.5,1.4s-1.4,2.1-1.4,3.4c0,1.4,0.5,2.6,1.4,3.5s2.1,1.4,3.5,1.4h14.1
		c1.4,0,2.6-0.4,3.5-1.3s1.4-2,1.4-3.4s-0.5-2.6-1.4-3.5C502.3,1200.2,501.1,1199.8,499.7,1199.8z"/>
	<path d="M563.3,1193.8c-2.9-1.6-6.1-2.5-9.7-2.5c-1.4,0-2.9,0.2-4.5,0.6s-2.9,0.9-3.9,1.5l1.5-11.7h20.1c1.3,0,2.4-0.4,3.2-1.3
		c0.9-0.8,1.3-1.9,1.3-3.1c0-1.3-0.4-2.4-1.3-3.2c-0.9-0.9-1.9-1.3-3.2-1.3h-23.4c-1.2,0-2.3,0.4-3.2,1.1s-1.4,1.7-1.7,2.8
		l-2.5,20.1c-0.1,0.2-0.1,0.6-0.1,1.1c0,1.6,0.4,2.9,1.3,4.1c0.9,1.1,2.4,1.7,4.5,1.7c0.6,0,1.2-0.1,1.7-0.3
		c0.6-0.2,1.3-0.6,2.3-1.1c1.3-0.6,2.5-1.1,3.5-1.5c1-0.3,2.1-0.5,3.3-0.5c2.8,0,5.1,0.9,7.1,2.8c2,1.8,3,4.2,3,7.1
		c0,2-0.6,3.9-1.7,5.6c-1.2,1.7-2.7,3.1-4.7,4.1c-1.9,1-4,1.5-6.2,1.5c-1.7,0-3.7-0.7-6-2.1c-1.5-1-2.7-1.5-3.6-1.5
		c-1.4,0-2.4,0.4-3.3,1.2c-0.8,0.8-1.3,1.7-1.3,2.6s0.2,1.8,0.6,2.8c0.4,1,1,1.7,1.6,2.3c1.4,1.1,3.2,2,5.5,2.7c2.2,0.6,4.4,1,6.5,1
		c3.9,0,7.6-0.9,11-2.7c3.4-1.8,6.1-4.3,8.2-7.3c2.1-3.1,3.1-6.4,3.1-10c0-3.5-0.8-6.7-2.5-9.6
		C568.5,1197.7,566.2,1195.5,563.3,1193.8z"/>
	<path d="M633.5,1185.3c-3.2,0-6,0.9-8.5,2.8c-2.5,1.8-4.4,3.9-5.6,6.2c-1.9-5.9-6.2-8.9-13-8.9c-2.8,0-5.3,0.7-7.5,2.1
		s-4.1,3-5.5,5v-1.3c0-1.4-0.5-2.6-1.4-3.5s-2.1-1.4-3.5-1.4s-2.6,0.5-3.5,1.4s-1.4,2.1-1.4,3.5v33.5c0,1.4,0.5,2.6,1.4,3.5
		s2.1,1.4,3.5,1.4s2.6-0.5,3.5-1.4s1.4-2.1,1.4-3.5V1204c0-2.8,0.9-5,2.6-6.8c1.7-1.8,4.1-2.7,7.1-2.7c2.9,0,5,0.9,6.1,2.6
		c1.2,1.7,1.7,4,1.7,7v20.7c0,1.4,0.5,2.6,1.4,3.5s2.1,1.4,3.5,1.4s2.6-0.5,3.5-1.4s1.4-2.1,1.4-3.5v-20.7c0-2.8,0.9-5,2.6-6.8
		c1.7-1.8,4.1-2.7,7.1-2.7c2.9,0,5,0.9,6.1,2.6c1.2,1.7,1.7,4,1.7,7v20.7c0,1.4,0.5,2.6,1.4,3.5s2.1,1.4,3.5,1.4s2.6-0.5,3.5-1.4
		s1.4-2.1,1.4-3.5v-20.7c0-5.8-1-10.3-3.1-13.6C642.6,1186.9,638.9,1185.3,633.5,1185.3z"/>
	<path d="M719.3,1190.2c-2.1-3.3-5.8-4.9-11.1-4.9c-3.2,0-6,0.9-8.5,2.8c-2.5,1.8-4.4,3.9-5.6,6.2c-1.9-5.9-6.2-8.9-13-8.9
		c-2.8,0-5.3,0.7-7.5,2.1s-4.1,3-5.5,5v-1.3c0-1.4-0.5-2.6-1.4-3.5s-2.1-1.4-3.5-1.4s-2.6,0.5-3.5,1.4s-1.4,2.1-1.4,3.5v33.5
		c0,1.4,0.5,2.6,1.4,3.5s2.1,1.4,3.5,1.4s2.6-0.5,3.5-1.4s1.4-2.1,1.4-3.5V1204c0-2.8,0.9-5,2.6-6.8c1.7-1.8,4.1-2.7,7.1-2.7
		c2.9,0,5,0.9,6.1,2.6c1.2,1.7,1.7,4,1.7,7v20.7c0,1.4,0.5,2.6,1.4,3.5s2.1,1.4,3.5,1.4s2.6-0.5,3.5-1.4s1.4-2.1,1.4-3.5v-20.7
		c0-2.8,0.9-5,2.6-6.8c1.7-1.8,4.1-2.7,7.1-2.7c2.9,0,5,0.9,6.1,2.6c1.2,1.7,1.7,4,1.7,7v20.7c0,1.4,0.5,2.6,1.4,3.5
		s2.1,1.4,3.5,1.4s2.6-0.5,3.5-1.4s1.4-2.1,1.4-3.5v-20.7C722.4,1198,721.4,1193.4,719.3,1190.2z"/>
</g>
<g>
	<path d="M1153.1,1186.4c-2.8,0-5.4,0.7-7.7,2.1c-2.3,1.4-4.3,3.1-5.7,5v-1.4c0-1.4-0.5-2.6-1.4-3.5s-2.1-1.4-3.5-1.4
		s-2.6,0.5-3.5,1.4s-1.4,2.1-1.4,3.5v33.5c0,1.4,0.5,2.6,1.4,3.5s2.1,1.4,3.5,1.4s2.6-0.5,3.5-1.4s1.4-2.1,1.4-3.5v-20.7
		c0-2.8,0.9-5,2.7-6.8c1.8-1.8,4.2-2.7,7.4-2.7c3,0,5.2,0.9,6.4,2.6c1.2,1.7,1.9,4,1.9,7v20.7c0,1.4,0.5,2.6,1.4,3.5
		s2.1,1.4,3.5,1.4s2.6-0.5,3.5-1.4s1.4-2.1,1.4-3.5V1205c0-5.8-1.1-10.3-3.2-13.6C1162.5,1188.1,1158.6,1186.4,1153.1,1186.4z"/>
	<path d="M1213.3,1186.4c-1.4,0-2.6,0.5-3.5,1.4s-1.4,2.1-1.4,3.5v0.1c-1.6-1.5-3.5-2.7-5.8-3.6s-4.7-1.4-7.3-1.4
		c-3.6,0-6.9,1-9.9,2.9s-5.4,4.6-7.1,8s-2.6,7.3-2.6,11.6c0,4.3,0.9,8.2,2.6,11.6c1.8,3.4,4.1,6.1,7.2,8c3,1.9,6.4,2.9,10.1,2.9
		c2.5,0,5-0.6,7.3-1.7s4.1-2.4,5.5-4c0.1,1.4,0.5,2.6,1.4,3.5s2,1.4,3.4,1.4s2.6-0.5,3.5-1.4s1.4-2.1,1.4-3.5v-34.3
		c0-1.5-0.5-2.6-1.4-3.6C1215.9,1186.9,1214.7,1186.4,1213.3,1186.4z M1205.6,1218.6c-2.2,2.6-5.1,3.8-8.6,3.8s-6.4-1.3-8.5-3.8
		c-2.2-2.6-3.3-5.8-3.3-9.7s1.1-7.1,3.3-9.7c2.2-2.6,5-3.9,8.5-3.9s6.4,1.3,8.6,3.9s3.3,5.8,3.3,9.7S1207.8,1216.1,1205.6,1218.6z"
		/>
	<path d="M1189,1182c0.6,0,1.2-0.1,1.6-0.2c0.4-0.2,0.9-0.4,1.3-0.9c0.5-0.4,0.8-0.7,1-0.9l4.6-3.8l4.3,3.8c0.2,0.2,0.5,0.4,0.9,0.8
		s0.8,0.6,1.2,0.9c0.4,0.2,1,0.3,1.8,0.3c0.7,0,1.3-0.2,1.7-0.6c0.5-0.4,0.7-0.9,0.7-1.4s-0.1-0.9-0.2-1.2c-0.1-0.3-0.4-0.8-0.8-1.3
		l-3.6-5c-0.6-0.9-1.2-1.5-1.8-1.9c-0.6-0.3-1.5-0.5-2.6-0.5h-2.9c-2.1,0-3.7,0.8-4.9,2.3l-4,5c-0.4,0.5-0.7,1-0.8,1.3
		c-0.1,0.3-0.2,0.7-0.2,1.2s0.2,1,0.7,1.4C1187.7,1181.8,1188.3,1182,1189,1182z"/>
	<path d="M1260.1,1187.2c-1.4,0-2.6,0.5-3.5,1.4s-1.4,2.1-1.4,3.5v20.6c0,3.3-0.7,5.7-2.2,7.3s-3.7,2.4-6.6,2.4s-5.1-0.8-6.6-2.4
		s-2.2-4-2.2-7.3v-20.6c0-1.4-0.5-2.6-1.4-3.5s-2.1-1.4-3.5-1.4s-2.6,0.5-3.5,1.4s-1.4,2.1-1.4,3.5v20.6c0,5.8,1.6,10.4,4.8,13.7
		c3.2,3.3,7.7,4.9,13.7,4.9c5.9,0,10.5-1.6,13.7-4.9s4.8-7.9,4.8-13.7v-20.6c0-1.4-0.5-2.6-1.4-3.5
		C1262.6,1187.7,1261.5,1187.2,1260.1,1187.2z"/>
	<path d="M1311.5,1173.9c-1.4,0-2.6,0.2-3.5,0.7l-12.2,7.3c-0.8,0.4-1.4,1-1.8,1.8c-0.5,0.8-0.7,1.6-0.7,2.4c0,1.2,0.5,2.4,1.4,3.4
		s2.1,1.5,3.4,1.5c0.9,0,1.8-0.2,2.6-0.7l5-3.1v38.4c0,1.4,0.5,2.6,1.5,3.5s2.2,1.4,3.7,1.4s2.8-0.5,3.8-1.4s1.5-2.1,1.5-3.5v-46.8
		c0-1.4-0.5-2.6-1.4-3.5C1314,1174.3,1312.9,1173.9,1311.5,1173.9z"/>
	<path d="M1366.4,1186.9c-1.7-4.4-4.1-7.8-7.4-10.2s-7.2-3.6-11.7-3.6s-8.4,1.2-11.7,3.6c-3.3,2.4-5.7,5.8-7.4,10.2
		c-1.7,4.4-2.5,9.5-2.5,15.3s0.8,10.9,2.5,15.3s4.1,7.8,7.4,10.2s7.2,3.6,11.7,3.6s8.4-1.2,11.7-3.6c3.3-2.4,5.7-5.8,7.4-10.2
		c1.7-4.4,2.5-9.5,2.5-15.3S1368,1191.4,1366.4,1186.9z M1355.4,1216.7c-2,3.3-4.7,4.9-8.1,4.9c-3.5,0-6.2-1.6-8.1-4.9
		c-2-3.3-3-8.1-3-14.5s1-11.2,3-14.5s4.7-4.9,8.1-4.9c3.5,0,6.2,1.6,8.1,4.9c2,3.3,3,8.1,3,14.5S1357.4,1213.4,1355.4,1216.7z"/>
</g>
<g>
	<g>
		<rect x="39.6" y="46.2" class="st0" width="708.7" height="1020.5"/>
	</g>
	<g>
		<g>
			<g>
				<g>
					<rect x="39.6" y="280.9" class="st1" width="708.7" height="1.3"/>
				</g>
			</g>
			<g>
				<g>
					<rect x="39.6" y="171" class="st1" width="708.7" height="1.3"/>
				</g>
			</g>
			<g>
				<g>
					<rect x="39.6" y="390.8" class="st1" width="708.7" height="1.3"/>
				</g>
			</g>
			<g>
				<g>
					<rect x="39.6" y="500.8" class="st1" width="708.7" height="1.3"/>
				</g>
			</g>
			<g>
				<g>
					<rect x="39.6" y="610.7" class="st1" width="708.7" height="1.3"/>
				</g>
			</g>
			<g>
				<g>
					<rect x="39.6" y="720.7" class="st1" width="708.7" height="1.3"/>
				</g>
			</g>
			<g>
				<g>
					<rect x="39.6" y="830.6" class="st1" width="708.7" height="1.3"/>
				</g>
			</g>
			<g>
				<g>
					<g>
						<rect x="39.6" y="940.5" class="st1" width="708.7" height="1.3"/>
					</g>
				</g>
			</g>
		</g>
	</g>
	<g>
		<path class="st2" d="M719.9,74.4v963.9H68V74.4H719.9 M748.3,46.2H39.6v1020.5h708.7V46.2L748.3,46.2z"/>
	</g>
	<g>
		<g>
			<path class="st3" d="M627.8,682.2v-96.4c0-4.7,3.8-8.5,8.5-8.5h36.5c4.7,0,8.5,3.8,8.5,8.5v96.4c0,4.7-3.8,8.5-8.5,8.5h-36.5
				C631.6,690.7,627.8,686.9,627.8,682.2z"/>
		</g>
		<g>
			<path class="st3" d="M106.5,682.2v-96.4c0-4.7,3.8-8.5,8.5-8.5h36.5c4.7,0,8.5,3.8,8.5,8.5v96.4c0,4.7-3.8,8.5-8.5,8.5H115
				C110.4,690.7,106.5,686.9,106.5,682.2z"/>
		</g>
	</g>
</g>
<g>
	<text transform="matrix(0.9469 0 0 1 203.5835 895.5879)" class="st2 st4 st5">name</text>
	<text transform="matrix(0.9469 0 0 1 203.5835 895.5879)" class="st6 st4 st5">name</text>
</g>
<g>
	<text transform="matrix(0.9872 0 0 1 350.3311 986.5547)" class="st1 st7 st8">quote</text>
</g>
</svg>
