<?xml version="1.0" encoding="utf-8"?>
<!-- Generator: Adobe Illustrator 27.9.0, SVG Export Plug-In . SVG Version: 6.00 Build 0)  -->
<svg version="1.1" id="Layer_2_00000044880631865385474040000017616500994660808336_"
	 xmlns="http://www.w3.org/2000/svg" xmlns:xlink="http://www.w3.org/1999/xlink" x="0px" y="0px" viewBox="0 0 1494.9 994.1"
	 enable-background="new 0 0 1494.9 994.1" xml:space="preserve">
<text transform="matrix(1 0 0 1 18.6631 562.8135)" font-family="'#9Slide03QuicksandBold-Bold'" font-size="480px">S</text>
<path fill="#EDD2CE" d="M1070.6,190.8v-20.2h-8.5V116c0-22.2-8.8-43.4-24.4-59.1c-15.7-15.7-36.9-24.5-59.1-24.4h-82.1V24h-20.2v8.5
	h-82.1c-22.2,0-43.4,8.8-59.1,24.4c-15.7,15.7-24.5,36.9-24.4,59.1v54.5h-8.5v20.2h8.5v34.9h-8.5v20.2h8.5v54.5
	c0,22.2,8.8,43.4,24.4,59.1c15.7,15.7,36.9,24.5,59.1,24.4h57.4v8.5h16.2V384H905v8.5h16.2V384h57.4c22.2,0,43.4-8.8,59.1-24.4
	c15.7-15.7,24.5-36.9,24.4-59.1v-54.5h8.5v-20.2h-8.5v-34.9H1070.6z M1023,297.9c0,25.9-21,47-47,47H796.8c-25.9,0-47-21-47-47
	V118.6c0-25.9,21-47,47-47H976c25.9,0,47,21,47,47V297.9z"/>
<path fill="#EDD2CE" d="M1070.6,559.1v-20.2h-8.5v-54.5c0-22.2-8.8-43.4-24.4-59.1c-15.7-15.7-36.9-24.5-59.1-24.4h-82.1v-8.5h-20.2
	v8.5h-82.1c-22.2,0-43.4,8.8-59.1,24.4c-15.7,15.7-24.5,36.9-24.4,59.1v54.5h-8.5v20.2h8.5v34.9h-8.5v20.2h8.5v54.5
	c0,22.2,8.8,43.4,24.4,59.1c15.7,15.7,36.9,24.5,59.1,24.4h57.4v8.5h16.2v-8.5H905v8.5h16.2v-8.5h57.4c22.2,0,43.4-8.8,59.1-24.4
	c15.7-15.7,24.5-36.9,24.4-59.1v-54.5h8.5v-20.2h-8.5v-34.9H1070.6z M1023,666.2c0,25.9-21,47-47,47H796.8c-25.9,0-47-21-47-47V487
	c0-25.9,21-47,47-47H976c25.9,0,47,21,47,47V666.2z"/>
<g>
	<text transform="matrix(1 0 0 1 783.2526 740.6307)" font-family="'AmaticSC-Bold'" font-size="22px">Always remember you are unique</text>
</g>
<g>
	<g>
		<path d="M1451,36.5V24h-22.5c-1.7,0-3,1.3-3,3V34c0,1.7,1.3,3,3,3h0.6c1.7,0,3,1.3,3,3v7.1c0,1.7-1.3,3-3,3h-20.4
			c-1.7,0-3-1.3-3-3V40c0-1.7,1.3-3,3-3h0.6c1.7,0,3-1.3,3-3V27c0-1.7-1.3-3-3-3H1389c-1.7,0-3,1.3-3,3V34c0,1.7,1.3,3,3,3h0.6
			c1.7,0,3,1.3,3,3v7.1c0,1.7-1.3,3-3,3h-20.4c-1.7,0-3-1.3-3-3V40c0-1.7,1.3-3,3-3h0.6c1.7,0,3-1.3,3-3V27c0-1.7-1.3-3-3-3h-20.4
			c-1.7,0-3,1.3-3,3V34c0,1.7,1.3,3,3,3h0.6c1.7,0,3,1.3,3,3v7.1c0,1.7-1.3,3-3,3h-20.4c-1.7,0-3-1.3-3-3V40c0-1.7,1.3-3,3-3h0.6
			c1.7,0,3-1.3,3-3V27c0-1.7-1.3-3-3-3H1310c-1.7,0-3,1.3-3,3V34c0,1.7,1.3,3,3,3h0.6c1.7,0,3,1.3,3,3v7.1c0,1.7-1.3,3-3,3h-20.3
			c-1.7,0-3-1.3-3-3V40c0-1.7,1.3-3,3-3h0.6c1.7,0,3-1.3,3-3V27c0-1.7-1.3-3-3-3h-22.5h0v9h0v295.7h0v55.7h0v269.3h0h22.5
			c1.7,0,3,1.3,3,3v7.1c0,1.7-1.3,3-3,3h-0.6c-1.7,0-3,1.3-3,3v7.1c0,1.7,1.3,3,3,3h20.3c1.7,0,3-1.3,3-3v-7.1c0-1.7-1.3-3-3-3h-0.6
			c-1.7,0-3-1.3-3-3v-7.1c0-1.7,1.3-3,3-3h20.3c1.7,0,3,1.3,3,3v7.1c0,1.7-1.3,3-3,3h-0.6c-1.7,0-3,1.3-3,3v7.1c0,1.7,1.3,3,3,3
			h20.4c1.7,0,3-1.3,3-3v-7.1c0-1.7-1.3-3-3-3h-0.6c-1.7,0-3-1.3-3-3v-7.1c0-1.7,1.3-3,3-3h20.4c1.7,0,3,1.3,3,3v7.1
			c0,1.7-1.3,3-3,3h-0.6c-1.7,0-3,1.3-3,3v7.1c0,1.7,1.3,3,3,3h20.4c1.7,0,3-1.3,3-3v-7.1c0-1.7-1.3-3-3-3h-0.6c-1.7,0-3-1.3-3-3
			v-7.1c0-1.7,1.3-3,3-3h20.4c1.7,0,3,1.3,3,3v7.1c0,1.7-1.3,3-3,3h-0.6c-1.7,0-3,1.3-3,3v7.1c0,1.7,1.3,3,3,3h20.4c1.7,0,3-1.3,3-3
			v-7.1c0-1.7-1.3-3-3-3h-0.6c-1.7,0-3-1.3-3-3v-7.1c0-1.7,1.3-3,3-3h22.5V384.4h0v-55.7h0L1451,36.5L1451,36.5z"/>
		<g id="POLYLINE_00000088819018680286345210000007337678206266312338_">
			<line fill="#FFFFFF" x1="1311.3" y1="126.8" x2="1268.4" y2="126.8"/>
		</g>
		<g id="POLYLINE_00000029035649487107182600000017854630782902359959_">
			<line fill="#FFFFFF" x1="1321.9" y1="126.8" x2="1398.1" y2="126.8"/>
		</g>
		<g id="POLYLINE_00000038408296655770489140000003947855659618723981_">
			<line fill="#FFFFFF" x1="1451" y1="126.8" x2="1408.6" y2="126.8"/>
		</g>
		<g id="POLYLINE_00000035492252328572692640000007177616449997131174_">
			<line fill="#FFFFFF" x1="1365.2" y1="132" x2="1441.5" y2="132"/>
		</g>
		<g id="POLYLINE_00000087405020264048819480000001824720683612424119_">
			<line fill="#FFFFFF" x1="1451" y1="137.3" x2="1408.6" y2="137.3"/>
		</g>
		<g id="POLYLINE_00000142888962352895806930000015438377781244843928_">
			<line fill="#FFFFFF" x1="1278.5" y1="132" x2="1354.7" y2="132"/>
		</g>
		<g id="POLYLINE_00000081617370670518137870000003055300736410254987_">
			<line fill="#FFFFFF" x1="1321.9" y1="137.3" x2="1398.1" y2="137.3"/>
		</g>
		<g id="POLYLINE_00000127738382106866686850000013524451795371465909_">
			<line fill="#FFFFFF" x1="1311.3" y1="137.3" x2="1268.4" y2="137.3"/>
		</g>
		<g id="POLYLINE_00000125560839658037532810000016560821984338130605_">
			<line fill="#FFFFFF" x1="1311.3" y1="147.8" x2="1268.4" y2="147.8"/>
		</g>
		<g id="POLYLINE_00000154401853620841987180000008293829521304308122_">
			<line fill="#FFFFFF" x1="1278.5" y1="142.6" x2="1354.7" y2="142.6"/>
		</g>
		<g id="POLYLINE_00000137101372391415533100000012925131622988709014_">
			<line fill="#FFFFFF" x1="1365.2" y1="142.6" x2="1441.5" y2="142.6"/>
		</g>
		<g id="POLYLINE_00000153693647830257566800000012366902861362306720_">
			<line fill="#FFFFFF" x1="1451" y1="147.8" x2="1408.6" y2="147.8"/>
		</g>
		<g id="POLYLINE_00000121979072856140108310000016909364534175740064_">
			<line fill="#FFFFFF" x1="1321.9" y1="147.8" x2="1398.1" y2="147.8"/>
		</g>
		<g id="POLYLINE_00000090267293439560598660000005497298677996405121_">
			<line fill="#FFFFFF" x1="1365.2" y1="153.1" x2="1441.5" y2="153.1"/>
		</g>
		<g id="POLYLINE_00000018939096440381607260000009842529257733363129_">
			<line fill="#FFFFFF" x1="1278.5" y1="153.1" x2="1354.7" y2="153.1"/>
		</g>
		<g id="POLYLINE_00000145758188515086254030000013743930669083014322_">
			<line fill="#FFFFFF" x1="1321.9" y1="158.4" x2="1398.1" y2="158.4"/>
		</g>
		<g id="POLYLINE_00000023264338486638975780000016589993840934513542_">
			<line fill="#FFFFFF" x1="1311.3" y1="158.4" x2="1268.4" y2="158.4"/>
		</g>
		<g id="POLYLINE_00000182499993188136080620000002845923960972469382_">
			<line fill="#FFFFFF" x1="1451" y1="158.4" x2="1408.6" y2="158.4"/>
		</g>
		<g id="POLYLINE_00000007397191613352617520000013706233890745489078_">
			<line fill="#FFFFFF" x1="1278.5" y1="164.8" x2="1354.7" y2="164.8"/>
		</g>
		<g id="POLYLINE_00000118380213765615888220000008632095780797739960_">
			<line fill="#FFFFFF" x1="1365.2" y1="164.8" x2="1441.5" y2="164.8"/>
		</g>
		<g id="POLYLINE_00000121969679407628193350000018315897436937416891_">
			<line fill="#FFFFFF" x1="1311.3" y1="170.1" x2="1268.4" y2="170.1"/>
		</g>
		<g id="POLYLINE_00000070802800967200132400000012070012140654626714_">
			<line fill="#FFFFFF" x1="1451" y1="170.1" x2="1408.6" y2="170.1"/>
		</g>
		<g id="POLYLINE_00000153692455214727391880000000133628253250213520_">
			<line fill="#FFFFFF" x1="1321.9" y1="170.1" x2="1398.1" y2="170.1"/>
		</g>
		<g id="POLYLINE_00000080909200100117227020000009869969613760787362_">
			<line fill="#FFFFFF" x1="1321.9" y1="191.2" x2="1398.1" y2="191.2"/>
		</g>
		<g id="POLYLINE_00000015318429091154301550000016226932208656706948_">
			<line fill="#FFFFFF" x1="1311.3" y1="191.2" x2="1268.4" y2="191.2"/>
		</g>
		<g id="POLYLINE_00000159456956927452225510000010289342160172487059_">
			<line fill="#FFFFFF" x1="1365.2" y1="175.4" x2="1441.5" y2="175.4"/>
		</g>
		<g id="POLYLINE_00000114065555319058880440000017879008813471578511_">
			<line fill="#FFFFFF" x1="1321.9" y1="180.6" x2="1398.1" y2="180.6"/>
		</g>
		<g id="POLYLINE_00000049941132961990765050000009620262028368911027_">
			<line fill="#FFFFFF" x1="1451" y1="180.6" x2="1408.6" y2="180.6"/>
		</g>
		<g id="POLYLINE_00000049904908904050293970000012649008003778790314_">
			<line fill="#FFFFFF" x1="1365.2" y1="197.6" x2="1441.5" y2="197.6"/>
		</g>
		<g id="POLYLINE_00000013898898910818454220000013185997882330576277_">
			<line fill="#FFFFFF" x1="1311.3" y1="202.9" x2="1268.4" y2="202.9"/>
		</g>
		<g id="POLYLINE_00000023273718209932894890000008534572572823891614_">
			<line fill="#FFFFFF" x1="1451" y1="202.9" x2="1408.6" y2="202.9"/>
		</g>
		<g id="POLYLINE_00000088816803812051062450000018372721264844068498_">
			<line fill="#FFFFFF" x1="1278.5" y1="175.4" x2="1354.7" y2="175.4"/>
		</g>
		<g id="POLYLINE_00000009589804915233829630000005455099052809228693_">
			<line fill="#FFFFFF" x1="1321.9" y1="202.9" x2="1398.1" y2="202.9"/>
		</g>
		<g id="POLYLINE_00000111159996711698471200000005798919973812598191_">
			<line fill="#FFFFFF" x1="1278.5" y1="197.6" x2="1354.7" y2="197.6"/>
		</g>
		<g id="POLYLINE_00000165196217842451453070000001587487806501233536_">
			<line fill="#FFFFFF" x1="1311.3" y1="180.6" x2="1268.4" y2="180.6"/>
		</g>
		<g id="POLYLINE_00000132791978539940307000000005143451860365869199_">
			<line fill="#FFFFFF" x1="1451" y1="191.2" x2="1408.6" y2="191.2"/>
		</g>
		<g id="POLYLINE_00000026126889004117243190000017811078019092776630_">
			<line fill="#FFFFFF" x1="1365.2" y1="185.9" x2="1441.5" y2="185.9"/>
		</g>
		<g id="POLYLINE_00000038382516271430408530000011289028349354787465_">
			<line fill="#FFFFFF" x1="1278.5" y1="185.9" x2="1354.7" y2="185.9"/>
		</g>
		<g id="POLYLINE_00000107578561331016726900000002473578276182373304_">
			<line fill="#FFFFFF" x1="1321.9" y1="224" x2="1398.1" y2="224"/>
		</g>
		<g id="POLYLINE_00000070837263132911665290000004999696972642966154_">
			<line fill="#FFFFFF" x1="1451" y1="224" x2="1408.6" y2="224"/>
		</g>
		<g id="POLYLINE_00000111900889425032125220000017623791468855347898_">
			<line fill="#FFFFFF" x1="1278.5" y1="218.7" x2="1354.7" y2="218.7"/>
		</g>
		<g id="POLYLINE_00000067916405344589041140000010203118816671335068_">
			<line fill="#FFFFFF" x1="1321.9" y1="213.4" x2="1398.1" y2="213.4"/>
		</g>
		<g id="POLYLINE_00000078729900971722520810000011617992607493548707_">
			<line fill="#FFFFFF" x1="1311.3" y1="224" x2="1268.4" y2="224"/>
		</g>
		<g id="POLYLINE_00000144317305953904154690000003111430018946949296_">
			<line fill="#FFFFFF" x1="1451" y1="213.4" x2="1408.6" y2="213.4"/>
		</g>
		<g id="POLYLINE_00000096028466463667581160000005371694733253747081_">
			<line fill="#FFFFFF" x1="1365.2" y1="208.2" x2="1441.5" y2="208.2"/>
		</g>
		<g id="POLYLINE_00000170964050287347632390000007412635513366488454_">
			<line fill="#FFFFFF" x1="1278.5" y1="208.2" x2="1354.7" y2="208.2"/>
		</g>
		<g id="POLYLINE_00000085213527697356305330000009701423349553479359_">
			<line fill="#FFFFFF" x1="1311.3" y1="213.4" x2="1268.4" y2="213.4"/>
		</g>
		<g id="POLYLINE_00000107565584901028790210000014059577981422466739_">
			<line fill="#FFFFFF" x1="1365.2" y1="218.7" x2="1441.5" y2="218.7"/>
		</g>
		<g id="POLYLINE_00000042699281030768056340000008603620677627973512_">
			<line fill="#FFFFFF" x1="1311.3" y1="235.7" x2="1268.4" y2="235.7"/>
		</g>
		<g id="POLYLINE_00000093138886791493281900000013104850228611001253_">
			<line fill="#FFFFFF" x1="1365.2" y1="230.4" x2="1441.5" y2="230.4"/>
		</g>
		<g id="POLYLINE_00000167383370593131831850000007408490416356048026_">
			<line fill="#FFFFFF" x1="1365.2" y1="241" x2="1441.5" y2="241"/>
		</g>
		<g id="POLYLINE_00000039842233300240958080000011186723483866913943_">
			<line fill="#FFFFFF" x1="1278.5" y1="241" x2="1354.7" y2="241"/>
		</g>
		<g id="POLYLINE_00000127007436909997943460000007808881963399700669_">
			<line fill="#FFFFFF" x1="1278.5" y1="230.4" x2="1354.7" y2="230.4"/>
		</g>
		<g id="POLYLINE_00000042716352091680174460000013451557764456641706_">
			<line fill="#FFFFFF" x1="1278.5" y1="252.7" x2="1354.7" y2="252.7"/>
		</g>
		<g id="POLYLINE_00000126292124081200647450000015257426831401114807_">
			<line fill="#FFFFFF" x1="1311.3" y1="246.2" x2="1268.4" y2="246.2"/>
		</g>
		<g id="POLYLINE_00000087375568163471599840000013279082615891982746_">
			<line fill="#FFFFFF" x1="1451" y1="246.2" x2="1408.6" y2="246.2"/>
		</g>
		<g id="POLYLINE_00000140731674262505844660000001206072670762001082_">
			<line fill="#FFFFFF" x1="1365.2" y1="252.7" x2="1441.5" y2="252.7"/>
		</g>
		<g id="POLYLINE_00000182488583436613495980000009824592707050464132_">
			<line fill="#FFFFFF" x1="1321.9" y1="235.7" x2="1398.1" y2="235.7"/>
		</g>
		<g id="POLYLINE_00000182499702088035329940000007414967041398186911_">
			<line fill="#FFFFFF" x1="1321.9" y1="246.2" x2="1398.1" y2="246.2"/>
		</g>
		<g id="POLYLINE_00000023240097482628032640000008437712520285593494_">
			<line fill="#FFFFFF" x1="1451" y1="235.7" x2="1408.6" y2="235.7"/>
		</g>
		<g id="POLYLINE_00000147925868680465905530000011735617211860100287_">
			<line fill="#FFFFFF" x1="1321.9" y1="258" x2="1398.1" y2="258"/>
		</g>
		<g id="POLYLINE_00000132084658195881931900000014300898658144688034_">
			<line fill="#FFFFFF" x1="1451" y1="258" x2="1408.6" y2="258"/>
		</g>
		<g id="POLYLINE_00000019655093747567968650000012616142296744099212_">
			<line fill="#FFFFFF" x1="1311.3" y1="258" x2="1268.4" y2="258"/>
		</g>
		<g>
			
				<rect x="1274" y="54.5" transform="matrix(-1 -1.224647e-16 1.224647e-16 -1 2556.562 129.256)" fill="#FFFFFF" width="8.5" height="20.2"/>
			
				<rect x="1436.9" y="54.5" transform="matrix(-1 -1.224647e-16 1.224647e-16 -1 2882.2444 129.256)" fill="#FFFFFF" width="8.5" height="20.2"/>
		</g>
		<g id="POLYLINE_00000051344967743303295550000011253657765202612106_">
			<line fill="#FFFFFF" x1="1311" y1="443" x2="1268.4" y2="443"/>
		</g>
		<g id="POLYLINE_00000064325827544279703090000015749000051605610905_">
			<line fill="#FFFFFF" x1="1321.5" y1="443" x2="1397.7" y2="443"/>
		</g>
		<g id="POLYLINE_00000127038992917384967160000014283061658432280497_">
			<line fill="#FFFFFF" x1="1451" y1="443" x2="1408.3" y2="443"/>
		</g>
		<g id="POLYLINE_00000110430485444889451610000007209554512487186107_">
			<line fill="#FFFFFF" x1="1364.9" y1="448.3" x2="1441.1" y2="448.3"/>
		</g>
		<g id="POLYLINE_00000004509078713795506590000006223445436746876808_">
			<line fill="#FFFFFF" x1="1451" y1="453.6" x2="1408.3" y2="453.6"/>
		</g>
		<g id="POLYLINE_00000057111421346282170720000005381572384570762633_">
			<line fill="#FFFFFF" x1="1278.1" y1="448.3" x2="1354.4" y2="448.3"/>
		</g>
		<g id="POLYLINE_00000083796768620037951970000016986220478412256642_">
			<line fill="#FFFFFF" x1="1321.5" y1="453.6" x2="1397.7" y2="453.6"/>
		</g>
		<g id="POLYLINE_00000123404003554334453110000013114615140274849685_">
			<line fill="#FFFFFF" x1="1311" y1="453.6" x2="1268.4" y2="453.6"/>
		</g>
		<g id="POLYLINE_00000053544858597806066590000016972546713888875142_">
			<line fill="#FFFFFF" x1="1311" y1="464.1" x2="1268.4" y2="464.1"/>
		</g>
		<g id="POLYLINE_00000040566376302498918600000000194081271836163489_">
			<line fill="#FFFFFF" x1="1278.1" y1="458.8" x2="1354.4" y2="458.8"/>
		</g>
		<g id="POLYLINE_00000165931979027199374850000008479622214809006993_">
			<line fill="#FFFFFF" x1="1364.9" y1="458.8" x2="1441.1" y2="458.8"/>
		</g>
		<g id="POLYLINE_00000115504353783799001080000002495065166376101304_">
			<line fill="#FFFFFF" x1="1451" y1="464.1" x2="1408.3" y2="464.1"/>
		</g>
		<g id="POLYLINE_00000005959649503552921350000014587436216272223622_">
			<line fill="#FFFFFF" x1="1321.5" y1="464.1" x2="1397.7" y2="464.1"/>
		</g>
		<g id="POLYLINE_00000080174148937090805910000003888538410728932527_">
			<line fill="#FFFFFF" x1="1364.9" y1="469.4" x2="1441.1" y2="469.4"/>
		</g>
		<g id="POLYLINE_00000070834594792651007710000004362685259120257441_">
			<line fill="#FFFFFF" x1="1278.1" y1="469.4" x2="1354.4" y2="469.4"/>
		</g>
		<g id="POLYLINE_00000103243476785282812430000012544982165289349254_">
			<line fill="#FFFFFF" x1="1321.5" y1="474.6" x2="1397.7" y2="474.6"/>
		</g>
		<g id="POLYLINE_00000085942694929113289440000015444286279833905845_">
			<line fill="#FFFFFF" x1="1311" y1="474.6" x2="1268.4" y2="474.6"/>
		</g>
		<g id="POLYLINE_00000125587308293843132000000015278034403057360042_">
			<line fill="#FFFFFF" x1="1451" y1="474.6" x2="1408.3" y2="474.6"/>
		</g>
		<g id="POLYLINE_00000081637305278900320290000005335142160801687227_">
			<line fill="#FFFFFF" x1="1278.1" y1="481.1" x2="1354.4" y2="481.1"/>
		</g>
		<g id="POLYLINE_00000011014288894887160750000000078382704597480072_">
			<line fill="#FFFFFF" x1="1364.9" y1="481.1" x2="1441.1" y2="481.1"/>
		</g>
		<g id="POLYLINE_00000129172335433754954280000012660322536646632892_">
			<line fill="#FFFFFF" x1="1311" y1="486.4" x2="1268.4" y2="486.4"/>
		</g>
		<g id="POLYLINE_00000005975820502754857360000002978473342282908860_">
			<line fill="#FFFFFF" x1="1451" y1="486.4" x2="1408.3" y2="486.4"/>
		</g>
		<g id="POLYLINE_00000148652461729227278130000011331772746647254155_">
			<line fill="#FFFFFF" x1="1321.5" y1="486.4" x2="1397.7" y2="486.4"/>
		</g>
		<g id="POLYLINE_00000183219801879737379230000010027210768564256663_">
			<line fill="#FFFFFF" x1="1321.5" y1="507.4" x2="1397.7" y2="507.4"/>
		</g>
		<g id="POLYLINE_00000041974729469150909220000001255197130278712196_">
			<line fill="#FFFFFF" x1="1311" y1="507.4" x2="1268.4" y2="507.4"/>
		</g>
		<g id="POLYLINE_00000117653490417317602320000011628999260585674407_">
			<line fill="#FFFFFF" x1="1364.9" y1="491.6" x2="1441.1" y2="491.6"/>
		</g>
		<g id="POLYLINE_00000161626415874470151880000016921346044245478831_">
			<line fill="#FFFFFF" x1="1321.5" y1="496.9" x2="1397.7" y2="496.9"/>
		</g>
		<g id="POLYLINE_00000083799214598151763850000013520301314861096339_">
			<line fill="#FFFFFF" x1="1451" y1="496.9" x2="1408.3" y2="496.9"/>
		</g>
		<g id="POLYLINE_00000119827177453949058580000012577426515072249758_">
			<line fill="#FFFFFF" x1="1364.9" y1="513.9" x2="1441.1" y2="513.9"/>
		</g>
		<g id="POLYLINE_00000054947366812043299240000000609416877994918272_">
			<line fill="#FFFFFF" x1="1311" y1="519.2" x2="1268.4" y2="519.2"/>
		</g>
		<g id="POLYLINE_00000110453055313602047550000015611867592657502344_">
			<line fill="#FFFFFF" x1="1451" y1="519.2" x2="1408.3" y2="519.2"/>
		</g>
		<g id="POLYLINE_00000160895858878986986090000007018169076155319998_">
			<line fill="#FFFFFF" x1="1278.1" y1="491.6" x2="1354.4" y2="491.6"/>
		</g>
		<g id="POLYLINE_00000018239411653396189820000009993659636976147603_">
			<line fill="#FFFFFF" x1="1321.5" y1="519.2" x2="1397.7" y2="519.2"/>
		</g>
		<g id="POLYLINE_00000179623168050928880370000000055880828385468563_">
			<line fill="#FFFFFF" x1="1278.1" y1="513.9" x2="1354.4" y2="513.9"/>
		</g>
		<g id="POLYLINE_00000071532194008417187950000014830719260888113304_">
			<line fill="#FFFFFF" x1="1311" y1="496.9" x2="1268.4" y2="496.9"/>
		</g>
		<g id="POLYLINE_00000085210899099530557390000010580478844351151802_">
			<line fill="#FFFFFF" x1="1451" y1="507.4" x2="1408.3" y2="507.4"/>
		</g>
		<g id="POLYLINE_00000103982302737417960940000013947220865778217116_">
			<line fill="#FFFFFF" x1="1364.9" y1="502.2" x2="1441.1" y2="502.2"/>
		</g>
		<g id="POLYLINE_00000077292160921686175720000015532890851153101463_">
			<line fill="#FFFFFF" x1="1278.1" y1="502.2" x2="1354.4" y2="502.2"/>
		</g>
		<g id="POLYLINE_00000171682452943624995600000001242644813469393828_">
			<line fill="#FFFFFF" x1="1321.5" y1="540.2" x2="1397.7" y2="540.2"/>
		</g>
		<g id="POLYLINE_00000045601538945306214370000010602011543206926013_">
			<line fill="#FFFFFF" x1="1451" y1="540.2" x2="1408.3" y2="540.2"/>
		</g>
		<g id="POLYLINE_00000060031369033293243350000006928922981839136942_">
			<line fill="#FFFFFF" x1="1278.1" y1="535" x2="1354.4" y2="535"/>
		</g>
		<g id="POLYLINE_00000053523161244275279080000016717607590926659211_">
			<line fill="#FFFFFF" x1="1321.5" y1="529.7" x2="1397.7" y2="529.7"/>
		</g>
		<g id="POLYLINE_00000087378531982841192190000009452569295328745348_">
			<line fill="#FFFFFF" x1="1311" y1="540.2" x2="1268.4" y2="540.2"/>
		</g>
		<g id="POLYLINE_00000018224078168668911910000012613021822408460470_">
			<line fill="#FFFFFF" x1="1451" y1="529.7" x2="1408.3" y2="529.7"/>
		</g>
		<g id="POLYLINE_00000163784628191689460930000004873539624785089711_">
			<line fill="#FFFFFF" x1="1364.9" y1="524.4" x2="1441.1" y2="524.4"/>
		</g>
		<g id="POLYLINE_00000074413779710173124380000000490099689097025672_">
			<line fill="#FFFFFF" x1="1278.1" y1="524.4" x2="1354.4" y2="524.4"/>
		</g>
		<g id="POLYLINE_00000036214668303889676230000008752626365560024966_">
			<line fill="#FFFFFF" x1="1311" y1="529.7" x2="1268.4" y2="529.7"/>
		</g>
		<g id="POLYLINE_00000030482064519920192010000007183302009983934911_">
			<line fill="#FFFFFF" x1="1364.9" y1="535" x2="1441.1" y2="535"/>
		</g>
		<g id="POLYLINE_00000170242036902712088640000008798716968513797819_">
			<line fill="#FFFFFF" x1="1311" y1="552" x2="1268.4" y2="552"/>
		</g>
		<g id="POLYLINE_00000039091702986421299170000013063390530410955167_">
			<line fill="#FFFFFF" x1="1364.9" y1="546.7" x2="1441.1" y2="546.7"/>
		</g>
		<g id="POLYLINE_00000076603986467396797660000009339822534141166981_">
			<line fill="#FFFFFF" x1="1364.9" y1="557.2" x2="1441.1" y2="557.2"/>
		</g>
		<g id="POLYLINE_00000100378588525173396600000008569523901369398925_">
			<line fill="#FFFFFF" x1="1278.1" y1="557.2" x2="1354.4" y2="557.2"/>
		</g>
		<g id="POLYLINE_00000112609070868008438700000014112663636086601395_">
			<line fill="#FFFFFF" x1="1278.1" y1="546.7" x2="1354.4" y2="546.7"/>
		</g>
		<g id="POLYLINE_00000013877843711693677030000000578316848243037631_">
			<line fill="#FFFFFF" x1="1278.1" y1="568.9" x2="1354.4" y2="568.9"/>
		</g>
		<g id="POLYLINE_00000023249574427738343350000010727634472988931979_">
			<line fill="#FFFFFF" x1="1311" y1="562.5" x2="1268.4" y2="562.5"/>
		</g>
		<g id="POLYLINE_00000044177425166582477160000016780793271816818058_">
			<line fill="#FFFFFF" x1="1451" y1="562.5" x2="1408.3" y2="562.5"/>
		</g>
		<g id="POLYLINE_00000005964554021402795380000005195023098278986412_">
			<line fill="#FFFFFF" x1="1364.9" y1="568.9" x2="1441.1" y2="568.9"/>
		</g>
		<g id="POLYLINE_00000025443318108499265440000008962671767431302570_">
			<line fill="#FFFFFF" x1="1321.5" y1="552" x2="1397.7" y2="552"/>
		</g>
		<g id="POLYLINE_00000034055864090228607730000012329687364638558899_">
			<line fill="#FFFFFF" x1="1321.5" y1="562.5" x2="1397.7" y2="562.5"/>
		</g>
		<g id="POLYLINE_00000136397881156085676640000009875750857280291753_">
			<line fill="#FFFFFF" x1="1451" y1="552" x2="1408.3" y2="552"/>
		</g>
		<g id="POLYLINE_00000056402779636100466930000002435036103806396818_">
			<line fill="#FFFFFF" x1="1321.5" y1="574.2" x2="1397.7" y2="574.2"/>
		</g>
		<g id="POLYLINE_00000173124316564181841450000001293485689751035021_">
			<line fill="#FFFFFF" x1="1451" y1="574.2" x2="1408.3" y2="574.2"/>
		</g>
		<g id="POLYLINE_00000054266861238047436360000015853893298836538810_">
			<line fill="#FFFFFF" x1="1311" y1="574.2" x2="1268.4" y2="574.2"/>
		</g>
		<g>
			
				<rect x="1274" y="315.8" transform="matrix(-1 -1.224647e-16 1.224647e-16 -1 2556.562 647.853)" fill="#FFFFFF" width="8.5" height="16.2"/>
			
				<rect x="1436.9" y="315.8" transform="matrix(-1 -1.224647e-16 1.224647e-16 -1 2882.2444 647.853)" fill="#FFFFFF" width="8.5" height="16.2"/>
			
				<rect x="1274" y="369.3" transform="matrix(-1 -1.224647e-16 1.224647e-16 -1 2556.562 754.7036)" fill="#FFFFFF" width="8.5" height="16.2"/>
			
				<rect x="1436.9" y="369.3" transform="matrix(-1 -1.224647e-16 1.224647e-16 -1 2882.2444 754.7036)" fill="#FFFFFF" width="8.5" height="16.2"/>
		</g>
		<g>
			
				<rect x="1274" y="629" transform="matrix(-1 -1.224647e-16 1.224647e-16 -1 2556.562 1278.2766)" fill="#FFFFFF" width="8.5" height="20.2"/>
			
				<rect x="1436.9" y="629" transform="matrix(-1 -1.224647e-16 1.224647e-16 -1 2882.2444 1278.2766)" fill="#FFFFFF" width="8.5" height="20.2"/>
		</g>
	</g>
	<g>
		<path d="M1265.1,662.1l0-612h0h-22.5c-1.7,0-3-1.3-3-3v-7.1c0-1.7,1.3-3,3-3h0.6c1.7,0,3-1.3,3-3V27c0-1.7-1.3-3-3-3h-20.3
			c-1.7,0-3,1.3-3,3v7.1c0,1.7,1.3,3,3,3h0.6c1.7,0,3,1.3,3,3v7.1c0,1.7-1.3,3-3,3h-20.3c-1.7,0-3-1.3-3-3v-7.1c0-1.7,1.3-3,3-3h0.6
			c1.7,0,3-1.3,3-3V27c0-1.7-1.3-3-3-3h-20.4c-1.7,0-3,1.3-3,3v7.1c0,1.7,1.3,3,3,3h0.6c1.7,0,3,1.3,3,3v7.1c0,1.7-1.3,3-3,3h-20.4
			c-1.7,0-3-1.3-3-3v-7.1c0-1.7,1.3-3,3-3h0.6c1.7,0,3-1.3,3-3V27c0-1.7-1.3-3-3-3h-20.4c-1.7,0-3,1.3-3,3v7.1c0,1.7,1.3,3,3,3h0.6
			c1.7,0,3,1.3,3,3v7.1c0,1.7-1.3,3-3,3H1124c-1.7,0-3-1.3-3-3v-7.1c0-1.7,1.3-3,3-3h0.6c1.7,0,3-1.3,3-3V27c0-1.7-1.3-3-3-3h-20.4
			c-1.7,0-3,1.3-3,3v7.1c0,1.7,1.3,3,3,3h0.6c1.7,0,3,1.3,3,3v7.1c0,1.7-1.3,3-3,3h-22.5v616.3h0v13.3h22.5c1.7,0,3-1.3,3-3v-7.1
			c0-1.7-1.3-3-3-3h-0.6c-1.7,0-3-1.3-3-3v-7.1c0-1.7,1.3-3,3-3h20.4c1.7,0,3,1.3,3,3v7.1c0,1.7-1.3,3-3,3h-0.6c-1.7,0-3,1.3-3,3
			v7.1c0,1.7,1.3,3,3,3h20.4c1.7,0,3-1.3,3-3v-7.1c0-1.7-1.3-3-3-3h-0.6c-1.7,0-3-1.3-3-3v-7.1c0-1.7,1.3-3,3-3h20.4
			c1.7,0,3,1.3,3,3v7.1c0,1.7-1.3,3-3,3h-0.6c-1.7,0-3,1.3-3,3v7.1c0,1.7,1.3,3,3,3h20.4c1.7,0,3-1.3,3-3v-7.1c0-1.7-1.3-3-3-3h-0.6
			c-1.7,0-3-1.3-3-3v-7.1c0-1.7,1.3-3,3-3h20.4c1.7,0,3,1.3,3,3v7.1c0,1.7-1.3,3-3,3h-0.6c-1.7,0-3,1.3-3,3v7.1c0,1.7,1.3,3,3,3
			h20.3c1.7,0,3-1.3,3-3v-7.1c0-1.7-1.3-3-3-3h-0.6c-1.7,0-3-1.3-3-3v-7.1c0-1.7,1.3-3,3-3h20.3c1.7,0,3,1.3,3,3v7.1
			c0,1.7-1.3,3-3,3h-0.6c-1.7,0-3,1.3-3,3v7.1c0,1.7,1.3,3,3,3h22.5h0L1265.1,662.1L1265.1,662.1z M1096.5,360.9h-8.5v-20.2h8.5
			V360.9z M1259.4,360.9h-8.5v-20.2h8.5V360.9z"/>
		<g>
			<g id="POLYLINE_00000038371686457856465860000007267504834337233797_">
				<line fill="#FFFFFF" x1="1125.4" y1="127.4" x2="1082.4" y2="127.4"/>
			</g>
			<g id="POLYLINE_00000129928384231659997870000015767050506664963472_">
				<line fill="#FFFFFF" x1="1135.9" y1="127.4" x2="1212.1" y2="127.4"/>
			</g>
			<g id="POLYLINE_00000080929062116993694020000014557511488068298920_">
				<line fill="#FFFFFF" x1="1265.1" y1="127.4" x2="1222.6" y2="127.4"/>
			</g>
			<g id="POLYLINE_00000063602184287813138090000000550830625435513015_">
				<line fill="#FFFFFF" x1="1179.3" y1="132.6" x2="1255.5" y2="132.6"/>
			</g>
			<g id="POLYLINE_00000018918109714512939030000014963338195910460041_">
				<line fill="#FFFFFF" x1="1265.1" y1="137.9" x2="1222.6" y2="137.9"/>
			</g>
			<g id="POLYLINE_00000157999583749736648380000008511617012825533059_">
				<line fill="#FFFFFF" x1="1092.5" y1="132.6" x2="1168.7" y2="132.6"/>
			</g>
			<g id="POLYLINE_00000003092918781089600620000016481964649587998397_">
				<line fill="#FFFFFF" x1="1135.9" y1="137.9" x2="1212.1" y2="137.9"/>
			</g>
			<g id="POLYLINE_00000083780589792696659630000012647517268004998586_">
				<line fill="#FFFFFF" x1="1125.4" y1="137.9" x2="1082.4" y2="137.9"/>
			</g>
			<g id="POLYLINE_00000173869825823323354830000009163952896709059745_">
				<line fill="#FFFFFF" x1="1125.4" y1="148.5" x2="1082.4" y2="148.5"/>
			</g>
			<g id="POLYLINE_00000089535090344602700770000008519805839739462550_">
				<line fill="#FFFFFF" x1="1092.5" y1="143.2" x2="1168.7" y2="143.2"/>
			</g>
			<g id="POLYLINE_00000106867745571724223790000006880523818011237538_">
				<line fill="#FFFFFF" x1="1179.3" y1="143.2" x2="1255.5" y2="143.2"/>
			</g>
			<g id="POLYLINE_00000157285576107966412810000002090507468001140873_">
				<line fill="#FFFFFF" x1="1265.1" y1="148.5" x2="1222.6" y2="148.5"/>
			</g>
			<g id="POLYLINE_00000005983525115188544590000001196717863470480013_">
				<line fill="#FFFFFF" x1="1135.9" y1="148.5" x2="1212.1" y2="148.5"/>
			</g>
			<g id="POLYLINE_00000159438811703976715160000008246482185109282459_">
				<line fill="#FFFFFF" x1="1179.3" y1="153.7" x2="1255.5" y2="153.7"/>
			</g>
			<g id="POLYLINE_00000080908831379987241820000003629930227169049239_">
				<line fill="#FFFFFF" x1="1092.5" y1="153.7" x2="1168.7" y2="153.7"/>
			</g>
			<g id="POLYLINE_00000109007785053205573470000011680127544716373169_">
				<line fill="#FFFFFF" x1="1135.9" y1="159" x2="1212.1" y2="159"/>
			</g>
			<g id="POLYLINE_00000164472969967182359720000006655156606412157312_">
				<line fill="#FFFFFF" x1="1125.4" y1="159" x2="1082.4" y2="159"/>
			</g>
			<g id="POLYLINE_00000162344564597758710430000013336445976907980437_">
				<line fill="#FFFFFF" x1="1265.1" y1="159" x2="1222.6" y2="159"/>
			</g>
			<g id="POLYLINE_00000182503424653151541290000002211434810512460702_">
				<line fill="#FFFFFF" x1="1092.5" y1="165.4" x2="1168.7" y2="165.4"/>
			</g>
			<g id="POLYLINE_00000167355402406455681720000005846853453088144027_">
				<line fill="#FFFFFF" x1="1179.3" y1="165.4" x2="1255.5" y2="165.4"/>
			</g>
			<g id="POLYLINE_00000155862307602176434310000012972380815413102720_">
				<line fill="#FFFFFF" x1="1125.4" y1="170.7" x2="1082.4" y2="170.7"/>
			</g>
			<g id="POLYLINE_00000052093454084339673570000010295168425259462823_">
				<line fill="#FFFFFF" x1="1265.1" y1="170.7" x2="1222.6" y2="170.7"/>
			</g>
			<g id="POLYLINE_00000133515346769421043300000014258376562703314835_">
				<line fill="#FFFFFF" x1="1135.9" y1="170.7" x2="1212.1" y2="170.7"/>
			</g>
			<g id="POLYLINE_00000097485600436437782800000016798454054843175863_">
				<line fill="#FFFFFF" x1="1135.9" y1="191.8" x2="1212.1" y2="191.8"/>
			</g>
			<g id="POLYLINE_00000053505209071587227410000016715012741141020042_">
				<line fill="#FFFFFF" x1="1125.4" y1="191.8" x2="1082.4" y2="191.8"/>
			</g>
			<g id="POLYLINE_00000098192566184677565510000013571772363594033587_">
				<line fill="#FFFFFF" x1="1179.3" y1="176" x2="1255.5" y2="176"/>
			</g>
			<g id="POLYLINE_00000167376923450586467980000012582427651585981315_">
				<line fill="#FFFFFF" x1="1135.9" y1="181.3" x2="1212.1" y2="181.3"/>
			</g>
			<g id="POLYLINE_00000116216098339683769750000007660757739152530576_">
				<line fill="#FFFFFF" x1="1265.1" y1="181.2" x2="1222.6" y2="181.2"/>
			</g>
			<g id="POLYLINE_00000099638403628950956190000007382789821300900773_">
				<line fill="#FFFFFF" x1="1179.3" y1="198.2" x2="1255.5" y2="198.2"/>
			</g>
			<g id="POLYLINE_00000107549866509484580090000003422919085080244127_">
				<line fill="#FFFFFF" x1="1125.4" y1="203.5" x2="1082.4" y2="203.5"/>
			</g>
			<g id="POLYLINE_00000073003253081590260510000004586193182714571449_">
				<line fill="#FFFFFF" x1="1265.1" y1="203.5" x2="1222.6" y2="203.5"/>
			</g>
			<g id="POLYLINE_00000120539672328469230780000016296682546421812659_">
				<line fill="#FFFFFF" x1="1092.5" y1="176" x2="1168.7" y2="176"/>
			</g>
			<g id="POLYLINE_00000016050441314786063570000007178691599493399229_">
				<line fill="#FFFFFF" x1="1135.9" y1="203.5" x2="1212.1" y2="203.5"/>
			</g>
			<g id="POLYLINE_00000078758328035916397990000005233634068946590606_">
				<line fill="#FFFFFF" x1="1092.5" y1="198.2" x2="1168.7" y2="198.2"/>
			</g>
			<g id="POLYLINE_00000029737413645950883550000003723076861085699516_">
				<line fill="#FFFFFF" x1="1125.4" y1="181.2" x2="1082.4" y2="181.2"/>
			</g>
			<g id="POLYLINE_00000143587063919404387180000000460057347391988121_">
				<line fill="#FFFFFF" x1="1265.1" y1="191.8" x2="1222.6" y2="191.8"/>
			</g>
			<g id="POLYLINE_00000115514764854657667300000008363410392387348120_">
				<line fill="#FFFFFF" x1="1179.3" y1="186.5" x2="1255.5" y2="186.5"/>
			</g>
			<g id="POLYLINE_00000098210480701230469000000010110159920880734892_">
				<line fill="#FFFFFF" x1="1092.5" y1="186.5" x2="1168.7" y2="186.5"/>
			</g>
			<g id="POLYLINE_00000118391865824080737230000003101176505719435963_">
				<line fill="#FFFFFF" x1="1135.9" y1="224.6" x2="1212.1" y2="224.6"/>
			</g>
			<g id="POLYLINE_00000130644731184762162910000006673740974705150128_">
				<line fill="#FFFFFF" x1="1265.1" y1="224.6" x2="1222.6" y2="224.6"/>
			</g>
			<g id="POLYLINE_00000076572711736170733130000017672235468130337968_">
				<line fill="#FFFFFF" x1="1092.5" y1="219.3" x2="1168.7" y2="219.3"/>
			</g>
			<g id="POLYLINE_00000154394855102875448040000013540958417317434783_">
				<line fill="#FFFFFF" x1="1135.9" y1="214" x2="1212.1" y2="214"/>
			</g>
			<g id="POLYLINE_00000039822704826720152840000008206703088316904580_">
				<line fill="#FFFFFF" x1="1125.4" y1="224.6" x2="1082.4" y2="224.6"/>
			</g>
			<g id="POLYLINE_00000073693642868461937440000013562041801523400376_">
				<line fill="#FFFFFF" x1="1265.1" y1="214" x2="1222.6" y2="214"/>
			</g>
			<g id="POLYLINE_00000000923026106462180680000015534275797705456786_">
				<line fill="#FFFFFF" x1="1179.3" y1="208.8" x2="1255.5" y2="208.8"/>
			</g>
			<g id="POLYLINE_00000120524877999323827080000006193988617912671136_">
				<line fill="#FFFFFF" x1="1092.5" y1="208.8" x2="1168.7" y2="208.8"/>
			</g>
			<g id="POLYLINE_00000101802375866476442250000015959029577294289792_">
				<line fill="#FFFFFF" x1="1125.4" y1="214" x2="1082.4" y2="214"/>
			</g>
			<g id="POLYLINE_00000176748299477373387260000018040739542573547701_">
				<line fill="#FFFFFF" x1="1179.3" y1="219.3" x2="1255.5" y2="219.3"/>
			</g>
			<g id="POLYLINE_00000076582749259523848210000012459595307744715147_">
				<line fill="#FFFFFF" x1="1125.4" y1="236.3" x2="1082.4" y2="236.3"/>
			</g>
			<g id="POLYLINE_00000039818310051782889410000004296838083345338797_">
				<line fill="#FFFFFF" x1="1179.3" y1="231" x2="1255.5" y2="231"/>
			</g>
			<g id="POLYLINE_00000123401386278284312670000010542413546811274417_">
				<line fill="#FFFFFF" x1="1179.3" y1="241.6" x2="1255.5" y2="241.6"/>
			</g>
			<g id="POLYLINE_00000067939684521365248670000008235478513160690348_">
				<line fill="#FFFFFF" x1="1092.5" y1="241.6" x2="1168.7" y2="241.6"/>
			</g>
			<g id="POLYLINE_00000036945409521253218620000016193079366013336714_">
				<line fill="#FFFFFF" x1="1092.5" y1="231" x2="1168.7" y2="231"/>
			</g>
			<g id="POLYLINE_00000174573647876937943780000004228453004035432321_">
				<line fill="#FFFFFF" x1="1092.5" y1="253.3" x2="1168.7" y2="253.3"/>
			</g>
			<g id="POLYLINE_00000048460849981314827210000007299599726373560468_">
				<line fill="#FFFFFF" x1="1125.4" y1="246.8" x2="1082.4" y2="246.8"/>
			</g>
			<g id="POLYLINE_00000151538740798897728780000001275685966080587694_">
				<line fill="#FFFFFF" x1="1265.1" y1="246.8" x2="1222.6" y2="246.8"/>
			</g>
			<g id="POLYLINE_00000178892396724839372180000003344412871309586867_">
				<line fill="#FFFFFF" x1="1179.3" y1="253.3" x2="1255.5" y2="253.3"/>
			</g>
			<g id="POLYLINE_00000027565728152762896710000011952598537687819398_">
				<line fill="#FFFFFF" x1="1135.9" y1="236.3" x2="1212.1" y2="236.3"/>
			</g>
			<g id="POLYLINE_00000182498365913307415550000014167543072523081360_">
				<line fill="#FFFFFF" x1="1135.9" y1="246.8" x2="1212.1" y2="246.8"/>
			</g>
			<g id="POLYLINE_00000031916235263995615880000003462882412834834840_">
				<line fill="#FFFFFF" x1="1265.1" y1="236.3" x2="1222.6" y2="236.3"/>
			</g>
			<g id="POLYLINE_00000128476228110291308360000009965210113819374486_">
				<line fill="#FFFFFF" x1="1135.9" y1="258.6" x2="1212.1" y2="258.6"/>
			</g>
			<g id="POLYLINE_00000060724643888222399060000006471363402123126963_">
				<line fill="#FFFFFF" x1="1265.1" y1="258.6" x2="1222.6" y2="258.6"/>
			</g>
			<g id="POLYLINE_00000162352614790651829990000010260787136946324611_">
				<line fill="#FFFFFF" x1="1125.4" y1="258.6" x2="1082.4" y2="258.6"/>
			</g>
			<g id="POLYLINE_00000017482509750498268470000007597574297369743500_">
				<line fill="#FFFFFF" x1="1125" y1="443" x2="1082.4" y2="443"/>
			</g>
			<g id="POLYLINE_00000048463563265700715250000013183204104157582225_">
				<line fill="#FFFFFF" x1="1135.5" y1="443" x2="1211.7" y2="443"/>
			</g>
			<g id="POLYLINE_00000042728745837841004890000018399105656533396873_">
				<line fill="#FFFFFF" x1="1265.1" y1="443" x2="1222.3" y2="443"/>
			</g>
			<g id="POLYLINE_00000116215231907120169760000012705269522134994052_">
				<line fill="#FFFFFF" x1="1178.9" y1="448.3" x2="1255.1" y2="448.3"/>
			</g>
			<g id="POLYLINE_00000150790627905572788110000008796288226788566926_">
				<line fill="#FFFFFF" x1="1265.1" y1="453.6" x2="1222.3" y2="453.6"/>
			</g>
			<g id="POLYLINE_00000101794809246161433680000006253101489097576329_">
				<line fill="#FFFFFF" x1="1092.1" y1="448.3" x2="1168.4" y2="448.3"/>
			</g>
			<g id="POLYLINE_00000069374357060794401550000005279198658578187684_">
				<line fill="#FFFFFF" x1="1135.5" y1="453.6" x2="1211.7" y2="453.6"/>
			</g>
			<g id="POLYLINE_00000099627658425198874660000007577609011816831363_">
				<line fill="#FFFFFF" x1="1125" y1="453.6" x2="1082.4" y2="453.6"/>
			</g>
			<g id="POLYLINE_00000025427975776605318820000000684546625518552746_">
				<line fill="#FFFFFF" x1="1125" y1="464.1" x2="1082.4" y2="464.1"/>
			</g>
			<g id="POLYLINE_00000155144780957982282290000008665872360663770546_">
				<line fill="#FFFFFF" x1="1092.1" y1="458.8" x2="1168.4" y2="458.8"/>
			</g>
			<g id="POLYLINE_00000021090116052396948810000012646268976519089293_">
				<line fill="#FFFFFF" x1="1178.9" y1="458.8" x2="1255.1" y2="458.8"/>
			</g>
			<g id="POLYLINE_00000163755595054423100770000002199425404570266245_">
				<line fill="#FFFFFF" x1="1265.1" y1="464.1" x2="1222.3" y2="464.1"/>
			</g>
			<g id="POLYLINE_00000101803104890287308640000017461725956281162636_">
				<line fill="#FFFFFF" x1="1135.5" y1="464.1" x2="1211.7" y2="464.1"/>
			</g>
			<g id="POLYLINE_00000118386291894831652010000007426181480742851981_">
				<line fill="#FFFFFF" x1="1178.9" y1="469.4" x2="1255.1" y2="469.4"/>
			</g>
			<g id="POLYLINE_00000083787525107074433330000016258476777073230009_">
				<line fill="#FFFFFF" x1="1092.1" y1="469.4" x2="1168.4" y2="469.4"/>
			</g>
			<g id="POLYLINE_00000040556150811727027860000010512852914030946467_">
				<line fill="#FFFFFF" x1="1135.5" y1="474.6" x2="1211.7" y2="474.6"/>
			</g>
			<g id="POLYLINE_00000126315209708705520800000013786525751950830499_">
				<line fill="#FFFFFF" x1="1125" y1="474.6" x2="1082.4" y2="474.6"/>
			</g>
			<g id="POLYLINE_00000164485972790119737390000016872558131524293284_">
				<line fill="#FFFFFF" x1="1265.1" y1="474.6" x2="1222.3" y2="474.6"/>
			</g>
			<g id="POLYLINE_00000147185515007736256810000010728958100085618578_">
				<line fill="#FFFFFF" x1="1092.1" y1="481.1" x2="1168.4" y2="481.1"/>
			</g>
			<g id="POLYLINE_00000149362085280825460370000012801568431805588125_">
				<line fill="#FFFFFF" x1="1178.9" y1="481.1" x2="1255.1" y2="481.1"/>
			</g>
			<g id="POLYLINE_00000110462884856039225050000015697780115739084456_">
				<line fill="#FFFFFF" x1="1125" y1="486.4" x2="1082.4" y2="486.4"/>
			</g>
			<g id="POLYLINE_00000093144138936807383220000011891421392190646158_">
				<line fill="#FFFFFF" x1="1265.1" y1="486.4" x2="1222.3" y2="486.4"/>
			</g>
			<g id="POLYLINE_00000031923089959952485170000005492205639142640274_">
				<line fill="#FFFFFF" x1="1135.5" y1="486.4" x2="1211.7" y2="486.4"/>
			</g>
			<g id="POLYLINE_00000021821989081970226450000000415297722990273451_">
				<line fill="#FFFFFF" x1="1135.5" y1="507.4" x2="1211.7" y2="507.4"/>
			</g>
			<g id="POLYLINE_00000108301790043462677270000008557316728825196698_">
				<line fill="#FFFFFF" x1="1125" y1="507.4" x2="1082.4" y2="507.4"/>
			</g>
			<g id="POLYLINE_00000089574874333851069230000000598431512477572252_">
				<line fill="#FFFFFF" x1="1178.9" y1="491.6" x2="1255.1" y2="491.6"/>
			</g>
			<g id="POLYLINE_00000010284312093332458390000014884739030363128711_">
				<line fill="#FFFFFF" x1="1135.5" y1="496.9" x2="1211.7" y2="496.9"/>
			</g>
			<g id="POLYLINE_00000114775174297597099650000001095006868985065649_">
				<line fill="#FFFFFF" x1="1265.1" y1="496.9" x2="1222.3" y2="496.9"/>
			</g>
			<g id="POLYLINE_00000000935146056054669210000007201037938264673442_">
				<line fill="#FFFFFF" x1="1178.9" y1="513.9" x2="1255.1" y2="513.9"/>
			</g>
			<g id="POLYLINE_00000045606841553465666290000007872494200757091516_">
				<line fill="#FFFFFF" x1="1125" y1="519.2" x2="1082.4" y2="519.2"/>
			</g>
			<g id="POLYLINE_00000082360262837746067160000001219824348762262716_">
				<line fill="#FFFFFF" x1="1265.1" y1="519.2" x2="1222.3" y2="519.2"/>
			</g>
			<g id="POLYLINE_00000051358606541480380160000014854240283293929639_">
				<line fill="#FFFFFF" x1="1092.1" y1="491.6" x2="1168.4" y2="491.6"/>
			</g>
			<g id="POLYLINE_00000072964571100531281140000006439556735173996954_">
				<line fill="#FFFFFF" x1="1135.5" y1="519.2" x2="1211.7" y2="519.2"/>
			</g>
			<g id="POLYLINE_00000146462975828026717280000007176040390170657921_">
				<line fill="#FFFFFF" x1="1092.1" y1="513.9" x2="1168.4" y2="513.9"/>
			</g>
			<g id="POLYLINE_00000165930906799699717430000014655379758641633208_">
				<line fill="#FFFFFF" x1="1125" y1="496.9" x2="1082.4" y2="496.9"/>
			</g>
			<g id="POLYLINE_00000157291724128236701700000004326885903792799139_">
				<line fill="#FFFFFF" x1="1265.1" y1="507.4" x2="1222.3" y2="507.4"/>
			</g>
			<g id="POLYLINE_00000065754496842540337030000001759741091903299727_">
				<line fill="#FFFFFF" x1="1178.9" y1="502.2" x2="1255.1" y2="502.2"/>
			</g>
			<g id="POLYLINE_00000030488338890221485140000013249079353117879963_">
				<line fill="#FFFFFF" x1="1092.1" y1="502.2" x2="1168.4" y2="502.2"/>
			</g>
			<g id="POLYLINE_00000070117566834113757700000016539304587653145253_">
				<line fill="#FFFFFF" x1="1135.5" y1="540.2" x2="1211.7" y2="540.2"/>
			</g>
			<g id="POLYLINE_00000106141432588373383110000016152154682913465758_">
				<line fill="#FFFFFF" x1="1265.1" y1="540.2" x2="1222.3" y2="540.2"/>
			</g>
			<g id="POLYLINE_00000052076900024877967810000018033417644782718608_">
				<line fill="#FFFFFF" x1="1092.1" y1="535" x2="1168.4" y2="535"/>
			</g>
			<g id="POLYLINE_00000045605502875495638070000014634690976732733569_">
				<line fill="#FFFFFF" x1="1135.5" y1="529.7" x2="1211.7" y2="529.7"/>
			</g>
			<g id="POLYLINE_00000115474674949936366300000000371324979414895803_">
				<line fill="#FFFFFF" x1="1125" y1="540.2" x2="1082.4" y2="540.2"/>
			</g>
			<g id="POLYLINE_00000165954738757782094870000003206769386992152453_">
				<line fill="#FFFFFF" x1="1265.1" y1="529.7" x2="1222.3" y2="529.7"/>
			</g>
			<g id="POLYLINE_00000145019514105365076060000013467696980054286484_">
				<line fill="#FFFFFF" x1="1178.9" y1="524.4" x2="1255.1" y2="524.4"/>
			</g>
			<g id="POLYLINE_00000178884571159035864050000000644989535873512608_">
				<line fill="#FFFFFF" x1="1092.1" y1="524.4" x2="1168.4" y2="524.4"/>
			</g>
			<g id="POLYLINE_00000029766417633173998370000002803949649157552054_">
				<line fill="#FFFFFF" x1="1125" y1="529.7" x2="1082.4" y2="529.7"/>
			</g>
			<g id="POLYLINE_00000101822254737181826220000006218074020608902063_">
				<line fill="#FFFFFF" x1="1178.9" y1="535" x2="1255.1" y2="535"/>
			</g>
			<g id="POLYLINE_00000043434933910391395680000005384854447778609574_">
				<line fill="#FFFFFF" x1="1125" y1="552" x2="1082.4" y2="552"/>
			</g>
			<g id="POLYLINE_00000057109884551725320690000008335678999714392253_">
				<line fill="#FFFFFF" x1="1178.9" y1="546.7" x2="1255.1" y2="546.7"/>
			</g>
			<g id="POLYLINE_00000152236456646001327690000014159897827570348194_">
				<line fill="#FFFFFF" x1="1178.9" y1="557.2" x2="1255.1" y2="557.2"/>
			</g>
			<g id="POLYLINE_00000087387602242901806570000005252706034714315950_">
				<line fill="#FFFFFF" x1="1092.1" y1="557.2" x2="1168.4" y2="557.2"/>
			</g>
			<g id="POLYLINE_00000171685791058405036410000003965921121256919684_">
				<line fill="#FFFFFF" x1="1092.1" y1="546.7" x2="1168.4" y2="546.7"/>
			</g>
			<g id="POLYLINE_00000019671504209534696720000016716016020183739313_">
				<line fill="#FFFFFF" x1="1092.1" y1="568.9" x2="1168.4" y2="568.9"/>
			</g>
			<g id="POLYLINE_00000026875880535132517910000001879861164699260831_">
				<line fill="#FFFFFF" x1="1125" y1="562.5" x2="1082.4" y2="562.5"/>
			</g>
			<g id="POLYLINE_00000069366848493420224850000000053849664930081981_">
				<line fill="#FFFFFF" x1="1265.1" y1="562.5" x2="1222.3" y2="562.5"/>
			</g>
			<g id="POLYLINE_00000128451046293702090210000016701914854528000645_">
				<line fill="#FFFFFF" x1="1178.9" y1="568.9" x2="1255.1" y2="568.9"/>
			</g>
			<g id="POLYLINE_00000094591934486548235860000003580516597690614164_">
				<line fill="#FFFFFF" x1="1135.5" y1="552" x2="1211.7" y2="552"/>
			</g>
			<g id="POLYLINE_00000011028685631725110440000007461981736785144735_">
				<line fill="#FFFFFF" x1="1135.5" y1="562.5" x2="1211.7" y2="562.5"/>
			</g>
			<g id="POLYLINE_00000044164880075086661880000003950247063550992823_">
				<line fill="#FFFFFF" x1="1265.1" y1="552" x2="1222.3" y2="552"/>
			</g>
			<g id="POLYLINE_00000168081001798339407810000010373008616318240167_">
				<line fill="#FFFFFF" x1="1135.5" y1="574.2" x2="1211.7" y2="574.2"/>
			</g>
			<g id="POLYLINE_00000034059506913929568400000012867846822778518425_">
				<line fill="#FFFFFF" x1="1265.1" y1="574.2" x2="1222.3" y2="574.2"/>
			</g>
			<g id="POLYLINE_00000109015083752276489140000002997533812583766708_">
				<line fill="#FFFFFF" x1="1125" y1="574.2" x2="1082.4" y2="574.2"/>
			</g>
		</g>
		<g>
			<rect x="1250.9" y="54.5" fill="#FFFFFF" width="8.5" height="20.2"/>
			<rect x="1088" y="54.5" fill="#FFFFFF" width="8.5" height="20.2"/>
		</g>
		<path fill="#FFFFFF" d="M1170.9,423.1L1170.9,423.1c-5.5,0-9.9-4.4-9.9-9.9V288.4c0-5.5,4.4-9.9,9.9-9.9h0c5.5,0,9.9,4.4,9.9,9.9
			v124.8C1180.8,418.7,1176.3,423.1,1170.9,423.1z"/>
		<g>
			<rect x="1250.9" y="629" fill="#FFFFFF" width="8.5" height="20.2"/>
			<rect x="1088" y="629" fill="#FFFFFF" width="8.5" height="20.2"/>
		</g>
	</g>
</g>
<g>
	<g>
		
			<text transform="matrix(0.9843 -0.1763 0.1763 0.9843 753.8664 157.1114)" fill="#EDD2CE" stroke="#EDD2CE" stroke-width="2" stroke-linecap="round" stroke-linejoin="round" stroke-miterlimit="10" font-family="'SharkBlindateRegular'" font-size="88.9887px">asd</text>
	</g>
	<text transform="matrix(1 0 0 1 726.101 966.1508)" font-family="'#9Slide03QuicksandBold-Bold'" font-size="98px">color</text>
</g>
</svg>
