<?xml version="1.0" encoding="utf-8"?>
<!-- Generator: Adobe Illustrator 27.9.0, SVG Export Plug-In . SVG Version: 6.00 Build 0)  -->
<svg version="1.1" id="Layer_1" xmlns="http://www.w3.org/2000/svg" xmlns:xlink="http://www.w3.org/1999/xlink" x="0px" y="0px"
	 viewBox="0 0 2952.4 2122.1" enable-background="new 0 0 2952.4 2122.1" xml:space="preserve">
<g>
	<path fill="#FFFFFF" d="M2127.6,1827.7v-111.6h49.9l86.9-280.9h-66.2v-111.6h313.9l112.2,392.4h49.9v111.6H2391v-111.6h40.9
		l-13.6-53.8h-114.2l-14.3,53.8h60.3v111.6L2127.6,1827.7L2127.6,1827.7z M2320.3,1585.7h83l-37-154.4L2320.3,1585.7z"/>
</g>
<path fill="#F4A5AC" d="M1330.2,1462.7l-112.2-392.4H904v111.6h66.2l-86.9,280.9h-49.9v111.6h222.5v-111.6h-60.3l14.3-53.8h114.2
	l13.6,53.8h-40.9v111.6h283.5v-111.6H1330.2z M1025.9,1332.3l46.1-154.4l37,154.4H1025.9z"/>
<g>
	<rect x="846.5" y="1574.1" width="194.5" height="15.3"/>
	<rect x="1145" y="1574.1" width="194.5" height="15.3"/>
</g>
<g>
	<g>
		<path fill="#E2D6C7" d="M283.9,1579.3v198.4h546.8v-198.4H283.9z"/>
	</g>
	<g>
		<rect x="297.1" y="1671.4" width="194.5" height="14.2"/>
		<rect x="595.4" y="1671.4" width="194.5" height="14.2"/>
	</g>
</g>
<g>
	<path fill="#F4A5AC" d="M778.8,1462.7l-112.2-392.4H352.6v111.6h66.2l-86.9,280.9h-49.9v111.6h222.5v-111.6H444l14.3-53.8h114.2
		l13.6,53.8h-40.9v111.6h283.5v-111.6L778.8,1462.7L778.8,1462.7z M809.7,1555.2H564.2v-73.6h46.3l-23.2-91.8H443.7l-24.3,91.8h66
		v73.6H300.9v-73.6h45l98.7-318.8h-72.9v-73.6h280.6l112.2,392.4h45.3L809.7,1555.2L809.7,1555.2z"/>
	<path fill="#F4A5AC" d="M536.4,1143.7l-61.8,207H586L536.4,1143.7z M535.2,1185.5l37,154.4h-83L535.2,1185.5z"/>
</g>
<g>
	<g>
		<path fill="#E2D6C7" d="M2637.3,389.1l-61.8,207h111.3L2637.3,389.1z M2636.1,430.9l37,154.4h-83L2636.1,430.9z"/>
		<polygon fill="#E2D6C7" points="2872.2,712.6 2760,320.1 2692.7,320.1 2692.7,339.1 2745.7,339.1 2857.9,731.6 2903.2,731.6 
			2903.2,805.2 2657.7,805.2 2657.7,731.6 2704,731.6 2680.7,639.8 2537.2,639.8 2512.8,731.6 2578.9,731.6 2578.9,805.2 
			2394.3,805.2 2394.3,731.6 2439.3,731.6 2538,412.7 2465,412.7 2465,339.1 2568.9,339.1 2568.9,320.1 2446.1,320.1 2446.1,431.7 
			2512.2,431.7 2425.3,712.6 2375.4,712.6 2375.4,824.1 2597.8,824.1 2597.8,712.6 2537.5,712.6 2551.8,658.7 2666,658.7 
			2679.6,712.6 2638.7,712.6 2638.7,824.1 2922.2,824.1 2922.2,712.6 		"/>
	</g>
	<g>
		<path fill="#E2D6C7" d="M2080.2,397.2l-61.8,207h111.3L2080.2,397.2z M2079.1,439l37,154.4h-83L2079.1,439z"/>
		<polygon fill="#E2D6C7" points="2316.5,712.6 2204.3,320.1 2137.1,320.1 2137.1,339.1 2190,339.1 2302.2,731.6 2347.5,731.6 
			2347.5,805.2 2102,805.2 2102,731.6 2148.3,731.6 2125.1,639.8 1981.5,639.8 1957.2,731.6 2023.2,731.6 2023.2,805.2 
			1838.7,805.2 1838.7,731.6 1883.6,731.6 1982.3,412.7 1909.4,412.7 1909.4,339.1 2013.2,339.1 2013.2,320.1 1890.4,320.1 
			1890.4,431.7 1956.5,431.7 1869.6,712.6 1819.7,712.6 1819.7,824.1 2042.2,824.1 2042.2,712.6 1981.8,712.6 1996.1,658.7 
			2110.3,658.7 2123.9,712.6 2083,712.6 2083,824.1 2366.5,824.1 2366.5,712.6 		"/>
	</g>
</g>
<g>
	<path d="M2307.3,1977.1c-5.1,0-9.7,1.5-13.7,4.4c-4,2.9-7,6.2-9,9.9c-3-9.5-10-14.3-20.9-14.3c-4.4,0-8.4,1.1-12,3.3
		c-3.6,2.2-6.6,4.9-8.9,8v-2.1c0-2.3-0.7-4.1-2.2-5.7c-1.5-1.5-3.3-2.3-5.6-2.3c-2.3,0-4.1,0.8-5.6,2.3c-1.5,1.5-2.2,3.4-2.2,5.7
		v53.7c0,2.3,0.7,4.1,2.2,5.7c1.5,1.5,3.3,2.3,5.6,2.3c2.3,0,4.1-0.8,5.6-2.3c1.5-1.5,2.2-3.4,2.2-5.7v-33.3c0-4.4,1.4-8.1,4.1-11
		c2.7-2.9,6.5-4.4,11.4-4.4c4.7,0,7.9,1.4,9.8,4.1c1.9,2.7,2.8,6.5,2.8,11.2v33.3c0,2.3,0.7,4.1,2.2,5.7c1.5,1.5,3.3,2.3,5.6,2.3
		c2.3,0,4.1-0.8,5.6-2.3c1.5-1.5,2.2-3.4,2.2-5.7v-33.3c0-4.4,1.4-8.1,4.1-11c2.7-2.9,6.5-4.4,11.4-4.4c4.7,0,8,1.4,9.8,4.1
		c1.9,2.7,2.8,6.5,2.8,11.2v33.3c0,2.3,0.7,4.1,2.2,5.7c1.5,1.5,3.3,2.3,5.6,2.3c2.3,0,4.1-0.8,5.6-2.3c1.5-1.5,2.2-3.4,2.2-5.7
		v-33.3c0-9.3-1.6-16.5-4.9-21.8C2321.8,1979.7,2315.9,1977.1,2307.3,1977.1z"/>
	<path d="M2360.2,1955.9c-1.2-1-3.3-1.4-6.4-1.4c-2.9,0-4.9,0.5-6.2,1.4c-1.3,1-1.9,2.6-1.9,5.1v2.5c0,2.4,0.6,4.1,1.8,5.1
		c1.2,1,3.3,1.4,6.2,1.4c3,0,5.2-0.5,6.4-1.4c1.3-0.9,1.9-2.6,1.9-5.1v-2.5C2362,1958.5,2361.4,1956.9,2360.2,1955.9z"/>
	<path d="M2353.8,1978.4c-2.3,0-4.1,0.8-5.6,2.3c-1.5,1.5-2.2,3.4-2.2,5.7v53.7c0,2.3,0.7,4.1,2.2,5.7c1.5,1.5,3.3,2.3,5.6,2.3
		c2.3,0,4.1-0.8,5.6-2.3c1.5-1.5,2.2-3.4,2.2-5.7v-53.7c0-2.3-0.7-4.1-2.2-5.7C2357.9,1979.1,2356.1,1978.4,2353.8,1978.4z"/>
	<path d="M2426.2,2030c-1.1,0-2.1,0.2-2.9,0.5c-0.8,0.3-1.6,0.8-2.5,1.5c-0.9,0.6-1.6,1.1-2.1,1.4c-2.1,1-5.2,1.6-9.5,1.6
		c-5.8,0-10.6-2.1-14.3-6.2c-3.7-4.1-5.6-9.3-5.6-15.5c0-6.5,1.8-11.8,5.5-15.8c3.7-4,8.8-6,15.3-6c1,0,2.4,0.2,4.1,0.5
		c1.7,0.3,3,0.7,3.8,1.2c0.8,0.4,1.6,1,2.4,1.6c0.8,0.6,1.7,1.2,2.5,1.6c0.9,0.4,2,0.6,3.4,0.6c1.8,0,3.3-0.7,4.4-2.1
		c1.1-1.4,1.7-3.1,1.7-5c0-3.8-2.3-6.9-6.8-9.2c-4.5-2.3-10.4-3.4-17.8-3.4c-6.6,0-12.5,1.5-17.7,4.6c-5.2,3.1-9.3,7.3-12.2,12.8
		c-2.9,5.5-4.4,11.7-4.4,18.7c0,6.8,1.4,12.9,4.2,18.4c2.8,5.5,6.7,9.8,11.8,12.9c5.1,3.1,10.9,4.7,17.6,4.7c4.5,0,8.8-0.5,12.7-1.6
		c4-1.1,7.2-2.5,9.6-4.4c2.4-1.8,3.6-3.8,3.6-5.9c0-2.2-0.6-3.9-1.9-5.3C2430.1,2030.7,2428.4,2030,2426.2,2030z"/>
	<path d="M2506.4,1979.3c-1.5-1.5-3.3-2.2-5.6-2.2c-2.3,0-4.1,0.8-5.6,2.3c-1.5,1.5-2.2,3.4-2.2,5.7v0.1c-2.5-2.3-5.6-4.3-9.2-5.8
		c-3.6-1.5-7.5-2.3-11.7-2.3c-5.8,0-11.1,1.5-15.9,4.6c-4.8,3.1-8.6,7.4-11.4,12.9c-2.8,5.5-4.2,11.7-4.2,18.7s1.4,13.1,4.2,18.6
		c2.8,5.5,6.7,9.7,11.5,12.8c4.9,3.1,10.3,4.6,16.2,4.6c4.1,0,7.9-0.9,11.6-2.7c3.7-1.8,6.6-3.9,8.8-6.4c0.1,2.3,0.8,4.1,2.3,5.6
		c1.4,1.5,3.3,2.2,5.5,2.2c2.3,0,4.1-0.8,5.6-2.3c1.5-1.5,2.2-3.4,2.2-5.7v-55C2508.7,1982.7,2507.9,1980.8,2506.4,1979.3z
		 M2488.4,2028.8c-3.6,4.1-8.1,6.2-13.8,6.2c-5.6,0-10.2-2.1-13.7-6.2c-3.5-4.1-5.3-9.3-5.3-15.5c0-6.2,1.8-11.4,5.3-15.6
		c3.6-4.2,8.1-6.2,13.6-6.2c5.6,0,10.2,2.1,13.8,6.2c3.6,4.2,5.3,9.4,5.3,15.6C2493.7,2019.5,2491.9,2024.6,2488.4,2028.8z"/>
</g>
<g>
	<text transform="matrix(1 0 0 1 142.8245 2052.6089)" font-family="'#9Slide03QuicksandBold-Bold'" font-size="130px">boxcolor</text>
	<text transform="matrix(1 0 0 1 78.0208 313.2725)" font-family="'#9Slide03QuicksandBold-Bold'" font-size="130px">namecolor</text>
	<text transform="matrix(1 0 0 1 169.1438 633.2473)" fill="#FFFFFF" font-family="'WildSageRegular'" font-size="328.7417px">name</text>
	
		<text transform="matrix(1 0 0 1 169.1438 633.2473)" fill="none" stroke="#FFFFFF" stroke-width="5" stroke-linecap="round" stroke-linejoin="round" stroke-miterlimit="10" font-family="'WildSageRegular'" font-size="328.7417px">name</text>
</g>
<g>
	<path d="M1993.4,935.6c-4.6-2.6-9.8-4-15.5-4c-2.3,0-4.6,0.3-7.2,0.9c-2.5,0.6-4.6,1.4-6.2,2.3l2.5-18.9h32.2c2.1,0,3.8-0.7,5.2-2
		c1.4-1.3,2.1-3,2.1-5c0-2.1-0.7-3.8-2.1-5.2c-1.4-1.4-3.1-2.1-5.2-2.1h-37.6c-2,0-3.7,0.6-5.1,1.8c-1.4,1.2-2.3,2.7-2.7,4.5
		l-4,32.2c-0.1,0.3-0.1,1-0.1,1.8c0,2.5,0.7,4.7,2.1,6.5c1.4,1.8,3.8,2.7,7.2,2.7c1,0,1.9-0.2,2.8-0.5c0.9-0.3,2.1-0.9,3.7-1.7
		c2.2-1,4-1.8,5.6-2.3c1.6-0.5,3.3-0.8,5.3-0.8c4.4,0,8.2,1.5,11.4,4.4c3.2,2.9,4.8,6.8,4.8,11.4c0,3.2-0.9,6.2-2.8,9
		c-1.9,2.8-4.4,5-7.5,6.6c-3.1,1.6-6.5,2.5-10,2.5c-2.8,0-6-1.1-9.6-3.4c-2.3-1.6-4.3-2.5-5.8-2.5c-2.2,0-3.9,0.6-5.3,1.9
		c-1.3,1.3-2,2.7-2,4.2c0,1.4,0.3,2.9,1,4.4c0.7,1.6,1.6,2.8,2.6,3.6c2.3,1.8,5.2,3.2,8.8,4.3c3.6,1,7.1,1.6,10.5,1.6
		c6.3,0,12.2-1.4,17.7-4.4c5.5-2.9,9.8-6.8,13.1-11.8c3.3-4.9,4.9-10.3,4.9-16.1c0-5.6-1.3-10.7-4-15.3
		C2001.7,941.8,1998.1,938.2,1993.4,935.6z"/>
	<path d="M2106.1,921.8c-5.1,0-9.7,1.5-13.7,4.4c-4,2.9-7,6.2-9,9.9c-3-9.5-10-14.3-20.9-14.3c-4.4,0-8.4,1.1-12,3.3
		c-3.6,2.2-6.6,4.9-8.9,8v-2.1c0-2.3-0.7-4.1-2.2-5.7c-1.5-1.5-3.3-2.3-5.6-2.3c-2.3,0-4.1,0.8-5.6,2.3c-1.5,1.5-2.2,3.4-2.2,5.7
		v53.7c0,2.3,0.7,4.1,2.2,5.7c1.5,1.5,3.3,2.3,5.6,2.3c2.3,0,4.1-0.8,5.6-2.3c1.5-1.5,2.2-3.4,2.2-5.7v-33.3c0-4.4,1.4-8.1,4.1-11
		c2.7-2.9,6.5-4.4,11.4-4.4c4.7,0,8,1.4,9.8,4.1c1.9,2.7,2.8,6.5,2.8,11.2v33.3c0,2.3,0.7,4.1,2.2,5.7c1.5,1.5,3.3,2.3,5.6,2.3
		c2.3,0,4.1-0.8,5.6-2.3c1.5-1.5,2.2-3.4,2.2-5.7v-33.3c0-4.4,1.4-8.1,4.1-11c2.7-2.9,6.5-4.4,11.4-4.4c4.7,0,7.9,1.4,9.8,4.1
		c1.9,2.7,2.8,6.5,2.8,11.2v33.3c0,2.3,0.7,4.1,2.2,5.7c1.5,1.5,3.3,2.3,5.6,2.3c2.3,0,4.1-0.8,5.6-2.3c1.5-1.5,2.2-3.4,2.2-5.7
		v-33.3c0-9.3-1.6-16.5-4.9-21.8C2120.6,924.5,2114.7,921.8,2106.1,921.8z"/>
	<path d="M2225.9,921.8c-5.1,0-9.7,1.5-13.7,4.4c-4,2.9-7,6.2-9,9.9c-3-9.5-10-14.3-20.9-14.3c-4.4,0-8.4,1.1-12,3.3
		c-3.6,2.2-6.6,4.9-8.9,8v-2.1c0-2.3-0.7-4.1-2.2-5.7c-1.5-1.5-3.3-2.3-5.6-2.3c-2.3,0-4.1,0.8-5.6,2.3c-1.5,1.5-2.2,3.4-2.2,5.7
		v53.7c0,2.3,0.7,4.1,2.2,5.7c1.5,1.5,3.3,2.3,5.6,2.3c2.3,0,4.1-0.8,5.6-2.3c1.5-1.5,2.2-3.4,2.2-5.7v-33.3c0-4.4,1.4-8.1,4.1-11
		c2.7-2.9,6.5-4.4,11.4-4.4c4.7,0,7.9,1.4,9.8,4.1c1.9,2.7,2.8,6.5,2.8,11.2v33.3c0,2.3,0.7,4.1,2.2,5.7c1.5,1.5,3.3,2.3,5.6,2.3
		c2.3,0,4.1-0.8,5.6-2.3c1.5-1.5,2.2-3.4,2.2-5.7v-33.3c0-4.4,1.4-8.1,4.1-11c2.7-2.9,6.5-4.4,11.4-4.4c4.7,0,7.9,1.4,9.8,4.1
		c1.9,2.7,2.8,6.5,2.8,11.2v33.3c0,2.3,0.7,4.1,2.2,5.7c1.5,1.5,3.3,2.3,5.6,2.3c2.3,0,4.1-0.8,5.6-2.3c1.5-1.5,2.2-3.4,2.2-5.7
		v-33.3c0-9.3-1.6-16.5-4.9-21.8C2240.5,924.5,2234.5,921.8,2225.9,921.8z"/>
	<path d="M2330.6,945.1H2308c-2.3,0-4.1,0.7-5.7,2.2c-1.5,1.5-2.3,3.3-2.3,5.5c0,2.3,0.8,4.1,2.3,5.6c1.5,1.5,3.4,2.2,5.7,2.2h22.6
		c2.3,0,4.1-0.7,5.7-2.1c1.5-1.4,2.3-3.2,2.3-5.4c0-2.3-0.8-4.1-2.3-5.7C2334.7,945.9,2332.8,945.1,2330.6,945.1z"/>
	<path d="M2425,954.3l19.6-18.1c2.1-1.8,3.1-3.8,3.1-5.9c0-1.6-0.8-3.3-2.3-4.9c-1.5-1.6-3.2-2.4-5.1-2.4c-2.2,0-4.1,0.8-5.7,2.5
		l-27.8,26.9v-48.1c0-2.3-0.7-4.1-2.2-5.7c-1.5-1.5-3.3-2.3-5.6-2.3c-2.3,0-4.1,0.8-5.6,2.3c-1.5,1.5-2.2,3.4-2.2,5.7v80.3
		c0,2.3,0.7,4.1,2.2,5.7c1.5,1.5,3.3,2.3,5.6,2.3c2.3,0,4.1-0.8,5.6-2.3c1.5-1.5,2.2-3.4,2.2-5.7v-13.6l6.4-5.9l23.4,24.7
		c1.6,1.7,3.5,2.6,5.7,2.6c1.9,0,3.7-0.7,5.4-2.2c1.7-1.5,2.5-3.3,2.5-5.5c0-2.2-0.8-4.1-2.5-5.9L2425,954.3z"/>
	<path d="M2510.3,926.5c-5.4-3.1-11.4-4.6-17.9-4.6c-6.6,0-12.6,1.5-17.9,4.6c-5.4,3.1-9.6,7.4-12.7,12.9
		c-3.1,5.5-4.7,11.7-4.7,18.7c0,6.9,1.6,13.2,4.7,18.7c3.1,5.5,7.4,9.8,12.7,12.8c5.4,3,11.4,4.6,17.9,4.6c6.5,0,12.5-1.5,17.9-4.6
		c5.4-3,9.7-7.3,12.8-12.8c3.1-5.5,4.7-11.7,4.7-18.7c0-6.9-1.6-13.1-4.7-18.7C2520,933.8,2515.7,929.5,2510.3,926.5z M2509.5,969.3
		c-1.8,3.3-4.2,5.9-7.1,7.7c-3,1.8-6.3,2.7-9.9,2.7c-3.6,0-7-0.9-9.9-2.7c-3-1.8-5.4-4.4-7.1-7.7c-1.8-3.3-2.7-7.1-2.7-11.3
		c0-4.2,0.9-8,2.7-11.4c1.8-3.3,4.2-5.9,7.1-7.7c3-1.8,6.3-2.7,9.9-2.7c3.6,0,7,0.9,9.9,2.7c3,1.8,5.4,4.4,7.1,7.7
		c1.8,3.3,2.7,7.1,2.7,11.4C2512.2,962.2,2511.3,966,2509.5,969.3z"/>
	<path d="M2615.7,955.5c-3.1-1.4-7-2.7-11.7-4c-3.4-1-6-1.8-7.9-2.4c-1.9-0.6-3.4-1.6-4.6-2.7c-1.2-1.2-1.8-2.7-1.8-4.6
		c0-4.8,3.3-7.1,9.9-7.1c3.1,0,5.9,0.6,8.4,1.7c2.5,1.1,4.5,2.6,6,4.6c1.2,1.2,2.8,1.8,4.7,1.8c1.6,0,2.9-0.5,4.2-1.4
		c1.6-1.3,2.5-2.9,2.5-4.9c0-1.7-0.6-3.3-1.7-4.7c-2.5-3.2-6-5.6-10.4-7.3c-4.4-1.6-8.8-2.5-13.3-2.5c-4.3,0-8.4,0.8-12.3,2.5
		c-3.9,1.7-7,4.1-9.4,7.1c-2.4,3.1-3.6,6.7-3.6,10.9c0,4.8,1.1,8.6,3.4,11.4c2.3,2.8,5,4.9,8.2,6.3c3.2,1.4,7.3,2.8,12.3,4.2
		c4.9,1.3,8.4,2.6,10.7,3.9c2.3,1.3,3.4,3.2,3.4,5.7c0,4.9-3.4,7.4-10.1,7.7c-4,0-7.4-0.6-10.2-1.9c-2.8-1.3-5.5-3.3-8.1-6
		c-1.6-1.6-3.4-2.5-5.2-2.5c-1.3,0-2.6,0.4-3.8,1.2c-2.3,1.6-3.4,3.5-3.4,5.7c0,1.6,0.4,2.9,1.2,3.9c3.1,4.2,7.2,7.3,12.1,9.2
		s10.3,2.9,16,2.9c4.2,0,8.2-0.8,12.2-2.5c3.9-1.6,7.2-4.1,9.7-7.2c2.5-3.2,3.8-6.9,3.8-11.1c0-4.7-1.1-8.4-3.2-11.3
		C2621.4,959,2618.8,956.9,2615.7,955.5z"/>
	<path d="M2704.5,925.7c1.6-3.1,2.3-6.5,2.3-10.2c0-1.7-0.5-3.3-1.6-4.7s-2.6-2.1-4.8-2.1c-2.1,0-3.7,0.7-4.9,2.1
		c-1.2,1.4-1.8,3-1.8,4.7c0,2.7-1,4.7-2.9,6c-1.9,1.3-4.7,2-8.1,2v0.1c-3.8-1.2-7.6-1.8-11.4-1.8c-6.6,0-12.6,1.5-17.9,4.6
		c-5.4,3.1-9.6,7.4-12.7,12.9c-3.1,5.5-4.7,11.7-4.7,18.7c0,6.9,1.6,13.2,4.7,18.7c3.1,5.5,7.4,9.8,12.7,12.8
		c5.4,3,11.4,4.6,17.9,4.6c6.5,0,12.5-1.5,17.9-4.6c5.4-3,9.7-7.3,12.8-12.8c3.1-5.5,4.7-11.7,4.7-18.7c0-4.9-0.8-9.4-2.4-13.6
		c-1.6-4.2-3.9-8-6.8-11.3C2700.6,931.2,2702.9,928.7,2704.5,925.7z M2688.4,969.3c-1.8,3.3-4.2,5.9-7.1,7.7c-3,1.8-6.3,2.7-9.9,2.7
		c-3.6,0-7-0.9-9.9-2.7c-3-1.8-5.4-4.4-7.1-7.7c-1.8-3.3-2.7-7.1-2.7-11.3c0-4.2,0.9-8,2.7-11.4c1.8-3.3,4.2-5.9,7.1-7.7
		c3-1.8,6.3-2.7,9.9-2.7s7,0.9,9.9,2.7c3,1.8,5.4,4.4,7.1,7.7c1.8,3.3,2.7,7.1,2.7,11.4C2691.1,962.2,2690.2,966,2688.4,969.3z"/>
	<path d="M2775.2,929.7c-3.4-5.2-9.5-7.9-18.3-7.9c-4.5,0-8.6,1.1-12.4,3.4c-3.8,2.3-6.8,4.9-9.2,8.1v-2.2c0-2.3-0.7-4.1-2.2-5.7
		c-1.5-1.5-3.3-2.3-5.6-2.3c-2.3,0-4.1,0.8-5.6,2.3c-1.5,1.5-2.2,3.4-2.2,5.7v53.7c0,2.3,0.7,4.1,2.2,5.7c1.5,1.5,3.3,2.3,5.6,2.3
		c2.3,0,4.1-0.8,5.6-2.3c1.5-1.5,2.2-3.4,2.2-5.7v-33.3c0-4.4,1.4-8.1,4.3-11c2.9-2.9,6.8-4.4,11.8-4.4c4.9,0,8.3,1.4,10.3,4.1
		c2,2.7,3,6.5,3,11.2v33.3c0,2.3,0.7,4.1,2.2,5.7c1.5,1.5,3.3,2.3,5.6,2.3c2.3,0,4.1-0.8,5.6-2.3c1.5-1.5,2.2-3.4,2.2-5.7v-33.3
		C2780.3,942.2,2778.6,934.9,2775.2,929.7z"/>
</g>
</svg>
