<?xml version="1.0" encoding="utf-8"?>
<!-- Generator: Adobe Illustrator 27.9.0, SVG Export Plug-In . SVG Version: 6.00 Build 0)  -->
<svg version="1.1" id="Layer_1" xmlns="http://www.w3.org/2000/svg" xmlns:xlink="http://www.w3.org/1999/xlink" x="0px" y="0px"
	 viewBox="0 0 1368 4529.2" style="enable-background:new 0 0 1368 4529.2;" xml:space="preserve">
<style type="text/css">
	.st0{fill:#E2D6C7;}
	.st1{stroke:#FF0000;stroke-width:0.25;stroke-miterlimit:10;}
	.st2{fill:#F4A5AC;}
	.st3{fill:#FFFFFF;}
	.st4{font-family:'#9Slide03QuicksandBold-Bold';}
	.st5{font-size:130px;}
	.st6{font-family:'WildSageRegular';}
	.st7{font-size:328.7417px;}
	.st8{fill:none;stroke:#FFFFFF;stroke-width:5;stroke-linecap:round;stroke-linejoin:round;stroke-miterlimit:10;}
</style>
<g>
	<path class="st0" d="M682,2777.1v141.7h481.9v-141.7H682z"/>
	<path class="st1" d="M1161.1,2911.4c-0.4-0.5-0.9-0.9-1.6-1.2c0.5-0.2,0.8-0.6,1.1-1s0.4-0.9,0.4-1.4c0-2.1-1.1-3.2-3.4-3.2h-4.5
		c-0.3,0-0.6,0.1-0.8,0.3c-0.2,0.2-0.3,0.5-0.3,0.8v10.4c0,0.3,0.1,0.6,0.3,0.8s0.5,0.3,0.8,0.3h4.5c1.1,0,2.1-0.3,2.9-0.8
		c0.8-0.6,1.2-1.6,1.2-3C1161.7,2912.6,1161.5,2911.9,1161.1,2911.4z M1154.4,2906.7h3c0.4,0,0.8,0.1,1,0.4s0.4,0.6,0.4,1.1
		c0,0.4-0.1,0.7-0.4,1c-0.3,0.2-0.6,0.4-0.9,0.4h-3v-2.9H1154.4z M1158.9,2914.7c-0.3,0.3-0.8,0.5-1.3,0.5h-3.2v-3.5h3.1
		c0.5,0,1,0.1,1.4,0.3s0.6,0.7,0.6,1.4C1159.4,2914,1159.2,2914.4,1158.9,2914.7z"/>
</g>
<g>
	<path class="st2" d="M518.3,1320.4c21.9-12.8,26.5-36.6,26.5-54.3c0-18.1-5.9-33.2-17.5-44.8c-11.7-11.6-26.7-17.5-44.8-17.5h-63.7
		v129.3h36.5C483.2,1333.1,503.8,1328.9,518.3,1320.4z M437.8,1222.8h44.7c13,0,23.4,4,31.4,12c8,8,12,18.5,12,31.4
		c0,18.6-5.7,31.2-17.2,37.9c-11.4,6.7-29.3,10-53.4,10h-17.5L437.8,1222.8L437.8,1222.8z"/>
	<path class="st2" d="M525.3,1394.6c-14-11.4-34.1-17.2-59.6-17.2c-9.6,0-19.3,0.2-28.7,0.7l-18.1,0.8v143.3h30.6
		c28.8,0,50.9-4.2,67.6-12.8c14.1-7.3,31-23.8,31-61.2C548.1,1425,540.4,1407,525.3,1394.6z M508.4,1492.6
		c-13.8,7.1-33.5,10.7-59,10.7h-11.7V1397c9.1-0.4,18.4-0.6,27.9-0.6c42.3,0,63.5,17.3,63.5,51.8
		C529.2,1470.7,522.2,1485.4,508.4,1492.6z"/>
	<path class="st2" d="M679.3,1398c-14-20.1-35.7-36.4-65.1-48.9c22.5-8.2,40.9-21.6,55.4-40.2s21.7-40.4,21.7-65.4
		c0-35.8-8.5-63.5-25.6-82.9s-40.1-32.6-69-39.5s-64.6-10.4-106.9-10.4H232.6v112.1h52.5v280.5h-60.9v111.4h283.7
		c61.3,0,108.7-11.7,142.2-35s50.2-56.4,50.2-99.1C700.3,1445.6,693.3,1418.1,679.3,1398z M639.3,1564.2
		c-30.1,21-74.3,31.6-131.4,31.6H243.1v-73.5H304v-318.4h-52.5v-74.2h238.2c40.6,0,75.1,3.3,102.5,9.8c25.3,6,44.6,17,59.1,33.6
		c13.9,15.8,20.9,39.5,20.9,70.4c0,20.9-5.8,38.5-17.7,53.8c-12.4,15.9-27.7,27-46.9,34l-45,16.4l44.1,18.8
		c25.9,11.1,45.1,25.3,57,42.3c11.7,16.7,17.6,40.9,17.6,71.7C681.4,1517.1,667.6,1544.4,639.3,1564.2z"/>
</g>
<rect x="772.8" y="2841" width="194.2" height="13.9"/>
<path class="st2" d="M1165.1,1398c-14-20.1-35.7-36.4-65.1-48.9c22.4-8.2,40.9-21.6,55.4-40.2s21.7-40.4,21.7-65.4
	c0-35.8-8.5-63.5-25.6-82.9s-40.1-32.6-69-39.5s-64.6-10.4-106.9-10.4H718.4v112.1h52.5v280.5H710v111.4h283.7
	c61.3,0,108.7-11.7,142.2-35s50.2-56.3,50.2-99.1C1186.1,1445.6,1179.1,1418.1,1165.1,1398z M923.6,1222.8h44.7c13,0,23.4,4,31.4,12
	s12,18.5,12,31.4c0,18.6-5.7,31.2-17.2,37.9c-11.5,6.7-29.3,10-53.4,10h-17.5V1222.8z M994.2,1486.7c-13.8,7.1-33.5,10.7-59,10.7
	h-11.7v-106.2c9.1-0.4,18.3-0.7,27.8-0.7c42.3,0,63.5,17.3,63.5,51.8C1015,1464.8,1008,1479.6,994.2,1486.7z"/>
<rect x="796.8" y="1614.5" width="194.2" height="14.8"/>
<path class="st3" d="M988.9,3958c-14-20.1-35.7-36.4-65.1-48.9c22.5-8.2,40.9-21.6,55.4-40.2c14.5-18.6,21.7-40.4,21.7-65.4
	c0-35.8-8.5-63.5-25.6-82.9s-40.1-32.6-69-39.5s-64.6-10.4-106.9-10.4H542.2v112.1h52.5v280.5h-60.9v111.4h283.7
	c61.3,0,108.7-11.7,142.2-35s50.2-56.4,50.2-99.1C1010,4005.6,1002.9,3978.1,988.9,3958z M747.5,3782.8h44.7c13,0,23.4,4,31.4,12
	s12,18.5,12,31.4c0,18.6-5.7,31.2-17.2,37.9c-11.4,6.7-29.3,10-53.4,10h-17.5V3782.8L747.5,3782.8z M818.1,4046.1
	c-13.8,7.1-33.5,10.7-59,10.7h-11.7v-106.2c9.1-0.4,18.4-0.6,27.9-0.6c42.3,0,63.5,17.3,63.5,51.8
	C838.8,4024.2,831.9,4039,818.1,4046.1z"/>
<g>
	<g>
		<path class="st0" d="M498.3,2474.3c21.9-12.8,26.5-36.6,26.5-54.3c0-18.1-5.9-33.2-17.5-44.8c-11.7-11.6-26.7-17.5-44.8-17.5
			h-63.7V2487h36.5C463.2,2487,483.8,2482.8,498.3,2474.3z M417.8,2376.7h44.7c13,0,23.4,4,31.4,12s12,18.5,12,31.4
			c0,18.6-5.7,31.2-17.2,37.9c-11.4,6.7-29.3,10-53.4,10h-17.5V2376.7L417.8,2376.7z"/>
		<path class="st0" d="M505.3,2548.5c-14-11.4-34.1-17.2-59.6-17.2c-9.6,0-19.3,0.2-28.7,0.7l-18.1,0.8v143.3h30.6
			c28.8,0,50.9-4.2,67.6-12.8c14.1-7.3,31-23.8,31-61.2C528.1,2578.9,520.4,2560.9,505.3,2548.5z M488.4,2646.5
			c-13.8,7.1-33.5,10.7-59,10.7h-11.7V2551c9.1-0.4,18.4-0.6,27.9-0.6c42.3,0,63.5,17.3,63.5,51.8
			C509.1,2624.6,502.2,2639.3,488.4,2646.5z"/>
		<path class="st0" d="M659.2,2551.9c-14-20.1-35.7-36.4-65.1-48.9c22.5-8.2,40.9-21.6,55.4-40.2c14.5-18.6,21.7-40.4,21.7-65.4
			c0-35.8-8.5-63.5-25.6-82.9s-40.1-32.6-69-39.5c-12-2.9-25.1-5.1-39.3-6.8v19.1c12.7,1.6,24.3,3.6,34.9,6.1
			c25.3,6,44.6,17,59.1,33.6c13.9,15.8,20.9,39.5,20.9,70.4c0,20.9-5.8,38.5-17.7,53.8c-12.4,15.9-27.7,27-46.9,34l-45,16.4
			l44.1,18.8c25.9,11.1,45.1,25.3,57,42.3c11.7,16.7,17.6,40.9,17.6,71.7c0,36.5-13.8,63.8-42.1,83.6c-30.1,21-74.3,31.6-131.4,31.6
			H223.1v-73.5H284v-318.4h-52.5v-74.2h144.9v-19H212.6v112.1h52.5v280.5h-60.9v111.4h283.7c61.3,0,108.7-11.7,142.2-35
			s50.2-56.4,50.2-99.1C680.3,2599.5,673.3,2572,659.2,2551.9z"/>
	</g>
	<g>
		<path class="st0" d="M981.9,2474.3c21.9-12.8,26.5-36.6,26.5-54.3c0-18.1-5.9-33.2-17.5-44.8c-11.7-11.6-26.7-17.5-44.8-17.5
			h-63.7V2487h36.5C946.7,2487,967.3,2482.8,981.9,2474.3z M901.3,2376.7H946c13,0,23.4,4,31.4,12s12,18.5,12,31.4
			c0,18.6-5.7,31.2-17.2,37.9c-11.4,6.7-29.3,10-53.4,10h-17.5V2376.7L901.3,2376.7z"/>
		<path class="st0" d="M988.8,2548.5c-14-11.4-34.1-17.2-59.6-17.2c-9.6,0-19.3,0.2-28.7,0.7l-18.1,0.8v143.3H913
			c28.8,0,50.9-4.2,67.6-12.8c14.1-7.3,31-23.8,31-61.2C1011.6,2578.9,1004,2560.9,988.8,2548.5z M972,2646.5
			c-13.8,7.1-33.5,10.7-59,10.7h-11.7V2551c9.1-0.4,18.4-0.6,27.9-0.6c42.3,0,63.5,17.3,63.5,51.8
			C992.7,2624.6,985.8,2639.3,972,2646.5z"/>
		<path class="st0" d="M1142.8,2551.9c-14-20.1-35.7-36.4-65.1-48.9c22.5-8.2,40.9-21.6,55.4-40.2c14.5-18.6,21.7-40.4,21.7-65.4
			c0-35.8-8.5-63.5-25.6-82.9s-40.1-32.6-69-39.5c-12-2.9-25.1-5.1-39.3-6.8v19.1c12.7,1.6,24.3,3.6,34.9,6.1
			c25.3,6,44.6,17,59.1,33.6c13.9,15.8,20.9,39.5,20.9,70.4c0,20.9-5.8,38.5-17.7,53.8c-12.4,15.9-27.7,27-46.9,34l-45,16.4
			l44.1,18.8c25.9,11.1,45.1,25.3,57,42.3c11.7,16.7,17.6,40.9,17.6,71.7c0,36.5-13.8,63.8-42.1,83.6c-30.1,21-74.3,31.6-131.4,31.6
			H706.7v-73.5h60.9v-318.4h-52.5v-74.2H860v-19H696.1v112.1h52.5v280.5h-60.9v111.4h283.7c61.3,0,108.7-11.7,142.2-35
			s50.2-56.4,50.2-99.1C1163.8,2599.5,1156.8,2572,1142.8,2551.9z"/>
	</g>
</g>
<g>
	<path d="M686.9,4302.3c-5.1,0-9.7,1.5-13.7,4.4s-7,6.2-9,9.9c-3-9.5-10-14.3-20.9-14.3c-4.4,0-8.4,1.1-12,3.3
		c-3.6,2.2-6.6,4.9-8.9,8v-2.1c0-2.3-0.7-4.1-2.2-5.7c-1.5-1.5-3.3-2.3-5.6-2.3s-4.1,0.8-5.6,2.3s-2.2,3.4-2.2,5.7v53.7
		c0,2.3,0.7,4.1,2.2,5.7c1.5,1.5,3.3,2.3,5.6,2.3s4.1-0.8,5.6-2.3s2.2-3.4,2.2-5.7V4332c0-4.4,1.4-8.1,4.1-11
		c2.7-2.9,6.5-4.4,11.4-4.4c4.7,0,8,1.4,9.8,4.1c1.9,2.7,2.8,6.5,2.8,11.2v33.3c0,2.3,0.7,4.1,2.2,5.7c1.5,1.5,3.3,2.3,5.6,2.3
		s4.1-0.8,5.6-2.3s2.2-3.4,2.2-5.7V4332c0-4.4,1.4-8.1,4.1-11c2.7-2.9,6.5-4.4,11.4-4.4c4.7,0,8,1.4,9.8,4.1
		c1.9,2.7,2.8,6.5,2.8,11.2v33.3c0,2.3,0.7,4.1,2.2,5.7c1.5,1.5,3.3,2.3,5.6,2.3s4.1-0.8,5.6-2.3s2.2-3.4,2.2-5.7V4332
		c0-9.3-1.6-16.5-4.9-21.8C701.4,4305,695.5,4302.3,686.9,4302.3z"/>
	<path d="M739.8,4281.2c-1.2-1-3.3-1.4-6.4-1.4c-2.9,0-4.9,0.5-6.2,1.4c-1.3,1-2,2.6-2,5.1v2.5c0,2.4,0.6,4.1,1.8,5.1
		s3.3,1.4,6.2,1.4c3,0,5.2-0.5,6.4-1.4c1.3-0.9,1.9-2.6,1.9-5.1v-2.5C741.6,4283.8,741,4282.1,739.8,4281.2z"/>
	<path d="M733.4,4303.6c-2.3,0-4.1,0.8-5.6,2.3s-2.2,3.4-2.2,5.7v53.7c0,2.3,0.7,4.1,2.2,5.7c1.5,1.5,3.3,2.3,5.6,2.3
		s4.1-0.8,5.6-2.3s2.2-3.4,2.2-5.7v-53.7c0-2.3-0.7-4.1-2.2-5.7C737.5,4304.4,735.7,4303.6,733.4,4303.6z"/>
	<path d="M805.8,4355.3c-1.1,0-2.1,0.2-2.9,0.5c-0.8,0.3-1.6,0.8-2.5,1.5c-0.9,0.6-1.6,1.1-2.1,1.4c-2.1,1-5.2,1.6-9.5,1.6
		c-5.8,0-10.6-2.1-14.3-6.2s-5.6-9.3-5.6-15.5c0-6.5,1.8-11.8,5.5-15.8s8.8-6,15.3-6c1,0,2.4,0.2,4.1,0.5c1.7,0.3,3,0.7,3.8,1.2
		c0.8,0.4,1.6,1,2.4,1.6c0.8,0.7,1.7,1.2,2.5,1.6c0.9,0.4,2,0.6,3.4,0.6c1.8,0,3.3-0.7,4.4-2.1c1.1-1.4,1.7-3.1,1.7-5
		c0-3.8-2.3-6.9-6.8-9.2c-4.5-2.3-10.4-3.4-17.8-3.4c-6.6,0-12.5,1.5-17.7,4.6s-9.3,7.3-12.2,12.8s-4.4,11.7-4.4,18.7
		c0,6.8,1.4,12.9,4.2,18.4s6.7,9.8,11.8,12.9s10.9,4.7,17.6,4.7c4.5,0,8.8-0.5,12.7-1.6c4-1.1,7.2-2.5,9.6-4.4
		c2.4-1.8,3.6-3.8,3.6-5.8c0-2.2-0.6-3.9-1.9-5.3C809.7,4355.9,808,4355.3,805.8,4355.3z"/>
	<path d="M886,4304.6c-1.5-1.5-3.3-2.2-5.6-2.2s-4.1,0.8-5.6,2.3s-2.2,3.4-2.2,5.7v0.1c-2.5-2.3-5.6-4.3-9.2-5.8
		c-3.6-1.5-7.5-2.3-11.7-2.3c-5.8,0-11.1,1.5-15.9,4.6c-4.8,3.1-8.6,7.4-11.4,12.9c-2.8,5.5-4.2,11.7-4.2,18.7s1.4,13.1,4.2,18.6
		s6.7,9.7,11.5,12.8c4.9,3.1,10.3,4.6,16.2,4.6c4.1,0,8-0.9,11.6-2.7c3.7-1.8,6.6-3.9,8.8-6.4c0.1,2.3,0.8,4.1,2.3,5.6
		c1.4,1.5,3.3,2.2,5.5,2.2c2.3,0,4.1-0.8,5.6-2.3s2.2-3.4,2.2-5.7v-55C888.2,4307.9,887.5,4306,886,4304.6z M868,4354
		c-3.6,4.1-8.1,6.2-13.8,6.2c-5.6,0-10.2-2.1-13.7-6.2s-5.3-9.3-5.3-15.5s1.8-11.4,5.3-15.6c3.6-4.2,8.1-6.2,13.7-6.2
		c5.6,0,10.2,2.1,13.8,6.2c3.6,4.2,5.3,9.4,5.3,15.6S871.5,4349.9,868,4354z"/>
</g>
<g>
	<text transform="matrix(1 0 0 1 430.1663 1779.1896)" class="st4 st5">boxcolor</text>
	<text transform="matrix(1 0 0 1 361.2102 624.9478)" class="st4 st5">namecolor</text>
	<text transform="matrix(1 0 0 1 417.9326 373.4702)" class="st3 st6 st7">name</text>
	<text transform="matrix(1 0 0 1 417.9326 373.4702)" class="st8 st6 st7">name</text>
</g>
<g>
	<path d="M283.4,3135.9c-4.6-2.6-9.8-4-15.5-4c-2.3,0-4.6,0.3-7.1,0.9c-2.5,0.6-4.6,1.4-6.2,2.3l2.5-18.9h32.2c2.1,0,3.8-0.7,5.2-2
		c1.4-1.3,2.1-3,2.1-5c0-2.1-0.7-3.8-2.1-5.2s-3.1-2.1-5.2-2.1h-37.6c-2,0-3.7,0.6-5.1,1.8c-1.4,1.2-2.3,2.7-2.7,4.5l-4,32.2
		c-0.1,0.3-0.1,1-0.1,1.8c0,2.5,0.7,4.7,2.1,6.5c1.4,1.8,3.8,2.7,7.2,2.7c1,0,1.9-0.2,2.8-0.5c0.9-0.3,2.1-0.9,3.7-1.7
		c2.2-1,4-1.8,5.6-2.3s3.3-0.8,5.3-0.8c4.4,0,8.2,1.5,11.4,4.4c3.2,2.9,4.8,6.8,4.8,11.4c0,3.2-0.9,6.2-2.8,9s-4.4,5-7.5,6.6
		s-6.5,2.5-10,2.5c-2.8,0-6-1.1-9.6-3.4c-2.3-1.6-4.3-2.5-5.9-2.5c-2.2,0-3.9,0.6-5.3,1.9c-1.3,1.3-2,2.7-2,4.2c0,1.4,0.3,2.9,1,4.4
		c0.7,1.6,1.6,2.8,2.6,3.6c2.3,1.8,5.2,3.2,8.8,4.3c3.6,1,7.1,1.6,10.5,1.6c6.3,0,12.2-1.5,17.7-4.4s9.8-6.8,13.1-11.8
		c3.3-4.9,4.9-10.3,4.9-16.1c0-5.6-1.3-10.7-4-15.3C291.7,3142.1,288,3138.5,283.4,3135.9z"/>
	<path d="M396.1,3122.2c-5.1,0-9.7,1.5-13.7,4.4s-7,6.2-9,9.9c-3-9.5-10-14.3-20.9-14.3c-4.4,0-8.4,1.1-12,3.3s-6.6,4.9-8.9,8v-2.1
		c0-2.3-0.7-4.1-2.2-5.7c-1.5-1.5-3.3-2.3-5.6-2.3c-2.3,0-4.1,0.8-5.6,2.3s-2.2,3.4-2.2,5.7v53.7c0,2.3,0.7,4.1,2.2,5.7
		c1.5,1.5,3.3,2.3,5.6,2.3c2.3,0,4.1-0.8,5.6-2.3s2.2-3.4,2.2-5.7v-33.3c0-4.4,1.4-8.1,4.1-11s6.5-4.4,11.4-4.4c4.7,0,8,1.4,9.8,4.1
		c1.9,2.7,2.8,6.5,2.8,11.2v33.3c0,2.3,0.7,4.1,2.2,5.7c1.5,1.5,3.3,2.3,5.6,2.3c2.3,0,4.1-0.8,5.6-2.3s2.2-3.4,2.2-5.7v-33.3
		c0-4.4,1.4-8.1,4.1-11s6.5-4.4,11.4-4.4c4.7,0,8,1.4,9.8,4.1c1.9,2.7,2.8,6.5,2.8,11.2v33.3c0,2.3,0.7,4.1,2.2,5.7
		c1.5,1.5,3.3,2.3,5.6,2.3c2.3,0,4.1-0.8,5.6-2.3s2.2-3.4,2.2-5.7v-33.3c0-9.3-1.6-16.5-4.9-21.8
		C410.6,3124.8,404.6,3122.2,396.1,3122.2z"/>
	<path d="M515.9,3122.2c-5.1,0-9.7,1.5-13.7,4.4s-7,6.2-9,9.9c-3-9.5-10-14.3-20.9-14.3c-4.4,0-8.4,1.1-12,3.3s-6.6,4.9-8.9,8v-2.1
		c0-2.3-0.7-4.1-2.2-5.7c-1.5-1.5-3.3-2.3-5.6-2.3c-2.3,0-4.1,0.8-5.6,2.3s-2.2,3.4-2.2,5.7v53.7c0,2.3,0.7,4.1,2.2,5.7
		c1.5,1.5,3.3,2.3,5.6,2.3c2.3,0,4.1-0.8,5.6-2.3s2.2-3.4,2.2-5.7v-33.3c0-4.4,1.4-8.1,4.1-11s6.5-4.4,11.4-4.4c4.7,0,8,1.4,9.8,4.1
		c1.9,2.7,2.8,6.5,2.8,11.2v33.3c0,2.3,0.7,4.1,2.2,5.7c1.5,1.5,3.3,2.3,5.6,2.3c2.3,0,4.1-0.8,5.6-2.3s2.2-3.4,2.2-5.7v-33.3
		c0-4.4,1.4-8.1,4.1-11s6.5-4.4,11.4-4.4c4.7,0,8,1.4,9.8,4.1c1.9,2.7,2.8,6.5,2.8,11.2v33.3c0,2.3,0.7,4.1,2.2,5.7
		c1.5,1.5,3.3,2.3,5.6,2.3s4.1-0.8,5.6-2.3s2.2-3.4,2.2-5.7v-33.3c0-9.3-1.6-16.5-4.9-21.8C530.4,3124.8,524.5,3122.2,515.9,3122.2z
		"/>
	<path d="M620.6,3145.4H598c-2.3,0-4.1,0.7-5.7,2.2c-1.5,1.5-2.3,3.3-2.3,5.5c0,2.3,0.8,4.1,2.3,5.6s3.4,2.2,5.7,2.2h22.6
		c2.3,0,4.1-0.7,5.7-2.1c1.5-1.4,2.3-3.2,2.3-5.4c0-2.3-0.8-4.1-2.3-5.7C624.7,3146.2,622.8,3145.4,620.6,3145.4z"/>
	<path d="M714.9,3154.7l19.6-18.1c2.1-1.8,3.1-3.8,3.1-5.8c0-1.6-0.8-3.3-2.3-4.9c-1.5-1.6-3.2-2.4-5.1-2.4c-2.2,0-4.1,0.8-5.7,2.5
		l-27.8,26.9v-48.1c0-2.3-0.7-4.1-2.2-5.7c-1.5-1.5-3.3-2.3-5.6-2.3s-4.1,0.8-5.6,2.3s-2.2,3.4-2.2,5.7v80.3c0,2.3,0.7,4.1,2.2,5.7
		c1.5,1.5,3.3,2.3,5.6,2.3s4.1-0.8,5.6-2.3s2.2-3.4,2.2-5.7v-13.7l6.4-5.8l23.4,24.7c1.6,1.7,3.5,2.6,5.7,2.6c1.9,0,3.7-0.7,5.4-2.2
		s2.5-3.3,2.5-5.5s-0.8-4.1-2.5-5.8L714.9,3154.7z"/>
	<path d="M800.3,3126.8c-5.4-3.1-11.4-4.6-17.9-4.6c-6.6,0-12.6,1.5-17.9,4.6c-5.4,3.1-9.6,7.4-12.7,12.9
		c-3.1,5.5-4.7,11.7-4.7,18.7c0,6.9,1.6,13.2,4.7,18.7c3.1,5.5,7.4,9.8,12.7,12.8c5.4,3,11.4,4.5,17.9,4.5s12.5-1.5,17.9-4.5
		s9.7-7.3,12.8-12.8s4.7-11.7,4.7-18.7c0-6.9-1.6-13.2-4.7-18.7C810,3134.1,805.7,3129.8,800.3,3126.8z M799.5,3169.6
		c-1.8,3.3-4.2,5.8-7.1,7.7c-3,1.8-6.3,2.7-9.9,2.7c-3.6,0-7-0.9-9.9-2.7c-3-1.8-5.4-4.4-7.1-7.7c-1.8-3.3-2.7-7.1-2.7-11.3
		s0.9-8,2.7-11.4c1.8-3.3,4.2-5.9,7.1-7.7c3-1.8,6.3-2.7,9.9-2.7c3.6,0,7,0.9,9.9,2.7c3,1.8,5.4,4.4,7.1,7.7
		c1.8,3.3,2.7,7.1,2.7,11.4C802.2,3162.5,801.3,3166.3,799.5,3169.6z"/>
	<path d="M905.7,3155.8c-3.1-1.4-7-2.7-11.7-4c-3.4-1-6-1.8-7.9-2.4c-1.9-0.6-3.4-1.6-4.6-2.7c-1.2-1.2-1.8-2.7-1.8-4.6
		c0-4.8,3.3-7.1,9.9-7.1c3.1,0,5.9,0.6,8.4,1.7c2.5,1.1,4.5,2.6,6,4.5c1.2,1.2,2.8,1.8,4.7,1.8c1.6,0,2.9-0.5,4.2-1.4
		c1.6-1.3,2.5-2.9,2.5-4.9c0-1.7-0.6-3.3-1.7-4.7c-2.5-3.2-6-5.6-10.4-7.3c-4.4-1.6-8.8-2.5-13.3-2.5c-4.3,0-8.4,0.8-12.3,2.5
		c-3.9,1.7-7,4.1-9.4,7.1c-2.4,3.1-3.6,6.7-3.6,10.9c0,4.8,1.1,8.6,3.4,11.4c2.3,2.8,5,4.9,8.2,6.3c3.2,1.4,7.3,2.8,12.3,4.2
		c4.9,1.3,8.4,2.6,10.7,3.9c2.3,1.3,3.4,3.2,3.4,5.7c0,4.9-3.4,7.4-10.1,7.7c-4,0-7.4-0.7-10.2-2s-5.5-3.3-8.1-6
		c-1.6-1.6-3.4-2.5-5.2-2.5c-1.3,0-2.6,0.4-3.8,1.2c-2.3,1.6-3.4,3.5-3.4,5.7c0,1.6,0.4,2.9,1.2,3.9c3.1,4.2,7.2,7.3,12.1,9.2
		c4.9,1.9,10.3,2.9,16,2.9c4.2,0,8.2-0.8,12.2-2.5c3.9-1.6,7.2-4,9.7-7.2s3.8-6.9,3.8-11.1c0-4.7-1.1-8.5-3.2-11.3
		C911.4,3159.3,908.8,3157.2,905.7,3155.8z"/>
	<path d="M994.4,3126c1.6-3.1,2.3-6.5,2.3-10.2c0-1.7-0.5-3.3-1.6-4.7s-2.6-2.1-4.8-2.1c-2.1,0-3.7,0.7-4.9,2.1s-1.8,3-1.8,4.7
		c0,2.7-1,4.7-2.9,6s-4.7,2-8.1,2v0.1c-3.8-1.2-7.6-1.8-11.4-1.8c-6.6,0-12.6,1.5-17.9,4.6c-5.4,3.1-9.6,7.4-12.7,12.9
		c-3.1,5.5-4.7,11.7-4.7,18.7c0,6.9,1.6,13.2,4.7,18.7c3.1,5.5,7.4,9.8,12.7,12.8c5.4,3,11.4,4.5,17.9,4.5s12.5-1.5,17.9-4.5
		s9.7-7.3,12.8-12.8s4.7-11.7,4.7-18.7c0-4.9-0.8-9.4-2.4-13.6c-1.6-4.2-3.9-8-6.8-11.3C990.5,3131.5,992.9,3129.1,994.4,3126z
		 M978.4,3169.6c-1.8,3.3-4.2,5.8-7.1,7.7c-3,1.8-6.3,2.7-9.9,2.7c-3.6,0-7-0.9-9.9-2.7c-3-1.8-5.4-4.4-7.1-7.7
		c-1.8-3.3-2.7-7.1-2.7-11.3s0.9-8,2.7-11.4c1.8-3.3,4.2-5.9,7.1-7.7c3-1.8,6.3-2.7,9.9-2.7c3.6,0,7,0.9,9.9,2.7
		c3,1.8,5.4,4.4,7.1,7.7c1.8,3.3,2.7,7.1,2.7,11.4C981.1,3162.5,980.2,3166.3,978.4,3169.6z"/>
	<path d="M1065.2,3130c-3.4-5.2-9.5-7.9-18.3-7.9c-4.5,0-8.6,1.1-12.4,3.4c-3.8,2.3-6.8,4.9-9.2,8.1v-2.2c0-2.3-0.7-4.1-2.2-5.7
		c-1.5-1.5-3.3-2.3-5.6-2.3s-4.1,0.8-5.6,2.3s-2.2,3.4-2.2,5.7v53.7c0,2.3,0.7,4.1,2.2,5.7c1.5,1.5,3.3,2.3,5.6,2.3s4.1-0.8,5.6-2.3
		c1.5-1.5,2.2-3.4,2.2-5.7v-33.3c0-4.4,1.4-8.1,4.3-11s6.8-4.4,11.8-4.4c4.9,0,8.3,1.4,10.3,4.1c2,2.7,3,6.5,3,11.2v33.3
		c0,2.3,0.7,4.1,2.2,5.7c1.5,1.5,3.3,2.3,5.6,2.3c2.3,0,4.1-0.8,5.6-2.3s2.2-3.4,2.2-5.7v-33.3
		C1070.2,3142.5,1068.5,3135.3,1065.2,3130z"/>
</g>
</svg>
