<?xml version="1.0" encoding="utf-8"?>
<!-- Generator: Adobe Illustrator 27.9.0, SVG Export Plug-In . SVG Version: 6.00 Build 0)  -->
<svg version="1.1" id="Layer_1" xmlns="http://www.w3.org/2000/svg" xmlns:xlink="http://www.w3.org/1999/xlink" x="0px" y="0px"
	 viewBox="0 0 2665.5 1999.3" enable-background="new 0 0 2665.5 1999.3" xml:space="preserve">
<g>
	<path fill="#F4A5AC" d="M518.3,1270.4c21.9-12.8,26.5-36.6,26.5-54.3c0-18.1-5.9-33.2-17.5-44.8c-11.7-11.6-26.7-17.5-44.8-17.5
		h-63.7v129.3h36.5C483.2,1283.1,503.8,1278.9,518.3,1270.4z M437.8,1172.8h44.7c13,0,23.4,4,31.4,12c8,8,12,18.5,12,31.4
		c0,18.6-5.7,31.2-17.2,37.9c-11.4,6.7-29.3,10-53.4,10h-17.5L437.8,1172.8L437.8,1172.8z"/>
	<path fill="#F4A5AC" d="M525.3,1344.6c-14-11.4-34.1-17.2-59.6-17.2c-9.6,0-19.3,0.2-28.7,0.7l-18.1,0.8v143.3h30.6
		c28.8,0,50.9-4.2,67.6-12.8c14.1-7.3,31-23.8,31-61.2C548.1,1375,540.4,1357,525.3,1344.6z M508.4,1442.6
		c-13.8,7.1-33.5,10.7-59,10.7h-11.7V1347c9.1-0.4,18.4-0.6,27.9-0.6c42.3,0,63.5,17.3,63.5,51.8
		C529.2,1420.7,522.2,1435.4,508.4,1442.6z"/>
	<path fill="#F4A5AC" d="M679.3,1348c-14-20.1-35.7-36.4-65.1-48.9c22.5-8.2,40.9-21.6,55.4-40.2s21.7-40.4,21.7-65.4
		c0-35.8-8.5-63.5-25.6-82.9s-40.1-32.6-69-39.5s-64.6-10.4-106.9-10.4H232.6v112.1h52.5v280.5h-60.9v111.4h283.7
		c61.3,0,108.7-11.7,142.2-35s50.2-56.4,50.2-99.1C700.3,1395.6,693.3,1368.1,679.3,1348z M639.3,1514.2
		c-30.1,21-74.3,31.6-131.4,31.6H243.1v-73.5H304v-318.4h-52.5v-74.2h238.2c40.6,0,75.1,3.3,102.5,9.8c25.3,6,44.6,17,59.1,33.6
		c13.9,15.8,20.9,39.5,20.9,70.4c0,20.9-5.8,38.5-17.7,53.8c-12.4,15.9-27.7,27-46.9,34l-45,16.4l44.1,18.8
		c25.9,11.1,45.1,25.3,57,42.3c11.7,16.7,17.6,40.9,17.6,71.7C681.4,1467.1,667.6,1494.4,639.3,1514.2z"/>
</g>
<g>
	<g>
		<path fill="#E2D6C7" d="M218.4,1568.8v141.7h481.9v-141.7H218.4z"/>
	</g>
	<rect x="309.2" y="1632.6" width="194.2" height="14.2"/>
</g>
<path fill="#F4A5AC" d="M1165.1,1348c-14-20.1-35.7-36.4-65.1-48.9c22.4-8.2,40.9-21.6,55.4-40.2s21.7-40.4,21.7-65.4
	c0-35.8-8.5-63.5-25.6-82.9s-40.1-32.6-69-39.5s-64.6-10.4-106.9-10.4H718.4v112.1h52.5v280.5H710v111.4h283.7
	c61.3,0,108.7-11.7,142.2-35s50.2-56.3,50.2-99.1C1186.1,1395.6,1179.1,1368.1,1165.1,1348z M923.6,1172.8h44.7c13,0,23.4,4,31.4,12
	s12,18.5,12,31.4c0,18.6-5.7,31.2-17.2,37.9c-11.5,6.7-29.3,10-53.4,10h-17.5V1172.8z M994.2,1436.7c-13.8,7.1-33.5,10.7-59,10.7
	h-11.7v-106.2c9.1-0.4,18.3-0.7,27.8-0.7c42.3,0,63.5,17.3,63.5,51.8C1015,1414.8,1008,1429.6,994.2,1436.7z"/>
<rect x="796.8" y="1564.5" width="194.2" height="14.8"/>
<path fill="#FFFFFF" d="M2371.3,1482.7c-14-20.1-35.7-36.4-65.1-48.9c22.5-8.2,40.9-21.6,55.4-40.2c14.5-18.6,21.7-40.4,21.7-65.4
	c0-35.8-8.5-63.5-25.6-82.9c-17.1-19.4-40.1-32.6-69-39.5c-28.9-6.9-64.6-10.4-106.9-10.4h-257.2v112.1h52.5V1588h-60.9v111.4h283.7
	c61.3,0,108.7-11.7,142.2-35s50.2-56.4,50.2-99.1C2392.4,1530.3,2385.3,1502.8,2371.3,1482.7z M2129.9,1307.5h44.7
	c13,0,23.4,4,31.4,12s12,18.5,12,31.4c0,18.6-5.7,31.2-17.2,37.9c-11.4,6.7-29.3,10-53.4,10h-17.5V1307.5L2129.9,1307.5z
	 M2200.5,1570.8c-13.8,7.1-33.5,10.7-59,10.7h-11.7v-106.2c9.1-0.4,18.4-0.6,27.9-0.6c42.3,0,63.5,17.3,63.5,51.8
	C2221.2,1548.9,2214.3,1563.7,2200.5,1570.8z"/>
<g>
	<g>
		<path fill="#E2D6C7" d="M1880.7,278.7c21.9-12.8,26.5-36.6,26.5-54.3c0-18.1-5.9-33.2-17.5-44.8c-11.7-11.6-26.7-17.5-44.8-17.5
			h-63.7v129.3h36.5C1845.6,291.4,1866.2,287.2,1880.7,278.7z M1800.2,181.1h44.7c13,0,23.4,4,31.4,12s12,18.5,12,31.4
			c0,18.6-5.7,31.2-17.2,37.9c-11.4,6.7-29.3,10-53.4,10h-17.5V181.1L1800.2,181.1z"/>
		<path fill="#E2D6C7" d="M1887.7,352.9c-14-11.4-34.1-17.2-59.6-17.2c-9.6,0-19.3,0.2-28.7,0.7l-18.1,0.8v143.3h30.6
			c28.8,0,50.9-4.2,67.6-12.8c14.1-7.3,31-23.8,31-61.2C1910.5,383.3,1902.8,365.3,1887.7,352.9z M1870.8,450.9
			c-13.8,7.1-33.5,10.7-59,10.7h-11.7V355.4c9.1-0.4,18.4-0.6,27.9-0.6c42.3,0,63.5,17.3,63.5,51.8
			C1891.5,429,1884.6,443.7,1870.8,450.9z"/>
		<path fill="#E2D6C7" d="M2041.6,356.3c-14-20.1-35.7-36.4-65.1-48.9c22.5-8.2,40.9-21.6,55.4-40.2c14.5-18.6,21.7-40.4,21.7-65.4
			c0-35.8-8.5-63.5-25.6-82.9s-40.1-32.6-69-39.5c-12-2.9-25.1-5.1-39.3-6.8v19.1c12.7,1.6,24.3,3.6,34.9,6.1
			c25.3,6,44.6,17,59.1,33.6c13.9,15.8,20.9,39.5,20.9,70.4c0,20.9-5.8,38.5-17.7,53.8c-12.4,15.9-27.7,27-46.9,34l-45,16.4
			l44.1,18.8c25.9,11.1,45.1,25.3,57,42.3c11.7,16.7,17.6,40.9,17.6,71.7c0,36.5-13.8,63.8-42.1,83.6c-30.1,21-74.3,31.6-131.4,31.6
			h-264.7v-73.5h60.9V162.1h-52.5V87.9h144.9v-19H1595V181h52.5v280.5h-60.9v111.4h283.7c61.3,0,108.7-11.7,142.2-35
			s50.2-56.4,50.2-99.1C2062.7,403.9,2055.7,376.4,2041.6,356.3z"/>
	</g>
	<g>
		<path fill="#E2D6C7" d="M2364.3,278.7c21.9-12.8,26.5-36.6,26.5-54.3c0-18.1-5.9-33.2-17.5-44.8c-11.7-11.6-26.7-17.5-44.8-17.5
			h-63.7v129.3h36.5C2329.1,291.4,2349.7,287.2,2364.3,278.7z M2283.7,181.1h44.7c13,0,23.4,4,31.4,12s12,18.5,12,31.4
			c0,18.6-5.7,31.2-17.2,37.9c-11.4,6.7-29.3,10-53.4,10h-17.5V181.1L2283.7,181.1z"/>
		<path fill="#E2D6C7" d="M2371.2,352.9c-14-11.4-34.1-17.2-59.6-17.2c-9.6,0-19.3,0.2-28.7,0.7l-18.1,0.8v143.3h30.6
			c28.8,0,50.9-4.2,67.6-12.8c14.1-7.3,31-23.8,31-61.2C2394,383.3,2386.4,365.3,2371.2,352.9z M2354.4,450.9
			c-13.8,7.1-33.5,10.7-59,10.7h-11.7V355.4c9.1-0.4,18.4-0.6,27.9-0.6c42.3,0,63.5,17.3,63.5,51.8
			C2375.1,429,2368.2,443.7,2354.4,450.9z"/>
		<path fill="#E2D6C7" d="M2525.2,356.3c-14-20.1-35.7-36.4-65.1-48.9c22.5-8.2,40.9-21.6,55.4-40.2c14.5-18.6,21.7-40.4,21.7-65.4
			c0-35.8-8.5-63.5-25.6-82.9c-17.1-19.4-40.1-32.6-69-39.5c-12-2.9-25.1-5.1-39.3-6.8v19.1c12.7,1.6,24.3,3.6,34.9,6.1
			c25.3,6,44.6,17,59.1,33.6c13.9,15.8,20.9,39.5,20.9,70.4c0,20.9-5.8,38.5-17.7,53.8c-12.4,15.9-27.7,27-46.9,34l-45,16.4
			l44.1,18.8c25.9,11.1,45.1,25.3,57,42.3c11.7,16.7,17.6,40.9,17.6,71.7c0,36.5-13.8,63.8-42.1,83.6c-30.1,21-74.3,31.6-131.4,31.6
			h-264.7v-73.5h60.9V162.1h-52.5V87.9h144.9v-19h-163.9V181h52.5v280.5h-60.9v111.4h283.7c61.3,0,108.7-11.7,142.2-35
			s50.2-56.4,50.2-99.1C2546.2,403.9,2539.2,376.4,2525.2,356.3z"/>
	</g>
</g>
<g>
	<path d="M2069.3,1827c-5.1,0-9.7,1.5-13.7,4.4s-7,6.2-9,9.9c-3-9.5-10-14.3-20.9-14.3c-4.4,0-8.4,1.1-12,3.3
		c-3.6,2.2-6.6,4.9-8.9,8v-2.1c0-2.3-0.7-4.1-2.2-5.7c-1.5-1.5-3.3-2.3-5.6-2.3c-2.3,0-4.1,0.8-5.6,2.3s-2.2,3.4-2.2,5.7v53.7
		c0,2.3,0.7,4.1,2.2,5.7c1.5,1.5,3.3,2.3,5.6,2.3c2.3,0,4.1-0.8,5.6-2.3s2.2-3.4,2.2-5.7v-33.2c0-4.4,1.4-8.1,4.1-11
		c2.7-2.9,6.5-4.4,11.4-4.4c4.7,0,8,1.4,9.8,4.1c1.9,2.7,2.8,6.5,2.8,11.2v33.3c0,2.3,0.7,4.1,2.2,5.7c1.5,1.5,3.3,2.3,5.6,2.3
		c2.3,0,4.1-0.8,5.6-2.3s2.2-3.4,2.2-5.7v-33.2c0-4.4,1.4-8.1,4.1-11s6.5-4.4,11.4-4.4c4.7,0,8,1.4,9.8,4.1
		c1.9,2.7,2.8,6.5,2.8,11.2v33.3c0,2.3,0.7,4.1,2.2,5.7c1.5,1.5,3.3,2.3,5.6,2.3s4.1-0.8,5.6-2.3s2.2-3.4,2.2-5.7v-33.2
		c0-9.3-1.6-16.5-4.9-21.8C2083.8,1829.7,2077.9,1827,2069.3,1827z"/>
	<path d="M2122.2,1805.9c-1.2-1-3.3-1.4-6.4-1.4c-2.9,0-4.9,0.5-6.2,1.4c-1.3,1-2,2.6-2,5.1v2.5c0,2.4,0.6,4.1,1.8,5.1
		s3.3,1.4,6.2,1.4c3,0,5.2-0.5,6.4-1.4c1.3-0.9,1.9-2.6,1.9-5.1v-2.5C2124,1808.5,2123.4,1806.8,2122.2,1805.9z"/>
	<path d="M2115.8,1828.3c-2.3,0-4.1,0.8-5.6,2.3s-2.2,3.4-2.2,5.7v53.7c0,2.3,0.7,4.1,2.2,5.7c1.5,1.5,3.3,2.3,5.6,2.3
		s4.1-0.8,5.6-2.3s2.2-3.4,2.2-5.7v-53.7c0-2.3-0.7-4.1-2.2-5.7C2119.9,1829.1,2118.1,1828.3,2115.8,1828.3z"/>
	<path d="M2188.2,1880c-1.1,0-2.1,0.2-2.9,0.5s-1.6,0.8-2.5,1.5c-0.9,0.6-1.6,1.1-2.1,1.4c-2.1,1-5.2,1.6-9.5,1.6
		c-5.8,0-10.6-2.1-14.3-6.2c-3.7-4.1-5.6-9.3-5.6-15.5c0-6.5,1.8-11.8,5.5-15.8s8.8-6,15.3-6c1,0,2.4,0.2,4.1,0.5s3,0.7,3.8,1.2
		c0.8,0.4,1.6,1,2.4,1.6c0.8,0.7,1.7,1.2,2.5,1.6c0.9,0.4,2,0.6,3.4,0.6c1.8,0,3.3-0.7,4.4-2.1c1.1-1.4,1.7-3.1,1.7-5
		c0-3.8-2.3-6.9-6.8-9.2c-4.5-2.3-10.4-3.4-17.8-3.4c-6.6,0-12.5,1.5-17.7,4.6s-9.3,7.3-12.2,12.8c-2.9,5.5-4.4,11.7-4.4,18.7
		c0,6.8,1.4,12.9,4.2,18.4c2.8,5.5,6.7,9.8,11.8,12.9c5.1,3.1,10.9,4.7,17.6,4.7c4.5,0,8.8-0.5,12.7-1.6c4-1.1,7.2-2.5,9.6-4.4
		c2.4-1.8,3.6-3.8,3.6-5.8c0-2.2-0.6-3.9-1.9-5.3C2192.1,1880.6,2190.4,1880,2188.2,1880z"/>
	<path d="M2268.4,1829.3c-1.5-1.5-3.3-2.2-5.6-2.2s-4.1,0.8-5.6,2.3s-2.2,3.4-2.2,5.7v0.1c-2.5-2.3-5.6-4.3-9.2-5.8
		s-7.5-2.3-11.7-2.3c-5.8,0-11.1,1.5-15.9,4.6s-8.6,7.4-11.4,12.9s-4.2,11.7-4.2,18.7s1.4,13.1,4.2,18.6c2.8,5.5,6.7,9.7,11.5,12.8
		c4.9,3.1,10.3,4.6,16.2,4.6c4.1,0,8-0.9,11.6-2.7c3.7-1.8,6.6-3.9,8.8-6.4c0.1,2.3,0.8,4.1,2.3,5.6c1.4,1.5,3.3,2.2,5.5,2.2
		c2.3,0,4.1-0.8,5.6-2.3s2.2-3.4,2.2-5.7v-55C2270.6,1832.6,2269.9,1830.7,2268.4,1829.3z M2250.4,1878.7c-3.6,4.1-8.1,6.2-13.8,6.2
		c-5.6,0-10.2-2.1-13.7-6.2s-5.3-9.3-5.3-15.5s1.8-11.4,5.3-15.6c3.6-4.2,8.1-6.2,13.7-6.2c5.6,0,10.2,2.1,13.8,6.2
		c3.6,4.2,5.3,9.4,5.3,15.6S2253.9,1874.6,2250.4,1878.7z"/>
</g>
<text transform="matrix(1 0 0 1 110.294 1908.7896)" font-family="'#9Slide03QuicksandBold-Bold'" font-size="130px">boxcolor</text>
<text transform="matrix(1 0 0 1 45.49 358.9267)" font-family="'#9Slide03QuicksandBold-Bold'" font-size="130px">namecolor</text>
<text transform="matrix(1 0 0 1 136.6131 678.144)" fill="#FFFFFF" font-family="'WildSageRegular'" font-size="328.7417px">name</text>
<text transform="matrix(1 0 0 1 136.6131 678.144)" fill="none" stroke="#FFFFFF" stroke-width="5" stroke-linecap="round" stroke-linejoin="round" stroke-miterlimit="10" font-family="'WildSageRegular'" font-size="328.7417px">name</text>
<g>
	<path d="M1665.8,660.6c-4.6-2.6-9.8-4-15.5-4c-2.3,0-4.6,0.3-7.1,0.9c-2.5,0.6-4.6,1.4-6.2,2.3l2.5-18.9h32.2c2.1,0,3.8-0.7,5.2-2
		s2.1-3,2.1-5c0-2.1-0.7-3.8-2.1-5.2s-3.1-2.1-5.2-2.1h-37.6c-2,0-3.7,0.6-5.1,1.8s-2.3,2.7-2.7,4.5l-4,32.2c-0.1,0.3-0.1,1-0.1,1.8
		c0,2.5,0.7,4.7,2.1,6.5c1.4,1.8,3.8,2.7,7.2,2.7c1,0,1.9-0.2,2.8-0.5c0.9-0.3,2.1-0.9,3.7-1.7c2.2-1,4-1.8,5.6-2.3s3.3-0.8,5.3-0.8
		c4.4,0,8.2,1.5,11.4,4.4c3.2,2.9,4.8,6.8,4.8,11.4c0,3.2-0.9,6.2-2.8,9c-1.9,2.8-4.4,5-7.5,6.6c-3.1,1.6-6.5,2.5-10,2.5
		c-2.8,0-6-1.1-9.6-3.4c-2.3-1.6-4.3-2.5-5.9-2.5c-2.2,0-3.9,0.6-5.3,1.9c-1.3,1.3-2,2.7-2,4.2c0,1.4,0.3,2.9,1,4.4
		c0.7,1.6,1.6,2.8,2.6,3.6c2.3,1.8,5.2,3.2,8.8,4.3c3.6,1,7.1,1.6,10.5,1.6c6.3,0,12.2-1.5,17.7-4.4s9.8-6.8,13.1-11.8
		c3.3-4.9,4.9-10.3,4.9-16.1c0-5.6-1.3-10.7-4-15.3C1674.1,666.8,1670.4,663.2,1665.8,660.6z"/>
	<path d="M1778.5,646.9c-5.1,0-9.7,1.5-13.7,4.4s-7,6.2-9,9.9c-3-9.5-10-14.3-20.9-14.3c-4.4,0-8.4,1.1-12,3.3s-6.6,4.9-8.9,8v-2.1
		c0-2.3-0.7-4.1-2.2-5.7c-1.5-1.5-3.3-2.3-5.6-2.3c-2.3,0-4.1,0.8-5.6,2.3s-2.2,3.4-2.2,5.7v53.7c0,2.3,0.7,4.1,2.2,5.7
		c1.5,1.5,3.3,2.3,5.6,2.3c2.3,0,4.1-0.8,5.6-2.3s2.2-3.4,2.2-5.7v-33.3c0-4.4,1.4-8.1,4.1-11c2.7-2.9,6.5-4.4,11.4-4.4
		c4.7,0,8,1.4,9.8,4.1c1.9,2.7,2.8,6.5,2.8,11.2v33.3c0,2.3,0.7,4.1,2.2,5.7c1.5,1.5,3.3,2.3,5.6,2.3c2.3,0,4.1-0.8,5.6-2.3
		s2.2-3.4,2.2-5.7v-33.3c0-4.4,1.4-8.1,4.1-11c2.7-2.9,6.5-4.4,11.4-4.4c4.7,0,8,1.4,9.8,4.1c1.9,2.7,2.8,6.5,2.8,11.2v33.3
		c0,2.3,0.7,4.1,2.2,5.7c1.5,1.5,3.3,2.3,5.6,2.3c2.3,0,4.1-0.8,5.6-2.3s2.2-3.4,2.2-5.7v-33.3c0-9.3-1.6-16.5-4.9-21.8
		C1793,649.5,1787,646.9,1778.5,646.9z"/>
	<path d="M1898.3,646.9c-5.1,0-9.7,1.5-13.7,4.4s-7,6.2-9,9.9c-3-9.5-10-14.3-20.9-14.3c-4.4,0-8.4,1.1-12,3.3
		c-3.6,2.2-6.6,4.9-8.9,8v-2.1c0-2.3-0.7-4.1-2.2-5.7c-1.5-1.5-3.3-2.3-5.6-2.3c-2.3,0-4.1,0.8-5.6,2.3s-2.2,3.4-2.2,5.7v53.7
		c0,2.3,0.7,4.1,2.2,5.7c1.5,1.5,3.3,2.3,5.6,2.3s4.1-0.8,5.6-2.3s2.2-3.4,2.2-5.7v-33.3c0-4.4,1.4-8.1,4.1-11
		c2.7-2.9,6.5-4.4,11.4-4.4c4.7,0,8,1.4,9.8,4.1c1.9,2.7,2.8,6.5,2.8,11.2v33.3c0,2.3,0.7,4.1,2.2,5.7c1.5,1.5,3.3,2.3,5.6,2.3
		c2.3,0,4.1-0.8,5.6-2.3s2.2-3.4,2.2-5.7v-33.3c0-4.4,1.4-8.1,4.1-11c2.7-2.9,6.5-4.4,11.4-4.4c4.7,0,8,1.4,9.8,4.1
		c1.9,2.7,2.8,6.5,2.8,11.2v33.3c0,2.3,0.7,4.1,2.2,5.7c1.5,1.5,3.3,2.3,5.6,2.3c2.3,0,4.1-0.8,5.6-2.3s2.2-3.4,2.2-5.7v-33.3
		c0-9.3-1.6-16.5-4.9-21.8C1912.8,649.5,1906.9,646.9,1898.3,646.9z"/>
	<path d="M2003,670.1h-22.6c-2.3,0-4.1,0.7-5.7,2.2c-1.5,1.5-2.3,3.3-2.3,5.5c0,2.3,0.8,4.1,2.3,5.6s3.4,2.2,5.7,2.2h22.6
		c2.3,0,4.1-0.7,5.7-2.1c1.5-1.4,2.3-3.2,2.3-5.4c0-2.3-0.8-4.1-2.3-5.7C2007.1,670.9,2005.2,670.1,2003,670.1z"/>
	<path d="M2097.3,679.4l19.6-18.1c2.1-1.8,3.1-3.8,3.1-5.8c0-1.6-0.8-3.3-2.3-4.9c-1.5-1.6-3.2-2.4-5.1-2.4c-2.2,0-4.1,0.8-5.7,2.5
		l-27.8,26.9v-48.1c0-2.3-0.7-4.1-2.2-5.7c-1.5-1.5-3.3-2.3-5.6-2.3s-4.1,0.8-5.6,2.3s-2.2,3.4-2.2,5.7v80.3c0,2.3,0.7,4.1,2.2,5.7
		c1.5,1.5,3.3,2.3,5.6,2.3s4.1-0.8,5.6-2.3s2.2-3.4,2.2-5.7v-13.7l6.4-5.8l23.4,24.7c1.6,1.7,3.5,2.6,5.7,2.6c1.9,0,3.7-0.7,5.4-2.2
		c1.7-1.5,2.5-3.3,2.5-5.5s-0.8-4.1-2.5-5.8L2097.3,679.4z"/>
	<path d="M2182.7,651.5c-5.4-3.1-11.4-4.6-17.9-4.6c-6.6,0-12.6,1.5-17.9,4.6c-5.4,3.1-9.6,7.4-12.7,12.9s-4.7,11.7-4.7,18.7
		c0,6.9,1.6,13.2,4.7,18.7c3.1,5.5,7.4,9.8,12.7,12.8c5.4,3,11.4,4.5,17.9,4.5s12.5-1.5,17.9-4.5c5.4-3,9.7-7.3,12.8-12.8
		c3.1-5.5,4.7-11.7,4.7-18.7c0-6.9-1.6-13.2-4.7-18.7C2192.4,658.8,2188.1,654.5,2182.7,651.5z M2181.9,694.3
		c-1.8,3.3-4.2,5.8-7.1,7.7c-3,1.8-6.3,2.7-9.9,2.7c-3.6,0-7-0.9-9.9-2.7c-3-1.8-5.4-4.4-7.1-7.7c-1.8-3.3-2.7-7.1-2.7-11.3
		s0.9-8,2.7-11.4c1.8-3.3,4.2-5.9,7.1-7.7c3-1.8,6.3-2.7,9.9-2.7c3.6,0,7,0.9,9.9,2.7c3,1.8,5.4,4.4,7.1,7.7
		c1.8,3.3,2.7,7.1,2.7,11.4C2184.6,687.2,2183.7,691,2181.9,694.3z"/>
	<path d="M2288.1,680.5c-3.1-1.4-7-2.7-11.7-4c-3.4-1-6-1.8-7.9-2.4c-1.9-0.6-3.4-1.6-4.6-2.7c-1.2-1.2-1.8-2.7-1.8-4.6
		c0-4.8,3.3-7.1,9.9-7.1c3.1,0,5.9,0.6,8.4,1.7c2.5,1.1,4.5,2.6,6,4.5c1.2,1.2,2.8,1.8,4.7,1.8c1.6,0,2.9-0.5,4.2-1.4
		c1.6-1.3,2.5-2.9,2.5-4.9c0-1.7-0.6-3.3-1.7-4.7c-2.5-3.2-6-5.6-10.4-7.3c-4.4-1.6-8.8-2.5-13.3-2.5c-4.3,0-8.4,0.8-12.3,2.5
		c-3.9,1.7-7,4.1-9.4,7.1c-2.4,3.1-3.6,6.7-3.6,10.9c0,4.8,1.1,8.6,3.4,11.4c2.3,2.8,5,4.9,8.2,6.3c3.2,1.4,7.3,2.8,12.3,4.2
		c4.9,1.3,8.4,2.6,10.7,3.9c2.3,1.3,3.4,3.2,3.4,5.7c0,4.9-3.4,7.4-10.1,7.7c-4,0-7.4-0.7-10.2-2c-2.8-1.3-5.5-3.3-8.1-6
		c-1.6-1.6-3.4-2.5-5.2-2.5c-1.3,0-2.6,0.4-3.8,1.2c-2.3,1.6-3.4,3.5-3.4,5.7c0,1.6,0.4,2.9,1.2,3.9c3.1,4.2,7.2,7.3,12.1,9.2
		c4.9,1.9,10.3,2.9,16,2.9c4.2,0,8.2-0.8,12.2-2.5c3.9-1.6,7.2-4,9.7-7.2s3.8-6.9,3.8-11.1c0-4.7-1.1-8.5-3.2-11.3
		C2293.8,684,2291.2,681.9,2288.1,680.5z"/>
	<path d="M2376.8,650.7c1.6-3.1,2.3-6.5,2.3-10.2c0-1.7-0.5-3.3-1.6-4.7c-1.1-1.4-2.6-2.1-4.8-2.1c-2.1,0-3.7,0.7-4.9,2.1
		s-1.8,3-1.8,4.7c0,2.7-1,4.7-2.9,6c-1.9,1.3-4.7,2-8.1,2v0.1c-3.8-1.2-7.6-1.8-11.4-1.8c-6.6,0-12.6,1.5-17.9,4.6
		c-5.4,3.1-9.6,7.4-12.7,12.9s-4.7,11.7-4.7,18.7c0,6.9,1.6,13.2,4.7,18.7c3.1,5.5,7.4,9.8,12.7,12.8c5.4,3,11.4,4.5,17.9,4.5
		s12.5-1.5,17.9-4.5c5.4-3,9.7-7.3,12.8-12.8c3.1-5.5,4.7-11.7,4.7-18.7c0-4.9-0.8-9.4-2.4-13.6c-1.6-4.2-3.9-8-6.8-11.3
		C2372.9,656.2,2375.3,653.8,2376.8,650.7z M2360.8,694.3c-1.8,3.3-4.2,5.8-7.1,7.7c-3,1.8-6.3,2.7-9.9,2.7s-7-0.9-9.9-2.7
		c-3-1.8-5.4-4.4-7.1-7.7c-1.8-3.3-2.7-7.1-2.7-11.3s0.9-8,2.7-11.4c1.8-3.3,4.2-5.9,7.1-7.7c3-1.8,6.3-2.7,9.9-2.7
		c3.6,0,7,0.9,9.9,2.7c3,1.8,5.4,4.4,7.1,7.7c1.8,3.3,2.7,7.1,2.7,11.4C2363.5,687.2,2362.6,691,2360.8,694.3z"/>
	<path d="M2447.6,654.7c-3.4-5.2-9.5-7.9-18.3-7.9c-4.5,0-8.6,1.1-12.4,3.4c-3.8,2.3-6.8,4.9-9.2,8.1v-2.2c0-2.3-0.7-4.1-2.2-5.7
		c-1.5-1.5-3.3-2.3-5.6-2.3s-4.1,0.8-5.6,2.3s-2.2,3.4-2.2,5.7v53.7c0,2.3,0.7,4.1,2.2,5.7c1.5,1.5,3.3,2.3,5.6,2.3s4.1-0.8,5.6-2.3
		c1.5-1.5,2.2-3.4,2.2-5.7v-33.3c0-4.4,1.4-8.1,4.3-11c2.9-2.9,6.8-4.4,11.8-4.4c4.9,0,8.3,1.4,10.3,4.1c2,2.7,3,6.5,3,11.2v33.3
		c0,2.3,0.7,4.1,2.2,5.7c1.5,1.5,3.3,2.3,5.6,2.3c2.3,0,4.1-0.8,5.6-2.3s2.2-3.4,2.2-5.7v-33.3
		C2452.6,667.2,2450.9,660,2447.6,654.7z"/>
</g>
</svg>
