<?xml version="1.0" encoding="utf-8"?>
<!-- Generator: Adobe Illustrator 27.9.0, SVG Export Plug-In . SVG Version: 6.00 Build 0)  -->
<svg version="1.1" id="Layer_1" xmlns="http://www.w3.org/2000/svg" xmlns:xlink="http://www.w3.org/1999/xlink" x="0px" y="0px"
	 viewBox="0 0 1368 4368.5" enable-background="new 0 0 1368 4368.5" xml:space="preserve">
<g>
	<path fill="#E2D6C7" d="M650.7,2649.8v141.7h453.5v-141.7H650.7z"/>
	<path stroke="#FF0000" stroke-width="0.25" stroke-miterlimit="10" d="M1101.5,2787.5c-0.2-0.3-0.5-0.4-0.8-0.4
		c-0.2,0-0.4,0-0.6,0.1c-0.5,0.3-1.2,0.4-1.9,0.4c-1.2,0-2.2-0.4-3-1.1c-0.8-0.7-1.1-1.8-1.1-3.2c0-0.8,0.2-1.6,0.5-2.2
		c0.3-0.6,0.8-1.1,1.4-1.5s1.4-0.5,2.2-0.5c0.7,0,1.3,0.1,1.9,0.4c0.2,0.1,0.4,0.2,0.6,0.2c0.3,0,0.5-0.1,0.7-0.4
		c0.2-0.2,0.3-0.5,0.3-0.7c0-0.4-0.2-0.7-0.6-0.9c-0.9-0.5-1.9-0.7-3-0.7c-1.2,0-2.3,0.3-3.3,0.8c-1,0.5-1.8,1.3-2.3,2.3
		c-0.6,1-0.8,2.1-0.8,3.3c0,1.4,0.3,2.6,0.9,3.5c0.6,1,1.4,1.7,2.4,2.2c1,0.5,2.1,0.7,3.2,0.7c1.1,0,2.1-0.2,3-0.7
		c0.2-0.1,0.3-0.2,0.4-0.4c0.1-0.2,0.1-0.3,0.1-0.5C1101.7,2788,1101.7,2787.8,1101.5,2787.5z"/>
</g>
<rect x="783.7" y="2713.7" width="187.5" height="13.9"/>
<rect x="833.3" y="1532.4" width="187.5" height="15.3"/>
<g>
	<path fill="#FFFFFF" d="M591.8,3901c-37.3-19-67.1-47.5-89.4-85.7c-22.3-38.1-33.5-84.9-33.5-140.4c0-46.7,8.4-88.9,25.3-126.6
		c16.9-37.7,41.7-67.6,74.4-89.7c32.7-22.1,72.2-33.1,118.5-33.1c23.8,0,45,5.5,63.8,16.6c18.8,11.1,32.3,25.1,40.6,42.2l12.5-49.4
		h95v199.5h-97.5v-10c0-25.8-5.9-47-17.8-63.5c-11.9-16.5-29.5-24.7-52.8-24.7c-15.8,0-30.3,6-43.5,18.1
		c-13.1,12.1-23.4,27.9-31,47.5c-7.5,19.6-11.3,39.8-11.3,60.7c0,40.9,10.2,72.8,30.6,96c20.4,23.1,48.4,34.7,83.8,34.7
		c25,0,48.2-4.2,69.7-12.5c21.5-8.3,39.1-17.3,52.8-26.9l6.9,5.6v130.1c-25.9,15-53.2,25.4-81.9,31.3c-28.8,5.8-59.4,8.8-91.9,8.8
		C670.2,3929.4,629.1,3920,591.8,3901z"/>
</g>
<g>
	<path fill="#F4A5AC" d="M669,1240.7v-199.5h-95l-12.5,49.4c-8.3-17.1-21.9-31.2-40.7-42.2c-18.8-11-40-16.6-63.8-16.6
		c-46.3,0-85.8,11.1-118.5,33.1c-32.7,22.1-57.5,52-74.4,89.7c-16.9,37.7-25.3,79.9-25.3,126.6c0,55.4,11.1,102.2,33.5,140.4
		c22.3,38.2,52.1,66.7,89.4,85.7c37.3,19,78.5,28.4,123.5,28.4c32.5,0,63.2-2.9,91.9-8.8s56.1-16.3,81.9-31.3v-130.1l-6.9-5.6
		c-13.8,9.6-31.4,18.6-52.8,26.9c-21.5,8.3-44.7,12.5-69.7,12.5c-35.4,0-63.4-11.6-83.8-34.7c-20.4-23.1-30.6-55.1-30.6-96
		c0-20.8,3.8-41.1,11.2-60.7c7.5-19.6,17.8-35.4,31-47.5c13.1-12.1,27.6-18.1,43.5-18.1c23.3,0,41,8.2,52.8,24.7
		c11.9,16.5,17.8,37.6,17.8,63.5v10L669,1240.7L669,1240.7z M568.4,1156.5c-15.2-21.1-38.7-32.3-67.7-32.3c-20.5,0-39.3,7.7-55.9,23
		c-15.2,14-27.2,32.3-35.6,54.4c-8.3,21.6-12.5,44.2-12.5,67.2c0,45.3,11.9,81.6,35.2,108.1c24,27.1,56.8,40.9,97.5,40.9
		c27.2,0,52.9-4.6,76.3-13.8c12.8-5,24.4-10.2,34.8-15.7v96.7c-21.4,11.3-43.9,19.4-67.2,24.1c-27.5,5.6-57.2,8.4-88.3,8.4
		c-41.9,0-80.7-8.9-115.2-26.5c-34-17.3-61.5-43.7-81.9-78.6c-20.5-35.1-31-79.2-31-131.2c0-43.9,8-84,23.7-119.2
		c15.4-34.4,38.2-62,67.9-82c29.5-19.9,65.9-30,108.2-30c20.6,0,38.5,4.6,54.5,14c15.7,9.3,26.7,20.5,33.5,34.5l21.9,44.9l21.3-84
		h62.5v162.9h-61.1C588.3,1196.4,581.2,1174.2,568.4,1156.5z"/>
</g>
<path fill="#F4A5AC" d="M1011.7,1240.7v-10c0-25.8-5.9-47-17.8-63.5s-29.5-24.7-52.8-24.7c-15.8,0-30.3,6.1-43.5,18.1
	c-13.1,12.1-23.5,27.9-31,47.5c-7.5,19.6-11.3,39.8-11.3,60.7c0,40.9,10.2,72.8,30.6,96c20.4,23.1,48.4,34.7,83.8,34.7
	c25,0,48.2-4.2,69.7-12.5c21.5-8.3,39.1-17.3,52.8-26.9l6.9,5.6v130.1c-25.8,15-53.2,25.4-81.9,31.3c-14.9,3-30.2,5.2-46.1,6.7
	l-86.7-0.7c-29.4-4.1-56.9-12.6-82.6-25.7c-37.3-19-67.1-47.5-89.4-85.7c-22.3-38.2-33.5-84.9-33.5-140.4
	c0-46.7,8.4-88.9,25.3-126.6c16.9-37.7,41.7-67.6,74.4-89.7c32.7-22.1,72.2-33.1,118.5-33.1c23.8,0,45,5.5,63.8,16.6
	c18.8,11.1,32.3,25.1,40.7,42.2l12.5-49.4h95.1v199.5L1011.7,1240.7L1011.7,1240.7z"/>
<g>
	<g>
		<path fill="#E2D6C7" d="M484.2,2162.3c9.3,2.3,18.1,5.9,26.3,10.8c15.7,9.3,26.7,20.5,33.5,34.5l21.9,44.9l20.8-82.2v-20.2h-13.8
			l-12.5,49.4c-8.3-17.1-21.9-31.2-40.6-42.2c-11-6.5-22.9-11-35.6-13.7L484.2,2162.3L484.2,2162.3z"/>
		<path fill="#E2D6C7" d="M340.2,2521.5c9.3,2.3,18.1,5.9,26.3,10.8c15.7,9.3,26.7,20.5,33.5,34.5l21.9,44.9l20.8-82.2v-20.2h-13.8
			l-12.5,49.4c-8.3-17.1-21.9-31.2-40.6-42.2c-11-6.5-22.9-11-35.6-13.7L340.2,2521.5L340.2,2521.5z"/>
		<path fill="#E2D6C7" d="M668,2349.5v-199.5h-18.3v18.3v17.4v145.5h-61.1c-1.2-26-8.3-48.2-21.1-65.9
			c-15.2-21.1-38.7-32.3-67.7-32.3c-20.5,0-39.3,7.7-55.9,23c-15.2,14-27.2,32.3-35.6,54.4c-8.3,21.6-12.5,44.2-12.5,67.2
			c0,45.3,11.9,81.6,35.2,108.1c23.9,27.1,56.8,40.9,97.5,40.9c27.2,0,52.9-4.6,76.3-13.7c12.8-5,24.4-10.2,34.8-15.7v96.7
			c-21.4,11.3-43.9,19.4-67.3,24.1c-27.5,5.6-57.2,8.4-88.3,8.4c-41.9,0-80.7-8.9-115.2-26.5c-34-17.3-61.5-43.7-81.9-78.6
			c-20.5-35.1-31-79.2-31-131.1c0-43.9,8-84,23.7-119.1c15.4-34.4,38.2-62,67.9-82c9.6-6.5,20-12,31.1-16.4v-19.6
			c-14.8,5.3-28.6,12.2-41.3,20.8c-32.7,22.1-57.5,52-74.4,89.7c-16.9,37.7-25.3,79.9-25.3,126.6c0,55.4,11.1,102.2,33.5,140.4
			c22.3,38.1,52.1,66.7,89.4,85.7c37.3,19,78.5,28.5,123.5,28.5c32.5,0,63.2-2.9,91.9-8.8c28.8-5.8,56.1-16.3,81.9-31.3v-130.1
			l-6.9-5.6c-13.8,9.6-31.4,18.6-52.8,26.9c-21.5,8.3-44.7,12.5-69.7,12.5c-35.4,0-63.4-11.6-83.8-34.7
			c-20.4-23.1-30.6-55.1-30.6-96c0-20.8,3.8-41.1,11.3-60.7c7.5-19.6,17.8-35.4,31-47.5c13.1-12.1,27.6-18.1,43.5-18.1
			c23.3,0,41,8.2,52.8,24.7c11.9,16.5,17.8,37.6,17.8,63.5v10L668,2349.5L668,2349.5z"/>
	</g>
	<g>
		<path fill="#E2D6C7" d="M920.4,2162.3c9.3,2.3,18.1,5.9,26.3,10.8c15.7,9.3,26.7,20.5,33.5,34.5l21.9,44.9l20.8-82.2v-20.2h-13.8
			l-12.5,49.4c-8.3-17.1-21.9-31.2-40.6-42.2c-11-6.5-22.9-11-35.6-13.7L920.4,2162.3L920.4,2162.3z"/>
		<path fill="#E2D6C7" d="M765.1,2515.8c9.3,2.3,18.1,5.9,26.3,10.8c15.7,9.3,26.7,20.5,33.5,34.5l21.9,44.9l20.8-82.2v-20.2h-13.8
			l-12.5,49.4c-8.3-17.1-21.9-31.2-40.6-42.2c-11-6.5-22.9-11-35.6-13.7L765.1,2515.8L765.1,2515.8z"/>
		<path fill="#E2D6C7" d="M1104.2,2349.5v-199.5h-18.3v18.3v17.4v145.5h-61.1c-1.2-26-8.3-48.2-21.1-65.9
			c-15.2-21.1-38.7-32.3-67.7-32.3c-20.5,0-39.3,7.7-55.9,23c-15.2,14-27.2,32.3-35.7,54.4c-8.3,21.6-12.5,44.2-12.5,67.2
			c0,45.3,11.9,81.6,35.2,108.1c23.9,27.1,56.8,40.9,97.5,40.9c27.2,0,52.9-4.6,76.3-13.7c12.8-5,24.4-10.2,34.8-15.7v96.7
			c-21.4,11.3-43.9,19.4-67.3,24.1c-27.5,5.6-57.2,8.4-88.3,8.4c-41.9,0-80.7-8.9-115.2-26.5c-34-17.3-61.5-43.7-81.9-78.6
			c-20.5-35.1-31-79.2-31-131.1c0-43.9,8-84,23.7-119.1c15.4-34.4,38.2-62,67.9-82c9.6-6.5,20-12,31.1-16.4V2153
			c-14.8,5.3-28.6,12.2-41.3,20.8c-32.7,22.1-57.5,52-74.4,89.7c-16.9,37.7-25.3,79.9-25.3,126.6c0,55.4,11.1,102.2,33.5,140.4
			c22.3,38.1,52.1,66.7,89.4,85.7c37.3,19,78.5,28.5,123.5,28.5c32.5,0,63.2-2.9,91.9-8.8c28.8-5.8,56.1-16.3,81.9-31.3v-130.1
			l-6.9-5.6c-13.8,9.6-31.4,18.6-52.8,26.9c-21.5,8.3-44.7,12.5-69.7,12.5c-35.4,0-63.4-11.6-83.8-34.7
			c-20.4-23.1-30.6-55.1-30.6-96c0-20.8,3.8-41.1,11.3-60.7c7.5-19.6,17.8-35.4,31-47.5c13.1-12.1,27.6-18.1,43.5-18.1
			c23.3,0,41,8.2,52.8,24.7c11.9,16.5,17.8,37.6,17.8,63.5v10L1104.2,2349.5L1104.2,2349.5L1104.2,2349.5z"/>
	</g>
</g>
<g>
	<path d="M623.4,4109.2c-5.1,0-9.7,1.5-13.7,4.4c-4,2.9-7,6.2-9,9.9c-3-9.5-10-14.3-20.9-14.3c-4.4,0-8.4,1.1-12,3.3
		c-3.6,2.2-6.6,4.9-8.9,8v-2.1c0-2.3-0.7-4.1-2.2-5.7c-1.5-1.5-3.3-2.3-5.6-2.3c-2.3,0-4.1,0.8-5.6,2.3c-1.5,1.5-2.2,3.4-2.2,5.7
		v53.7c0,2.3,0.7,4.1,2.2,5.7c1.5,1.5,3.3,2.3,5.6,2.3c2.3,0,4.1-0.8,5.6-2.3c1.5-1.5,2.2-3.4,2.2-5.7v-33.3c0-4.4,1.4-8.1,4.1-11
		c2.7-2.9,6.5-4.4,11.4-4.4c4.7,0,8,1.4,9.8,4.1c1.9,2.7,2.8,6.5,2.8,11.2v33.3c0,2.3,0.7,4.1,2.2,5.7c1.5,1.5,3.3,2.3,5.6,2.3
		c2.3,0,4.1-0.8,5.6-2.3c1.5-1.5,2.2-3.4,2.2-5.7v-33.3c0-4.4,1.4-8.1,4.1-11c2.7-2.9,6.5-4.4,11.4-4.4c4.7,0,8,1.4,9.8,4.1
		c1.9,2.7,2.8,6.5,2.8,11.2v33.3c0,2.3,0.7,4.1,2.2,5.7c1.5,1.5,3.3,2.3,5.6,2.3c2.3,0,4.1-0.8,5.6-2.3c1.5-1.5,2.2-3.4,2.2-5.7
		v-33.3c0-9.3-1.6-16.5-4.9-21.8C637.9,4111.8,632,4109.2,623.4,4109.2z"/>
	<path d="M676.3,4088c-1.2-1-3.3-1.4-6.4-1.4c-2.9,0-4.9,0.5-6.2,1.4c-1.3,1-2,2.6-2,5.1v2.5c0,2.4,0.6,4.1,1.8,5.1
		c1.2,1,3.3,1.4,6.2,1.4c3,0,5.2-0.5,6.4-1.4c1.3-0.9,1.9-2.6,1.9-5.1v-2.5C678.1,4090.6,677.5,4089,676.3,4088z"/>
	<path d="M670,4110.5c-2.3,0-4.1,0.8-5.6,2.3c-1.5,1.5-2.2,3.4-2.2,5.7v53.7c0,2.3,0.7,4.1,2.2,5.7c1.5,1.5,3.3,2.3,5.6,2.3
		c2.3,0,4.1-0.8,5.6-2.3c1.5-1.5,2.2-3.4,2.2-5.7v-53.7c0-2.3-0.7-4.1-2.2-5.7C674.1,4111.3,672.2,4110.5,670,4110.5z"/>
	<path d="M742.4,4162.1c-1.1,0-2.1,0.2-2.9,0.5c-0.8,0.3-1.6,0.8-2.5,1.5c-0.9,0.6-1.6,1.1-2.1,1.4c-2.1,1-5.2,1.6-9.5,1.6
		c-5.8,0-10.6-2.1-14.3-6.2c-3.7-4.1-5.6-9.3-5.6-15.5c0-6.5,1.8-11.8,5.5-15.8c3.7-4,8.8-6,15.3-6c1,0,2.4,0.2,4.1,0.5
		c1.7,0.3,3,0.7,3.8,1.2c0.8,0.4,1.6,1,2.4,1.6c0.8,0.6,1.7,1.2,2.5,1.6c0.9,0.4,2,0.6,3.4,0.6c1.8,0,3.3-0.7,4.4-2.1
		c1.1-1.4,1.7-3.1,1.7-5c0-3.8-2.3-6.9-6.8-9.2c-4.5-2.3-10.4-3.4-17.8-3.4c-6.6,0-12.5,1.5-17.7,4.6c-5.2,3.1-9.3,7.3-12.2,12.8
		c-2.9,5.5-4.4,11.7-4.4,18.7c0,6.8,1.4,12.9,4.2,18.4c2.8,5.5,6.7,9.8,11.8,12.9c5.1,3.1,10.9,4.7,17.6,4.7c4.5,0,8.8-0.5,12.7-1.6
		c4-1.1,7.2-2.5,9.6-4.4c2.4-1.8,3.6-3.8,3.6-5.9c0-2.2-0.6-3.9-1.9-5.3C746.2,4162.8,744.5,4162.1,742.4,4162.1z"/>
	<path d="M822.6,4111.4c-1.5-1.5-3.3-2.2-5.6-2.2c-2.3,0-4.1,0.8-5.6,2.3c-1.5,1.5-2.2,3.4-2.2,5.7v0.1c-2.5-2.3-5.6-4.3-9.2-5.8
		c-3.6-1.5-7.5-2.3-11.7-2.3c-5.8,0-11.1,1.5-15.9,4.6c-4.8,3.1-8.6,7.4-11.4,12.9c-2.8,5.5-4.2,11.7-4.2,18.7s1.4,13.1,4.2,18.6
		c2.8,5.5,6.7,9.7,11.5,12.8c4.9,3.1,10.3,4.6,16.2,4.6c4.1,0,8-0.9,11.6-2.7c3.7-1.8,6.6-3.9,8.8-6.4c0.1,2.3,0.8,4.1,2.3,5.6
		c1.4,1.5,3.3,2.2,5.5,2.2c2.3,0,4.1-0.8,5.6-2.3c1.5-1.5,2.2-3.4,2.2-5.7v-55C824.8,4114.8,824.1,4112.9,822.6,4111.4z
		 M804.5,4160.9c-3.6,4.1-8.1,6.2-13.8,6.2c-5.6,0-10.2-2.1-13.7-6.2c-3.5-4.1-5.3-9.3-5.3-15.5c0-6.2,1.8-11.4,5.3-15.6
		c3.6-4.2,8.1-6.2,13.7-6.2c5.6,0,10.2,2.1,13.8,6.2c3.6,4.2,5.3,9.4,5.3,15.6C809.8,4151.6,808.1,4156.8,804.5,4160.9z"/>
</g>
<g>
	<text transform="matrix(1 0 0 1 420.1293 1734.6914)" font-family="'#9Slide03QuicksandBold-Bold'" font-size="130px">boxcolor</text>
	<text transform="matrix(1 0 0 1 351.1732 580.4496)" font-family="'#9Slide03QuicksandBold-Bold'" font-size="130px">namecolor</text>
	<text transform="matrix(1 0 0 1 407.895 328.9722)" fill="#FFFFFF" font-family="'WildSageRegular'" font-size="328.7417px">name</text>
	
		<text transform="matrix(1 0 0 1 407.895 328.9722)" fill="none" stroke="#FFFFFF" stroke-width="5" stroke-linecap="round" stroke-linejoin="round" stroke-miterlimit="10" font-family="'WildSageRegular'" font-size="328.7417px">name</text>
</g>
<g>
	<path d="M317.4,2932.8c-4.6-2.6-9.8-4-15.5-4c-2.3,0-4.6,0.3-7.1,0.9c-2.5,0.6-4.6,1.4-6.2,2.3l2.5-18.9h32.2c2.1,0,3.8-0.7,5.2-2
		c1.4-1.3,2.1-3,2.1-5c0-2.1-0.7-3.8-2.1-5.2c-1.4-1.4-3.1-2.1-5.2-2.1h-37.6c-2,0-3.7,0.6-5.1,1.8c-1.4,1.2-2.3,2.7-2.7,4.5
		l-4,32.2c-0.1,0.3-0.1,1-0.1,1.8c0,2.5,0.7,4.7,2.1,6.5c1.4,1.8,3.8,2.7,7.2,2.7c1,0,1.9-0.2,2.8-0.5c0.9-0.3,2.1-0.9,3.7-1.7
		c2.2-1,4-1.8,5.6-2.3c1.6-0.5,3.3-0.8,5.3-0.8c4.4,0,8.2,1.5,11.4,4.4c3.2,2.9,4.8,6.8,4.8,11.4c0,3.2-0.9,6.2-2.8,9
		c-1.9,2.8-4.4,5-7.5,6.6c-3.1,1.6-6.5,2.5-10,2.5c-2.8,0-6-1.1-9.6-3.4c-2.3-1.6-4.3-2.5-5.9-2.5c-2.2,0-3.9,0.6-5.3,1.9
		c-1.3,1.3-2,2.7-2,4.2c0,1.4,0.3,2.9,1,4.4c0.7,1.6,1.6,2.8,2.6,3.6c2.3,1.8,5.2,3.2,8.8,4.3c3.6,1,7.1,1.6,10.5,1.6
		c6.3,0,12.2-1.4,17.7-4.4c5.5-2.9,9.8-6.8,13.1-11.8c3.3-4.9,4.9-10.3,4.9-16.1c0-5.6-1.3-10.7-4-15.3
		C325.7,2939.1,322,2935.5,317.4,2932.8z"/>
	<path d="M430,2919.1c-5.1,0-9.7,1.5-13.7,4.4c-4,2.9-7,6.2-9,9.9c-3-9.5-10-14.3-20.9-14.3c-4.4,0-8.4,1.1-12,3.3
		c-3.6,2.2-6.6,4.9-8.9,8v-2.1c0-2.3-0.7-4.1-2.2-5.7c-1.5-1.5-3.3-2.3-5.6-2.3c-2.3,0-4.1,0.8-5.6,2.3c-1.5,1.5-2.2,3.4-2.2,5.7
		v53.7c0,2.3,0.7,4.1,2.2,5.7c1.5,1.5,3.3,2.3,5.6,2.3c2.3,0,4.1-0.8,5.6-2.3c1.5-1.5,2.2-3.4,2.2-5.7v-33.3c0-4.4,1.4-8.1,4.1-11
		c2.7-2.9,6.5-4.4,11.4-4.4c4.7,0,8,1.4,9.8,4.1c1.9,2.7,2.8,6.5,2.8,11.2v33.3c0,2.3,0.7,4.1,2.2,5.7c1.5,1.5,3.3,2.3,5.6,2.3
		c2.3,0,4.1-0.8,5.6-2.3c1.5-1.5,2.2-3.4,2.2-5.7v-33.3c0-4.4,1.4-8.1,4.1-11c2.7-2.9,6.5-4.4,11.4-4.4c4.7,0,8,1.4,9.8,4.1
		c1.9,2.7,2.8,6.5,2.8,11.2v33.3c0,2.3,0.7,4.1,2.2,5.7c1.5,1.5,3.3,2.3,5.6,2.3c2.3,0,4.1-0.8,5.6-2.3c1.5-1.5,2.2-3.4,2.2-5.7
		v-33.3c0-9.3-1.6-16.5-4.9-21.8C444.5,2921.7,438.6,2919.1,430,2919.1z"/>
	<path d="M549.9,2919.1c-5.1,0-9.7,1.5-13.7,4.4c-4,2.9-7,6.2-9,9.9c-3-9.5-10-14.3-20.9-14.3c-4.4,0-8.4,1.1-12,3.3
		c-3.6,2.2-6.6,4.9-8.9,8v-2.1c0-2.3-0.7-4.1-2.2-5.7c-1.5-1.5-3.3-2.3-5.6-2.3c-2.3,0-4.1,0.8-5.6,2.3c-1.5,1.5-2.2,3.4-2.2,5.7
		v53.7c0,2.3,0.7,4.1,2.2,5.7c1.5,1.5,3.3,2.3,5.6,2.3c2.3,0,4.1-0.8,5.6-2.3c1.5-1.5,2.2-3.4,2.2-5.7v-33.3c0-4.4,1.4-8.1,4.1-11
		c2.7-2.9,6.5-4.4,11.4-4.4c4.7,0,8,1.4,9.8,4.1c1.9,2.7,2.8,6.5,2.8,11.2v33.3c0,2.3,0.7,4.1,2.2,5.7c1.5,1.5,3.3,2.3,5.6,2.3
		c2.3,0,4.1-0.8,5.6-2.3c1.5-1.5,2.2-3.4,2.2-5.7v-33.3c0-4.4,1.4-8.1,4.1-11c2.7-2.9,6.5-4.4,11.4-4.4c4.7,0,8,1.4,9.8,4.1
		c1.9,2.7,2.8,6.5,2.8,11.2v33.3c0,2.3,0.7,4.1,2.2,5.7c1.5,1.5,3.3,2.3,5.6,2.3c2.3,0,4.1-0.8,5.6-2.3c1.5-1.5,2.2-3.4,2.2-5.7
		v-33.3c0-9.3-1.6-16.5-4.9-21.8C564.4,2921.7,558.5,2919.1,549.9,2919.1z"/>
	<path d="M654.5,2942.4h-22.6c-2.3,0-4.1,0.7-5.7,2.2c-1.5,1.5-2.3,3.3-2.3,5.5c0,2.3,0.8,4.1,2.3,5.6c1.5,1.5,3.4,2.2,5.7,2.2h22.6
		c2.3,0,4.1-0.7,5.7-2.1c1.5-1.4,2.3-3.2,2.3-5.4c0-2.3-0.8-4.1-2.3-5.7C658.7,2943.1,656.8,2942.4,654.5,2942.4z"/>
	<path d="M748.9,2951.6l19.6-18.1c2.1-1.8,3.1-3.8,3.1-5.9c0-1.6-0.8-3.3-2.3-4.9c-1.5-1.6-3.2-2.4-5.1-2.4c-2.2,0-4.1,0.8-5.7,2.5
		l-27.8,26.9v-48.1c0-2.3-0.7-4.1-2.2-5.7c-1.5-1.5-3.3-2.3-5.6-2.3c-2.3,0-4.1,0.8-5.6,2.3c-1.5,1.5-2.2,3.4-2.2,5.7v80.3
		c0,2.3,0.7,4.1,2.2,5.7c1.5,1.5,3.3,2.3,5.6,2.3c2.3,0,4.1-0.8,5.6-2.3c1.5-1.5,2.2-3.4,2.2-5.7v-13.6l6.4-5.9l23.4,24.7
		c1.6,1.7,3.5,2.6,5.7,2.6c1.9,0,3.7-0.7,5.4-2.2c1.7-1.5,2.5-3.3,2.5-5.5c0-2.2-0.8-4.1-2.5-5.9L748.9,2951.6z"/>
	<path d="M834.3,2923.7c-5.4-3.1-11.4-4.6-17.9-4.6c-6.6,0-12.6,1.5-17.9,4.6c-5.4,3.1-9.6,7.4-12.7,12.9
		c-3.1,5.5-4.7,11.7-4.7,18.7c0,6.9,1.6,13.2,4.7,18.7c3.1,5.5,7.4,9.8,12.7,12.8c5.4,3,11.4,4.6,17.9,4.6c6.5,0,12.5-1.5,17.9-4.6
		c5.4-3,9.7-7.3,12.8-12.8c3.1-5.5,4.7-11.7,4.7-18.7c0-6.9-1.6-13.1-4.7-18.7C843.9,2931.1,839.7,2926.8,834.3,2923.7z
		 M833.5,2966.6c-1.8,3.3-4.2,5.9-7.1,7.7c-3,1.8-6.3,2.7-9.9,2.7c-3.6,0-7-0.9-9.9-2.7c-3-1.8-5.4-4.4-7.1-7.7
		c-1.8-3.3-2.7-7.1-2.7-11.3c0-4.2,0.9-8,2.7-11.4c1.8-3.3,4.2-5.9,7.1-7.7c3-1.8,6.3-2.7,9.9-2.7s7,0.9,9.9,2.7
		c3,1.8,5.4,4.4,7.1,7.7c1.8,3.3,2.7,7.1,2.7,11.4C836.1,2959.5,835.3,2963.3,833.5,2966.6z"/>
	<path d="M939.6,2952.8c-3.1-1.4-7-2.7-11.7-4c-3.4-1-6-1.8-7.9-2.4c-1.9-0.6-3.4-1.6-4.6-2.7c-1.2-1.2-1.8-2.7-1.8-4.6
		c0-4.8,3.3-7.1,9.9-7.1c3.1,0,5.9,0.6,8.4,1.7c2.5,1.1,4.5,2.6,6,4.6c1.2,1.2,2.8,1.8,4.7,1.8c1.6,0,2.9-0.5,4.2-1.4
		c1.6-1.3,2.5-2.9,2.5-4.9c0-1.7-0.6-3.3-1.7-4.7c-2.5-3.2-6-5.6-10.4-7.3c-4.4-1.6-8.8-2.5-13.3-2.5c-4.3,0-8.4,0.8-12.3,2.5
		c-3.9,1.7-7,4.1-9.4,7.1c-2.4,3.1-3.6,6.7-3.6,10.9c0,4.8,1.1,8.6,3.4,11.4c2.3,2.8,5,4.9,8.2,6.3c3.2,1.4,7.3,2.8,12.3,4.2
		c4.9,1.3,8.4,2.6,10.7,3.9c2.3,1.3,3.4,3.2,3.4,5.7c0,4.9-3.4,7.4-10.1,7.7c-4,0-7.4-0.6-10.2-1.9c-2.8-1.3-5.5-3.3-8.1-6
		c-1.6-1.6-3.4-2.5-5.2-2.5c-1.3,0-2.6,0.4-3.8,1.2c-2.3,1.6-3.4,3.5-3.4,5.7c0,1.6,0.4,2.9,1.2,3.9c3.1,4.2,7.2,7.3,12.1,9.2
		s10.3,2.9,16,2.9c4.2,0,8.2-0.8,12.2-2.5c3.9-1.6,7.2-4.1,9.7-7.2c2.5-3.2,3.8-6.9,3.8-11.1c0-4.7-1.1-8.4-3.2-11.3
		C945.4,2956.3,942.7,2954.2,939.6,2952.8z"/>
	<path d="M1028.4,2923c1.6-3.1,2.3-6.5,2.3-10.2c0-1.7-0.5-3.3-1.6-4.7s-2.6-2.1-4.8-2.1c-2.1,0-3.7,0.7-4.9,2.1s-1.8,3-1.8,4.7
		c0,2.7-1,4.7-2.9,6c-1.9,1.3-4.7,2-8.1,2v0.1c-3.8-1.2-7.6-1.8-11.4-1.8c-6.6,0-12.6,1.5-17.9,4.6c-5.4,3.1-9.6,7.4-12.7,12.9
		c-3.1,5.5-4.7,11.7-4.7,18.7c0,6.9,1.6,13.2,4.7,18.7c3.1,5.5,7.4,9.8,12.7,12.8c5.4,3,11.4,4.6,17.9,4.6c6.5,0,12.5-1.5,17.9-4.6
		c5.4-3,9.7-7.3,12.8-12.8c3.1-5.5,4.7-11.7,4.7-18.7c0-4.9-0.8-9.4-2.4-13.6c-1.6-4.2-3.9-8-6.8-11.3
		C1024.5,2928.5,1026.9,2926,1028.4,2923z M1012.4,2966.6c-1.8,3.3-4.2,5.9-7.1,7.7c-3,1.8-6.3,2.7-9.9,2.7c-3.6,0-7-0.9-9.9-2.7
		c-3-1.8-5.4-4.4-7.1-7.7c-1.8-3.3-2.7-7.1-2.7-11.3c0-4.2,0.9-8,2.7-11.4c1.8-3.3,4.2-5.9,7.1-7.7c3-1.8,6.3-2.7,9.9-2.7
		s7,0.9,9.9,2.7c3,1.8,5.4,4.4,7.1,7.7c1.8,3.3,2.7,7.1,2.7,11.4C1015,2959.5,1014.1,2963.3,1012.4,2966.6z"/>
	<path d="M1099.1,2927c-3.4-5.2-9.5-7.9-18.3-7.9c-4.5,0-8.6,1.1-12.4,3.4c-3.8,2.3-6.8,4.9-9.2,8.1v-2.2c0-2.3-0.7-4.1-2.2-5.7
		c-1.5-1.5-3.3-2.3-5.6-2.3c-2.3,0-4.1,0.8-5.6,2.3c-1.5,1.5-2.2,3.4-2.2,5.7v53.7c0,2.3,0.7,4.1,2.2,5.7c1.5,1.5,3.3,2.3,5.6,2.3
		c2.3,0,4.1-0.8,5.6-2.3c1.5-1.5,2.2-3.4,2.2-5.7v-33.3c0-4.4,1.4-8.1,4.3-11c2.9-2.9,6.8-4.4,11.8-4.4c4.9,0,8.3,1.4,10.3,4.1
		c2,2.7,3,6.5,3,11.2v33.3c0,2.3,0.7,4.1,2.2,5.7c1.5,1.5,3.3,2.3,5.6,2.3c2.3,0,4.1-0.8,5.6-2.3c1.5-1.5,2.2-3.4,2.2-5.7v-33.3
		C1104.2,2939.5,1102.5,2932.2,1099.1,2927z"/>
</g>
</svg>
