<?xml version="1.0" encoding="utf-8"?>
<!-- Generator: Adobe Illustrator 27.9.0, SVG Export Plug-In . SVG Version: 6.00 Build 0)  -->
<svg version="1.1" id="Layer_1" xmlns="http://www.w3.org/2000/svg" xmlns:xlink="http://www.w3.org/1999/xlink" x="0px" y="0px"
	 viewBox="0 0 1567.3 3916.8" enable-background="new 0 0 1567.3 3916.8" xml:space="preserve">
<g>
	<path fill="#E2D6C7" d="M1172.2,2581.1H747v141.7h425.2V2581.1z"/>
	<path stroke="#FF0000" stroke-width="0.25" stroke-miterlimit="10" d="M1166.2,2706.8c-0.2-0.2-0.5-0.3-0.8-0.3s-0.6,0.1-0.8,0.3
		c-0.2,0.2-0.3,0.5-0.3,0.8v7.6c0,0.3-0.1,0.7-0.3,1c-0.2,0.3-0.4,0.5-0.8,0.7s-0.7,0.3-1,0.3s-0.6,0-0.8-0.1s-0.5-0.2-0.7-0.5
		c-0.4-0.4-0.7-0.5-1-0.5c-0.2,0-0.5,0.1-0.7,0.3s-0.3,0.5-0.3,0.7s0.1,0.4,0.2,0.6c0.4,0.5,0.9,0.9,1.4,1.2
		c0.6,0.3,1.2,0.4,1.9,0.4c0.8,0,1.5-0.2,2.2-0.6c0.7-0.4,1.2-0.9,1.6-1.5s0.6-1.3,0.6-2v-7.6
		C1166.5,2707.2,1166.4,2707,1166.2,2706.8z"/>
</g>
<rect x="855.6" y="2645" width="178.4" height="13.9"/>
<rect x="879.2" y="1497" width="178.3" height="15.4"/>
<path fill="#F4A5AC" d="M936.4,994.1v135.3h55.9V1307c0,14-3.2,25.7-9.6,35.8c-6.6,10.2-13.5,11.6-18.7,11.6
	c-11.8,0-14.6-4.8-16.4-9.3c-3-7.6-6.6-23.5-6.6-55.9V1273H824.7v225.1h54.5l51.5-0.7l6.2-23.8c6.2,4.6,13,8.8,20.3,12.4
	c12.5,6.2,26.4,10,41.6,11.4h31.4c41.1-3.2,74.8-18,100.1-44.1c28.7-29.6,43.2-69.4,43.2-118.3v-205.6h46.4V994.1H936.4L936.4,994.1
	z"/>
<path fill="#FFFFFF" d="M693.6,3128.5v135.4h55.9v177.6c0,14-3.2,25.7-9.6,35.8c-6.6,10.2-13.5,11.6-18.7,11.6
	c-11.8,0-14.6-4.8-16.4-9.3c-3-7.6-6.6-23.5-6.6-55.9v-16.2H581.8v225.1h105.8l6.4-24.4c6.2,4.6,13,8.8,20.3,12.4
	c16.3,8,35,12.1,55.6,12.1c49.1,0,88.7-15.1,117.5-44.8c28.7-29.6,43.2-69.4,43.2-118.3v-205.7H977v-135.3L693.6,3128.5
	L693.6,3128.5z"/>
<path fill="#F4A5AC" d="M546.5,985.8v135.3h55.9v177.6c0,14-3.2,25.7-9.6,35.8c-6.6,10.2-13.5,11.6-18.7,11.6
	c-11.8,0-14.6-4.8-16.4-9.3c-3-7.6-6.6-23.5-6.6-55.9v-16.2H434.7v225.1h105.8l6.4-24.4c6.2,4.6,13,8.8,20.3,12.4
	c16.3,8,35,12.1,55.6,12.1c49.1,0,88.7-15.1,117.5-44.8c28.7-29.6,43.2-69.4,43.2-118.3v-205.6h46.4V985.8H546.5L546.5,985.8z
	 M812.5,1103.8h-46.4v223c0,44.3-12.9,80-38.3,106.2c-25.4,26.2-60.7,39.5-105,39.5c-18,0-34.1-3.5-47.9-10.3
	c-6.3-3.1-12.2-6.7-17.5-10.7l-20.9-15.6l-9.5,36.5h-75v-190.3h81.5c0.1,27.6,2.7,48.1,7.8,61.1c5.3,13.5,16.3,20.4,32.6,20.4
	c13.8,0,25.1-6.6,33.4-19.6c8.3-13,12.4-27.8,12.4-45.2v-195h-55.9v-100.5h248.7V1103.8L812.5,1103.8z"/>
<g>
	<path fill="#E2D6C7" d="M737.7,2069.1v17.4h59.8V2187h-46.4v223c0,44.3-12.9,80-38.3,106.2c-25.4,26.2-60.7,39.5-105,39.5
		c-18,0-34.1-3.5-47.9-10.3c-6.3-3.1-12.2-6.7-17.5-10.7l-20.7-15.5l-9.5,36.5h-75v-190.3h81.5c0.1,27.6,2.7,48.1,7.8,61.1
		c5.3,13.5,16.3,20.4,32.6,20.4c13.8,0,25.1-6.6,33.4-19.6c8.3-13,12.4-27.8,12.4-45.2v-195H549v-100.5h68.4v-17.4h-85.9v135.3h55.9
		v177.6c0,14-3.2,25.7-9.6,35.8c-6.6,10.2-13.5,11.6-18.7,11.6c-11.8,0-14.6-4.8-16.4-9.3c-3-7.6-6.6-23.5-6.6-55.9v-16.2H419.8
		v225.1h105.8l6.4-24.4c6.2,4.6,13,8.8,20.3,12.4c16.3,8,35,12.1,55.6,12.1c49.1,0,88.7-15.1,117.5-44.8
		c28.7-29.6,43.2-69.4,43.2-118.3v-205.6H815v-135.3L737.7,2069.1L737.7,2069.1z"/>
	<path fill="#E2D6C7" d="M1095,2069.1v17.4h59.8V2187h-46.4v223c0,44.3-12.9,80-38.3,106.2s-60.7,39.5-105,39.5
		c-18,0-34.1-3.5-47.9-10.3c-6.3-3.1-12.2-6.7-17.5-10.7l-20.7-15.5l-9.5,36.5h-75v-190.3H876c0.1,27.6,2.7,48.1,7.8,61.1
		c5.3,13.5,16.3,20.4,32.6,20.4c13.8,0,25.1-6.6,33.4-19.6c8.3-13,12.4-27.8,12.4-45.2v-195h-55.9v-100.5h68.4v-17.4h-85.8v135.3
		h55.9v177.6c0,14-3.2,25.7-9.6,35.8c-6.6,10.2-13.5,11.6-18.7,11.6c-11.8,0-14.6-4.8-16.4-9.3c-3-7.6-6.6-23.5-6.6-55.9v-16.2H777
		v225.1h105.8l6.4-24.4c6.2,4.6,13,8.8,20.3,12.4c16.3,8,35,12.1,55.6,12.1c49.1,0,88.7-15.1,117.5-44.8
		c28.7-29.6,43.2-69.4,43.2-118.3v-205.6h46.4v-135.3L1095,2069.1L1095,2069.1L1095,2069.1z"/>
</g>
<g>
	<path d="M717.7,3784.3c-5.1,0-9.7,1.5-13.7,4.4s-7,6.2-9,9.9c-3-9.5-10-14.3-20.9-14.3c-4.4,0-8.4,1.1-12,3.3s-6.6,4.9-8.9,8v-2.1
		c0-2.3-0.7-4.1-2.2-5.7c-1.5-1.5-3.3-2.3-5.6-2.3s-4.1,0.8-5.6,2.3s-2.2,3.4-2.2,5.7v53.7c0,2.3,0.7,4.1,2.2,5.7
		c1.5,1.5,3.3,2.3,5.6,2.3s4.1-0.8,5.6-2.3s2.2-3.4,2.2-5.7v-33.3c0-4.4,1.4-8.1,4.1-11c2.7-2.9,6.5-4.4,11.4-4.4
		c4.7,0,8,1.4,9.8,4.1c1.9,2.7,2.8,6.5,2.8,11.2v33.3c0,2.3,0.7,4.1,2.2,5.7c1.5,1.5,3.3,2.3,5.6,2.3s4.1-0.8,5.6-2.3
		s2.2-3.4,2.2-5.7v-33.3c0-4.4,1.4-8.1,4.1-11c2.7-2.9,6.5-4.4,11.4-4.4c4.7,0,8,1.4,9.8,4.1c1.9,2.7,2.8,6.5,2.8,11.2v33.3
		c0,2.3,0.7,4.1,2.2,5.7c1.5,1.5,3.3,2.3,5.6,2.3s4.1-0.8,5.6-2.3s2.2-3.4,2.2-5.7v-33.3c0-9.3-1.6-16.5-4.9-21.8
		C732.2,3786.9,726.3,3784.3,717.7,3784.3z"/>
	<path d="M770.6,3763.1c-1.2-1-3.3-1.4-6.4-1.4c-2.9,0-4.9,0.5-6.2,1.4c-1.3,1-2,2.6-2,5.1v2.5c0,2.4,0.6,4.1,1.8,5.1
		s3.3,1.4,6.2,1.4c3,0,5.2-0.5,6.4-1.4c1.3-0.9,1.9-2.6,1.9-5.1v-2.5C772.4,3765.8,771.8,3764.1,770.6,3763.1z"/>
	<path d="M764.2,3785.6c-2.3,0-4.1,0.8-5.6,2.3s-2.2,3.4-2.2,5.7v53.7c0,2.3,0.7,4.1,2.2,5.7c1.5,1.5,3.3,2.3,5.6,2.3
		s4.1-0.8,5.6-2.3s2.2-3.4,2.2-5.7v-53.7c0-2.3-0.7-4.1-2.2-5.7C768.3,3786.4,766.5,3785.6,764.2,3785.6z"/>
	<path d="M836.6,3837.2c-1.1,0-2.1,0.2-2.9,0.5c-0.8,0.3-1.6,0.8-2.5,1.5c-0.9,0.6-1.6,1.1-2.1,1.4c-2.1,1-5.2,1.6-9.5,1.6
		c-5.8,0-10.6-2.1-14.3-6.2c-3.7-4.1-5.6-9.3-5.6-15.5c0-6.5,1.8-11.8,5.5-15.8s8.8-6,15.3-6c1,0,2.4,0.2,4.1,0.5
		c1.7,0.3,3,0.7,3.8,1.2c0.8,0.4,1.6,1,2.4,1.6c0.8,0.6,1.7,1.2,2.5,1.6c0.9,0.4,2,0.6,3.4,0.6c1.8,0,3.3-0.7,4.4-2.1
		c1.1-1.4,1.7-3.1,1.7-5c0-3.8-2.3-6.9-6.8-9.2s-10.4-3.4-17.8-3.4c-6.6,0-12.5,1.5-17.7,4.6s-9.3,7.3-12.2,12.8s-4.4,11.7-4.4,18.7
		c0,6.8,1.4,12.9,4.2,18.4s6.7,9.8,11.8,12.9c5.1,3.1,10.9,4.7,17.6,4.7c4.5,0,8.8-0.5,12.7-1.6c4-1.1,7.2-2.5,9.6-4.4
		c2.4-1.8,3.6-3.8,3.6-5.9c0-2.2-0.6-3.9-1.9-5.3C840.5,3837.9,838.8,3837.2,836.6,3837.2z"/>
	<path d="M916.8,3786.5c-1.5-1.5-3.3-2.2-5.6-2.2s-4.1,0.8-5.6,2.3s-2.2,3.4-2.2,5.7v0.1c-2.5-2.3-5.6-4.3-9.2-5.8
		c-3.6-1.5-7.5-2.3-11.7-2.3c-5.8,0-11.1,1.5-15.9,4.6c-4.8,3.1-8.6,7.4-11.4,12.9c-2.8,5.5-4.2,11.7-4.2,18.7s1.4,13.1,4.2,18.6
		s6.7,9.7,11.5,12.8c4.9,3.1,10.3,4.6,16.2,4.6c4.1,0,8-0.9,11.6-2.7c3.7-1.8,6.6-3.9,8.8-6.4c0.1,2.3,0.8,4.1,2.3,5.6
		c1.4,1.5,3.3,2.2,5.5,2.2c2.3,0,4.1-0.8,5.6-2.3s2.2-3.4,2.2-5.7v-55C919,3789.9,918.3,3788,916.8,3786.5z M898.8,3836
		c-3.6,4.1-8.1,6.2-13.8,6.2c-5.6,0-10.2-2.1-13.7-6.2c-3.5-4.1-5.3-9.3-5.3-15.5s1.8-11.4,5.3-15.6c3.6-4.2,8.1-6.2,13.7-6.2
		c5.6,0,10.2,2.1,13.8,6.2c3.6,4.2,5.3,9.4,5.3,15.6C904.1,3826.7,902.3,3831.9,898.8,3836z"/>
</g>
<g>
	<text transform="matrix(1 0 0 1 538.5317 1706.1353)" font-family="'#9Slide03QuicksandBold-Bold'" font-size="130px">boxcolor</text>
	<text transform="matrix(1 0 0 1 469.5756 551.8937)" font-family="'#9Slide03QuicksandBold-Bold'" font-size="130px">namecolor</text>
	<text transform="matrix(1 0 0 1 526.2994 300.4163)" fill="#FFFFFF" font-family="'WildSageRegular'" font-size="328.7417px">name</text>
	
		<text transform="matrix(1 0 0 1 526.2994 300.4163)" fill="none" stroke="#FFFFFF" stroke-width="5" stroke-linecap="round" stroke-linejoin="round" stroke-miterlimit="10" font-family="'WildSageRegular'" font-size="328.7417px">name</text>
</g>
<g>
	<path d="M412.6,2833.1c-4.6-2.6-9.8-4-15.5-4c-2.3,0-4.6,0.3-7.1,0.9c-2.5,0.6-4.6,1.4-6.2,2.3l2.5-18.9h32.2c2.1,0,3.8-0.7,5.2-2
		c1.4-1.3,2.1-3,2.1-5c0-2.1-0.7-3.8-2.1-5.2s-3.1-2.1-5.2-2.1h-37.6c-2,0-3.7,0.6-5.1,1.8s-2.3,2.7-2.7,4.5l-4,32.2
		c-0.1,0.3-0.1,1-0.1,1.8c0,2.5,0.7,4.7,2.1,6.5s3.8,2.7,7.2,2.7c1,0,1.9-0.2,2.8-0.5s2.1-0.9,3.7-1.7c2.2-1,4-1.8,5.6-2.3
		s3.3-0.8,5.3-0.8c4.4,0,8.2,1.5,11.4,4.4c3.2,2.9,4.8,6.8,4.8,11.4c0,3.2-0.9,6.2-2.8,9s-4.4,5-7.5,6.6s-6.5,2.5-10,2.5
		c-2.8,0-6-1.1-9.6-3.4c-2.3-1.6-4.3-2.5-5.9-2.5c-2.2,0-3.9,0.6-5.3,1.9c-1.3,1.3-2,2.7-2,4.2c0,1.4,0.3,2.9,1,4.4
		c0.7,1.6,1.6,2.8,2.6,3.6c2.3,1.8,5.2,3.2,8.8,4.3c3.6,1,7.1,1.6,10.5,1.6c6.3,0,12.2-1.4,17.7-4.4c5.5-2.9,9.8-6.8,13.1-11.8
		c3.3-4.9,4.9-10.3,4.9-16.1c0-5.6-1.3-10.7-4-15.3C420.8,2839.3,417.2,2835.7,412.6,2833.1z"/>
	<path d="M525.2,2819.3c-5.1,0-9.7,1.5-13.7,4.4s-7,6.2-9,9.9c-3-9.5-10-14.3-20.9-14.3c-4.4,0-8.4,1.1-12,3.3s-6.6,4.9-8.9,8v-2.1
		c0-2.3-0.7-4.1-2.2-5.7c-1.5-1.5-3.3-2.3-5.6-2.3c-2.3,0-4.1,0.8-5.6,2.3s-2.2,3.4-2.2,5.7v53.7c0,2.3,0.7,4.1,2.2,5.7
		c1.5,1.5,3.3,2.3,5.6,2.3c2.3,0,4.1-0.8,5.6-2.3s2.2-3.4,2.2-5.7v-33.3c0-4.4,1.4-8.1,4.1-11s6.5-4.4,11.4-4.4c4.7,0,8,1.4,9.8,4.1
		c1.9,2.7,2.8,6.5,2.8,11.2v33.3c0,2.3,0.7,4.1,2.2,5.7c1.5,1.5,3.3,2.3,5.6,2.3s4.1-0.8,5.6-2.3s2.2-3.4,2.2-5.7v-33.3
		c0-4.4,1.4-8.1,4.1-11c2.7-2.9,6.5-4.4,11.4-4.4c4.7,0,8,1.4,9.8,4.1c1.9,2.7,2.8,6.5,2.8,11.2v33.3c0,2.3,0.7,4.1,2.2,5.7
		c1.5,1.5,3.3,2.3,5.6,2.3s4.1-0.8,5.6-2.3s2.2-3.4,2.2-5.7v-33.3c0-9.3-1.6-16.5-4.9-21.8C539.7,2822,533.8,2819.3,525.2,2819.3z"
		/>
	<path d="M645.1,2819.3c-5.1,0-9.7,1.5-13.7,4.4s-7,6.2-9,9.9c-3-9.5-10-14.3-20.9-14.3c-4.4,0-8.4,1.1-12,3.3s-6.6,4.9-8.9,8v-2.1
		c0-2.3-0.7-4.1-2.2-5.7c-1.5-1.5-3.3-2.3-5.6-2.3s-4.1,0.8-5.6,2.3s-2.2,3.4-2.2,5.7v53.7c0,2.3,0.7,4.1,2.2,5.7
		c1.5,1.5,3.3,2.3,5.6,2.3s4.1-0.8,5.6-2.3s2.2-3.4,2.2-5.7v-33.3c0-4.4,1.4-8.1,4.1-11c2.7-2.9,6.5-4.4,11.4-4.4
		c4.7,0,8,1.4,9.8,4.1c1.9,2.7,2.8,6.5,2.8,11.2v33.3c0,2.3,0.7,4.1,2.2,5.7c1.5,1.5,3.3,2.3,5.6,2.3s4.1-0.8,5.6-2.3
		s2.2-3.4,2.2-5.7v-33.3c0-4.4,1.4-8.1,4.1-11c2.7-2.9,6.5-4.4,11.4-4.4c4.7,0,8,1.4,9.8,4.1c1.9,2.7,2.8,6.5,2.8,11.2v33.3
		c0,2.3,0.7,4.1,2.2,5.7c1.5,1.5,3.3,2.3,5.6,2.3s4.1-0.8,5.6-2.3s2.2-3.4,2.2-5.7v-33.3c0-9.3-1.6-16.5-4.9-21.8
		C659.6,2822,653.6,2819.3,645.1,2819.3z"/>
	<path d="M749.7,2842.6h-22.6c-2.3,0-4.1,0.7-5.7,2.2c-1.5,1.5-2.3,3.3-2.3,5.5c0,2.3,0.8,4.1,2.3,5.6s3.4,2.2,5.7,2.2h22.6
		c2.3,0,4.1-0.7,5.7-2.1c1.5-1.4,2.3-3.2,2.3-5.4c0-2.3-0.8-4.1-2.3-5.7C753.9,2843.4,752,2842.6,749.7,2842.6z"/>
	<path d="M844.1,2851.8l19.6-18.1c2.1-1.8,3.1-3.8,3.1-5.9c0-1.6-0.8-3.3-2.3-4.9c-1.5-1.6-3.2-2.4-5.1-2.4c-2.2,0-4.1,0.8-5.7,2.5
		l-27.8,26.9v-48c0-2.3-0.7-4.1-2.2-5.7c-1.5-1.5-3.3-2.3-5.6-2.3s-4.1,0.8-5.6,2.3s-2.2,3.4-2.2,5.7v80.3c0,2.3,0.7,4.1,2.2,5.7
		c1.5,1.5,3.3,2.3,5.6,2.3s4.1-0.8,5.6-2.3s2.2-3.4,2.2-5.7v-13.6l6.4-5.9l23.4,24.7c1.6,1.7,3.5,2.6,5.7,2.6c1.9,0,3.7-0.7,5.4-2.2
		s2.5-3.3,2.5-5.5s-0.8-4.1-2.5-5.9L844.1,2851.8z"/>
	<path d="M929.4,2824c-5.4-3.1-11.4-4.6-17.9-4.6c-6.6,0-12.6,1.5-17.9,4.6c-5.4,3.1-9.6,7.4-12.7,12.9c-3.1,5.5-4.7,11.7-4.7,18.7
		c0,6.9,1.6,13.2,4.7,18.7c3.1,5.5,7.4,9.8,12.7,12.8c5.4,3,11.4,4.6,17.9,4.6s12.5-1.5,17.9-4.6c5.4-3,9.7-7.3,12.8-12.8
		s4.7-11.7,4.7-18.7c0-6.9-1.6-13.1-4.7-18.7C939.1,2831.3,934.9,2827,929.4,2824z M928.7,2866.8c-1.8,3.3-4.2,5.9-7.1,7.7
		c-3,1.8-6.3,2.7-9.9,2.7c-3.6,0-7-0.9-9.9-2.7c-3-1.8-5.4-4.4-7.1-7.7c-1.8-3.3-2.7-7.1-2.7-11.3s0.9-8,2.7-11.4
		c1.8-3.3,4.2-5.9,7.1-7.7c3-1.8,6.3-2.7,9.9-2.7s7,0.9,9.9,2.7c3,1.8,5.4,4.4,7.1,7.7c1.8,3.3,2.7,7.1,2.7,11.4
		C931.3,2859.7,930.4,2863.5,928.7,2866.8z"/>
	<path d="M1034.8,2853c-3.1-1.4-7-2.7-11.7-4c-3.4-1-6-1.8-7.9-2.4c-1.9-0.6-3.4-1.6-4.6-2.7c-1.2-1.2-1.8-2.7-1.8-4.6
		c0-4.8,3.3-7.1,9.9-7.1c3.1,0,5.9,0.6,8.4,1.7c2.5,1.1,4.5,2.6,6,4.6c1.2,1.2,2.8,1.8,4.7,1.8c1.6,0,2.9-0.5,4.2-1.4
		c1.6-1.3,2.5-2.9,2.5-4.9c0-1.7-0.6-3.3-1.7-4.7c-2.5-3.2-6-5.6-10.4-7.3c-4.4-1.6-8.8-2.5-13.3-2.5c-4.3,0-8.4,0.8-12.3,2.5
		s-7,4.1-9.4,7.1c-2.4,3.1-3.6,6.7-3.6,10.9c0,4.8,1.1,8.6,3.4,11.4c2.3,2.8,5,4.9,8.2,6.3c3.2,1.4,7.3,2.8,12.3,4.2
		c4.9,1.3,8.4,2.6,10.7,3.9c2.3,1.3,3.4,3.2,3.4,5.7c0,4.9-3.4,7.4-10.1,7.7c-4,0-7.4-0.6-10.2-1.9c-2.8-1.3-5.5-3.3-8.1-6
		c-1.6-1.6-3.4-2.5-5.2-2.5c-1.3,0-2.6,0.4-3.8,1.2c-2.3,1.6-3.4,3.5-3.4,5.7c0,1.6,0.4,2.9,1.2,3.9c3.1,4.2,7.2,7.3,12.1,9.2
		s10.3,2.9,16,2.9c4.2,0,8.2-0.8,12.2-2.5c3.9-1.6,7.2-4.1,9.7-7.2c2.5-3.2,3.8-6.9,3.8-11.1c0-4.7-1.1-8.4-3.2-11.3
		C1040.6,2856.5,1037.9,2854.4,1034.8,2853z"/>
	<path d="M1123.6,2823.2c1.6-3.1,2.3-6.5,2.3-10.2c0-1.7-0.5-3.3-1.6-4.7s-2.6-2.1-4.8-2.1c-2.1,0-3.7,0.7-4.9,2.1s-1.8,3-1.8,4.7
		c0,2.7-1,4.7-2.9,6s-4.7,2-8.1,2v0.1c-3.8-1.2-7.6-1.8-11.4-1.8c-6.6,0-12.6,1.5-17.9,4.6c-5.4,3.1-9.6,7.4-12.7,12.9
		s-4.7,11.7-4.7,18.7c0,6.9,1.6,13.2,4.7,18.7s7.4,9.8,12.7,12.8c5.4,3,11.4,4.6,17.9,4.6s12.5-1.5,17.9-4.6
		c5.4-3,9.7-7.3,12.8-12.8c3.1-5.5,4.7-11.7,4.7-18.7c0-4.9-0.8-9.4-2.4-13.6c-1.6-4.2-3.9-8-6.8-11.3
		C1119.7,2828.7,1122,2826.3,1123.6,2823.2z M1107.5,2866.8c-1.8,3.3-4.2,5.9-7.1,7.7c-3,1.8-6.3,2.7-9.9,2.7s-7-0.9-9.9-2.7
		c-3-1.8-5.4-4.4-7.1-7.7c-1.8-3.3-2.7-7.1-2.7-11.3s0.9-8,2.7-11.4c1.8-3.3,4.2-5.9,7.1-7.7c3-1.8,6.3-2.7,9.9-2.7s7,0.9,9.9,2.7
		c3,1.8,5.4,4.4,7.1,7.7c1.8,3.3,2.7,7.1,2.7,11.4C1110.2,2859.7,1109.3,2863.5,1107.5,2866.8z"/>
	<path d="M1194.3,2827.2c-3.4-5.2-9.5-7.9-18.3-7.9c-4.5,0-8.6,1.1-12.4,3.4c-3.8,2.3-6.8,4.9-9.2,8.1v-2.2c0-2.3-0.7-4.1-2.2-5.7
		c-1.5-1.5-3.3-2.3-5.6-2.3c-2.3,0-4.1,0.8-5.6,2.3s-2.2,3.4-2.2,5.7v53.7c0,2.3,0.7,4.1,2.2,5.7c1.5,1.5,3.3,2.3,5.6,2.3
		c2.3,0,4.1-0.8,5.6-2.3s2.2-3.4,2.2-5.7V2849c0-4.4,1.4-8.1,4.3-11s6.8-4.4,11.8-4.4c4.9,0,8.3,1.4,10.3,4.1c2,2.7,3,6.5,3,11.2
		v33.3c0,2.3,0.7,4.1,2.2,5.7c1.5,1.5,3.3,2.3,5.6,2.3c2.3,0,4.1-0.8,5.6-2.3s2.2-3.4,2.2-5.7v-33.3
		C1199.4,2839.7,1197.7,2832.5,1194.3,2827.2z"/>
</g>
</svg>
