<?xml version="1.0" encoding="utf-8"?>
<!-- Generator: Adobe Illustrator 27.9.0, SVG Export Plug-In . SVG Version: 6.00 Build 0)  -->
<svg version="1.1" id="Layer_1" xmlns="http://www.w3.org/2000/svg" xmlns:xlink="http://www.w3.org/1999/xlink" x="0px" y="0px"
	 viewBox="0 0 1567.3 3916.8" style="enable-background:new 0 0 1567.3 3916.8;" xml:space="preserve">
<style type="text/css">
	.st0{fill:#FFFFFF;}
	.st1{fill:#F4A5AC;}
	.st2{fill:#E2D6C7;}
	.st3{font-family:'#9Slide03QuicksandBold-Bold';}
	.st4{font-size:130px;}
	.st5{fill:#FFFFFF;stroke:#FFFFFF;stroke-width:5;stroke-linecap:round;stroke-linejoin:round;stroke-miterlimit:10;}
	.st6{font-family:'WildSageRegular';}
	.st7{font-size:328.7417px;}
	.st8{fill:#E1D5C6;}
</style>
<rect x="914.8" y="1479" width="249.4" height="15.3"/>
<rect x="1017.6" y="1459.6" width="91.4" height="21.2"/>
<path class="st0" d="M738,3115.3v135.3h55.9v177.6c0,14-3.1,25.7-9.6,35.8c-6.6,10.2-13.5,11.6-18.7,11.6c-11.8,0-14.6-4.8-16.4-9.3
	c-3-7.6-6.6-23.5-6.6-55.9v-16.2H626.2v225.1H732l6.4-24.4c6.2,4.6,13,8.8,20.3,12.4c16.3,8,35,12.1,55.6,12.1
	c49.1,0,88.7-15.1,117.5-44.8c28.7-29.6,43.2-69.4,43.2-118.3v-205.6h46.4v-135.3H738z"/>
<path class="st1" d="M590.8,972.6V1108h55.9v177.6c0,14-3.1,25.7-9.6,35.8c-6.6,10.2-13.5,11.6-18.7,11.6c-11.8,0-14.6-4.8-16.4-9.3
	c-3-7.6-6.6-23.5-6.6-55.9v-16.2H479v225.1h105.8l6.4-24.4c6.2,4.6,13,8.8,20.3,12.4c16.3,8,35,12.1,55.6,12.1
	c49.1,0,88.7-15.1,117.5-44.8c28.7-29.6,43.2-69.4,43.2-118.3V1108h46.4V972.6H590.8z M856.8,1090.6h-46.4v223
	c0,44.3-12.9,80-38.3,106.2c-25.4,26.2-60.7,39.5-105,39.5c-18,0-34.1-3.5-47.9-10.3c-6.3-3.1-12.2-6.7-17.5-10.7l-20.7-15.5
	l-9.5,36.5h-75v-190.3h81.5c0.1,27.6,2.7,48.1,7.8,61.1c5.3,13.5,16.3,20.4,32.6,20.4c13.8,0,25.1-6.6,33.4-19.6
	c8.3-13,12.4-27.8,12.4-45.2v-195h-55.9V990h248.6L856.8,1090.6L856.8,1090.6z"/>
<g>
	<path class="st2" d="M782.1,2055.9v17.4h59.8v100.5h-46.4v223c0,44.3-12.9,80-38.3,106.2c-25.4,26.2-60.7,39.5-105,39.5
		c-18,0-34.1-3.5-47.9-10.3c-6.3-3.1-12.2-6.7-17.5-10.7L566,2506l-9.5,36.5h-75v-190.3H563c0.1,27.6,2.7,48.1,7.8,61.1
		c5.3,13.5,16.3,20.4,32.6,20.4c13.8,0,25.1-6.6,33.4-19.6c8.3-13,12.4-27.8,12.4-45.2v-195h-55.9v-100.5h68.4v-17.4h-85.8v135.3
		h55.9v177.6c0,14-3.1,25.7-9.6,35.8c-6.6,10.2-13.5,11.6-18.7,11.6c-11.8,0-14.6-4.8-16.4-9.3c-3-7.6-6.6-23.5-6.6-55.9v-16.2
		H464.1v225.1h105.8l6.4-24.4c6.2,4.6,13,8.8,20.3,12.4c16.3,8,35,12.1,55.6,12.1c49.1,0,88.7-15.1,117.5-44.8
		c28.7-29.6,43.2-69.4,43.2-118.3v-205.6h46.4v-135.3H782.1z"/>
	<path class="st2" d="M1139.3,2055.9v17.4h59.8v100.5h-46.4v223c0,44.3-12.9,80-38.3,106.2c-25.4,26.2-60.7,39.5-105,39.5
		c-18,0-34.1-3.5-47.9-10.3c-6.3-3.1-12.2-6.7-17.5-10.7l-20.7-15.5l-9.5,36.5h-75v-190.3h81.5c0.1,27.6,2.7,48.1,7.8,61.1
		c5.3,13.5,16.3,20.4,32.6,20.4c13.8,0,25.1-6.6,33.4-19.6c8.3-13,12.4-27.8,12.4-45.2v-195h-55.9v-100.5h68.4v-17.4h-85.8v135.3
		h55.9v177.6c0,14-3.1,25.7-9.6,35.8c-6.6,10.2-13.5,11.6-18.7,11.6c-11.8,0-14.6-4.8-16.4-9.3c-3-7.6-6.6-23.5-6.6-55.9v-16.2
		H821.4v225.1h105.8l6.4-24.4c6.2,4.6,13,8.8,20.3,12.4c16.3,8,35,12.1,55.6,12.1c49.1,0,88.7-15.1,117.5-44.8
		c28.7-29.6,43.2-69.4,43.2-118.3v-205.6h46.4v-135.3H1139.3z"/>
</g>
<g>
	<path d="M762,3771.1c-5.1,0-9.7,1.5-13.7,4.4c-4,2.9-7,6.2-9,9.9c-3-9.5-10-14.3-20.9-14.3c-4.4,0-8.4,1.1-12,3.3
		c-3.6,2.2-6.6,4.9-8.9,8v-2.1c0-2.3-0.7-4.1-2.2-5.7c-1.5-1.5-3.3-2.3-5.6-2.3c-2.3,0-4.1,0.8-5.6,2.3c-1.5,1.5-2.2,3.4-2.2,5.7
		v53.7c0,2.3,0.7,4.1,2.2,5.7c1.5,1.5,3.3,2.3,5.6,2.3c2.3,0,4.1-0.8,5.6-2.3c1.5-1.5,2.2-3.4,2.2-5.7v-33.3c0-4.4,1.4-8.1,4.1-11
		c2.7-2.9,6.5-4.4,11.4-4.4c4.7,0,8,1.4,9.8,4.1c1.9,2.7,2.8,6.5,2.8,11.2v33.3c0,2.3,0.7,4.1,2.2,5.7c1.5,1.5,3.3,2.3,5.6,2.3
		c2.3,0,4.1-0.8,5.6-2.3c1.5-1.5,2.2-3.4,2.2-5.7v-33.3c0-4.4,1.4-8.1,4.1-11c2.7-2.9,6.5-4.4,11.4-4.4c4.7,0,8,1.4,9.8,4.1
		c1.9,2.7,2.8,6.5,2.8,11.2v33.3c0,2.3,0.7,4.1,2.2,5.7c1.5,1.5,3.3,2.3,5.6,2.3c2.3,0,4.1-0.8,5.6-2.3c1.5-1.5,2.2-3.4,2.2-5.7
		v-33.3c0-9.3-1.6-16.5-4.9-21.8C776.5,3773.7,770.6,3771.1,762,3771.1z"/>
	<path d="M814.9,3749.9c-1.2-1-3.3-1.4-6.4-1.4c-2.9,0-4.9,0.5-6.2,1.4c-1.3,1-2,2.6-2,5.1v2.5c0,2.4,0.6,4.1,1.8,5.1
		c1.2,1,3.3,1.4,6.2,1.4c3,0,5.2-0.5,6.4-1.4c1.3-0.9,1.9-2.6,1.9-5.1v-2.5C816.8,3752.6,816.1,3750.9,814.9,3749.9z"/>
	<path d="M808.6,3772.4c-2.3,0-4.1,0.8-5.6,2.3c-1.5,1.5-2.2,3.4-2.2,5.7v53.7c0,2.3,0.7,4.1,2.2,5.7c1.5,1.5,3.3,2.3,5.6,2.3
		c2.3,0,4.1-0.8,5.6-2.3c1.5-1.5,2.2-3.4,2.2-5.7v-53.7c0-2.3-0.7-4.1-2.2-5.7C812.7,3773.2,810.8,3772.4,808.6,3772.4z"/>
	<path d="M881,3824c-1.1,0-2.1,0.2-2.9,0.5c-0.8,0.3-1.6,0.8-2.5,1.5c-0.9,0.6-1.6,1.1-2.1,1.4c-2.1,1-5.2,1.6-9.5,1.6
		c-5.8,0-10.6-2.1-14.3-6.2c-3.7-4.1-5.6-9.3-5.6-15.5c0-6.5,1.8-11.8,5.5-15.8c3.7-4,8.8-6,15.3-6c1,0,2.4,0.2,4.1,0.5
		c1.7,0.3,3,0.7,3.8,1.2c0.8,0.4,1.6,1,2.4,1.6c0.8,0.7,1.7,1.2,2.5,1.6c0.9,0.4,2,0.6,3.4,0.6c1.8,0,3.3-0.7,4.4-2.1
		c1.1-1.4,1.7-3.1,1.7-5c0-3.8-2.3-6.9-6.8-9.2c-4.5-2.3-10.4-3.4-17.8-3.4c-6.6,0-12.5,1.5-17.7,4.6c-5.2,3.1-9.3,7.3-12.2,12.8
		c-2.9,5.5-4.4,11.7-4.4,18.7c0,6.8,1.4,12.9,4.2,18.4c2.8,5.5,6.7,9.8,11.8,12.9c5.1,3.1,10.9,4.7,17.6,4.7c4.5,0,8.8-0.5,12.7-1.6
		c4-1.1,7.2-2.5,9.6-4.4c2.4-1.8,3.6-3.8,3.6-5.8c0-2.2-0.6-3.9-1.9-5.3C884.9,3824.7,883.1,3824,881,3824z"/>
	<path d="M961.2,3773.3c-1.5-1.5-3.3-2.2-5.6-2.2c-2.3,0-4.1,0.8-5.6,2.3c-1.5,1.5-2.2,3.4-2.2,5.7v0.1c-2.5-2.3-5.6-4.3-9.2-5.8
		c-3.6-1.5-7.5-2.3-11.7-2.3c-5.8,0-11.1,1.5-15.9,4.6c-4.8,3.1-8.6,7.4-11.4,12.9c-2.8,5.5-4.2,11.7-4.2,18.7s1.4,13.1,4.2,18.6
		c2.8,5.5,6.7,9.7,11.5,12.8c4.9,3.1,10.3,4.6,16.2,4.6c4.1,0,8-0.9,11.6-2.7c3.7-1.8,6.6-3.9,8.8-6.4c0.1,2.3,0.8,4.1,2.3,5.6
		c1.4,1.5,3.3,2.2,5.5,2.2c2.3,0,4.1-0.8,5.6-2.3c1.5-1.5,2.2-3.4,2.2-5.7v-55C963.4,3776.7,962.7,3774.8,961.2,3773.3z
		 M943.1,3822.8c-3.6,4.1-8.1,6.2-13.8,6.2c-5.6,0-10.2-2.1-13.7-6.2c-3.5-4.1-5.3-9.3-5.3-15.5c0-6.2,1.8-11.4,5.3-15.6
		c3.6-4.2,8.1-6.2,13.7-6.2c5.6,0,10.2,2.1,13.8,6.2c3.6,4.2,5.3,9.4,5.3,15.6C948.4,3813.5,946.7,3818.7,943.1,3822.8z"/>
</g>
<g>
	<text transform="matrix(1 0 0 1 582.8889 1692.9059)" class="st3 st4">boxcolor</text>
	<text transform="matrix(1 0 0 1 513.9328 538.6641)" class="st3 st4">namecolor</text>
	<text transform="matrix(1 0 0 1 570.6567 287.1868)" class="st5 st6 st7">name</text>
</g>
<g>
	<path d="M456.9,2819.9c-4.6-2.6-9.8-4-15.5-4c-2.3,0-4.6,0.3-7.1,0.9c-2.5,0.6-4.6,1.4-6.2,2.3l2.5-18.9h32.2c2.1,0,3.8-0.7,5.2-2
		c1.4-1.3,2.1-3,2.1-5c0-2.1-0.7-3.8-2.1-5.2c-1.4-1.4-3.1-2.1-5.2-2.1h-37.6c-2,0-3.7,0.6-5.1,1.8c-1.4,1.2-2.3,2.7-2.7,4.5
		l-4,32.2c-0.1,0.3-0.1,1-0.1,1.8c0,2.5,0.7,4.7,2.1,6.5c1.4,1.8,3.8,2.7,7.2,2.7c1,0,1.9-0.2,2.8-0.5c0.9-0.3,2.1-0.9,3.7-1.7
		c2.2-1,4-1.8,5.6-2.3c1.6-0.5,3.3-0.8,5.3-0.8c4.4,0,8.2,1.5,11.4,4.4c3.2,2.9,4.8,6.8,4.8,11.4c0,3.2-0.9,6.2-2.8,9
		c-1.9,2.8-4.4,5-7.5,6.6c-3.1,1.6-6.5,2.5-10,2.5c-2.8,0-6-1.1-9.6-3.4c-2.3-1.6-4.3-2.5-5.9-2.5c-2.2,0-3.9,0.6-5.3,1.9
		c-1.3,1.3-2,2.7-2,4.2c0,1.4,0.3,2.9,1,4.4c0.7,1.6,1.6,2.8,2.6,3.6c2.3,1.8,5.2,3.2,8.8,4.3c3.6,1,7.1,1.6,10.5,1.6
		c6.3,0,12.2-1.5,17.7-4.4c5.5-2.9,9.8-6.8,13.1-11.8c3.3-4.9,4.9-10.3,4.9-16.1c0-5.6-1.3-10.7-4-15.3
		C465.2,2826.1,461.6,2822.5,456.9,2819.9z"/>
	<path d="M569.6,2806.1c-5.1,0-9.7,1.5-13.7,4.4c-4,2.9-7,6.2-9,9.9c-3-9.5-10-14.3-20.9-14.3c-4.4,0-8.4,1.1-12,3.3
		c-3.6,2.2-6.6,4.9-8.9,8v-2.1c0-2.3-0.7-4.1-2.2-5.7c-1.5-1.5-3.3-2.3-5.6-2.3c-2.3,0-4.1,0.8-5.6,2.3c-1.5,1.5-2.2,3.4-2.2,5.7
		v53.7c0,2.3,0.7,4.1,2.2,5.7c1.5,1.5,3.3,2.3,5.6,2.3c2.3,0,4.1-0.8,5.6-2.3c1.5-1.5,2.2-3.4,2.2-5.7v-33.3c0-4.4,1.4-8.1,4.1-11
		c2.7-2.9,6.5-4.4,11.4-4.4c4.7,0,8,1.4,9.8,4.1c1.9,2.7,2.8,6.5,2.8,11.2v33.3c0,2.3,0.7,4.1,2.2,5.7c1.5,1.5,3.3,2.3,5.6,2.3
		c2.3,0,4.1-0.8,5.6-2.3c1.5-1.5,2.2-3.4,2.2-5.7v-33.3c0-4.4,1.4-8.1,4.1-11c2.7-2.9,6.5-4.4,11.4-4.4c4.7,0,8,1.4,9.8,4.1
		c1.9,2.7,2.8,6.5,2.8,11.2v33.3c0,2.3,0.7,4.1,2.2,5.7c1.5,1.5,3.3,2.3,5.6,2.3c2.3,0,4.1-0.8,5.6-2.3c1.5-1.5,2.2-3.4,2.2-5.7
		v-33.3c0-9.3-1.6-16.5-4.9-21.8C584.1,2808.8,578.1,2806.1,569.6,2806.1z"/>
	<path d="M689.4,2806.1c-5.1,0-9.7,1.5-13.7,4.4c-4,2.9-7,6.2-9,9.9c-3-9.5-10-14.3-20.9-14.3c-4.4,0-8.4,1.1-12,3.3
		c-3.6,2.2-6.6,4.9-8.9,8v-2.1c0-2.3-0.7-4.1-2.2-5.7c-1.5-1.5-3.3-2.3-5.6-2.3c-2.3,0-4.1,0.8-5.6,2.3c-1.5,1.5-2.2,3.4-2.2,5.7
		v53.7c0,2.3,0.7,4.1,2.2,5.7c1.5,1.5,3.3,2.3,5.6,2.3c2.3,0,4.1-0.8,5.6-2.3c1.5-1.5,2.2-3.4,2.2-5.7v-33.3c0-4.4,1.4-8.1,4.1-11
		c2.7-2.9,6.5-4.4,11.4-4.4c4.7,0,8,1.4,9.8,4.1c1.9,2.7,2.8,6.5,2.8,11.2v33.3c0,2.3,0.7,4.1,2.2,5.7c1.5,1.5,3.3,2.3,5.6,2.3
		c2.3,0,4.1-0.8,5.6-2.3c1.5-1.5,2.2-3.4,2.2-5.7v-33.3c0-4.4,1.4-8.1,4.1-11c2.7-2.9,6.5-4.4,11.4-4.4c4.7,0,8,1.4,9.8,4.1
		c1.9,2.7,2.8,6.5,2.8,11.2v33.3c0,2.3,0.7,4.1,2.2,5.7c1.5,1.5,3.3,2.3,5.6,2.3c2.3,0,4.1-0.8,5.6-2.3c1.5-1.5,2.2-3.4,2.2-5.7
		v-33.3c0-9.3-1.6-16.5-4.9-21.8C703.9,2808.8,698,2806.1,689.4,2806.1z"/>
	<path d="M794.1,2829.4h-22.6c-2.3,0-4.1,0.7-5.7,2.2c-1.5,1.5-2.3,3.3-2.3,5.5c0,2.3,0.8,4.1,2.3,5.6c1.5,1.5,3.4,2.2,5.7,2.2h22.6
		c2.3,0,4.1-0.7,5.7-2.1c1.5-1.4,2.3-3.2,2.3-5.4c0-2.3-0.8-4.1-2.3-5.7C798.2,2830.2,796.3,2829.4,794.1,2829.4z"/>
	<path d="M888.4,2838.6l19.6-18.1c2.1-1.8,3.1-3.8,3.1-5.8c0-1.6-0.8-3.3-2.3-4.9c-1.5-1.6-3.2-2.4-5.1-2.4c-2.2,0-4.1,0.8-5.7,2.5
		l-27.8,26.9v-48.1c0-2.3-0.7-4.1-2.2-5.7c-1.5-1.5-3.3-2.3-5.6-2.3c-2.3,0-4.1,0.8-5.6,2.3c-1.5,1.5-2.2,3.4-2.2,5.7v80.3
		c0,2.3,0.7,4.1,2.2,5.7c1.5,1.5,3.3,2.3,5.6,2.3c2.3,0,4.1-0.8,5.6-2.3c1.5-1.5,2.2-3.4,2.2-5.7v-13.7l6.4-5.8l23.4,24.7
		c1.6,1.7,3.5,2.6,5.7,2.6c1.9,0,3.7-0.7,5.4-2.2c1.7-1.5,2.5-3.3,2.5-5.5c0-2.2-0.8-4.1-2.5-5.8L888.4,2838.6z"/>
	<path d="M973.8,2810.8c-5.4-3.1-11.4-4.6-17.9-4.6c-6.6,0-12.6,1.5-17.9,4.6c-5.4,3.1-9.6,7.4-12.7,12.9
		c-3.1,5.5-4.7,11.7-4.7,18.7c0,6.9,1.6,13.2,4.7,18.7c3.1,5.5,7.4,9.8,12.7,12.8c5.4,3,11.4,4.5,17.9,4.5c6.5,0,12.5-1.5,17.9-4.5
		c5.4-3,9.7-7.3,12.8-12.8c3.1-5.5,4.7-11.7,4.7-18.7c0-6.9-1.6-13.2-4.7-18.7C983.5,2818.1,979.2,2813.8,973.8,2810.8z M973,2853.6
		c-1.8,3.3-4.2,5.8-7.1,7.7c-3,1.8-6.3,2.7-9.9,2.7c-3.6,0-7-0.9-9.9-2.7c-3-1.8-5.4-4.4-7.1-7.7c-1.8-3.3-2.7-7.1-2.7-11.3
		c0-4.2,0.9-8,2.7-11.4c1.8-3.3,4.2-5.9,7.1-7.7c3-1.8,6.3-2.7,9.9-2.7c3.6,0,7,0.9,9.9,2.7c3,1.8,5.4,4.4,7.1,7.7
		c1.8,3.3,2.7,7.1,2.7,11.4C975.7,2846.5,974.8,2850.3,973,2853.6z"/>
	<path d="M1079.2,2839.8c-3.1-1.4-7-2.7-11.7-4c-3.4-1-6-1.8-7.9-2.4c-1.9-0.6-3.4-1.6-4.6-2.7c-1.2-1.2-1.8-2.7-1.8-4.6
		c0-4.8,3.3-7.1,9.9-7.1c3.1,0,5.9,0.6,8.4,1.7c2.5,1.1,4.5,2.6,6,4.5c1.2,1.2,2.8,1.8,4.7,1.8c1.6,0,2.9-0.5,4.2-1.4
		c1.6-1.3,2.5-2.9,2.5-4.9c0-1.7-0.6-3.3-1.7-4.7c-2.5-3.2-6-5.6-10.4-7.3c-4.4-1.6-8.8-2.5-13.3-2.5c-4.3,0-8.4,0.8-12.3,2.5
		c-3.9,1.7-7,4.1-9.4,7.1c-2.4,3.1-3.6,6.7-3.6,10.9c0,4.8,1.1,8.6,3.4,11.4c2.3,2.8,5,4.9,8.2,6.3c3.2,1.4,7.3,2.8,12.3,4.2
		c4.9,1.3,8.4,2.6,10.7,3.9c2.3,1.3,3.4,3.2,3.4,5.7c0,4.9-3.4,7.4-10.1,7.7c-4,0-7.4-0.7-10.2-2c-2.8-1.3-5.5-3.3-8.1-6
		c-1.6-1.6-3.4-2.5-5.2-2.5c-1.3,0-2.6,0.4-3.8,1.2c-2.3,1.6-3.4,3.5-3.4,5.7c0,1.6,0.4,2.9,1.2,3.9c3.1,4.2,7.2,7.3,12.1,9.2
		c4.9,1.9,10.3,2.9,16,2.9c4.2,0,8.2-0.8,12.2-2.5c3.9-1.6,7.2-4,9.7-7.2c2.5-3.2,3.8-6.9,3.8-11.1c0-4.7-1.1-8.5-3.2-11.3
		C1084.9,2843.3,1082.3,2841.2,1079.2,2839.8z"/>
	<path d="M1167.9,2810c1.6-3.1,2.3-6.5,2.3-10.2c0-1.7-0.5-3.3-1.6-4.7s-2.6-2.1-4.8-2.1c-2.1,0-3.7,0.7-4.9,2.1s-1.8,3-1.8,4.7
		c0,2.7-1,4.7-2.9,6c-1.9,1.3-4.7,2-8.1,2v0.1c-3.8-1.2-7.6-1.8-11.4-1.8c-6.6,0-12.6,1.5-17.9,4.6c-5.4,3.1-9.6,7.4-12.7,12.9
		c-3.1,5.5-4.7,11.7-4.7,18.7c0,6.9,1.6,13.2,4.7,18.7c3.1,5.5,7.4,9.8,12.7,12.8c5.4,3,11.4,4.5,17.9,4.5c6.5,0,12.5-1.5,17.9-4.5
		c5.4-3,9.7-7.3,12.8-12.8c3.1-5.5,4.7-11.7,4.7-18.7c0-4.9-0.8-9.4-2.4-13.6c-1.6-4.2-3.9-8-6.8-11.3
		C1164,2815.5,1166.4,2813.1,1167.9,2810z M1151.9,2853.6c-1.8,3.3-4.2,5.8-7.1,7.7c-3,1.8-6.3,2.7-9.9,2.7c-3.6,0-7-0.9-9.9-2.7
		c-3-1.8-5.4-4.4-7.1-7.7c-1.8-3.3-2.7-7.1-2.7-11.3c0-4.2,0.9-8,2.7-11.4c1.8-3.3,4.2-5.9,7.1-7.7c3-1.8,6.3-2.7,9.9-2.7
		c3.6,0,7,0.9,9.9,2.7c3,1.8,5.4,4.4,7.1,7.7c1.8,3.3,2.7,7.1,2.7,11.4C1154.6,2846.5,1153.7,2850.3,1151.9,2853.6z"/>
	<path d="M1238.7,2814c-3.4-5.2-9.5-7.9-18.3-7.9c-4.5,0-8.6,1.1-12.4,3.4c-3.8,2.3-6.8,4.9-9.2,8.1v-2.2c0-2.3-0.7-4.1-2.2-5.7
		c-1.5-1.5-3.3-2.3-5.6-2.3c-2.3,0-4.1,0.8-5.6,2.3c-1.5,1.5-2.2,3.4-2.2,5.7v53.7c0,2.3,0.7,4.1,2.2,5.7c1.5,1.5,3.3,2.3,5.6,2.3
		c2.3,0,4.1-0.8,5.6-2.3c1.5-1.5,2.2-3.4,2.2-5.7v-33.3c0-4.4,1.4-8.1,4.3-11c2.9-2.9,6.8-4.4,11.8-4.4c4.9,0,8.3,1.4,10.3,4.1
		c2,2.7,3,6.5,3,11.2v33.3c0,2.3,0.7,4.1,2.2,5.7c1.5,1.5,3.3,2.3,5.6,2.3c2.3,0,4.1-0.8,5.6-2.3c1.5-1.5,2.2-3.4,2.2-5.7v-33.3
		C1243.7,2826.5,1242,2819.3,1238.7,2814z"/>
</g>
<path class="st1" d="M953.7,976v135.3h55.9V1289c0,14-3.2,25.7-9.6,35.8c-6.6,10.2-13.5,11.6-18.7,11.6c-11.8,0-14.6-4.8-16.4-9.3
	c-3-7.6-6.6-23.5-6.6-55.9v-16.2H841.9V1480h54.5l51.5-0.7l6.2-23.8c6.2,4.6,13,8.8,20.3,12.4c12.5,6.2,26.4,10,41.6,11.4h31.4
	c41.1-3.2,74.8-18,100.1-44.1c28.7-29.6,43.2-69.4,43.2-118.3v-205.6h46.4V976L953.7,976L953.7,976z"/>
<path class="st8" d="M1252.1,812.6H826.9v141.7h425.2V812.6z"/>
<rect x="914.8" y="876.6" width="249.4" height="14.2"/>
</svg>
