<?xml version="1.0" encoding="utf-8"?>
<!-- Generator: Adobe Illustrator 27.9.0, SVG Export Plug-In . SVG Version: 6.00 Build 0)  -->
<svg version="1.1" id="Layer_1" xmlns="http://www.w3.org/2000/svg" xmlns:xlink="http://www.w3.org/1999/xlink" x="0px" y="0px"
	 viewBox="0 0 1567.251 4177.516" style="enable-background:new 0 0 1567.251 4177.516;" xml:space="preserve">
<style type="text/css">
	.st0{fill:#E2D6C7;}
	.st1{stroke:#FF0000;stroke-width:0.25;stroke-miterlimit:10;}
	.st2{fill:#F4A5AC;}
	.st3{fill:#FFFFFF;}
	.st4{font-family:'#9Slide03QuicksandBold-Bold';}
	.st5{font-size:130px;}
	.st6{font-family:'WildSageRegular';}
	.st7{font-size:328.7417px;}
	.st8{fill:none;stroke:#FFFFFF;stroke-width:5;stroke-linecap:round;stroke-linejoin:round;stroke-miterlimit:10;}
</style>
<g>
	<path class="st0" d="M828.424,2593.988v198.425h542.219v-198.425H828.424z"/>
	<path class="st1" d="M1366.52,2777.956c-0.18-0.192-0.414-0.288-0.701-0.288c-0.288,0-0.525,0.096-0.712,0.288
		c-0.186,0.191-0.278,0.432-0.278,0.72v7.74l-6.552-8.353c-0.085-0.119-0.214-0.216-0.388-0.288
		c-0.174-0.071-0.351-0.107-0.53-0.107c-0.312,0-0.573,0.105-0.783,0.314c-0.21,0.211-0.315,0.472-0.315,0.783v10.494
		c0,0.288,0.09,0.528,0.271,0.72c0.18,0.192,0.414,0.288,0.701,0.288c0.3,0,0.543-0.096,0.729-0.288
		c0.186-0.191,0.279-0.432,0.279-0.72v-7.686l6.605,8.388c0.072,0.096,0.189,0.171,0.352,0.225c0.162,0.055,0.326,0.081,0.495,0.081
		c0.312,0,0.572-0.104,0.782-0.314s0.315-0.471,0.315-0.783v-10.494C1366.791,2778.387,1366.701,2778.147,1366.52,2777.956z"/>
</g>
<g>
	<rect x="875.419" y="2686.256" width="152.39" height="13.89"/>
	<rect x="1170.719" y="2686.256" width="152.93" height="13.89"/>
</g>
<g>
	<path class="st2" d="M602.57,1002.35v111.43h50.53V1301l-157.42-299.29H263.11v111.42H313v279.21h-51.18v113.36h201.47v-113.36
		h-50.53v-164.55L562.4,1505.7h191.76v-391.92h49.88v-111.43L602.57,1002.35L602.57,1002.35z M785.08,1094.82H735.2v391.93H573.73
		L429.45,1218.8l-26.1-28.26l-9.55,37.25v183.51h50.53v75.45H280.78v-75.45h51.18v-317.13h-49.89v-73.5h202.16l152.09,289.15
		l24.82,24.45l10.92-33.27v-206.18h-50.53v-73.51h163.55V1094.82z"/>
</g>
<g>
	<path class="st3" d="M512.515,3842.487v-113.368h51.178v-279.208h-49.882v-111.424h232.565l157.419,299.29v-187.218h-50.529
		v-111.424h201.47v111.424h-49.881v391.927H813.101l-149.645-277.912v164.544h50.53v113.368L512.515,3842.487L512.515,3842.487z"/>
</g>
<g>
	<g>
		<polygon class="st0" points="778.742,2084.624 778.742,2103.584 803.617,2103.584 803.617,2177.088 753.736,2177.088 
			753.736,2569.015 592.267,2569.015 447.991,2301.074 421.891,2272.813 412.338,2310.063 412.338,2493.568 462.867,2493.568 
			462.867,2569.015 299.317,2569.015 299.317,2493.568 350.494,2493.568 350.494,2176.44 300.613,2176.44 300.613,2102.937 
			346.614,2102.937 346.614,2083.977 281.652,2083.977 281.652,2195.4 331.534,2195.4 331.534,2474.607 280.357,2474.607 
			280.357,2587.975 481.828,2587.975 481.828,2474.607 431.298,2474.607 431.298,2310.063 580.942,2587.975 772.696,2587.975 
			772.696,2196.048 822.577,2196.048 822.577,2084.624 		"/>
		<polygon class="st0" points="514.218,2083.977 458.386,2083.977 458.386,2102.937 502.768,2102.937 654.856,2392.092 
			679.68,2416.536 690.597,2383.266 690.597,2177.088 640.068,2177.088 640.068,2103.584 666.97,2103.584 666.97,2084.624 
			621.107,2084.624 621.107,2196.048 671.637,2196.048 671.637,2383.266 		"/>
	</g>
	<g>
		<polygon class="st0" points="1326.808,2084.624 1326.808,2103.584 1351.683,2103.584 1351.683,2177.088 1301.802,2177.088 
			1301.802,2569.015 1140.334,2569.015 996.058,2301.074 969.958,2272.813 960.404,2310.063 960.404,2493.568 1010.934,2493.568 
			1010.934,2569.015 847.384,2569.015 847.384,2493.568 898.561,2493.568 898.561,2176.44 848.679,2176.44 848.679,2102.937 
			894.681,2102.937 894.681,2083.977 829.719,2083.977 829.719,2195.4 879.601,2195.4 879.601,2474.607 828.424,2474.607 
			828.424,2587.975 1029.894,2587.975 1029.894,2474.607 979.364,2474.607 979.364,2310.063 1129.01,2587.975 1320.763,2587.975 
			1320.763,2196.048 1370.644,2196.048 1370.644,2084.624 		"/>
		<polygon class="st0" points="1062.285,2083.977 1006.453,2083.977 1006.453,2102.937 1050.834,2102.937 1202.923,2392.092 
			1227.746,2416.536 1238.663,2383.266 1238.663,2177.088 1188.134,2177.088 1188.134,2103.584 1215.037,2103.584 
			1215.037,2084.624 1169.174,2084.624 1169.174,2196.048 1219.703,2196.048 1219.703,2383.266 		"/>
	</g>
</g>
<g>
	<rect x="1128.65" y="1505.179" width="152" height="15.599"/>
	<rect x="833.07" y="1505.179" width="152" height="15.599"/>
</g>
<polygon class="st2" points="1350.92,1002.361 1350.92,1113.781 1301.04,1113.781 1301.04,1505.711 1109.29,1505.711 
	959.64,1227.801 959.64,1392.341 1010.17,1392.341 1010.17,1505.711 808.7,1505.711 808.7,1392.341 859.88,1392.341 
	859.88,1113.131 810,1113.131 810,1001.711 1042.56,1001.711 1199.98,1301.001 1199.98,1113.781 1149.45,1113.781 1149.45,1002.361 
	"/>
<g>
	<path d="M723.046,3965.355c-5.115,0-9.685,1.475-13.715,4.42c-4.03,2.947-7.042,6.24-9.035,9.881
		c-3.035-9.533-10.01-14.301-20.93-14.301c-4.42,0-8.43,1.105-12.025,3.314c-3.598,2.211-6.565,4.875-8.905,7.996v-2.08
		c0-2.253-0.737-4.139-2.21-5.655c-1.475-1.516-3.337-2.274-5.59-2.274c-2.255,0-4.117,0.759-5.59,2.274
		c-1.475,1.517-2.21,3.402-2.21,5.655v53.689c0,2.255,0.735,4.14,2.21,5.655c1.473,1.517,3.335,2.274,5.59,2.274
		c2.252,0,4.115-0.758,5.59-2.274c1.473-1.516,2.21-3.4,2.21-5.655v-33.279c0-4.42,1.365-8.081,4.095-10.985
		c2.73-2.903,6.521-4.354,11.375-4.354c4.68,0,7.95,1.364,9.815,4.094c1.863,2.73,2.795,6.48,2.795,11.246v33.279
		c0,2.255,0.735,4.14,2.21,5.655c1.473,1.517,3.335,2.274,5.59,2.274c2.252,0,4.115-0.758,5.59-2.274
		c1.473-1.516,2.21-3.4,2.21-5.655v-33.279c0-4.42,1.365-8.081,4.095-10.985c2.73-2.903,6.52-4.354,11.375-4.354
		c4.68,0,7.95,1.364,9.815,4.094c1.862,2.73,2.795,6.48,2.795,11.246v33.279c0,2.255,0.735,4.14,2.21,5.655
		c1.473,1.517,3.335,2.274,5.59,2.274c2.253,0,4.115-0.758,5.59-2.274c1.473-1.516,2.21-3.4,2.21-5.655v-33.279
		c0-9.273-1.647-16.531-4.94-21.775C737.561,3967.978,731.626,3965.355,723.046,3965.355z"/>
	<path d="M775.955,3944.165c-1.215-0.953-3.338-1.431-6.37-1.431c-2.86,0-4.94,0.478-6.24,1.431c-1.3,0.954-1.95,2.645-1.95,5.069
		v2.47c0,2.428,0.605,4.117,1.82,5.07c1.212,0.955,3.292,1.43,6.24,1.43c3.032,0,5.178-0.455,6.435-1.365
		c1.256-0.909,1.885-2.619,1.885-5.135v-2.47C777.774,3946.81,777.168,3945.119,775.955,3944.165z"/>
	<path d="M769.585,3966.656c-2.255,0-4.117,0.759-5.59,2.274c-1.475,1.517-2.21,3.402-2.21,5.655v53.689
		c0,2.255,0.735,4.14,2.21,5.655c1.473,1.517,3.335,2.274,5.59,2.274c2.253,0,4.115-0.758,5.59-2.274
		c1.473-1.516,2.21-3.4,2.21-5.655v-53.689c0-2.253-0.737-4.139-2.21-5.655C773.7,3967.414,771.838,3966.656,769.585,3966.656z"/>
	<path d="M841.994,4018.265c-1.127,0-2.08,0.175-2.86,0.52c-0.779,0.348-1.625,0.846-2.535,1.496
		c-0.909,0.649-1.625,1.104-2.145,1.364c-2.08,1.04-5.245,1.56-9.49,1.56c-5.808,0-10.574-2.057-14.3-6.174
		c-3.728-4.116-5.59-9.296-5.59-15.535c0-6.5,1.84-11.766,5.524-15.795c3.683-4.031,8.775-6.045,15.275-6.045
		c1.04,0,2.405,0.174,4.095,0.52c1.69,0.348,2.968,0.737,3.835,1.17c0.78,0.435,1.581,0.975,2.405,1.625
		c0.822,0.65,1.668,1.17,2.535,1.561c0.865,0.389,1.992,0.584,3.38,0.584c1.82,0,3.293-0.715,4.42-2.145
		c1.125-1.43,1.69-3.098,1.69-5.006c0-3.812-2.255-6.867-6.761-9.164c-4.507-2.295-10.444-3.445-17.81-3.445
		c-6.587,0-12.48,1.539-17.68,4.615c-5.2,3.077-9.253,7.345-12.155,12.805c-2.904,5.46-4.355,11.7-4.355,18.721
		c0,6.76,1.386,12.892,4.16,18.395c2.772,5.504,6.695,9.814,11.766,12.936c5.069,3.119,10.94,4.68,17.614,4.68
		c4.506,0,8.753-0.543,12.74-1.625c3.985-1.083,7.192-2.535,9.62-4.355c2.426-1.82,3.64-3.77,3.64-5.85
		c0-2.166-0.629-3.943-1.885-5.33C845.872,4018.96,844.159,4018.265,841.994,4018.265z"/>
	<path d="M922.204,3967.565c-1.475-1.473-3.338-2.21-5.59-2.21c-2.254,0-4.117,0.76-5.59,2.275c-1.475,1.518-2.21,3.402-2.21,5.654
		v0.131c-2.515-2.34-5.59-4.268-9.23-5.785c-3.64-1.516-7.54-2.275-11.7-2.275c-5.807,0-11.114,1.539-15.925,4.615
		c-4.81,3.077-8.603,7.367-11.375,12.869c-2.774,5.506-4.16,11.723-4.16,18.656s1.408,13.129,4.226,18.59
		c2.815,5.459,6.65,9.729,11.505,12.805c4.853,3.077,10.27,4.615,16.25,4.615c4.072,0,7.95-0.891,11.635-2.666
		c3.683-1.774,6.607-3.92,8.775-6.434c0.085,2.254,0.845,4.117,2.274,5.59c1.43,1.475,3.271,2.209,5.525,2.209
		c2.252,0,4.115-0.758,5.59-2.274c1.473-1.516,2.211-3.4,2.211-5.655v-54.99C924.415,3970.945,923.677,3969.039,922.204,3967.565z
		 M904.134,4017.031c-3.555,4.117-8.146,6.174-13.779,6.174c-5.635,0-10.205-2.057-13.715-6.174
		c-3.511-4.116-5.266-9.296-5.266-15.535c0-6.24,1.775-11.44,5.33-15.601c3.553-4.16,8.103-6.239,13.65-6.239
		c5.633,0,10.225,2.079,13.779,6.239c3.553,4.16,5.33,9.36,5.33,15.601C909.464,4007.735,907.687,4012.914,904.134,4017.031z"/>
</g>
<g>
	<text transform="matrix(1 0 0 1 543.3385 1685.5599)" class="st4 st5">boxcolor</text>
	<text transform="matrix(1 0 0 1 474.3825 531.3181)" class="st4 st5">namecolor</text>
	<text transform="matrix(1 0 0 1 531.106 279.8408)" class="st3 st6 st7">name</text>
	<text transform="matrix(1 0 0 1 531.106 279.8408)" class="st8 st6 st7">name</text>
</g>
<g>
	<path d="M390.468,2901.118c-4.638-2.643-9.815-3.965-15.535-3.965c-2.255,0-4.637,0.305-7.15,0.91
		c-2.515,0.607-4.595,1.387-6.24,2.34l2.47-18.851h32.24c2.08,0,3.813-0.67,5.2-2.015c1.385-1.343,2.08-3.01,2.08-5.005
		c0-2.08-0.695-3.812-2.08-5.2c-1.387-1.385-3.12-2.08-5.2-2.08h-37.57c-1.995,0-3.705,0.585-5.135,1.755
		c-1.43,1.17-2.32,2.665-2.665,4.485l-4.03,32.24c-0.087,0.347-0.13,0.954-0.13,1.819c0,2.515,0.715,4.681,2.145,6.5
		c1.43,1.82,3.835,2.73,7.215,2.73c0.953,0,1.885-0.173,2.795-0.521c0.91-0.345,2.145-0.909,3.705-1.689
		c2.166-1.04,4.03-1.82,5.59-2.34c1.56-0.521,3.335-0.78,5.33-0.78c4.42,0,8.233,1.475,11.44,4.42c3.206,2.947,4.81,6.76,4.81,11.44
		c0,3.207-0.932,6.197-2.795,8.97c-1.865,2.774-4.355,4.984-7.475,6.63c-3.12,1.647-6.457,2.47-10.01,2.47
		c-2.775,0-5.98-1.125-9.62-3.38c-2.34-1.646-4.29-2.47-5.85-2.47c-2.167,0-3.922,0.63-5.265,1.885
		c-1.345,1.258-2.015,2.665-2.015,4.226c0,1.387,0.345,2.859,1.04,4.42c0.692,1.56,1.56,2.774,2.6,3.64
		c2.252,1.82,5.177,3.25,8.775,4.29c3.595,1.04,7.085,1.56,10.465,1.56c6.325,0,12.22-1.45,17.68-4.354
		c5.46-2.902,9.835-6.825,13.13-11.765c3.292-4.94,4.94-10.313,4.94-16.12c0-5.633-1.322-10.746-3.965-15.34
		C398.743,2907.381,395.103,2903.763,390.468,2901.118z"/>
	<path d="M503.112,2887.403c-5.115,0-9.685,1.475-13.715,4.42c-4.03,2.947-7.042,6.24-9.035,9.88
		c-3.035-9.532-10.01-14.3-20.93-14.3c-4.42,0-8.43,1.104-12.025,3.314c-3.598,2.21-6.565,4.875-8.905,7.995v-2.08
		c0-2.252-0.737-4.138-2.21-5.654c-1.475-1.516-3.337-2.275-5.59-2.275c-2.255,0-4.117,0.76-5.59,2.275
		c-1.475,1.517-2.21,3.402-2.21,5.654v53.69c0,2.255,0.735,4.14,2.21,5.655c1.473,1.517,3.335,2.274,5.59,2.274
		c2.252,0,4.115-0.758,5.59-2.274c1.473-1.516,2.21-3.4,2.21-5.655v-33.28c0-4.42,1.365-8.08,4.095-10.984
		c2.73-2.903,6.521-4.355,11.375-4.355c4.68,0,7.95,1.365,9.815,4.095c1.863,2.73,2.795,6.48,2.795,11.245v33.28
		c0,2.255,0.735,4.14,2.21,5.655c1.473,1.517,3.335,2.274,5.59,2.274c2.252,0,4.115-0.758,5.59-2.274
		c1.473-1.516,2.21-3.4,2.21-5.655v-33.28c0-4.42,1.365-8.08,4.095-10.984c2.73-2.903,6.52-4.355,11.375-4.355
		c4.68,0,7.95,1.365,9.815,4.095c1.862,2.73,2.795,6.48,2.795,11.245v33.28c0,2.255,0.735,4.14,2.21,5.655
		c1.473,1.517,3.335,2.274,5.59,2.274c2.253,0,4.115-0.758,5.59-2.274c1.473-1.516,2.21-3.4,2.21-5.655v-33.28
		c0-9.272-1.647-16.53-4.94-21.774C517.628,2890.025,511.693,2887.403,503.112,2887.403z"/>
	<path d="M622.972,2887.403c-5.115,0-9.686,1.475-13.715,4.42c-4.03,2.947-7.042,6.24-9.035,9.88
		c-3.035-9.532-10.01-14.3-20.93-14.3c-4.42,0-8.43,1.104-12.025,3.314c-3.598,2.21-6.565,4.875-8.905,7.995v-2.08
		c0-2.252-0.737-4.138-2.21-5.654c-1.475-1.516-3.337-2.275-5.59-2.275c-2.255,0-4.117,0.76-5.59,2.275
		c-1.475,1.517-2.21,3.402-2.21,5.654v53.69c0,2.255,0.735,4.14,2.21,5.655c1.473,1.517,3.335,2.274,5.59,2.274
		c2.252,0,4.115-0.758,5.59-2.274c1.473-1.516,2.21-3.4,2.21-5.655v-33.28c0-4.42,1.365-8.08,4.095-10.984
		c2.73-2.903,6.521-4.355,11.375-4.355c4.68,0,7.95,1.365,9.815,4.095c1.863,2.73,2.795,6.48,2.795,11.245v33.28
		c0,2.255,0.735,4.14,2.21,5.655c1.473,1.517,3.335,2.274,5.59,2.274c2.252,0,4.115-0.758,5.59-2.274
		c1.473-1.516,2.21-3.4,2.21-5.655v-33.28c0-4.42,1.365-8.08,4.095-10.984c2.73-2.903,6.52-4.355,11.375-4.355
		c4.68,0,7.95,1.365,9.814,4.095c1.863,2.73,2.795,6.48,2.795,11.245v33.28c0,2.255,0.735,4.14,2.21,5.655
		c1.473,1.517,3.336,2.274,5.591,2.274c2.252,0,4.115-0.758,5.59-2.274c1.473-1.516,2.21-3.4,2.21-5.655v-33.28
		c0-9.272-1.647-16.53-4.94-21.774C637.487,2890.025,631.552,2887.403,622.972,2887.403z"/>
	<path d="M727.621,2910.673h-22.62c-2.254,0-4.14,0.737-5.654,2.21c-1.518,1.475-2.275,3.295-2.275,5.46
		c0,2.255,0.758,4.118,2.275,5.591c1.515,1.475,3.4,2.21,5.654,2.21h22.62c2.253,0,4.138-0.716,5.655-2.146
		c1.516-1.43,2.275-3.228,2.275-5.395c0-2.253-0.76-4.138-2.275-5.655C731.759,2911.433,729.874,2910.673,727.621,2910.673z"/>
	<path d="M822,2919.903l19.63-18.07c2.08-1.82,3.12-3.77,3.12-5.85c0-1.646-0.76-3.271-2.274-4.875
		c-1.518-1.603-3.23-2.405-5.136-2.405c-2.167,0-4.074,0.825-5.72,2.47l-27.82,26.91v-48.1c0-2.253-0.737-4.138-2.21-5.655
		c-1.475-1.516-3.337-2.275-5.59-2.275c-2.255,0-4.117,0.76-5.59,2.275c-1.475,1.518-2.21,3.402-2.21,5.655v80.34
		c0,2.255,0.735,4.14,2.21,5.655c1.473,1.517,3.335,2.274,5.59,2.274c2.253,0,4.115-0.758,5.59-2.274
		c1.473-1.516,2.21-3.4,2.21-5.655v-13.65l6.37-5.85l23.4,24.7c1.56,1.734,3.465,2.6,5.72,2.6c1.905,0,3.705-0.735,5.396-2.21
		c1.689-1.473,2.534-3.293,2.534-5.46c0-2.165-0.824-4.115-2.47-5.85L822,2919.903z"/>
	<path d="M907.345,2892.019c-5.418-3.076-11.375-4.615-17.875-4.615c-6.588,0-12.567,1.539-17.94,4.615
		c-5.374,3.077-9.62,7.367-12.739,12.869c-3.12,5.505-4.681,11.723-4.681,18.655c0,6.935,1.561,13.152,4.681,18.655
		c3.119,5.505,7.365,9.772,12.739,12.805c5.373,3.035,11.353,4.55,17.94,4.55c6.5,0,12.457-1.515,17.875-4.55
		c5.415-3.032,9.685-7.3,12.805-12.805c3.12-5.503,4.68-11.721,4.68-18.655c0-6.933-1.56-13.15-4.68-18.655
		C917.029,2899.386,912.76,2895.096,907.345,2892.019z M906.565,2934.854c-1.777,3.294-4.16,5.85-7.149,7.67
		c-2.99,1.819-6.306,2.729-9.945,2.729c-3.641,0-6.955-0.91-9.945-2.729c-2.99-1.82-5.375-4.376-7.149-7.67
		c-1.777-3.293-2.665-7.063-2.665-11.311c0-4.245,0.888-8.037,2.665-11.375c1.774-3.335,4.159-5.915,7.149-7.734
		c2.99-1.82,6.305-2.73,9.945-2.73s6.955,0.91,9.945,2.73c2.989,1.819,5.372,4.399,7.149,7.734c1.775,3.338,2.665,7.13,2.665,11.375
		C909.23,2927.79,908.34,2931.561,906.565,2934.854z"/>
	<path d="M1012.709,2921.073c-3.12-1.386-7.02-2.73-11.699-4.03c-3.381-0.952-6.003-1.755-7.865-2.405
		c-1.865-0.649-3.402-1.56-4.615-2.729c-1.215-1.17-1.82-2.708-1.82-4.615c0-4.765,3.293-7.149,9.88-7.149
		c3.12,0,5.915,0.564,8.386,1.689c2.47,1.128,4.484,2.645,6.045,4.55c1.213,1.215,2.772,1.82,4.68,1.82
		c1.561,0,2.945-0.476,4.16-1.43c1.646-1.3,2.47-2.945,2.47-4.94c0-1.732-0.564-3.293-1.689-4.68c-2.515-3.205-5.98-5.633-10.4-7.28
		c-4.42-1.646-8.84-2.47-13.26-2.47c-4.335,0-8.43,0.845-12.285,2.535c-3.857,1.689-6.978,4.074-9.36,7.149
		c-2.385,3.077-3.574,6.695-3.574,10.855c0,4.768,1.147,8.56,3.444,11.375c2.296,2.817,5.025,4.92,8.19,6.305
		c3.162,1.388,7.258,2.774,12.285,4.16c4.853,1.3,8.428,2.6,10.725,3.9c2.295,1.3,3.445,3.207,3.445,5.72
		c0,4.854-3.38,7.41-10.141,7.67c-3.987,0-7.39-0.65-10.205-1.95c-2.817-1.3-5.524-3.293-8.125-5.979
		c-1.646-1.646-3.38-2.471-5.199-2.471c-1.301,0-2.558,0.391-3.771,1.17c-2.255,1.561-3.38,3.468-3.38,5.721
		c0,1.56,0.39,2.859,1.17,3.899c3.12,4.248,7.15,7.325,12.09,9.23s10.271,2.859,15.99,2.859c4.16,0,8.21-0.824,12.155-2.47
		c3.942-1.646,7.17-4.05,9.685-7.215c2.513-3.163,3.771-6.867,3.771-11.115c0-4.68-1.085-8.45-3.25-11.31
		C1018.472,2924.583,1015.829,2922.461,1012.709,2921.073z"/>
	<path d="M1101.498,2891.238c1.561-3.075,2.341-6.478,2.341-10.205c0-1.732-0.521-3.315-1.561-4.745s-2.645-2.145-4.81-2.145
		c-2.08,0-3.705,0.715-4.875,2.145s-1.755,3.013-1.755,4.745c0,2.688-0.976,4.702-2.926,6.045c-1.949,1.345-4.659,2.015-8.125,2.015
		v0.131c-3.814-1.213-7.627-1.82-11.439-1.82c-6.588,0-12.567,1.539-17.94,4.615c-5.374,3.077-9.62,7.367-12.739,12.869
		c-3.12,5.505-4.681,11.723-4.681,18.655c0,6.935,1.561,13.152,4.681,18.655c3.119,5.505,7.365,9.772,12.739,12.805
		c5.373,3.035,11.353,4.55,17.94,4.55c6.5,0,12.457-1.515,17.875-4.55c5.415-3.032,9.685-7.3,12.805-12.805
		c3.12-5.503,4.68-11.721,4.68-18.655c0-4.853-0.802-9.402-2.404-13.649c-1.604-4.246-3.88-8.016-6.825-11.311
		C1097.599,2896.763,1099.939,2894.315,1101.498,2891.238z M1085.443,2934.854c-1.777,3.294-4.16,5.85-7.149,7.67
		c-2.99,1.819-6.306,2.729-9.945,2.729c-3.641,0-6.955-0.91-9.945-2.729c-2.99-1.82-5.375-4.376-7.149-7.67
		c-1.777-3.293-2.665-7.063-2.665-11.311c0-4.245,0.888-8.037,2.665-11.375c1.774-3.335,4.159-5.915,7.149-7.734
		c2.99-1.82,6.305-2.73,9.945-2.73c3.64,0,6.955,0.91,9.945,2.73c2.989,1.819,5.372,4.399,7.149,7.734
		c1.775,3.338,2.665,7.13,2.665,11.375C1088.109,2927.79,1087.219,2931.561,1085.443,2934.854z"/>
	<path d="M1172.219,2895.269c-3.38-5.243-9.49-7.865-18.33-7.865c-4.507,0-8.645,1.127-12.415,3.38
		c-3.77,2.255-6.825,4.94-9.165,8.06v-2.21c0-2.252-0.737-4.138-2.21-5.654c-1.475-1.516-3.337-2.275-5.59-2.275
		c-2.255,0-4.117,0.76-5.59,2.275c-1.475,1.517-2.21,3.402-2.21,5.654v53.69c0,2.255,0.735,4.14,2.21,5.655
		c1.473,1.517,3.335,2.274,5.59,2.274c2.253,0,4.115-0.758,5.59-2.274c1.473-1.516,2.21-3.4,2.21-5.655v-33.28
		c0-4.42,1.431-8.08,4.29-10.984c2.86-2.903,6.803-4.355,11.83-4.355c4.853,0,8.275,1.365,10.271,4.095
		c1.992,2.73,2.989,6.48,2.989,11.245v33.28c0,2.255,0.735,4.14,2.21,5.655c1.473,1.517,3.336,2.274,5.591,2.274
		c2.252,0,4.115-0.758,5.59-2.274c1.473-1.516,2.21-3.4,2.21-5.655v-33.28C1177.289,2907.771,1175.599,2900.513,1172.219,2895.269z"
		/>
</g>
</svg>
