<?xml version="1.0" encoding="utf-8"?>
<!-- Generator: Adobe Illustrator 27.9.0, SVG Export Plug-In . SVG Version: 6.00 Build 0)  -->
<svg version="1.1" id="Layer_2_00000006691517688447880500000002000490976451674275_"
	 xmlns="http://www.w3.org/2000/svg" xmlns:xlink="http://www.w3.org/1999/xlink" x="0px" y="0px" viewBox="0 0 79.6 66.4"
	 enable-background="new 0 0 79.6 66.4" xml:space="preserve">
<g id="Layer_1-2">
	<path fill="#FFFFFF" stroke="#FFB600" stroke-width="0.25" stroke-miterlimit="10" d="M75.1,7.9c-0.4-0.5-8.7-9.8-20.5-7.3
		C47.5,2,41.8,7.2,39.8,13.9C37.9,7.2,32.2,2,25,0.5C13.2-1.9,4.9,7.4,4.5,7.9c-5.7,6.7-4.4,14.7-3.8,18.8
		C3,40.5,14.4,49.6,21.8,55.4c6.9,5.4,13.5,8.8,18,10.9c4.5-2.1,11.1-5.5,18-10.9c7.4-5.8,18.8-14.8,21.1-28.7
		C79.6,22.6,80.8,14.5,75.1,7.9L75.1,7.9z"/>
	<text transform="matrix(1 0 0 1 16.48 35.45)" font-family="'RollerSkates-Regular'" font-size="16.8px">Mrs.asd</text>
</g>
</svg>
