<?xml version="1.0" encoding="utf-8"?>
<!-- Generator: Adobe Illustrator 27.9.0, SVG Export Plug-In . SVG Version: 6.00 Build 0)  -->
<svg version="1.0" id="Layer_2_00000013877508306684044240000003704133962031367102_"
	 xmlns="http://www.w3.org/2000/svg" xmlns:xlink="http://www.w3.org/1999/xlink" x="0px" y="0px" viewBox="0 0 56.9 47.5"
	 style="enable-background:new 0 0 56.9 47.5;" xml:space="preserve">
<style type="text/css">
	.st0{fill:#FFFFFF;stroke:#FFB600;stroke-width:0.25;stroke-miterlimit:10;}
	.st1{font-family:'RollerSkates-Regular';}
	.st2{font-size:20.18px;}
</style>
<g id="Layer_1-2">
	<path class="st0" d="M53.7,5.7c-0.3-0.4-6.2-7-14.6-5.2c-5.1,1-9.2,4.8-10.6,9.6C27.1,5.2,23,1.5,17.9,0.4C9.4-1.3,3.6,5.3,3.3,5.7
		c-4.1,4.8-3.2,10.5-2.7,13.4c1.6,9.9,9.8,16.4,15.1,20.5c4.9,3.9,9.6,6.3,12.9,7.8c3.2-1.5,8-3.9,12.9-7.8
		c5.3-4.2,13.4-10.6,15-20.5C56.9,16.2,57.8,10.4,53.7,5.7L53.7,5.7z"/>
	<text transform="matrix(1 0 0 1 15.77 28.38)" class="st1 st2">asd</text>
</g>
</svg>
