<?xml version="1.0" encoding="utf-8"?>
<!-- Generator: Adobe Illustrator 27.9.0, SVG Export Plug-In . SVG Version: 6.00 Build 0)  -->
<svg version="1.1" id="Layer_2_00000170261320367243297360000014756184453546671034_"
	 xmlns="http://www.w3.org/2000/svg" xmlns:xlink="http://www.w3.org/1999/xlink" x="0px" y="0px" viewBox="0 0 38 15.5"
	 enable-background="new 0 0 38 15.5" xml:space="preserve">
<g id="Layer_1-2">
	<g>
		<path stroke="#00FF00" stroke-width="0.25" stroke-miterlimit="10" d="M7.1,3H1C0.7,3,0.5,3.1,0.4,3.2S0.1,3.6,0.1,3.8
			c0,0.2,0.1,0.4,0.2,0.6C0.5,4.5,0.7,4.6,1,4.6h2.2v7.2c0,0.2,0.1,0.4,0.2,0.6s0.4,0.2,0.6,0.2s0.5-0.1,0.7-0.2
			c0.2-0.2,0.3-0.4,0.3-0.6V4.6h2.2c0.2,0,0.4-0.1,0.6-0.2c0.2-0.1,0.2-0.3,0.2-0.6S7.8,3.4,7.7,3.2C7.5,3.1,7.3,3,7.1,3z"/>
		<path stroke="#00FF00" stroke-width="0.25" stroke-miterlimit="10" d="M12.2,5.2c-0.4,0-0.9,0.1-1.3,0.3S10.3,5.9,10,6.3V6.1
			c0-0.2-0.1-0.4-0.2-0.6C9.7,5.4,9.5,5.3,9.2,5.3S8.8,5.4,8.6,5.5C8.5,5.7,8.4,5.9,8.4,6.1v5.7c0,0.2,0.1,0.4,0.2,0.6
			c0.2,0.2,0.4,0.2,0.6,0.2s0.4-0.1,0.6-0.2c0.2-0.2,0.2-0.4,0.2-0.6V8.6c0-0.4,0.1-0.8,0.2-1.1s0.3-0.5,0.5-0.7s0.4-0.2,0.7-0.2
			c0.1,0,0.2,0,0.3,0c0.1,0,0.2,0.1,0.2,0.1c0.2,0.1,0.3,0.1,0.5,0.1c0.2,0,0.4-0.1,0.5-0.2c0.1-0.1,0.2-0.4,0.2-0.6
			c0-0.2-0.1-0.4-0.3-0.6C12.7,5.2,12.5,5.2,12.2,5.2L12.2,5.2z"/>
		<path stroke="#00FF00" stroke-width="0.25" stroke-miterlimit="10" d="M16.3,4.4c0.4,0.2,0.8,0.3,1.4,0.3s1-0.1,1.4-0.3
			c0.4-0.2,0.7-0.5,0.8-1c0-0.1,0-0.2,0-0.3c0-0.1,0-0.2-0.1-0.3s-0.2-0.1-0.3-0.1c-0.2,0-0.3,0-0.5,0.1S18.7,3,18.6,3.2
			c-0.2,0.2-0.5,0.4-1,0.4s-0.7-0.1-1-0.4c-0.1-0.2-0.3-0.3-0.4-0.4c-0.1-0.1-0.3-0.1-0.4-0.1c-0.1,0-0.2,0-0.3,0.1S15.4,3,15.4,3.1
			c0,0.1,0,0.2,0.1,0.3C15.6,3.8,15.9,4.1,16.3,4.4L16.3,4.4z"/>
		<path stroke="#00FF00" stroke-width="0.25" stroke-miterlimit="10" d="M17.7,2.8c0.3,0,0.5-0.1,0.6-0.2l1-1.2
			c0.2-0.2,0.2-0.4,0.3-0.6c0-0.2,0-0.4-0.2-0.5c-0.1-0.1-0.3-0.2-0.6-0.2c-0.2,0-0.3,0-0.4,0.2c-0.1,0.1-0.2,0.2-0.3,0.4l-0.8,1.4
			c0,0.1-0.1,0.2-0.1,0.3c0,0.1,0,0.2,0.1,0.3C17.5,2.7,17.6,2.8,17.7,2.8L17.7,2.8z"/>
		<path stroke="#00FF00" stroke-width="0.25" stroke-miterlimit="10" d="M20.2,5.2c-0.2,0-0.4,0.1-0.6,0.2c-0.2,0.2-0.2,0.4-0.2,0.6
			l0,0c-0.3-0.2-0.6-0.4-1-0.6s-0.8-0.2-1.2-0.2c-0.6,0-1.2,0.2-1.7,0.5C14.9,6,14.5,6.4,14.2,7s-0.4,1.2-0.4,2s0.1,1.4,0.4,2
			s0.7,1,1.2,1.4c0.5,0.3,1.1,0.5,1.7,0.5c0.4,0,0.8-0.1,1.2-0.3s0.7-0.4,0.9-0.7c0,0.2,0.1,0.4,0.2,0.6c0.1,0.2,0.4,0.2,0.6,0.2
			s0.4-0.1,0.6-0.2s0.2-0.4,0.2-0.6V6c0-0.2-0.1-0.4-0.2-0.6C20.6,5.2,20.4,5.1,20.2,5.2L20.2,5.2z M18.8,10.6
			c-0.4,0.4-0.9,0.6-1.5,0.6s-1.1-0.2-1.4-0.6c-0.4-0.4-0.6-1-0.6-1.6s0.2-1.2,0.6-1.7c0.4-0.4,0.9-0.7,1.4-0.7s1.1,0.2,1.5,0.7
			s0.6,1,0.6,1.7S19.2,10.2,18.8,10.6z"/>
		<path stroke="#00FF00" stroke-width="0.25" stroke-miterlimit="10" d="M26.7,5.2c-0.5,0-0.9,0.1-1.3,0.4c-0.4,0.2-0.7,0.5-1,0.8
			V6.1c0-0.2-0.1-0.4-0.2-0.6c-0.2-0.2-0.4-0.2-0.6-0.2S23.2,5.4,23,5.5c-0.2,0.2-0.2,0.4-0.2,0.6v5.7c0,0.2,0.1,0.4,0.2,0.6
			c0.2,0.2,0.4,0.2,0.6,0.2s0.4-0.1,0.6-0.2c0.2-0.2,0.2-0.4,0.2-0.6V8.3c0-0.5,0.1-0.9,0.5-1.2c0.3-0.3,0.7-0.5,1.2-0.5
			s0.9,0.1,1.1,0.4c0.2,0.3,0.3,0.7,0.3,1.2v3.5c0,0.2,0.1,0.4,0.2,0.6c0.2,0.2,0.4,0.2,0.6,0.2s0.4-0.1,0.6-0.2
			c0.2-0.2,0.2-0.4,0.2-0.6V8.3c0-1-0.2-1.8-0.5-2.3S27.6,5.2,26.7,5.2L26.7,5.2z"/>
		<path stroke="#00FF00" stroke-width="0.25" stroke-miterlimit="10" d="M37.7,5.4c-0.2-0.2-0.3-0.2-0.6-0.2s-0.4,0.1-0.6,0.2
			c-0.2,0.2-0.2,0.4-0.2,0.6v0.2c-0.2-0.3-0.6-0.5-1-0.7c-0.4-0.2-0.8-0.3-1.3-0.3c-0.6,0-1.2,0.2-1.7,0.5C31.7,6,31.3,6.4,31,7
			c-0.3,0.6-0.5,1.2-0.5,2s0.1,1.4,0.5,2c0.3,0.6,0.7,1,1.3,1.4c0.5,0.3,1.1,0.5,1.8,0.5c0.5,0,0.9-0.1,1.3-0.3s0.7-0.5,0.9-0.8v0.7
			c0,0.5-0.2,0.9-0.5,1.1c-0.3,0.3-0.8,0.4-1.5,0.4c-0.3,0-0.7-0.1-1.1-0.2s-0.6-0.2-0.7-0.2c-0.1,0-0.2,0-0.3,0
			c-0.2,0-0.3,0.1-0.4,0.2s-0.2,0.3-0.3,0.5c0,0.1,0,0.2,0,0.2c0,0.3,0.2,0.6,0.7,0.8c0.2,0.1,0.5,0.2,1,0.3s0.9,0.1,1.1,0.1
			c1.1,0,1.9-0.3,2.6-0.8c0.7-0.5,1-1.4,1-2.5V6C37.9,5.8,37.8,5.6,37.7,5.4L37.7,5.4z M35.7,10.6c-0.4,0.4-0.9,0.6-1.5,0.6
			s-1.1-0.2-1.5-0.6c-0.4-0.4-0.6-1-0.6-1.6s0.2-1.2,0.6-1.7c0.4-0.4,0.9-0.7,1.5-0.7s1.1,0.2,1.5,0.7s0.6,1,0.6,1.7
			S36.1,10.2,35.7,10.6z"/>
	</g>
</g>
</svg>
