<?xml version="1.0" encoding="UTF-8"?>
<svg id="Layer_2" data-name="Layer 2" xmlns="http://www.w3.org/2000/svg" viewBox="0 0 3040.37 1357.93">
  <defs>
    <style>
      .cls-1 {
        font-size: 98px;
      }

      .cls-1, .cls-2 {
        font-family: #9Slide03QuicksandBold-Bold, '#9Slide03 Quicksand Bold';
      }

      .cls-1, .cls-2, .cls-3 {
        font-weight: 700;
      }

      .cls-2 {
        font-size: 480px;
      }

      .cls-4, .cls-5, .cls-6 {
        stroke-width: 0px;
      }

      .cls-5, .cls-7 {
        fill: #edd2ce;
      }

      .cls-3 {
        font-family: AmaticSC-Bold, 'Amatic SC';
        font-size: 37.15px;
      }

      .cls-8 {
        letter-spacing: 0em;
      }

      .cls-6 {
        fill: #fff;
      }

      .cls-7 {
        font-family: SharkBlindateRegular, 'Shark Blindate';
        font-size: 222.93px;
        stroke: #edd2ce;
        stroke-linecap: round;
        stroke-linejoin: round;
        stroke-width: 2px;
      }
    </style>
  </defs>
  <g id="Layer_1-2" data-name="Layer 1">
    <text class="cls-2" transform="translate(0 752.31)"><tspan x="0" y="0">L</tspan></text>
    <text class="cls-1" transform="translate(1086.85 1328.24)"><tspan x="0" y="0">Co</tspan><tspan class="cls-8" x="121.62" y="0">l</tspan><tspan x="147.1" y="0">or</tspan></text>
    <g>
      <path class="cls-6" d="m3040.33,324.5v58.97h.04v34.16h-.04v15.68c.05,37.42-14.79,73.31-41.25,99.77-26.46,26.46-62.35,41.3-99.77,41.25h-511.22c-37.4.04-73.29-14.81-99.75-41.27-26.45-26.44-41.31-62.33-41.27-99.75v-15.68h-.04v-34.16h.04v-58.97h-.04v-34.16h.04v-15.67c-.04-37.42,14.82-73.3,41.27-99.76,26.46-26.45,62.35-41.29,99.75-41.28h238.55v-.04h34.14v.04h238.53c37.42-.01,73.31,14.83,99.75,41.28,26.46,26.46,41.31,62.34,41.27,99.76v15.67h.04v34.16h-.04Z"/>
      <path class="cls-6" d="m3040.33,771.91v58.97h.04v34.16h-.04v15.68c.05,37.42-14.79,73.31-41.25,99.77-26.46,26.46-62.35,41.3-99.77,41.25h-511.22c-37.4.04-73.29-14.81-99.75-41.27-26.45-26.44-41.31-62.33-41.27-99.75v-15.68h-.04v-34.16h.04v-58.97h-.04v-34.16h.04v-15.67c-.04-37.42,14.82-73.3,41.27-99.76,26.46-26.45,62.35-41.29,99.75-41.28h238.55v-.04h34.14v.04h238.53c37.42-.01,73.31,14.83,99.75,41.28,26.46,26.46,41.31,62.34,41.27,99.76v15.67h.04v34.16h-.04Z"/>
    </g>
    <text class="cls-7" transform="translate(1075.15 778.21) rotate(-6)"><tspan x="0" y="0">asd</tspan></text>
    <path class="cls-5" d="m1517.94,652.3v-34.15h-8.5v-15.67c.03-37.42-14.81-73.31-41.27-99.77-26.44-26.44-62.33-41.29-99.75-41.27h-238.53v-8.5h-34.15v8.5h-238.55c-37.4-.02-73.29,14.83-99.75,41.27-26.45,26.46-41.31,62.35-41.27,99.77v15.67h-8.5v34.15h8.5v58.97h-8.5v34.15h8.5v15.68c-.03,37.42,14.83,73.31,41.27,99.75,26.46,26.46,62.35,41.31,99.75,41.27h96.96v8.03h27.32v-8.03h262.65v8.03h27.32v-8.03h96.96c37.42.05,73.31-14.79,99.77-41.25,26.46-26.46,41.31-62.35,41.25-99.77v-15.68h8.5v-34.15h-8.5v-58.97h8.5Zm-74.6,104.4c0,43.82-35.53,79.33-79.33,79.33h-502.39c-43.82,0-79.33-35.51-79.33-79.33v-149.84c0-43.8,35.51-79.32,79.33-79.32h502.39c43.8,0,79.33,35.51,79.33,79.32v149.84Z"/>
    <path class="cls-5" d="m1517.94,199.37v-34.15h-8.5v-15.67c.03-37.42-14.81-73.31-41.27-99.77-26.44-26.44-62.33-41.29-99.75-41.27h-238.53V0h-34.15v8.5h-238.55c-37.4-.02-73.29,14.83-99.75,41.27-26.45,26.46-41.31,62.35-41.27,99.77v15.67h-8.5v34.15h8.5v58.97h-8.5v34.15h8.5v15.68c-.03,37.42,14.83,73.31,41.27,99.75,26.46,26.46,62.35,41.31,99.75,41.27h96.96v8.03h27.32v-8.03h262.65v8.03h27.32v-8.03h96.96c37.42.05,73.31-14.79,99.77-41.25,26.46-26.46,41.31-62.35,41.25-99.77v-15.68h8.5v-34.15h-8.5v-58.97h8.5Zm-74.6,104.4c0,43.82-35.53,79.33-79.33,79.33h-502.39c-43.82,0-79.33-35.51-79.33-79.33v-149.84c0-43.8,35.51-79.32,79.33-79.32h502.39c43.8,0,79.33,35.51,79.33,79.32v149.84Z"/>
    <text class="cls-3" transform="translate(886.09 430.14)"><tspan x="0" y="0">Find out who you are and do it on purpose</tspan></text>
    <g>
      <path class="cls-4" d="m2602.18,1111.58c-.92,0-1.83.25-2.72.74-.89.5-1.6,1.14-2.13,1.93l-22.18,33.17-21.58-33.17c-.53-.79-1.29-1.44-2.28-1.93-.99-.5-1.98-.74-2.97-.74-1.72,0-3.19.59-4.41,1.78-1.22,1.19-1.83,2.61-1.83,4.26v57.32c0,1.72.53,3.15,1.58,4.31,1.06,1.16,2.41,1.73,4.06,1.73s3.1-.56,4.16-1.68c1.05-1.12,1.58-2.57,1.58-4.36v-40.79l16.33,25.84c.66.79,1.42,1.44,2.28,1.93.86.5,1.72.71,2.57.64.92.07,1.81-.15,2.67-.64.86-.5,1.62-1.14,2.28-1.93l16.34-24.95v39.9c0,1.78.58,3.23,1.73,4.36,1.15,1.12,2.66,1.68,4.5,1.68s3.33-.58,4.46-1.73c1.12-1.15,1.68-2.59,1.68-4.31v-57.32c0-1.71-.61-3.15-1.83-4.31-1.22-1.15-2.66-1.73-4.31-1.73Z"/>
      <path class="cls-4" d="m2627.42,1128.01c-1.72,0-3.14.58-4.26,1.73-1.12,1.16-1.68,2.59-1.68,4.31v40.89c0,1.72.56,3.15,1.68,4.31,1.12,1.16,2.54,1.73,4.26,1.73s3.13-.58,4.26-1.73c1.12-1.15,1.68-2.59,1.68-4.31v-40.89c0-1.72-.56-3.15-1.68-4.31-1.12-1.15-2.54-1.73-4.26-1.73Z"/>
      <path class="cls-4" d="m2627.42,1109.8c-2.18,0-3.76.36-4.75,1.09-.99.73-1.49,2.01-1.49,3.86v1.88c0,1.85.46,3.13,1.39,3.86.92.73,2.51,1.09,4.75,1.09s3.94-.35,4.9-1.04,1.44-2,1.44-3.91v-1.88c0-1.85-.46-3.13-1.38-3.86-.93-.73-2.54-1.09-4.85-1.09Z"/>
      <path class="cls-4" d="m2682.56,1167.31c-.86,0-1.58.13-2.18.4-.59.26-1.24.64-1.93,1.14-.69.5-1.24.84-1.63,1.04-1.58.79-3.99,1.19-7.23,1.19-4.42,0-8.05-1.57-10.89-4.7-2.84-3.13-4.26-7.08-4.26-11.83s1.4-8.96,4.21-12.03c2.8-3.07,6.68-4.6,11.63-4.6.79,0,1.83.13,3.12.4,1.29.26,2.26.56,2.92.89.59.33,1.2.74,1.83,1.24.63.49,1.27.89,1.93,1.19.66.3,1.52.45,2.57.45,1.39,0,2.51-.54,3.37-1.63.86-1.09,1.29-2.36,1.29-3.81,0-2.9-1.72-5.23-5.15-6.98-3.43-1.75-7.95-2.62-13.56-2.62-5.02,0-9.5,1.17-13.46,3.51-3.96,2.34-7.04,5.59-9.26,9.75-2.21,4.16-3.32,8.91-3.32,14.26s1.05,9.82,3.17,14.01c2.11,4.19,5.1,7.47,8.96,9.85s8.33,3.56,13.41,3.56c3.43,0,6.67-.41,9.7-1.24,3.04-.83,5.48-1.93,7.33-3.32,1.85-1.39,2.77-2.87,2.77-4.45s-.48-3-1.44-4.06c-.96-1.05-2.26-1.58-3.91-1.58Z"/>
      <path class="cls-4" d="m2743.65,1128.7c-1.12-1.12-2.54-1.68-4.26-1.68s-3.14.58-4.26,1.73c-1.12,1.16-1.68,2.59-1.68,4.31v.1c-1.91-1.78-4.26-3.25-7.03-4.41-2.77-1.15-5.74-1.73-8.91-1.73-4.42,0-8.46,1.17-12.13,3.51-3.66,2.34-6.55,5.61-8.66,9.8-2.11,4.19-3.17,8.93-3.17,14.21s1.07,10,3.22,14.16c2.14,4.16,5.06,7.41,8.76,9.75,3.7,2.34,7.82,3.51,12.38,3.51,3.1,0,6.05-.68,8.86-2.03,2.8-1.35,5.03-2.99,6.68-4.9.07,1.72.64,3.14,1.73,4.26,1.09,1.12,2.49,1.68,4.21,1.68s3.13-.58,4.26-1.73c1.12-1.15,1.68-2.59,1.68-4.31v-41.88c0-1.78-.56-3.23-1.68-4.36Zm-13.76,37.67c-2.71,3.14-6.2,4.7-10.49,4.7s-7.77-1.57-10.45-4.7c-2.67-3.13-4.01-7.08-4.01-11.83s1.35-8.71,4.06-11.88c2.71-3.17,6.17-4.75,10.4-4.75s7.79,1.58,10.49,4.75c2.71,3.17,4.06,7.13,4.06,11.88s-1.35,8.7-4.06,11.83Z"/>
    </g>
    <g>
      <g>
        <path class="cls-4" d="m1776.72,1119.45v11.92c0,2.8,3.28,5.07,7.26,5.07h1.4c4,0,7.24,2.28,7.24,5.07v11.94c0,2.8-3.24,5.07-7.24,5.07h-71.67c-3.99,0-7.24-2.26-7.24-5.07v-11.94c0-2.79,3.26-5.07,7.24-5.07h1.4c4.02,0,7.26-2.26,7.26-5.07v-11.92c0-2.77-3.23-5.05-7.21-5.07v-.07h-71.9v.08c-3.83.1-6.96,2.33-6.96,5.05v11.92c0,2.8,3.26,5.07,7.24,5.07h1.4c4.02,0,7.26,2.28,7.26,5.07v11.94c0,2.8-3.24,5.07-7.26,5.07h-71.65c-3.99,0-7.26-2.26-7.26-5.07v-11.94c0-2.79,3.28-5.07,7.26-5.07h1.4c4,0,7.24-2.26,7.24-5.07v-11.92c0-2.77-3.21-5.05-7.19-5.07v-.07h-49.66V0h49.65v.07c3.99.02,7.21,2.3,7.21,5.07v11.92c0,2.8-3.24,5.07-7.26,5.07h-1.4c-3.99,0-7.24,2.28-7.24,5.07v11.94c0,2.8,3.26,5.07,7.24,5.07h71.67c4.02,0,7.24-2.26,7.24-5.07v-11.94c0-2.79-3.23-5.07-7.24-5.07h-1.4c-3.99,0-7.24-2.26-7.24-5.07V5.13c0-2.72,3.11-4.95,6.96-5.05v-.08h71.9v.07c3.99.02,7.19,2.3,7.19,5.07v11.92c0,2.8-3.23,5.07-7.24,5.07h-1.4c-3.99,0-7.24,2.28-7.24,5.07v11.94c0,2.8,3.26,5.07,7.24,5.07h71.67c4,0,7.24-2.26,7.24-5.07v-11.94c0-2.79-3.24-5.07-7.24-5.07h-1.4c-4,0-7.26-2.26-7.26-5.07V5.13c0-2.72,3.12-4.95,6.96-5.05v-.08h49.9v1114.32h-49.88v.08c-3.85.1-6.97,2.33-6.97,5.05Z"/>
        <rect class="cls-6" x="1537.59" y="51.56" width="8.5" height="34.16"/>
        <rect class="cls-6" x="1537.59" y="420.62" width="8.5" height="27.32"/>
        <rect class="cls-6" x="1537.59" y="710.58" width="8.5" height="27.32"/>
        <rect class="cls-6" x="1537.59" y="1072.81" width="8.5" height="34.16"/>
        <rect class="cls-6" x="1812.58" y="51.56" width="8.5" height="34.16"/>
        <rect class="cls-6" x="1812.58" y="420.62" width="8.5" height="27.32"/>
        <rect class="cls-6" x="1812.58" y="710.58" width="8.5" height="27.32"/>
        <rect class="cls-6" x="1812.58" y="1072.81" width="8.5" height="34.16"/>
        <g id="POLYLINE">
          <line class="cls-6" x1="1688.7" y1="110.23" x2="1817.43" y2="110.23"/>
        </g>
        <g id="POLYLINE-2" data-name="POLYLINE">
          <line class="cls-6" x1="1688.7" y1="128.02" x2="1817.43" y2="128.02"/>
        </g>
        <g id="POLYLINE-3" data-name="POLYLINE">
          <line class="cls-6" x1="1615.45" y1="136.92" x2="1744.18" y2="136.92"/>
        </g>
        <g id="POLYLINE-4" data-name="POLYLINE">
          <line class="cls-6" x1="1688.7" y1="145.82" x2="1817.43" y2="145.82"/>
        </g>
        <g id="POLYLINE-5" data-name="POLYLINE">
          <line class="cls-6" x1="1615.45" y1="154.71" x2="1744.18" y2="154.71"/>
        </g>
        <g id="POLYLINE-6" data-name="POLYLINE">
          <line class="cls-6" x1="1688.7" y1="165.61" x2="1817.43" y2="165.61"/>
        </g>
        <g id="POLYLINE-7" data-name="POLYLINE">
          <line class="cls-6" x1="1615.45" y1="174.51" x2="1744.18" y2="174.51"/>
        </g>
        <g id="POLYLINE-8" data-name="POLYLINE">
          <line class="cls-6" x1="1615.45" y1="210.1" x2="1744.18" y2="210.1"/>
        </g>
        <g id="POLYLINE-9" data-name="POLYLINE">
          <line class="cls-6" x1="1688.7" y1="183.41" x2="1817.43" y2="183.41"/>
        </g>
        <g id="POLYLINE-10" data-name="POLYLINE">
          <line class="cls-6" x1="1615.45" y1="192.31" x2="1744.18" y2="192.31"/>
        </g>
        <g id="POLYLINE-11" data-name="POLYLINE">
          <line class="cls-6" x1="1688.7" y1="221" x2="1817.43" y2="221"/>
        </g>
        <g id="POLYLINE-12" data-name="POLYLINE">
          <line class="cls-6" x1="1615.45" y1="229.9" x2="1744.18" y2="229.9"/>
        </g>
        <g id="POLYLINE-13" data-name="POLYLINE">
          <line class="cls-6" x1="1688.7" y1="201.2" x2="1817.43" y2="201.2"/>
        </g>
        <g id="POLYLINE-14" data-name="POLYLINE">
          <line class="cls-6" x1="1615.45" y1="265.49" x2="1744.18" y2="265.49"/>
        </g>
        <g id="POLYLINE-15" data-name="POLYLINE">
          <line class="cls-6" x1="1615.45" y1="247.69" x2="1744.18" y2="247.69"/>
        </g>
        <g id="POLYLINE-16" data-name="POLYLINE">
          <line class="cls-6" x1="1688.7" y1="238.79" x2="1817.43" y2="238.79"/>
        </g>
        <g id="POLYLINE-17" data-name="POLYLINE">
          <line class="cls-6" x1="1688.7" y1="256.59" x2="1817.43" y2="256.59"/>
        </g>
        <g id="POLYLINE-18" data-name="POLYLINE">
          <line class="cls-6" x1="1688.7" y1="276.38" x2="1817.43" y2="276.38"/>
        </g>
        <g id="POLYLINE-19" data-name="POLYLINE">
          <line class="cls-6" x1="1688.7" y1="294.18" x2="1817.43" y2="294.18"/>
        </g>
        <g id="POLYLINE-20" data-name="POLYLINE">
          <line class="cls-6" x1="1688.7" y1="313.98" x2="1817.43" y2="313.98"/>
        </g>
        <g id="POLYLINE-21" data-name="POLYLINE">
          <line class="cls-6" x1="1615.45" y1="285.28" x2="1744.18" y2="285.28"/>
        </g>
        <g id="POLYLINE-22" data-name="POLYLINE">
          <line class="cls-6" x1="1615.45" y1="303.08" x2="1744.18" y2="303.08"/>
        </g>
        <g id="POLYLINE-23" data-name="POLYLINE">
          <line class="cls-6" x1="1615.45" y1="322.87" x2="1744.18" y2="322.87"/>
        </g>
        <g id="POLYLINE-24" data-name="POLYLINE">
          <line class="cls-6" x1="1688.09" y1="844.05" x2="1816.83" y2="844.05"/>
        </g>
        <g id="POLYLINE-25" data-name="POLYLINE">
          <line class="cls-6" x1="1688.09" y1="861.84" x2="1816.82" y2="861.84"/>
        </g>
        <g id="POLYLINE-26" data-name="POLYLINE">
          <line class="cls-6" x1="1614.84" y1="870.74" x2="1743.57" y2="870.74"/>
        </g>
        <g id="POLYLINE-27" data-name="POLYLINE">
          <line class="cls-6" x1="1688.09" y1="879.63" x2="1816.82" y2="879.63"/>
        </g>
        <g id="POLYLINE-28" data-name="POLYLINE">
          <line class="cls-6" x1="1614.84" y1="888.53" x2="1743.57" y2="888.53"/>
        </g>
        <g id="POLYLINE-29" data-name="POLYLINE">
          <line class="cls-6" x1="1688.09" y1="899.43" x2="1816.82" y2="899.43"/>
        </g>
        <g id="POLYLINE-30" data-name="POLYLINE">
          <line class="cls-6" x1="1614.84" y1="908.33" x2="1743.57" y2="908.33"/>
        </g>
        <g id="POLYLINE-31" data-name="POLYLINE">
          <line class="cls-6" x1="1614.84" y1="943.92" x2="1743.57" y2="943.92"/>
        </g>
        <g id="POLYLINE-32" data-name="POLYLINE">
          <line class="cls-6" x1="1688.09" y1="917.23" x2="1816.82" y2="917.23"/>
        </g>
        <g id="POLYLINE-33" data-name="POLYLINE">
          <line class="cls-6" x1="1614.84" y1="926.12" x2="1743.57" y2="926.12"/>
        </g>
        <g id="POLYLINE-34" data-name="POLYLINE">
          <line class="cls-6" x1="1688.09" y1="954.82" x2="1816.82" y2="954.82"/>
        </g>
        <g id="POLYLINE-35" data-name="POLYLINE">
          <line class="cls-6" x1="1614.84" y1="963.71" x2="1743.57" y2="963.71"/>
        </g>
        <g id="POLYLINE-36" data-name="POLYLINE">
          <line class="cls-6" x1="1688.09" y1="935.02" x2="1816.82" y2="935.02"/>
        </g>
        <g id="POLYLINE-37" data-name="POLYLINE">
          <line class="cls-6" x1="1614.84" y1="999.3" x2="1743.57" y2="999.3"/>
        </g>
        <g id="POLYLINE-38" data-name="POLYLINE">
          <line class="cls-6" x1="1614.84" y1="981.51" x2="1743.57" y2="981.51"/>
        </g>
        <g id="POLYLINE-39" data-name="POLYLINE">
          <line class="cls-6" x1="1688.09" y1="972.61" x2="1816.82" y2="972.61"/>
        </g>
        <g id="POLYLINE-40" data-name="POLYLINE">
          <line class="cls-6" x1="1688.09" y1="990.41" x2="1816.82" y2="990.41"/>
        </g>
        <g id="POLYLINE-41" data-name="POLYLINE">
          <line class="cls-6" x1="1688.09" y1="1010.2" x2="1816.82" y2="1010.2"/>
        </g>
        <g id="POLYLINE-42" data-name="POLYLINE">
          <line class="cls-6" x1="1688.09" y1="1028" x2="1816.82" y2="1028"/>
        </g>
        <g id="POLYLINE-43" data-name="POLYLINE">
          <line class="cls-6" x1="1688.09" y1="1047.79" x2="1816.82" y2="1047.79"/>
        </g>
        <g id="POLYLINE-44" data-name="POLYLINE">
          <line class="cls-6" x1="1614.84" y1="1019.1" x2="1743.57" y2="1019.1"/>
        </g>
        <g id="POLYLINE-45" data-name="POLYLINE">
          <line class="cls-6" x1="1614.84" y1="1036.89" x2="1743.57" y2="1036.89"/>
        </g>
        <g id="POLYLINE-46" data-name="POLYLINE">
          <line class="cls-6" x1="1614.84" y1="1056.69" x2="1743.57" y2="1056.69"/>
        </g>
      </g>
      <g>
        <path class="cls-4" d="m2089.85,1119.44v11.92c0,2.8,3.26,5.07,7.26,5.07h1.4c4,0,7.24,2.28,7.24,5.07v11.94c0,2.8-3.24,5.07-7.24,5.07h-71.67c-3.99,0-7.24-2.26-7.24-5.07v-11.94c0-2.79,3.26-5.07,7.24-5.07h1.4c4.02,0,7.24-2.26,7.24-5.07v-11.92c0-2.77-3.21-5.05-7.19-5.07v-.07h-71.9v.08c-3.85.1-6.96,2.33-6.96,5.05v11.92c0,2.8,3.26,5.07,7.24,5.07h1.4c4.02,0,7.24,2.28,7.24,5.07v11.94c0,2.8-3.23,5.07-7.24,5.07h-71.67c-3.99,0-7.24-2.26-7.24-5.07v-11.94c0-2.79,3.26-5.07,7.24-5.07h1.4c4.02,0,7.26-2.26,7.26-5.07v-11.92c0-2.77-3.23-5.05-7.21-5.07v-.07h-49.65V0h49.65v.07c3.99.02,7.21,2.3,7.21,5.07v11.92c0,2.8-3.24,5.07-7.26,5.07h-1.4c-3.99,0-7.24,2.28-7.24,5.07v11.94c0,2.8,3.26,5.07,7.24,5.07h71.67c4.02,0,7.24-2.26,7.24-5.07v-11.94c0-2.79-3.23-5.07-7.24-5.07h-1.4c-3.99,0-7.24-2.26-7.24-5.07V5.14c0-2.72,3.11-4.95,6.96-5.05V0h71.9v.07c3.99.02,7.19,2.3,7.19,5.07v11.92c0,2.8-3.23,5.07-7.24,5.07h-1.4c-3.99,0-7.24,2.28-7.24,5.07v11.94c0,2.8,3.26,5.07,7.24,5.07h71.67c4,0,7.24-2.26,7.24-5.07v-11.94c0-2.79-3.24-5.07-7.24-5.07h-1.4c-4,0-7.26-2.26-7.26-5.07V5.14c0-2.72,3.12-4.95,6.96-5.05V0h49.9v1114.3h-49.9v.08c-3.83.1-6.96,2.33-6.96,5.05Z"/>
        <g id="POLYLINE-47" data-name="POLYLINE">
          <line class="cls-6" x1="1983.11" y1="1047.25" x2="1854.38" y2="1047.25"/>
        </g>
        <g id="POLYLINE-48" data-name="POLYLINE">
          <line class="cls-6" x1="1983.11" y1="1029.46" x2="1854.38" y2="1029.46"/>
        </g>
        <g id="POLYLINE-49" data-name="POLYLINE">
          <line class="cls-6" x1="2056.36" y1="1020.56" x2="1927.63" y2="1020.56"/>
        </g>
        <g id="POLYLINE-50" data-name="POLYLINE">
          <line class="cls-6" x1="1983.11" y1="1011.67" x2="1854.38" y2="1011.67"/>
        </g>
        <g id="POLYLINE-51" data-name="POLYLINE">
          <line class="cls-6" x1="2056.36" y1="1002.77" x2="1927.63" y2="1002.77"/>
        </g>
        <g id="POLYLINE-52" data-name="POLYLINE">
          <line class="cls-6" x1="1983.11" y1="991.87" x2="1854.38" y2="991.87"/>
        </g>
        <g id="POLYLINE-53" data-name="POLYLINE">
          <line class="cls-6" x1="2056.36" y1="982.97" x2="1927.63" y2="982.97"/>
        </g>
        <g id="POLYLINE-54" data-name="POLYLINE">
          <line class="cls-6" x1="2056.36" y1="947.38" x2="1927.63" y2="947.38"/>
        </g>
        <g id="POLYLINE-55" data-name="POLYLINE">
          <line class="cls-6" x1="1983.11" y1="974.07" x2="1854.38" y2="974.07"/>
        </g>
        <g id="POLYLINE-56" data-name="POLYLINE">
          <line class="cls-6" x1="2056.36" y1="965.18" x2="1927.63" y2="965.18"/>
        </g>
        <g id="POLYLINE-57" data-name="POLYLINE">
          <line class="cls-6" x1="1983.11" y1="936.48" x2="1854.38" y2="936.48"/>
        </g>
        <g id="POLYLINE-58" data-name="POLYLINE">
          <line class="cls-6" x1="2056.36" y1="927.59" x2="1927.63" y2="927.59"/>
        </g>
        <g id="POLYLINE-59" data-name="POLYLINE">
          <line class="cls-6" x1="1983.11" y1="956.28" x2="1854.38" y2="956.28"/>
        </g>
        <g id="POLYLINE-60" data-name="POLYLINE">
          <line class="cls-6" x1="2056.36" y1="892" x2="1927.63" y2="892"/>
        </g>
        <g id="POLYLINE-61" data-name="POLYLINE">
          <line class="cls-6" x1="2056.36" y1="909.79" x2="1927.63" y2="909.79"/>
        </g>
        <g id="POLYLINE-62" data-name="POLYLINE">
          <line class="cls-6" x1="1983.11" y1="918.69" x2="1854.38" y2="918.69"/>
        </g>
        <g id="POLYLINE-63" data-name="POLYLINE">
          <line class="cls-6" x1="1983.11" y1="900.89" x2="1854.38" y2="900.89"/>
        </g>
        <g id="POLYLINE-64" data-name="POLYLINE">
          <line class="cls-6" x1="1983.11" y1="881.1" x2="1854.38" y2="881.1"/>
        </g>
        <g id="POLYLINE-65" data-name="POLYLINE">
          <line class="cls-6" x1="1983.11" y1="863.3" x2="1854.38" y2="863.3"/>
        </g>
        <g id="POLYLINE-66" data-name="POLYLINE">
          <line class="cls-6" x1="1983.11" y1="843.51" x2="1854.38" y2="843.51"/>
        </g>
        <g id="POLYLINE-67" data-name="POLYLINE">
          <line class="cls-6" x1="2056.36" y1="872.2" x2="1927.63" y2="872.2"/>
        </g>
        <g id="POLYLINE-68" data-name="POLYLINE">
          <line class="cls-6" x1="2056.36" y1="854.41" x2="1927.63" y2="854.41"/>
        </g>
        <g id="POLYLINE-69" data-name="POLYLINE">
          <line class="cls-6" x1="2056.36" y1="834.61" x2="1927.63" y2="834.61"/>
        </g>
        <g id="POLYLINE-70" data-name="POLYLINE">
          <line class="cls-6" x1="1983.72" y1="314.47" x2="1854.99" y2="314.47"/>
        </g>
        <g id="POLYLINE-71" data-name="POLYLINE">
          <line class="cls-6" x1="1983.72" y1="296.68" x2="1854.99" y2="296.68"/>
        </g>
        <g id="POLYLINE-72" data-name="POLYLINE">
          <line class="cls-6" x1="2056.97" y1="287.78" x2="1928.24" y2="287.78"/>
        </g>
        <g id="POLYLINE-73" data-name="POLYLINE">
          <line class="cls-6" x1="1983.72" y1="278.88" x2="1854.99" y2="278.88"/>
        </g>
        <g id="POLYLINE-74" data-name="POLYLINE">
          <line class="cls-6" x1="2056.97" y1="269.99" x2="1928.24" y2="269.99"/>
        </g>
        <g id="POLYLINE-75" data-name="POLYLINE">
          <line class="cls-6" x1="1983.72" y1="259.09" x2="1854.99" y2="259.09"/>
        </g>
        <g id="POLYLINE-76" data-name="POLYLINE">
          <line class="cls-6" x1="2056.97" y1="250.19" x2="1928.24" y2="250.19"/>
        </g>
        <g id="POLYLINE-77" data-name="POLYLINE">
          <line class="cls-6" x1="2056.97" y1="214.6" x2="1928.24" y2="214.6"/>
        </g>
        <g id="POLYLINE-78" data-name="POLYLINE">
          <line class="cls-6" x1="1983.72" y1="241.29" x2="1854.99" y2="241.29"/>
        </g>
        <g id="POLYLINE-79" data-name="POLYLINE">
          <line class="cls-6" x1="2056.97" y1="232.4" x2="1928.24" y2="232.4"/>
        </g>
        <g id="POLYLINE-80" data-name="POLYLINE">
          <line class="cls-6" x1="1983.72" y1="203.7" x2="1854.99" y2="203.7"/>
        </g>
        <g id="POLYLINE-81" data-name="POLYLINE">
          <line class="cls-6" x1="2056.97" y1="194.81" x2="1928.24" y2="194.81"/>
        </g>
        <g id="POLYLINE-82" data-name="POLYLINE">
          <line class="cls-6" x1="1983.72" y1="223.5" x2="1854.99" y2="223.5"/>
        </g>
        <g id="POLYLINE-83" data-name="POLYLINE">
          <line class="cls-6" x1="2056.97" y1="159.22" x2="1928.24" y2="159.22"/>
        </g>
        <g id="POLYLINE-84" data-name="POLYLINE">
          <line class="cls-6" x1="2056.97" y1="177.01" x2="1928.24" y2="177.01"/>
        </g>
        <g id="POLYLINE-85" data-name="POLYLINE">
          <line class="cls-6" x1="1983.72" y1="185.91" x2="1854.99" y2="185.91"/>
        </g>
        <g id="POLYLINE-86" data-name="POLYLINE">
          <line class="cls-6" x1="1983.72" y1="168.11" x2="1854.99" y2="168.11"/>
        </g>
        <g id="POLYLINE-87" data-name="POLYLINE">
          <line class="cls-6" x1="1983.72" y1="148.32" x2="1854.99" y2="148.32"/>
        </g>
        <g id="POLYLINE-88" data-name="POLYLINE">
          <line class="cls-6" x1="1983.72" y1="130.52" x2="1854.99" y2="130.52"/>
        </g>
        <g id="POLYLINE-89" data-name="POLYLINE">
          <line class="cls-6" x1="1983.72" y1="110.73" x2="1854.99" y2="110.73"/>
        </g>
        <g id="POLYLINE-90" data-name="POLYLINE">
          <line class="cls-6" x1="2056.97" y1="139.42" x2="1928.24" y2="139.42"/>
        </g>
        <g id="POLYLINE-91" data-name="POLYLINE">
          <line class="cls-6" x1="2056.97" y1="121.63" x2="1928.24" y2="121.63"/>
        </g>
        <g id="POLYLINE-92" data-name="POLYLINE">
          <line class="cls-6" x1="2056.97" y1="101.83" x2="1928.24" y2="101.83"/>
        </g>
        <rect class="cls-6" x="1850.73" y="1072.8" width="8.5" height="34.16"/>
        <rect class="cls-6" x="2125.72" y="1072.8" width="8.5" height="34.16"/>
        <path class="cls-6" d="m2014.02,373.75v410.5c0,9.25-7.5,16.75-16.75,16.75-4.63,0-8.81-1.87-11.85-4.9-3.02-3.04-4.9-7.23-4.9-11.85v-410.5c0-9.25,7.5-16.75,16.75-16.75s16.75,7.5,16.75,16.75Z"/>
        <rect class="cls-6" x="1850.73" y="51.55" width="8.5" height="34.16"/>
        <rect class="cls-6" x="2125.72" y="51.55" width="8.5" height="34.16"/>
        <rect class="cls-6" x="2125.72" y="561.92" width="8.5" height="34.16"/>
        <rect class="cls-6" x="1850.73" y="561.92" width="8.5" height="34.16"/>
      </g>
    </g>
  </g>
</svg>