<?xml version="1.0" encoding="UTF-8"?>
<svg id="Layer_2" data-name="Layer 2" xmlns="http://www.w3.org/2000/svg" viewBox="0 0 2182.76 867.16">
  <defs>
    <style>
      .cls-1 {
        font-family: AmaticSC-Bold, 'Amatic SC';
        font-size: 22px;
      }

      .cls-1, .cls-2, .cls-3 {
        font-weight: 700;
      }

      .cls-2 {
        font-size: 98px;
      }

      .cls-2, .cls-3 {
        font-family: #9Slide03QuicksandBold-Bold, '#9Slide03 Quicksand Bold';
      }

      .cls-3 {
        font-size: 480px;
      }

      .cls-4, .cls-5, .cls-6 {
        stroke-width: 0px;
      }

      .cls-5, .cls-7 {
        fill: #edd2ce;
      }

      .cls-7 {
        font-family: SharkBlindateRegular, 'Shark Blindate';
        font-size: 132.02px;
        stroke: #edd2ce;
        stroke-linecap: round;
        stroke-linejoin: round;
        stroke-width: 2px;
      }

      .cls-8 {
        letter-spacing: 0em;
      }

      .cls-6 {
        fill: #fff;
      }
    </style>
  </defs>
  <g id="Layer_1-2" data-name="Layer 1">
    <text class="cls-3" transform="translate(0 428.42)"><tspan x="0" y="0">S</tspan></text>
    <text class="cls-2" transform="translate(1095.25 837.46)"><tspan x="0" y="0">Co</tspan><tspan class="cls-8" x="121.62" y="0">l</tspan><tspan x="147.1" y="0">or</tspan></text>
    <path class="cls-5" d="m1313.31,393.5v-20.23h-8.54v-9.28c.02-22.16-8.77-43.41-24.44-59.08-15.66-15.66-36.91-24.45-59.07-24.44h-141.25v-8.5h-20.22v8.5h-141.26c-22.15-.01-43.4,8.78-59.07,24.44-15.66,15.67-24.46,36.92-24.44,59.08v9.28h-8.51v20.23h8.51v34.92h-8.51v20.23h8.51v9.29c-.02,22.16,8.78,43.41,24.44,59.07,15.67,15.67,36.92,24.46,59.07,24.44h57.42v8.51h16.18v-8.51h155.54v8.51h16.18v-8.51h57.42c22.16.03,43.41-8.76,59.08-24.43,15.67-15.67,24.46-36.92,24.43-59.08v-9.29h8.54v-20.23h-8.54v-34.92h8.54Zm-47.68,61.83c0,25.95-21.04,46.98-46.98,46.98h-297.5c-25.95,0-46.98-21.03-46.98-46.98v-88.73c0-25.94,21.03-46.97,46.98-46.97h297.5c25.94,0,46.98,21.03,46.98,46.97v88.73Z"/>
    <path class="cls-5" d="m1313.31,121.52v-20.23h-8.54v-9.28c.02-22.16-8.77-43.41-24.44-59.08-15.66-15.66-36.91-24.45-59.07-24.44h-141.25V0h-20.22v8.5h-141.26c-22.15-.01-43.4,8.78-59.07,24.44-15.66,15.67-24.46,36.92-24.44,59.08v9.28h-8.51v20.23h8.51v34.92h-8.51v20.23h8.51v9.29c-.02,22.16,8.78,43.41,24.44,59.07,15.67,15.67,36.92,24.46,59.07,24.44h57.42v8.51h16.18v-8.51h155.54v8.51h16.18v-8.51h57.42c22.16.03,43.41-8.76,59.08-24.43,15.67-15.67,24.46-36.92,24.43-59.08v-9.29h8.54v-20.23h-8.54v-34.92h8.54Zm-47.68,61.83c0,25.95-21.04,46.98-46.98,46.98h-297.5c-25.95,0-46.98-21.03-46.98-46.98v-88.73c0-25.94,21.03-46.97,46.98-46.97h297.5c25.94,0,46.98,21.03,46.98,46.97v88.73Z"/>
    <text class="cls-1" transform="translate(935.64 257.7)"><tspan x="0" y="0">Find out who you are and do it on purpose</tspan></text>
    <text class="cls-7" transform="translate(1052.49 458.6) rotate(-6)"><tspan x="0" y="0">asd</tspan></text>
    <g>
      <path class="cls-4" d="m1906.29,626.1c-.92,0-1.83.25-2.72.74-.89.5-1.6,1.14-2.13,1.93l-22.18,33.17-21.58-33.17c-.53-.79-1.29-1.44-2.28-1.93-.99-.5-1.98-.74-2.97-.74-1.72,0-3.19.59-4.41,1.78-1.22,1.19-1.83,2.61-1.83,4.26v57.32c0,1.72.53,3.15,1.58,4.31,1.06,1.16,2.41,1.73,4.06,1.73s3.1-.56,4.16-1.68c1.05-1.12,1.58-2.57,1.58-4.36v-40.79l16.33,25.84c.66.79,1.42,1.44,2.28,1.93.86.5,1.72.71,2.57.64.92.07,1.81-.15,2.67-.64.86-.5,1.62-1.14,2.28-1.93l16.34-24.95v39.9c0,1.78.58,3.23,1.73,4.36,1.15,1.12,2.66,1.68,4.5,1.68s3.33-.58,4.46-1.73c1.12-1.15,1.68-2.59,1.68-4.31v-57.32c0-1.71-.61-3.15-1.83-4.31-1.22-1.15-2.66-1.73-4.31-1.73Z"/>
      <path class="cls-4" d="m1931.53,642.54c-1.72,0-3.14.58-4.26,1.73-1.12,1.16-1.68,2.59-1.68,4.31v40.89c0,1.72.56,3.15,1.68,4.31,1.12,1.16,2.54,1.73,4.26,1.73s3.13-.58,4.26-1.73c1.12-1.15,1.68-2.59,1.68-4.31v-40.89c0-1.72-.56-3.15-1.68-4.31-1.12-1.15-2.54-1.73-4.26-1.73Z"/>
      <path class="cls-4" d="m1931.53,624.32c-2.18,0-3.76.36-4.75,1.09-.99.73-1.49,2.01-1.49,3.86v1.88c0,1.85.46,3.13,1.39,3.86.92.73,2.51,1.09,4.75,1.09s3.94-.35,4.9-1.04,1.44-2,1.44-3.91v-1.88c0-1.85-.46-3.13-1.38-3.86-.93-.73-2.54-1.09-4.85-1.09Z"/>
      <path class="cls-4" d="m1986.67,681.84c-.86,0-1.58.13-2.18.4-.59.26-1.24.64-1.93,1.14-.69.5-1.24.84-1.63,1.04-1.58.79-3.99,1.19-7.23,1.19-4.42,0-8.05-1.57-10.89-4.7-2.84-3.13-4.26-7.08-4.26-11.83s1.4-8.96,4.21-12.03c2.8-3.07,6.68-4.6,11.63-4.6.79,0,1.83.13,3.12.4,1.29.26,2.26.56,2.92.89.59.33,1.2.74,1.83,1.24.63.49,1.27.89,1.93,1.19.66.3,1.52.45,2.57.45,1.39,0,2.51-.54,3.37-1.63.86-1.09,1.29-2.36,1.29-3.81,0-2.9-1.72-5.23-5.15-6.98-3.43-1.75-7.95-2.62-13.56-2.62-5.02,0-9.5,1.17-13.46,3.51-3.96,2.34-7.04,5.59-9.26,9.75-2.21,4.16-3.32,8.91-3.32,14.26s1.05,9.82,3.17,14.01c2.11,4.19,5.1,7.47,8.96,9.85s8.33,3.56,13.41,3.56c3.43,0,6.67-.41,9.7-1.24,3.04-.83,5.48-1.93,7.33-3.32,1.85-1.39,2.77-2.87,2.77-4.45s-.48-3-1.44-4.06c-.96-1.05-2.26-1.58-3.91-1.58Z"/>
      <path class="cls-4" d="m2047.75,643.23c-1.12-1.12-2.54-1.68-4.26-1.68s-3.14.58-4.26,1.73c-1.12,1.16-1.68,2.59-1.68,4.31v.1c-1.91-1.78-4.26-3.25-7.03-4.41-2.77-1.15-5.74-1.73-8.91-1.73-4.42,0-8.46,1.17-12.13,3.51-3.66,2.34-6.55,5.61-8.66,9.8-2.11,4.19-3.17,8.93-3.17,14.21s1.07,10,3.22,14.16c2.14,4.16,5.06,7.41,8.76,9.75,3.7,2.34,7.82,3.51,12.38,3.51,3.1,0,6.05-.68,8.86-2.03,2.8-1.35,5.03-2.99,6.68-4.9.07,1.72.64,3.14,1.73,4.26,1.09,1.12,2.49,1.68,4.21,1.68s3.13-.58,4.26-1.73c1.12-1.15,1.68-2.59,1.68-4.31v-41.88c0-1.78-.56-3.23-1.68-4.36Zm-13.76,37.67c-2.71,3.14-6.2,4.7-10.49,4.7s-7.77-1.57-10.45-4.7c-2.67-3.13-4.01-7.08-4.01-11.83s1.35-8.71,4.06-11.88c2.71-3.17,6.17-4.75,10.4-4.75s7.79,1.58,10.49,4.75c2.71,3.17,4.06,7.13,4.06,11.88s-1.35,8.7-4.06,11.83Z"/>
    </g>
    <g>
      <path class="cls-6" d="m2182.69,163.93v34.93h.07v20.22h-.07v9.29c.03,22.16-8.76,43.41-24.43,59.08-15.67,15.67-36.92,24.46-59.08,24.43h-302.73c-22.15.02-43.4-8.77-59.07-24.44-15.66-15.66-24.46-36.91-24.44-59.07v-9.29h-.05v-20.22h.05v-34.93h-.05v-20.22h.05v-9.28c-.02-22.16,8.78-43.41,24.44-59.08,15.67-15.66,36.92-24.45,59.07-24.44h302.73c22.16,0,43.41,8.78,59.07,24.44s24.46,36.92,24.44,59.08v9.28h.07v20.22h-.07Z"/>
      <path class="cls-6" d="m2182.69,426.42v34.93h.07v20.22h-.07v9.29c.03,22.16-8.76,43.41-24.43,59.08-15.67,15.67-36.92,24.46-59.08,24.43h-302.73c-22.15.02-43.4-8.77-59.07-24.44-15.66-15.66-24.46-36.91-24.44-59.07v-9.29h-.05v-20.22h.05v-34.93h-.05v-20.22h.05v-9.28c-.02-22.16,8.78-43.41,24.44-59.08,15.67-15.66,36.92-24.45,59.07-24.44h302.73c22.16-.01,43.41,8.78,59.07,24.44,15.67,15.67,24.46,36.92,24.44,59.08v9.28h.07v20.22h-.07Z"/>
    </g>
    <g>
      <g>
        <path class="cls-4" d="m1467.19,662.91v7.06c0,1.66,1.94,3,4.3,3h.83c2.37,0,4.29,1.35,4.29,3v7.07c0,1.66-1.92,3-4.29,3h-42.44c-2.36,0-4.29-1.34-4.29-3v-7.07c0-1.65,1.93-3,4.29-3h.83c2.38,0,4.3-1.34,4.3-3v-7.06c0-1.64-1.91-2.99-4.27-3v-.04h-42.58v.05c-2.27.06-4.12,1.38-4.12,2.99v7.06c0,1.66,1.93,3,4.29,3h.83c2.38,0,4.3,1.35,4.3,3v7.07c0,1.66-1.92,3-4.3,3h-42.43c-2.36,0-4.3-1.34-4.3-3v-7.07c0-1.65,1.94-3,4.3-3h.83c2.37,0,4.29-1.34,4.29-3v-7.06c0-1.64-1.9-2.99-4.26-3v-.04h-29.41V0h29.4v.04c2.36.01,4.27,1.36,4.27,3v7.06c0,1.66-1.92,3-4.3,3h-.83c-2.36,0-4.29,1.35-4.29,3v7.07c0,1.66,1.93,3,4.29,3h42.44c2.38,0,4.29-1.34,4.29-3v-7.07c0-1.65-1.91-3-4.29-3h-.83c-2.36,0-4.29-1.34-4.29-3V3.04c0-1.61,1.84-2.93,4.12-2.99v-.05h42.58v.04c2.36.01,4.26,1.36,4.26,3v7.06c0,1.66-1.91,3-4.29,3h-.83c-2.36,0-4.29,1.35-4.29,3v7.07c0,1.66,1.93,3,4.29,3h42.44c2.37,0,4.29-1.34,4.29-3v-7.07c0-1.65-1.92-3-4.29-3h-.83c-2.37,0-4.3-1.34-4.3-3V3.04c0-1.61,1.85-2.93,4.12-2.99v-.05h29.55v659.87h-29.54v.05c-2.28.06-4.13,1.38-4.13,2.99Z"/>
        <rect class="cls-6" x="1323.85" y="30.53" width="8.5" height="20.23"/>
        <rect class="cls-6" x="1323.85" y="249.08" width="8.5" height="16.18"/>
        <rect class="cls-6" x="1323.85" y="420.79" width="8.5" height="16.18"/>
        <rect class="cls-6" x="1323.85" y="635.29" width="8.5" height="20.23"/>
        <rect class="cls-6" x="1486.69" y="30.53" width="8.5" height="20.23"/>
        <rect class="cls-6" x="1486.69" y="249.08" width="8.5" height="16.18"/>
        <rect class="cls-6" x="1486.69" y="420.79" width="8.5" height="16.18"/>
        <rect class="cls-6" x="1486.69" y="635.29" width="8.5" height="20.23"/>
        <g id="POLYLINE">
          <line class="cls-6" x1="1415.06" y1="65.27" x2="1491.3" y2="65.27"/>
        </g>
        <g id="POLYLINE-2" data-name="POLYLINE">
          <line class="cls-6" x1="1415.06" y1="75.81" x2="1491.3" y2="75.81"/>
        </g>
        <g id="POLYLINE-3" data-name="POLYLINE">
          <line class="cls-6" x1="1371.69" y1="81.08" x2="1447.92" y2="81.08"/>
        </g>
        <g id="POLYLINE-4" data-name="POLYLINE">
          <line class="cls-6" x1="1415.06" y1="86.35" x2="1491.3" y2="86.35"/>
        </g>
        <g id="POLYLINE-5" data-name="POLYLINE">
          <line class="cls-6" x1="1371.69" y1="91.62" x2="1447.92" y2="91.62"/>
        </g>
        <g id="POLYLINE-6" data-name="POLYLINE">
          <line class="cls-6" x1="1415.06" y1="98.07" x2="1491.3" y2="98.07"/>
        </g>
        <g id="POLYLINE-7" data-name="POLYLINE">
          <line class="cls-6" x1="1371.69" y1="103.34" x2="1447.92" y2="103.34"/>
        </g>
        <g id="POLYLINE-8" data-name="POLYLINE">
          <line class="cls-6" x1="1371.69" y1="124.42" x2="1447.92" y2="124.42"/>
        </g>
        <g id="POLYLINE-9" data-name="POLYLINE">
          <line class="cls-6" x1="1415.06" y1="108.61" x2="1491.3" y2="108.61"/>
        </g>
        <g id="POLYLINE-10" data-name="POLYLINE">
          <line class="cls-6" x1="1371.69" y1="113.88" x2="1447.92" y2="113.88"/>
        </g>
        <g id="POLYLINE-11" data-name="POLYLINE">
          <line class="cls-6" x1="1415.06" y1="130.87" x2="1491.3" y2="130.87"/>
        </g>
        <g id="POLYLINE-12" data-name="POLYLINE">
          <line class="cls-6" x1="1371.69" y1="136.14" x2="1447.92" y2="136.14"/>
        </g>
        <g id="POLYLINE-13" data-name="POLYLINE">
          <line class="cls-6" x1="1415.06" y1="119.15" x2="1491.3" y2="119.15"/>
        </g>
        <g id="POLYLINE-14" data-name="POLYLINE">
          <line class="cls-6" x1="1371.69" y1="157.21" x2="1447.92" y2="157.21"/>
        </g>
        <g id="POLYLINE-15" data-name="POLYLINE">
          <line class="cls-6" x1="1371.69" y1="146.68" x2="1447.92" y2="146.68"/>
        </g>
        <g id="POLYLINE-16" data-name="POLYLINE">
          <line class="cls-6" x1="1415.06" y1="141.41" x2="1491.3" y2="141.41"/>
        </g>
        <g id="POLYLINE-17" data-name="POLYLINE">
          <line class="cls-6" x1="1415.06" y1="151.95" x2="1491.3" y2="151.95"/>
        </g>
        <g id="POLYLINE-18" data-name="POLYLINE">
          <line class="cls-6" x1="1415.06" y1="163.67" x2="1491.3" y2="163.67"/>
        </g>
        <g id="POLYLINE-19" data-name="POLYLINE">
          <line class="cls-6" x1="1415.06" y1="174.21" x2="1491.3" y2="174.21"/>
        </g>
        <g id="POLYLINE-20" data-name="POLYLINE">
          <line class="cls-6" x1="1415.06" y1="185.93" x2="1491.3" y2="185.93"/>
        </g>
        <g id="POLYLINE-21" data-name="POLYLINE">
          <line class="cls-6" x1="1371.69" y1="168.94" x2="1447.92" y2="168.94"/>
        </g>
        <g id="POLYLINE-22" data-name="POLYLINE">
          <line class="cls-6" x1="1371.69" y1="179.47" x2="1447.92" y2="179.47"/>
        </g>
        <g id="POLYLINE-23" data-name="POLYLINE">
          <line class="cls-6" x1="1371.69" y1="191.2" x2="1447.92" y2="191.2"/>
        </g>
        <g id="POLYLINE-24" data-name="POLYLINE">
          <line class="cls-6" x1="1414.7" y1="499.82" x2="1490.94" y2="499.82"/>
        </g>
        <g id="POLYLINE-25" data-name="POLYLINE">
          <line class="cls-6" x1="1414.7" y1="510.36" x2="1490.94" y2="510.36"/>
        </g>
        <g id="POLYLINE-26" data-name="POLYLINE">
          <line class="cls-6" x1="1371.33" y1="515.63" x2="1447.56" y2="515.63"/>
        </g>
        <g id="POLYLINE-27" data-name="POLYLINE">
          <line class="cls-6" x1="1414.7" y1="520.9" x2="1490.94" y2="520.9"/>
        </g>
        <g id="POLYLINE-28" data-name="POLYLINE">
          <line class="cls-6" x1="1371.33" y1="526.17" x2="1447.56" y2="526.17"/>
        </g>
        <g id="POLYLINE-29" data-name="POLYLINE">
          <line class="cls-6" x1="1414.7" y1="532.62" x2="1490.94" y2="532.62"/>
        </g>
        <g id="POLYLINE-30" data-name="POLYLINE">
          <line class="cls-6" x1="1371.33" y1="537.89" x2="1447.56" y2="537.89"/>
        </g>
        <g id="POLYLINE-31" data-name="POLYLINE">
          <line class="cls-6" x1="1371.33" y1="558.96" x2="1447.56" y2="558.96"/>
        </g>
        <g id="POLYLINE-32" data-name="POLYLINE">
          <line class="cls-6" x1="1414.7" y1="543.16" x2="1490.94" y2="543.16"/>
        </g>
        <g id="POLYLINE-33" data-name="POLYLINE">
          <line class="cls-6" x1="1371.33" y1="548.43" x2="1447.56" y2="548.43"/>
        </g>
        <g id="POLYLINE-34" data-name="POLYLINE">
          <line class="cls-6" x1="1414.7" y1="565.42" x2="1490.94" y2="565.42"/>
        </g>
        <g id="POLYLINE-35" data-name="POLYLINE">
          <line class="cls-6" x1="1371.33" y1="570.69" x2="1447.56" y2="570.69"/>
        </g>
        <g id="POLYLINE-36" data-name="POLYLINE">
          <line class="cls-6" x1="1414.7" y1="553.7" x2="1490.94" y2="553.7"/>
        </g>
        <g id="POLYLINE-37" data-name="POLYLINE">
          <line class="cls-6" x1="1371.33" y1="591.76" x2="1447.56" y2="591.76"/>
        </g>
        <g id="POLYLINE-38" data-name="POLYLINE">
          <line class="cls-6" x1="1371.33" y1="581.22" x2="1447.56" y2="581.22"/>
        </g>
        <g id="POLYLINE-39" data-name="POLYLINE">
          <line class="cls-6" x1="1414.7" y1="575.96" x2="1490.94" y2="575.96"/>
        </g>
        <g id="POLYLINE-40" data-name="POLYLINE">
          <line class="cls-6" x1="1414.7" y1="586.49" x2="1490.94" y2="586.49"/>
        </g>
        <g id="POLYLINE-41" data-name="POLYLINE">
          <line class="cls-6" x1="1414.7" y1="598.22" x2="1490.94" y2="598.22"/>
        </g>
        <g id="POLYLINE-42" data-name="POLYLINE">
          <line class="cls-6" x1="1414.7" y1="608.75" x2="1490.94" y2="608.75"/>
        </g>
        <g id="POLYLINE-43" data-name="POLYLINE">
          <line class="cls-6" x1="1414.7" y1="620.48" x2="1490.94" y2="620.48"/>
        </g>
        <g id="POLYLINE-44" data-name="POLYLINE">
          <line class="cls-6" x1="1371.33" y1="603.49" x2="1447.56" y2="603.49"/>
        </g>
        <g id="POLYLINE-45" data-name="POLYLINE">
          <line class="cls-6" x1="1371.33" y1="614.02" x2="1447.56" y2="614.02"/>
        </g>
        <g id="POLYLINE-46" data-name="POLYLINE">
          <line class="cls-6" x1="1371.33" y1="625.75" x2="1447.56" y2="625.75"/>
        </g>
      </g>
      <g>
        <path class="cls-4" d="m1652.62,662.9v7.06c0,1.66,1.93,3,4.3,3h.83c2.37,0,4.29,1.35,4.29,3v7.07c0,1.66-1.92,3-4.29,3h-42.44c-2.36,0-4.29-1.34-4.29-3v-7.07c0-1.65,1.93-3,4.29-3h.83c2.38,0,4.29-1.34,4.29-3v-7.06c0-1.64-1.9-2.99-4.26-3v-.04h-42.58v.05c-2.28.06-4.12,1.38-4.12,2.99v7.06c0,1.66,1.93,3,4.29,3h.83c2.38,0,4.29,1.35,4.29,3v7.07c0,1.66-1.91,3-4.29,3h-42.44c-2.36,0-4.29-1.34-4.29-3v-7.07c0-1.65,1.93-3,4.29-3h.83c2.38,0,4.3-1.34,4.3-3v-7.06c0-1.64-1.91-2.99-4.27-3v-.04h-29.4V0h29.4v.04c2.36.01,4.27,1.36,4.27,3v7.06c0,1.66-1.92,3-4.3,3h-.83c-2.36,0-4.29,1.35-4.29,3v7.07c0,1.66,1.93,3,4.29,3h42.44c2.38,0,4.29-1.34,4.29-3v-7.07c0-1.65-1.91-3-4.29-3h-.83c-2.36,0-4.29-1.34-4.29-3V3.04c0-1.61,1.84-2.93,4.12-2.99V0h42.58v.04c2.36.01,4.26,1.36,4.26,3v7.06c0,1.66-1.91,3-4.29,3h-.83c-2.36,0-4.29,1.35-4.29,3v7.07c0,1.66,1.93,3,4.29,3h42.44c2.37,0,4.29-1.34,4.29-3v-7.07c0-1.65-1.92-3-4.29-3h-.83c-2.37,0-4.3-1.34-4.3-3V3.04c0-1.61,1.85-2.93,4.12-2.99V0h29.55v659.86h-29.55v.05c-2.27.06-4.12,1.38-4.12,2.99Z"/>
        <g>
          <g>
            <g id="POLYLINE-47" data-name="POLYLINE">
              <line class="cls-6" x1="1589.41" y1="620.16" x2="1513.18" y2="620.16"/>
            </g>
            <g id="POLYLINE-48" data-name="POLYLINE">
              <line class="cls-6" x1="1589.41" y1="609.62" x2="1513.18" y2="609.62"/>
            </g>
            <g id="POLYLINE-49" data-name="POLYLINE">
              <line class="cls-6" x1="1632.78" y1="604.35" x2="1556.55" y2="604.35"/>
            </g>
            <g id="POLYLINE-50" data-name="POLYLINE">
              <line class="cls-6" x1="1589.41" y1="599.08" x2="1513.18" y2="599.08"/>
            </g>
            <g id="POLYLINE-51" data-name="POLYLINE">
              <line class="cls-6" x1="1632.78" y1="593.81" x2="1556.55" y2="593.81"/>
            </g>
            <g id="POLYLINE-52" data-name="POLYLINE">
              <line class="cls-6" x1="1589.41" y1="587.36" x2="1513.18" y2="587.36"/>
            </g>
            <g id="POLYLINE-53" data-name="POLYLINE">
              <line class="cls-6" x1="1632.78" y1="582.09" x2="1556.55" y2="582.09"/>
            </g>
            <g id="POLYLINE-54" data-name="POLYLINE">
              <line class="cls-6" x1="1632.78" y1="561.02" x2="1556.55" y2="561.02"/>
            </g>
            <g id="POLYLINE-55" data-name="POLYLINE">
              <line class="cls-6" x1="1589.41" y1="576.82" x2="1513.18" y2="576.82"/>
            </g>
            <g id="POLYLINE-56" data-name="POLYLINE">
              <line class="cls-6" x1="1632.78" y1="571.55" x2="1556.55" y2="571.55"/>
            </g>
            <g id="POLYLINE-57" data-name="POLYLINE">
              <line class="cls-6" x1="1589.41" y1="554.56" x2="1513.18" y2="554.56"/>
            </g>
            <g id="POLYLINE-58" data-name="POLYLINE">
              <line class="cls-6" x1="1632.78" y1="549.29" x2="1556.55" y2="549.29"/>
            </g>
            <g id="POLYLINE-59" data-name="POLYLINE">
              <line class="cls-6" x1="1589.41" y1="566.29" x2="1513.18" y2="566.29"/>
            </g>
            <g id="POLYLINE-60" data-name="POLYLINE">
              <line class="cls-6" x1="1632.78" y1="528.22" x2="1556.55" y2="528.22"/>
            </g>
            <g id="POLYLINE-61" data-name="POLYLINE">
              <line class="cls-6" x1="1632.78" y1="538.76" x2="1556.55" y2="538.76"/>
            </g>
            <g id="POLYLINE-62" data-name="POLYLINE">
              <line class="cls-6" x1="1589.41" y1="544.03" x2="1513.18" y2="544.02"/>
            </g>
            <g id="POLYLINE-63" data-name="POLYLINE">
              <line class="cls-6" x1="1589.41" y1="533.49" x2="1513.18" y2="533.49"/>
            </g>
            <g id="POLYLINE-64" data-name="POLYLINE">
              <line class="cls-6" x1="1589.41" y1="521.76" x2="1513.18" y2="521.76"/>
            </g>
            <g id="POLYLINE-65" data-name="POLYLINE">
              <line class="cls-6" x1="1589.41" y1="511.23" x2="1513.18" y2="511.23"/>
            </g>
            <g id="POLYLINE-66" data-name="POLYLINE">
              <line class="cls-6" x1="1589.41" y1="499.5" x2="1513.18" y2="499.5"/>
            </g>
            <g id="POLYLINE-67" data-name="POLYLINE">
              <line class="cls-6" x1="1632.78" y1="516.5" x2="1556.55" y2="516.5"/>
            </g>
            <g id="POLYLINE-68" data-name="POLYLINE">
              <line class="cls-6" x1="1632.78" y1="505.96" x2="1556.55" y2="505.96"/>
            </g>
            <g id="POLYLINE-69" data-name="POLYLINE">
              <line class="cls-6" x1="1632.78" y1="494.24" x2="1556.55" y2="494.24"/>
            </g>
            <g id="POLYLINE-70" data-name="POLYLINE">
              <line class="cls-6" x1="1589.77" y1="186.22" x2="1513.54" y2="186.22"/>
            </g>
            <g id="POLYLINE-71" data-name="POLYLINE">
              <line class="cls-6" x1="1589.77" y1="175.69" x2="1513.54" y2="175.69"/>
            </g>
            <g id="POLYLINE-72" data-name="POLYLINE">
              <line class="cls-6" x1="1633.14" y1="170.42" x2="1556.91" y2="170.42"/>
            </g>
            <g id="POLYLINE-73" data-name="POLYLINE">
              <line class="cls-6" x1="1589.77" y1="165.15" x2="1513.54" y2="165.15"/>
            </g>
            <g id="POLYLINE-74" data-name="POLYLINE">
              <line class="cls-6" x1="1633.14" y1="159.88" x2="1556.91" y2="159.88"/>
            </g>
            <g id="POLYLINE-75" data-name="POLYLINE">
              <line class="cls-6" x1="1589.77" y1="153.43" x2="1513.54" y2="153.43"/>
            </g>
            <g id="POLYLINE-76" data-name="POLYLINE">
              <line class="cls-6" x1="1633.14" y1="148.16" x2="1556.91" y2="148.16"/>
            </g>
            <g id="POLYLINE-77" data-name="POLYLINE">
              <line class="cls-6" x1="1633.14" y1="127.08" x2="1556.91" y2="127.08"/>
            </g>
            <g id="POLYLINE-78" data-name="POLYLINE">
              <line class="cls-6" x1="1589.77" y1="142.89" x2="1513.54" y2="142.89"/>
            </g>
            <g id="POLYLINE-79" data-name="POLYLINE">
              <line class="cls-6" x1="1633.14" y1="137.62" x2="1556.91" y2="137.62"/>
            </g>
            <g id="POLYLINE-80" data-name="POLYLINE">
              <line class="cls-6" x1="1589.77" y1="120.63" x2="1513.54" y2="120.63"/>
            </g>
            <g id="POLYLINE-81" data-name="POLYLINE">
              <line class="cls-6" x1="1633.14" y1="115.36" x2="1556.91" y2="115.36"/>
            </g>
            <g id="POLYLINE-82" data-name="POLYLINE">
              <line class="cls-6" x1="1589.77" y1="132.35" x2="1513.54" y2="132.35"/>
            </g>
            <g id="POLYLINE-83" data-name="POLYLINE">
              <line class="cls-6" x1="1633.14" y1="94.28" x2="1556.91" y2="94.28"/>
            </g>
            <g id="POLYLINE-84" data-name="POLYLINE">
              <line class="cls-6" x1="1633.14" y1="104.82" x2="1556.91" y2="104.82"/>
            </g>
            <g id="POLYLINE-85" data-name="POLYLINE">
              <line class="cls-6" x1="1589.77" y1="110.09" x2="1513.54" y2="110.09"/>
            </g>
            <g id="POLYLINE-86" data-name="POLYLINE">
              <line class="cls-6" x1="1589.77" y1="99.55" x2="1513.54" y2="99.55"/>
            </g>
            <g id="POLYLINE-87" data-name="POLYLINE">
              <line class="cls-6" x1="1589.77" y1="87.83" x2="1513.54" y2="87.83"/>
            </g>
            <g id="POLYLINE-88" data-name="POLYLINE">
              <line class="cls-6" x1="1589.77" y1="77.29" x2="1513.54" y2="77.29"/>
            </g>
            <g id="POLYLINE-89" data-name="POLYLINE">
              <line class="cls-6" x1="1589.77" y1="65.57" x2="1513.54" y2="65.57"/>
            </g>
            <g id="POLYLINE-90" data-name="POLYLINE">
              <line class="cls-6" x1="1633.14" y1="82.56" x2="1556.91" y2="82.56"/>
            </g>
            <g id="POLYLINE-91" data-name="POLYLINE">
              <line class="cls-6" x1="1633.14" y1="72.02" x2="1556.91" y2="72.02"/>
            </g>
            <g id="POLYLINE-92" data-name="POLYLINE">
              <line class="cls-6" x1="1633.14" y1="60.3" x2="1556.91" y2="60.3"/>
            </g>
          </g>
          <g>
            <rect class="cls-6" x="1509.28" y="635.28" width="8.5" height="20.23"/>
            <rect class="cls-6" x="1672.12" y="635.28" width="8.5" height="20.23"/>
          </g>
          <path class="cls-6" d="m1607.71,221.32v243.09c0,5.48-4.44,9.92-9.92,9.92-2.74,0-5.22-1.11-7.02-2.9-1.79-1.8-2.9-4.28-2.9-7.02v-243.09c0-5.48,4.44-9.92,9.92-9.92s9.92,4.44,9.92,9.92Z"/>
          <g>
            <rect class="cls-6" x="1509.28" y="30.52" width="8.5" height="20.23"/>
            <rect class="cls-6" x="1672.12" y="30.52" width="8.5" height="20.23"/>
          </g>
          <rect class="cls-6" x="1672.12" y="332.75" width="8.5" height="20.23"/>
          <rect class="cls-6" x="1509.28" y="332.75" width="8.5" height="20.23"/>
        </g>
      </g>
    </g>
  </g>
</svg>