<?xml version="1.0" encoding="UTF-8"?>
<svg id="Layer_2" data-name="Layer 2" xmlns="http://www.w3.org/2000/svg" viewBox="0 0 2662.6 1147.58">
  <defs>
    <style>
      .cls-1 {
        font-size: 98px;
      }

      .cls-1, .cls-2 {
        font-family: #9Slide03QuicksandBold-Bold, '#9Slide03 Quicksand Bold';
      }

      .cls-1, .cls-2, .cls-3 {
        font-weight: 700;
      }

      .cls-2 {
        font-size: 480px;
      }

      .cls-4, .cls-5, .cls-6 {
        stroke-width: 0px;
      }

      .cls-5, .cls-7 {
        fill: #edd2ce;
      }

      .cls-8 {
        letter-spacing: 0em;
      }

      .cls-6 {
        fill: #fff;
      }

      .cls-7 {
        font-family: SharkBlindateRegular, 'Shark Blindate';
        font-size: 184.5px;
        stroke: #edd2ce;
        stroke-linecap: round;
        stroke-linejoin: round;
        stroke-width: 2px;
      }

      .cls-3 {
        font-family: AmaticSC-Bold, 'Amatic SC';
        font-size: 30.75px;
      }
    </style>
  </defs>
  <g id="Layer_1-2" data-name="Layer 1">
    <text class="cls-2" transform="translate(0 637.79)"><tspan x="0" y="0">M</tspan></text>
    <text class="cls-1" transform="translate(1148.53 1117.89)"><tspan x="0" y="0">Co</tspan><tspan class="cls-8" x="121.62" y="0">l</tspan><tspan x="147.1" y="0">or</tspan></text>
    <g>
      <path class="cls-6" d="m2662.56,280.1v48.8h.04v28.27h-.04v12.98c.04,30.97-12.24,60.66-34.14,82.56-21.9,21.9-51.6,34.19-82.57,34.15h-80.24v.04h-22.62v-.04h-217.36v.04h-22.62v-.04h-80.24c-30.95.02-60.65-12.26-82.55-34.16-21.18-21.18-33.38-49.66-34.12-79.54v-137.31c.74-29.88,12.94-58.37,34.12-79.55,21.9-21.89,51.6-34.17,82.55-34.16h197.42v-.04h28.26v.04h197.4c30.97-.01,60.67,12.27,82.55,34.16,21.9,21.89,34.19,51.59,34.16,82.56v12.97h.04v28.27h-.04Z"/>
      <path class="cls-6" d="m2662.56,651.46v48.8h.04v28.27h-.04v12.98c.04,30.97-12.24,60.66-34.14,82.56-21.9,21.9-51.6,34.19-82.57,34.15h-80.24v.04h-22.62v-.04h-217.36v.04h-22.62v-.04h-80.24c-30.95.02-60.65-12.26-82.55-34.16-21.18-21.18-33.38-49.66-34.12-79.54v-137.31c.74-29.88,12.94-58.37,34.12-79.55,21.9-21.89,51.6-34.17,82.55-34.16h197.42v-.04h28.26v.04h197.4c30.97-.01,60.67,12.27,82.55,34.16,21.9,21.89,34.19,51.59,34.16,82.56v12.97h.04v28.27h-.04Z"/>
    </g>
    <text class="cls-7" transform="translate(1067.43 643.88) rotate(-6)"><tspan x="0" y="0">asd</tspan></text>
    <path class="cls-5" d="m1443.87,541.42v-28.27h-8.5v-12.97c.03-30.97-12.26-60.67-34.16-82.57-21.89-21.89-51.58-34.17-82.55-34.16h-197.4v-8.5h-28.26v8.5h-197.42c-30.96-.01-60.65,12.27-82.55,34.16-21.89,21.9-34.18,51.6-34.16,82.57v12.97h-8.43v28.27h8.43v48.81h-8.43v28.27h8.43v12.98c-.03,30.97,12.27,60.67,34.16,82.55,21.9,21.9,51.6,34.18,82.55,34.16h80.24v8.5h22.61v-8.5h217.37v8.5h22.61v-8.5h80.24c30.97.04,60.67-12.24,82.57-34.14,21.9-21.9,34.18-51.6,34.14-82.57v-12.98h8.5v-28.27h-8.5v-48.81h8.5Zm-63.2,86.4c0,36.27-29.4,65.66-65.66,65.66h-415.77c-36.27,0-65.66-29.39-65.66-65.66v-124c0-36.25,29.39-65.64,65.66-65.64h415.77c36.25,0,65.66,29.39,65.66,65.64v124Z"/>
    <path class="cls-5" d="m1443.87,166.46v-28.27h-8.5v-12.97c.03-30.97-12.26-60.67-34.16-82.57-21.89-21.89-51.58-34.17-82.55-34.16h-197.4V0h-28.26v8.5h-197.42c-30.96-.01-60.65,12.27-82.55,34.16-21.89,21.9-34.18,51.6-34.16,82.57v12.97h-8.43v28.27h8.43v48.81h-8.43v28.27h8.43v12.98c-.03,30.97,12.27,60.67,34.16,82.55,21.9,21.9,51.6,34.18,82.55,34.16h80.24v8.5h22.61v-8.5h217.37v8.5h22.61v-8.5h80.24c30.97.04,60.67-12.24,82.57-34.14,21.9-21.9,34.18-51.6,34.14-82.57v-12.98h8.5v-28.27h-8.5v-48.81h8.5Zm-63.2,86.4c0,36.27-29.4,65.66-65.66,65.66h-415.77c-36.27,0-65.66-29.39-65.66-65.66v-124c0-36.25,29.39-65.64,65.66-65.64h415.77c36.25,0,65.66,29.39,65.66,65.64v124Z"/>
    <text class="cls-3" transform="translate(919.48 357.71)"><tspan x="0" y="0">Find out who you are and do it on purpose</tspan></text>
    <g>
      <path class="cls-4" d="m2282.71,904.32c-.92,0-1.83.25-2.72.74-.89.5-1.6,1.14-2.13,1.93l-22.18,33.17-21.58-33.17c-.53-.79-1.29-1.44-2.28-1.93-.99-.5-1.98-.74-2.97-.74-1.72,0-3.19.59-4.41,1.78-1.22,1.19-1.83,2.61-1.83,4.26v57.32c0,1.72.53,3.15,1.58,4.31,1.06,1.16,2.41,1.73,4.06,1.73s3.1-.56,4.16-1.68c1.05-1.12,1.58-2.57,1.58-4.36v-40.79l16.33,25.84c.66.79,1.42,1.44,2.28,1.93.86.5,1.72.71,2.57.64.92.07,1.81-.15,2.67-.64.86-.5,1.62-1.14,2.28-1.93l16.34-24.95v39.9c0,1.78.58,3.23,1.73,4.36,1.15,1.12,2.66,1.68,4.5,1.68s3.33-.58,4.46-1.73c1.12-1.15,1.68-2.59,1.68-4.31v-57.32c0-1.71-.61-3.15-1.83-4.31-1.22-1.15-2.66-1.73-4.31-1.73Z"/>
      <path class="cls-4" d="m2307.95,920.75c-1.72,0-3.14.58-4.26,1.73-1.12,1.16-1.68,2.59-1.68,4.31v40.89c0,1.72.56,3.15,1.68,4.31,1.12,1.16,2.54,1.73,4.26,1.73s3.13-.58,4.26-1.73c1.12-1.15,1.68-2.59,1.68-4.31v-40.89c0-1.72-.56-3.15-1.68-4.31-1.12-1.15-2.54-1.73-4.26-1.73Z"/>
      <path class="cls-4" d="m2307.95,902.53c-2.18,0-3.76.36-4.75,1.09-.99.73-1.49,2.01-1.49,3.86v1.88c0,1.85.46,3.13,1.39,3.86.92.73,2.51,1.09,4.75,1.09s3.94-.35,4.9-1.04,1.44-2,1.44-3.91v-1.88c0-1.85-.46-3.13-1.38-3.86-.93-.73-2.54-1.09-4.85-1.09Z"/>
      <path class="cls-4" d="m2363.09,960.05c-.86,0-1.58.13-2.18.4-.59.26-1.24.64-1.93,1.14-.69.5-1.24.84-1.63,1.04-1.58.79-3.99,1.19-7.23,1.19-4.42,0-8.05-1.57-10.89-4.7-2.84-3.13-4.26-7.08-4.26-11.83s1.4-8.96,4.21-12.03c2.8-3.07,6.68-4.6,11.63-4.6.79,0,1.83.13,3.12.4,1.29.26,2.26.56,2.92.89.59.33,1.2.74,1.83,1.24.63.49,1.27.89,1.93,1.19.66.3,1.52.45,2.57.45,1.39,0,2.51-.54,3.37-1.63.86-1.09,1.29-2.36,1.29-3.81,0-2.9-1.72-5.23-5.15-6.98-3.43-1.75-7.95-2.62-13.56-2.62-5.02,0-9.5,1.17-13.46,3.51-3.96,2.34-7.04,5.59-9.26,9.75-2.21,4.16-3.32,8.91-3.32,14.26s1.05,9.82,3.17,14.01c2.11,4.19,5.1,7.47,8.96,9.85s8.33,3.56,13.41,3.56c3.43,0,6.67-.41,9.7-1.24,3.04-.83,5.48-1.93,7.33-3.32,1.85-1.39,2.77-2.87,2.77-4.45s-.48-3-1.44-4.06c-.96-1.05-2.26-1.58-3.91-1.58Z"/>
      <path class="cls-4" d="m2424.17,921.44c-1.12-1.12-2.54-1.68-4.26-1.68s-3.14.58-4.26,1.73c-1.12,1.16-1.68,2.59-1.68,4.31v.1c-1.91-1.78-4.26-3.25-7.03-4.41-2.77-1.15-5.74-1.73-8.91-1.73-4.42,0-8.46,1.17-12.13,3.51-3.66,2.34-6.55,5.61-8.66,9.8-2.11,4.19-3.17,8.93-3.17,14.21s1.07,10,3.22,14.16c2.14,4.16,5.06,7.41,8.76,9.75,3.7,2.34,7.82,3.51,12.38,3.51,3.1,0,6.05-.68,8.86-2.03,2.8-1.35,5.03-2.99,6.68-4.9.07,1.72.64,3.14,1.73,4.26,1.09,1.12,2.49,1.68,4.21,1.68s3.13-.58,4.26-1.73c1.12-1.15,1.68-2.59,1.68-4.31v-41.88c0-1.78-.56-3.23-1.68-4.36Zm-13.76,37.67c-2.71,3.14-6.2,4.7-10.49,4.7s-7.77-1.57-10.45-4.7c-2.67-3.13-4.01-7.08-4.01-11.83s1.35-8.71,4.06-11.88c2.71-3.17,6.17-4.75,10.4-4.75s7.79,1.58,10.49,4.75c2.71,3.17,4.06,7.13,4.06,11.88s-1.35,8.7-4.06,11.83Z"/>
    </g>
    <g>
      <g>
        <path class="cls-4" d="m1659.94,926.44v9.87c0,2.32,2.71,4.19,6.01,4.19h1.16c3.31,0,6,1.89,6,4.19v9.88c0,2.32-2.68,4.19-6,4.19h-59.31c-3.3,0-6-1.87-6-4.19v-9.88c0-2.31,2.7-4.19,6-4.19h1.16c3.33,0,6.01-1.87,6.01-4.19v-9.87c0-2.29-2.67-4.18-5.97-4.19v-.06h-59.51v.07c-3.17.08-5.76,1.93-5.76,4.18v9.87c0,2.32,2.7,4.19,6,4.19h1.16c3.33,0,6.01,1.89,6.01,4.19v9.88c0,2.32-2.68,4.19-6.01,4.19h-59.3c-3.3,0-6.01-1.87-6.01-4.19v-9.88c0-2.31,2.71-4.19,6.01-4.19h1.16c3.31,0,6-1.87,6-4.19v-9.87c0-2.29-2.66-4.18-5.95-4.19v-.06h-41.1V0h41.09v.06c3.3.01,5.97,1.9,5.97,4.19v9.87c0,2.32-2.68,4.19-6.01,4.19h-1.16c-3.3,0-6,1.89-6,4.19v9.88c0,2.32,2.7,4.19,6,4.19h59.31c3.33,0,6-1.87,6-4.19v-9.88c0-2.31-2.67-4.19-6-4.19h-1.16c-3.3,0-6-1.87-6-4.19V4.25c0-2.25,2.57-4.09,5.76-4.18v-.07h59.51v.06c3.3.01,5.95,1.9,5.95,4.19v9.87c0,2.32-2.67,4.19-6,4.19h-1.16c-3.3,0-6,1.89-6,4.19v9.88c0,2.32,2.7,4.19,6,4.19h59.31c3.31,0,6-1.87,6-4.19v-9.88c0-2.31-2.68-4.19-6-4.19h-1.16c-3.31,0-6.01-1.87-6.01-4.19V4.25c0-2.25,2.59-4.09,5.76-4.18v-.07h41.3v922.19h-41.28v.07c-3.19.08-5.77,1.93-5.77,4.18Z"/>
        <rect class="cls-6" x="1461.31" y="42.67" width="8.5" height="28.27"/>
        <rect class="cls-6" x="1461.31" y="348.1" width="8.5" height="22.61"/>
        <rect class="cls-6" x="1461.31" y="588.07" width="8.5" height="22.61"/>
        <rect class="cls-6" x="1461.31" y="887.84" width="8.5" height="28.27"/>
        <rect class="cls-6" x="1688.88" y="42.67" width="8.5" height="28.27"/>
        <rect class="cls-6" x="1688.88" y="348.1" width="8.5" height="22.61"/>
        <rect class="cls-6" x="1688.88" y="588.07" width="8.5" height="22.61"/>
        <rect class="cls-6" x="1688.88" y="887.84" width="8.5" height="28.27"/>
        <g id="POLYLINE">
          <line class="cls-6" x1="1587.09" y1="91.22" x2="1693.63" y2="91.22"/>
        </g>
        <g id="POLYLINE-2" data-name="POLYLINE">
          <line class="cls-6" x1="1587.09" y1="105.95" x2="1693.63" y2="105.95"/>
        </g>
        <g id="POLYLINE-3" data-name="POLYLINE">
          <line class="cls-6" x1="1526.47" y1="113.31" x2="1633.01" y2="113.31"/>
        </g>
        <g id="POLYLINE-4" data-name="POLYLINE">
          <line class="cls-6" x1="1587.09" y1="120.68" x2="1693.63" y2="120.68"/>
        </g>
        <g id="POLYLINE-5" data-name="POLYLINE">
          <line class="cls-6" x1="1526.47" y1="128.04" x2="1633.01" y2="128.04"/>
        </g>
        <g id="POLYLINE-6" data-name="POLYLINE">
          <line class="cls-6" x1="1587.09" y1="137.06" x2="1693.63" y2="137.06"/>
        </g>
        <g id="POLYLINE-7" data-name="POLYLINE">
          <line class="cls-6" x1="1526.47" y1="144.42" x2="1633.01" y2="144.42"/>
        </g>
        <g id="POLYLINE-8" data-name="POLYLINE">
          <line class="cls-6" x1="1526.47" y1="173.88" x2="1633.01" y2="173.88"/>
        </g>
        <g id="POLYLINE-9" data-name="POLYLINE">
          <line class="cls-6" x1="1587.09" y1="151.79" x2="1693.63" y2="151.79"/>
        </g>
        <g id="POLYLINE-10" data-name="POLYLINE">
          <line class="cls-6" x1="1526.47" y1="159.15" x2="1633.01" y2="159.15"/>
        </g>
        <g id="POLYLINE-11" data-name="POLYLINE">
          <line class="cls-6" x1="1587.09" y1="182.9" x2="1693.63" y2="182.9"/>
        </g>
        <g id="POLYLINE-12" data-name="POLYLINE">
          <line class="cls-6" x1="1526.47" y1="190.26" x2="1633.01" y2="190.26"/>
        </g>
        <g id="POLYLINE-13" data-name="POLYLINE">
          <line class="cls-6" x1="1587.09" y1="166.51" x2="1693.63" y2="166.51"/>
        </g>
        <g id="POLYLINE-14" data-name="POLYLINE">
          <line class="cls-6" x1="1526.47" y1="219.71" x2="1633.01" y2="219.71"/>
        </g>
        <g id="POLYLINE-15" data-name="POLYLINE">
          <line class="cls-6" x1="1526.47" y1="204.99" x2="1633.01" y2="204.99"/>
        </g>
        <g id="POLYLINE-16" data-name="POLYLINE">
          <line class="cls-6" x1="1587.09" y1="197.62" x2="1693.63" y2="197.62"/>
        </g>
        <g id="POLYLINE-17" data-name="POLYLINE">
          <line class="cls-6" x1="1587.09" y1="212.35" x2="1693.63" y2="212.35"/>
        </g>
        <g id="POLYLINE-18" data-name="POLYLINE">
          <line class="cls-6" x1="1587.09" y1="228.73" x2="1693.63" y2="228.73"/>
        </g>
        <g id="POLYLINE-19" data-name="POLYLINE">
          <line class="cls-6" x1="1587.09" y1="243.46" x2="1693.63" y2="243.46"/>
        </g>
        <g id="POLYLINE-20" data-name="POLYLINE">
          <line class="cls-6" x1="1587.09" y1="259.84" x2="1693.63" y2="259.84"/>
        </g>
        <g id="POLYLINE-21" data-name="POLYLINE">
          <line class="cls-6" x1="1526.47" y1="236.1" x2="1633.01" y2="236.1"/>
        </g>
        <g id="POLYLINE-22" data-name="POLYLINE">
          <line class="cls-6" x1="1526.47" y1="250.82" x2="1633.01" y2="250.82"/>
        </g>
        <g id="POLYLINE-23" data-name="POLYLINE">
          <line class="cls-6" x1="1526.47" y1="267.2" x2="1633.01" y2="267.2"/>
        </g>
        <g id="POLYLINE-24" data-name="POLYLINE">
          <line class="cls-6" x1="1586.59" y1="698.52" x2="1693.13" y2="698.52"/>
        </g>
        <g id="POLYLINE-25" data-name="POLYLINE">
          <line class="cls-6" x1="1586.59" y1="713.25" x2="1693.13" y2="713.25"/>
        </g>
        <g id="POLYLINE-26" data-name="POLYLINE">
          <line class="cls-6" x1="1525.97" y1="720.61" x2="1632.51" y2="720.61"/>
        </g>
        <g id="POLYLINE-27" data-name="POLYLINE">
          <line class="cls-6" x1="1586.59" y1="727.97" x2="1693.13" y2="727.97"/>
        </g>
        <g id="POLYLINE-28" data-name="POLYLINE">
          <line class="cls-6" x1="1525.97" y1="735.34" x2="1632.51" y2="735.34"/>
        </g>
        <g id="POLYLINE-29" data-name="POLYLINE">
          <line class="cls-6" x1="1586.59" y1="744.36" x2="1693.13" y2="744.36"/>
        </g>
        <g id="POLYLINE-30" data-name="POLYLINE">
          <line class="cls-6" x1="1525.97" y1="751.72" x2="1632.51" y2="751.72"/>
        </g>
        <g id="POLYLINE-31" data-name="POLYLINE">
          <line class="cls-6" x1="1525.97" y1="781.17" x2="1632.51" y2="781.17"/>
        </g>
        <g id="POLYLINE-32" data-name="POLYLINE">
          <line class="cls-6" x1="1586.59" y1="759.08" x2="1693.13" y2="759.08"/>
        </g>
        <g id="POLYLINE-33" data-name="POLYLINE">
          <line class="cls-6" x1="1525.97" y1="766.45" x2="1632.51" y2="766.45"/>
        </g>
        <g id="POLYLINE-34" data-name="POLYLINE">
          <line class="cls-6" x1="1586.59" y1="790.19" x2="1693.13" y2="790.19"/>
        </g>
        <g id="POLYLINE-35" data-name="POLYLINE">
          <line class="cls-6" x1="1525.97" y1="797.56" x2="1632.51" y2="797.56"/>
        </g>
        <g id="POLYLINE-36" data-name="POLYLINE">
          <line class="cls-6" x1="1586.59" y1="773.81" x2="1693.13" y2="773.81"/>
        </g>
        <g id="POLYLINE-37" data-name="POLYLINE">
          <line class="cls-6" x1="1525.97" y1="827.01" x2="1632.51" y2="827.01"/>
        </g>
        <g id="POLYLINE-38" data-name="POLYLINE">
          <line class="cls-6" x1="1525.97" y1="812.28" x2="1632.51" y2="812.28"/>
        </g>
        <g id="POLYLINE-39" data-name="POLYLINE">
          <line class="cls-6" x1="1586.59" y1="804.92" x2="1693.13" y2="804.92"/>
        </g>
        <g id="POLYLINE-40" data-name="POLYLINE">
          <line class="cls-6" x1="1586.59" y1="819.65" x2="1693.13" y2="819.65"/>
        </g>
        <g id="POLYLINE-41" data-name="POLYLINE">
          <line class="cls-6" x1="1586.59" y1="836.03" x2="1693.13" y2="836.03"/>
        </g>
        <g id="POLYLINE-42" data-name="POLYLINE">
          <line class="cls-6" x1="1586.59" y1="850.75" x2="1693.13" y2="850.75"/>
        </g>
        <g id="POLYLINE-43" data-name="POLYLINE">
          <line class="cls-6" x1="1586.59" y1="867.14" x2="1693.13" y2="867.14"/>
        </g>
        <g id="POLYLINE-44" data-name="POLYLINE">
          <line class="cls-6" x1="1525.97" y1="843.39" x2="1632.51" y2="843.39"/>
        </g>
        <g id="POLYLINE-45" data-name="POLYLINE">
          <line class="cls-6" x1="1525.97" y1="858.12" x2="1632.51" y2="858.12"/>
        </g>
        <g id="POLYLINE-46" data-name="POLYLINE">
          <line class="cls-6" x1="1525.97" y1="874.5" x2="1632.51" y2="874.5"/>
        </g>
      </g>
      <g>
        <path class="cls-4" d="m1919.08,926.43v9.87c0,2.32,2.7,4.19,6.01,4.19h1.16c3.31,0,6,1.89,6,4.19v9.88c0,2.32-2.68,4.19-6,4.19h-59.31c-3.3,0-6-1.87-6-4.19v-9.88c0-2.31,2.7-4.19,6-4.19h1.16c3.33,0,6-1.87,6-4.19v-9.87c0-2.29-2.66-4.18-5.95-4.19v-.06h-59.51v.07c-3.19.08-5.76,1.93-5.76,4.18v9.87c0,2.32,2.7,4.19,6,4.19h1.16c3.33,0,6,1.89,6,4.19v9.88c0,2.32-2.67,4.19-6,4.19h-59.31c-3.3,0-6-1.87-6-4.19v-9.88c0-2.31,2.7-4.19,6-4.19h1.16c3.33,0,6.01-1.87,6.01-4.19v-9.87c0-2.29-2.67-4.18-5.97-4.19v-.06h-41.09V0h41.09v.06c3.3.01,5.97,1.9,5.97,4.19v9.87c0,2.32-2.68,4.19-6.01,4.19h-1.16c-3.3,0-6,1.89-6,4.19v9.88c0,2.32,2.7,4.19,6,4.19h59.31c3.33,0,6-1.87,6-4.19v-9.88c0-2.31-2.67-4.19-6-4.19h-1.16c-3.3,0-6-1.87-6-4.19V4.26c0-2.25,2.57-4.09,5.76-4.18V0h59.51v.06c3.3.01,5.95,1.9,5.95,4.19v9.87c0,2.32-2.67,4.19-6,4.19h-1.16c-3.3,0-6,1.89-6,4.19v9.88c0,2.32,2.7,4.19,6,4.19h59.31c3.31,0,6-1.87,6-4.19v-9.88c0-2.31-2.68-4.19-6-4.19h-1.16c-3.31,0-6.01-1.87-6.01-4.19V4.26c0-2.25,2.59-4.09,5.76-4.18V0h41.3v922.18h-41.3v.07c-3.17.08-5.76,1.93-5.76,4.18Z"/>
        <g>
          <g id="POLYLINE-47" data-name="POLYLINE">
            <line class="cls-6" x1="1830.75" y1="866.69" x2="1724.21" y2="866.69"/>
          </g>
          <g id="POLYLINE-48" data-name="POLYLINE">
            <line class="cls-6" x1="1830.75" y1="851.97" x2="1724.21" y2="851.97"/>
          </g>
          <g id="POLYLINE-49" data-name="POLYLINE">
            <line class="cls-6" x1="1891.37" y1="844.6" x2="1784.83" y2="844.6"/>
          </g>
          <g id="POLYLINE-50" data-name="POLYLINE">
            <line class="cls-6" x1="1830.75" y1="837.24" x2="1724.21" y2="837.24"/>
          </g>
          <g id="POLYLINE-51" data-name="POLYLINE">
            <line class="cls-6" x1="1891.37" y1="829.88" x2="1784.83" y2="829.88"/>
          </g>
          <g id="POLYLINE-52" data-name="POLYLINE">
            <line class="cls-6" x1="1830.75" y1="820.86" x2="1724.21" y2="820.86"/>
          </g>
          <g id="POLYLINE-53" data-name="POLYLINE">
            <line class="cls-6" x1="1891.37" y1="813.49" x2="1784.83" y2="813.49"/>
          </g>
          <g id="POLYLINE-54" data-name="POLYLINE">
            <line class="cls-6" x1="1891.37" y1="784.04" x2="1784.83" y2="784.04"/>
          </g>
          <g id="POLYLINE-55" data-name="POLYLINE">
            <line class="cls-6" x1="1830.75" y1="806.13" x2="1724.21" y2="806.13"/>
          </g>
          <g id="POLYLINE-56" data-name="POLYLINE">
            <line class="cls-6" x1="1891.37" y1="798.77" x2="1784.83" y2="798.77"/>
          </g>
          <g id="POLYLINE-57" data-name="POLYLINE">
            <line class="cls-6" x1="1830.75" y1="775.02" x2="1724.21" y2="775.02"/>
          </g>
          <g id="POLYLINE-58" data-name="POLYLINE">
            <line class="cls-6" x1="1891.37" y1="767.66" x2="1784.83" y2="767.66"/>
          </g>
          <g id="POLYLINE-59" data-name="POLYLINE">
            <line class="cls-6" x1="1830.75" y1="791.4" x2="1724.21" y2="791.4"/>
          </g>
          <g id="POLYLINE-60" data-name="POLYLINE">
            <line class="cls-6" x1="1891.37" y1="738.2" x2="1784.83" y2="738.2"/>
          </g>
          <g id="POLYLINE-61" data-name="POLYLINE">
            <line class="cls-6" x1="1891.37" y1="752.93" x2="1784.83" y2="752.93"/>
          </g>
          <g id="POLYLINE-62" data-name="POLYLINE">
            <line class="cls-6" x1="1830.75" y1="760.29" x2="1724.21" y2="760.29"/>
          </g>
          <g id="POLYLINE-63" data-name="POLYLINE">
            <line class="cls-6" x1="1830.75" y1="745.57" x2="1724.21" y2="745.57"/>
          </g>
          <g id="POLYLINE-64" data-name="POLYLINE">
            <line class="cls-6" x1="1830.75" y1="729.18" x2="1724.21" y2="729.18"/>
          </g>
          <g id="POLYLINE-65" data-name="POLYLINE">
            <line class="cls-6" x1="1830.75" y1="714.46" x2="1724.21" y2="714.46"/>
          </g>
          <g id="POLYLINE-66" data-name="POLYLINE">
            <line class="cls-6" x1="1830.75" y1="698.07" x2="1724.21" y2="698.07"/>
          </g>
          <g id="POLYLINE-67" data-name="POLYLINE">
            <line class="cls-6" x1="1891.37" y1="721.82" x2="1784.83" y2="721.82"/>
          </g>
          <g id="POLYLINE-68" data-name="POLYLINE">
            <line class="cls-6" x1="1891.37" y1="707.09" x2="1784.83" y2="707.09"/>
          </g>
          <g id="POLYLINE-69" data-name="POLYLINE">
            <line class="cls-6" x1="1891.37" y1="690.71" x2="1784.83" y2="690.71"/>
          </g>
          <g id="POLYLINE-70" data-name="POLYLINE">
            <line class="cls-6" x1="1831.25" y1="260.25" x2="1724.71" y2="260.25"/>
          </g>
          <g id="POLYLINE-71" data-name="POLYLINE">
            <line class="cls-6" x1="1831.25" y1="245.53" x2="1724.71" y2="245.53"/>
          </g>
          <g id="POLYLINE-72" data-name="POLYLINE">
            <line class="cls-6" x1="1891.87" y1="238.16" x2="1785.33" y2="238.16"/>
          </g>
          <g id="POLYLINE-73" data-name="POLYLINE">
            <line class="cls-6" x1="1831.25" y1="230.8" x2="1724.71" y2="230.8"/>
          </g>
          <g id="POLYLINE-74" data-name="POLYLINE">
            <line class="cls-6" x1="1891.87" y1="223.44" x2="1785.33" y2="223.44"/>
          </g>
          <g id="POLYLINE-75" data-name="POLYLINE">
            <line class="cls-6" x1="1831.25" y1="214.42" x2="1724.71" y2="214.42"/>
          </g>
          <g id="POLYLINE-76" data-name="POLYLINE">
            <line class="cls-6" x1="1891.87" y1="207.05" x2="1785.33" y2="207.05"/>
          </g>
          <g id="POLYLINE-77" data-name="POLYLINE">
            <line class="cls-6" x1="1891.87" y1="177.6" x2="1785.33" y2="177.6"/>
          </g>
          <g id="POLYLINE-78" data-name="POLYLINE">
            <line class="cls-6" x1="1831.25" y1="199.69" x2="1724.71" y2="199.69"/>
          </g>
          <g id="POLYLINE-79" data-name="POLYLINE">
            <line class="cls-6" x1="1891.87" y1="192.33" x2="1785.33" y2="192.33"/>
          </g>
          <g id="POLYLINE-80" data-name="POLYLINE">
            <line class="cls-6" x1="1831.25" y1="168.58" x2="1724.71" y2="168.58"/>
          </g>
          <g id="POLYLINE-81" data-name="POLYLINE">
            <line class="cls-6" x1="1891.87" y1="161.22" x2="1785.33" y2="161.22"/>
          </g>
          <g id="POLYLINE-82" data-name="POLYLINE">
            <line class="cls-6" x1="1831.25" y1="184.96" x2="1724.71" y2="184.96"/>
          </g>
          <g id="POLYLINE-83" data-name="POLYLINE">
            <line class="cls-6" x1="1891.87" y1="131.76" x2="1785.33" y2="131.76"/>
          </g>
          <g id="POLYLINE-84" data-name="POLYLINE">
            <line class="cls-6" x1="1891.87" y1="146.49" x2="1785.33" y2="146.49"/>
          </g>
          <g id="POLYLINE-85" data-name="POLYLINE">
            <line class="cls-6" x1="1831.25" y1="153.85" x2="1724.71" y2="153.85"/>
          </g>
          <g id="POLYLINE-86" data-name="POLYLINE">
            <line class="cls-6" x1="1831.25" y1="139.13" x2="1724.71" y2="139.13"/>
          </g>
          <g id="POLYLINE-87" data-name="POLYLINE">
            <line class="cls-6" x1="1831.25" y1="122.74" x2="1724.71" y2="122.74"/>
          </g>
          <g id="POLYLINE-88" data-name="POLYLINE">
            <line class="cls-6" x1="1831.25" y1="108.02" x2="1724.71" y2="108.02"/>
          </g>
          <g id="POLYLINE-89" data-name="POLYLINE">
            <line class="cls-6" x1="1831.25" y1="91.64" x2="1724.71" y2="91.64"/>
          </g>
          <g id="POLYLINE-90" data-name="POLYLINE">
            <line class="cls-6" x1="1891.87" y1="115.38" x2="1785.33" y2="115.38"/>
          </g>
          <g id="POLYLINE-91" data-name="POLYLINE">
            <line class="cls-6" x1="1891.87" y1="100.66" x2="1785.33" y2="100.66"/>
          </g>
          <g id="POLYLINE-92" data-name="POLYLINE">
            <line class="cls-6" x1="1891.87" y1="84.27" x2="1785.33" y2="84.27"/>
          </g>
        </g>
        <rect class="cls-6" x="1720.45" y="887.83" width="8.5" height="28.27"/>
        <rect class="cls-6" x="1948.03" y="887.83" width="8.5" height="28.27"/>
        <path class="cls-6" d="m1856.33,309.31v339.73c0,7.66-6.2,13.86-13.86,13.86-3.83,0-7.3-1.55-9.81-4.05-2.5-2.52-4.05-5.98-4.05-9.81v-339.73c0-7.66,6.2-13.86,13.86-13.86s13.86,6.21,13.86,13.86Z"/>
        <rect class="cls-6" x="1720.45" y="42.66" width="8.5" height="28.27"/>
        <rect class="cls-6" x="1948.03" y="42.66" width="8.5" height="28.27"/>
        <rect class="cls-6" x="1948.03" y="465.04" width="8.5" height="28.27"/>
        <rect class="cls-6" x="1720.45" y="465.04" width="8.5" height="28.27"/>
      </g>
    </g>
  </g>
</svg>