<?xml version="1.0" encoding="utf-8"?>
<!-- Generator: Adobe Illustrator 27.9.0, SVG Export Plug-In . SVG Version: 6.00 Build 0)  -->
<svg version="1.1" id="Layer_1" xmlns="http://www.w3.org/2000/svg" xmlns:xlink="http://www.w3.org/1999/xlink" x="0px" y="0px"
	 viewBox="0 0 1718.1 1535" style="enable-background:new 0 0 1718.1 1535;" xml:space="preserve">
<style type="text/css">
	.st0{fill:#E1D5C6;}
	.st1{fill:#5A412A;stroke:#00FF00;stroke-width:0.1;stroke-miterlimit:10;}
	.st2{fill:#E1D5C6;stroke:#EC1E24;stroke-miterlimit:10;}
	.st3{fill:#FFFFFF;}
	.st4{fill:#FFCE42;}
	.st5{font-family:'#9Slide03QuicksandBold-Bold';}
	.st6{font-size:81.5092px;}
	.st7{fill:#101111;stroke:#101111;stroke-width:1.34;stroke-linecap:round;stroke-linejoin:round;stroke-miterlimit:10;}
	.st8{font-family:'ArialMT';}
	.st9{font-size:171.3072px;}
</style>
<path class="st0" d="M842.1,1518.9H20l0-1091.3c0-227,184-411,411-411h0c227,0,411,184,411,411V1518.9z"/>
<g>
	<path class="st1" d="M317.1,90.2c-1.1-2.5-2.5-4.4-4.3-5.9c-1.7-1.5-3.7-2.2-6-2.2c-2,0-3.9,0.7-5.6,2.1s-3.1,3.3-4.4,5.7
		c-1.3,2.4-2.3,5.1-3,8.3c-0.8,3.2-1.2,6.5-1.4,9.9c-0.2,3.6-0.1,7.1,0.3,10.6s1.2,6.6,2.3,9.4c1.1,2.7,2.7,5,4.6,6.7
		c2,1.7,4.3,2.5,7.2,2.5c2.2,0,4.2-0.8,6-2.5s3.2-3.8,4.3-6.5c1.1-2.7,2-5.7,2.6-9.1c0.6-3.4,0.9-6.9,0.9-10.4
		c0-3.5-0.3-6.9-0.9-10.1C319.1,95.5,318.3,92.7,317.1,90.2z M314,116.3c-0.3,2.8-0.8,5.3-1.4,7.5c-0.7,2.2-1.5,4-2.4,5.4
		c-1,1.4-2.1,2-3.3,2c-1.8,0-3.2-0.7-4.4-2c-1.1-1.3-2-3.1-2.7-5.2c-0.7-2.2-1.1-4.6-1.3-7.4c-0.2-2.7-0.2-5.5,0-8.3
		c0.2-2.6,0.6-5.1,1.1-7.5c0.5-2.4,1.1-4.6,1.8-6.5c0.7-1.9,1.6-3.4,2.5-4.5c0.9-1.1,2-1.7,3.1-1.7c1.2,0,2.3,0.5,3.2,1.6
		c0.9,1,1.7,2.5,2.3,4.3c0.6,1.8,1.1,3.9,1.4,6.3c0.3,2.4,0.5,4.9,0.5,7.6C314.4,110.6,314.3,113.5,314,116.3z"/>
	<path class="st1" d="M350.9,82.6c-0.9-0.1-1.6,0.2-2.2,0.7c-0.6,0.5-0.9,1.2-1,2.1c-0.1,1.1-0.2,2.3-0.2,3.5c0,1.2,0,2.3-0.1,3.5
		c-0.1,2.6-0.1,5.2-0.1,7.8c0,2.6-0.1,5.2-0.2,7.8c-0.1,2.1-0.1,4.3-0.1,6.3s-0.1,4.2-0.2,6.3c-2.7-6.2-5.4-12.2-8.1-18.2
		c-2.7-6-5.5-12.1-8.4-18.3c-0.3-0.7-0.7-1.2-1.3-1.5c-0.5-0.3-1.1-0.5-1.6-0.5c-0.6,0-1.1,0.2-1.6,0.5c-0.5,0.3-0.8,0.8-1.1,1.5
		c-0.2,0.4-0.3,1.2-0.4,2.6c-0.1,1.4-0.1,2.9-0.2,4.5c-0.1,1.6-0.1,3.2-0.1,4.6c0,1.5,0,2.5,0,3.1c0,4.1,0.1,8.3,0.2,12.4
		c0.1,4.2,0.3,8.3,0.6,12.4c0.1,1.8,0.2,3.6,0.3,5.4c0.1,1.8,0.3,3.6,0.5,5.4c0.1,0.9,0.5,1.6,1.1,2c0.6,0.4,1.3,0.7,2.2,0.7
		c0.9,0,1.6-0.4,2-1.1c0.4-0.7,0.7-1.5,0.7-2.2c0-1.7-0.1-3.6-0.4-5.6c-0.2-2-0.4-3.9-0.5-5.6c-0.5-7.5-0.7-14.9-0.7-22.4v-2
		c1.8,4.2,3.7,8.4,5.6,12.6c1.9,4.1,3.8,8.3,5.8,12.5c0.8,1.8,1.7,3.8,2.6,6c0.9,2.2,1.8,4.1,2.7,5.8c0.6,1.1,1.5,1.7,2.7,1.7
		c1,0,1.8-0.3,2.3-1c0.5-0.7,0.7-1.5,0.7-2.3c0-4.2,0.1-8.5,0.2-12.7c0.1-4.2,0.2-8.5,0.4-12.7c0.1-3.8,0.2-7.5,0.4-11.2
		c0.2-3.7,0.2-7.4,0.2-11.2c0-0.9-0.2-1.6-0.7-2.2C352.4,83,351.7,82.7,350.9,82.6z"/>
	<path class="st1" d="M373.6,83.4c-0.6-0.5-1.4-0.8-2.3-0.9c-0.9-0.2-1.9-0.2-2.8-0.2c-1,0.1-1.8,0.1-2.5,0.1h-5.6
		c-0.7,0-1.3,0.2-1.8,0.7c-0.4,0.4-0.8,1-1.1,1.7c-0.1,0.3-0.2,1-0.3,2c-0.1,1-0.1,2.1-0.2,3.4c0,1.3-0.1,2.7-0.1,4.2
		c0,1.5,0,3,0,4.3c0,1.4,0,2.6,0,3.8c0,1.1,0,2,0,2.5c0,5,0.1,9.9,0.2,14.8c0.1,4.9,0.3,9.8,0.7,14.8c0.1,0.9,0.5,1.6,1.1,2.1
		c0.6,0.5,1.3,0.7,2.1,0.7c1.5,0,3-0.1,4.5-0.2s3.1-0.3,4.5-0.5c0.9-0.1,1.6-0.5,2-1.1c0.5-0.6,0.7-1.3,0.7-2.2
		c0-0.7-0.3-1.4-0.9-1.9c-0.6-0.5-1.2-0.8-1.9-0.8c-1,0-2.1,0.1-3.2,0.2c-1.1,0.1-2.1,0.2-3.2,0.2c-0.3-3.9-0.5-8.1-0.6-12.5
		c-0.1-4.4-0.2-8.6-0.1-12.5v-3.7c1,0.1,1.9,0.1,2.6,0c0.8,0,1.6,0,2.6,0c0.6,0,1.2,0,1.8,0c0.6,0,1.2-0.1,1.7-0.3
		c0.5-0.2,1-0.5,1.3-0.9c0.3-0.4,0.5-1.1,0.5-1.8s-0.2-1.4-0.7-1.8c-0.5-0.4-1.1-0.7-1.8-0.9c-0.7-0.2-1.4-0.3-2.2-0.3
		c-0.8,0-1.5,0-2.1,0h-3.6c0-1.4,0-2.7,0-4s0.1-2.7,0.1-4h2l4.1,0.1h2c0.9,0,1.6-0.3,2.2-0.8c0.6-0.5,0.9-1.3,0.9-2.2
		C374.6,84.6,374.3,83.9,373.6,83.4z"/>
	<path class="st1" d="M419.2,83.1c-0.7-0.5-1.4-0.7-2.2-0.7c-0.7,0-1.4,0.3-2,0.8c-0.6,0.5-0.9,1.2-1,1.8c-0.1,0.4-0.2,1.1-0.4,2.2
		c-0.2,1-0.4,2.1-0.7,3.4c-0.3,1.2-0.6,2.5-1,3.8c-0.4,1.3-0.8,2.5-1.3,3.6c-0.5,1.1-1,2-1.6,2.7c-0.6,0.7-1.2,1.1-1.9,1.1
		c-0.1,0-0.2,0-0.4-0.1c-0.2-0.1-0.3-0.1-0.4-0.2c-1.3-0.7-2.3-1.8-3-3.1c-0.7-1.4-1.2-2.8-1.4-4.4c-0.3-1.6-0.4-3.2-0.5-4.8
		c0-1.6,0-3.1,0-4.4c0-0.8-0.3-1.5-0.8-2.1c-0.5-0.6-1.3-0.9-2.2-0.9c-0.8,0-1.5,0.2-2,0.7s-0.8,1-1,1.7c-0.2,0.7-0.3,1.4-0.3,2.1
		c0,0.8,0,1.4,0,2.1c0,1.7,0.2,3.6,0.7,5.9c0.5,2.2,1.2,4.4,2.2,6.4c1,2,2.2,3.7,3.8,5.1s3.4,2.1,5.5,2.1c1.1,0,2.1-0.2,3.1-0.7
		c1-0.5,1.8-1.1,2.5-1.8c-0.1,0.9-0.1,2.1-0.3,3.6c-0.1,1.5-0.3,3.1-0.5,4.8c-0.2,1.7-0.5,3.5-0.7,5.4c-0.3,1.9-0.6,3.6-1.1,5.2
		c-0.4,1.6-0.9,3.1-1.4,4.4c-0.5,1.3-1.1,2.3-1.8,2.9c-0.8-0.1-1.5-0.7-2.1-1.9c-0.6-1.1-1.1-2.5-1.5-3.9c-0.4-1.5-0.7-2.9-0.9-4.3
		c-0.2-1.4-0.4-2.4-0.4-3.1c-0.1-0.9-0.4-1.6-1-2.1c-0.5-0.5-1.3-0.7-2.2-0.7c-0.8,0-1.5,0.4-2,1.1c-0.5,0.7-0.8,1.4-0.8,2.2
		c0,1.5,0.2,3.2,0.6,5.4c0.4,2.1,1.1,4.2,1.9,6.1c0.9,2,2,3.7,3.3,5.1s2.9,2.1,4.8,2.1c1.4,0,2.6-0.3,3.5-0.9
		c0.9-0.6,1.7-1.5,2.5-2.6c0.8-1.3,1.6-2.9,2.2-4.9c0.6-1.9,1.2-4,1.6-6.3c0.5-2.3,0.9-4.6,1.2-7.1c0.3-2.5,0.6-4.9,0.8-7.3
		c0.2-2.4,0.4-4.6,0.5-6.8c0.1-2.2,0.2-4.1,0.3-5.7c0.1-1.7,0.2-3.5,0.4-5.2c0.1-1.8,0.2-3.5,0.2-5.2
		C420.2,84.2,419.9,83.6,419.2,83.1z"/>
	<path class="st1" d="M440.2,83.4c-0.6-0.5-1.4-0.8-2.3-0.9c-0.9-0.2-1.9-0.2-2.8-0.2c-1,0.1-1.8,0.1-2.5,0.1H427
		c-0.7,0-1.3,0.2-1.8,0.7c-0.4,0.4-0.8,1-1.1,1.7c-0.1,0.3-0.2,1-0.3,2c-0.1,1-0.1,2.1-0.2,3.4c0,1.3-0.1,2.7-0.1,4.2
		c0,1.5,0,3,0,4.3c0,1.4,0,2.6,0,3.8c0,1.1,0,2,0,2.5c0,5,0.1,9.9,0.2,14.8c0.1,4.9,0.3,9.8,0.7,14.8c0.1,0.9,0.5,1.6,1.1,2.1
		c0.6,0.5,1.3,0.7,2.1,0.7c1.5,0,3-0.1,4.5-0.2s3.1-0.3,4.5-0.5c0.9-0.1,1.6-0.5,2-1.1c0.5-0.6,0.7-1.3,0.7-2.2
		c0-0.7-0.3-1.4-0.9-1.9c-0.6-0.5-1.2-0.8-1.9-0.8c-1,0-2.1,0.1-3.2,0.2c-1.1,0.1-2.1,0.2-3.2,0.2c-0.3-3.9-0.5-8.1-0.6-12.5
		c-0.1-4.4-0.2-8.6-0.1-12.5v-3.7c1,0.1,1.9,0.1,2.6,0c0.8,0,1.6,0,2.6,0c0.6,0,1.2,0,1.8,0c0.6,0,1.2-0.1,1.7-0.3
		c0.5-0.2,1-0.5,1.3-0.9c0.3-0.4,0.5-1.1,0.5-1.8s-0.2-1.4-0.7-1.8c-0.5-0.4-1.1-0.7-1.8-0.9c-0.7-0.2-1.4-0.3-2.2-0.3
		c-0.8,0-1.5,0-2.1,0h-3.6c0-1.4,0-2.7,0-4s0.1-2.7,0.1-4h2l4.1,0.1h2c0.9,0,1.6-0.3,2.2-0.8c0.6-0.5,0.9-1.3,0.9-2.2
		C441.1,84.6,440.8,83.9,440.2,83.4z"/>
	<path class="st1" d="M468.5,106c-0.1-2.5-0.3-5.1-0.5-7.7c-0.3-2.6-0.6-5.1-1.1-7.3c-0.5-2.3-1.1-4.2-1.9-5.9
		c-0.8-1.7-1.7-2.8-2.9-3.5c-1.1-0.6-2.3-0.9-3.6-0.9c-1.3,0-2.5,0.3-3.7,0.8c-1.2,0.5-2.2,1.2-3.1,2c-1.9,1.9-3.4,4.1-4.5,6.7
		c-1.1,2.5-2,5.1-2.7,7.9c-0.7,2.7-1.1,5.5-1.3,8.3c-0.2,2.8-0.4,5.5-0.4,8.1c0,3.3,0.1,6.6,0.4,10c0.2,3.4,0.6,6.7,1.2,10
		c0.2,0.7,0.5,1.3,1,1.8c0.5,0.5,1.2,0.7,2,0.7c0.8,0,1.6-0.3,2.2-0.9c0.6-0.6,0.9-1.3,0.9-2.1c0-0.7-0.1-1.6-0.2-2.5
		s-0.2-1.9-0.4-2.9c-0.2-1-0.3-2-0.4-3c-0.1-1-0.2-1.9-0.3-2.7c-0.1-1.5-0.2-2.9-0.2-4.3c-0.1-1.4-0.1-2.8-0.1-4.3
		c0-0.9,0-1.7,0-2.6s0.1-1.7,0.2-2.5c0.4,0,1.3,0,2.7,0c1.4,0,2.9,0.1,4.5,0.1c1.6,0,3,0,4.3,0c1.3,0,2-0.1,2.1-0.1
		c0.1,1.6,0.2,3.1,0.2,4.7c0,1.6,0,3.1,0,4.7c0,0.9,0,2.1,0,3.5s0,2.9,0,4.3c0,1.5,0,2.9-0.1,4.3c-0.1,1.4-0.1,2.5-0.2,3.2
		c-0.1,0.8,0.2,1.6,0.8,2.2c0.6,0.6,1.3,0.9,2.1,0.9c0.9,0,1.6-0.3,2.2-0.8c0.6-0.5,0.9-1.3,0.9-2.2c0.1-0.3,0.1-1.1,0.2-2.5
		c0.1-1.4,0.1-3,0.1-4.8c0-1.8,0-3.5,0-5.1c0-1.6,0-2.6,0-3.2c0-1.5,0-3.3,0-5.6C468.7,110.9,468.6,108.5,468.5,106z M459.8,103.3
		c-1.3,0-2.7,0-4.1,0c-1.4,0-2.7,0-3.9,0c-1.2,0-1.8-0.1-1.9-0.3c0-0.8,0.2-1.9,0.6-3.5c0.4-1.5,0.9-3.1,1.6-4.7
		c0.6-1.6,1.3-3.1,2.1-4.4s1.5-2.2,2.3-2.6c0.3-0.1,0.5-0.2,0.8-0.3c0.3-0.1,0.5-0.2,0.8-0.2c0.8,0,1.5,0.7,2,2.1
		c0.5,1.4,0.9,3,1.3,4.9c0.3,1.9,0.5,3.6,0.7,5.4c0.2,1.7,0.2,2.9,0.2,3.5C461.9,103.2,461.1,103.2,459.8,103.3z"/>
	<path class="st1" d="M503.9,123c-0.8,0-1.4,0.2-1.8,0.6c-0.4,0.4-0.8,0.8-1.1,1.3c-0.3,0.5-0.6,0.9-0.9,1.3
		c-0.3,0.4-0.8,0.6-1.4,0.6c-1.3,0-2.8-0.6-4.4-1.8c-1.6-1.2-3.3-2.7-4.9-4.3c-1.6-1.7-3-3.4-4.3-5.1c-1.3-1.7-2.2-3.2-2.8-4.3
		c2.1-0.1,4.2-0.6,6.1-1.4c1.9-0.8,3.6-1.9,5.1-3.3c1.5-1.4,2.7-3,3.5-4.9c0.9-1.9,1.3-3.9,1.3-6.1c0-2.5-0.5-4.6-1.6-6.3
		c-1.1-1.7-2.5-3.2-4.2-4.3c-1.7-1.1-3.6-1.9-5.8-2.4c-2.1-0.5-4.2-0.8-6.4-0.8c-1.5,0-3,0.1-4.5,0.2c-0.9,0.1-1.6,0.4-2.2,0.8
		c-0.5,0.4-0.9,1.1-1,2c-0.3,3.1-0.4,6.2-0.4,9.3c0,3.1,0,6.3,0,9.4c0,2.3,0,4.9,0,7.6c0,2.7,0.1,5.4,0.2,8.1
		c0.1,2.7,0.2,5.4,0.5,8.1c0.2,2.6,0.5,5.1,0.9,7.4c0.1,0.7,0.4,1.3,1,1.8c0.6,0.5,1.3,0.7,2,0.7s1.5-0.3,2-0.9
		c0.6-0.6,0.9-1.3,0.9-2.1v-0.4c-0.3-3.1-0.6-6-0.8-8.7c-0.2-2.7-0.4-5.6-0.5-8.7c1,1.5,2.2,3.2,3.7,5.1c1.5,1.9,3.1,3.7,4.9,5.3
		c1.8,1.7,3.7,3.1,5.7,4.2c2,1.1,4,1.7,6,1.7c0.9,0,1.8-0.2,2.8-0.6c1-0.4,1.9-0.9,2.7-1.6c0.8-0.7,1.5-1.4,2-2.2
		c0.5-0.8,0.8-1.6,0.8-2.5s-0.3-1.5-0.9-2.1C505.4,123.2,504.7,123,503.9,123z M481.3,105.2c-0.5,0-1,0-1.5,0
		c-0.5,0-1.1-0.1-1.5-0.2v-3.1c-0.1-2.3,0-4.7,0-7c0.1-2.3,0.2-4.7,0.3-7l1.6-0.1c1.3,0,2.6,0.1,4,0.4c1.4,0.2,2.8,0.7,4,1.3
		c1.2,0.6,2.2,1.4,3,2.5c0.8,1,1.2,2.3,1.2,3.9c0,1.5-0.3,2.8-0.9,4c-0.6,1.2-1.5,2.2-2.5,3c-1,0.8-2.2,1.5-3.6,1.9
		C484,105,482.7,105.2,481.3,105.2z"/>
	<path class="st1" d="M544.1,90.2c-1.1-2.5-2.5-4.4-4.3-5.9c-1.7-1.5-3.7-2.2-6-2.2c-2,0-3.9,0.7-5.6,2.1s-3.1,3.3-4.4,5.7
		c-1.3,2.4-2.3,5.1-3,8.3c-0.8,3.2-1.2,6.5-1.4,9.9c-0.2,3.6-0.1,7.1,0.3,10.6s1.2,6.6,2.3,9.4c1.1,2.7,2.7,5,4.6,6.7
		c2,1.7,4.3,2.5,7.2,2.5c2.2,0,4.2-0.8,6-2.5s3.2-3.8,4.3-6.5c1.1-2.7,2-5.7,2.6-9.1c0.6-3.4,0.9-6.9,0.9-10.4
		c0-3.5-0.3-6.9-0.9-10.1C546.1,95.5,545.3,92.7,544.1,90.2z M541,116.3c-0.3,2.8-0.8,5.3-1.4,7.5c-0.7,2.2-1.5,4-2.4,5.4
		c-1,1.4-2.1,2-3.3,2c-1.8,0-3.2-0.7-4.4-2c-1.1-1.3-2-3.1-2.7-5.2c-0.7-2.2-1.1-4.6-1.3-7.4c-0.2-2.7-0.2-5.5,0-8.3
		c0.2-2.6,0.6-5.1,1.1-7.5c0.5-2.4,1.1-4.6,1.8-6.5c0.7-1.9,1.6-3.4,2.5-4.5c0.9-1.1,2-1.7,3.1-1.7c1.2,0,2.3,0.5,3.2,1.6
		c0.9,1,1.7,2.5,2.3,4.3c0.6,1.8,1.1,3.9,1.4,6.3c0.3,2.4,0.5,4.9,0.5,7.6C541.4,110.6,541.3,113.5,541,116.3z"/>
	<path class="st1" d="M557.3,87.9c1.6,0.1,3.1,0.1,4.7,0.1c1.6,0,3.1,0,4.7,0c0.9,0,1.6-0.3,2.2-0.8c0.6-0.5,0.9-1.2,0.9-2.1
		c0-1.9-1-2.9-2.9-3.1c-2.1-0.2-4.2-0.2-6.3-0.2c-2.1,0.1-4.2,0.1-6.3,0.1c-0.6,0-1.3,0.3-1.9,1c-0.7,0.7-1,1.4-1.1,2.2
		c-0.2,3.3-0.2,6.6-0.3,9.8c0,3.2,0,6.5,0,9.8c0,2.2,0,4.6,0,7.2s0,5.2,0.1,7.9c0.1,2.7,0.1,5.3,0.3,7.8c0.1,2.6,0.3,4.9,0.6,7.1
		c0.1,0.7,0.4,1.3,0.9,1.9c0.5,0.6,1.1,0.9,1.8,0.9c1,0,1.8-0.3,2.5-0.8c0.7-0.5,0.9-1.3,0.8-2.4c-0.2-2.5-0.3-5.1-0.4-7.9
		c-0.1-2.7-0.2-5.5-0.3-8.3c-0.1-2.8-0.1-5.6-0.2-8.3c-0.1-2.8-0.1-5.4-0.1-7.9h3.3c0.6,0,1.3,0,2,0c0.8,0,1.5-0.1,2.2-0.2
		c0.7-0.2,1.3-0.4,1.8-0.8c0.5-0.4,0.7-1,0.7-1.8c0.1-0.9-0.2-1.6-0.8-2.2c-0.6-0.6-1.3-0.9-2.2-0.9h-7c0-1.4,0-2.7,0-4
		C557.2,90.5,557.3,89.2,557.3,87.9z"/>
</g>
<g>
	<g>
		<rect x="590.5" y="505.8" class="st2" width="184.3" height="184.3"/>
		<rect x="338.9" y="505.8" class="st2" width="184.3" height="184.3"/>
		<rect x="87.4" y="505.8" class="st2" width="184.3" height="184.3"/>
		<g>
			<rect x="87.4" y="763.2" class="st2" width="184.3" height="184.3"/>
			<rect x="590.5" y="765.5" class="st2" width="184.3" height="184.3"/>
			<rect x="338.9" y="765.5" class="st2" width="184.3" height="184.3"/>
		</g>
		<g>
			<rect x="590.5" y="1280.2" class="st2" width="184.3" height="184.3"/>
			<rect x="338.9" y="1280.2" class="st2" width="184.3" height="184.3"/>
			<rect x="87.4" y="1280.2" class="st2" width="184.3" height="184.3"/>
		</g>
		<rect x="338.9" y="1022.8" class="st2" width="184.3" height="184.3"/>
		<rect x="87.4" y="1022.8" class="st2" width="184.3" height="184.3"/>
		<rect x="590.5" y="1022.8" class="st2" width="184.3" height="184.3"/>
	</g>
	<g>
		<path class="st1" d="M660.5,485.9c0.2-0.3,0.4-0.7,0.4-1c0-0.6,0-1.1-0.1-1.7s-0.1-1.1-0.1-1.7c-0.1-2.4-0.1-4.7-0.2-7
			c0-2.3-0.1-4.7-0.1-7c0-0.7,0-1.4,0-2.1c0-0.7,0-1.4,0.1-2.1h0.6l1.2,0h0.6c0.4,0,0.7-0.1,1-0.4c0.3-0.3,0.4-0.6,0.4-1
			c0-0.4-0.1-0.8-0.4-1c-0.2-0.3-0.6-0.4-1-0.4c-1.3,0-2.6-0.1-4-0.1c-1.4,0-2.8,0-4,0.1c-0.4,0-0.7,0.1-1,0.4s-0.4,0.6-0.4,1
			c0,0.5,0.2,0.8,0.5,1c0.3,0.2,0.7,0.3,1.1,0.4c0.4,0,0.9,0.1,1.4,0c0.5,0,0.9-0.1,1.1-0.1c0,0.7,0,1.4,0,2.1c0,0.7,0,1.4,0,2.1
			c0,1,0,2.2,0,3.4c0,1.2,0,2.3,0,3.4c0,0.8,0,1.7,0,2.6c0,0.9,0,1.9,0.1,2.8c0,1,0.1,1.9,0.1,2.8c0,0.9,0.1,1.8,0.1,2.6
			c0,0.4,0.2,0.7,0.5,1c0.3,0.2,0.6,0.4,1,0.4C660,486.4,660.3,486.3,660.5,485.9z"/>
		<path class="st1" d="M665.4,485.2c0,0.4,0.2,0.7,0.5,1c0.3,0.2,0.6,0.4,1,0.4c0.4,0,0.7-0.2,1-0.5s0.4-0.7,0.4-1
			c0-0.5,0-0.9-0.1-1.4c0-0.4-0.1-0.9-0.1-1.4c0-0.9,0-2-0.1-3.2c0-1.2,0-2.3,0-3.2c0-0.9,0-1.8,0-2.7c0-0.9,0-1.8,0-2.7
			c1.1,0,2.1,0,3.2,0.1c1.1,0,2.1,0.1,3.2,0.1l-0.1,3.3c0,1.8-0.1,3.6-0.2,5.5c-0.1,1.9-0.1,3.8-0.1,5.5c0,0.4,0.1,0.7,0.4,1
			c0.2,0.3,0.6,0.5,1,0.5c0.4,0,0.8-0.1,1-0.4c0.3-0.2,0.4-0.6,0.5-1c0.1-1.8,0.2-3.6,0.2-5.5c0-1.9,0-3.8,0.1-5.6
			c0-1.9,0.1-3.8,0.2-5.8c0.1-1.9,0.1-3.8,0.1-5.8c0-0.4-0.1-0.8-0.4-1c-0.2-0.3-0.6-0.4-1-0.4c-0.4,0-0.8,0.1-1,0.4
			c-0.3,0.3-0.4,0.6-0.4,1c-0.1,0.9-0.1,1.8-0.1,2.7c0,0.9,0,1.8,0,2.7c-1.1,0-2.2-0.1-3.2-0.1s-2.1-0.1-3.2-0.1v-4.3
			c0-0.4,0-0.7,0-1.1c0-0.4,0-0.7-0.1-1s-0.2-0.5-0.4-0.7c-0.2-0.2-0.5-0.3-1-0.3c-0.4,0-0.7,0.1-0.9,0.3c-0.2,0.2-0.4,0.5-0.4,0.8
			c-0.1,0.3-0.1,0.7-0.1,1s0,0.7,0,1c0,2.1,0,4.2,0,6.3c0,2.1,0,4.2,0,6.3c0,0.7,0,1.4,0,2.2c0,0.8,0,1.6,0,2.4c0,0.8,0,1.6,0.1,2.4
			C665.3,483.7,665.3,484.5,665.4,485.2z"/>
		<path class="st1" d="M679.3,477.9c0,1.3,0.1,2.6,0.2,3.8c0.1,1.2,0.3,2.4,0.4,3.5c0,0.3,0.2,0.6,0.5,0.9c0.3,0.2,0.6,0.4,1,0.4
			s0.7-0.1,1-0.4s0.4-0.6,0.4-1v-0.2c-0.1-1.5-0.3-2.9-0.4-4.1s-0.2-2.6-0.2-4.1c0.5,0.7,1.1,1.5,1.8,2.4s1.5,1.7,2.3,2.5
			c0.9,0.8,1.7,1.5,2.7,2c0.9,0.5,1.9,0.8,2.8,0.8c0.4,0,0.9-0.1,1.3-0.3c0.2-0.1,0.4-0.2,0.6-0.3c0,0.5,0.1,1,0.1,1.4
			c0,0.4,0.2,0.7,0.5,1s0.6,0.4,1,0.4c0.7,0,1.4,0,2.1-0.1c0.7,0,1.5-0.1,2.1-0.2c0.4,0,0.7-0.2,1-0.5c0.2-0.3,0.3-0.6,0.3-1.1
			c0-0.3-0.1-0.6-0.4-0.9c-0.3-0.2-0.6-0.4-0.9-0.4c-0.5,0-1,0-1.5,0.1c-0.5,0-1,0.1-1.5,0.1c-0.1-1.9-0.2-3.8-0.3-5.9
			c-0.1-2.1-0.1-4.1-0.1-5.9v-1.7c0.5,0,0.9,0,1.2,0s0.8,0,1.2,0c0.3,0,0.5,0,0.8,0c0.3,0,0.6-0.1,0.8-0.1c0.3-0.1,0.5-0.2,0.6-0.4
			c0.2-0.2,0.2-0.5,0.2-0.9s-0.1-0.6-0.4-0.8c-0.2-0.2-0.5-0.3-0.9-0.4c-0.3-0.1-0.7-0.1-1.1-0.1s-0.7,0-1,0h-1.7c0-0.6,0-1.3,0-1.9
			c0-0.6,0-1.3,0.1-1.9h1l1.9,0h1c0.4,0,0.8-0.1,1-0.4c0.3-0.3,0.4-0.6,0.4-1c0-0.5-0.1-0.8-0.4-1c-0.3-0.2-0.7-0.4-1.1-0.4
			c-0.4-0.1-0.9-0.1-1.3-0.1s-0.8,0-1.2,0h-2.6c-0.3,0-0.6,0.1-0.8,0.3c-0.2,0.2-0.4,0.5-0.5,0.8c0,0.1-0.1,0.5-0.1,0.9
			s-0.1,1-0.1,1.6s0,1.3,0,2s0,1.4,0,2.1c0,0.7,0,1.2,0,1.8s0,0.9,0,1.2c0,2.3,0,4.7,0.1,7c0,0.6,0,1.1,0.1,1.7c0,0,0,0-0.1,0
			c-0.2,0.2-0.4,0.4-0.5,0.6s-0.3,0.4-0.4,0.6c-0.2,0.2-0.4,0.3-0.7,0.3c-0.6,0-1.3-0.3-2.1-0.9c-0.8-0.6-1.5-1.3-2.3-2.1
			c-0.8-0.8-1.4-1.6-2.1-2.4s-1.1-1.5-1.3-2c1,0,2-0.3,2.9-0.6c0.9-0.4,1.7-0.9,2.4-1.6c0.7-0.7,1.3-1.4,1.7-2.3
			c0.4-0.9,0.6-1.8,0.6-2.9c0-1.2-0.3-2.2-0.8-3c-0.5-0.8-1.2-1.5-2-2c-0.8-0.5-1.7-0.9-2.7-1.1c-1-0.2-2-0.4-3-0.4
			c-0.7,0-1.4,0-2.1,0.1c-0.4,0-0.8,0.2-1,0.4c-0.3,0.2-0.4,0.5-0.5,0.9c-0.1,1.5-0.2,2.9-0.2,4.4c0,1.5,0,3,0,4.4
			c0,1.1,0,2.3,0,3.6S679.2,476.6,679.3,477.9z M682,469.7c0-1.1,0-2.2,0-3.3s0.1-2.2,0.1-3.3l0.7,0c0.6,0,1.2,0.1,1.9,0.2
			c0.7,0.1,1.3,0.3,1.9,0.6c0.6,0.3,1,0.7,1.4,1.2c0.4,0.5,0.6,1.1,0.6,1.9c0,0.7-0.1,1.3-0.4,1.9s-0.7,1-1.2,1.4
			c-0.5,0.4-1.1,0.7-1.7,0.9c-0.6,0.2-1.3,0.3-1.9,0.3c-0.2,0-0.5,0-0.7,0c-0.3,0-0.5,0-0.7-0.1V469.7z"/>
		<path class="st1" d="M710.1,484.7c0-0.3-0.1-0.6-0.4-0.9c-0.3-0.2-0.6-0.4-0.9-0.4c-0.5,0-1,0-1.5,0.1c-0.5,0-1,0.1-1.5,0.1
			c-0.1-1.9-0.2-3.8-0.3-5.9c-0.1-2.1-0.1-4.1-0.1-5.9v-1.7c0.5,0,0.9,0,1.2,0s0.8,0,1.2,0c0.3,0,0.5,0,0.8,0c0.3,0,0.6-0.1,0.8-0.1
			c0.3-0.1,0.5-0.2,0.6-0.4c0.2-0.2,0.2-0.5,0.2-0.9s-0.1-0.6-0.4-0.8c-0.2-0.2-0.5-0.3-0.9-0.4c-0.3-0.1-0.7-0.1-1.1-0.1
			s-0.7,0-1,0h-1.7c0-0.6,0-1.3,0-1.9c0-0.6,0-1.3,0.1-1.9h1l1.9,0h1c0.4,0,0.8-0.1,1-0.4c0.3-0.3,0.4-0.6,0.4-1
			c0-0.5-0.1-0.8-0.4-1c-0.3-0.2-0.7-0.4-1.1-0.4c-0.4-0.1-0.9-0.1-1.3-0.1s-0.8,0-1.2,0h-2.6c-0.3,0-0.6,0.1-0.8,0.3
			c-0.2,0.2-0.4,0.5-0.5,0.8c0,0.1-0.1,0.5-0.1,0.9s-0.1,1-0.1,1.6s0,1.3,0,2s0,1.4,0,2.1c0,0.7,0,1.2,0,1.8s0,0.9,0,1.2
			c0,2.3,0,4.7,0.1,7c0,2.3,0.2,4.7,0.3,7c0,0.4,0.2,0.7,0.5,1s0.6,0.4,1,0.4c0.7,0,1.4,0,2.1-0.1c0.7,0,1.5-0.1,2.1-0.2
			c0.4,0,0.7-0.2,1-0.5C710,485.5,710.1,485.1,710.1,484.7z"/>
		<path class="st1" d="M409.5,462.9c0.3,0.2,0.7,0.3,1.1,0.4c0.4,0,0.9,0.1,1.4,0c0.5,0,0.9-0.1,1.1-0.1c0,0.7,0,1.4,0,2.1
			c0,0.7,0,1.4,0,2.1c0,1,0,2.2,0,3.4c0,1.2,0,2.3,0,3.4c0,0.8,0,1.7,0,2.6c0,0.9,0,1.9,0.1,2.8c0,1,0.1,1.9,0.1,2.8
			c0,0.9,0.1,1.8,0.1,2.6c0,0.4,0.2,0.7,0.5,1c0.3,0.2,0.6,0.4,1,0.4c0.4,0,0.7-0.2,1-0.5c0.2-0.3,0.4-0.7,0.4-1
			c0-0.6,0-1.1-0.1-1.7s-0.1-1.1-0.1-1.7c-0.1-2.4-0.1-4.7-0.2-7c0-2.3-0.1-4.7-0.1-7c0-0.7,0-1.4,0-2.1c0-0.7,0-1.4,0.1-2.1h0.6
			l1.2,0h0.6c0.4,0,0.7-0.1,1-0.4c0.3-0.3,0.4-0.6,0.4-1c0-0.4-0.1-0.8-0.4-1c-0.2-0.3-0.6-0.4-1-0.4c-1.3,0-2.6-0.1-4-0.1
			c-1.4,0-2.8,0-4,0.1c-0.4,0-0.7,0.1-1,0.4s-0.4,0.6-0.4,1C409,462.4,409.2,462.7,409.5,462.9z"/>
		<path class="st1" d="M421.5,465.7c0.1,1.1,0.2,2.4,0.4,3.8c0.1,1.4,0.3,2.8,0.4,4.2s0.3,2.8,0.4,4.2c0.1,1.4,0.3,2.6,0.4,3.7
			c0.1,1.1,0.3,2,0.4,2.7s0.2,1.1,0.2,1.2c0.1,0.3,0.3,0.5,0.5,0.6c0.2,0.2,0.5,0.2,0.8,0.2c0.6,0,1-0.3,1.3-0.8
			c0.6-1.2,1.2-2.3,1.8-3.6c0.6-1.2,1.1-2.4,1.7-3.6c0.5,1.2,1.1,2.3,1.7,3.5c0.6,1.1,1.2,2.3,1.7,3.5c0.2,0.4,0.4,0.6,0.7,0.8
			c0.3,0.2,0.5,0.3,0.8,0.3c0.3,0,0.6-0.1,0.9-0.4c0.3-0.3,0.4-0.6,0.4-1.1c0-0.4,0.1-1,0.2-2c0.1-1,0.2-2.2,0.4-3.5
			c0.1-1.4,0.3-2.8,0.4-4.4c0.2-1.6,0.3-3.2,0.4-4.7c0.1-1.6,0.3-3.1,0.4-4.5c0.1-1.4,0.2-2.7,0.3-3.7c0-0.4-0.1-0.7-0.4-1
			s-0.6-0.4-1-0.4c-0.4,0-0.7,0.1-1,0.4c-0.3,0.2-0.4,0.5-0.5,0.9c-0.1,0.7-0.1,1.4-0.2,2.1c-0.1,0.7-0.1,1.4-0.2,2.2
			c-0.2,2.2-0.4,4.5-0.6,6.9c-0.2,2.5-0.4,4.8-0.6,6.9c-0.4-0.8-0.8-1.7-1.2-2.6c-0.4-0.9-0.8-1.8-1.2-2.7c-0.4-0.8-0.9-1.2-1.4-1.2
			c-0.5,0-0.9,0.3-1.2,0.9c-0.2,0.4-0.4,0.8-0.6,1.3s-0.5,1-0.7,1.5c-0.2,0.5-0.5,1-0.7,1.5c-0.2,0.5-0.4,0.9-0.6,1.3
			c-0.1-0.9-0.2-1.9-0.3-2.8s-0.2-1.8-0.4-2.7c-0.1-0.7-0.2-1.5-0.2-2.3c-0.1-0.8-0.2-1.6-0.2-2.4c-0.1-0.8-0.1-1.6-0.2-2.5
			c-0.1-0.8-0.1-1.6-0.2-2.3c0-0.2,0-0.3-0.1-0.5c0-0.1,0-0.3-0.1-0.5l-0.1-1.9c0-0.2,0-0.3,0-0.5c0-0.1,0-0.3,0-0.5
			c0-0.4-0.2-0.7-0.5-1c-0.3-0.2-0.6-0.4-1-0.4c-0.4,0-0.7,0.2-1,0.5s-0.4,0.6-0.4,1c0,0.2,0,0.6,0.1,1.4S421.3,464.6,421.5,465.7z"
			/>
		<path class="st1" d="M440.2,482.1c0.5,1.3,1.3,2.3,2.2,3.1s2.1,1.2,3.4,1.2c1.1,0,2-0.4,2.8-1.2s1.5-1.8,2-3.1
			c0.5-1.3,0.9-2.7,1.2-4.3c0.3-1.6,0.4-3.2,0.4-4.9c0-1.7-0.1-3.2-0.4-4.8c-0.3-1.5-0.7-2.9-1.2-4c-0.5-1.2-1.2-2.1-2-2.8
			c-0.8-0.7-1.8-1-2.8-1c-1,0-1.8,0.3-2.6,1c-0.8,0.7-1.5,1.6-2.1,2.7c-0.6,1.1-1.1,2.4-1.4,3.9c-0.4,1.5-0.6,3.1-0.7,4.7
			c-0.1,1.7,0,3.3,0.1,5C439.4,479.3,439.7,480.8,440.2,482.1z M441.9,472.7c0.1-1.2,0.3-2.4,0.5-3.5c0.2-1.1,0.5-2.2,0.9-3.1
			c0.3-0.9,0.7-1.6,1.2-2.1c0.4-0.5,0.9-0.8,1.4-0.8c0.6,0,1.1,0.2,1.5,0.7c0.4,0.5,0.8,1.2,1.1,2c0.3,0.9,0.5,1.8,0.6,3
			c0.1,1.1,0.2,2.3,0.3,3.6c0,1.4,0,2.7-0.2,4c-0.1,1.3-0.4,2.5-0.7,3.6c-0.3,1-0.7,1.9-1.1,2.5c-0.5,0.6-1,1-1.6,1
			c-0.8,0-1.5-0.3-2.1-0.9c-0.5-0.6-1-1.5-1.3-2.5c-0.3-1-0.5-2.2-0.6-3.5C441.8,475.4,441.8,474.1,441.9,472.7z"/>
		<path class="st1" d="M161.2,482.1c0.5,1.3,1.3,2.3,2.2,3.1s2.1,1.2,3.4,1.2c1.1,0,2-0.4,2.8-1.2s1.5-1.8,2-3.1
			c0.5-1.3,0.9-2.7,1.2-4.3c0.3-1.6,0.4-3.2,0.4-4.9c0-1.7-0.1-3.2-0.4-4.8c-0.3-1.5-0.7-2.9-1.2-4c-0.5-1.2-1.2-2.1-2-2.8
			c-0.8-0.7-1.8-1-2.8-1c-1,0-1.8,0.3-2.6,1c-0.8,0.7-1.5,1.6-2.1,2.7c-0.6,1.1-1.1,2.4-1.4,3.9c-0.4,1.5-0.6,3.1-0.7,4.7
			c-0.1,1.7,0,3.3,0.1,5C160.3,479.3,160.6,480.8,161.2,482.1z M162.8,472.7c0.1-1.2,0.3-2.4,0.5-3.5c0.2-1.1,0.5-2.2,0.9-3.1
			c0.3-0.9,0.7-1.6,1.2-2.1c0.4-0.5,0.9-0.8,1.4-0.8c0.6,0,1.1,0.2,1.5,0.7c0.4,0.5,0.8,1.2,1.1,2c0.3,0.9,0.5,1.8,0.6,3
			c0.1,1.1,0.2,2.3,0.3,3.6c0,1.4,0,2.7-0.2,4c-0.1,1.3-0.4,2.5-0.7,3.6c-0.3,1-0.7,1.9-1.1,2.5c-0.5,0.6-1,1-1.6,1
			c-0.8,0-1.5-0.3-2.1-0.9c-0.5-0.6-1-1.5-1.3-2.5c-0.3-1-0.5-2.2-0.6-3.5C162.7,475.4,162.7,474.1,162.8,472.7z"/>
		<path class="st1" d="M175.2,480.1c0,0.8,0.1,1.7,0.1,2.6c0,0.9,0.1,1.7,0.3,2.6c0,0.4,0.2,0.7,0.5,0.9c0.3,0.2,0.6,0.3,1.1,0.3
			c0.4,0,0.7-0.2,0.9-0.5c0.2-0.3,0.3-0.7,0.3-1c0-0.8-0.1-1.7-0.2-2.6c-0.1-0.9-0.2-1.8-0.2-2.7c-0.2-3.5-0.3-7.1-0.3-10.6v-0.9
			c0.9,2,1.7,4,2.6,5.9s1.8,3.9,2.7,5.9c0.4,0.9,0.8,1.8,1.2,2.8s0.9,1.9,1.3,2.7c0.3,0.5,0.7,0.8,1.3,0.8c0.5,0,0.9-0.2,1.1-0.5
			c0.2-0.3,0.3-0.7,0.3-1.1c0-2,0-4,0.1-6c0.1-2,0.1-4,0.2-6c0-1.8,0.1-3.5,0.2-5.3c0.1-1.8,0.1-3.5,0.1-5.3c0-0.4-0.1-0.8-0.4-1
			s-0.6-0.4-1-0.4c-0.4,0-0.8,0.1-1,0.3c-0.3,0.2-0.4,0.6-0.5,1c0,0.5-0.1,1.1-0.1,1.6c0,0.6,0,1.1,0,1.6c0,1.2,0,2.5-0.1,3.7
			c0,1.2,0,2.4-0.1,3.7c0,1,0,2-0.1,3c0,1,0,2-0.1,3c-1.3-2.9-2.6-5.8-3.8-8.6c-1.3-2.8-2.6-5.7-4-8.6c-0.1-0.3-0.3-0.6-0.6-0.7
			c-0.2-0.2-0.5-0.2-0.8-0.2c-0.3,0-0.5,0.1-0.7,0.2c-0.2,0.1-0.4,0.4-0.5,0.7c-0.1,0.2-0.1,0.6-0.2,1.2s-0.1,1.4-0.1,2.1
			s0,1.5,0,2.2c0,0.7,0,1.2,0,1.4c0,1.9,0,3.9,0.1,5.9S175.1,478.1,175.2,480.1z"/>
		<path class="st1" d="M190.9,485.2c0,0.4,0.2,0.7,0.5,1s0.6,0.4,1,0.4c0.7,0,1.4,0,2.1-0.1c0.7,0,1.5-0.1,2.1-0.2
			c0.4,0,0.7-0.2,1-0.5c0.2-0.3,0.3-0.6,0.3-1.1c0-0.3-0.1-0.6-0.4-0.9c-0.3-0.2-0.6-0.4-0.9-0.4c-0.5,0-1,0-1.5,0.1
			c-0.5,0-1,0.1-1.5,0.1c-0.1-1.9-0.2-3.8-0.3-5.9c-0.1-2.1-0.1-4.1-0.1-5.9v-1.7c0.5,0,0.9,0,1.2,0s0.8,0,1.2,0c0.3,0,0.5,0,0.8,0
			c0.3,0,0.6-0.1,0.8-0.1c0.3-0.1,0.5-0.2,0.6-0.4c0.2-0.2,0.2-0.5,0.2-0.9s-0.1-0.6-0.4-0.8c-0.2-0.2-0.5-0.3-0.9-0.4
			c-0.3-0.1-0.7-0.1-1.1-0.1s-0.7,0-1,0h-1.7c0-0.6,0-1.3,0-1.9c0-0.6,0-1.3,0.1-1.9h1l1.9,0h1c0.4,0,0.8-0.1,1-0.4
			c0.3-0.3,0.4-0.6,0.4-1c0-0.5-0.1-0.8-0.4-1c-0.3-0.2-0.7-0.4-1.1-0.4c-0.4-0.1-0.9-0.1-1.3-0.1s-0.8,0-1.2,0h-2.6
			c-0.3,0-0.6,0.1-0.8,0.3c-0.2,0.2-0.4,0.5-0.5,0.8c0,0.1-0.1,0.5-0.1,0.9s-0.1,1-0.1,1.6s0,1.3,0,2s0,1.4,0,2.1c0,0.7,0,1.2,0,1.8
			s0,0.9,0,1.2c0,2.3,0,4.7,0.1,7C190.6,480.5,190.7,482.9,190.9,485.2z"/>
		<path class="st1" d="M160,724.2h-3.3c0-0.6,0-1.3,0-1.9c0-0.6,0-1.2,0.1-1.9c0.7,0,1.5,0,2.2,0s1.5,0,2.2,0c0.4,0,0.8-0.1,1-0.4
			c0.3-0.2,0.4-0.6,0.4-1c0-0.9-0.5-1.4-1.4-1.4c-1-0.1-2-0.1-3-0.1c-1,0-2,0-3,0c-0.3,0-0.6,0.2-0.9,0.5c-0.3,0.3-0.5,0.7-0.5,1.1
			c-0.1,1.6-0.1,3.1-0.1,4.6c0,1.5,0,3.1,0,4.6c0,1,0,2.2,0,3.4s0,2.5,0,3.7s0.1,2.5,0.1,3.7s0.2,2.3,0.3,3.4c0,0.3,0.2,0.6,0.4,0.9
			s0.5,0.4,0.9,0.4c0.5,0,0.9-0.1,1.2-0.4c0.3-0.3,0.4-0.6,0.4-1.1c-0.1-1.2-0.1-2.4-0.2-3.7c0-1.3-0.1-2.6-0.1-3.9
			c0-1.3-0.1-2.6-0.1-3.9c0-1.3,0-2.6,0-3.7h1.6c0.3,0,0.6,0,1,0s0.7,0,1.1-0.1s0.6-0.2,0.9-0.4c0.2-0.2,0.4-0.5,0.4-0.9
			c0-0.4-0.1-0.8-0.4-1.1C160.8,724.3,160.5,724.2,160,724.2z"/>
		<path class="st1" d="M171.9,718.7c-0.8-0.7-1.8-1-2.8-1c-1,0-1.8,0.3-2.6,1c-0.8,0.7-1.5,1.6-2.1,2.7c-0.6,1.1-1.1,2.4-1.4,3.9
			s-0.6,3.1-0.7,4.7c-0.1,1.7,0,3.3,0.1,5c0.2,1.7,0.6,3.1,1.1,4.4s1.3,2.3,2.2,3.1s2.1,1.2,3.4,1.2c1.1,0,2-0.4,2.8-1.2
			c0.8-0.8,1.5-1.8,2-3.1c0.5-1.3,0.9-2.7,1.2-4.3s0.4-3.2,0.4-4.9c0-1.7-0.1-3.2-0.4-4.8s-0.7-2.9-1.2-4
			C173.4,720.4,172.7,719.4,171.9,718.7z M172.4,733.9c-0.1,1.3-0.4,2.5-0.7,3.6c-0.3,1-0.7,1.9-1.1,2.5c-0.5,0.6-1,1-1.6,1
			c-0.8,0-1.5-0.3-2.1-0.9c-0.5-0.6-1-1.5-1.3-2.5c-0.3-1-0.5-2.2-0.6-3.5c-0.1-1.3-0.1-2.6,0-3.9c0.1-1.2,0.3-2.4,0.5-3.5
			c0.2-1.1,0.5-2.2,0.9-3.1c0.3-0.9,0.7-1.6,1.2-2.1c0.4-0.5,0.9-0.8,1.4-0.8c0.6,0,1.1,0.2,1.5,0.7c0.4,0.5,0.8,1.2,1.1,2
			c0.3,0.9,0.5,1.8,0.6,3c0.1,1.1,0.2,2.3,0.3,3.6C172.6,731.2,172.5,732.5,172.4,733.9z"/>
		<path class="st1" d="M187.6,718.5c-0.3,0.3-0.4,0.6-0.4,1c0.1,1.4,0.3,2.8,0.4,4.3c0.1,1.4,0.2,2.8,0.2,4.3c0,0.8,0,1.8-0.1,2.9
			s-0.2,2.3-0.4,3.4c-0.2,1.1-0.5,2.2-0.8,3.3c-0.4,1-0.8,1.9-1.4,2.5c-0.2,0.2-0.4,0.4-0.6,0.6c-0.2,0.2-0.5,0.3-0.8,0.3
			c-0.3,0-0.5-0.1-0.8-0.4c-0.3-0.2-0.5-0.4-0.6-0.6c-0.5-0.6-0.8-1.3-1.1-2.2c-0.3-0.9-0.5-1.8-0.7-2.7c-0.2-1-0.3-1.9-0.3-2.8
			c-0.1-0.9-0.1-1.8-0.1-2.5c0-1.7,0.1-3.4,0.3-5c0.2-1.7,0.4-3.3,0.7-5c0,0,0-0.1,0-0.1c0,0,0-0.1,0-0.1c0-0.4-0.1-0.7-0.4-1
			s-0.6-0.4-1-0.4c-0.4,0-0.7,0.1-0.9,0.3c-0.2,0.2-0.4,0.5-0.5,0.9c-0.4,1.6-0.7,3.4-0.8,5.3c-0.2,1.9-0.2,3.7-0.2,5.4
			c0,0.7,0,1.5,0.1,2.4s0.2,1.9,0.4,3s0.4,2.1,0.7,3.1c0.3,1,0.7,1.9,1.2,2.7c0.5,0.8,1.1,1.5,1.8,2c0.7,0.5,1.5,0.8,2.4,0.8
			c0.7,0,1.4-0.2,1.9-0.5c0.6-0.4,1.1-0.8,1.5-1.3c0.7-0.8,1.3-1.8,1.7-3c0.4-1.2,0.8-2.4,1.1-3.7c0.3-1.3,0.4-2.6,0.5-3.9
			c0.1-1.3,0.1-2.4,0.1-3.5c0-1.4,0-2.8-0.1-4.3c-0.1-1.5-0.2-3-0.5-4.3c-0.1-0.3-0.2-0.6-0.5-0.9s-0.5-0.4-0.9-0.4
			C188.2,718.1,187.9,718.2,187.6,718.5z"/>
		<path class="st1" d="M194,717.6c-0.4,0-0.8,0.2-1,0.4c-0.3,0.2-0.4,0.5-0.5,0.9c-0.1,1.5-0.2,2.9-0.2,4.4c0,1.5,0,3,0,4.4
			c0,1.1,0,2.3,0,3.6c0,1.3,0,2.6,0.1,3.8s0.1,2.6,0.2,3.8c0.1,1.2,0.3,2.4,0.4,3.5c0,0.3,0.2,0.6,0.5,0.9c0.3,0.2,0.6,0.4,1,0.4
			s0.7-0.1,1-0.4c0.3-0.3,0.4-0.6,0.4-1v-0.2c-0.1-1.5-0.3-2.9-0.4-4.1c-0.1-1.3-0.2-2.6-0.2-4.1c0.5,0.7,1.1,1.5,1.8,2.4
			c0.7,0.9,1.5,1.7,2.3,2.5c0.9,0.8,1.7,1.5,2.7,2s1.9,0.8,2.8,0.8c0.4,0,0.9-0.1,1.3-0.3c0.5-0.2,0.9-0.4,1.3-0.7
			c0.4-0.3,0.7-0.7,1-1c0.3-0.4,0.4-0.8,0.4-1.2s-0.1-0.7-0.4-1s-0.6-0.4-1-0.4s-0.7,0.1-0.9,0.3c-0.2,0.2-0.4,0.4-0.5,0.6
			c-0.1,0.2-0.3,0.4-0.4,0.6c-0.2,0.2-0.4,0.3-0.7,0.3c-0.6,0-1.3-0.3-2.1-0.9c-0.8-0.6-1.5-1.3-2.3-2.1c-0.8-0.8-1.4-1.6-2.1-2.4
			c-0.6-0.8-1.1-1.5-1.3-2c1,0,2-0.3,2.9-0.6c0.9-0.4,1.7-0.9,2.4-1.6s1.3-1.4,1.7-2.3s0.6-1.9,0.6-2.9c0-1.2-0.3-2.2-0.8-3
			c-0.5-0.8-1.2-1.5-2-2c-0.8-0.5-1.7-0.9-2.7-1.1c-1-0.2-2-0.4-3-0.4C195.4,717.5,194.7,717.6,194,717.6z M199.8,721.1
			c0.6,0.3,1,0.7,1.4,1.2c0.4,0.5,0.6,1.1,0.6,1.8c0,0.7-0.1,1.3-0.4,1.9c-0.3,0.6-0.7,1-1.2,1.4c-0.5,0.4-1.1,0.7-1.7,0.9
			s-1.3,0.3-1.9,0.3c-0.2,0-0.5,0-0.7,0s-0.5,0-0.7-0.1V727c0-1.1,0-2.2,0-3.3c0-1.1,0.1-2.2,0.1-3.3l0.7,0c0.6,0,1.2,0.1,1.9,0.2
			C198.6,720.6,199.2,720.8,199.8,721.1z"/>
		<path class="st1" d="M674.8,720.6c-0.8-0.4-1.6-0.6-2.6-0.6c-0.9,0-1.8,0.2-2.5,0.6s-1.4,0.9-2,1.5s-1,1.3-1.3,2.1
			c-0.3,0.8-0.5,1.6-0.5,2.5c0,1,0.2,2,0.6,3c0.4,1,0.9,2,1.5,3c0.6,1,1.2,1.9,2,2.9c0.7,0.9,1.4,1.8,2,2.6s1.1,1.5,1.5,2.1
			c0.4,0.6,0.6,1.1,0.6,1.5c0,0.6-0.2,1-0.6,1.2c-0.4,0.2-0.9,0.4-1.4,0.4c-0.5,0-0.9-0.1-1.2-0.2c-0.3-0.2-0.6-0.4-0.7-0.7
			c-0.2-0.3-0.3-0.6-0.4-1s-0.1-0.7-0.1-1.1c0-0.4-0.1-0.8-0.4-1.1s-0.6-0.4-1.1-0.4c-0.5,0-0.8,0.2-1.1,0.6
			c-0.2,0.4-0.3,0.8-0.3,1.2c0,0.8,0.1,1.5,0.4,2.2c0.2,0.7,0.6,1.3,1.1,1.8s1,0.9,1.7,1.2c0.6,0.3,1.4,0.4,2.2,0.4
			c0.6,0,1.2-0.1,1.8-0.3c0.6-0.2,1.1-0.5,1.5-0.8c0.4-0.4,0.8-0.8,1.1-1.3c0.3-0.5,0.4-1.1,0.4-1.8c0-0.5-0.1-1-0.2-1.5
			c-0.2-0.5-0.4-0.9-0.6-1.4c-0.2-0.3-0.4-0.7-0.7-1c-0.3-0.3-0.6-0.7-0.8-1c-0.5-0.6-1-1.3-1.7-2.1c-0.7-0.9-1.3-1.8-1.9-2.7
			c-0.6-0.9-1.1-1.9-1.5-2.8c-0.4-0.9-0.6-1.8-0.6-2.5c0-0.5,0.1-1,0.3-1.4s0.4-0.9,0.7-1.2s0.7-0.6,1.1-0.9
			c0.4-0.2,0.9-0.3,1.4-0.3c0.6,0,1.1,0.1,1.5,0.3c0.4,0.2,0.8,0.5,1.1,0.9c0.3,0.4,0.5,0.8,0.6,1.3c0.1,0.5,0.2,1,0.2,1.5
			c0,0.3,0,0.6-0.1,0.9c-0.1,0.3-0.1,0.6-0.1,0.9c0,0.4,0.1,0.7,0.4,1s0.6,0.4,1,0.4c0.4,0,0.7-0.1,0.9-0.3c0.2-0.2,0.4-0.5,0.5-0.8
			c0.1-0.3,0.2-0.7,0.2-1c0-0.4,0-0.7,0-1c0-0.9-0.1-1.8-0.4-2.6c-0.3-0.8-0.7-1.5-1.3-2.2C676.2,721.4,675.6,720.9,674.8,720.6z"/>
		<path class="st1" d="M683,728.5c0-2.4,0-4.8,0-7.1c0-0.4-0.1-0.7-0.4-1s-0.6-0.4-1-0.4s-0.7,0.1-1,0.4s-0.4,0.6-0.4,1
			c0,0.6,0,1.1,0,1.7c0,0.6,0,1.2,0,1.8l0,7.2v3.5c0,1.5,0,3,0,4.5c0,1.5,0,3,0.1,4.5c0,0.4,0.2,0.8,0.4,1c0.3,0.2,0.6,0.4,1,0.4
			c0.4,0,0.7-0.1,1-0.4c0.3-0.3,0.4-0.6,0.4-1v-2.2l-0.1-4.5v-2.3C682.9,733.3,683,730.9,683,728.5z"/>
		<path class="st1" d="M687.9,736.6c-0.4,0.8-0.7,1.6-1.1,2.5c-0.4,0.9-0.7,1.7-1,2.4s-0.6,1.4-0.8,2c-0.2,0.6-0.3,1-0.3,1.2
			c0,0.4,0.1,0.7,0.4,1s0.6,0.4,1,0.4c0.3,0,0.6-0.1,0.9-0.3c0.2-0.2,0.4-0.4,0.5-0.7c0.6-1.5,1.2-2.9,1.8-4.4s1.2-2.9,1.9-4.3
			c0.4,0.7,0.8,1.4,1.1,2.2c0.4,0.8,0.8,1.5,1.3,2.3c0.4,0.8,0.9,1.5,1.4,2.2c0.5,0.7,1,1.4,1.5,2c0.3,0.4,0.7,0.6,1.1,0.6
			c0.4,0,0.7-0.1,1-0.4c0.3-0.3,0.4-0.6,0.4-1c0-0.3-0.1-0.6-0.3-0.9c-1.1-1.7-2.2-3.3-3.2-5c-1-1.7-1.9-3.4-2.8-5.2
			c0.1-0.2,0.3-0.7,0.6-1.3c0.3-0.6,0.7-1.3,1-2.1c0.4-0.8,0.8-1.7,1.2-2.6c0.4-0.9,0.8-1.7,1.1-2.5s0.6-1.5,0.9-2
			c0.2-0.6,0.3-0.9,0.3-1.1c0-0.4-0.1-0.7-0.4-1c-0.3-0.3-0.6-0.4-1-0.4c-0.3,0-0.6,0.1-0.8,0.3c-0.2,0.2-0.4,0.4-0.5,0.7
			c-0.6,1.5-1.3,2.9-1.9,4.4c-0.7,1.5-1.3,2.9-2.1,4.4c-0.6-1.4-1.1-2.8-1.5-4.2c-0.4-1.4-0.7-2.8-1-4.3c-0.1-0.8-0.7-1.3-1.6-1.3
			c-0.4,0-0.7,0.2-0.9,0.5s-0.4,0.7-0.4,1c0,0.7,0.1,1.6,0.4,2.7c0.3,1,0.6,2.1,1,3.2c0.4,1.1,0.8,2.2,1.2,3.2
			c0.4,1,0.8,1.9,1.1,2.6c-0.1,0.3-0.4,0.7-0.7,1.4S688.2,735.8,687.9,736.6z"/>
		<path class="st1" d="M416.3,719.9c-1,0-2,0-3,0c-0.3,0-0.6,0.2-0.9,0.5c-0.3,0.3-0.5,0.7-0.5,1.1c-0.1,1.6-0.1,3.1-0.1,4.6
			c0,1.5,0,3.1,0,4.6c0,1,0,2.2,0,3.4s0,2.5,0,3.7s0.1,2.5,0.1,3.7s0.2,2.3,0.3,3.4c0,0.3,0.2,0.6,0.4,0.9s0.5,0.4,0.9,0.4
			c0.5,0,0.9-0.1,1.2-0.4c0.3-0.3,0.4-0.6,0.4-1.1c-0.1-1.2-0.1-2.4-0.2-3.7c0-1.3-0.1-2.6-0.1-3.9c0-1.3-0.1-2.6-0.1-3.9
			c0-1.3,0-2.6,0-3.7h1.6c0.3,0,0.6,0,1,0s0.7,0,1.1-0.1s0.6-0.2,0.9-0.4c0.2-0.2,0.4-0.5,0.4-0.9c0-0.4-0.1-0.8-0.4-1.1
			c-0.3-0.3-0.6-0.4-1.1-0.4h-3.3c0-0.6,0-1.3,0-1.9c0-0.6,0-1.2,0.1-1.9c0.7,0,1.5,0,2.2,0s1.5,0,2.2,0c0.4,0,0.8-0.1,1-0.4
			c0.3-0.2,0.4-0.6,0.4-1c0-0.9-0.5-1.4-1.4-1.4C418.3,719.9,417.3,719.9,416.3,719.9z"/>
		<path class="st1" d="M424.6,728.5c0-2.4,0-4.8,0-7.1c0-0.4-0.1-0.7-0.4-1s-0.6-0.4-1-0.4s-0.7,0.1-1,0.4s-0.4,0.6-0.4,1
			c0,0.6,0,1.1,0,1.7c0,0.6,0,1.2,0,1.8l0,7.2v3.5c0,1.5,0,3,0,4.5c0,1.5,0,3,0.1,4.5c0,0.4,0.2,0.8,0.4,1c0.3,0.2,0.6,0.4,1,0.4
			c0.4,0,0.7-0.1,1-0.4c0.3-0.3,0.4-0.6,0.4-1v-2.2l-0.1-4.5v-2.3C424.6,733.3,424.6,730.9,424.6,728.5z"/>
		<path class="st1" d="M437.2,721.2c-0.8,2.9-1.5,5.9-2.1,8.9c-0.6,3-1.3,6-2.1,9c-0.3-1.4-0.7-2.9-1-4.4c-0.3-1.5-0.7-3-1-4.6
			c-0.3-1.5-0.6-3.1-0.9-4.6c-0.3-1.5-0.6-3-0.9-4.3c-0.1-0.3-0.2-0.6-0.5-0.9c-0.2-0.2-0.5-0.3-0.9-0.3c-0.4,0-0.7,0.1-1,0.4
			s-0.4,0.6-0.4,1c0,0,0,0.1,0,0.1s0,0.1,0,0.1c0.1,1,0.3,2.1,0.5,3.3c0.2,1.1,0.4,2.3,0.7,3.5c0.2,1.2,0.5,2.3,0.7,3.5
			c0.3,1.1,0.5,2.2,0.8,3.2c0.4,1.7,0.8,3.3,1.2,5c0.4,1.7,0.8,3.3,1.4,5c0.1,0.3,0.3,0.6,0.6,0.8s0.5,0.3,0.8,0.3
			c0.3,0,0.6-0.1,0.8-0.3c0.3-0.2,0.5-0.5,0.6-0.8c0.2-0.8,0.5-1.6,0.7-2.4s0.4-1.6,0.6-2.5c0.2-0.6,0.4-1.5,0.6-2.5
			c0.2-1,0.5-2.1,0.8-3.3s0.6-2.4,0.9-3.7s0.6-2.5,0.9-3.7c0.3-1.2,0.5-2.2,0.7-3.2c0.2-0.9,0.3-1.7,0.4-2.2c0-0.4-0.1-0.7-0.4-1
			c-0.3-0.3-0.7-0.4-1.1-0.4c-0.3,0-0.6,0.1-0.9,0.3S437.3,720.9,437.2,721.2z"/>
		<path class="st1" d="M444.6,723.1h1l1.9,0h1c0.4,0,0.8-0.1,1-0.4c0.3-0.3,0.4-0.6,0.4-1c0-0.5-0.1-0.8-0.4-1
			c-0.3-0.2-0.7-0.4-1.1-0.4s-0.9-0.1-1.3-0.1c-0.5,0-0.8,0-1.2,0h-2.6c-0.3,0-0.6,0.1-0.8,0.3c-0.2,0.2-0.4,0.5-0.5,0.8
			c0,0.1-0.1,0.5-0.1,0.9c0,0.5-0.1,1-0.1,1.6c0,0.6,0,1.3,0,2c0,0.7,0,1.4,0,2.1s0,1.2,0,1.8s0,0.9,0,1.2c0,2.3,0,4.7,0.1,7
			s0.2,4.6,0.3,7c0,0.4,0.2,0.7,0.5,1s0.6,0.4,1,0.4c0.7,0,1.4,0,2.1-0.1c0.7,0,1.5-0.1,2.1-0.2c0.4,0,0.7-0.2,1-0.5
			c0.2-0.3,0.3-0.6,0.3-1.1c0-0.3-0.1-0.6-0.4-0.9c-0.3-0.2-0.6-0.4-0.9-0.4c-0.5,0-1,0-1.5,0.1s-1,0.1-1.5,0.1
			c-0.1-1.8-0.2-3.8-0.3-5.9c-0.1-2.1-0.1-4.1-0.1-5.9v-1.7c0.5,0,0.9,0,1.2,0c0.4,0,0.8,0,1.2,0c0.3,0,0.5,0,0.8,0
			c0.3,0,0.6-0.1,0.8-0.1c0.3-0.1,0.5-0.2,0.6-0.4c0.2-0.2,0.2-0.5,0.2-0.9s-0.1-0.6-0.4-0.8c-0.2-0.2-0.5-0.3-0.9-0.4
			c-0.3-0.1-0.7-0.1-1.1-0.1s-0.7,0-1,0h-1.7c0-0.6,0-1.3,0-1.9C444.6,724.4,444.6,723.7,444.6,723.1z"/>
		<path class="st1" d="M656.3,1234.8c-1.3,0-2.6-0.1-4-0.1c-1.4,0-2.8,0-4,0.1c-0.4,0-0.7,0.1-1,0.4s-0.4,0.6-0.4,1
			c0,0.5,0.2,0.8,0.5,1c0.3,0.2,0.7,0.3,1.1,0.4c0.4,0,0.9,0.1,1.4,0c0.5,0,0.9-0.1,1.1-0.1c0,0.7,0,1.4,0,2.1c0,0.7,0,1.4,0,2.1
			c0,1,0,2.2,0,3.4c0,1.2,0,2.3,0,3.4c0,0.8,0,1.7,0,2.6c0,0.9,0,1.9,0.1,2.8c0,1,0.1,1.9,0.1,2.8c0,0.9,0.1,1.8,0.1,2.6
			c0,0.4,0.2,0.7,0.5,1c0.3,0.2,0.6,0.4,1,0.4c0.4,0,0.7-0.2,1-0.5c0.2-0.3,0.4-0.7,0.4-1c0-0.6,0-1.1-0.1-1.7s-0.1-1.1-0.1-1.7
			c-0.1-2.4-0.1-4.7-0.2-7c0-2.3-0.1-4.7-0.1-7c0-0.7,0-1.4,0-2.1c0-0.7,0-1.4,0.1-2.1h0.6l1.2,0h0.6c0.4,0,0.7-0.1,1-0.4
			c0.3-0.3,0.4-0.6,0.4-1c0-0.4-0.1-0.8-0.4-1C657,1235,656.7,1234.8,656.3,1234.8z"/>
		<path class="st1" d="M674.5,1235c-0.4,0-0.7,0.1-1,0.4c-0.3,0.2-0.4,0.5-0.5,0.9c-0.1,0.7-0.1,1.4-0.2,2.1
			c-0.1,0.7-0.1,1.4-0.2,2.2c-0.2,2.2-0.4,4.5-0.6,6.9c-0.2,2.5-0.4,4.8-0.6,6.9c-0.4-0.8-0.8-1.7-1.2-2.6c-0.4-0.9-0.8-1.8-1.2-2.7
			c-0.4-0.8-0.9-1.2-1.4-1.2c-0.5,0-0.9,0.3-1.2,0.9c-0.2,0.4-0.4,0.8-0.6,1.3s-0.5,1-0.7,1.5c-0.2,0.5-0.5,1-0.7,1.5
			c-0.2,0.5-0.4,0.9-0.6,1.3c-0.1-0.9-0.2-1.9-0.3-2.8s-0.2-1.8-0.4-2.7c-0.1-0.7-0.2-1.5-0.2-2.3c-0.1-0.8-0.2-1.6-0.2-2.4
			c-0.1-0.8-0.1-1.6-0.2-2.5c-0.1-0.8-0.1-1.6-0.2-2.3c0-0.2,0-0.3-0.1-0.5c0-0.1,0-0.3-0.1-0.5l-0.1-1.9c0-0.2,0-0.3,0-0.5
			c0-0.1,0-0.3,0-0.5c0-0.4-0.2-0.7-0.5-1c-0.3-0.2-0.6-0.4-1-0.4c-0.4,0-0.7,0.2-1,0.5s-0.4,0.6-0.4,1c0,0.2,0,0.6,0.1,1.4
			s0.1,1.7,0.3,2.8c0.1,1.1,0.2,2.4,0.4,3.8c0.1,1.4,0.3,2.8,0.4,4.2s0.3,2.8,0.4,4.2c0.1,1.4,0.3,2.6,0.4,3.7
			c0.1,1.1,0.3,2,0.4,2.7s0.2,1.1,0.2,1.2c0.1,0.3,0.3,0.5,0.5,0.6c0.2,0.2,0.5,0.2,0.8,0.2c0.6,0,1-0.3,1.3-0.8
			c0.6-1.2,1.2-2.3,1.8-3.6c0.6-1.2,1.1-2.4,1.7-3.6c0.5,1.2,1.1,2.3,1.7,3.5c0.6,1.1,1.2,2.3,1.7,3.5c0.2,0.4,0.4,0.6,0.7,0.8
			c0.3,0.2,0.5,0.3,0.8,0.3c0.3,0,0.6-0.1,0.9-0.4c0.3-0.3,0.4-0.6,0.4-1.1c0-0.4,0.1-1,0.2-2c0.1-1,0.2-2.2,0.4-3.5
			c0.1-1.4,0.3-2.8,0.4-4.4c0.2-1.6,0.3-3.2,0.4-4.7c0.1-1.6,0.3-3.1,0.4-4.5c0.1-1.4,0.2-2.7,0.3-3.7c0-0.4-0.1-0.7-0.4-1
			S674.9,1235,674.5,1235z"/>
		<path class="st1" d="M684.3,1234.9c-0.4-0.1-0.9-0.1-1.3-0.1s-0.8,0-1.2,0h-2.6c-0.3,0-0.6,0.1-0.8,0.3c-0.2,0.2-0.4,0.5-0.5,0.8
			c0,0.1-0.1,0.5-0.1,0.9s-0.1,1-0.1,1.6s0,1.3,0,2s0,1.4,0,2.1c0,0.7,0,1.2,0,1.8s0,0.9,0,1.2c0,2.3,0,4.7,0.1,7
			c0,2.3,0.2,4.7,0.3,7c0,0.4,0.2,0.7,0.5,1s0.6,0.4,1,0.4c0.7,0,1.4,0,2.1-0.1c0.7,0,1.5-0.1,2.1-0.2c0.4,0,0.7-0.2,1-0.5
			c0.2-0.3,0.3-0.6,0.3-1.1c0-0.3-0.1-0.6-0.4-0.9c-0.3-0.2-0.6-0.4-0.9-0.4c-0.5,0-1,0-1.5,0.1c-0.5,0-1,0.1-1.5,0.1
			c-0.1-1.9-0.2-3.8-0.3-5.9c-0.1-2.1-0.1-4.1-0.1-5.9v-1.7c0.5,0,0.9,0,1.2,0s0.8,0,1.2,0c0.3,0,0.5,0,0.8,0c0.3,0,0.6-0.1,0.8-0.1
			c0.3-0.1,0.5-0.2,0.6-0.4c0.2-0.2,0.2-0.5,0.2-0.9s-0.1-0.6-0.4-0.8c-0.2-0.2-0.5-0.3-0.9-0.4c-0.3-0.1-0.7-0.1-1.1-0.1
			s-0.7,0-1,0h-1.7c0-0.6,0-1.3,0-1.9c0-0.6,0-1.3,0.1-1.9h1l1.9,0h1c0.4,0,0.8-0.1,1-0.4c0.3-0.3,0.4-0.6,0.4-1
			c0-0.5-0.1-0.8-0.4-1C685.1,1235.1,684.7,1235,684.3,1234.9z"/>
		<path class="st1" d="M695.6,1257.6c-0.9,0-1.7,0-2.6,0.1s-1.8,0.1-2.7,0.1c-0.2-2.2-0.4-4.5-0.4-6.7c-0.1-2.2-0.1-4.5-0.1-6.7
			c0-1.5,0-2.9,0.1-4.4c0.1-1.4,0.1-2.9,0.1-4.3c0-0.4-0.1-0.7-0.4-1c-0.2-0.3-0.6-0.5-1-0.5c-0.4,0-0.8,0.1-1,0.4
			c-0.3,0.2-0.4,0.6-0.5,1c-0.1,1.5-0.2,2.9-0.2,4.4c0,1.5,0,3,0,4.4c0,0.5,0,1.1,0,1.6c0,0.5,0,1.1,0,1.6c0,0.9,0,1.8,0,2.9
			s0.1,2.1,0.1,3.1c0,1.1,0.1,2.1,0.2,3.1s0.2,2,0.4,2.8c0,0.3,0.2,0.6,0.4,0.9c0.2,0.2,0.6,0.4,1,0.4c1.1,0,2.2-0.1,3.3-0.2
			c1.1-0.1,2.2-0.2,3.3-0.2c0.4,0,0.7-0.1,1-0.4c0.3-0.3,0.4-0.6,0.4-1s-0.1-0.7-0.4-1S696,1257.6,695.6,1257.6z"/>
		<path class="st1" d="M706.3,1234.7c-0.3,0-0.6,0.1-0.9,0.3c-0.2,0.2-0.4,0.5-0.5,0.8c-0.8,2.9-1.5,5.9-2.1,8.9s-1.3,6-2.1,9
			c-0.3-1.4-0.7-2.9-1-4.4s-0.7-3-1-4.6c-0.3-1.5-0.6-3.1-0.9-4.6c-0.3-1.5-0.6-3-0.9-4.3c-0.1-0.3-0.2-0.6-0.5-0.9
			c-0.2-0.2-0.5-0.3-0.9-0.3c-0.4,0-0.7,0.1-1,0.4c-0.3,0.3-0.4,0.6-0.4,1c0,0,0,0.1,0,0.1s0,0.1,0,0.1c0.1,1,0.3,2.1,0.5,3.3
			c0.2,1.1,0.4,2.3,0.7,3.5c0.2,1.2,0.5,2.3,0.7,3.5c0.3,1.1,0.5,2.2,0.8,3.2c0.4,1.7,0.8,3.3,1.2,5c0.4,1.7,0.8,3.3,1.4,5
			c0.1,0.3,0.3,0.6,0.6,0.8c0.3,0.2,0.5,0.3,0.8,0.3c0.3,0,0.6-0.1,0.8-0.3c0.3-0.2,0.5-0.5,0.6-0.8c0.2-0.8,0.5-1.6,0.7-2.4
			c0.2-0.8,0.4-1.6,0.6-2.5c0.2-0.6,0.4-1.5,0.6-2.5c0.2-1,0.5-2.1,0.8-3.3c0.3-1.2,0.6-2.4,0.9-3.7c0.3-1.3,0.6-2.5,0.9-3.7
			c0.3-1.2,0.5-2.2,0.7-3.2c0.2-0.9,0.3-1.7,0.4-2.2c0-0.4-0.1-0.7-0.4-1S706.7,1234.7,706.3,1234.7z"/>
		<path class="st1" d="M712.3,1237.7h1l1.9,0h1c0.4,0,0.8-0.1,1-0.4c0.3-0.3,0.4-0.6,0.4-1c0-0.5-0.1-0.8-0.4-1
			c-0.3-0.2-0.7-0.4-1.1-0.4c-0.4-0.1-0.9-0.1-1.3-0.1s-0.8,0-1.2,0H711c-0.3,0-0.6,0.1-0.8,0.3c-0.2,0.2-0.4,0.5-0.5,0.8
			c0,0.1-0.1,0.5-0.1,0.9s-0.1,1-0.1,1.6s0,1.3,0,2s0,1.4,0,2.1c0,0.7,0,1.2,0,1.8s0,0.9,0,1.2c0,2.3,0,4.7,0.1,7
			c0,2.3,0.2,4.7,0.3,7c0,0.4,0.2,0.7,0.5,1s0.6,0.4,1,0.4c0.7,0,1.4,0,2.1-0.1c0.7,0,1.5-0.1,2.1-0.2c0.4,0,0.7-0.2,1-0.5
			c0.2-0.3,0.3-0.6,0.3-1.1c0-0.3-0.1-0.6-0.4-0.9c-0.3-0.2-0.6-0.4-0.9-0.4c-0.5,0-1,0-1.5,0.1c-0.5,0-1,0.1-1.5,0.1
			c-0.1-1.9-0.2-3.8-0.3-5.9c-0.1-2.1-0.1-4.1-0.1-5.9v-1.7c0.5,0,0.9,0,1.2,0s0.8,0,1.2,0c0.3,0,0.5,0,0.8,0c0.3,0,0.6-0.1,0.8-0.1
			c0.3-0.1,0.5-0.2,0.6-0.4c0.2-0.2,0.2-0.5,0.2-0.9s-0.1-0.6-0.4-0.8c-0.2-0.2-0.5-0.3-0.9-0.4c-0.3-0.1-0.7-0.1-1.1-0.1
			s-0.7,0-1,0h-1.7c0-0.6,0-1.3,0-1.9C712.3,1239,712.3,1238.4,712.3,1237.7z"/>
		<path class="st1" d="M403.3,1234.9c-0.4-0.1-0.9-0.1-1.3-0.1s-0.8,0-1.2,0h-2.6c-0.3,0-0.6,0.1-0.8,0.3c-0.2,0.2-0.4,0.5-0.5,0.8
			c0,0.1-0.1,0.5-0.1,0.9s-0.1,1-0.1,1.6s0,1.3,0,2s0,1.4,0,2.1c0,0.7,0,1.2,0,1.8s0,0.9,0,1.2c0,2.3,0,4.7,0.1,7
			c0,2.3,0.2,4.7,0.3,7c0,0.4,0.2,0.7,0.5,1s0.6,0.4,1,0.4c0.7,0,1.4,0,2.1-0.1c0.7,0,1.5-0.1,2.1-0.2c0.4,0,0.7-0.2,1-0.5
			c0.2-0.3,0.3-0.6,0.3-1.1c0-0.3-0.1-0.6-0.4-0.9c-0.3-0.2-0.6-0.4-0.9-0.4c-0.5,0-1,0-1.5,0.1c-0.5,0-1,0.1-1.5,0.1
			c-0.1-1.9-0.2-3.8-0.3-5.9c-0.1-2.1-0.1-4.1-0.1-5.9v-1.7c0.5,0,0.9,0,1.2,0s0.8,0,1.2,0c0.3,0,0.5,0,0.8,0c0.3,0,0.6-0.1,0.8-0.1
			c0.3-0.1,0.5-0.2,0.6-0.4c0.2-0.2,0.2-0.5,0.2-0.9s-0.1-0.6-0.4-0.8c-0.2-0.2-0.5-0.3-0.9-0.4c-0.3-0.1-0.7-0.1-1.1-0.1
			s-0.7,0-1,0h-1.7c0-0.6,0-1.3,0-1.9c0-0.6,0-1.3,0.1-1.9h1l1.9,0h1c0.4,0,0.8-0.1,1-0.4c0.3-0.3,0.4-0.6,0.4-1
			c0-0.5-0.1-0.8-0.4-1C404.1,1235.1,403.7,1235,403.3,1234.9z"/>
		<path class="st1" d="M414.6,1257.6c-0.9,0-1.7,0-2.6,0.1s-1.8,0.1-2.7,0.1c-0.2-2.2-0.4-4.5-0.4-6.7c-0.1-2.2-0.1-4.5-0.1-6.7
			c0-1.5,0-2.9,0.1-4.4c0.1-1.4,0.1-2.9,0.1-4.3c0-0.4-0.1-0.7-0.4-1c-0.2-0.3-0.6-0.5-1-0.5c-0.4,0-0.8,0.1-1,0.4
			c-0.3,0.2-0.4,0.6-0.5,1c-0.1,1.5-0.2,2.9-0.2,4.4c0,1.5,0,3,0,4.4c0,0.5,0,1.1,0,1.6c0,0.5,0,1.1,0,1.6c0,0.9,0,1.8,0,2.9
			s0.1,2.1,0.1,3.1c0,1.1,0.1,2.1,0.2,3.1s0.2,2,0.4,2.8c0,0.3,0.2,0.6,0.4,0.9c0.2,0.2,0.6,0.4,1,0.4c1.1,0,2.2-0.1,3.3-0.2
			c1.1-0.1,2.2-0.2,3.3-0.2c0.4,0,0.7-0.1,1-0.4c0.3-0.3,0.4-0.6,0.4-1s-0.1-0.7-0.4-1S415.1,1257.6,414.6,1257.6z"/>
		<path class="st1" d="M423.6,1234.9c-0.4-0.1-0.9-0.1-1.3-0.1s-0.8,0-1.2,0h-2.6c-0.3,0-0.6,0.1-0.8,0.3c-0.2,0.2-0.4,0.5-0.5,0.8
			c0,0.1-0.1,0.5-0.1,0.9s-0.1,1-0.1,1.6s0,1.3,0,2s0,1.4,0,2.1c0,0.7,0,1.2,0,1.8s0,0.9,0,1.2c0,2.3,0,4.7,0.1,7
			c0,2.3,0.2,4.7,0.3,7c0,0.4,0.2,0.7,0.5,1s0.6,0.4,1,0.4c0.7,0,1.4,0,2.1-0.1c0.7,0,1.5-0.1,2.1-0.2c0.4,0,0.7-0.2,1-0.5
			c0.2-0.3,0.3-0.6,0.3-1.1c0-0.3-0.1-0.6-0.4-0.9c-0.3-0.2-0.6-0.4-0.9-0.4c-0.5,0-1,0-1.5,0.1c-0.5,0-1,0.1-1.5,0.1
			c-0.1-1.9-0.2-3.8-0.3-5.9c-0.1-2.1-0.1-4.1-0.1-5.9v-1.7c0.5,0,0.9,0,1.2,0s0.8,0,1.2,0c0.3,0,0.5,0,0.8,0c0.3,0,0.6-0.1,0.8-0.1
			c0.3-0.1,0.5-0.2,0.6-0.4c0.2-0.2,0.2-0.5,0.2-0.9s-0.1-0.6-0.4-0.8c-0.2-0.2-0.5-0.3-0.9-0.4c-0.3-0.1-0.7-0.1-1.1-0.1
			s-0.7,0-1,0h-1.7c0-0.6,0-1.3,0-1.9c0-0.6,0-1.3,0.1-1.9h1l1.9,0h1c0.4,0,0.8-0.1,1-0.4c0.3-0.3,0.4-0.6,0.4-1
			c0-0.5-0.1-0.8-0.4-1C424.4,1235.1,424,1235,423.6,1234.9z"/>
		<path class="st1" d="M438.5,1234.7c-0.3,0-0.6,0.1-0.9,0.3c-0.2,0.2-0.4,0.5-0.5,0.8c-0.8,2.9-1.5,5.9-2.1,8.9s-1.3,6-2.1,9
			c-0.3-1.4-0.7-2.9-1-4.4s-0.7-3-1-4.6c-0.3-1.5-0.6-3.1-0.9-4.6c-0.3-1.5-0.6-3-0.9-4.3c-0.1-0.3-0.2-0.6-0.5-0.9
			c-0.2-0.2-0.5-0.3-0.9-0.3c-0.4,0-0.7,0.1-1,0.4c-0.3,0.3-0.4,0.6-0.4,1c0,0,0,0.1,0,0.1s0,0.1,0,0.1c0.1,1,0.3,2.1,0.5,3.3
			c0.2,1.1,0.4,2.3,0.7,3.5c0.2,1.2,0.5,2.3,0.7,3.5c0.3,1.1,0.5,2.2,0.8,3.2c0.4,1.7,0.8,3.3,1.2,5c0.4,1.7,0.8,3.3,1.4,5
			c0.1,0.3,0.3,0.6,0.6,0.8c0.3,0.2,0.5,0.3,0.8,0.3c0.3,0,0.6-0.1,0.8-0.3c0.3-0.2,0.5-0.5,0.6-0.8c0.2-0.8,0.5-1.6,0.7-2.4
			c0.2-0.8,0.4-1.6,0.6-2.5c0.2-0.6,0.4-1.5,0.6-2.5c0.2-1,0.5-2.1,0.8-3.3c0.3-1.2,0.6-2.4,0.9-3.7c0.3-1.3,0.6-2.5,0.9-3.7
			c0.3-1.2,0.5-2.2,0.7-3.2c0.2-0.9,0.3-1.7,0.4-2.2c0-0.4-0.1-0.7-0.4-1S438.9,1234.7,438.5,1234.7z"/>
		<path class="st1" d="M448.3,1234.9c-0.4-0.1-0.9-0.1-1.3-0.1s-0.8,0-1.2,0h-2.6c-0.3,0-0.6,0.1-0.8,0.3c-0.2,0.2-0.4,0.5-0.5,0.8
			c0,0.1-0.1,0.5-0.1,0.9s-0.1,1-0.1,1.6s0,1.3,0,2s0,1.4,0,2.1c0,0.7,0,1.2,0,1.8s0,0.9,0,1.2c0,2.3,0,4.7,0.1,7
			c0,2.3,0.2,4.7,0.3,7c0,0.4,0.2,0.7,0.5,1s0.6,0.4,1,0.4c0.7,0,1.4,0,2.1-0.1c0.7,0,1.5-0.1,2.1-0.2c0.4,0,0.7-0.2,1-0.5
			c0.2-0.3,0.3-0.6,0.3-1.1c0-0.3-0.1-0.6-0.4-0.9c-0.3-0.2-0.6-0.4-0.9-0.4c-0.5,0-1,0-1.5,0.1c-0.5,0-1,0.1-1.5,0.1
			c-0.1-1.9-0.2-3.8-0.3-5.9c-0.1-2.1-0.1-4.1-0.1-5.9v-1.7c0.5,0,0.9,0,1.2,0s0.8,0,1.2,0c0.3,0,0.5,0,0.8,0c0.3,0,0.6-0.1,0.8-0.1
			c0.3-0.1,0.5-0.2,0.6-0.4c0.2-0.2,0.2-0.5,0.2-0.9s-0.1-0.6-0.4-0.8c-0.2-0.2-0.5-0.3-0.9-0.4c-0.3-0.1-0.7-0.1-1.1-0.1
			s-0.7,0-1,0h-1.7c0-0.6,0-1.3,0-1.9c0-0.6,0-1.3,0.1-1.9h1l1.9,0h1c0.4,0,0.8-0.1,1-0.4c0.3-0.3,0.4-0.6,0.4-1
			c0-0.5-0.1-0.8-0.4-1C449.1,1235.1,448.8,1235,448.3,1234.9z"/>
		<path class="st1" d="M463.8,1235c-0.4,0-0.8,0.1-1,0.3c-0.3,0.2-0.4,0.6-0.5,1c0,0.5-0.1,1.1-0.1,1.6c0,0.6,0,1.1,0,1.6
			c0,1.2,0,2.5-0.1,3.7c0,1.2,0,2.4-0.1,3.7c0,1,0,2-0.1,3c0,1,0,2-0.1,3c-1.3-2.9-2.6-5.8-3.8-8.6c-1.3-2.8-2.6-5.7-4-8.6
			c-0.1-0.3-0.3-0.6-0.6-0.7c-0.2-0.2-0.5-0.2-0.8-0.2c-0.3,0-0.5,0.1-0.7,0.2c-0.2,0.1-0.4,0.4-0.5,0.7c-0.1,0.2-0.1,0.6-0.2,1.2
			s-0.1,1.4-0.1,2.1s0,1.5,0,2.2c0,0.7,0,1.2,0,1.4c0,1.9,0,3.9,0.1,5.9s0.2,3.9,0.3,5.9c0,0.8,0.1,1.7,0.1,2.6
			c0,0.9,0.1,1.7,0.3,2.6c0,0.4,0.2,0.7,0.5,0.9c0.3,0.2,0.6,0.3,1.1,0.3c0.4,0,0.7-0.2,0.9-0.5c0.2-0.3,0.3-0.7,0.3-1
			c0-0.8-0.1-1.7-0.2-2.6c-0.1-0.9-0.2-1.8-0.2-2.7c-0.2-3.5-0.3-7.1-0.3-10.6v-0.9c0.9,2,1.7,4,2.6,5.9s1.8,3.9,2.7,5.9
			c0.4,0.9,0.8,1.8,1.2,2.8s0.9,1.9,1.3,2.7c0.3,0.5,0.7,0.8,1.3,0.8c0.5,0,0.9-0.2,1.1-0.5c0.2-0.3,0.3-0.7,0.3-1.1c0-2,0-4,0.1-6
			c0.1-2,0.1-4,0.2-6c0-1.8,0.1-3.5,0.2-5.3c0.1-1.8,0.1-3.5,0.1-5.3c0-0.4-0.1-0.8-0.4-1S464.2,1235,463.8,1235z"/>
		<path class="st1" d="M171,1234.8c-1.3,0-2.6-0.1-4-0.1c-1.4,0-2.8,0-4,0.1c-0.4,0-0.7,0.1-1,0.4s-0.4,0.6-0.4,1
			c0,0.5,0.2,0.8,0.5,1c0.3,0.2,0.7,0.3,1.1,0.4c0.4,0,0.9,0.1,1.4,0c0.5,0,0.9-0.1,1.1-0.1c0,0.7,0,1.4,0,2.1c0,0.7,0,1.4,0,2.1
			c0,1,0,2.2,0,3.4c0,1.2,0,2.3,0,3.4c0,0.8,0,1.7,0,2.6c0,0.9,0,1.9,0.1,2.8c0,1,0.1,1.9,0.1,2.8c0,0.9,0.1,1.8,0.1,2.6
			c0,0.4,0.2,0.7,0.5,1c0.3,0.2,0.6,0.4,1,0.4c0.4,0,0.7-0.2,1-0.5c0.2-0.3,0.4-0.7,0.4-1c0-0.6,0-1.1-0.1-1.7s-0.1-1.1-0.1-1.7
			c-0.1-2.4-0.1-4.7-0.2-7c0-2.3-0.1-4.7-0.1-7c0-0.7,0-1.4,0-2.1c0-0.7,0-1.4,0.1-2.1h0.6l1.2,0h0.6c0.4,0,0.7-0.1,1-0.4
			c0.3-0.3,0.4-0.6,0.4-1c0-0.4-0.1-0.8-0.4-1C171.8,1235,171.4,1234.8,171,1234.8z"/>
		<path class="st1" d="M179.8,1234.9c-0.4-0.1-0.9-0.1-1.3-0.1s-0.8,0-1.2,0h-2.6c-0.3,0-0.6,0.1-0.8,0.3c-0.2,0.2-0.4,0.5-0.5,0.8
			c0,0.1-0.1,0.5-0.1,0.9s-0.1,1-0.1,1.6s0,1.3,0,2s0,1.4,0,2.1c0,0.7,0,1.2,0,1.8s0,0.9,0,1.2c0,2.3,0,4.7,0.1,7
			c0,2.3,0.2,4.7,0.3,7c0,0.4,0.2,0.7,0.5,1s0.6,0.4,1,0.4c0.7,0,1.4,0,2.1-0.1c0.7,0,1.5-0.1,2.1-0.2c0.4,0,0.7-0.2,1-0.5
			c0.2-0.3,0.3-0.6,0.3-1.1c0-0.3-0.1-0.6-0.4-0.9c-0.3-0.2-0.6-0.4-0.9-0.4c-0.5,0-1,0-1.5,0.1c-0.5,0-1,0.1-1.5,0.1
			c-0.1-1.9-0.2-3.8-0.3-5.9c-0.1-2.1-0.1-4.1-0.1-5.9v-1.7c0.5,0,0.9,0,1.2,0s0.8,0,1.2,0c0.3,0,0.5,0,0.8,0c0.3,0,0.6-0.1,0.8-0.1
			c0.3-0.1,0.5-0.2,0.6-0.4c0.2-0.2,0.2-0.5,0.2-0.9s-0.1-0.6-0.4-0.8c-0.2-0.2-0.5-0.3-0.9-0.4c-0.3-0.1-0.7-0.1-1.1-0.1
			s-0.7,0-1,0H176c0-0.6,0-1.3,0-1.9c0-0.6,0-1.3,0.1-1.9h1l1.9,0h1c0.4,0,0.8-0.1,1-0.4c0.3-0.3,0.4-0.6,0.4-1c0-0.5-0.1-0.8-0.4-1
			C180.6,1235.1,180.3,1235,179.8,1234.9z"/>
		<path class="st1" d="M195.3,1235c-0.4,0-0.8,0.1-1,0.3c-0.3,0.2-0.4,0.6-0.5,1c0,0.5-0.1,1.1-0.1,1.6c0,0.6,0,1.1,0,1.6
			c0,1.2,0,2.5-0.1,3.7c0,1.2,0,2.4-0.1,3.7c0,1,0,2-0.1,3c0,1,0,2-0.1,3c-1.3-2.9-2.6-5.8-3.8-8.6c-1.3-2.8-2.6-5.7-4-8.6
			c-0.1-0.3-0.3-0.6-0.6-0.7c-0.2-0.2-0.5-0.2-0.8-0.2c-0.3,0-0.5,0.1-0.7,0.2c-0.2,0.1-0.4,0.4-0.5,0.7c-0.1,0.2-0.1,0.6-0.2,1.2
			s-0.1,1.4-0.1,2.1s0,1.5,0,2.2c0,0.7,0,1.2,0,1.4c0,1.9,0,3.9,0.1,5.9s0.2,3.9,0.3,5.9c0,0.8,0.1,1.7,0.1,2.6
			c0,0.9,0.1,1.7,0.3,2.6c0,0.4,0.2,0.7,0.5,0.9c0.3,0.2,0.6,0.3,1.1,0.3c0.4,0,0.7-0.2,0.9-0.5c0.2-0.3,0.3-0.7,0.3-1
			c0-0.8-0.1-1.7-0.2-2.6c-0.1-0.9-0.2-1.8-0.2-2.7c-0.2-3.5-0.3-7.1-0.3-10.6v-0.9c0.9,2,1.7,4,2.6,5.9s1.8,3.9,2.7,5.9
			c0.4,0.9,0.8,1.8,1.2,2.8s0.9,1.9,1.3,2.7c0.3,0.5,0.7,0.8,1.3,0.8c0.5,0,0.9-0.2,1.1-0.5c0.2-0.3,0.3-0.7,0.3-1.1c0-2,0-4,0.1-6
			c0.1-2,0.1-4,0.2-6c0-1.8,0.1-3.5,0.2-5.3c0.1-1.8,0.1-3.5,0.1-5.3c0-0.4-0.1-0.8-0.4-1S195.7,1235,195.3,1235z"/>
		<path class="st1" d="M408.8,1003.5c0.7,0,1.5-0.1,2.1-0.2c0.4,0,0.7-0.2,1-0.5c0.2-0.3,0.3-0.6,0.3-1.1c0-0.3-0.1-0.6-0.4-0.9
			c-0.3-0.2-0.6-0.4-0.9-0.4c-0.5,0-1,0-1.5,0.1c-0.5,0-1,0.1-1.5,0.1c-0.1-1.9-0.2-3.8-0.3-5.9c-0.1-2.1-0.1-4.1-0.1-5.9v-1.7
			c0.5,0,0.9,0,1.2,0s0.8,0,1.2,0c0.3,0,0.5,0,0.8,0c0.3,0,0.6-0.1,0.8-0.1c0.3-0.1,0.5-0.2,0.6-0.4c0.2-0.2,0.2-0.5,0.2-0.9
			s-0.1-0.6-0.4-0.8c-0.2-0.2-0.5-0.3-0.9-0.4c-0.3-0.1-0.7-0.1-1.1-0.1s-0.7,0-1,0h-1.7c0-0.6,0-1.3,0-1.9c0-0.6,0-1.3,0.1-1.9h1
			l1.9,0h1c0.4,0,0.8-0.1,1-0.4c0.3-0.3,0.4-0.6,0.4-1c0-0.5-0.1-0.8-0.4-1c-0.3-0.2-0.7-0.4-1.1-0.4c-0.4-0.1-0.9-0.1-1.3-0.1
			s-0.8,0-1.2,0h-2.6c-0.3,0-0.6,0.1-0.8,0.3c-0.2,0.2-0.4,0.5-0.5,0.8c0,0.1-0.1,0.5-0.1,0.9s-0.1,1-0.1,1.6s0,1.3,0,2s0,1.4,0,2.1
			c0,0.7,0,1.2,0,1.8s0,0.9,0,1.2c0,2.3,0,4.7,0.1,7c0,2.3,0.2,4.7,0.3,7c0,0.4,0.2,0.7,0.5,1s0.6,0.4,1,0.4
			C407.3,1003.5,408.1,1003.5,408.8,1003.5z"/>
		<path class="st1" d="M417.6,1001.9v-2.2l-0.1-4.5V993c0-2.3,0-4.7,0-7.1c0-2.4,0-4.8,0-7.1c0-0.4-0.1-0.7-0.4-1
			c-0.3-0.3-0.6-0.4-1-0.4s-0.7,0.1-1,0.4c-0.3,0.3-0.4,0.6-0.4,1c0,0.6,0,1.1,0,1.7s0,1.2,0,1.8l0,7.2v3.5c0,1.5,0,3,0,4.5
			c0,1.5,0,3,0.1,4.5c0,0.4,0.2,0.8,0.4,1c0.3,0.2,0.6,0.4,1,0.4c0.4,0,0.7-0.1,1-0.4S417.6,1002.3,417.6,1001.9z"/>
		<path class="st1" d="M429.6,1000.2c0.5-0.9,0.9-1.8,1.2-2.8s0.5-1.9,0.6-2.6c0.1-0.5,0.1-1,0.1-1.4s0-0.9-0.1-1.2
			c-0.1-0.3-0.2-0.6-0.4-0.8c-0.2-0.2-0.5-0.3-0.8-0.3H429l-2.4,0c-0.2,0-0.4,0-0.6,0c-0.2,0-0.4,0-0.6,0c-0.4,0-0.7,0.1-1,0.4
			c-0.3,0.2-0.5,0.6-0.5,1c0,0.5,0.2,0.9,0.5,1.1c0.4,0.2,0.8,0.4,1.3,0.4c0.5,0.1,1,0.1,1.6,0.1s1,0,1.3,0c0,0.5-0.1,1-0.3,1.6
			c-0.1,0.6-0.3,1.3-0.6,1.9c-0.2,0.6-0.5,1.2-0.8,1.8c-0.3,0.5-0.7,1-1.1,1.2c-0.1,0.1-0.3,0.1-0.4,0.1c-0.1,0-0.3-0.1-0.4-0.2
			c-0.1-0.1-0.3-0.3-0.4-0.4s-0.3-0.4-0.4-0.5c-0.1-0.2-0.2-0.3-0.2-0.4c-0.3-0.6-0.6-1.3-0.9-2.1c-0.2-0.8-0.4-1.5-0.6-2.3
			c-0.1-0.8-0.3-1.6-0.3-2.4c-0.1-0.8-0.1-1.5-0.1-2.2c0-0.7,0-1.5,0.1-2.5c0.1-0.9,0.2-1.9,0.5-2.8s0.6-1.8,1-2.6
			c0.4-0.8,0.9-1.4,1.6-1.8c0.1-0.1,0.3-0.2,0.4-0.3c0.2-0.1,0.3-0.1,0.5-0.1c0.3,0,0.6,0.1,0.9,0.4c0.3,0.3,0.5,0.6,0.7,1
			c0.2,0.4,0.4,0.8,0.5,1.2c0.1,0.4,0.2,0.7,0.2,1c0.1,0.4,0.2,0.7,0.5,0.9c0.2,0.2,0.6,0.4,0.9,0.4c0.4,0,0.7-0.1,1-0.4
			c0.3-0.3,0.4-0.6,0.4-1c0-0.6-0.1-1.3-0.4-2.1c-0.3-0.7-0.7-1.4-1.1-2c-0.5-0.6-1-1.2-1.6-1.6c-0.6-0.4-1.3-0.6-2-0.6
			c-0.5,0-0.9,0.1-1.4,0.2c-0.4,0.2-0.8,0.4-1.2,0.6c-0.9,0.6-1.6,1.4-2.1,2.3c-0.6,1-1,2-1.4,3.1s-0.6,2.2-0.7,3.4
			c-0.1,1.1-0.2,2.2-0.2,3.2c0,0.6,0,1.4,0.1,2.3c0.1,0.9,0.2,1.8,0.4,2.8c0.2,1,0.4,2,0.7,3c0.3,1,0.7,1.9,1.1,2.7
			c0.5,0.8,1,1.4,1.6,1.9s1.4,0.7,2.2,0.7c0.9,0,1.7-0.3,2.4-0.9C428.5,1001.9,429.1,1001.1,429.6,1000.2z"/>
		<path class="st1" d="M442.2,996.4c-0.1,1.9-0.1,3.8-0.1,5.5c0,0.4,0.1,0.7,0.4,1c0.2,0.3,0.6,0.5,1,0.5c0.4,0,0.8-0.1,1-0.4
			c0.3-0.2,0.4-0.6,0.5-1c0.1-1.8,0.2-3.6,0.2-5.5c0-1.9,0-3.8,0.1-5.6c0-1.9,0.1-3.8,0.2-5.8c0.1-1.9,0.1-3.8,0.1-5.8
			c0-0.4-0.1-0.8-0.4-1c-0.2-0.3-0.6-0.4-1-0.4c-0.4,0-0.8,0.1-1,0.4c-0.3,0.3-0.4,0.6-0.4,1c-0.1,0.9-0.1,1.8-0.1,2.7
			c0,0.9,0,1.8,0,2.7c-1.1,0-2.2-0.1-3.2-0.1s-2.1-0.1-3.2-0.1v-4.3c0-0.4,0-0.7,0-1.1c0-0.4,0-0.7-0.1-1s-0.2-0.5-0.4-0.7
			c-0.2-0.2-0.5-0.3-1-0.3c-0.4,0-0.7,0.1-0.9,0.3c-0.2,0.2-0.4,0.5-0.4,0.8c-0.1,0.3-0.1,0.7-0.1,1s0,0.7,0,1c0,2.1,0,4.2,0,6.3
			c0,2.1,0,4.2,0,6.3c0,0.7,0,1.4,0,2.2c0,0.8,0,1.6,0,2.4c0,0.8,0,1.6,0.1,2.4c0,0.8,0.1,1.5,0.2,2.2c0,0.4,0.2,0.7,0.5,1
			c0.3,0.2,0.6,0.4,1,0.4c0.4,0,0.7-0.2,1-0.5s0.4-0.7,0.4-1c0-0.5,0-0.9-0.1-1.4c0-0.4-0.1-0.9-0.1-1.4c0-0.9,0-2-0.1-3.2
			c0-1.2,0-2.3,0-3.2c0-0.9,0-1.8,0-2.7c0-0.9,0-1.8,0-2.7c1.1,0,2.1,0,3.2,0.1c1.1,0,2.1,0.1,3.2,0.1l-0.1,3.3
			C442.3,992.7,442.3,994.5,442.2,996.4z"/>
		<path class="st1" d="M452.5,1003.4c0.4,0,0.7-0.2,1-0.5c0.2-0.3,0.4-0.7,0.4-1c0-0.6,0-1.1-0.1-1.7s-0.1-1.1-0.1-1.7
			c-0.1-2.4-0.1-4.7-0.2-7c0-2.3-0.1-4.7-0.1-7c0-0.7,0-1.4,0-2.1c0-0.7,0-1.4,0.1-2.1h0.6l1.2,0h0.6c0.4,0,0.7-0.1,1-0.4
			c0.3-0.3,0.4-0.6,0.4-1c0-0.4-0.1-0.8-0.4-1c-0.2-0.3-0.6-0.4-1-0.4c-1.3,0-2.6-0.1-4-0.1c-1.4,0-2.8,0-4,0.1
			c-0.4,0-0.7,0.1-1,0.4s-0.4,0.6-0.4,1c0,0.5,0.2,0.8,0.5,1c0.3,0.2,0.7,0.3,1.1,0.4c0.4,0,0.9,0.1,1.4,0c0.5,0,0.9-0.1,1.1-0.1
			c0,0.7,0,1.4,0,2.1c0,0.7,0,1.4,0,2.1c0,1,0,2.2,0,3.4c0,1.2,0,2.3,0,3.4c0,0.8,0,1.7,0,2.6c0,0.9,0,1.9,0.1,2.8
			c0,1,0.1,1.9,0.1,2.8c0,0.9,0.1,1.8,0.1,2.6c0,0.4,0.2,0.7,0.5,1C451.7,1003.3,452,1003.4,452.5,1003.4z"/>
		<path class="st1" d="M158.9,979.4c-0.5-0.6-1.2-1.1-2-1.5c-0.8-0.4-1.6-0.6-2.6-0.6c-0.9,0-1.8,0.2-2.5,0.6s-1.4,0.9-2,1.5
			s-1,1.3-1.3,2.1s-0.5,1.6-0.5,2.5c0,1,0.2,2,0.6,3c0.4,1,0.9,2,1.5,3s1.2,1.9,2,2.9s1.4,1.8,2,2.6c0.6,0.8,1.1,1.5,1.5,2.1
			c0.4,0.6,0.6,1.1,0.6,1.5c0,0.6-0.2,1-0.6,1.2c-0.4,0.2-0.9,0.4-1.4,0.4c-0.5,0-0.9-0.1-1.2-0.2s-0.6-0.4-0.7-0.7
			c-0.2-0.3-0.3-0.6-0.4-1s-0.1-0.7-0.1-1.1c0-0.4-0.1-0.8-0.4-1.1c-0.3-0.3-0.6-0.4-1.1-0.4c-0.5,0-0.8,0.2-1.1,0.6
			c-0.2,0.4-0.3,0.8-0.3,1.2c0,0.8,0.1,1.5,0.4,2.2c0.2,0.7,0.6,1.3,1.1,1.8c0.5,0.5,1,0.9,1.7,1.2s1.4,0.4,2.2,0.4
			c0.6,0,1.2-0.1,1.8-0.3c0.6-0.2,1.1-0.5,1.5-0.8c0.4-0.4,0.8-0.8,1.1-1.3c0.3-0.5,0.4-1.1,0.4-1.8c0-0.5-0.1-1-0.2-1.5
			c-0.2-0.5-0.4-0.9-0.6-1.4c-0.2-0.3-0.4-0.7-0.7-1c-0.3-0.3-0.6-0.7-0.8-1c-0.5-0.6-1-1.3-1.7-2.1c-0.7-0.9-1.3-1.8-1.9-2.7
			c-0.6-0.9-1.1-1.9-1.5-2.8c-0.4-0.9-0.6-1.8-0.6-2.5c0-0.5,0.1-1,0.3-1.4c0.2-0.5,0.4-0.9,0.7-1.2c0.3-0.4,0.7-0.6,1.1-0.9
			c0.4-0.2,0.9-0.3,1.4-0.3c0.6,0,1.1,0.1,1.5,0.3c0.4,0.2,0.8,0.5,1.1,0.9c0.3,0.4,0.5,0.8,0.6,1.3c0.1,0.5,0.2,1,0.2,1.5
			c0,0.3,0,0.6-0.1,0.9s-0.1,0.6-0.1,0.9c0,0.4,0.1,0.7,0.4,1c0.3,0.3,0.6,0.4,1,0.4c0.4,0,0.7-0.1,0.9-0.3c0.2-0.2,0.4-0.5,0.5-0.8
			s0.2-0.7,0.2-1c0-0.4,0-0.7,0-1c0-0.9-0.1-1.8-0.4-2.6C159.9,980.7,159.5,980,158.9,979.4z"/>
		<path class="st1" d="M165.2,980.4h1l1.9,0h1c0.4,0,0.8-0.1,1-0.4c0.3-0.3,0.4-0.6,0.4-1c0-0.5-0.1-0.8-0.4-1
			c-0.3-0.2-0.7-0.4-1.1-0.4c-0.4-0.1-0.9-0.1-1.3-0.1s-0.8,0-1.2,0h-2.6c-0.3,0-0.6,0.1-0.8,0.3c-0.2,0.2-0.4,0.5-0.5,0.8
			c0,0.1-0.1,0.5-0.1,0.9s-0.1,1-0.1,1.6s0,1.3,0,2s0,1.4,0,2.1c0,0.7,0,1.2,0,1.8s0,0.9,0,1.2c0,2.3,0,4.7,0.1,7
			c0,2.3,0.2,4.7,0.3,7c0,0.4,0.2,0.7,0.5,1s0.6,0.4,1,0.4c0.7,0,1.4,0,2.1-0.1c0.7,0,1.5-0.1,2.1-0.2c0.4,0,0.7-0.2,1-0.5
			c0.2-0.3,0.3-0.6,0.3-1.1c0-0.3-0.1-0.6-0.4-0.9c-0.3-0.2-0.6-0.4-0.9-0.4c-0.5,0-1,0-1.5,0.1c-0.5,0-1,0.1-1.5,0.1
			c-0.1-1.9-0.2-3.8-0.3-5.9c-0.1-2.1-0.1-4.1-0.1-5.9v-1.7c0.5,0,0.9,0,1.2,0s0.8,0,1.2,0c0.3,0,0.5,0,0.8,0c0.3,0,0.6-0.1,0.8-0.1
			c0.3-0.1,0.5-0.2,0.6-0.4c0.2-0.2,0.2-0.5,0.2-0.9s-0.1-0.6-0.4-0.8c-0.2-0.2-0.5-0.3-0.9-0.4c-0.3-0.1-0.7-0.1-1.1-0.1
			s-0.7,0-1,0h-1.7c0-0.6,0-1.3,0-1.9C165.2,981.7,165.2,981.1,165.2,980.4z"/>
		<path class="st1" d="M184.2,984.2c0.3-1.2,0.5-2.2,0.7-3.2c0.2-0.9,0.3-1.7,0.4-2.2c0-0.4-0.1-0.7-0.4-1s-0.7-0.4-1.1-0.4
			c-0.3,0-0.6,0.1-0.9,0.3c-0.2,0.2-0.4,0.5-0.5,0.8c-0.8,2.9-1.5,5.9-2.1,8.9s-1.3,6-2.1,9c-0.3-1.4-0.7-2.9-1-4.4s-0.7-3-1-4.6
			c-0.3-1.5-0.6-3.1-0.9-4.6c-0.3-1.5-0.6-3-0.9-4.3c-0.1-0.3-0.2-0.6-0.5-0.9c-0.2-0.2-0.5-0.3-0.9-0.3c-0.4,0-0.7,0.1-1,0.4
			c-0.3,0.3-0.4,0.6-0.4,1c0,0,0,0.1,0,0.1s0,0.1,0,0.1c0.1,1,0.3,2.1,0.5,3.3c0.2,1.1,0.4,2.3,0.7,3.5c0.2,1.2,0.5,2.3,0.7,3.5
			c0.3,1.1,0.5,2.2,0.8,3.2c0.4,1.7,0.8,3.3,1.2,5c0.4,1.7,0.8,3.3,1.4,5c0.1,0.3,0.3,0.6,0.6,0.8c0.3,0.2,0.5,0.3,0.8,0.3
			c0.3,0,0.6-0.1,0.8-0.3c0.3-0.2,0.5-0.5,0.6-0.8c0.2-0.8,0.5-1.6,0.7-2.4c0.2-0.8,0.4-1.6,0.6-2.5c0.2-0.6,0.4-1.5,0.6-2.5
			c0.2-1,0.5-2.1,0.8-3.3c0.3-1.2,0.6-2.4,0.9-3.7C183.6,986.6,183.9,985.4,184.2,984.2z"/>
		<path class="st1" d="M190,980.4h1l1.9,0h1c0.4,0,0.8-0.1,1-0.4c0.3-0.3,0.4-0.6,0.4-1c0-0.5-0.1-0.8-0.4-1
			c-0.3-0.2-0.7-0.4-1.1-0.4c-0.4-0.1-0.9-0.1-1.3-0.1s-0.8,0-1.2,0h-2.6c-0.3,0-0.6,0.1-0.8,0.3c-0.2,0.2-0.4,0.5-0.5,0.8
			c0,0.1-0.1,0.5-0.1,0.9s-0.1,1-0.1,1.6s0,1.3,0,2s0,1.4,0,2.1c0,0.7,0,1.2,0,1.8s0,0.9,0,1.2c0,2.3,0,4.7,0.1,7
			c0,2.3,0.2,4.7,0.3,7c0,0.4,0.2,0.7,0.5,1s0.6,0.4,1,0.4c0.7,0,1.4,0,2.1-0.1c0.7,0,1.5-0.1,2.1-0.2c0.4,0,0.7-0.2,1-0.5
			c0.2-0.3,0.3-0.6,0.3-1.1c0-0.3-0.1-0.6-0.4-0.9c-0.3-0.2-0.6-0.4-0.9-0.4c-0.5,0-1,0-1.5,0.1c-0.5,0-1,0.1-1.5,0.1
			c-0.1-1.9-0.2-3.8-0.3-5.9c-0.1-2.1-0.1-4.1-0.1-5.9v-1.7c0.5,0,0.9,0,1.2,0s0.8,0,1.2,0c0.3,0,0.5,0,0.8,0c0.3,0,0.6-0.1,0.8-0.1
			c0.3-0.1,0.5-0.2,0.6-0.4c0.2-0.2,0.2-0.5,0.2-0.9s-0.1-0.6-0.4-0.8c-0.2-0.2-0.5-0.3-0.9-0.4c-0.3-0.1-0.7-0.1-1.1-0.1
			s-0.7,0-1,0h-1.7c0-0.6,0-1.3,0-1.9C189.9,981.7,189.9,981.1,190,980.4z"/>
		<path class="st1" d="M209.2,977.6c-0.4,0-0.8,0.1-1,0.3c-0.3,0.2-0.4,0.6-0.5,1c0,0.5-0.1,1.1-0.1,1.6c0,0.6,0,1.1,0,1.6
			c0,1.2,0,2.5-0.1,3.7c0,1.2,0,2.4-0.1,3.7c0,1,0,2-0.1,3c0,1,0,2-0.1,3c-1.3-2.9-2.6-5.8-3.8-8.6c-1.3-2.8-2.6-5.7-4-8.6
			c-0.1-0.3-0.3-0.6-0.6-0.7c-0.2-0.2-0.5-0.2-0.8-0.2c-0.3,0-0.5,0.1-0.7,0.2c-0.2,0.1-0.4,0.4-0.5,0.7c-0.1,0.2-0.1,0.6-0.2,1.2
			s-0.1,1.4-0.1,2.1s0,1.5,0,2.2c0,0.7,0,1.2,0,1.4c0,1.9,0,3.9,0.1,5.9s0.2,3.9,0.3,5.9c0,0.8,0.1,1.7,0.1,2.6
			c0,0.9,0.1,1.7,0.3,2.6c0,0.4,0.2,0.7,0.5,0.9c0.3,0.2,0.6,0.3,1.1,0.3c0.4,0,0.7-0.2,0.9-0.5c0.2-0.3,0.3-0.7,0.3-1
			c0-0.8-0.1-1.7-0.2-2.6c-0.1-0.9-0.2-1.8-0.2-2.7c-0.2-3.5-0.3-7.1-0.3-10.6v-0.9c0.9,2,1.7,4,2.6,5.9s1.8,3.9,2.7,5.9
			c0.4,0.9,0.8,1.8,1.2,2.8s0.9,1.9,1.3,2.7c0.3,0.5,0.7,0.8,1.3,0.8c0.5,0,0.9-0.2,1.1-0.5c0.2-0.3,0.3-0.7,0.3-1.1c0-2,0-4,0.1-6
			c0.1-2,0.1-4,0.2-6c0-1.8,0.1-3.5,0.2-5.3c0.1-1.8,0.1-3.5,0.1-5.3c0-0.4-0.1-0.8-0.4-1S209.6,977.7,209.2,977.6z"/>
		<path class="st1" d="M665.9,991c0.9,2,1.8,3.9,2.7,5.9c0.4,0.9,0.8,1.8,1.2,2.8s0.9,1.9,1.3,2.7c0.3,0.5,0.7,0.8,1.3,0.8
			c0.5,0,0.9-0.2,1.1-0.5c0.2-0.3,0.3-0.7,0.3-1.1c0-2,0-4,0.1-6c0.1-2,0.1-4,0.2-6c0-1.8,0.1-3.5,0.2-5.3c0.1-1.8,0.1-3.5,0.1-5.3
			c0-0.4-0.1-0.8-0.4-1s-0.6-0.4-1-0.4c-0.4,0-0.8,0.1-1,0.3c-0.3,0.2-0.4,0.6-0.5,1c0,0.5-0.1,1.1-0.1,1.6c0,0.6,0,1.1,0,1.6
			c0,1.2,0,2.5-0.1,3.7c0,1.2,0,2.4-0.1,3.7c0,1,0,2-0.1,3c0,1,0,2-0.1,3c-1.3-2.9-2.6-5.8-3.8-8.6c-1.3-2.8-2.6-5.7-4-8.6
			c-0.1-0.3-0.3-0.6-0.6-0.7c-0.2-0.2-0.5-0.2-0.8-0.2c-0.3,0-0.5,0.1-0.7,0.2c-0.2,0.1-0.4,0.4-0.5,0.7c-0.1,0.2-0.1,0.6-0.2,1.2
			s-0.1,1.4-0.1,2.1s0,1.5,0,2.2c0,0.7,0,1.2,0,1.4c0,1.9,0,3.9,0.1,5.9s0.2,3.9,0.3,5.9c0,0.8,0.1,1.7,0.1,2.6
			c0,0.9,0.1,1.7,0.3,2.6c0,0.4,0.2,0.7,0.5,0.9c0.3,0.2,0.6,0.3,1.1,0.3c0.4,0,0.7-0.2,0.9-0.5c0.2-0.3,0.3-0.7,0.3-1
			c0-0.8-0.1-1.7-0.2-2.6c-0.1-0.9-0.2-1.8-0.2-2.7c-0.2-3.5-0.3-7.1-0.3-10.6v-0.9C664.1,987.1,665,989,665.9,991z"/>
		<path class="st1" d="M678.9,1001.9v-2.2l-0.1-4.5V993c0-2.3,0-4.7,0-7.1c0-2.4,0-4.8,0-7.1c0-0.4-0.1-0.7-0.4-1
			c-0.3-0.3-0.6-0.4-1-0.4s-0.7,0.1-1,0.4c-0.3,0.3-0.4,0.6-0.4,1c0,0.6,0,1.1,0,1.7s0,1.2,0,1.8l0,7.2v3.5c0,1.5,0,3,0,4.5
			c0,1.5,0,3,0.1,4.5c0,0.4,0.2,0.8,0.4,1c0.3,0.2,0.6,0.4,1,0.4c0.4,0,0.7-0.1,1-0.4S678.9,1002.3,678.9,1001.9z"/>
		<path class="st1" d="M690,999.7c0.4,1,0.9,1.9,1.3,2.7c0.3,0.5,0.7,0.8,1.3,0.8c0.5,0,0.9-0.2,1.1-0.5c0.2-0.3,0.3-0.7,0.3-1.1
			c0-2,0-4,0.1-6c0.1-2,0.1-4,0.2-6c0-1.8,0.1-3.5,0.2-5.3c0.1-1.8,0.1-3.5,0.1-5.3c0-0.4-0.1-0.8-0.4-1s-0.6-0.4-1-0.4
			c-0.4,0-0.8,0.1-1,0.3c-0.3,0.2-0.4,0.6-0.5,1c0,0.5-0.1,1.1-0.1,1.6c0,0.6,0,1.1,0,1.6c0,1.2,0,2.5-0.1,3.7c0,1.2,0,2.4-0.1,3.7
			c0,1,0,2-0.1,3c0,1,0,2-0.1,3c-1.3-2.9-2.6-5.8-3.8-8.6c-1.3-2.8-2.6-5.7-4-8.6c-0.1-0.3-0.3-0.6-0.6-0.7
			c-0.2-0.2-0.5-0.2-0.8-0.2c-0.3,0-0.5,0.1-0.7,0.2c-0.2,0.1-0.4,0.4-0.5,0.7c-0.1,0.2-0.1,0.6-0.2,1.2s-0.1,1.4-0.1,2.1
			s0,1.5,0,2.2c0,0.7,0,1.2,0,1.4c0,1.9,0,3.9,0.1,5.9s0.2,3.9,0.3,5.9c0,0.8,0.1,1.7,0.1,2.6c0,0.9,0.1,1.7,0.3,2.6
			c0,0.4,0.2,0.7,0.5,0.9c0.3,0.2,0.6,0.3,1.1,0.3c0.4,0,0.7-0.2,0.9-0.5c0.2-0.3,0.3-0.7,0.3-1c0-0.8-0.1-1.7-0.2-2.6
			c-0.1-0.9-0.2-1.8-0.2-2.7c-0.2-3.5-0.3-7.1-0.3-10.6v-0.9c0.9,2,1.7,4,2.6,5.9s1.8,3.9,2.7,5.9
			C689.2,997.8,689.6,998.7,690,999.7z"/>
		<path class="st1" d="M699.1,980.4h1l1.9,0h1c0.4,0,0.8-0.1,1-0.4c0.3-0.3,0.4-0.6,0.4-1c0-0.5-0.1-0.8-0.4-1
			c-0.3-0.2-0.7-0.4-1.1-0.4c-0.4-0.1-0.9-0.1-1.3-0.1s-0.8,0-1.2,0h-2.6c-0.3,0-0.6,0.1-0.8,0.3c-0.2,0.2-0.4,0.5-0.5,0.8
			c0,0.1-0.1,0.5-0.1,0.9s-0.1,1-0.1,1.6s0,1.3,0,2s0,1.4,0,2.1c0,0.7,0,1.2,0,1.8s0,0.9,0,1.2c0,2.3,0,4.7,0.1,7
			c0,2.3,0.2,4.7,0.3,7c0,0.4,0.2,0.7,0.5,1s0.6,0.4,1,0.4c0.7,0,1.4,0,2.1-0.1c0.7,0,1.5-0.1,2.1-0.2c0.4,0,0.7-0.2,1-0.5
			c0.2-0.3,0.3-0.6,0.3-1.1c0-0.3-0.1-0.6-0.4-0.9c-0.3-0.2-0.6-0.4-0.9-0.4c-0.5,0-1,0-1.5,0.1c-0.5,0-1,0.1-1.5,0.1
			c-0.1-1.9-0.2-3.8-0.3-5.9c-0.1-2.1-0.1-4.1-0.1-5.9v-1.7c0.5,0,0.9,0,1.2,0s0.8,0,1.2,0c0.3,0,0.5,0,0.8,0c0.3,0,0.6-0.1,0.8-0.1
			c0.3-0.1,0.5-0.2,0.6-0.4c0.2-0.2,0.2-0.5,0.2-0.9s-0.1-0.6-0.4-0.8c-0.2-0.2-0.5-0.3-0.9-0.4c-0.3-0.1-0.7-0.1-1.1-0.1
			s-0.7,0-1,0h-1.7c0-0.6,0-1.3,0-1.9C699.1,981.7,699.1,981.1,699.1,980.4z"/>
	</g>
</g>
<g>
	<g>
		<path class="st3" d="M149.3,392.8c0-5.4-4.6-9.4-9.6-8.6l-21.1,3.2l19.9-7.8c4.7-1.9,6.7-7.6,4-12.3c-2.7-4.7-8.6-5.8-12.6-2.7
			l-16.7,13.3l13.3-16.7c3.2-4,2-9.9-2.7-12.6h0c-4.7-2.7-10.4-0.7-12.3,4l-7.8,19.9l3.2-21.1c0.8-5-3.2-9.6-8.6-9.6
			c-5.4,0-9.4,4.6-8.6,9.6l3.2,21.1L85,352.6c-1.9-4.7-7.6-6.7-12.3-4c-4.7,2.7-5.8,8.6-2.7,12.6l13.3,16.7l-16.7-13.3
			c-4-3.2-9.9-2-12.6,2.7c-2.7,4.7-0.7,10.4,4,12.3l19.9,7.8l-21.1-3.2c-5-0.8-9.6,3.2-9.6,8.6s4.6,9.4,9.6,8.6l21.1-3.2l-19.9,7.8
			c-4.7,1.9-6.7,7.6-4,12.3c2.7,4.7,8.6,5.8,12.6,2.7l16.7-13.3l-13.3,16.7c-3.2,4-2,9.9,2.7,12.6c4.7,2.7,10.4,0.7,12.3-4l7.8-19.9
			l-3.2,21.1c-0.8,5,3.2,9.6,8.6,9.6s9.4-4.6,8.6-9.6l-3.2-21.1l7.8,19.9c1.9,4.7,7.6,6.7,12.3,4h0c4.7-2.7,5.8-8.6,2.7-12.6
			l-13.3-16.7l16.7,13.3c4,3.2,9.9,2,12.6-2.7c2.7-4.7,0.7-10.4-4-12.3l-19.9-7.8l21.1,3.2C144.7,402.2,149.3,398.2,149.3,392.8z
			 M98.2,407c-7.8,0-14.2-6.3-14.2-14.2s6.3-14.2,14.2-14.2c7.8,0,14.2,6.3,14.2,14.2S106.1,407,98.2,407z"/>
		<path class="st4" d="M98.2,378.6c-7.8,0-14.2,6.3-14.2,14.2S90.4,407,98.2,407c7.8,0,14.2-6.3,14.2-14.2S106.1,378.6,98.2,378.6z"
			/>
	</g>
	<g>
		<path class="st3" d="M811.5,392.8c0-3.9-3.3-6.8-6.9-6.2l-15.3,2.3l14.4-5.6c3.4-1.3,4.8-5.5,2.9-8.9c-1.9-3.4-6.2-4.2-9.1-1.9
			l-12.1,9.6L795,370c2.3-2.9,1.4-7.2-1.9-9.1l0,0c-3.4-1.9-7.5-0.5-8.9,2.9l-5.6,14.4l2.3-15.3c0.5-3.6-2.3-6.9-6.2-6.9
			s-6.8,3.3-6.2,6.9l2.3,15.3l-5.6-14.4c-1.3-3.4-5.5-4.8-8.9-2.9c-3.4,1.9-4.2,6.2-1.9,9.1l9.6,12.1l-12.1-9.6
			c-2.9-2.3-7.2-1.4-9.1,1.9c-1.9,3.4-0.5,7.5,2.9,8.9l14.4,5.6l-15.3-2.3c-3.6-0.5-6.9,2.3-6.9,6.2s3.3,6.8,6.9,6.2l15.3-2.3
			l-14.4,5.6c-3.4,1.3-4.8,5.5-2.9,8.9c1.9,3.4,6.2,4.2,9.1,1.9l12.1-9.6l-9.6,12.1c-2.3,2.9-1.4,7.2,1.9,9.1
			c3.4,1.9,7.5,0.5,8.9-2.9l5.6-14.4l-2.3,15.3c-0.5,3.6,2.3,6.9,6.2,6.9c3.9,0,6.8-3.3,6.2-6.9l-2.3-15.3l5.6,14.4
			c1.3,3.4,5.5,4.8,8.9,2.9l0,0c3.4-1.9,4.2-6.2,1.9-9.1l-9.6-12.1l12.1,9.6c2.9,2.3,7.2,1.4,9.1-1.9c1.9-3.4,0.5-7.5-2.9-8.9
			l-14.4-5.6l15.3,2.3C808.2,399.6,811.5,396.7,811.5,392.8z M774.7,402.7c-5.5,0-9.9-4.4-9.9-9.9s4.4-9.9,9.9-9.9s9.9,4.4,9.9,9.9
			S780.2,402.7,774.7,402.7z"/>
		<path class="st4" d="M774.7,382.9c-5.5,0-9.9,4.4-9.9,9.9s4.4,9.9,9.9,9.9s9.9-4.4,9.9-9.9S780.2,382.9,774.7,382.9z"/>
	</g>
	<g>
		<path class="st3" d="M687.8,146.9c0-3.9-3.3-6.8-6.9-6.2l-15.3,2.3l14.4-5.6c3.4-1.3,4.8-5.5,2.9-8.9c-1.9-3.4-6.2-4.2-9.1-1.9
			l-12.1,9.6l9.6-12.1c2.3-2.9,1.4-7.2-1.9-9.1h0c-3.4-1.9-7.5-0.5-8.9,2.9l-5.6,14.4l2.3-15.3c0.5-3.6-2.3-6.9-6.2-6.9
			c-3.9,0-6.8,3.3-6.2,6.9l2.3,15.3l-5.6-14.4c-1.3-3.4-5.5-4.8-8.9-2.9c-3.4,1.9-4.2,6.2-1.9,9.1l9.6,12.1l-12.1-9.6
			c-2.9-2.3-7.2-1.4-9.1,1.9c-1.9,3.4-0.5,7.5,2.9,8.9l14.4,5.6l-15.3-2.3c-3.6-0.5-6.9,2.3-6.9,6.2s3.3,6.8,6.9,6.2l15.3-2.3
			l-14.4,5.6c-3.4,1.3-4.8,5.5-2.9,8.9c1.9,3.4,6.2,4.2,9.1,1.9l12.1-9.6l-9.6,12.1c-2.3,2.9-1.4,7.2,1.9,9.1
			c3.4,1.9,7.5,0.5,8.9-2.9l5.6-14.4l-2.3,15.3c-0.5,3.6,2.3,6.9,6.2,6.9c3.9,0,6.8-3.3,6.2-6.9l-2.3-15.3l5.6,14.4
			c1.3,3.4,5.5,4.8,8.9,2.9h0c3.4-1.9,4.2-6.2,1.9-9.1l-9.6-12.1l12.1,9.6c2.9,2.3,7.2,1.4,9.1-1.9c1.9-3.4,0.5-7.5-2.9-8.9
			l-14.4-5.6l15.3,2.3C684.5,153.7,687.8,150.8,687.8,146.9z M650.9,156.9c-5.5,0-9.9-4.4-9.9-9.9s4.4-9.9,9.9-9.9s9.9,4.4,9.9,9.9
			S656.4,156.9,650.9,156.9z"/>
		<path class="st4" d="M650.9,137c-5.5,0-9.9,4.4-9.9,9.9s4.4,9.9,9.9,9.9s9.9-4.4,9.9-9.9S656.4,137,650.9,137z"/>
	</g>
</g>
<text transform="matrix(1 0 0 1 1115.0425 1038.5873)" class="st5 st6">color</text>
<g>
	<text transform="matrix(1 0 0 1 140.6855 339.478)" class="st7 st8 st9">asd</text>
</g>
</svg>
