<?xml version="1.0" encoding="utf-8"?>
<!-- Generator: Adobe Illustrator 27.9.0, SVG Export Plug-In . SVG Version: 6.00 Build 0)  -->
<svg version="1.1" id="Layer_2_00000060027741192433270960000015614826123767642030_" xmlns="http://www.w3.org/2000/svg"
	xmlns:xlink="http://www.w3.org/1999/xlink" x="0px" y="0px" viewBox="0 0 251.4 312.8"
	style="enable-background:new 0 0 251.4 312.8;" xml:space="preserve">
	<style type="text/css">
		.st0 {
			stroke: #000000;
			stroke-width: 2;
			stroke-linecap: round;
			stroke-linejoin: round;
			stroke-miterlimit: 10;
		}

		.st1 {
			font-family: 'SVN-BeachwoodScript';
		}

		.st2 {
			font-size: 71.6509px;
		}

		.st3 {
			fill: #E2D6C7;
		}
	</style>

	<text transform="matrix(0.9469 0 0 1 81.1327 201.7612)" class="st0 st1 st2">asd</text>
	<path class="st3" d="M247.8,256.5l-25-36.2c2.7-1.4,5.1-3.7,6.5-6.6c2.7-5.1,2.3-11.3-1-16.1L196,150.8c3.3-1.4,6.1-3.9,7.8-7.1
	c2.7-5.1,2.3-11.3-1-16.1l-26.2-38c2-1.4,3.8-3.3,5-5.6c2.7-5.1,2.3-11.3-1-16.1l-42.8-62c-2.3-3.3-5.8-5.6-9.8-6.4
	c-1-0.2-2.1-0.3-3.2-0.3c-1.1,0-2.2,0.1-3.2,0.3c-4,0.8-7.5,3.1-9.8,6.4L69,67.9c-3.3,4.8-3.7,11-1,16.1c1.2,2.3,2.9,4.2,5,5.6
	l-26.2,38c-3.3,4.8-3.7,11-1,16.1c1.7,3.3,4.5,5.8,7.8,7.1l-32.3,46.9c-3.3,4.8-3.7,11-1,16.1c1.5,2.8,3.8,5.1,6.5,6.6l-25,36.2
	c-3.3,4.8-3.7,11-1,16.1c2.7,5.1,8,8.3,13.8,8.3h93.1V312h34v-31.1h93.1c5.8,0,11.1-3.2,13.8-8.3
	C251.4,267.4,251.1,261.2,247.8,256.5z M14.7,265.3L45.3,221l10-14.5H34.1l38.4-55.6l10-14.5H59.6l31.2-45.2l10-14.5H81.8l42.8-62
	c0,0,0.1,0,0.2,0s0.1,0,0.2,0l42.8,62h-18.9l10,14.5l31.2,45.2h-22.8l10,14.5l38.4,55.6h-21.2l10,14.5l30.6,44.4H14.7z" />
</svg>