<?xml version="1.0" encoding="utf-8"?>
<!-- Generator: Adobe Illustrator 27.9.0, SVG Export Plug-In . SVG Version: 6.00 Build 0)  -->
<svg version="1.1" id="Layer_1" xmlns="http://www.w3.org/2000/svg" xmlns:xlink="http://www.w3.org/1999/xlink" x="0px"
	y="0px" viewBox="0 0 61.826 78.522" enable-background="new 0 0 61.826 78.522" xml:space="preserve">
	<g>
		<path fill="#E2D6C7" stroke="#FDB515" stroke-width="0.25" stroke-miterlimit="10" d="M58.129,29.176
		c0.036-2.247-0.553-3.599-1.5-5.048c-3.887-5.944-11.898-0.381-15.794-0.444c0.073-1.891,0.974-2.201,1.687-3.558
		C46.1,13.317,42.05,2.151,29.71,1.953C22.654,1.841,16.109,9.76,17.729,16.977c0.938,4.177,3.701,6.051,1.91,6.022
		c-3.37-0.054-7.411-2.815-10.246-2.481c-7.777,0.916-10.992,10.737,1.043,15.5c3.211,1.271,5.544,1.601,6.639,2.957L4.416,52.011
		c-1.344,1.384-1.029,3.951,0.6,4.808c1.175,0.619,2.636,1.33,4.331,2.052c-5.355,3.937-1.725,13.207,7.85,13.36
		c5.228,0.083,6.824-6.893,10.691-8.898c1.3,0.072,2.63,0.089,3.982,0.05c3.345,2.085,6.255,9.21,11.792,10.044l2.261,0.036
		c1.568-0.198,3.157-0.886,4.749-2.27c2.795-2.43,3.445-3.516,3.495-6.638c0.045-2.82-1.425-4.226-3.598-5.069
		c-0.369-0.143-0.717-0.257-1.05-0.354c1.374-0.656,2.75-1.392,4.126-2.23c1.535-0.935,1.823-3.376,0.539-4.736L42.885,40.201
		C45.762,35.897,58.014,36.391,58.129,29.176z" />
		<g>
			<path fill="none" stroke="#32C5F4" stroke-width="0.25" stroke-miterlimit="10" d="M48.342,25.103
			c0.16-0.392,0.218-0.58,0.106-0.733c-0.137-0.188-0.096-0.452,0.092-0.59s0.452-0.096,0.59,0.092
			c0.401,0.548,0.166,1.126-0.006,1.549c-0.16,0.392-0.218,0.58-0.106,0.733s0.309,0.155,0.731,0.122
			c0.454-0.035,1.077-0.083,1.477,0.465c0.401,0.549,0.166,1.127-0.006,1.549c-0.159,0.393-0.218,0.581-0.106,0.734
			s0.308,0.155,0.732,0.123c0.454-0.035,1.077-0.082,1.478,0.467c0.401,0.549,0.167,1.127-0.005,1.55
			c-0.159,0.393-0.218,0.581-0.106,0.735c0.138,0.188,0.096,0.452-0.092,0.59c-0.075,0.055-0.162,0.081-0.249,0.081
			c-0.13,0-0.258-0.06-0.341-0.173c-0.401-0.549-0.166-1.128,0.005-1.55c0.16-0.393,0.218-0.581,0.106-0.735
			c-0.112-0.154-0.309-0.155-0.732-0.123c-0.454,0.035-1.077,0.082-1.478-0.467c-0.401-0.549-0.166-1.127,0.006-1.549
			c0.16-0.392,0.218-0.58,0.106-0.733s-0.309-0.154-0.731-0.122c-0.454,0.035-1.077,0.083-1.477-0.465
			C47.936,26.104,48.171,25.525,48.342,25.103z" />
			<path fill="none" stroke="#32C5F4" stroke-width="0.25" stroke-miterlimit="10" d="M11.655,23.158
			c-0.198,0.65-0.801,0.809-1.242,0.925c-0.409,0.108-0.595,0.174-0.65,0.355c-0.055,0.181,0.062,0.34,0.341,0.657
			c0.301,0.342,0.713,0.811,0.515,1.461s-0.802,0.809-1.242,0.926c-0.41,0.108-0.595,0.174-0.65,0.356
			c-0.055,0.181,0.061,0.34,0.341,0.659c0.3,0.342,0.712,0.812,0.514,1.462s-0.802,0.81-1.242,0.926
			c-0.41,0.109-0.595,0.175-0.651,0.357c-0.068,0.223-0.304,0.349-0.527,0.281C7.073,31.496,7,31.442,6.948,31.373
			c-0.078-0.104-0.107-0.243-0.066-0.377c0.198-0.65,0.802-0.81,1.242-0.927c0.41-0.109,0.596-0.175,0.651-0.357
			c0.056-0.182-0.061-0.341-0.341-0.66c-0.3-0.342-0.712-0.811-0.514-1.462c0.198-0.65,0.802-0.809,1.242-0.925
			c0.41-0.108,0.595-0.174,0.65-0.356c0.055-0.181-0.062-0.339-0.341-0.657c-0.301-0.342-0.713-0.811-0.515-1.461
			s0.802-0.809,1.242-0.925c0.41-0.108,0.595-0.174,0.65-0.355c0.068-0.223,0.304-0.349,0.527-0.281
			C11.597,22.699,11.723,22.935,11.655,23.158z" />
			<path fill="none" stroke="#32C5F4" stroke-width="0.25" stroke-miterlimit="10"
				d="M17.534,67.36
			c-0.173,0.428-0.236,0.634-0.103,0.815c0.125,0.171,0.088,0.412-0.084,0.537c-0.068,0.05-0.148,0.074-0.226,0.074
			c-0.118,0-0.235-0.055-0.311-0.158c-0.399-0.546-0.162-1.131,0.011-1.558c0.173-0.428,0.236-0.634,0.103-0.815
			c-0.132-0.182-0.348-0.185-0.808-0.15c-0.46,0.035-1.089,0.083-1.487-0.463c-0.398-0.545-0.161-1.13,0.012-1.557
			c0.173-0.427,0.236-0.633,0.104-0.814s-0.347-0.184-0.807-0.148s-1.088,0.084-1.487-0.461c-0.398-0.545-0.161-1.13,0.013-1.556
			c0.174-0.427,0.236-0.633,0.104-0.813c-0.125-0.172-0.088-0.412,0.084-0.537c0.171-0.125,0.412-0.088,0.537,0.083
			c0.398,0.545,0.161,1.13-0.013,1.556c-0.174,0.427-0.236,0.633-0.104,0.814s0.347,0.184,0.807,0.148
			c0.459-0.036,1.088-0.084,1.487,0.461c0.399,0.545,0.161,1.13-0.012,1.557c-0.173,0.427-0.236,0.633-0.104,0.814
			c0.133,0.181,0.348,0.185,0.808,0.15c0.459-0.035,1.088-0.083,1.487,0.463C17.945,66.349,17.707,66.933,17.534,67.36z" />
			<path fill="none" stroke="#32C5F4" stroke-width="0.25" stroke-miterlimit="10" d="M24.293,11.223
			c0-1.013,0.821-1.834,1.834-1.834s1.834,0.821,1.834,1.834c0,0.449-0.161,0.859-0.428,1.178c-0.051,0.085-0.114,0.148-0.19,0.195
			c-0.324,0.286-0.749,0.461-1.215,0.461C25.114,13.057,24.293,12.236,24.293,11.223z" />
			<path fill="none" stroke="#32C5F4" stroke-width="0.25" stroke-miterlimit="10" d="M34.428,17.409
			c-0.572,1.969-2.267,3.242-4.318,3.242s-3.746-1.272-4.318-3.242c-0.044-0.152,0.043-0.31,0.195-0.354
			c0.151-0.044,0.31,0.043,0.354,0.195c0.5,1.719,1.979,2.83,3.769,2.83s3.269-1.111,3.769-2.83
			c0.044-0.152,0.203-0.238,0.354-0.195C34.385,17.098,34.472,17.257,34.428,17.409z" />
			<path fill="none" stroke="#32C5F4" stroke-width="0.25" stroke-miterlimit="10" d="M34.153,13.057
			c-1.013,0-1.834-0.821-1.834-1.834s0.821-1.834,1.834-1.834s1.834,0.821,1.834,1.834S35.166,13.057,34.153,13.057z" />
			<path fill="none" stroke="#32C5F4" stroke-width="0.25" stroke-miterlimit="10" d="M49.109,62.252
			c-0.364,0.616-1.052,0.61-1.554,0.607c-0.484-0.004-0.724,0.015-0.834,0.2c-0.109,0.185-0.009,0.404,0.228,0.827
			c0.246,0.438,0.583,1.037,0.219,1.654c-0.364,0.616-1.051,0.612-1.554,0.607c-0.486-0.004-0.725,0.015-0.834,0.2
			c-0.11,0.186-0.01,0.405,0.227,0.828c0.246,0.438,0.583,1.038,0.218,1.655c-0.364,0.617-1.052,0.613-1.555,0.609
			c-0.484-0.003-0.725,0.015-0.835,0.201c-0.077,0.131-0.215,0.204-0.357,0.204c-0.072,0-0.144-0.018-0.21-0.058
			c-0.197-0.116-0.263-0.37-0.146-0.567c0.364-0.617,1.051-0.612,1.554-0.609c0.484,0.004,0.725-0.015,0.835-0.201
			s0.01-0.406-0.227-0.828c-0.246-0.438-0.582-1.038-0.218-1.655c0.364-0.617,1.052-0.611,1.554-0.607
			c0.484,0.002,0.724-0.015,0.834-0.2c0.109-0.185,0.009-0.404-0.228-0.827c-0.246-0.437-0.583-1.037-0.219-1.654
			c0.364-0.616,1.052-0.612,1.554-0.607c0.485,0.005,0.724-0.015,0.834-0.2c0.116-0.197,0.371-0.262,0.567-0.146
			C49.16,61.801,49.225,62.055,49.109,62.252z" />
		</g>
	</g>
	<!-- <g>
		<text transform="matrix(0.561 0.8278 -0.8278 0.561 19.0609 37.2498)">
			<textPath startOffset="50%" text-anchor="middle" fill="#FDFEFF" font-family="'RollerSkates-Regular'" font-size="20px">meow
			</textPath>
			<textPath startOffset="50%" text-anchor="middle" fill="none" stroke="#6ABD45" stroke-width="0.25" stroke-miterlimit="9.9999"
				font-family="'RollerSkates-Regular'" font-size="20px">meow
			</textPath>
		</text>
	</g> -->

	<g>
		<text text-anchor="start" transform="matrix(0.561 0.8278 -0.8278 0.561 19.0609 37.2498)" fill="#FDFEFF"
			font-family="'RollerSkates-Regular'" font-size="20px">meowooo</text>
		<text text-anchor="start" transform="matrix(0.561 0.8278 -0.8278 0.561 19.0609 37.2498)" fill="none"
			stroke="#6ABD45" stroke-width="0.25" stroke-miterlimit="9.9999" font-family="'RollerSkates-Regular'"
			font-size="20px">meowooo</text>
	</g>
</svg>