<?xml version="1.0" encoding="utf-8"?>
<!-- Generator: Adobe Illustrator 27.9.0, SVG Export Plug-In . SVG Version: 6.00 Build 0)  -->
<svg version="1.1" id="Layer_1" xmlns="http://www.w3.org/2000/svg" xmlns:xlink="http://www.w3.org/1999/xlink" x="0px"
	y="0px" viewBox="0 0 612 792" style="enable-background:new 0 0 612 792;" xml:space="preserve">
	<style type="text/css">
		.st0 {
			fill: #FFFFFF;
		}

		.st1 {
			fill: none;
			stroke: #9C509F;
			stroke-miterlimit: 10;
		}

		.st2 {
			fill: #010101;
			stroke: #3A53A4;
			stroke-width: 0.25;
			stroke-miterlimit: 10;
		}
	</style>

	<g>
		<path class="st0"
			d="M367.8,576.3c-2-9.4-4.7-19.5-8.5-30.9c3.1-1.7,4.8-3.7,4.7-6c0-2.8-2-4.8-5.5-5.5c1.9-1.7,3.8-3.5,5.6-5.3
		c22.7-22.7,36.7-54.1,36.7-88.7c0-30.1-10.6-57.8-28.3-79.4c-17.7-21.6-42.5-37.2-70.8-43.3v-9.3v-9.3c0-1.2-0.5-2.2-1.2-3
		s-1.8-1.2-3-1.2h-12.4c1-1.7,1.5-3.6,1.5-5.7c0-6.3-5.1-11.3-11.3-11.3c-6.3,0-11.3,5.1-11.3,11.3c0,2.1,0.6,4,1.5,5.7h-12.3
		c-1.2,0-2.2,0.5-3,1.2c-0.8,0.8-1.2,1.8-1.2,3v9.3v9.3c-28.3,6.1-53.1,21.7-70.8,43.3c-17.7,21.6-28.3,49.3-28.3,79.4
		c0,34.6,14,66,36.7,88.7c1.8,1.8,3.7,3.6,5.6,5.3c-3.5,0.7-5.5,2.7-5.5,5.5c0,2.3,1.6,4.3,4.8,6c-3.8,11.3-6.5,21.5-8.5,30.9
		c-3.8,1-9.6,4.1-10.2,10.7c-0.2,1.5,0.6,2.9,2.1,4.2c8.8,7.5,47.3,12.2,100.4,12.2h0c53.1,0,91.6-4.7,100.4-12.2
		c1.5-1.3,2.3-2.7,2.1-4.2C377.4,580.5,371.7,577.3,367.8,576.3z M269.9,288.8c0-3.1,2.5-5.7,5.7-5.7c3.1,0,5.7,2.5,5.7,5.7
		c0,3.1-2.5,5.7-5.7,5.7S269.9,291.9,269.9,288.8z M166.9,439.9c0-29.9,12.2-57.1,31.8-76.8c19.7-19.7,46.8-31.8,76.8-31.8
		s57.1,12.2,76.8,31.8c19.7,19.7,31.8,46.8,31.8,76.8c0,29.9-12.2,57.1-31.8,76.8c-8.8,8.8-19,16-30.3,21.4
		c-11.4,0.8-26.5,1.4-46.5,1.4c-19.9,0-35.1-0.6-46.5-1.4c-11.3-5.4-21.5-12.6-30.3-21.4C179.1,497,166.9,469.8,166.9,439.9z" />
		<path class="st1" d="M365.2,577.9c-1.9-9.6-4.8-20-8.7-31.7c-0.2-0.5-0.4-1.1-0.7-1.5c4.2-1.9,5.2-3.8,5.1-5.1l0,0
		c0-1-0.4-1.8-1.1-2.4c-2.1-1.9-6.6-1.6-6.7-1.6l-0.1,0c0,0-0.9,0.3-2.9,0.8l1.7-1.1c3.5-2.8,6.9-5.9,10.1-9
		c23.1-23.1,35.8-53.8,35.8-86.5c0-28.1-9.8-55.6-27.6-77.4c-17.5-21.4-42-36.4-69-42.2l-1.4-0.3V300c0-0.7-0.3-1.3-0.7-1.7
		c-0.5-0.5-1.1-0.7-1.7-0.7h-43.8c-0.7,0-1.3,0.3-1.7,0.7c-0.5,0.5-0.7,1.1-0.7,1.7v19.7l-1.4,0.3c-26.9,5.8-51.4,20.7-69,42.2
		c-17.8,21.7-27.6,49.2-27.6,77.4c0,32.7,12.7,63.4,35.8,86.5c3.2,3.2,6.6,6.2,10.1,9.1l1.3,1c-1.7-0.4-2.5-0.7-2.5-0.7l-0.1,0
		c-0.2,0-4.7-0.3-6.7,1.6c-0.7,0.6-1.1,1.5-1.1,2.4c0,1.3,0.9,3.2,5.2,5.2c-0.3,0.4-0.6,1-0.7,1.5c-3.9,11.7-6.7,22.1-8.7,31.7
		c-0.7,0.1-9.2,1.7-10,8.9c-0.1,0.8,0.2,1.5,0.9,2.3c6.2,6.9,44.9,11.4,98.7,11.4c53.8,0,92.5-4.5,98.7-11.4
		c0.7-0.7,0.9-1.5,0.9-2.3C374.3,579.6,365.9,578,365.2,577.9z M199.7,534.5c-3.5-2.8-6.9-5.8-10-9c-23-23-35.6-53.5-35.6-85.9
		c0-28,9.7-55.3,27.4-76.9c17.4-21.3,41.8-36.2,68.6-41.9l1.9-0.4V300c0-0.5,0.2-0.9,0.5-1.2c0.3-0.3,0.8-0.5,1.2-0.5h43.8
		c0.5,0,0.9,0.2,1.2,0.5c0.3,0.3,0.5,0.8,0.5,1.2v20.3l1.9,0.4c26.8,5.7,51.1,20.6,68.6,41.9c17.7,21.6,27.4,48.9,27.4,76.9
		c0,32.5-12.6,63-35.6,85.9c-3.2,3.2-6.6,6.2-10,9l-3.3,2.2c-3.8,0.8-10.2,1.8-20.2,2.6c9.9-5.2,19-11.9,27-20
		c21.2-21.2,32.9-49.4,32.9-79.4c0-30-11.7-58.2-32.9-79.4c-21.3-21.2-49.5-32.9-79.4-32.9c-30,0-58.2,11.7-79.4,32.9
		c-21.2,21.2-32.9,49.4-32.9,79.4c0,30,11.7,58.2,32.9,79.4c8,8,17.1,14.7,27,20c-10.7-0.9-17.2-2-21-2.8L199.7,534.5z M275.5,541.1
		c-22.4,0-38.8-0.7-50.5-1.7c-10.4-5.3-19.9-12.2-28.3-20.6c-21.1-21.1-32.7-49.1-32.7-78.9c0-29.8,11.6-57.8,32.7-78.9
		c21.1-21.1,49.1-32.7,78.9-32.7c29.8,0,57.8,11.6,78.9,32.7c21.1,21.1,32.7,49.1,32.7,78.9c0,29.8-11.6,57.8-32.7,78.9
		c-8.4,8.4-17.9,15.3-28.3,20.6C314.4,540.4,298,541.1,275.5,541.1z M190.9,539.5c0-0.8,0.3-1.4,0.8-1.9c1.4-1.3,4.1-1.4,5.4-1.4
		c0.4,0,0.6,0,0.7,0c0.7,0.2,7.4,2.4,27,4l0.1,0v0c11.8,1,28.1,1.7,50.6,1.7c22.5,0,38.9-0.8,50.6-1.7v0l0.1,0
		c19.6-1.6,26.3-3.8,27-4c0.5,0,4.4-0.2,6.1,1.4c0.5,0.5,0.8,1.1,0.8,1.9c0,1.6-1.8,3.2-5.2,4.7c-7.8,3.3-28,7.3-79.5,7.3
		c-51.5,0-71.6-4-79.5-7.3C192.7,542.7,190.9,541,190.9,539.5z M195.3,546.4c0.1-0.4,0.5-1,0.7-1.4c8.1,3.3,28.4,7.3,79.5,7.3
		c51.2,0,71.5-4,79.6-7.3c0.3,0.4,0.5,1,0.7,1.5c3.9,11.7,6.7,22.1,8.7,31.8c-3.7,4.4-20.2,11.6-88.9,11.6
		c-68.7,0-85.2-7.2-88.9-11.6C188.6,568.5,191.4,558.1,195.3,546.4z M373.7,588.6c-5,5.5-37.2,11.1-98.2,11.1
		c-60.9,0-93.2-5.6-98.2-11.1c-0.5-0.6-0.7-1.1-0.7-1.7c0.8-6.8,8.9-8.2,9.4-8.3c4.5,5.5,23.8,11.9,89.5,11.9
		c65.6,0,84.9-6.4,89.5-11.9c0.5,0.1,8.6,1.5,9.4,8.3C374.4,587.5,374.2,588,373.7,588.6z" />
		<g>
			<path class="st2" d="M267.1,305.2c-0.2-0.3-0.5-0.6-0.9-0.8c-0.4-0.2-0.9-0.3-1.4-0.3c-0.5,0-1,0.1-1.5,0.3
			c-0.5,0.2-0.9,0.5-1.3,0.8c-0.4,0.4-0.7,0.8-1,1.2c-0.3,0.5-0.4,0.9-0.5,1.4c0,0.3,0,0.6,0,0.9c0.1,0.3,0.2,0.5,0.3,0.7
			c0.1,0.2,0.3,0.3,0.5,0.4c0.2,0.1,0.4,0.1,0.7,0.1c0.3,0,0.6-0.1,0.9-0.2c0.3-0.1,0.6-0.4,0.8-0.7c0.3-0.4,0.6-0.8,0.7-1.2
			c0.1-0.4,0.2-0.7,0.1-1c0-0.1-0.1-0.2-0.2-0.3c-0.1,0-0.2-0.1-0.2-0.1c-0.1,0-0.3,0-0.4,0.1c-0.1,0.1-0.2,0.2-0.2,0.3
			c0.1,0.1,0.2,0.3,0.2,0.5c0,0.2,0,0.3-0.1,0.5c-0.1,0.1-0.2,0.3-0.3,0.4c-0.1,0.1-0.3,0.1-0.4,0.1c-0.3,0-0.6-0.1-0.8-0.4
			c-0.2-0.3-0.2-0.7,0-1.3c0.1-0.2,0.2-0.5,0.4-0.7c0.2-0.2,0.4-0.4,0.6-0.5c0.2-0.1,0.4-0.2,0.7-0.3c0.2,0,0.5-0.1,0.7,0
			c0.2,0,0.5,0.1,0.6,0.2c0.2,0.1,0.3,0.3,0.4,0.4c0.1,0.2,0.2,0.4,0.2,0.6c0,0.2,0,0.4,0,0.6c0,0.3-0.1,0.6-0.2,0.9
			c-0.1,0.3-0.3,0.6-0.5,0.9c-0.2,0.3-0.4,0.6-0.7,0.8c-0.2,0.3-0.5,0.5-0.7,0.7c-0.4,0.3-0.8,0.6-1.3,1c-0.5,0.4-1,0.8-1.4,1.2
			c-0.4,0.4-0.8,0.9-1.2,1.4c-0.3,0.5-0.5,1-0.6,1.5c0,0.1,0,0.2,0.1,0.2c0.1,0,0.2,0.1,0.3,0.1c0.2,0,0.4-0.1,0.5-0.2
			c0.2-0.2,0.5-0.4,0.9-0.4c0.3,0,0.5,0.1,0.8,0.2c0.3,0.1,0.6,0.2,0.9,0.4c0.5,0.2,0.9,0.4,1.3,0.4c0.4,0,0.7-0.1,1-0.3
			c0.3-0.2,0.5-0.4,0.7-0.7s0.3-0.6,0.5-0.8c0.1-0.3,0.2-0.5,0.3-0.7c0-0.1,0-0.1-0.1-0.1c-0.1,0-0.1,0-0.2-0.1c-0.1,0-0.1,0-0.2,0
			c-0.1,0-0.1,0-0.1,0c-0.1,0.2-0.2,0.4-0.5,0.6c-0.3,0.2-0.6,0.3-0.9,0.3c-0.1,0-0.2,0-0.3,0c-0.1,0-0.2-0.1-0.3-0.1
			c-0.5-0.3-1-0.4-1.6-0.4c-0.1,0-0.3,0-0.5,0c-0.2,0-0.3,0.1-0.5,0.1c0.2-0.3,0.5-0.5,0.8-0.8c0.3-0.3,0.6-0.5,0.9-0.7
			c0.3-0.2,0.5-0.4,0.8-0.6c0.3-0.2,0.5-0.3,0.6-0.4c0.3-0.2,0.7-0.4,1-0.7c0.3-0.2,0.7-0.5,1-0.8c0.3-0.3,0.6-0.6,0.8-1
			s0.4-0.7,0.5-1.1c0.1-0.5,0.1-1,0.1-1.5C267.4,305.9,267.3,305.5,267.1,305.2z" />
			<path class="st2"
				d="M276.5,307.4c-0.1-0.7-0.2-1.2-0.5-1.7c-0.3-0.5-0.6-0.8-1-1.1c-0.4-0.3-0.9-0.4-1.5-0.4
			c-0.7,0-1.4,0.1-2,0.3c-0.6,0.3-1.1,0.6-1.6,1.1c-0.5,0.5-0.8,1-1.2,1.6c-0.3,0.6-0.6,1.2-0.7,1.9c-0.3,1.2-0.4,2.2-0.4,3.1
			c0,0.9,0.2,1.6,0.5,2.2c0.3,0.6,0.7,1,1.2,1.3c0.5,0.3,1,0.5,1.5,0.5c0.6,0.1,1.2,0,1.7-0.2c0.5-0.2,1-0.4,1.3-0.8
			c0.4-0.3,0.7-0.7,1-1.2s0.5-0.9,0.7-1.4c0.2-0.5,0.4-1,0.5-1.5c0.1-0.5,0.2-1,0.3-1.5C276.6,308.9,276.6,308.1,276.5,307.4z
			 M274.5,309.7c-0.1,0.6-0.2,1.3-0.3,1.9c-0.1,0.6-0.3,1.2-0.5,1.7c-0.2,0.5-0.4,1-0.7,1.4c-0.3,0.4-0.6,0.6-0.9,0.7
			c-0.3,0.1-0.5,0.1-0.7,0.1c-0.4,0-0.8-0.1-1-0.4c-0.3-0.3-0.5-0.7-0.7-1.2c-0.1-0.5-0.2-1.1-0.2-1.8s0.1-1.4,0.3-2.2
			c0.1-0.3,0.1-0.6,0.2-1s0.2-0.8,0.4-1.2c0.1-0.4,0.3-0.8,0.5-1.2c0.2-0.4,0.4-0.8,0.7-1.1c0.2-0.3,0.5-0.6,0.8-0.7
			c0.3-0.2,0.6-0.3,1-0.3c0.4,0,0.7,0.2,0.9,0.4c0.2,0.3,0.3,0.7,0.4,1.1c0.1,0.5,0.1,1,0.1,1.6S274.6,309,274.5,309.7z" />
			<path class="st2" d="M279.8,312.4c0.3-0.2,0.5-0.4,0.8-0.6c0.3-0.2,0.5-0.3,0.6-0.4c0.3-0.2,0.7-0.4,1-0.7c0.3-0.2,0.7-0.5,1-0.8
			c0.3-0.3,0.6-0.6,0.8-1s0.4-0.7,0.5-1.1c0.1-0.5,0.1-1,0.1-1.5c0-0.4-0.2-0.8-0.4-1.2c-0.2-0.3-0.5-0.6-0.9-0.8
			c-0.4-0.2-0.9-0.3-1.4-0.3c-0.5,0-1,0.1-1.5,0.3c-0.5,0.2-0.9,0.5-1.3,0.8c-0.4,0.4-0.7,0.8-1,1.2c-0.3,0.5-0.4,0.9-0.5,1.4
			c0,0.3,0,0.6,0,0.9c0.1,0.3,0.2,0.5,0.3,0.7s0.3,0.3,0.5,0.4c0.2,0.1,0.4,0.1,0.7,0.1c0.3,0,0.6-0.1,0.9-0.2
			c0.3-0.1,0.6-0.4,0.8-0.7c0.3-0.4,0.6-0.8,0.7-1.2c0.1-0.4,0.2-0.7,0.1-1c0-0.1-0.1-0.2-0.2-0.3c-0.1,0-0.2-0.1-0.2-0.1
			c-0.1,0-0.3,0-0.4,0.1c-0.1,0.1-0.2,0.2-0.2,0.3c0.1,0.1,0.2,0.3,0.2,0.5c0,0.2,0,0.3-0.1,0.5c-0.1,0.1-0.2,0.3-0.3,0.4
			c-0.1,0.1-0.3,0.1-0.4,0.1c-0.3,0-0.6-0.1-0.8-0.4c-0.2-0.3-0.2-0.7,0-1.3c0.1-0.2,0.2-0.5,0.4-0.7c0.2-0.2,0.4-0.4,0.6-0.5
			c0.2-0.1,0.4-0.2,0.7-0.3c0.2,0,0.5-0.1,0.7,0c0.2,0,0.5,0.1,0.6,0.2c0.2,0.1,0.3,0.3,0.4,0.4c0.1,0.2,0.2,0.4,0.2,0.6
			c0,0.2,0,0.4,0,0.6c0,0.3-0.1,0.6-0.2,0.9c-0.1,0.3-0.3,0.6-0.5,0.9c-0.2,0.3-0.4,0.6-0.7,0.8c-0.2,0.3-0.5,0.5-0.7,0.7
			c-0.4,0.3-0.8,0.6-1.3,1c-0.5,0.4-1,0.8-1.4,1.2c-0.4,0.4-0.8,0.9-1.2,1.4c-0.3,0.5-0.5,1-0.6,1.5c0,0.1,0,0.2,0.1,0.2
			c0.1,0,0.2,0.1,0.3,0.1c0.2,0,0.4-0.1,0.5-0.2c0.2-0.2,0.5-0.4,0.9-0.4c0.3,0,0.5,0.1,0.8,0.2c0.3,0.1,0.6,0.2,0.9,0.4
			c0.5,0.2,0.9,0.4,1.3,0.4c0.4,0,0.7-0.1,1-0.3c0.3-0.2,0.5-0.4,0.7-0.7s0.3-0.6,0.5-0.8c0.1-0.3,0.2-0.5,0.3-0.7
			c0-0.1,0-0.1-0.1-0.1c-0.1,0-0.1,0-0.2-0.1c-0.1,0-0.1,0-0.2,0c-0.1,0-0.1,0-0.1,0c-0.1,0.2-0.2,0.4-0.5,0.6
			c-0.3,0.2-0.6,0.3-0.9,0.3c-0.1,0-0.2,0-0.3,0c-0.1,0-0.2-0.1-0.3-0.1c-0.5-0.3-1-0.4-1.6-0.4c-0.1,0-0.3,0-0.5,0
			c-0.2,0-0.3,0.1-0.5,0.1c0.2-0.3,0.5-0.5,0.8-0.8C279.3,312.8,279.6,312.6,279.8,312.4z" />
			<path class="st2"
				d="M291.8,309.7c-0.2-0.4-0.4-0.7-0.8-0.9c-0.3-0.3-0.7-0.5-1.1-0.6c0.3-0.2,0.5-0.5,0.7-0.7
			c0.2-0.3,0.4-0.6,0.5-1c0.2-0.8,0.1-1.4-0.3-1.9c-0.4-0.5-1-0.7-1.9-0.8c-0.7,0-1.4,0.1-1.9,0.4c-0.6,0.3-1,0.8-1.4,1.5
			c-0.1,0.2-0.1,0.3-0.2,0.6c0,0.2,0,0.4,0,0.6c0,0.2,0.1,0.4,0.2,0.6c0.1,0.2,0.3,0.3,0.6,0.4c0.2,0.1,0.4,0.1,0.7,0
			s0.6-0.2,0.8-0.4c0.2-0.2,0.3-0.4,0.4-0.7c0.1-0.2,0.1-0.5,0.1-0.7c0-0.1-0.1-0.2-0.1-0.3s-0.1-0.1-0.2-0.1
			c-0.2,0-0.3,0.1-0.4,0.3c0.1,0.1,0.1,0.2,0.1,0.3c0,0.1,0,0.2-0.1,0.3c0,0.1-0.1,0.1-0.2,0.2c-0.1,0.1-0.1,0.1-0.2,0.1
			c-0.1,0-0.2,0-0.2-0.1c0-0.1-0.1-0.2-0.1-0.3c0-0.1,0-0.2,0-0.3c0-0.1,0.1-0.2,0.1-0.3c0.1-0.3,0.4-0.5,0.7-0.7
			c0.3-0.2,0.7-0.2,1-0.2c0.4,0,0.6,0.2,0.8,0.5c0.1,0.3,0.1,0.6,0,0.9c-0.1,0.4-0.3,0.8-0.5,1.1s-0.5,0.5-0.7,0.7
			c-0.4,0-0.8,0.1-1.1,0.2c-0.3,0.1-0.6,0.2-0.8,0.3c-0.1,0-0.1,0.1-0.2,0.2c0,0.1,0,0.2,0,0.3c0,0.1,0.1,0.2,0.1,0.3
			c0.1,0.1,0.1,0.1,0.2,0.1c0.3,0,0.6,0,1-0.1c0.4-0.1,0.8-0.2,1.3-0.4c0.1,0,0.2,0,0.2,0.1c0.1,0,0.1,0,0.2,0.1
			c0.5,0.3,0.7,0.7,0.8,1.2c0.1,0.5,0,1.2-0.2,1.9c-0.1,0.4-0.3,0.8-0.5,1.2c-0.2,0.4-0.5,0.7-0.8,0.9c-0.3,0.2-0.6,0.4-1,0.5
			s-0.7,0.1-1.1,0.1c-0.2,0-0.5-0.1-0.7-0.2c-0.2-0.1-0.3-0.3-0.4-0.5c-0.1-0.2-0.1-0.4-0.1-0.6c0-0.2,0.1-0.5,0.2-0.7
			c0.1-0.2,0.3-0.4,0.5-0.5c0.2-0.1,0.4-0.2,0.7-0.2c0.2,0,0.4,0,0.5,0.1c0.1,0.1,0.2,0.2,0.3,0.3c0.1,0.2,0.1,0.4,0,0.6
			c0.3,0,0.6,0,0.8-0.1c0.3-0.1,0.4-0.3,0.5-0.5c0.1-0.2,0.2-0.4,0.2-0.6c0-0.2,0-0.4-0.1-0.6c-0.1-0.2-0.2-0.3-0.4-0.4
			c-0.2-0.1-0.3-0.2-0.6-0.3c-0.2-0.1-0.5-0.1-0.7-0.1c-0.2,0-0.5,0-0.8,0.1c-0.3,0.1-0.5,0.2-0.8,0.3c-0.2,0.1-0.5,0.3-0.7,0.5
			c-0.2,0.2-0.4,0.5-0.5,0.8c-0.2,0.4-0.3,0.8-0.3,1.2c0,0.4,0.1,0.8,0.3,1.1c0.2,0.3,0.4,0.6,0.8,0.9c0.3,0.2,0.7,0.4,1.2,0.5
			c0.3,0,0.6,0.1,0.8,0.1c1,0,1.9-0.3,2.7-0.9c0.8-0.6,1.4-1.5,1.9-2.7c0.2-0.5,0.3-1,0.3-1.5C292.1,310.4,292,310,291.8,309.7z" />
		</g>
	</g>
	<g>
		<path id="curve" fill="transparent" stroke="black" d="M189.8,567.4c54.2,18.2,111.6,16.5,171.5-0.6" />
		<text>
			<textPath style="font-family: 'Riverdale Regular'" xlink:href="#curve" startOffset="50%"
				text-anchor="middle">
				Dangerous Curves Ahead
			</textPath>
		</text>
	</g>
</svg>