<?xml version="1.0" encoding="utf-8"?>
<!-- Generator: Adobe Illustrator 27.9.0, SVG Export Plug-In . SVG Version: 6.00 Build 0)  -->
<svg version="1.1" id="Layer_1" xmlns="http://www.w3.org/2000/svg" xmlns:xlink="http://www.w3.org/1999/xlink" x="0px" y="0px"
	 viewBox="0 0 259.6 419.5" enable-background="new 0 0 259.6 419.5" xml:space="preserve">
<g>
	<g>
		<path fill="#FFFFFF" d="M221.1,304.6c-2-9.4-4.7-19.5-8.5-30.9c3.1-1.7,4.8-3.7,4.7-6c0-2.8-2-4.8-5.5-5.5
			c1.9-1.7,3.8-3.5,5.6-5.3c22.7-22.7,36.7-54.1,36.7-88.7c0-30.1-10.6-57.8-28.3-79.4c-17.7-21.6-42.5-37.2-70.8-43.3v-9.3v-9.3
			c0-1.2-0.5-2.2-1.2-3s-1.8-1.2-3-1.2h-12.4c1-1.7,1.5-3.6,1.5-5.7c0-6.3-5.1-11.3-11.3-11.3c-6.3,0-11.3,5.1-11.3,11.3
			c0,2.1,0.6,4,1.5,5.7h-12.3c-1.2,0-2.2,0.5-3,1.2c-0.8,0.8-1.2,1.8-1.2,3v9.3v9.3C74,51.6,49.2,67.2,31.5,88.8
			c-17.7,21.6-28.3,49.3-28.3,79.4c0,34.6,14,66,36.7,88.7c1.8,1.8,3.7,3.6,5.6,5.3c-3.5,0.7-5.5,2.7-5.5,5.5c0,2.3,1.6,4.3,4.8,6
			c-3.8,11.3-6.5,21.5-8.5,30.9c-3.8,1-9.6,4.1-10.2,10.7c-0.2,1.5,0.6,2.9,2.1,4.2c8.8,7.5,47.3,12.2,100.4,12.2l0,0
			c53.1,0,91.6-4.7,100.4-12.2c1.5-1.3,2.3-2.7,2.1-4.2C230.7,308.8,225,305.6,221.1,304.6z M123.2,17.1c0-3.1,2.5-5.7,5.7-5.7
			c3.1,0,5.7,2.5,5.7,5.7c0,3.1-2.5,5.7-5.7,5.7S123.2,20.2,123.2,17.1z M20.2,168.2c0-29.9,12.2-57.1,31.8-76.8
			c19.7-19.7,46.8-31.8,76.8-31.8s57.1,12.2,76.8,31.8c19.7,19.7,31.8,46.8,31.8,76.8c0,29.9-12.2,57.1-31.8,76.8
			c-8.8,8.8-19,16-30.3,21.4c-11.4,0.8-26.5,1.4-46.5,1.4c-19.9,0-35.1-0.6-46.5-1.4C71,261,60.8,253.8,52,245
			C32.4,225.3,20.2,198.1,20.2,168.2z"/>
		<path fill="none" stroke="#9C509F" stroke-miterlimit="10" d="M218.5,306.2c-1.9-9.6-4.8-20-8.7-31.7c-0.2-0.5-0.4-1.1-0.7-1.5
			c4.2-1.9,5.2-3.8,5.1-5.1l0,0c0-1-0.4-1.8-1.1-2.4c-2.1-1.9-6.6-1.6-6.7-1.6h-0.1c0,0-0.9,0.3-2.9,0.8l1.7-1.1
			c3.5-2.8,6.9-5.9,10.1-9c23.1-23.1,35.8-53.8,35.8-86.5c0-28.1-9.8-55.6-27.6-77.4c-17.5-21.4-42-36.4-69-42.2l-1.4-0.3V28.3
			c0-0.7-0.3-1.3-0.7-1.7c-0.5-0.5-1.1-0.7-1.7-0.7h-43.8c-0.7,0-1.3,0.3-1.7,0.7c-0.5,0.5-0.7,1.1-0.7,1.7V48l-1.4,0.3
			C76.1,54.1,51.6,69,34,90.5c-17.8,21.7-27.6,49.2-27.6,77.4c0,32.7,12.7,63.4,35.8,86.5c3.2,3.2,6.6,6.2,10.1,9.1l1.3,1
			c-1.7-0.4-2.5-0.7-2.5-0.7H51c-0.2,0-4.7-0.3-6.7,1.6c-0.7,0.6-1.1,1.5-1.1,2.4c0,1.3,0.9,3.2,5.2,5.2c-0.3,0.4-0.6,1-0.7,1.5
			c-3.9,11.7-6.7,22.1-8.7,31.7c-0.7,0.1-9.2,1.7-10,8.9c-0.1,0.8,0.2,1.5,0.9,2.3c6.2,6.9,44.9,11.4,98.7,11.4s92.5-4.5,98.7-11.4
			c0.7-0.7,0.9-1.5,0.9-2.3C227.6,307.9,219.2,306.3,218.5,306.2z M53,262.8c-3.5-2.8-6.9-5.8-10-9c-23-23-35.6-53.5-35.6-85.9
			c0-28,9.7-55.3,27.4-76.9c17.4-21.3,41.8-36.2,68.6-41.9l1.9-0.4V28.3c0-0.5,0.2-0.9,0.5-1.2c0.3-0.3,0.8-0.5,1.2-0.5h43.8
			c0.5,0,0.9,0.2,1.2,0.5c0.3,0.3,0.5,0.8,0.5,1.2v20.3l1.9,0.4c26.8,5.7,51.1,20.6,68.6,41.9c17.7,21.6,27.4,48.9,27.4,76.9
			c0,32.5-12.6,63-35.6,85.9c-3.2,3.2-6.6,6.2-10,9l-3.3,2.2c-3.8,0.8-10.2,1.8-20.2,2.6c9.9-5.2,19-11.9,27-20
			c21.2-21.2,32.9-49.4,32.9-79.4s-11.7-58.2-32.9-79.4c-21.3-21.2-49.5-32.9-79.4-32.9c-30,0-58.2,11.7-79.4,32.9
			c-21.2,21.2-32.9,49.4-32.9,79.4s11.7,58.2,32.9,79.4c8,8,17.1,14.7,27,20c-10.7-0.9-17.2-2-21-2.8L53,262.8z M128.8,269.4
			c-22.4,0-38.8-0.7-50.5-1.7c-10.4-5.3-19.9-12.2-28.3-20.6C28.9,226,17.3,198,17.3,168.2S28.9,110.4,50,89.3s49.1-32.7,78.9-32.7
			c29.8,0,57.8,11.6,78.9,32.7s32.7,49.1,32.7,78.9s-11.6,57.8-32.7,78.9c-8.4,8.4-17.9,15.3-28.3,20.6
			C167.7,268.7,151.3,269.4,128.8,269.4z M44.2,267.8c0-0.8,0.3-1.4,0.8-1.9c1.4-1.3,4.1-1.4,5.4-1.4c0.4,0,0.6,0,0.7,0
			c0.7,0.2,7.4,2.4,27,4h0.1l0,0c11.8,1,28.1,1.7,50.6,1.7s38.9-0.8,50.6-1.7l0,0h0.1c19.6-1.6,26.3-3.8,27-4c0.5,0,4.4-0.2,6.1,1.4
			c0.5,0.5,0.8,1.1,0.8,1.9c0,1.6-1.8,3.2-5.2,4.7c-7.8,3.3-28,7.3-79.5,7.3s-71.6-4-79.5-7.3C46,271,44.2,269.3,44.2,267.8z
			 M48.6,274.7c0.1-0.4,0.5-1,0.7-1.4c8.1,3.3,28.4,7.3,79.5,7.3c51.2,0,71.5-4,79.6-7.3c0.3,0.4,0.5,1,0.7,1.5
			c3.9,11.7,6.7,22.1,8.7,31.8c-3.7,4.4-20.2,11.6-88.9,11.6S43.7,311,40,306.6C41.9,296.8,44.7,286.4,48.6,274.7z M227,316.9
			c-5,5.5-37.2,11.1-98.2,11.1c-60.9,0-93.2-5.6-98.2-11.1c-0.5-0.6-0.7-1.1-0.7-1.7c0.8-6.8,8.9-8.2,9.4-8.3
			c4.5,5.5,23.8,11.9,89.5,11.9c65.6,0,84.9-6.4,89.5-11.9c0.5,0.1,8.6,1.5,9.4,8.3C227.7,315.8,227.5,316.3,227,316.9z"/>
		<g>
			<path fill="#010101" stroke="#3A53A4" stroke-width="0.25" stroke-miterlimit="10" d="M120.4,33.5c-0.2-0.3-0.5-0.6-0.9-0.8
				c-0.4-0.2-0.9-0.3-1.4-0.3s-1,0.1-1.5,0.3c-0.5,0.2-0.9,0.5-1.3,0.8c-0.4,0.4-0.7,0.8-1,1.2c-0.3,0.5-0.4,0.9-0.5,1.4
				c0,0.3,0,0.6,0,0.9c0.1,0.3,0.2,0.5,0.3,0.7c0.1,0.2,0.3,0.3,0.5,0.4s0.4,0.1,0.7,0.1c0.3,0,0.6-0.1,0.9-0.2s0.6-0.4,0.8-0.7
				c0.3-0.4,0.6-0.8,0.7-1.2c0.1-0.4,0.2-0.7,0.1-1c0-0.1-0.1-0.2-0.2-0.3c-0.1,0-0.2-0.1-0.2-0.1c-0.1,0-0.3,0-0.4,0.1
				s-0.2,0.2-0.2,0.3c0.1,0.1,0.2,0.3,0.2,0.5s0,0.3-0.1,0.5c-0.1,0.1-0.2,0.3-0.3,0.4c-0.1,0.1-0.3,0.1-0.4,0.1
				c-0.3,0-0.6-0.1-0.8-0.4c-0.2-0.3-0.2-0.7,0-1.3c0.1-0.2,0.2-0.5,0.4-0.7c0.2-0.2,0.4-0.4,0.6-0.5s0.4-0.2,0.7-0.3
				c0.2,0,0.5-0.1,0.7,0c0.2,0,0.5,0.1,0.6,0.2c0.2,0.1,0.3,0.3,0.4,0.4c0.1,0.2,0.2,0.4,0.2,0.6s0,0.4,0,0.6c0,0.3-0.1,0.6-0.2,0.9
				s-0.3,0.6-0.5,0.9s-0.4,0.6-0.7,0.8c-0.2,0.3-0.5,0.5-0.7,0.7c-0.4,0.3-0.8,0.6-1.3,1s-1,0.8-1.4,1.2c-0.4,0.4-0.8,0.9-1.2,1.4
				c-0.3,0.5-0.5,1-0.6,1.5c0,0.1,0,0.2,0.1,0.2s0.2,0.1,0.3,0.1c0.2,0,0.4-0.1,0.5-0.2c0.2-0.2,0.5-0.4,0.9-0.4
				c0.3,0,0.5,0.1,0.8,0.2s0.6,0.2,0.9,0.4c0.5,0.2,0.9,0.4,1.3,0.4s0.7-0.1,1-0.3c0.3-0.2,0.5-0.4,0.7-0.7s0.3-0.6,0.5-0.8
				c0.1-0.3,0.2-0.5,0.3-0.7c0-0.1,0-0.1-0.1-0.1s-0.1,0-0.2-0.1c-0.1,0-0.1,0-0.2,0s-0.1,0-0.1,0c-0.1,0.2-0.2,0.4-0.5,0.6
				s-0.6,0.3-0.9,0.3c-0.1,0-0.2,0-0.3,0c-0.1,0-0.2-0.1-0.3-0.1c-0.5-0.3-1-0.4-1.6-0.4c-0.1,0-0.3,0-0.5,0s-0.3,0.1-0.5,0.1
				c0.2-0.3,0.5-0.5,0.8-0.8s0.6-0.5,0.9-0.7s0.5-0.4,0.8-0.6s0.5-0.3,0.6-0.4c0.3-0.2,0.7-0.4,1-0.7c0.3-0.2,0.7-0.5,1-0.8
				s0.6-0.6,0.8-1s0.4-0.7,0.5-1.1c0.1-0.5,0.1-1,0.1-1.5C120.7,34.2,120.6,33.8,120.4,33.5z"/>
			<path fill="#010101" stroke="#3A53A4" stroke-width="0.25" stroke-miterlimit="10" d="M129.8,35.7c-0.1-0.7-0.2-1.2-0.5-1.7
				s-0.6-0.8-1-1.1c-0.4-0.3-0.9-0.4-1.5-0.4c-0.7,0-1.4,0.1-2,0.3c-0.6,0.3-1.1,0.6-1.6,1.1s-0.8,1-1.2,1.6
				c-0.3,0.6-0.6,1.2-0.7,1.9c-0.3,1.2-0.4,2.2-0.4,3.1s0.2,1.6,0.5,2.2s0.7,1,1.2,1.3s1,0.5,1.5,0.5c0.6,0.1,1.2,0,1.7-0.2
				s1-0.4,1.3-0.8c0.4-0.3,0.7-0.7,1-1.2s0.5-0.9,0.7-1.4s0.4-1,0.5-1.5s0.2-1,0.3-1.5C129.9,37.2,129.9,36.4,129.8,35.7z M127.8,38
				c-0.1,0.6-0.2,1.3-0.3,1.9c-0.1,0.6-0.3,1.2-0.5,1.7s-0.4,1-0.7,1.4c-0.3,0.4-0.6,0.6-0.9,0.7s-0.5,0.1-0.7,0.1
				c-0.4,0-0.8-0.1-1-0.4c-0.3-0.3-0.5-0.7-0.7-1.2c-0.1-0.5-0.2-1.1-0.2-1.8s0.1-1.4,0.3-2.2c0.1-0.3,0.1-0.6,0.2-1
				s0.2-0.8,0.4-1.2c0.1-0.4,0.3-0.8,0.5-1.2c0.2-0.4,0.4-0.8,0.7-1.1c0.2-0.3,0.5-0.6,0.8-0.7c0.3-0.2,0.6-0.3,1-0.3
				s0.7,0.2,0.9,0.4c0.2,0.3,0.3,0.7,0.4,1.1c0.1,0.5,0.1,1,0.1,1.6S127.9,37.3,127.8,38z"/>
			<path fill="#010101" stroke="#3A53A4" stroke-width="0.25" stroke-miterlimit="10" d="M133.1,40.7c0.3-0.2,0.5-0.4,0.8-0.6
				s0.5-0.3,0.6-0.4c0.3-0.2,0.7-0.4,1-0.7c0.3-0.2,0.7-0.5,1-0.8s0.6-0.6,0.8-1s0.4-0.7,0.5-1.1c0.1-0.5,0.1-1,0.1-1.5
				c0-0.4-0.2-0.8-0.4-1.2c-0.2-0.3-0.5-0.6-0.9-0.8c-0.4-0.2-0.9-0.3-1.4-0.3s-1,0.1-1.5,0.3c-0.5,0.2-0.9,0.5-1.3,0.8
				c-0.4,0.4-0.7,0.8-1,1.2c-0.3,0.5-0.4,0.9-0.5,1.4c0,0.3,0,0.6,0,0.9c0.1,0.3,0.2,0.5,0.3,0.7s0.3,0.3,0.5,0.4s0.4,0.1,0.7,0.1
				c0.3,0,0.6-0.1,0.9-0.2s0.6-0.4,0.8-0.7c0.3-0.4,0.6-0.8,0.7-1.2c0.1-0.4,0.2-0.7,0.1-1c0-0.1-0.1-0.2-0.2-0.3
				c-0.1,0-0.2-0.1-0.2-0.1c-0.1,0-0.3,0-0.4,0.1s-0.2,0.2-0.2,0.3c0.1,0.1,0.2,0.3,0.2,0.5s0,0.3-0.1,0.5c-0.1,0.1-0.2,0.3-0.3,0.4
				c-0.1,0.1-0.3,0.1-0.4,0.1c-0.3,0-0.6-0.1-0.8-0.4c-0.2-0.3-0.2-0.7,0-1.3c0.1-0.2,0.2-0.5,0.4-0.7c0.2-0.2,0.4-0.4,0.6-0.5
				s0.4-0.2,0.7-0.3c0.2,0,0.5-0.1,0.7,0c0.2,0,0.5,0.1,0.6,0.2c0.2,0.1,0.3,0.3,0.4,0.4c0.1,0.2,0.2,0.4,0.2,0.6s0,0.4,0,0.6
				c0,0.3-0.1,0.6-0.2,0.9s-0.3,0.6-0.5,0.9s-0.4,0.6-0.7,0.8c-0.2,0.3-0.5,0.5-0.7,0.7c-0.4,0.3-0.8,0.6-1.3,1s-1,0.8-1.4,1.2
				c-0.4,0.4-0.8,0.9-1.2,1.4c-0.3,0.5-0.5,1-0.6,1.5c0,0.1,0,0.2,0.1,0.2s0.2,0.1,0.3,0.1c0.2,0,0.4-0.1,0.5-0.2
				c0.2-0.2,0.5-0.4,0.9-0.4c0.3,0,0.5,0.1,0.8,0.2s0.6,0.2,0.9,0.4c0.5,0.2,0.9,0.4,1.3,0.4s0.7-0.1,1-0.3c0.3-0.2,0.5-0.4,0.7-0.7
				s0.3-0.6,0.5-0.8c0.1-0.3,0.2-0.5,0.3-0.7c0-0.1,0-0.1-0.1-0.1s-0.1,0-0.2-0.1c-0.1,0-0.1,0-0.2,0s-0.1,0-0.1,0
				c-0.1,0.2-0.2,0.4-0.5,0.6s-0.6,0.3-0.9,0.3c-0.1,0-0.2,0-0.3,0c-0.1,0-0.2-0.1-0.3-0.1c-0.5-0.3-1-0.4-1.6-0.4
				c-0.1,0-0.3,0-0.5,0s-0.3,0.1-0.5,0.1c0.2-0.3,0.5-0.5,0.8-0.8C132.6,41.1,132.9,40.9,133.1,40.7z"/>
			<path fill="#010101" stroke="#3A53A4" stroke-width="0.25" stroke-miterlimit="10" d="M145.1,38c-0.2-0.4-0.4-0.7-0.8-0.9
				c-0.3-0.3-0.7-0.5-1.1-0.6c0.3-0.2,0.5-0.5,0.7-0.7c0.2-0.3,0.4-0.6,0.5-1c0.2-0.8,0.1-1.4-0.3-1.9s-1-0.7-1.9-0.8
				c-0.7,0-1.4,0.1-1.9,0.4c-0.6,0.3-1,0.8-1.4,1.5c-0.1,0.2-0.1,0.3-0.2,0.6c0,0.2,0,0.4,0,0.6s0.1,0.4,0.2,0.6s0.3,0.3,0.6,0.4
				c0.2,0.1,0.4,0.1,0.7,0s0.6-0.2,0.8-0.4c0.2-0.2,0.3-0.4,0.4-0.7c0.1-0.2,0.1-0.5,0.1-0.7c0-0.1-0.1-0.2-0.1-0.3
				s-0.1-0.1-0.2-0.1c-0.2,0-0.3,0.1-0.4,0.3c0.1,0.1,0.1,0.2,0.1,0.3c0,0.1,0,0.2-0.1,0.3c0,0.1-0.1,0.1-0.2,0.2s-0.1,0.1-0.2,0.1
				s-0.2,0-0.2-0.1s-0.1-0.2-0.1-0.3c0-0.1,0-0.2,0-0.3c0-0.1,0.1-0.2,0.1-0.3c0.1-0.3,0.4-0.5,0.7-0.7c0.3-0.2,0.7-0.2,1-0.2
				c0.4,0,0.6,0.2,0.8,0.5c0.1,0.3,0.1,0.6,0,0.9c-0.1,0.4-0.3,0.8-0.5,1.1s-0.5,0.5-0.7,0.7c-0.4,0-0.8,0.1-1.1,0.2
				c-0.3,0.1-0.6,0.2-0.8,0.3c-0.1,0-0.1,0.1-0.2,0.2c0,0.1,0,0.2,0,0.3c0,0.1,0.1,0.2,0.1,0.3c0.1,0.1,0.1,0.1,0.2,0.1
				c0.3,0,0.6,0,1-0.1s0.8-0.2,1.3-0.4c0.1,0,0.2,0,0.2,0.1c0.1,0,0.1,0,0.2,0.1c0.5,0.3,0.7,0.7,0.8,1.2c0.1,0.5,0,1.2-0.2,1.9
				c-0.1,0.4-0.3,0.8-0.5,1.2c-0.2,0.4-0.5,0.7-0.8,0.9c-0.3,0.2-0.6,0.4-1,0.5s-0.7,0.1-1.1,0.1c-0.2,0-0.5-0.1-0.7-0.2
				s-0.3-0.3-0.4-0.5s-0.1-0.4-0.1-0.6s0.1-0.5,0.2-0.7s0.3-0.4,0.5-0.5s0.4-0.2,0.7-0.2c0.2,0,0.4,0,0.5,0.1s0.2,0.2,0.3,0.3
				c0.1,0.2,0.1,0.4,0,0.6c0.3,0,0.6,0,0.8-0.1c0.3-0.1,0.4-0.3,0.5-0.5s0.2-0.4,0.2-0.6s0-0.4-0.1-0.6s-0.2-0.3-0.4-0.4
				c-0.2-0.1-0.3-0.2-0.6-0.3c-0.2-0.1-0.5-0.1-0.7-0.1s-0.5,0-0.8,0.1s-0.5,0.2-0.8,0.3c-0.2,0.1-0.5,0.3-0.7,0.5s-0.4,0.5-0.5,0.8
				c-0.2,0.4-0.3,0.8-0.3,1.2c0,0.4,0.1,0.8,0.3,1.1c0.2,0.3,0.4,0.6,0.8,0.9c0.3,0.2,0.7,0.4,1.2,0.5c0.3,0,0.6,0.1,0.8,0.1
				c1,0,1.9-0.3,2.7-0.9c0.8-0.6,1.4-1.5,1.9-2.7c0.2-0.5,0.3-1,0.3-1.5C145.4,38.7,145.3,38.3,145.1,38z"/>
		</g>
	</g>
	<g>
		<path d="M87.6,387.3c0.7,0,1.3-0.2,1.8-0.7c0.5-0.5,0.7-1.1,0.7-1.8c0-0.7-0.2-1.3-0.7-1.8c-0.5-0.5-1.1-0.7-1.8-0.7h-3.3v-2.9
			c0-0.8-0.3-1.5-0.8-2c-0.5-0.5-1.2-0.8-1.9-0.8c-0.8,0-1.5,0.3-2,0.8c-0.5,0.5-0.8,1.2-0.8,2v2.9h-2.1c-0.7,0-1.3,0.2-1.8,0.7
			c-0.5,0.5-0.7,1.1-0.7,1.8c0,0.7,0.2,1.3,0.7,1.8c0.5,0.5,1.1,0.7,1.8,0.7h2.1v12.6c0,2.6,0.6,4.3,1.9,5.2s2.9,1.2,4.8,1.2
			c1.1,0,2.1-0.3,3-0.8c0.9-0.6,1.4-1.3,1.4-2.1c0-0.7-0.2-1.2-0.5-1.6c-0.4-0.4-0.7-0.6-1.2-0.6c-0.3,0-0.7,0.1-1.1,0.2
			c-0.4,0.1-0.8,0.2-1,0.2c-0.6,0-1-0.1-1.4-0.4c-0.3-0.3-0.5-0.8-0.5-1.4v-12.4H87.6z"/>
		<path d="M108,381.3c-1.5,0-2.9,0.3-4.2,1c-1.3,0.7-2.3,1.6-3,2.9v-0.6c0-0.8-0.3-1.5-0.8-2c-0.5-0.5-1.2-0.8-2-0.8
			c-0.8,0-1.5,0.3-2,0.8c-0.5,0.5-0.8,1.2-0.8,2v18.9c0,0.8,0.3,1.5,0.8,2c0.5,0.5,1.2,0.8,2,0.8c0.8,0,1.5-0.3,2-0.8
			c0.5-0.5,0.8-1.2,0.8-2v-10.9c0-1.4,0.2-2.6,0.7-3.6c0.5-1,1.1-1.7,1.8-2.2c0.7-0.5,1.5-0.7,2.3-0.7c0.4,0,0.7,0,1,0.1
			c0.3,0.1,0.5,0.2,0.6,0.2c0.6,0.2,1.1,0.3,1.6,0.3c0.7,0,1.3-0.2,1.7-0.7c0.5-0.5,0.7-1.2,0.7-2.1c0-0.7-0.3-1.3-0.9-1.8
			S108.9,381.3,108,381.3z"/>
		<path d="M130.4,373.5c-0.4,0.3-0.8,0.7-1.3,1.3c-0.7,0.8-1.8,1.2-3.2,1.2s-2.4-0.4-3.2-1.2c-0.5-0.6-0.9-1-1.3-1.3
			c-0.4-0.3-0.9-0.4-1.5-0.4c-0.5,0-0.8,0.1-1.1,0.4c-0.3,0.3-0.4,0.6-0.4,1.1c0,0.3,0.1,0.6,0.2,1c0.5,1.4,1.5,2.4,2.7,3.2
			c1.3,0.7,2.8,1.1,4.5,1.1s3.2-0.4,4.5-1.1s2.2-1.8,2.8-3.2c0.1-0.3,0.2-0.7,0.2-1c0-0.5-0.1-0.8-0.4-1.1c-0.3-0.3-0.7-0.4-1.1-0.4
			C131.3,373.1,130.8,373.2,130.4,373.5z"/>
		<path d="M127.7,366.4l-2.7,4.7c-0.2,0.3-0.3,0.6-0.3,0.9c0,0.5,0.1,0.8,0.5,1.1s0.7,0.4,1,0.4c0.9,0,1.6-0.3,2.1-0.8l3.5-3.9
			c0.5-0.6,0.8-1.3,0.9-2c0-0.7-0.2-1.2-0.6-1.6c-0.4-0.4-1-0.6-1.9-0.6c-0.5,0-1,0.2-1.4,0.5C128.4,365.4,128,365.9,127.7,366.4z"
			/>
		<path d="M134.4,381.3c-0.8,0-1.5,0.3-2,0.8c-0.5,0.5-0.8,1.2-0.8,2v0c-0.9-0.8-2-1.5-3.3-2c-1.3-0.5-2.7-0.8-4.1-0.8
			c-2,0-3.9,0.5-5.6,1.6c-1.7,1.1-3,2.6-4,4.5c-1,1.9-1.5,4.1-1.5,6.6c0,2.4,0.5,4.6,1.5,6.6c1,1.9,2.3,3.4,4.1,4.5
			c1.7,1.1,3.6,1.6,5.7,1.6c1.4,0,2.8-0.3,4.1-0.9c1.3-0.6,2.3-1.4,3.1-2.3c0,0.8,0.3,1.5,0.8,2s1.2,0.8,1.9,0.8
			c0.8,0,1.5-0.3,2-0.8c0.5-0.5,0.8-1.2,0.8-2v-19.4c0-0.8-0.3-1.5-0.8-2S135.2,381.3,134.4,381.3z M130,399.5
			c-1.3,1.5-2.9,2.2-4.9,2.2c-2,0-3.6-0.7-4.8-2.2c-1.2-1.5-1.9-3.3-1.9-5.5c0-2.2,0.6-4,1.9-5.5c1.3-1.5,2.9-2.2,4.8-2.2
			c2,0,3.6,0.7,4.9,2.2c1.3,1.5,1.9,3.3,1.9,5.5C131.9,396.3,131.3,398.1,130,399.5z"/>
		<path d="M156.2,381.3c-1.6,0-3,0.4-4.4,1.2c-1.3,0.8-2.4,1.7-3.2,2.8v-0.8c0-0.8-0.3-1.5-0.8-2c-0.5-0.5-1.2-0.8-2-0.8
			c-0.8,0-1.5,0.3-2,0.8c-0.5,0.5-0.8,1.2-0.8,2v18.9c0,0.8,0.3,1.5,0.8,2c0.5,0.5,1.2,0.8,2,0.8c0.8,0,1.5-0.3,2-0.8
			c0.5-0.5,0.8-1.2,0.8-2v-11.7c0-1.6,0.5-2.8,1.5-3.9c1-1,2.4-1.5,4.2-1.5c1.7,0,2.9,0.5,3.6,1.4c0.7,1,1.1,2.3,1.1,4v11.7
			c0,0.8,0.3,1.5,0.8,2c0.5,0.5,1.2,0.8,2,0.8c0.8,0,1.5-0.3,2-0.8c0.5-0.5,0.8-1.2,0.8-2v-11.7c0-3.3-0.6-5.8-1.8-7.7
			S159.4,381.3,156.2,381.3z"/>
		<path d="M190.7,381.3c-0.8,0-1.5,0.3-2,0.8c-0.5,0.5-0.8,1.2-0.8,2v0.5c-0.8-0.9-1.9-1.7-3.3-2.3c-1.3-0.6-2.8-1-4.4-1
			c-2.1,0-4,0.5-5.8,1.6c-1.7,1.1-3.1,2.6-4.1,4.5c-1,1.9-1.5,4.1-1.5,6.6c0,2.4,0.5,4.6,1.5,6.6c1,1.9,2.4,3.4,4.1,4.5
			c1.8,1.1,3.7,1.6,5.8,1.6c1.6,0,3-0.4,4.4-1.1c1.4-0.8,2.4-1.6,3-2.6v2.2c0,1.6-0.6,2.9-1.7,3.8c-1.1,0.9-2.8,1.4-5.1,1.4
			c-1.1,0-2.4-0.3-3.8-0.8c-1.4-0.5-2.1-0.8-2.3-0.8c-0.3-0.1-0.6-0.1-0.9-0.1c-0.5,0-1,0.2-1.4,0.5c-0.4,0.4-0.8,0.9-0.9,1.5
			c-0.1,0.3-0.1,0.5-0.1,0.7c0,1.1,0.7,2,2.2,2.7c0.7,0.3,1.8,0.6,3.4,0.9s2.9,0.5,3.8,0.5c3.5,0,6.5-0.9,8.8-2.7
			c2.3-1.8,3.5-4.5,3.5-8.3v-20.4c0-0.8-0.3-1.5-0.8-2C192.2,381.6,191.5,381.3,190.7,381.3z M186.3,399.5c-1.3,1.5-3,2.2-5,2.2
			s-3.7-0.7-5-2.2c-1.3-1.5-1.9-3.3-1.9-5.5c0-2.2,0.6-4,1.9-5.5c1.3-1.5,2.9-2.2,5-2.2s3.7,0.7,5,2.2c1.3,1.5,1.9,3.3,1.9,5.5
			C188.2,396.3,187.6,398.1,186.3,399.5z"/>
	</g>
</g>
<g>
	<path id="curve" stroke="#000000" d="M43.1,295.7c54.2,18.2,111.6,16.5,171.5-0.6"/>
	<text transform="matrix(0.9649 0.2625 -0.2625 0.9649 55.7065 299.5452)" font-family="'Riverdale-Regular'" font-size="12px"> </text>
	<text transform="matrix(0.9674 0.2531 -0.2531 0.9674 58.0227 300.1754)" font-family="'Riverdale-Regular'" font-size="12px"> </text>
	<text transform="matrix(0.9699 0.2436 -0.2436 0.9699 60.3444 300.7826)" font-family="'Riverdale-Regular'" font-size="12px"> </text>
	<text transform="matrix(0.9722 0.2341 -0.2341 0.9722 62.672 301.367)" font-family="'Riverdale-Regular'" font-size="12px"> </text>
	<text transform="matrix(0.9744 0.2246 -0.2246 0.9744 65.0052 301.929)" font-family="'Riverdale-Regular'" font-size="12px"> </text>
	<text transform="matrix(0.9805 0.1964 -0.1964 0.9805 67.3303 302.5351)" font-family="'Riverdale-Regular'" font-size="12px">D</text>
	<text transform="matrix(0.9869 0.1614 -0.1614 0.9869 78.9422 304.8069)" font-family="'Riverdale-Regular'" font-size="12px">a</text>
	<text transform="matrix(0.9903 0.1387 -0.1387 0.9903 84.7215 305.7511)" font-family="'Riverdale-Regular'" font-size="12px">n</text>
	<text transform="matrix(0.9933 0.1158 -0.1158 0.9933 90.3544 306.5418)" font-family="'Riverdale-Regular'" font-size="12px">g</text>
	
		<text transform="matrix(0.9955 9.518755e-02 -9.518755e-02 0.9955 96.3391 307.2325)" font-family="'Riverdale-Regular'" font-size="12px">e</text>
	
		<text transform="matrix(0.9971 7.627514e-02 -7.627514e-02 0.9971 100.9259 307.6739)" font-family="'Riverdale-Regular'" font-size="12px">r</text>
	
		<text transform="matrix(0.9984 5.569880e-02 -5.569880e-02 0.9984 106.1423 308.0744)" font-family="'Riverdale-Regular'" font-size="12px">o</text>
	
		<text transform="matrix(0.9994 3.420760e-02 -3.420760e-02 0.9994 111.7257 308.3873)" font-family="'Riverdale-Regular'" font-size="12px">u</text>
	
		<text transform="matrix(0.9999 1.569068e-02 -1.569068e-02 0.9999 117.591 308.5802)" font-family="'Riverdale-Regular'" font-size="12px">s</text>
	<text transform="matrix(1 3.731910e-03 -3.731910e-03 1 121.7422 308.6399)" font-family="'Riverdale-Regular'" font-size="12px"> </text>
	
		<text transform="matrix(0.9999 -1.463668e-02 1.463668e-02 0.9999 124.1426 308.6736)" font-family="'Riverdale-Regular'" font-size="12px">C</text>
	
		<text transform="matrix(0.9992 -3.874854e-02 3.874854e-02 0.9992 131.9415 308.5473)" font-family="'Riverdale-Regular'" font-size="12px">u</text>
	
		<text transform="matrix(0.9983 -5.788421e-02 5.788421e-02 0.9983 137.8054 308.3169)" font-family="'Riverdale-Regular'" font-size="12px">r</text>
	
		<text transform="matrix(0.9972 -7.516119e-02 7.516119e-02 0.9972 143.0285 308.0128)" font-family="'Riverdale-Regular'" font-size="12px">v</text>
	
		<text transform="matrix(0.9958 -9.105238e-02 9.105238e-02 0.9958 148.018 307.6349)" font-family="'Riverdale-Regular'" font-size="12px">e</text>
	<text transform="matrix(0.9944 -0.1052 0.1052 0.9944 152.6065 307.2135)" font-family="'Riverdale-Regular'" font-size="12px">s</text>
	<text transform="matrix(0.9933 -0.1157 0.1157 0.9933 156.7349 306.7718)" font-family="'Riverdale-Regular'" font-size="12px"> </text>
	<text transform="matrix(0.9905 -0.1373 0.1373 0.9905 159.1258 306.5435)" font-family="'Riverdale-Regular'" font-size="12px">A</text>
	<text transform="matrix(0.9865 -0.1638 0.1638 0.9865 170.5312 304.9249)" font-family="'Riverdale-Regular'" font-size="12px">h</text>
	<text transform="matrix(0.9838 -0.1794 0.1794 0.9838 176.6149 303.908)" font-family="'Riverdale-Regular'" font-size="12px">e</text>
	<text transform="matrix(0.981 -0.1941 0.1941 0.981 181.1492 303.0861)" font-family="'Riverdale-Regular'" font-size="12px">a</text>
	<text transform="matrix(0.9777 -0.2101 0.2101 0.9777 186.8938 301.9491)" font-family="'Riverdale-Regular'" font-size="12px">d</text>
	<text transform="matrix(0.9753 -0.2211 0.2211 0.9753 192.6167 300.709)" font-family="'Riverdale-Regular'" font-size="12px"> </text>
	<text transform="matrix(0.9738 -0.2274 0.2274 0.9738 194.9572 300.1781)" font-family="'Riverdale-Regular'" font-size="12px"> </text>
	<text transform="matrix(0.9723 -0.2336 0.2336 0.9723 197.2944 299.6324)" font-family="'Riverdale-Regular'" font-size="12px"> </text>
	<text transform="matrix(0.9709 -0.2397 0.2397 0.9709 199.6282 299.0721)" font-family="'Riverdale-Regular'" font-size="12px"> </text>
	<text transform="matrix(1 0 0 1 -146.6526 -271.7053)" font-family="'ArialMT'" font-size="12px">   </text>
</g>
</svg>
