<?xml version="1.0" encoding="utf-8"?>
<!-- Generator: Adobe Illustrator 27.9.0, SVG Export Plug-In . SVG Version: 6.00 Build 0)  -->
<svg version="1.1" id="Layer_1" xmlns="http://www.w3.org/2000/svg" xmlns:xlink="http://www.w3.org/1999/xlink" x="0px" y="0px"
	 viewBox="0 0 267.13 451.826" enable-background="new 0 0 267.13 451.826" xml:space="preserve">
<path fill="#FFFFFF" d="M227.163,310.53c-1.961-9.422-4.745-19.548-8.513-30.914c3.147-1.726,4.757-3.745,4.746-6.032
	c-0.019-2.833-2.012-4.774-5.466-5.503c1.934-1.71,3.821-3.473,5.645-5.298c22.701-22.703,36.741-54.065,36.741-88.705
	c0-30.12-10.615-57.761-28.307-79.386s-42.463-37.233-70.774-43.286v-9.279v-9.279c0-1.163-0.471-2.216-1.233-2.978
	c-0.762-0.762-1.815-1.233-2.978-1.233h-12.35c0.969-1.67,1.534-3.603,1.534-5.669c0-6.252-5.087-11.339-11.339-11.339
	s-11.338,5.086-11.338,11.339c0,2.066,0.564,3.999,1.534,5.669h-12.346c-1.163,0-2.216,0.471-2.978,1.233
	c-0.762,0.762-1.233,1.815-1.233,2.978v9.279v9.279C80.194,57.462,55.423,73.07,37.73,94.694S9.423,143.959,9.423,174.079
	c0,34.64,14.041,66.003,36.742,88.705c1.824,1.824,3.71,3.586,5.644,5.296c-3.458,0.729-5.454,2.671-5.472,5.507
	c-0.012,2.282,1.601,4.304,4.758,6.035c-3.756,11.329-6.537,21.457-8.502,30.907c-3.826,1.013-9.56,4.14-10.234,10.701
	c-0.153,1.488,0.554,2.91,2.102,4.228c8.807,7.499,47.281,12.157,100.407,12.157h0.007c53.126,0,91.6-4.658,100.407-12.157
	c1.547-1.318,2.255-2.74,2.102-4.228C236.707,314.673,230.986,311.546,227.163,310.53z M129.2,22.968
	c0-3.131,2.538-5.669,5.669-5.669c3.131,0,5.669,2.538,5.669,5.669s-2.538,5.669-5.669,5.669
	C131.738,28.637,129.2,26.099,129.2,22.968z M26.269,174.079c0-29.942,12.18-57.093,31.845-76.758s46.816-31.845,76.758-31.845
	s57.093,12.18,76.758,31.845c19.666,19.666,31.845,46.816,31.845,76.758s-12.18,57.093-31.845,76.758
	c-8.757,8.757-19,16.024-30.311,21.398c-11.399,0.78-26.539,1.351-46.455,1.351c-19.898,0-35.053-0.579-46.474-1.367
	c-11.297-5.372-21.529-12.634-30.277-21.382C38.449,231.172,26.269,204.021,26.269,174.079z"/>
<path fill="none" stroke="#9C509F" stroke-miterlimit="10" d="M224.473,312.077c-1.936-9.625-4.768-20.01-8.662-31.743
	c-0.158-0.466-0.414-1.081-0.695-1.547c4.24-1.919,5.153-3.832,5.146-5.119l0,0c-0.006-0.964-0.361-1.778-1.057-2.419
	c-2.087-1.925-6.558-1.616-6.745-1.603l-0.104,0.023c-0.034,0.013-0.872,0.313-2.859,0.769l1.734-1.13
	c3.5-2.81,6.896-5.855,10.091-9.05c23.092-23.094,35.809-53.797,35.809-86.454c0-28.149-9.797-55.626-27.588-77.37
	c-17.546-21.446-42.042-36.429-68.976-42.187l-1.353-0.289V34.234c0-0.656-0.255-1.272-0.718-1.734s-1.078-0.717-1.733-0.717H112.98
	c-0.656,0-1.272,0.255-1.735,0.719c-0.462,0.462-0.717,1.078-0.717,1.733v19.724l-1.352,0.289
	c-26.937,5.759-51.434,20.741-68.98,42.187c-17.79,21.743-27.587,49.22-27.587,77.368c0,32.658,12.717,63.361,35.809,86.454
	c3.196,3.196,6.593,6.242,10.098,9.056l1.319,1.038c-1.72-0.407-2.455-0.67-2.487-0.682l-0.104-0.023
	c-0.188-0.014-4.659-0.321-6.746,1.603c-0.695,0.642-1.051,1.456-1.057,2.42c-0.007,1.294,0.919,3.222,5.239,5.161
	c-0.297,0.449-0.596,1.044-0.747,1.507c-3.879,11.69-6.708,22.074-8.652,31.74c-0.65,0.109-9.169,1.677-9.981,8.938
	c-0.087,0.781,0.201,1.548,0.857,2.282c6.188,6.917,44.933,11.386,98.715,11.386c53.775,0,92.521-4.469,98.708-11.386
	c0.656-0.734,0.944-1.501,0.857-2.283C233.63,313.786,225.193,312.199,224.473,312.077z M58.977,268.73
	c-3.48-2.794-6.857-5.822-10.034-9c-22.951-22.953-35.592-53.47-35.592-85.929c0-27.978,9.738-55.287,27.419-76.897
	c17.44-21.317,41.789-36.208,68.562-41.932l1.938-0.415V34.234c0-0.457,0.178-0.886,0.5-1.208c0.322-0.323,0.752-0.5,1.21-0.5
	h43.783c0.457,0,0.886,0.177,1.208,0.5c0.323,0.322,0.501,0.752,0.501,1.209v20.323l1.938,0.415
	c26.77,5.723,51.117,20.614,68.558,41.931c17.682,21.611,27.42,48.921,27.42,76.899c0,32.458-12.641,62.975-35.592,85.929
	c-3.177,3.177-6.551,6.204-10,8.975l-3.321,2.162c-3.83,0.763-10.222,1.767-20.202,2.632c9.893-5.24,18.977-11.937,27.003-19.962
	c21.241-21.241,32.938-49.44,32.938-79.403c0-29.956-11.697-58.151-32.938-79.393c-21.251-21.241-49.45-32.939-79.402-32.939
	c-29.962,0-58.161,11.698-79.402,32.939c-21.241,21.24-32.938,49.436-32.938,79.393c0,29.964,11.697,58.163,32.938,79.403
	c8.044,8.044,17.122,14.742,26.987,19.965c-10.651-0.922-17.22-2.003-20.952-2.782L58.977,268.73z M134.851,275.357
	c-22.443,0-38.791-0.747-50.521-1.699c-10.393-5.295-19.926-12.24-28.332-20.647c-21.101-21.1-32.722-49.112-32.722-78.877
	c0-29.759,11.621-57.768,32.722-78.867c21.101-21.101,49.113-32.721,78.877-32.721c29.754,0,57.767,11.621,78.877,32.721
	c21.101,21.101,32.722,49.109,32.722,78.867c0,29.764-11.621,57.777-32.722,78.877c-8.385,8.386-17.924,15.331-28.347,20.645
	C173.672,274.609,157.315,275.357,134.851,275.357z M50.183,273.672c0.005-0.76,0.272-1.375,0.817-1.877
	c1.369-1.264,4.079-1.43,5.412-1.43c0.365,0,0.627,0.013,0.729,0.019c0.677,0.233,7.415,2.406,27.008,4.005l0.125,0.028v-0.018
	c11.762,0.955,28.134,1.703,50.577,1.703c22.479,0,38.868-0.75,50.634-1.707v0.012l0.077-0.019c19.589-1.598,26.324-3.771,27-4.004
	c0.477-0.03,4.396-0.198,6.14,1.412c0.545,0.503,0.812,1.117,0.817,1.877c0.008,1.573-1.839,3.227-5.2,4.658
	c-7.832,3.339-27.977,7.32-79.468,7.32c-51.471,0-71.616-3.977-79.453-7.313C52.027,276.899,50.175,275.242,50.183,273.672z
	 M54.639,280.567c0.143-0.441,0.46-1.043,0.74-1.437c8.083,3.34,28.44,7.262,79.472,7.262c51.227,0,71.549-3.953,79.571-7.303
	c0.255,0.39,0.521,0.998,0.685,1.48c3.898,11.746,6.732,22.139,8.662,31.764c-3.674,4.412-20.193,11.644-88.903,11.644
	c-68.684,0-85.205-7.228-88.883-11.637C47.921,302.672,50.753,292.277,54.639,280.567z M233.027,322.8
	c-4.959,5.544-37.232,11.138-98.161,11.138c-60.922,0-93.195-5.594-98.154-11.138c-0.517-0.577-0.736-1.135-0.673-1.704
	c0.756-6.761,8.874-8.207,9.369-8.289c4.538,5.469,23.82,11.914,89.465,11.914c65.628,0,84.921-6.443,89.466-11.913
	c0.495,0.081,8.604,1.518,9.361,8.288C233.763,321.665,233.544,322.222,233.027,322.8z"/>
<g>
	<path fill="#010101" stroke="#3A53A4" stroke-width="0.25" stroke-miterlimit="10" d="M126.378,39.363
		c-0.211-0.329-0.51-0.593-0.895-0.792c-0.386-0.198-0.857-0.304-1.417-0.317c-0.521-0.012-1.024,0.084-1.51,0.289
		c-0.484,0.205-0.922,0.485-1.313,0.839s-0.715,0.764-0.97,1.23c-0.255,0.466-0.419,0.941-0.493,1.426
		c-0.05,0.335-0.044,0.631,0.019,0.886c0.062,0.254,0.167,0.472,0.316,0.652s0.326,0.317,0.531,0.41s0.426,0.14,0.662,0.14
		c0.285,0,0.577-0.075,0.876-0.224c0.298-0.149,0.571-0.379,0.819-0.69c0.349-0.435,0.581-0.848,0.699-1.239
		c0.118-0.392,0.152-0.73,0.103-1.016c-0.037-0.136-0.093-0.229-0.168-0.279c-0.074-0.05-0.155-0.075-0.242-0.075
		c-0.137,0-0.264,0.044-0.382,0.13c-0.118,0.087-0.195,0.181-0.233,0.28c0.137,0.149,0.205,0.311,0.205,0.484
		c0,0.174-0.037,0.33-0.111,0.466s-0.174,0.255-0.298,0.354c-0.125,0.1-0.255,0.149-0.392,0.149
		c-0.323,0.013-0.578-0.133-0.765-0.438c-0.187-0.304-0.199-0.724-0.037-1.258c0.074-0.249,0.198-0.469,0.373-0.662
		c0.174-0.193,0.369-0.351,0.587-0.476c0.217-0.124,0.444-0.211,0.681-0.261c0.235-0.05,0.453-0.062,0.652-0.038
		c0.248,0.038,0.453,0.119,0.614,0.243c0.162,0.124,0.292,0.273,0.392,0.447s0.165,0.367,0.196,0.578
		c0.03,0.211,0.04,0.423,0.027,0.634c-0.024,0.273-0.103,0.565-0.232,0.876c-0.131,0.311-0.292,0.612-0.485,0.904
		c-0.192,0.292-0.409,0.572-0.652,0.839c-0.242,0.268-0.487,0.494-0.735,0.68c-0.398,0.298-0.843,0.637-1.333,1.016
		c-0.491,0.379-0.957,0.786-1.398,1.221c-0.44,0.435-0.829,0.895-1.164,1.379c-0.336,0.484-0.548,0.994-0.634,1.528
		c-0.025,0.087,0.003,0.152,0.084,0.196c0.08,0.043,0.177,0.065,0.288,0.065c0.199,0,0.354-0.056,0.467-0.167
		c0.211-0.249,0.503-0.373,0.876-0.373c0.261,0,0.54,0.053,0.838,0.159c0.299,0.105,0.603,0.239,0.914,0.401
		c0.459,0.236,0.882,0.354,1.267,0.354c0.373,0,0.699-0.097,0.979-0.289c0.279-0.193,0.512-0.422,0.698-0.689
		s0.339-0.55,0.457-0.848s0.208-0.547,0.271-0.746c0-0.062-0.025-0.108-0.075-0.14c-0.05-0.031-0.108-0.05-0.177-0.056
		c-0.068-0.006-0.137-0.006-0.205,0s-0.115,0.016-0.14,0.028c-0.062,0.211-0.233,0.426-0.513,0.643
		c-0.279,0.218-0.594,0.326-0.941,0.326c-0.1,0-0.195-0.009-0.289-0.028c-0.093-0.019-0.189-0.059-0.289-0.121
		c-0.497-0.286-1.043-0.429-1.64-0.429c-0.149,0-0.302,0.009-0.457,0.028s-0.308,0.053-0.456,0.103
		c0.248-0.261,0.519-0.521,0.811-0.783c0.292-0.261,0.578-0.506,0.857-0.736c0.279-0.229,0.547-0.438,0.802-0.624
		c0.254-0.187,0.469-0.336,0.643-0.448c0.323-0.211,0.658-0.441,1.007-0.689c0.348-0.249,0.68-0.522,0.997-0.82
		c0.316-0.298,0.593-0.615,0.829-0.95s0.397-0.69,0.484-1.062c0.112-0.522,0.146-1.006,0.103-1.454
		C126.717,40.08,126.589,39.692,126.378,39.363z"/>
	<path fill="#010101" stroke="#3A53A4" stroke-width="0.25" stroke-miterlimit="10" d="M135.866,41.636
		c-0.074-0.677-0.242-1.249-0.503-1.715s-0.605-0.83-1.034-1.09c-0.429-0.261-0.923-0.41-1.482-0.447
		c-0.745-0.05-1.423,0.062-2.031,0.335c-0.609,0.273-1.144,0.646-1.604,1.118c-0.459,0.472-0.845,1.016-1.155,1.631
		c-0.311,0.615-0.553,1.24-0.727,1.873c-0.311,1.181-0.444,2.209-0.401,3.085c0.044,0.876,0.212,1.606,0.504,2.19
		s0.677,1.028,1.155,1.333c0.479,0.305,0.991,0.476,1.538,0.513c0.634,0.05,1.202-0.012,1.705-0.187
		c0.503-0.174,0.95-0.426,1.342-0.754c0.392-0.329,0.733-0.721,1.025-1.174s0.541-0.929,0.745-1.426c0.205-0.497,0.37-1,0.494-1.509
		c0.124-0.51,0.224-0.994,0.299-1.454C135.897,43.087,135.941,42.314,135.866,41.636z M133.834,43.901
		c-0.075,0.646-0.187,1.286-0.336,1.919c-0.148,0.634-0.326,1.215-0.531,1.743s-0.44,0.979-0.708,1.352
		c-0.268,0.373-0.557,0.622-0.866,0.746c-0.273,0.1-0.51,0.149-0.709,0.149c-0.41,0-0.758-0.143-1.044-0.429
		c-0.285-0.286-0.503-0.677-0.652-1.174c-0.148-0.497-0.224-1.084-0.224-1.761s0.087-1.407,0.262-2.19
		c0.062-0.273,0.143-0.6,0.242-0.979s0.224-0.771,0.372-1.174c0.149-0.404,0.32-0.804,0.513-1.202
		c0.192-0.397,0.413-0.752,0.662-1.062c0.248-0.311,0.524-0.559,0.829-0.746s0.637-0.273,0.997-0.261
		c0.373,0.012,0.659,0.162,0.857,0.447c0.199,0.286,0.336,0.662,0.41,1.127c0.075,0.466,0.1,1,0.075,1.603
		C133.958,42.612,133.908,43.242,133.834,43.901z"/>
	<path fill="#010101" stroke="#3A53A4" stroke-width="0.25" stroke-miterlimit="10" d="M139.156,46.575
		c0.279-0.229,0.547-0.438,0.802-0.624c0.254-0.187,0.469-0.336,0.643-0.448c0.323-0.211,0.658-0.441,1.007-0.689
		c0.348-0.249,0.68-0.522,0.997-0.82c0.316-0.298,0.593-0.615,0.829-0.95s0.397-0.69,0.484-1.062
		c0.112-0.522,0.146-1.006,0.103-1.454c-0.043-0.447-0.171-0.835-0.382-1.165s-0.51-0.593-0.895-0.792
		c-0.386-0.198-0.857-0.304-1.417-0.317c-0.521-0.012-1.024,0.084-1.51,0.289c-0.484,0.205-0.922,0.485-1.313,0.839
		s-0.715,0.764-0.97,1.23s-0.419,0.941-0.493,1.426c-0.05,0.335-0.044,0.631,0.019,0.886c0.062,0.254,0.167,0.472,0.316,0.652
		s0.326,0.317,0.531,0.41s0.426,0.14,0.662,0.14c0.285,0,0.577-0.075,0.876-0.224c0.298-0.149,0.571-0.379,0.819-0.69
		c0.349-0.435,0.581-0.848,0.699-1.239c0.118-0.392,0.152-0.73,0.103-1.016c-0.037-0.136-0.093-0.229-0.168-0.279
		c-0.074-0.05-0.155-0.075-0.242-0.075c-0.137,0-0.264,0.044-0.382,0.13c-0.118,0.087-0.195,0.181-0.233,0.28
		c0.137,0.149,0.205,0.311,0.205,0.484c0,0.174-0.037,0.33-0.111,0.466s-0.174,0.255-0.298,0.354
		c-0.125,0.1-0.255,0.149-0.392,0.149c-0.323,0.013-0.578-0.133-0.765-0.438c-0.187-0.304-0.199-0.724-0.037-1.258
		c0.074-0.249,0.198-0.469,0.373-0.662c0.174-0.193,0.369-0.351,0.587-0.476c0.217-0.124,0.444-0.211,0.681-0.261
		c0.235-0.05,0.453-0.062,0.652-0.038c0.248,0.038,0.453,0.119,0.614,0.243c0.162,0.124,0.292,0.273,0.392,0.447
		s0.165,0.367,0.196,0.578c0.03,0.211,0.04,0.423,0.027,0.634c-0.024,0.273-0.103,0.565-0.232,0.876
		c-0.131,0.311-0.292,0.612-0.485,0.904c-0.192,0.292-0.409,0.572-0.652,0.839c-0.242,0.268-0.487,0.494-0.735,0.68
		c-0.398,0.298-0.843,0.637-1.333,1.016c-0.491,0.379-0.957,0.786-1.398,1.221c-0.44,0.435-0.829,0.895-1.164,1.379
		c-0.336,0.484-0.548,0.994-0.634,1.528c-0.025,0.087,0.003,0.152,0.084,0.196c0.08,0.043,0.177,0.065,0.288,0.065
		c0.199,0,0.354-0.056,0.467-0.167c0.211-0.249,0.503-0.373,0.876-0.373c0.261,0,0.54,0.053,0.838,0.159
		c0.299,0.105,0.603,0.239,0.914,0.401c0.459,0.236,0.882,0.354,1.267,0.354c0.373,0,0.699-0.097,0.979-0.289
		c0.279-0.193,0.512-0.422,0.698-0.689s0.339-0.55,0.457-0.848s0.208-0.547,0.271-0.746c0-0.062-0.025-0.108-0.075-0.14
		c-0.05-0.031-0.108-0.05-0.177-0.056c-0.068-0.006-0.137-0.006-0.205,0c-0.068,0.006-0.115,0.016-0.14,0.028
		c-0.062,0.211-0.233,0.426-0.513,0.643c-0.279,0.218-0.594,0.326-0.941,0.326c-0.1,0-0.195-0.009-0.289-0.028
		c-0.093-0.019-0.189-0.059-0.289-0.121c-0.497-0.286-1.043-0.429-1.64-0.429c-0.149,0-0.302,0.009-0.457,0.028
		s-0.308,0.053-0.456,0.103c0.248-0.261,0.519-0.521,0.811-0.783C138.59,47.051,138.876,46.805,139.156,46.575z"/>
	<path fill="#010101" stroke="#3A53A4" stroke-width="0.25" stroke-miterlimit="10" d="M151.168,43.873
		c-0.187-0.354-0.441-0.658-0.764-0.913c-0.323-0.254-0.696-0.457-1.119-0.606c0.262-0.211,0.494-0.459,0.699-0.746
		c0.205-0.286,0.357-0.608,0.457-0.969c0.224-0.783,0.133-1.407-0.271-1.873c-0.404-0.466-1.022-0.717-1.854-0.755
		c-0.733-0.037-1.379,0.093-1.938,0.392s-1.013,0.789-1.36,1.472c-0.075,0.162-0.131,0.345-0.168,0.55
		c-0.037,0.205-0.037,0.41,0,0.615s0.118,0.392,0.242,0.559c0.124,0.168,0.317,0.289,0.578,0.364c0.187,0.062,0.432,0.062,0.736,0
		c0.304-0.062,0.562-0.205,0.773-0.429c0.198-0.211,0.335-0.441,0.41-0.69c0.074-0.248,0.099-0.472,0.074-0.671
		c-0.025-0.137-0.071-0.229-0.14-0.279s-0.146-0.075-0.233-0.075c-0.211,0-0.348,0.093-0.41,0.279
		c0.062,0.087,0.09,0.181,0.084,0.28c-0.006,0.1-0.031,0.189-0.074,0.271c-0.044,0.081-0.1,0.146-0.168,0.195
		c-0.068,0.05-0.14,0.075-0.214,0.075c-0.088,0-0.152-0.034-0.196-0.103c-0.044-0.068-0.068-0.155-0.074-0.261
		c-0.007-0.105,0.003-0.214,0.028-0.326c0.024-0.112,0.056-0.211,0.093-0.298c0.137-0.311,0.373-0.547,0.708-0.708
		c0.336-0.161,0.678-0.224,1.025-0.186c0.385,0.05,0.643,0.202,0.773,0.457c0.131,0.255,0.14,0.556,0.028,0.904
		c-0.138,0.435-0.317,0.792-0.541,1.072s-0.466,0.506-0.727,0.68c-0.398,0.025-0.771,0.081-1.118,0.168
		c-0.349,0.087-0.628,0.193-0.839,0.317c-0.087,0.037-0.144,0.103-0.168,0.196c-0.025,0.093-0.025,0.186,0,0.279
		c0.024,0.093,0.068,0.177,0.131,0.252c0.062,0.074,0.136,0.112,0.224,0.112c0.285,0.025,0.634,0.003,1.043-0.065
		c0.41-0.068,0.833-0.196,1.268-0.382c0.087,0.025,0.165,0.047,0.233,0.065s0.133,0.047,0.195,0.084
		c0.46,0.261,0.721,0.665,0.783,1.211c0.062,0.547-0.013,1.193-0.224,1.938c-0.124,0.435-0.305,0.833-0.541,1.193
		s-0.51,0.665-0.819,0.913c-0.312,0.249-0.644,0.429-0.998,0.541s-0.711,0.143-1.071,0.093c-0.249-0.037-0.466-0.118-0.652-0.242
		c-0.187-0.124-0.329-0.283-0.429-0.475c-0.1-0.193-0.146-0.407-0.14-0.643s0.071-0.479,0.195-0.727
		c0.112-0.211,0.273-0.379,0.485-0.503c0.211-0.124,0.44-0.186,0.689-0.186c0.187,0,0.36,0.037,0.521,0.112
		c0.137,0.062,0.245,0.171,0.326,0.326s0.071,0.351-0.028,0.587c0.286,0.037,0.562-0.006,0.83-0.13
		c0.267-0.124,0.45-0.292,0.55-0.503c0.111-0.211,0.174-0.419,0.187-0.625c0.012-0.205-0.022-0.391-0.103-0.559
		c-0.081-0.167-0.199-0.317-0.354-0.447s-0.339-0.227-0.55-0.289c-0.249-0.062-0.484-0.093-0.708-0.093
		c-0.249,0-0.504,0.034-0.765,0.103s-0.513,0.171-0.755,0.307c-0.242,0.137-0.469,0.317-0.68,0.541
		c-0.212,0.224-0.392,0.491-0.541,0.802c-0.187,0.41-0.276,0.82-0.271,1.23c0.007,0.41,0.097,0.786,0.271,1.128
		s0.432,0.631,0.773,0.867s0.742,0.391,1.202,0.466c0.286,0.037,0.56,0.056,0.82,0.056c1.019,0,1.936-0.304,2.749-0.913
		s1.438-1.516,1.873-2.721c0.187-0.522,0.271-1.006,0.252-1.454C151.457,44.628,151.355,44.227,151.168,43.873z"/>
</g>
<g>
	<path fill="#010101" d="M97.32,418.276c0.732,0,1.345-0.237,1.832-0.71c0.49-0.474,0.735-1.062,0.735-1.766
		c0-0.732-0.245-1.342-0.735-1.832c-0.487-0.487-1.1-0.732-1.832-0.732h-3.255v-2.934c0-0.795-0.259-1.459-0.778-1.992
		c-0.52-0.536-1.162-0.803-1.924-0.803c-0.795,0-1.459,0.267-1.992,0.803c-0.536,0.533-0.803,1.198-0.803,1.992v2.934h-2.109
		c-0.732,0-1.345,0.237-1.832,0.71c-0.49,0.474-0.732,1.061-0.732,1.764c0,0.732,0.242,1.345,0.732,1.832
		c0.487,0.49,1.1,0.735,1.832,0.735h2.109v12.648c0,2.627,0.648,4.347,1.946,5.155s2.896,1.214,4.79,1.214
		c1.13,0,2.145-0.283,3.048-0.846c0.901-0.566,1.35-1.26,1.35-2.088c0-0.67-0.174-1.214-0.525-1.625
		c-0.354-0.414-0.743-0.621-1.17-0.621c-0.335,0-0.686,0.079-1.053,0.231c-0.427,0.122-0.765,0.182-1.007,0.182
		c-0.582,0-1.04-0.144-1.375-0.435c-0.338-0.291-0.506-0.757-0.506-1.399v-12.417H97.32z"/>
	<path fill="#010101" d="M117.666,412.318c-1.497,0-2.901,0.329-4.216,0.985c-1.315,0.656-2.322,1.611-3.024,2.863v-0.596
		c0-0.792-0.261-1.459-0.778-1.992c-0.52-0.533-1.179-0.803-1.971-0.803c-0.795,0-1.453,0.269-1.971,0.803
		c-0.52,0.533-0.781,1.2-0.781,1.992v18.928c0,0.795,0.261,1.459,0.781,1.992c0.517,0.536,1.176,0.803,1.971,0.803
		c0.792,0,1.451-0.267,1.971-0.803c0.517-0.533,0.778-1.198,0.778-1.992v-10.86c0-1.377,0.237-2.559,0.71-3.552
		c0.474-0.993,1.075-1.734,1.81-2.224c0.732-0.487,1.497-0.732,2.292-0.732c0.365,0,0.71,0.046,1.032,0.136
		c0.318,0.093,0.525,0.155,0.618,0.185c0.58,0.212,1.1,0.318,1.557,0.318c0.672,0,1.252-0.234,1.742-0.71
		c0.49-0.471,0.732-1.181,0.732-2.128c0-0.702-0.313-1.315-0.939-1.835C119.353,412.576,118.583,412.318,117.666,412.318z"/>
	<path fill="#010101" d="M140.099,404.457c-0.384,0.261-0.803,0.68-1.26,1.26c-0.735,0.825-1.788,1.238-3.163,1.238
		s-2.431-0.414-3.163-1.238c-0.457-0.58-0.879-0.999-1.26-1.26c-0.381-0.259-0.879-0.389-1.489-0.389
		c-0.46,0-0.833,0.139-1.124,0.414c-0.289,0.275-0.436,0.64-0.436,1.1c0,0.275,0.076,0.612,0.231,1.007
		c0.55,1.375,1.456,2.431,2.725,3.163s2.774,1.1,4.516,1.1s3.244-0.373,4.513-1.121s2.194-1.826,2.774-3.231
		c0.122-0.337,0.182-0.659,0.182-0.964c0-0.457-0.144-0.817-0.436-1.078c-0.291-0.259-0.664-0.389-1.121-0.389
		C140.975,404.068,140.48,404.198,140.099,404.457z"/>
	<path fill="#010101" d="M137.372,397.424l-2.659,4.673c-0.182,0.308-0.275,0.596-0.275,0.871c-0.03,0.46,0.131,0.825,0.482,1.1
		s0.68,0.414,0.985,0.414c0.885,0,1.573-0.259,2.063-0.778l3.481-3.851c0.52-0.61,0.811-1.266,0.871-1.971
		c0.03-0.672-0.161-1.222-0.572-1.649c-0.414-0.427-1.032-0.642-1.856-0.642c-0.52,0-0.993,0.169-1.421,0.506
		C138.044,396.43,137.676,396.874,137.372,397.424z"/>
	<path fill="#010101" d="M144.108,412.318c-0.795,0-1.451,0.267-1.971,0.803c-0.52,0.533-0.778,1.198-0.778,1.992v0.046
		c-0.887-0.825-1.971-1.505-3.255-2.039c-1.282-0.536-2.656-0.803-4.124-0.803c-2.047,0-3.919,0.542-5.615,1.628
		c-1.696,1.083-3.032,2.597-4.009,4.535c-0.977,1.941-1.467,4.134-1.467,6.579c0,2.444,0.498,4.627,1.489,6.551
		c0.993,1.924,2.346,3.43,4.058,4.516c1.709,1.083,3.62,1.625,5.727,1.625c1.437,0,2.803-0.313,4.102-0.939
		c1.298-0.626,2.33-1.383,3.095-2.267c0.03,0.795,0.297,1.451,0.8,1.971s1.154,0.778,1.949,0.778s1.451-0.267,1.971-0.803
		c0.52-0.533,0.778-1.198,0.778-1.992v-19.385c0-0.825-0.259-1.497-0.778-2.017S144.903,412.318,144.108,412.318z M139.707,430.535
		c-1.252,1.451-2.872,2.175-4.856,2.175c-1.987,0-3.598-0.724-4.837-2.175c-1.236-1.451-1.854-3.277-1.854-5.476
		c0-2.202,0.623-4.034,1.878-5.501c1.252-1.467,2.855-2.199,4.812-2.199c1.984,0,3.604,0.732,4.856,2.199
		c1.255,1.467,1.881,3.299,1.881,5.501C141.588,427.258,140.962,429.084,139.707,430.535z"/>
	<path fill="#010101" d="M165.924,412.318c-1.59,0-3.048,0.397-4.377,1.192c-1.328,0.795-2.406,1.739-3.231,2.842v-0.781
		c0-0.792-0.261-1.459-0.778-1.992c-0.52-0.533-1.179-0.803-1.971-0.803c-0.795,0-1.453,0.269-1.971,0.803
		c-0.52,0.533-0.781,1.2-0.781,1.992v18.928c0,0.795,0.261,1.459,0.781,1.992c0.517,0.536,1.176,0.803,1.971,0.803
		c0.792,0,1.451-0.267,1.971-0.803c0.517-0.533,0.778-1.198,0.778-1.992v-11.731c0-1.56,0.504-2.85,1.511-3.873
		c1.01-1.023,2.398-1.535,4.173-1.535c1.709,0,2.915,0.482,3.62,1.443c0.702,0.964,1.053,2.286,1.053,3.966V434.5
		c0,0.795,0.259,1.459,0.778,1.992c0.52,0.536,1.176,0.803,1.971,0.803s1.451-0.267,1.971-0.803c0.52-0.533,0.778-1.198,0.778-1.992
		v-11.731c0-3.269-0.593-5.827-1.786-7.676S169.04,412.318,165.924,412.318z"/>
	<path fill="#010101" d="M200.428,412.318c-0.795,0-1.451,0.267-1.971,0.803c-0.52,0.533-0.778,1.198-0.778,1.992v0.504
		c-0.825-0.917-1.911-1.696-3.253-2.338c-1.347-0.64-2.798-0.961-4.355-0.961c-2.107,0-4.026,0.542-5.751,1.628
		c-1.726,1.083-3.087,2.597-4.08,4.535c-0.991,1.941-1.489,4.134-1.489,6.579c0,2.444,0.504,4.627,1.513,6.551
		c1.007,1.924,2.39,3.43,4.148,4.516c1.756,1.083,3.704,1.625,5.841,1.625c1.56,0,3.018-0.381,4.377-1.146
		c1.361-0.762,2.376-1.617,3.048-2.564v2.199c0,1.649-0.558,2.923-1.674,3.827c-1.113,0.901-2.803,1.35-5.063,1.35
		c-1.13,0-2.39-0.267-3.781-0.8c-1.391-0.536-2.148-0.819-2.27-0.849c-0.275-0.09-0.563-0.136-0.868-0.136
		c-0.52,0-1.002,0.174-1.445,0.525c-0.444,0.351-0.757,0.863-0.939,1.535c-0.093,0.275-0.136,0.52-0.136,0.735
		c0,1.13,0.746,2.017,2.246,2.656c0.67,0.305,1.81,0.612,3.413,0.917s2.863,0.457,3.781,0.457c3.544,0,6.47-0.893,8.775-2.681
		c2.308-1.786,3.459-4.543,3.459-8.272v-20.392c0-0.825-0.259-1.497-0.778-2.017C201.879,412.576,201.223,412.318,200.428,412.318z
		 M195.962,430.535c-1.301,1.451-2.972,2.175-5.019,2.175s-3.713-0.724-4.995-2.175c-1.285-1.451-1.924-3.277-1.924-5.476
		c0-2.202,0.64-4.034,1.924-5.501c1.282-1.467,2.948-2.199,4.995-2.199s3.718,0.732,5.019,2.199
		c1.298,1.467,1.946,3.299,1.946,5.501C197.908,427.258,197.26,429.084,195.962,430.535z"/>
</g>
<g>
	<path id="SVGID_x5F_1_x5F_" fill="none" d="M49.095,301.808c54.193,18.177,111.624,16.451,171.548-0.588"/>
	<text>	<textPath  xlink:href="#SVGID_x5F_1_x5F_" startOffset="0.1953%">
<tspan  stroke="#3953A3" stroke-width="0.2815" stroke-miterlimit="10" font-family="'Riverdale-Regular'" font-size="20.2686px">The Title Family</tspan>	</textPath>
</text>
</g>
</svg>
