<?xml version="1.0" encoding="utf-8"?>
<!-- Generator: Adobe Illustrator 27.9.0, SVG Export Plug-In . SVG Version: 6.00 Build 0)  -->
<svg version="1.1" id="Layer_1" xmlns="http://www.w3.org/2000/svg" xmlns:xlink="http://www.w3.org/1999/xlink" x="0px" y="0px"
	 viewBox="0 0 61.826 78.522" enable-background="new 0 0 61.826 78.522" xml:space="preserve">
<g>
	<path fill="#E2D6C7" stroke="#FDB515" stroke-width="0.25" stroke-miterlimit="10" d="M54.364,58.586
		c-2.807-1.088-4.483-0.573-6.468-2.632c-1.638-1.7-4.95-9.768-4.898-13.049c0.104-6.497,15.721-4.81,15.851-12.957
		c0.036-2.247-0.553-3.599-1.5-5.048c-3.887-5.944-11.898-0.381-15.794-0.444c0.073-1.891,0.973-2.201,1.687-3.558
		C46.82,14.088,42.77,2.922,30.43,2.724c-7.056-0.112-13.601,7.807-11.981,15.024c0.938,4.177,3.701,6.051,1.911,6.022
		c-3.37-0.054-7.411-2.815-10.246-2.481c-7.777,0.916-10.992,10.737,1.043,15.5c5.54,2.193,8.494,1.561,6.919,8.291
		c-3.11,13.296-7.889,11.214-11.258,12.755c-7.202,3.293-3.772,13.981,6.514,14.145c6.133,0.098,11.851-8.502,17.517-8.411
		c4.183,0.067,10.14,7.983,16.61,8.957l2.261,0.036c1.568-0.198,3.157-0.886,4.749-2.27c2.795-2.43,3.445-3.516,3.495-6.637
		C58.008,60.835,56.538,59.429,54.364,58.586z"/>
	<g>
		<path fill="none" stroke="#32C5F4" stroke-width="0.25" stroke-miterlimit="10" d="M49.062,25.875
			c0.16-0.392,0.218-0.58,0.106-0.733c-0.137-0.188-0.096-0.452,0.092-0.59s0.452-0.096,0.59,0.092
			c0.401,0.548,0.166,1.126-0.006,1.549c-0.16,0.392-0.218,0.58-0.106,0.733s0.309,0.155,0.731,0.122
			c0.454-0.035,1.077-0.083,1.477,0.465c0.401,0.549,0.166,1.127-0.006,1.549c-0.159,0.393-0.218,0.581-0.106,0.734
			s0.308,0.155,0.732,0.123c0.454-0.035,1.077-0.082,1.478,0.467c0.401,0.549,0.167,1.127-0.005,1.55
			c-0.159,0.393-0.218,0.581-0.106,0.735c0.138,0.188,0.096,0.452-0.092,0.59c-0.075,0.055-0.162,0.081-0.249,0.081
			c-0.13,0-0.258-0.06-0.341-0.173c-0.401-0.549-0.166-1.128,0.005-1.55c0.16-0.393,0.218-0.581,0.106-0.735
			c-0.112-0.154-0.309-0.155-0.732-0.123c-0.454,0.035-1.077,0.082-1.478-0.467c-0.401-0.549-0.166-1.127,0.006-1.549
			c0.16-0.392,0.218-0.58,0.106-0.733s-0.309-0.154-0.731-0.122c-0.454,0.035-1.077,0.083-1.477-0.465
			C48.655,26.875,48.89,26.297,49.062,25.875z"/>
		<path fill="none" stroke="#32C5F4" stroke-width="0.25" stroke-miterlimit="10" d="M12.374,23.93
			c-0.198,0.65-0.801,0.809-1.242,0.925c-0.409,0.108-0.595,0.174-0.65,0.355c-0.055,0.181,0.062,0.34,0.341,0.657
			c0.301,0.342,0.713,0.811,0.515,1.461s-0.802,0.809-1.242,0.926c-0.41,0.108-0.595,0.174-0.65,0.356
			c-0.055,0.181,0.061,0.34,0.341,0.659c0.3,0.342,0.712,0.812,0.514,1.462s-0.802,0.81-1.242,0.926
			c-0.41,0.109-0.595,0.175-0.651,0.357c-0.068,0.223-0.304,0.349-0.527,0.281c-0.089-0.027-0.162-0.081-0.214-0.15
			C7.589,32.041,7.56,31.902,7.6,31.768c0.198-0.65,0.802-0.81,1.242-0.927c0.41-0.109,0.596-0.175,0.651-0.357
			c0.056-0.182-0.061-0.341-0.341-0.66c-0.3-0.342-0.712-0.811-0.514-1.462c0.198-0.65,0.802-0.809,1.242-0.925
			c0.41-0.108,0.595-0.174,0.65-0.356c0.055-0.181-0.062-0.339-0.341-0.657c-0.301-0.342-0.713-0.811-0.515-1.461
			s0.802-0.809,1.242-0.925c0.41-0.108,0.595-0.174,0.65-0.355c0.068-0.223,0.304-0.349,0.527-0.281
			C12.317,23.471,12.442,23.707,12.374,23.93z"/>
		<path fill="none" stroke="#32C5F4" stroke-width="0.25" stroke-miterlimit="10" d="M13.668,67.11
			c-0.173,0.428-0.236,0.634-0.103,0.815c0.125,0.171,0.088,0.412-0.084,0.537c-0.068,0.05-0.148,0.074-0.226,0.074
			c-0.118,0-0.235-0.055-0.311-0.158c-0.399-0.546-0.162-1.131,0.011-1.558c0.173-0.428,0.236-0.634,0.103-0.815
			c-0.132-0.182-0.348-0.185-0.808-0.15c-0.46,0.035-1.089,0.083-1.487-0.463c-0.398-0.545-0.161-1.13,0.012-1.557
			c0.173-0.427,0.236-0.633,0.104-0.814s-0.347-0.184-0.807-0.148s-1.088,0.084-1.487-0.461c-0.398-0.545-0.161-1.13,0.013-1.556
			c0.174-0.427,0.236-0.633,0.104-0.813c-0.125-0.172-0.088-0.412,0.084-0.537c0.171-0.125,0.412-0.088,0.537,0.083
			c0.398,0.545,0.161,1.13-0.013,1.556c-0.174,0.427-0.236,0.633-0.104,0.814s0.347,0.184,0.807,0.148
			c0.459-0.036,1.088-0.084,1.487,0.461c0.399,0.545,0.161,1.13-0.012,1.557c-0.173,0.427-0.236,0.633-0.104,0.814
			c0.133,0.181,0.348,0.185,0.808,0.15c0.459-0.035,1.088-0.083,1.487,0.463C14.078,66.098,13.841,66.683,13.668,67.11z"/>
		<path fill="none" stroke="#32C5F4" stroke-width="0.25" stroke-miterlimit="10" d="M25.013,11.995
			c0-1.013,0.821-1.834,1.834-1.834s1.834,0.821,1.834,1.834c0,0.449-0.161,0.859-0.428,1.178c-0.051,0.085-0.114,0.148-0.19,0.195
			c-0.324,0.286-0.749,0.461-1.215,0.461C25.834,13.829,25.013,13.008,25.013,11.995z"/>
		<path fill="none" stroke="#32C5F4" stroke-width="0.25" stroke-miterlimit="10" d="M35.147,18.181
			c-0.572,1.969-2.267,3.242-4.318,3.242s-3.746-1.272-4.318-3.242c-0.044-0.152,0.043-0.31,0.195-0.354
			c0.151-0.044,0.31,0.043,0.354,0.195c0.5,1.719,1.979,2.83,3.769,2.83s3.269-1.111,3.769-2.83
			c0.044-0.152,0.203-0.238,0.354-0.195C35.104,17.87,35.191,18.029,35.147,18.181z"/>
		<path fill="none" stroke="#32C5F4" stroke-width="0.25" stroke-miterlimit="10" d="M34.873,13.829
			c-1.013,0-1.834-0.821-1.834-1.834s0.821-1.834,1.834-1.834s1.834,0.821,1.834,1.834C36.706,13.008,35.885,13.829,34.873,13.829z"
			/>
		<path fill="none" stroke="#32C5F4" stroke-width="0.25" stroke-miterlimit="10" d="M52.905,61.351
			c-0.364,0.616-1.052,0.61-1.554,0.607c-0.484-0.004-0.724,0.015-0.834,0.2c-0.109,0.185-0.009,0.404,0.228,0.827
			c0.246,0.438,0.583,1.037,0.219,1.654c-0.364,0.616-1.051,0.612-1.554,0.607c-0.486-0.004-0.725,0.015-0.834,0.2
			c-0.11,0.186-0.01,0.405,0.227,0.828c0.246,0.438,0.583,1.038,0.218,1.655c-0.364,0.617-1.052,0.613-1.555,0.609
			c-0.484-0.003-0.725,0.015-0.835,0.201c-0.077,0.131-0.215,0.204-0.357,0.204c-0.072,0-0.144-0.018-0.21-0.058
			c-0.197-0.116-0.263-0.37-0.146-0.567c0.364-0.617,1.051-0.612,1.554-0.609c0.484,0.004,0.725-0.015,0.835-0.201
			s0.01-0.406-0.227-0.828c-0.246-0.438-0.582-1.038-0.218-1.655c0.364-0.617,1.052-0.611,1.554-0.607
			c0.484,0.002,0.724-0.015,0.834-0.2c0.109-0.185,0.009-0.404-0.228-0.827c-0.246-0.437-0.583-1.037-0.219-1.654
			c0.364-0.616,1.052-0.612,1.554-0.607c0.485,0.005,0.724-0.015,0.834-0.2c0.116-0.197,0.371-0.262,0.567-0.146
			C52.956,60.9,53.022,61.154,52.905,61.351z"/>
	</g>
</g>
<text transform="matrix(0.4781 0.8783 -0.8783 0.4781 18.7188 35.6855)" fill="#FDFEFF" font-family="'RollerSkates-Regular'" font-size="20px">A</text>
<text transform="matrix(0.4781 0.8783 -0.8783 0.4781 18.7188 35.6855)" fill="none" stroke="#6ABD45" stroke-width="0.25" stroke-miterlimit="10" font-family="'RollerSkates-Regular'" font-size="20px">A</text>
<text transform="matrix(0.4781 0.8783 -0.8783 0.4781 22.5909 42.7992)" fill="#FDFEFF" font-family="'RollerSkates-Regular'" font-size="20px">S</text>
<text transform="matrix(0.4781 0.8783 -0.8783 0.4781 22.5909 42.7992)" fill="none" stroke="#6ABD45" stroke-width="0.25" stroke-miterlimit="10" font-family="'RollerSkates-Regular'" font-size="20px">S</text>
<text transform="matrix(0.4781 0.8783 -0.8783 0.4781 26.5508 50.0717)" fill="#FDFEFF" font-family="'RollerSkates-Regular'" font-size="20px">D</text>
<text transform="matrix(0.4781 0.8783 -0.8783 0.4781 26.5508 50.0717)" fill="none" stroke="#6ABD45" stroke-width="0.25" stroke-miterlimit="10" font-family="'RollerSkates-Regular'" font-size="20px">D</text>
</svg>
