<?xml version="1.0" encoding="utf-8"?>
<!-- Generator: Adobe Illustrator 27.9.0, SVG Export Plug-In . SVG Version: 6.00 Build 0)  -->
<svg version="1.1" id="Layer_1" xmlns="http://www.w3.org/2000/svg" xmlns:xlink="http://www.w3.org/1999/xlink" x="0px" y="0px"
	 viewBox="0 0 772.6 111" style="enable-background:new 0 0 772.6 111;" xml:space="preserve">
<g>
	<path d="M55.5,44.4c2.6-1.3,4.7-3.1,6.1-5.4c1.4-2.3,2.1-4.9,2.1-7.9c0-11.7-6.3-17.6-18.8-17.6H20c-1.7,0-3.2,0.6-4.3,1.7
		c-1.2,1.2-1.7,2.6-1.7,4.3v57.2c0,1.7,0.6,3.2,1.7,4.3c1.2,1.2,2.6,1.7,4.3,1.7h24.7c6.2,0,11.5-1.5,16-4.7
		c4.5-3.1,6.7-8.6,6.7-16.4c0-4.5-1.1-8.2-3.3-11C61.9,47.9,59,45.8,55.5,44.4z M26.8,25.2h16.3c2.4,0,4.3,0.7,5.7,2
		c1.4,1.4,2,3.4,2,6.1c0,2.2-0.7,4-2.2,5.3s-3.2,2-5.2,2H26.8V25.2z M51.9,69c-1.7,1.7-4.2,2.5-7.3,2.5H26.8V52.4h17.1
		c3,0,5.5,0.6,7.5,1.8c2,1.2,3.1,3.7,3.1,7.6C54.5,64.9,53.7,67.3,51.9,69z"/>
	<path d="M116.1,17c-4-3-8.8-4.5-14.3-4.5S91.5,14,87.5,17s-7,7.1-9.1,12.5c-2,5.4-3.1,11.6-3.1,18.7s1,13.3,3.1,18.7
		c2,5.4,5.1,9.6,9.1,12.5c4,3,8.8,4.5,14.3,4.5s10.3-1.5,14.3-4.5s7-7.1,9.1-12.5c2-5.4,3.1-11.6,3.1-18.7s-1-13.3-3.1-18.7
		C123.1,24.1,120,19.9,116.1,17z M111.7,65.9c-2.4,4-5.7,6-9.9,6s-7.5-2-10-6c-2.4-4-3.6-9.9-3.6-17.7c0-7.8,1.2-13.7,3.6-17.7
		c2.4-4,5.7-6,10-6c4.2,0,7.5,2,9.9,6s3.6,9.9,3.6,17.7C115.3,55.9,114.1,61.9,111.7,65.9z"/>
	<path d="M182.6,15.1c-1.3-1.1-2.8-1.6-4.5-1.6h-34.5c-1.6,0-2.9,0.5-4,1.5s-1.6,2.3-1.6,3.8c0,1.6,0.5,2.9,1.6,4s2.4,1.6,4,1.6
		h26.3l-23.1,50.5c-0.4,0.9-0.6,1.7-0.6,2.7c0,1.6,0.6,2.9,1.8,4.1c1.2,1.1,2.7,1.7,4.3,1.7c1.2,0,2.3-0.3,3.3-1s1.7-1.6,2.2-2.8
		l26-57.5c0.4-0.9,0.6-1.8,0.6-2.7C184.5,17.6,183.9,16.2,182.6,15.1z"/>
	<path d="M244.4,46.6h-17.2c-1.7,0-3.2,0.6-4.3,1.7c-1.2,1.1-1.7,2.5-1.7,4.2s0.6,3.1,1.7,4.3c1.2,1.1,2.6,1.7,4.3,1.7h17.2
		c1.7,0,3.2-0.5,4.3-1.6c1.2-1.1,1.7-2.5,1.7-4.1c0-1.7-0.6-3.2-1.7-4.3C247.6,47.2,246.1,46.6,244.4,46.6z"/>
	<path d="M332.1,44.4c2.6-1.3,4.7-3.1,6.1-5.4c1.4-2.3,2.1-4.9,2.1-7.9c0-11.7-6.3-17.6-18.8-17.6h-24.9c-1.7,0-3.2,0.6-4.3,1.7
		c-1.2,1.2-1.7,2.6-1.7,4.3v57.2c0,1.7,0.6,3.2,1.7,4.3c1.2,1.2,2.6,1.7,4.3,1.7h24.7c6.2,0,11.5-1.5,16-4.7
		c4.5-3.1,6.7-8.6,6.7-16.4c0-4.5-1.1-8.2-3.3-11C338.5,47.9,335.6,45.8,332.1,44.4z M303.4,25.2h16.3c2.4,0,4.3,0.7,5.7,2
		c1.4,1.4,2,3.4,2,6.1c0,2.2-0.7,4-2.2,5.3s-3.2,2-5.2,2h-16.6V25.2z M328.5,69c-1.8,1.7-4.2,2.5-7.3,2.5h-17.8V52.4h17.1
		c3,0,5.5,0.6,7.5,1.8c2,1.2,3.1,3.7,3.1,7.6C331.1,64.9,330.3,67.3,328.5,69z"/>
	<path d="M397.3,28.9c-1.7,0-3.1,0.6-4.3,1.7c-1.1,1.2-1.7,2.6-1.7,4.3V35c-1.9-1.8-4.3-3.2-7-4.4c-2.8-1.2-5.7-1.7-8.9-1.7
		c-4.4,0-8.5,1.2-12.1,3.5c-3.7,2.3-6.6,5.6-8.7,9.8c-2.1,4.2-3.2,8.9-3.2,14.2c0,5.3,1.1,10,3.2,14.2c2.1,4.2,5.1,7.4,8.8,9.8
		c3.7,2.3,7.8,3.5,12.4,3.5c3.1,0,6.1-0.7,8.9-2c2.8-1.4,5-3,6.7-4.9c0.1,1.7,0.6,3.1,1.7,4.3c1.1,1.1,2.5,1.7,4.2,1.7
		s3.1-0.6,4.3-1.7c1.1-1.2,1.7-2.6,1.7-4.3V34.9c0-1.8-0.6-3.2-1.7-4.4C400.4,29.4,399,28.9,397.3,28.9z M387.8,68.2
		c-2.7,3.1-6.2,4.7-10.5,4.7s-7.8-1.6-10.4-4.7c-2.7-3.1-4-7.1-4-11.8s1.4-8.7,4.1-11.9c2.7-3.2,6.2-4.8,10.4-4.8
		c4.3,0,7.8,1.6,10.5,4.8c2.7,3.2,4.1,7.1,4.1,11.9S390.5,65.1,387.8,68.2z"/>
	<path d="M455.9,32.4c-3.7-2.3-7.8-3.5-12.4-3.5c-3.1,0-6.1,0.7-8.9,2.2c-2.8,1.5-5,3.2-6.6,5.2V15.6c0-1.7-0.6-3.2-1.7-4.3
		c-1.1-1.2-2.5-1.7-4.3-1.7c-1.7,0-3.1,0.6-4.3,1.7c-1.1,1.2-1.7,2.6-1.7,4.3v62.2c0,1.8,0.6,3.2,1.7,4.4c1.1,1.1,2.5,1.7,4.3,1.7
		c1.7,0,3.1-0.6,4.3-1.7c1.1-1.2,1.7-2.6,1.7-4.3v-0.6c1.8,1.8,4.2,3.4,7,4.7c2.8,1.3,5.8,1.9,9,1.9c4.4,0,8.5-1.2,12.1-3.5
		c3.7-2.3,6.5-5.6,8.7-9.8c2.1-4.2,3.2-8.9,3.2-14.2c0-5.3-1.1-10-3.2-14.2C462.5,38,459.6,34.7,455.9,32.4z M452.4,68.2
		c-2.7,3.2-6.2,4.8-10.4,4.8c-4.3,0-7.8-1.6-10.5-4.8c-2.7-3.2-4.1-7.1-4.1-11.9s1.4-8.7,4.1-11.8c2.7-3.1,6.2-4.7,10.5-4.7
		s7.8,1.6,10.4,4.7c2.7,3.1,4,7.1,4,11.8C456.5,61,455.1,65,452.4,68.2z"/>
	<path d="M517.1,29.8c-1.7,0-3.1,0.6-4.3,1.7c-1.1,1.2-1.7,2.6-1.7,4.3v25.3c0,3.8-0.9,6.7-2.8,8.7s-4.5,3-8,3s-6.2-0.9-8-2.7
		c-1.8-1.8-2.7-4.8-2.7-9V35.9c0-1.7-0.6-3.2-1.7-4.3c-1.1-1.2-2.5-1.7-4.3-1.7c-1.7,0-3.1,0.6-4.3,1.7c-1.1,1.2-1.7,2.6-1.7,4.3
		v28.9c0,3.7,0.7,7,2.2,9.9s3.5,5.1,6.1,6.7s5.7,2.4,9.1,2.4c7.3,0,12.6-2.1,16-6.4v1c0,4.9-1.1,8.3-3.3,10.3c-2.2,2-5.7,3-10.3,3
		c-1.4,0-2.7-0.1-4-0.4s-2.5-0.7-3.7-1.1c-1.2-0.5-2-0.8-2.4-1c-0.6-0.2-1.2-0.3-1.9-0.3c-1.1,0-2.2,0.4-3.1,1.1
		c-1,0.8-1.6,1.9-2,3.3c-0.2,0.6-0.3,1.1-0.3,1.6c0,2.4,1.6,4.4,4.9,5.7c1.5,0.6,3.3,1.1,5.7,1.4c2.3,0.4,4.6,0.5,6.9,0.5
		c7.7,0,13.9-2,18.5-5.9c4.6-3.9,6.9-10.2,6.9-18.8V35.9c0-1.7-0.6-3.2-1.7-4.3C520.2,30.4,518.8,29.8,517.1,29.8z"/>
	<path d="M606.2,44.4c2.6-1.3,4.7-3.1,6.1-5.4s2.1-4.9,2.1-7.9c0-11.7-6.3-17.6-18.8-17.6h-24.9c-1.7,0-3.2,0.6-4.3,1.7
		c-1.2,1.2-1.7,2.6-1.7,4.3v57.2c0,1.7,0.6,3.2,1.7,4.3c1.2,1.2,2.6,1.7,4.3,1.7h24.7c6.2,0,11.5-1.5,16-4.7
		c4.5-3.1,6.7-8.6,6.7-16.4c0-4.5-1.1-8.2-3.3-11C612.5,47.9,609.6,45.8,606.2,44.4z M577.4,25.2h16.3c2.4,0,4.3,0.7,5.7,2
		c1.4,1.4,2,3.4,2,6.1c0,2.2-0.7,4-2.2,5.3s-3.2,2-5.2,2h-16.6L577.4,25.2L577.4,25.2z M602.5,69c-1.8,1.7-4.2,2.5-7.3,2.5h-17.8
		V52.4h17.1c3,0,5.5,0.6,7.5,1.8c2,1.2,3.1,3.7,3.1,7.6C605.2,64.9,604.3,67.3,602.5,69z"/>
	<path d="M635.2,9.6c-1.7,0-3.2,0.6-4.3,1.7c-1.2,1.2-1.7,2.6-1.7,4.3v61.2c0,1.7,0.6,3.2,1.7,4.3c1.1,1.2,2.5,1.7,4.2,1.7
		s3.2-0.6,4.3-1.7c1.2-1.2,1.7-2.6,1.7-4.3V15.6c0-1.7-0.6-3.2-1.7-4.3C638.2,10.1,636.8,9.6,635.2,9.6z"/>
	<path d="M693.7,29.8c-1.7,0-3.1,0.6-4.3,1.7c-1.1,1.2-1.7,2.6-1.7,4.3v25.1c0,4-0.9,7-2.7,9c-1.8,1.9-4.5,2.9-8.1,2.9s-6.2-1-8-2.9
		s-2.7-4.9-2.7-9v-25c0-1.7-0.6-3.2-1.7-4.3c-1.1-1.2-2.5-1.7-4.3-1.7c-1.7,0-3.1,0.6-4.3,1.7c-1.1,1.2-1.7,2.6-1.7,4.3V61
		c0,7.1,1.9,12.7,5.8,16.7s9.5,6,16.7,6c7.3,0,12.9-2,16.8-6s5.9-9.6,5.9-16.7V35.9c0-1.7-0.6-3.2-1.7-4.3
		C696.8,30.4,695.4,29.8,693.7,29.8z"/>
	<path d="M758.1,59c1.2-1,1.8-2.3,1.9-3.9c0-4.7-1.2-9-3.5-13.1c-2.3-4-5.4-7.2-9.3-9.6s-8-3.6-12.3-3.6c-4.4,0-8.6,1.1-12.5,3.4
		s-7,5.6-9.4,9.9s-3.6,9.3-3.6,14.9c0,5.1,1.1,9.7,3.4,13.7c2.2,4.1,5.4,7.2,9.6,9.6c4.1,2.3,9,3.5,14.5,3.5c3.2,0,6.3-0.5,9.4-1.6
		s5.6-2.3,7.4-3.9c1.8-1.5,2.8-3.1,2.8-4.9c0-1.3-0.5-2.5-1.5-3.5s-2.2-1.5-3.6-1.5c-1.1,0-2.2,0.3-3.4,0.9
		c-0.3,0.2-0.9,0.6-1.8,1.1c-0.9,0.6-2.1,1.1-3.6,1.6s-3.6,0.7-6.3,0.7c-3.6,0-6.8-1.1-9.6-3.3c-2.8-2.2-4.7-5.3-5.4-9.2H754
		C755.5,60.4,756.9,59.9,758.1,59z M747.3,50.5h-25.9c1.4-7.2,5.9-10.8,13.6-10.8c3.1,0,5.9,1,8.3,3s3.8,4.4,4.1,7.1L747.3,50.5
		L747.3,50.5z"/>
</g>
</svg>
