<?xml version="1.0" encoding="utf-8"?>
<!-- Generator: Adobe Illustrator 27.9.0, SVG Export Plug-In . SVG Version: 6.00 Build 0)  -->
<svg version="1.1" id="Layer_1" xmlns="http://www.w3.org/2000/svg" xmlns:xlink="http://www.w3.org/1999/xlink" x="0px" y="0px"
	 viewBox="0 0 571.7 89.5" style="enable-background:new 0 0 571.7 89.5;" xml:space="preserve">
<g>
	<path d="M65.6,14.3c-4.5-3.1-9.8-4.6-16-4.6H26c-1.7,0-3.2,0.6-4.3,1.7C20.5,12.6,20,14,20,15.7v23h-1.8c-1.7,0-3.2,0.5-4.3,1.5
		c-1.2,1-1.7,2.3-1.7,3.8c0,1.7,0.6,3,1.7,4c1.2,1,2.6,1.5,4.3,1.5H20v23.4c0,1.7,0.6,3.2,1.7,4.3c1.2,1.2,2.6,1.7,4.3,1.7h23.7
		c6.2,0,11.5-1.5,16-4.6s7.9-7.2,10.2-12.5c2.3-5.2,3.5-11.1,3.5-17.6s-1.2-12.3-3.5-17.6C73.5,21.6,70.1,17.4,65.6,14.3z M62,61.1
		c-3,4.4-7.4,6.6-13.4,6.6H32.3v-18h3.1c1.7,0,3.2-0.5,4.3-1.5c1.2-1,1.7-2.4,1.7-4c0-1.5-0.6-2.8-1.7-3.8c-1.2-1-2.6-1.5-4.3-1.5
		h-3.1V21.3h16.3c5.9,0,10.3,2.2,13.3,6.6c3,4.4,4.5,9.9,4.5,16.7S65,56.7,62,61.1z"/>
	<path d="M124.5,28.6c-3.9-2.4-8-3.6-12.3-3.6c-4.4,0-8.6,1.1-12.5,3.4s-7,5.6-9.4,9.9s-3.6,9.3-3.6,14.9c0,5.1,1.1,9.7,3.4,13.7
		c2.2,4.1,5.4,7.2,9.6,9.6c4.1,2.3,9,3.5,14.5,3.5c3.2,0,6.3-0.5,9.4-1.6c3.1-1.1,5.6-2.3,7.4-3.9c1.8-1.5,2.8-3.1,2.8-4.9
		c0-1.3-0.5-2.5-1.5-3.5s-2.2-1.5-3.6-1.5c-1.1,0-2.2,0.3-3.4,0.9c-0.3,0.2-0.9,0.6-1.8,1.1c-0.9,0.6-2.1,1.1-3.6,1.6
		s-3.6,0.7-6.3,0.7c-3.6,0-6.8-1.1-9.6-3.3c-2.8-2.2-4.7-5.3-5.4-9.2h32.7c1.6,0,3-0.5,4.2-1.5s1.8-2.3,1.9-3.9
		c0-4.7-1.2-9-3.5-13.1C131.5,34.2,128.4,31,124.5,28.6z M124.6,46.7H98.7c1.4-7.2,5.9-10.8,13.6-10.8c3.1,0,5.9,1,8.3,3
		c2.4,2,3.8,4.4,4.1,7.1L124.6,46.7L124.6,46.7z"/>
	<path d="M175.5,25.1c-3.4,0-6.6,0.9-9.5,2.6s-5.2,3.8-7,6.1v-1.7c0-1.7-0.6-3.2-1.7-4.3c-1.1-1.2-2.5-1.7-4.3-1.7
		c-1.7,0-3.1,0.6-4.3,1.7c-1.1,1.2-1.7,2.6-1.7,4.3V73c0,1.7,0.6,3.2,1.7,4.3c1.1,1.2,2.5,1.7,4.3,1.7c1.7,0,3.1-0.6,4.3-1.7
		c1.1-1.2,1.7-2.6,1.7-4.3V47.7c0-3.4,1.1-6.2,3.3-8.4c2.2-2.2,5.2-3.3,9-3.3c3.7,0,6.3,1,7.8,3.1s2.3,4.9,2.3,8.6V73
		c0,1.7,0.6,3.2,1.7,4.3c1.1,1.2,2.5,1.7,4.3,1.7c1.7,0,3.1-0.6,4.3-1.7c1.1-1.2,1.7-2.6,1.7-4.3V47.7c0-7.1-1.3-12.6-3.9-16.6
		C186.8,27.1,182.2,25.1,175.5,25.1z"/>
	<path d="M255.7,42.8h-17.2c-1.7,0-3.2,0.6-4.3,1.7c-1.2,1.1-1.7,2.5-1.7,4.2s0.6,3.1,1.7,4.3c1.2,1.1,2.6,1.7,4.3,1.7h17.2
		c1.7,0,3.2-0.5,4.3-1.6c1.2-1.1,1.7-2.5,1.7-4.1c0-1.7-0.6-3.2-1.7-4.3C258.8,43.4,257.4,42.8,255.7,42.8z"/>
	<path d="M343.4,40.6c2.6-1.3,4.7-3.1,6.1-5.4c1.4-2.3,2.1-4.9,2.1-7.9c0-11.7-6.3-17.6-18.8-17.6h-24.9c-1.7,0-3.2,0.6-4.3,1.7
		c-1.2,1.2-1.7,2.6-1.7,4.3v57.2c0,1.7,0.6,3.2,1.7,4.3c1.2,1.2,2.6,1.7,4.3,1.7h24.7c6.2,0,11.5-1.5,16-4.7
		c4.5-3.1,6.7-8.6,6.7-16.4c0-4.5-1.1-8.2-3.3-11C349.7,44.1,346.9,42,343.4,40.6z M314.7,21.4H331c2.4,0,4.3,0.7,5.7,2
		c1.4,1.4,2,3.4,2,6.1c0,2.2-0.7,4-2.2,5.3s-3.2,2-5.2,2h-16.6V21.4z M339.8,65.2c-1.8,1.7-4.2,2.5-7.3,2.5h-17.8V48.6h17.1
		c3,0,5.5,0.6,7.5,1.8c2,1.2,3.1,3.7,3.1,7.6C342.4,61.1,341.5,63.5,339.8,65.2z"/>
	<path d="M372.4,5.8c-1.7,0-3.2,0.6-4.3,1.7c-1.2,1.2-1.7,2.6-1.7,4.3V73c0,1.7,0.6,3.2,1.7,4.3c1.1,1.2,2.5,1.7,4.2,1.7
		s3.2-0.6,4.3-1.7c1.2-1.2,1.7-2.6,1.7-4.3V11.8c0-1.7-0.6-3.2-1.7-4.3C375.4,6.3,374,5.8,372.4,5.8z"/>
	<path d="M434.9,25.1c-1.7,0-3.1,0.6-4.3,1.7c-1.1,1.2-1.7,2.6-1.7,4.3v0.1c-1.9-1.8-4.3-3.2-7-4.4c-2.8-1.2-5.7-1.7-8.9-1.7
		c-4.4,0-8.5,1.2-12.1,3.5c-3.7,2.3-6.6,5.6-8.7,9.8c-2.1,4.2-3.2,8.9-3.2,14.2c0,5.3,1.1,10,3.2,14.2c2.1,4.2,5.1,7.4,8.8,9.8
		c3.7,2.3,7.8,3.5,12.4,3.5c3.1,0,6.1-0.7,8.9-2c2.8-1.4,5-3,6.7-4.9c0.1,1.7,0.6,3.1,1.7,4.3c1.1,1.1,2.5,1.7,4.2,1.7
		s3.1-0.6,4.3-1.7c1.1-1.2,1.7-2.6,1.7-4.3V31.3c0-1.8-0.6-3.2-1.7-4.4C438.1,25.6,436.7,25.1,434.9,25.1z M425.4,64.4
		c-2.7,3.1-6.2,4.7-10.5,4.7s-7.8-1.6-10.4-4.7c-2.7-3.1-4-7.1-4-11.8s1.4-8.7,4.1-11.9c2.7-3.2,6.2-4.8,10.4-4.8
		c4.3,0,7.8,1.6,10.5,4.8c2.7,3.2,4.1,7.1,4.1,11.9S428.1,61.3,425.4,64.4z"/>
	<path d="M490.8,65.4c-0.9,0-1.6,0.1-2.2,0.4s-1.2,0.6-1.9,1.1c-0.7,0.5-1.2,0.8-1.6,1c-1.6,0.8-4,1.2-7.2,1.2
		c-4.4,0-8.1-1.6-10.9-4.7c-2.8-3.1-4.3-7.1-4.3-11.8c0-4.9,1.4-9,4.2-12c2.8-3.1,6.7-4.6,11.6-4.6c0.8,0,1.8,0.1,3.1,0.4
		c1.3,0.3,2.3,0.6,2.9,0.9s1.2,0.7,1.8,1.2c0.6,0.5,1.3,0.9,1.9,1.2c0.7,0.3,1.5,0.4,2.6,0.4c1.4,0,2.5-0.5,3.4-1.6s1.3-2.4,1.3-3.8
		c0-2.9-1.7-5.2-5.1-7c-3.4-1.7-8-2.6-13.6-2.6c-5,0-9.5,1.2-13.5,3.5s-7,5.6-9.3,9.8c-2.2,4.2-3.3,8.9-3.3,14.3
		c0,5.1,1.1,9.8,3.2,14s5.1,7.5,9,9.9s8.3,3.6,13.4,3.6c3.4,0,6.7-0.4,9.7-1.2c3-0.8,5.5-1.9,7.3-3.3s2.8-2.9,2.8-4.5
		s-0.5-3-1.4-4.1C493.7,65.9,492.4,65.4,490.8,65.4z"/>
	<path d="M548.8,68.6l-17.3-18.8L546.4,36c1.6-1.4,2.4-2.9,2.4-4.5c0-1.3-0.6-2.5-1.7-3.7c-1.2-1.2-2.5-1.8-3.9-1.8
		c-1.7,0-3.1,0.6-4.4,1.9l-21.2,20.5V11.8c0-1.7-0.6-3.2-1.7-4.3c-1.1-1.2-2.5-1.7-4.3-1.7c-1.7,0-3.1,0.6-4.3,1.7
		c-1.1,1.2-1.7,2.6-1.7,4.3V73c0,1.7,0.6,3.2,1.7,4.3c1.1,1.2,2.5,1.7,4.3,1.7c1.7,0,3.1-0.6,4.3-1.7c1.1-1.2,1.7-2.6,1.7-4.3V62.6
		l4.9-4.5l17.8,18.8c1.2,1.3,2.6,2,4.4,2c1.5,0,2.8-0.6,4.1-1.7c1.3-1.1,1.9-2.5,1.9-4.2C550.7,71.4,550,69.9,548.8,68.6z"/>
</g>
</svg>
