<?xml version="1.0" encoding="utf-8"?>
<!-- Generator: Adobe Illustrator 27.9.0, SVG Export Plug-In . SVG Version: 6.00 Build 0)  -->
<svg version="1.1" id="Layer_1" xmlns="http://www.w3.org/2000/svg" xmlns:xlink="http://www.w3.org/1999/xlink" x="0px" y="0px"
	 viewBox="0 0 486.8 87.5" style="enable-background:new 0 0 486.8 87.5;" xml:space="preserve">
<g>
	<path d="M53.9,41.2c2.6-1.3,4.7-3.1,6.1-5.4c1.4-2.3,2.1-4.9,2.1-7.9c0-11.7-6.3-17.6-18.8-17.6H18.4c-1.7,0-3.2,0.6-4.3,1.7
		c-1.2,1.2-1.7,2.6-1.7,4.3v57.2c0,1.7,0.6,3.2,1.7,4.3c1.2,1.2,2.6,1.7,4.3,1.7h24.7c6.2,0,11.5-1.5,16-4.7
		c4.5-3.1,6.7-8.6,6.7-16.4c0-4.5-1.1-8.2-3.3-11C60.3,44.7,57.4,42.6,53.9,41.2z M25.2,22h16.3c2.4,0,4.3,0.7,5.7,2
		c1.4,1.4,2,3.4,2,6.1c0,2.2-0.7,4-2.2,5.3s-3.2,2-5.2,2H25.2V22z M50.3,65.7c-1.7,1.7-4.2,2.5-7.3,2.5H25.2V49.1h17.1
		c3,0,5.5,0.6,7.5,1.8c2,1.2,3.1,3.7,3.1,7.6C52.9,61.7,52,64.1,50.3,65.7z"/>
	<path d="M108.7,37.8c-3.3-2.1-6.7-3.1-10.1-3.1c-4.2,0-8,1.4-11.3,4.3c1.6-4.2,4.2-7.9,7.8-10.9c3.5-3,7.4-5.1,11.5-6.3
		c1.6-0.5,2.9-1.2,3.8-2.3c1-1.1,1.4-2.4,1.4-3.8c0-1.9-0.6-3.3-1.7-4.2c-1.1-0.9-2.5-1.3-4.3-1.3c-0.7,0-1.5,0.1-2.3,0.3
		c-7.7,2.2-13.7,5.8-18.2,11s-7.5,10.6-9.2,16.4S73.6,49,73.6,53.8c0,4.7,1,9.1,2.9,13.2s4.7,7.5,8.2,10c3.6,2.5,7.6,3.8,12.2,3.8
		c4.2,0,8.1-1,11.6-3.1c3.5-2,6.3-4.8,8.4-8.4c2.1-3.5,3.1-7.4,3.1-11.5s-1.1-7.9-3.2-11.4C114.8,42.7,112,39.9,108.7,37.8z
		 M104.9,66.2c-2.2,2.3-4.8,3.5-7.9,3.5c-3.2,0-5.8-1.2-8-3.5c-2.1-2.3-3.2-5.2-3.2-8.6s1.1-6.3,3.2-8.6c2.1-2.3,4.8-3.5,8-3.5
		c3.1,0,5.7,1.2,7.9,3.5s3.3,5.2,3.3,8.6C108.2,61.1,107.1,63.9,104.9,66.2z"/>
	<path d="M163,37.8c-3.3-2.1-6.7-3.1-10.1-3.1c-4.2,0-8,1.4-11.3,4.3c1.6-4.2,4.2-7.9,7.8-10.9c3.5-3,7.4-5.1,11.5-6.3
		c1.6-0.5,2.9-1.2,3.8-2.3c1-1.1,1.4-2.4,1.4-3.8c0-1.9-0.6-3.3-1.7-4.2c-1.1-0.9-2.5-1.3-4.3-1.3c-0.7,0-1.5,0.1-2.3,0.3
		c-7.7,2.2-13.7,5.8-18.2,11s-7.5,10.6-9.2,16.4s-2.5,11.1-2.5,15.9c0,4.7,1,9.1,2.9,13.2s4.7,7.5,8.2,10c3.6,2.5,7.6,3.8,12.2,3.8
		c4.2,0,8.1-1,11.6-3.1c3.5-2,6.3-4.8,8.4-8.4c2.1-3.5,3.1-7.4,3.1-11.5s-1.1-7.9-3.2-11.4C169,42.7,166.3,39.9,163,37.8z
		 M159.2,66.2c-2.2,2.3-4.8,3.5-7.9,3.5c-3.2,0-5.8-1.2-8-3.5c-2.1-2.3-3.2-5.2-3.2-8.6s1.1-6.3,3.2-8.6c2.1-2.3,4.8-3.5,8-3.5
		c3.1,0,5.7,1.2,7.9,3.5s3.3,5.2,3.3,8.6C162.4,61.1,161.3,63.9,159.2,66.2z"/>
	<path d="M234.2,43.4H217c-1.7,0-3.2,0.6-4.3,1.7c-1.2,1.1-1.7,2.5-1.7,4.2s0.6,3.1,1.7,4.3c1.2,1.1,2.6,1.7,4.3,1.7h17.2
		c1.7,0,3.2-0.5,4.3-1.6c1.2-1.1,1.7-2.5,1.7-4.1c0-1.7-0.6-3.2-1.7-4.3C237.3,43.9,235.9,43.4,234.2,43.4z"/>
	<path d="M321.9,41.2c2.6-1.3,4.7-3.1,6.1-5.4c1.4-2.3,2.1-4.9,2.1-7.9c0-11.7-6.3-17.6-18.8-17.6h-24.9c-1.7,0-3.2,0.6-4.3,1.7
		c-1.2,1.2-1.7,2.6-1.7,4.3v57.2c0,1.7,0.6,3.2,1.7,4.3c1.2,1.2,2.6,1.7,4.3,1.7h24.7c6.2,0,11.5-1.5,16-4.7
		c4.5-3.1,6.7-8.6,6.7-16.4c0-4.5-1.1-8.2-3.3-11C328.3,44.7,325.4,42.6,321.9,41.2z M293.2,22h16.3c2.4,0,4.3,0.7,5.7,2
		c1.4,1.4,2,3.4,2,6.1c0,2.2-0.7,4-2.2,5.3s-3.2,2-5.2,2h-16.6V22z M318.3,65.7c-1.8,1.7-4.2,2.5-7.3,2.5h-17.8V49.1h17.1
		c3,0,5.5,0.6,7.5,1.8c2,1.2,3.1,3.7,3.1,7.6C320.9,61.7,320,64.1,318.3,65.7z"/>
	<path d="M350.9,6.3c-1.7,0-3.2,0.6-4.3,1.7c-1.2,1.2-1.7,2.6-1.7,4.3v61.2c0,1.7,0.6,3.2,1.7,4.3c1.1,1.2,2.5,1.7,4.2,1.7
		s3.2-0.6,4.3-1.7c1.2-1.2,1.7-2.6,1.7-4.3V12.3c0-1.7-0.6-3.2-1.7-4.3C353.9,6.9,352.6,6.3,350.9,6.3z"/>
	<path d="M409.4,26.6c-1.7,0-3.1,0.6-4.3,1.7c-1.1,1.2-1.7,2.6-1.7,4.3v25.1c0,4-0.9,7-2.7,9c-1.8,1.9-4.5,2.9-8.1,2.9s-6.2-1-8-2.9
		s-2.7-4.9-2.7-9V32.6c0-1.7-0.6-3.2-1.7-4.3c-1.1-1.2-2.5-1.7-4.3-1.7c-1.7,0-3.1,0.6-4.3,1.7c-1.1,1.2-1.7,2.6-1.7,4.3v25.1
		c0,7.1,1.9,12.7,5.8,16.7c3.9,4,9.5,6,16.7,6c7.3,0,12.9-2,16.8-6s5.9-9.6,5.9-16.7V32.6c0-1.7-0.6-3.2-1.7-4.3
		C412.6,27.2,411.1,26.6,409.4,26.6z"/>
	<path d="M473.9,55.7c1.2-1,1.8-2.3,1.9-3.9c0-4.7-1.2-9-3.5-13.1c-2.3-4-5.4-7.2-9.3-9.6s-8-3.6-12.3-3.6c-4.4,0-8.6,1.1-12.5,3.4
		s-7,5.6-9.4,9.9s-3.6,9.3-3.6,14.9c0,5.1,1.1,9.7,3.4,13.7c2.2,4.1,5.4,7.2,9.6,9.6c4.1,2.3,9,3.5,14.5,3.5c3.2,0,6.3-0.5,9.4-1.6
		s5.6-2.3,7.4-3.9c1.8-1.5,2.8-3.1,2.8-4.9c0-1.3-0.5-2.5-1.5-3.5s-2.2-1.5-3.6-1.5c-1.1,0-2.2,0.3-3.4,0.9
		c-0.3,0.2-0.9,0.6-1.8,1.1c-0.9,0.6-2.1,1.1-3.6,1.6s-3.6,0.7-6.3,0.7c-3.6,0-6.8-1.1-9.6-3.3c-2.8-2.2-4.7-5.3-5.4-9.2h32.7
		C471.3,57.2,472.7,56.7,473.9,55.7z M463.1,47.3h-25.9c1.4-7.2,5.9-10.8,13.6-10.8c3.1,0,5.9,1,8.3,3s3.8,4.4,4.1,7.1L463.1,47.3
		L463.1,47.3z"/>
</g>
</svg>
