<?xml version="1.0" encoding="utf-8"?>
<!-- Generator: Adobe Illustrator 27.9.0, SVG Export Plug-In . SVG Version: 6.00 Build 0)  -->
<svg version="1.1" id="Layer_1" xmlns="http://www.w3.org/2000/svg" xmlns:xlink="http://www.w3.org/1999/xlink" x="0px" y="0px"
	 viewBox="0 0 503.9 85.8" style="enable-background:new 0 0 503.9 85.8;" xml:space="preserve">
<g>
	<path d="M30,6.5c-1.7,0-3.1,0.3-4.3,0.9l-14.9,8.9c-0.9,0.5-1.7,1.3-2.2,2.2c-0.6,0.9-0.8,1.9-0.8,3c0,1.5,0.6,2.9,1.7,4.2
		c1.2,1.3,2.6,1.9,4.2,1.9c1.1,0,2.2-0.3,3.2-0.9l6.1-3.8v46.9c0,1.7,0.6,3.2,1.8,4.3c1.2,1.2,2.7,1.7,4.6,1.7
		c1.8,0,3.4-0.6,4.7-1.7c1.3-1.2,1.9-2.6,1.9-4.3V12.6c0-1.7-0.6-3.2-1.7-4.3C33,7.1,31.7,6.5,30,6.5z"/>
	<path d="M88,10c-4-3-8.8-4.5-14.3-4.5S63.4,7,59.4,10s-7,7.1-9.1,12.5c-2,5.4-3.1,11.6-3.1,18.7s1,13.3,3.1,18.7
		c2,5.4,5.1,9.6,9.1,12.5c4,3,8.8,4.5,14.3,4.5S84,75.4,88,72.4s7-7.1,9.1-12.5c2-5.4,3.1-11.6,3.1-18.7s-1-13.3-3.1-18.7
		C95,17.1,92,12.9,88,10z M83.6,58.9c-2.4,4-5.7,6-9.9,6s-7.5-2-9.9-6c-2.4-4-3.6-9.9-3.6-17.7c0-7.8,1.2-13.7,3.6-17.7
		c2.4-4,5.7-6,9.9-6s7.5,2,9.9,6s3.6,9.9,3.6,17.7C87.2,48.9,86,54.8,83.6,58.9z"/>
	<path d="M160,39.6h-17.2c-1.7,0-3.2,0.6-4.3,1.7c-1.2,1.1-1.7,2.5-1.7,4.2s0.6,3.1,1.7,4.3c1.2,1.1,2.6,1.7,4.3,1.7H160
		c1.7,0,3.2-0.5,4.3-1.6c1.2-1.1,1.7-2.5,1.7-4.1c0-1.7-0.6-3.2-1.7-4.3C163.1,40.1,161.7,39.6,160,39.6z"/>
	<path d="M247.7,37.4c2.6-1.3,4.7-3.1,6.1-5.4c1.4-2.3,2.1-4.9,2.1-7.9c0-11.7-6.3-17.6-18.8-17.6h-24.9c-1.7,0-3.2,0.6-4.3,1.7
		c-1.2,1.2-1.7,2.6-1.7,4.3v57.2c0,1.7,0.6,3.2,1.7,4.3c1.2,1.2,2.6,1.7,4.3,1.7h24.7c6.2,0,11.5-1.5,16-4.7
		c4.5-3.1,6.7-8.6,6.7-16.4c0-4.5-1.1-8.2-3.3-11C254.1,40.9,251.2,38.8,247.7,37.4z M219,18.2h16.3c2.4,0,4.3,0.7,5.7,2
		c1.4,1.4,2,3.4,2,6.1c0,2.2-0.7,4-2.2,5.3c-1.5,1.3-3.2,2-5.2,2H219V18.2z M244.1,61.9c-1.8,1.7-4.2,2.5-7.3,2.5H219V45.3h17.1
		c3,0,5.5,0.6,7.5,1.8c2,1.2,3.1,3.7,3.1,7.6C246.7,57.9,245.8,60.3,244.1,61.9z"/>
	<path d="M302.5,23.5c-1.4-1.1-3-1.7-5-1.7c-3.2,0-6.3,0.7-9.1,2.1s-5,3.5-6.5,6.2v-1.3c0-1.7-0.6-3.2-1.7-4.3
		c-1.1-1.2-2.5-1.7-4.3-1.7c-1.7,0-3.1,0.6-4.3,1.7c-1.1,1.2-1.7,2.6-1.7,4.3v40.9c0,1.7,0.6,3.2,1.7,4.3c1.1,1.2,2.5,1.7,4.3,1.7
		c1.7,0,3.1-0.6,4.3-1.7c1.1-1.2,1.7-2.6,1.7-4.3V46.2c0-3,0.5-5.5,1.5-7.7c1-2.1,2.3-3.7,3.9-4.8c1.6-1.1,3.2-1.6,5-1.6
		c0.8,0,1.5,0.1,2.2,0.3s1.1,0.3,1.3,0.4c1.3,0.5,2.4,0.7,3.4,0.7c1.5,0,2.7-0.5,3.8-1.5c1.1-1,1.6-2.6,1.6-4.6
		C304.5,26,303.9,24.6,302.5,23.5z"/>
	<path d="M348.3,25.3c-4.1-2.3-8.7-3.5-13.6-3.5c-5,0-9.6,1.2-13.7,3.5c-4.1,2.3-7.3,5.6-9.7,9.8c-2.4,4.2-3.6,8.9-3.6,14.2
		c0,5.3,1.2,10,3.6,14.2c2.4,4.2,5.6,7.4,9.7,9.8c4.1,2.3,8.6,3.5,13.7,3.5c5,0,9.5-1.2,13.6-3.5s7.4-5.6,9.8-9.8
		c2.4-4.2,3.6-8.9,3.6-14.2c0-5.3-1.2-10-3.6-14.2C355.7,31,352.5,27.7,348.3,25.3z M347.7,58c-1.4,2.5-3.2,4.5-5.4,5.8
		c-2.3,1.4-4.8,2.1-7.6,2.1s-5.3-0.7-7.6-2.1c-2.3-1.4-4.1-3.3-5.4-5.8c-1.4-2.5-2-5.4-2-8.6s0.7-6.1,2-8.7c1.4-2.5,3.2-4.5,5.4-5.9
		c2.3-1.4,4.8-2.1,7.6-2.1s5.3,0.7,7.6,2.1s4.1,3.4,5.4,5.9c1.4,2.5,2,5.4,2,8.7C349.8,52.6,349.1,55.5,347.7,58z"/>
	<path d="M432.5,22.8c-1.5,0-2.7,0.3-3.7,0.9s-1.7,1.6-2.1,2.8L416.1,55l-7.6-20.7c-0.5-1.3-1.2-2.2-1.9-2.8
		c-0.8-0.6-1.8-0.9-3.2-0.9c-2.6,0-4.4,1.2-5.4,3.7l-7.8,21.2l-10.7-29c-0.4-1.3-1.1-2.2-2-2.8c-1-0.6-2.1-0.9-3.4-0.9
		c-1.8,0-3.2,0.6-4.3,1.8c-1.1,1.2-1.6,2.7-1.6,4.3c0,0.8,0.1,1.6,0.4,2.3L383.7,72c0.4,1.2,1.1,2.1,2.1,2.8c1,0.7,2.1,1,3.3,1
		l0.8-0.1c2.2-0.1,3.9-1.4,5-3.8l8-24.4l8.4,24.4c1.1,2.4,2.8,3.6,5,3.8l0.8,0.1c1.2,0,2.3-0.3,3.3-1s1.7-1.6,2.1-2.8l15.1-40.8
		c0.3-0.9,0.4-1.7,0.4-2.3c0-1.8-0.5-3.2-1.6-4.4C435.5,23.4,434.1,22.8,432.5,22.8z"/>
	<path d="M489.9,27.8c-2.6-4-7.2-6-14-6c-3.4,0-6.6,0.9-9.5,2.6s-5.2,3.8-7,6.1v-1.7c0-1.7-0.6-3.2-1.7-4.3
		c-1.1-1.2-2.5-1.7-4.3-1.7c-1.7,0-3.1,0.6-4.3,1.7c-1.1,1.2-1.7,2.6-1.7,4.3v40.9c0,1.7,0.6,3.2,1.7,4.3c1.1,1.2,2.5,1.7,4.3,1.7
		c1.7,0,3.1-0.6,4.3-1.7c1.1-1.2,1.7-2.6,1.7-4.3V44.4c0-3.4,1.1-6.2,3.3-8.4c2.2-2.2,5.2-3.3,9-3.3c3.7,0,6.3,1,7.8,3.1
		s2.3,4.9,2.3,8.6v25.3c0,1.7,0.6,3.2,1.7,4.3c1.1,1.2,2.5,1.7,4.3,1.7c1.7,0,3.1-0.6,4.3-1.7c1.1-1.2,1.7-2.6,1.7-4.3V44.4
		C493.7,37.3,492.4,31.8,489.9,27.8z"/>
</g>
</svg>
