<?xml version="1.0" encoding="utf-8"?>
<!-- Generator: Adobe Illustrator 27.9.0, SVG Export Plug-In . SVG Version: 6.00 Build 0)  -->
<svg version="1.1" id="Layer_1" xmlns="http://www.w3.org/2000/svg" xmlns:xlink="http://www.w3.org/1999/xlink" x="0px" y="0px"
	 viewBox="0 0 704.4 96.6" style="enable-background:new 0 0 704.4 96.6;" xml:space="preserve">
<g>
	<path d="M52.6,19.3c-4-3-8.8-4.5-14.3-4.5S28,16.3,24,19.3s-7,7.1-9.1,12.5c-2,5.4-3.1,11.6-3.1,18.7s1,13.3,3.1,18.7
		c2,5.4,5.1,9.6,9.1,12.5c4,3,8.8,4.5,14.3,4.5s10.3-1.5,14.3-4.5s7-7.1,9.1-12.5c2-5.4,3.1-11.6,3.1-18.7s-1-13.3-3.1-18.7
		C59.6,26.4,56.5,22.3,52.6,19.3z M48.2,68.2c-2.4,4-5.7,6-9.9,6s-7.5-2-9.9-6s-3.6-9.9-3.6-17.7c0-7.8,1.2-13.7,3.6-17.7
		c2.4-4,5.7-6,9.9-6s7.5,2,9.9,6s3.6,9.9,3.6,17.7S50.6,64.2,48.2,68.2z"/>
	<path d="M119.1,17.5c-1.3-1.1-2.8-1.6-4.5-1.6H80.1c-1.6,0-2.9,0.5-4,1.5s-1.6,2.3-1.6,3.8c0,1.6,0.5,2.9,1.6,4s2.4,1.6,4,1.6h26.3
		L83.3,77.3c-0.4,0.9-0.6,1.7-0.6,2.7c0,1.6,0.6,2.9,1.8,4.1c1.2,1.1,2.7,1.7,4.3,1.7c1.2,0,2.3-0.3,3.3-1s1.7-1.6,2.2-2.8l26-57.5
		c0.4-0.9,0.6-1.8,0.6-2.7C121,19.9,120.4,18.5,119.1,17.5z"/>
	<path d="M180.9,48.9h-17.2c-1.7,0-3.2,0.6-4.3,1.7c-1.2,1.1-1.7,2.5-1.7,4.2s0.6,3.1,1.7,4.3c1.2,1.1,2.6,1.7,4.3,1.7h17.2
		c1.7,0,3.2-0.5,4.3-1.6c1.2-1.1,1.7-2.5,1.7-4.1c0-1.7-0.6-3.2-1.7-4.3C184.1,49.5,182.6,48.9,180.9,48.9z"/>
	<path d="M272.9,71.2c-0.9,0-2,0.3-3.2,0.8c-3,1.5-6.5,2.3-10.5,2.3c-6.8,0-12.3-2-16.5-6s-6.3-9.9-6.3-17.7c0-4.6,0.9-8.6,2.8-12.1
		s4.5-6.3,7.9-8.2c3.4-1.9,7.5-2.9,12.1-2.9c3.8,0,7.3,0.8,10.5,2.3c1.1,0.6,2.2,0.9,3.4,0.9c1.6,0,3-0.7,4.1-2.1
		c1-1.3,1.5-2.7,1.5-4.1c0-2.3-1-4-3.1-5c-5-2.6-10.5-3.9-16.3-3.9c-6.8,0-12.9,1.5-18.3,4.5c-5.4,3-9.7,7.2-12.7,12.5
		s-4.6,11.4-4.6,18.1c0,7.6,1.6,14.1,4.9,19.4c3.2,5.3,7.6,9.4,13,12.1s11.4,4.1,17.8,4.1c5.8,0,11.3-1.3,16.4-3.9
		c1-0.5,1.7-1.1,2.3-2c0.5-0.9,0.8-1.8,0.8-2.9c0-1.5-0.5-2.8-1.5-4.1C276,71.9,274.6,71.2,272.9,71.2z"/>
	<path d="M331,31.2c-1.7,0-3.1,0.6-4.3,1.7c-1.1,1.2-1.7,2.6-1.7,4.3v0.1c-1.9-1.8-4.3-3.2-7-4.4c-2.8-1.2-5.7-1.7-8.9-1.7
		c-4.4,0-8.5,1.2-12.1,3.5c-3.7,2.3-6.6,5.6-8.7,9.8c-2.1,4.2-3.2,8.9-3.2,14.2c0,5.3,1.1,10,3.2,14.2c2.1,4.2,5.1,7.4,8.8,9.8
		c3.7,2.3,7.8,3.5,12.4,3.5c3.1,0,6.1-0.7,8.9-2c2.8-1.4,5-3,6.7-4.9c0.1,1.7,0.6,3.1,1.7,4.3c1.1,1.1,2.5,1.7,4.2,1.7
		s3.1-0.6,4.3-1.7c1.1-1.2,1.7-2.6,1.7-4.3V37.4c0-1.8-0.6-3.2-1.7-4.4C334.1,31.7,332.7,31.2,331,31.2z M321.5,70.5
		c-2.7,3.1-6.2,4.7-10.5,4.7s-7.8-1.6-10.4-4.7c-2.7-3.1-4-7.1-4-11.8s1.4-8.7,4.1-11.9c2.7-3.2,6.2-4.8,10.4-4.8
		c4.3,0,7.8,1.6,10.5,4.8c2.7,3.2,4.1,7.1,4.1,11.9S324.2,67.4,321.5,70.5z"/>
	<path d="M378.1,31.2c-3.4,0-6.6,0.9-9.5,2.6s-5.2,3.8-7,6.1v-1.7c0-1.7-0.6-3.2-1.7-4.3c-1.1-1.2-2.5-1.7-4.3-1.7
		c-1.7,0-3.1,0.6-4.3,1.7c-1.1,1.2-1.7,2.6-1.7,4.3v40.9c0,1.7,0.6,3.2,1.7,4.3c1.1,1.2,2.5,1.7,4.3,1.7c1.7,0,3.1-0.6,4.3-1.7
		c1.1-1.2,1.7-2.6,1.7-4.3V53.8c0-3.4,1.1-6.2,3.3-8.4c2.2-2.2,5.2-3.3,9-3.3c3.7,0,6.3,1,7.8,3.1s2.3,4.9,2.3,8.6v25.3
		c0,1.7,0.6,3.2,1.7,4.3c1.1,1.2,2.5,1.7,4.3,1.7c1.7,0,3.1-0.6,4.3-1.7c1.1-1.2,1.7-2.6,1.7-4.3V53.8c0-7.1-1.3-12.6-3.9-16.6
		S384.8,31.2,378.1,31.2z"/>
	<path d="M451.7,11.9c-1.7,0-3.1,0.6-4.3,1.7c-1.1,1.2-1.7,2.6-1.7,4.3v19.4c-1.9-1.8-4.3-3.2-7-4.4c-2.8-1.2-5.7-1.7-8.9-1.7
		c-4.4,0-8.5,1.2-12.1,3.5c-3.7,2.3-6.6,5.6-8.7,9.8c-2.1,4.2-3.2,8.9-3.2,14.2c0,5.3,1.1,10,3.2,14.2c2.1,4.2,5.1,7.4,8.8,9.8
		c3.7,2.3,7.8,3.5,12.4,3.5c3.1,0,6.1-0.7,8.9-2c2.8-1.4,5-3,6.7-4.9c0.1,1.7,0.6,3.1,1.7,4.3c1.1,1.1,2.5,1.7,4.2,1.7
		s3.1-0.6,4.3-1.7c1.1-1.2,1.7-2.6,1.7-4.3V17.9c0-1.8-0.6-3.2-1.7-4.4C454.8,12.4,453.4,11.9,451.7,11.9z M442.2,70.5
		c-2.7,3.1-6.2,4.7-10.5,4.7s-7.8-1.6-10.4-4.7c-2.7-3.1-4-7.1-4-11.8s1.4-8.7,4.1-11.9c2.7-3.2,6.2-4.8,10.4-4.8
		c4.3,0,7.8,1.6,10.5,4.8c2.7,3.2,4.1,7.1,4.1,11.9S444.9,67.4,442.2,70.5z"/>
	<path d="M477.5,11.9c-1.7,0-3.2,0.6-4.3,1.7c-1.2,1.2-1.7,2.6-1.7,4.3v61.2c0,1.7,0.6,3.2,1.7,4.3c1.1,1.2,2.5,1.7,4.2,1.7
		s3.2-0.6,4.3-1.7c1.2-1.2,1.7-2.6,1.7-4.3V17.9c0-1.7-0.6-3.2-1.7-4.3C480.5,12.4,479.2,11.9,477.5,11.9z"/>
	<path d="M531,34.7c-3.9-2.4-8-3.6-12.3-3.6c-4.4,0-8.6,1.1-12.5,3.4s-7,5.6-9.4,9.9s-3.6,9.3-3.6,14.9c0,5.1,1.1,9.7,3.4,13.7
		c2.2,4.1,5.4,7.2,9.6,9.6c4.1,2.3,9,3.5,14.5,3.5c3.2,0,6.3-0.5,9.4-1.6s5.6-2.3,7.4-3.9c1.8-1.5,2.8-3.1,2.8-4.9
		c0-1.3-0.5-2.5-1.5-3.5s-2.2-1.5-3.6-1.5c-1.1,0-2.2,0.3-3.4,0.9c-0.3,0.2-0.9,0.6-1.8,1.1c-0.9,0.6-2.1,1.1-3.6,1.6
		s-3.6,0.7-6.3,0.7c-3.6,0-6.8-1.1-9.6-3.3c-2.8-2.2-4.7-5.3-5.4-9.2h32.7c1.6,0,3-0.5,4.2-1.5s1.8-2.3,1.9-3.9
		c0-4.7-1.2-9-3.5-13.1C538,40.3,534.9,37.1,531,34.7z M531.1,52.8h-25.9c1.4-7.2,5.9-10.8,13.6-10.8c3.1,0,5.9,1,8.3,3
		s3.8,4.4,4.1,7.1L531.1,52.8L531.1,52.8z"/>
	<path d="M560.7,11.9c-1.7,0-3.2,0.6-4.3,1.7c-1.2,1.2-1.7,2.6-1.7,4.3v61.2c0,1.7,0.6,3.2,1.7,4.3c1.1,1.2,2.5,1.7,4.2,1.7
		s3.2-0.6,4.3-1.7c1.2-1.2,1.7-2.6,1.7-4.3V17.9c0-1.7-0.6-3.2-1.7-4.3C563.7,12.4,562.3,11.9,560.7,11.9z"/>
	<path d="M585.6,13.9c-2.2,0-3.8,0.4-4.8,1.1s-1.5,2-1.5,3.9v1.9c0,1.8,0.5,3.1,1.4,3.9c0.9,0.7,2.5,1.1,4.8,1.1s3.9-0.3,4.9-1
		s1.4-2,1.4-3.9V19c0-1.8-0.5-3.1-1.4-3.9C589.5,14.3,587.9,13.9,585.6,13.9z"/>
	<path d="M585.6,32.2c-1.7,0-3.1,0.6-4.3,1.7c-1.1,1.2-1.7,2.6-1.7,4.3v40.9c0,1.7,0.6,3.2,1.7,4.3c1.1,1.2,2.5,1.7,4.3,1.7
		c1.7,0,3.1-0.6,4.3-1.7c1.1-1.2,1.7-2.6,1.7-4.3V38.2c0-1.7-0.6-3.2-1.7-4.3C588.7,32.7,587.3,32.2,585.6,32.2z"/>
	<path d="M627.8,44c1.6,0,2.9-0.5,4-1.5s1.6-2.3,1.6-3.8c0-1.6-0.5-2.9-1.6-4s-2.4-1.6-4-1.6h-7v-6.3c0-1.7-0.6-3.2-1.7-4.3
		c-1.1-1.2-2.5-1.7-4.2-1.7s-3.2,0.6-4.3,1.7c-1.2,1.2-1.7,2.6-1.7,4.3v6.3h-4.6c-1.6,0-2.9,0.5-4,1.5s-1.6,2.3-1.6,3.8
		c0,1.6,0.5,2.9,1.6,4s2.4,1.6,4,1.6h4.6v27.3c0,5.7,1.4,9.4,4.2,11.1c2.8,1.7,6.3,2.6,10.3,2.6c2.4,0,4.6-0.6,6.6-1.8
		c1.9-1.2,2.9-2.7,2.9-4.5c0-1.5-0.4-2.6-1.1-3.5c-0.8-0.9-1.6-1.3-2.5-1.3c-0.7,0-1.5,0.2-2.3,0.5c-0.9,0.3-1.7,0.4-2.2,0.4
		c-1.3,0-2.2-0.3-3-0.9c-0.7-0.6-1.1-1.6-1.1-3V44.1L627.8,44L627.8,44z"/>
	<path d="M689.4,61.3c1.2-1,1.8-2.3,1.9-3.9c0-4.7-1.2-9-3.5-13.1c-2.3-4-5.4-7.2-9.3-9.6s-8-3.6-12.3-3.6c-4.4,0-8.6,1.1-12.5,3.4
		s-7,5.6-9.4,9.9s-3.6,9.3-3.6,14.9c0,5.1,1.1,9.7,3.4,13.7c2.2,4.1,5.4,7.2,9.6,9.6c4.1,2.3,9,3.5,14.5,3.5c3.2,0,6.3-0.5,9.4-1.6
		s5.6-2.3,7.4-3.9c1.8-1.5,2.8-3.1,2.8-4.9c0-1.3-0.5-2.5-1.5-3.5s-2.2-1.5-3.6-1.5c-1.1,0-2.2,0.3-3.4,0.9
		c-0.3,0.2-0.9,0.6-1.8,1.1c-0.9,0.6-2.1,1.1-3.6,1.6s-3.6,0.7-6.3,0.7c-3.6,0-6.8-1.1-9.6-3.3c-2.8-2.2-4.7-5.3-5.4-9.2h32.7
		C686.8,62.7,688.2,62.3,689.4,61.3z M678.6,52.8h-25.9c1.4-7.2,5.9-10.8,13.6-10.8c3.1,0,5.9,1,8.3,3s3.8,4.4,4.1,7.1L678.6,52.8
		L678.6,52.8z"/>
</g>
</svg>
