<?xml version="1.0" encoding="utf-8"?>
<!-- Generator: Adobe Illustrator 27.9.0, SVG Export Plug-In . SVG Version: 6.00 Build 0)  -->
<svg version="1.1" id="Layer_1" xmlns="http://www.w3.org/2000/svg" xmlns:xlink="http://www.w3.org/1999/xlink" x="0px" y="0px"
	 viewBox="0 0 798.3 107.1" style="enable-background:new 0 0 798.3 107.1;" xml:space="preserve">
<g>
	<path d="M46,39.4c-2.8-2-6-3-9.7-3.2l13.3-14.7c1.6-1.6,2.4-3.2,2.4-4.8c0-1.8-0.5-3.2-1.6-4.3s-2.6-1.6-4.6-1.6H15.5
		c-1.6,0-2.9,0.5-4,1.5s-1.6,2.3-1.6,3.8c0,1.6,0.5,2.9,1.6,4s2.4,1.6,4,1.6h19.6L19.8,38.4c-0.8,0.9-1.4,1.7-1.7,2.4
		c-0.3,0.7-0.5,1.6-0.5,2.5c0,1.5,0.4,2.8,1.3,3.8s2,1.5,3.5,1.5c1.1,0,2.5-0.3,4.3-0.8c0.2-0.1,0.8-0.2,1.8-0.5s2.1-0.4,3.5-0.4
		c3,0,5.6,1,7.8,3c2.1,2,3.2,4.8,3.2,8.3c0,2.5-0.6,4.7-1.7,6.7c-1.2,1.9-2.7,3.4-4.5,4.5c-1.8,1-3.8,1.5-5.8,1.5
		c-3.4,0-6.6-1.1-9.4-3.3c-1.5-1-2.9-1.5-4.3-1.5c-1.6,0-2.9,0.7-4.1,2c-1.1,1.3-1.7,2.8-1.7,4.4c0,2.2,1.2,4,3.7,5.3
		c1.8,1,3.9,1.8,6.2,2.4c2.4,0.6,4.8,0.9,7.1,0.9c5.3,0,9.9-1,13.9-2.9s7-4.7,9.2-8.3c2.2-3.6,3.3-7.8,3.3-12.6
		c0-3.6-0.8-7-2.3-10.2C50.9,44,48.8,41.4,46,39.4z"/>
	<path d="M109.1,12.6c-1.3-1.1-2.8-1.6-4.5-1.6H70.1c-1.6,0-2.9,0.5-4,1.5s-1.6,2.3-1.6,3.8c0,1.6,0.5,2.9,1.6,4s2.4,1.6,4,1.6h26.3
		L73.3,72.4c-0.4,0.9-0.6,1.7-0.6,2.7c0,1.6,0.6,2.9,1.8,4.1c1.2,1.1,2.7,1.7,4.3,1.7c1.2,0,2.3-0.3,3.3-1s1.7-1.6,2.2-2.8l26-57.5
		c0.4-0.9,0.6-1.8,0.6-2.7C111,15.1,110.4,13.7,109.1,12.6z"/>
	<path d="M170.9,44h-17.2c-1.7,0-3.2,0.6-4.3,1.7c-1.2,1.1-1.7,2.5-1.7,4.2s0.6,3.1,1.7,4.3c1.2,1.1,2.6,1.7,4.3,1.7h17.2
		c1.7,0,3.2-0.5,4.3-1.6c1.2-1.1,1.7-2.5,1.7-4.1c0-1.7-0.6-3.2-1.7-4.3C174.1,44.6,172.7,44,170.9,44z"/>
	<path d="M262.9,66.3c-0.9,0-2,0.3-3.2,0.8c-3,1.5-6.5,2.3-10.5,2.3c-6.8,0-12.3-2-16.5-6s-6.3-9.9-6.3-17.7c0-4.6,0.9-8.6,2.8-12.1
		c1.8-3.5,4.5-6.3,7.9-8.2c3.4-1.9,7.5-2.9,12.1-2.9c3.8,0,7.3,0.8,10.5,2.3c1.1,0.6,2.2,0.9,3.4,0.9c1.6,0,3-0.7,4.1-2.1
		c1-1.3,1.5-2.7,1.5-4.1c0-2.3-1-4-3.1-5c-5-2.6-10.5-3.9-16.3-3.9c-6.8,0-12.9,1.5-18.3,4.5c-5.4,3-9.7,7.2-12.7,12.5
		s-4.6,11.4-4.6,18.1c0,7.6,1.6,14.1,4.9,19.4c3.2,5.3,7.6,9.4,13,12.1s11.4,4.1,17.8,4.1c5.8,0,11.3-1.3,16.4-3.9
		c1-0.5,1.7-1.1,2.3-2c0.5-0.9,0.8-1.8,0.8-2.9c0-1.5-0.5-2.8-1.5-4.1C266.1,67,264.6,66.3,262.9,66.3z"/>
	<path d="M285.2,7c-1.7,0-3.2,0.6-4.3,1.7c-1.2,1.2-1.7,2.6-1.7,4.3v61.2c0,1.7,0.6,3.2,1.7,4.3c1.1,1.2,2.5,1.7,4.2,1.7
		s3.2-0.6,4.3-1.7c1.2-1.2,1.7-2.6,1.7-4.3V13c0-1.7-0.6-3.2-1.7-4.3C288.2,7.5,286.8,7,285.2,7z"/>
	<path d="M347.8,26.3c-1.7,0-3.1,0.6-4.3,1.7c-1.1,1.2-1.7,2.6-1.7,4.3v0.1c-1.9-1.8-4.3-3.2-7-4.4c-2.8-1.2-5.7-1.7-8.9-1.7
		c-4.4,0-8.5,1.2-12.1,3.5c-3.7,2.3-6.6,5.6-8.7,9.8c-2.1,4.2-3.2,8.9-3.2,14.2c0,5.3,1.1,10,3.2,14.2c2.1,4.2,5.1,7.4,8.8,9.8
		c3.7,2.3,7.8,3.5,12.4,3.5c3.1,0,6.1-0.7,8.9-2c2.8-1.4,5-3,6.7-4.9c0.1,1.7,0.6,3.1,1.7,4.3c1.1,1.1,2.5,1.7,4.2,1.7
		s3.1-0.6,4.3-1.7c1.1-1.2,1.7-2.6,1.7-4.3V32.5c0-1.8-0.6-3.2-1.7-4.4C350.9,26.8,349.5,26.3,347.8,26.3z M338.3,65.6
		c-2.7,3.1-6.2,4.7-10.5,4.7s-7.8-1.6-10.4-4.7c-2.7-3.1-4-7.1-4-11.8s1.4-8.7,4.1-11.9c2.7-3.2,6.2-4.8,10.4-4.8
		c4.3,0,7.8,1.6,10.5,4.8c2.7,3.2,4.1,7.1,4.1,11.9S341,62.5,338.3,65.6z"/>
	<path d="M395.9,51.9c-2.4-1.1-5.3-2.1-8.9-3.1c-2.6-0.7-4.6-1.3-6-1.8s-2.6-1.2-3.5-2.1s-1.4-2.1-1.4-3.5c0-3.6,2.5-5.4,7.5-5.4
		c2.4,0,4.5,0.4,6.4,1.3s3.4,2,4.6,3.5c0.9,0.9,2.1,1.4,3.6,1.4c1.2,0,2.2-0.4,3.2-1.1c1.3-1,1.9-2.2,1.9-3.8c0-1.3-0.4-2.5-1.3-3.6
		c-1.9-2.4-4.6-4.3-7.9-5.5c-3.4-1.3-6.7-1.9-10.1-1.9c-3.3,0-6.4,0.6-9.4,1.9c-2.9,1.3-5.3,3.1-7.1,5.4s-2.7,5.1-2.7,8.3
		c0,3.6,0.9,6.5,2.6,8.7c1.7,2.1,3.8,3.7,6.2,4.8c2.4,1.1,5.5,2.1,9.4,3.2c3.7,1,6.4,2,8.2,3c1.7,1,2.6,2.4,2.6,4.4
		c0,3.7-2.6,5.6-7.7,5.8c-3,0-5.6-0.5-7.8-1.5c-2.1-1-4.2-2.5-6.2-4.6c-1.3-1.3-2.6-1.9-4-1.9c-1,0-1.9,0.3-2.9,0.9
		c-1.7,1.2-2.6,2.6-2.6,4.4c0,1.2,0.3,2.2,0.9,3c2.4,3.2,5.4,5.6,9.2,7c3.8,1.5,7.8,2.2,12.2,2.2c3.2,0,6.3-0.6,9.3-1.9
		s5.5-3.1,7.4-5.5s2.9-5.2,2.9-8.5c0-3.6-0.8-6.4-2.5-8.6C400.3,54.6,398.2,53,395.9,51.9z"/>
	<path d="M443.6,51.9c-2.4-1.1-5.3-2.1-8.9-3.1c-2.6-0.7-4.6-1.3-6-1.8s-2.6-1.2-3.5-2.1s-1.4-2.1-1.4-3.5c0-3.6,2.5-5.4,7.5-5.4
		c2.4,0,4.5,0.4,6.4,1.3s3.4,2,4.6,3.5c0.9,0.9,2.1,1.4,3.6,1.4c1.2,0,2.2-0.4,3.2-1.1c1.3-1,1.9-2.2,1.9-3.8c0-1.3-0.4-2.5-1.3-3.6
		c-1.9-2.4-4.6-4.3-7.9-5.5c-3.4-1.3-6.7-1.9-10.1-1.9c-3.3,0-6.4,0.6-9.4,1.9c-2.9,1.3-5.3,3.1-7.1,5.4s-2.7,5.1-2.7,8.3
		c0,3.6,0.9,6.5,2.6,8.7c1.7,2.1,3.8,3.7,6.2,4.8c2.4,1.1,5.5,2.1,9.4,3.2c3.7,1,6.4,2,8.2,3c1.7,1,2.6,2.4,2.6,4.4
		c0,3.7-2.6,5.6-7.7,5.8c-3,0-5.6-0.5-7.8-1.5c-2.1-1-4.2-2.5-6.2-4.6c-1.3-1.3-2.6-1.9-4-1.9c-1,0-1.9,0.3-2.9,0.9
		c-1.7,1.2-2.6,2.6-2.6,4.4c0,1.2,0.3,2.2,0.9,3c2.4,3.2,5.4,5.6,9.2,7c3.8,1.5,7.8,2.2,12.2,2.2c3.2,0,6.3-0.6,9.3-1.9
		s5.5-3.1,7.4-5.5s2.9-5.2,2.9-8.5c0-3.6-0.8-6.4-2.5-8.6C448,54.6,446,53,443.6,51.9z"/>
	<path d="M467.2,27.3c-1.7,0-3.1,0.6-4.3,1.7c-1.1,1.2-1.7,2.6-1.7,4.3v40.9c0,1.7,0.6,3.2,1.7,4.3c1.1,1.2,2.5,1.7,4.3,1.7
		c1.7,0,3.1-0.6,4.3-1.7c1.1-1.2,1.7-2.6,1.7-4.3V33.3c0-1.7-0.6-3.2-1.7-4.3C470.4,27.8,469,27.3,467.2,27.3z"/>
	<path d="M467.2,9c-2.2,0-3.8,0.4-4.8,1.1s-1.5,2-1.5,3.9v1.9c0,1.8,0.5,3.1,1.4,3.9c0.9,0.7,2.5,1.1,4.8,1.1s3.9-0.3,4.9-1
		s1.4-2,1.4-3.9v-1.9c0-1.8-0.5-3.1-1.4-3.9C471.2,9.4,469.6,9,467.2,9z"/>
	<path d="M522.4,66.6c-0.9,0-1.6,0.1-2.2,0.4s-1.2,0.6-1.9,1.1s-1.2,0.8-1.6,1c-1.6,0.8-4,1.2-7.2,1.2c-4.4,0-8.1-1.6-10.9-4.7
		c-2.8-3.1-4.3-7.1-4.3-11.8c0-5,1.4-9,4.2-12c2.8-3.1,6.7-4.6,11.6-4.6c0.8,0,1.8,0.1,3.1,0.4c1.3,0.3,2.3,0.6,2.9,0.9
		c0.6,0.3,1.2,0.7,1.8,1.2s1.3,0.9,1.9,1.2c0.7,0.3,1.5,0.4,2.6,0.4c1.4,0,2.5-0.5,3.4-1.6s1.3-2.4,1.3-3.8c0-2.9-1.7-5.2-5.1-7
		c-3.4-1.7-8-2.6-13.6-2.6c-5,0-9.5,1.2-13.5,3.5s-7,5.6-9.3,9.8c-2.2,4.2-3.3,8.9-3.3,14.3c0,5.1,1.1,9.8,3.2,14
		c2.1,4.2,5.1,7.5,9,9.9s8.3,3.6,13.4,3.6c3.4,0,6.7-0.4,9.7-1.2c3-0.8,5.5-1.9,7.3-3.3s2.8-2.9,2.8-4.5s-0.5-3-1.4-4.1
		C525.3,67.1,524,66.6,522.4,66.6z"/>
	<path d="M616.1,42.8h-16.2c-1.7,0-3.2,0.6-4.3,1.7c-1.2,1.1-1.7,2.5-1.7,4.3c0,1.7,0.6,3.1,1.7,4.3c1.2,1.1,2.6,1.7,4.3,1.7h9.3
		v12.9c-1.6,0.5-3.4,1-5.5,1.3s-4.1,0.5-5.9,0.5c-4.2,0-8.1-1.1-11.7-3.2s-6.4-5-8.5-8.7c-2.1-3.6-3.1-7.6-3.1-11.9s1-8.2,3.1-11.9
		s4.9-6.5,8.5-8.7c3.6-2.1,7.5-3.2,11.7-3.2c3.8,0,7.5,0.8,11.1,2.3c1.2,0.5,2.3,0.8,3.3,0.8c1.6,0,2.9-0.6,4-1.8
		c1.1-1.2,1.6-2.7,1.6-4.3c0-1-0.2-1.9-0.7-2.8s-1.2-1.5-2.2-2.1c-4.8-2.6-10.5-4-17-4s-12.6,1.6-18.1,4.8c-5.5,3.2-9.9,7.5-13.2,13
		c-3.2,5.4-4.9,11.4-4.9,17.9s1.6,12.4,4.9,17.9c3.2,5.4,7.6,9.8,13.2,13c5.5,3.2,11.6,4.8,18.1,4.8c7.7,0,14.8-2,21.3-6
		c2-1.3,3.1-3,3.1-5.3v-21c0-1.7-0.6-3.2-1.7-4.3C619.3,43.4,617.9,42.8,616.1,42.8z"/>
	<path d="M665.5,28c-1.4-1.1-3-1.7-5-1.7c-3.2,0-6.3,0.7-9.1,2.1c-2.8,1.4-5,3.5-6.5,6.2v-1.3c0-1.7-0.6-3.2-1.7-4.3
		c-1.1-1.2-2.5-1.7-4.3-1.7c-1.7,0-3.1,0.6-4.3,1.7c-1.1,1.2-1.7,2.6-1.7,4.3v40.9c0,1.7,0.6,3.2,1.7,4.3c1.1,1.2,2.5,1.7,4.3,1.7
		c1.7,0,3.1-0.6,4.3-1.7c1.1-1.2,1.7-2.6,1.7-4.3V50.7c0-3,0.5-5.5,1.5-7.7c1-2.1,2.3-3.7,3.9-4.8c1.6-1.1,3.2-1.6,5-1.6
		c0.8,0,1.5,0.1,2.2,0.3s1.1,0.3,1.3,0.4c1.3,0.5,2.4,0.7,3.4,0.7c1.5,0,2.7-0.5,3.8-1.5c1.1-1,1.6-2.6,1.6-4.6
		C667.5,30.4,666.8,29.1,665.5,28z"/>
	<path d="M717.6,26.3c-1.7,0-3.1,0.6-4.3,1.7c-1.1,1.2-1.7,2.6-1.7,4.3v0.1c-1.9-1.8-4.3-3.2-7-4.4c-2.8-1.2-5.7-1.7-8.9-1.7
		c-4.4,0-8.5,1.2-12.1,3.5c-3.7,2.3-6.6,5.6-8.7,9.8c-2.1,4.2-3.2,8.9-3.2,14.2c0,5.3,1.1,10,3.2,14.2s5.1,7.4,8.8,9.8
		c3.7,2.3,7.8,3.5,12.4,3.5c3.1,0,6.1-0.7,8.9-2c2.8-1.4,5-3,6.7-4.9c0.1,1.7,0.6,3.1,1.7,4.3c1.1,1.1,2.5,1.7,4.2,1.7
		s3.1-0.6,4.3-1.7c1.1-1.2,1.7-2.6,1.7-4.3V32.5c0-1.8-0.6-3.2-1.7-4.4C720.7,26.8,719.3,26.3,717.6,26.3z M708.1,65.6
		c-2.7,3.1-6.2,4.7-10.5,4.7s-7.8-1.6-10.4-4.7c-2.7-3.1-4-7.1-4-11.8s1.4-8.7,4.1-11.9c2.7-3.2,6.2-4.8,10.4-4.8
		c4.3,0,7.8,1.6,10.5,4.8c2.7,3.2,4.1,7.1,4.1,11.9S710.8,62.5,708.1,65.6z"/>
	<path d="M778.8,29c-1.1-1.2-2.5-1.7-4.3-1.7c-1.7,0-3.1,0.6-4.3,1.7c-1.1,1.2-1.7,2.6-1.7,4.3v25.3c0,3.8-0.9,6.7-2.8,8.7
		s-4.5,3-8,3s-6.2-0.9-8-2.7c-1.8-1.8-2.7-4.8-2.7-9V33.3c0-1.7-0.6-3.2-1.7-4.3c-1.1-1.2-2.5-1.7-4.3-1.7c-1.7,0-3.1,0.6-4.3,1.7
		c-1.1,1.2-1.7,2.6-1.7,4.3v28.9c0,3.7,0.7,7,2.2,9.8c1.5,2.9,3.5,5.1,6.1,6.7s5.7,2.4,9.1,2.4c7.3,0,12.6-2.1,16-6.4v1
		c0,4.9-1.1,8.3-3.3,10.3c-2.2,2-5.7,3-10.3,3c-1.4,0-2.7-0.1-4-0.4s-2.5-0.7-3.7-1.1c-1.2-0.5-2-0.8-2.4-1
		c-0.6-0.2-1.2-0.3-1.9-0.3c-1.1,0-2.2,0.4-3.1,1.1c-1,0.8-1.6,1.9-2,3.3c-0.2,0.6-0.3,1.1-0.3,1.6c0,2.4,1.6,4.4,4.9,5.7
		c1.5,0.6,3.3,1.1,5.7,1.4c2.3,0.4,4.6,0.5,6.9,0.5c7.7,0,13.9-2,18.5-5.9s6.9-10.2,6.9-18.8V33C780.5,31.6,779.9,30.2,778.8,29z"/>
</g>
</svg>
