<?xml version="1.0" encoding="utf-8"?>
<!-- Generator: Adobe Illustrator 27.9.0, SVG Export Plug-In . SVG Version: 6.00 Build 0)  -->
<svg version="1.1" id="Layer_1" xmlns="http://www.w3.org/2000/svg" xmlns:xlink="http://www.w3.org/1999/xlink" x="0px" y="0px"
	 viewBox="0 0 642.2 109.4" style="enable-background:new 0 0 642.2 109.4;" xml:space="preserve">
<g>
	<path d="M64.5,20.1c-4.5-3.1-9.8-4.6-16-4.6H24.8c-1.7,0-3.2,0.6-4.3,1.7c-1.2,1.2-1.7,2.6-1.7,4.3v23H17c-1.7,0-3.2,0.5-4.3,1.5
		c-1.2,1-1.7,2.3-1.7,3.8c0,1.7,0.6,3,1.7,4c1.2,1,2.6,1.5,4.3,1.5h1.8v23.4c0,1.7,0.6,3.2,1.7,4.3c1.2,1.2,2.6,1.7,4.3,1.7h23.7
		c6.2,0,11.5-1.5,16-4.6s7.9-7.2,10.2-12.5c2.3-5.2,3.5-11.1,3.5-17.6S77,37.7,74.7,32.4C72.3,27.3,68.9,23.2,64.5,20.1z M60.8,66.8
		c-3,4.4-7.4,6.6-13.4,6.6H31.1v-18h3.1c1.7,0,3.2-0.5,4.3-1.5c1.2-1,1.7-2.4,1.7-4c0-1.5-0.6-2.8-1.7-3.8c-1.2-1-2.6-1.5-4.3-1.5
		h-3.1V27h16.3c5.9,0,10.3,2.2,13.3,6.6s4.5,9.9,4.5,16.7S63.8,62.4,60.8,66.8z"/>
	<path d="M126.1,34.3c-4.1-2.3-8.7-3.5-13.6-3.5c-5,0-9.6,1.2-13.7,3.5c-4.1,2.3-7.3,5.6-9.7,9.8c-2.4,4.2-3.6,8.9-3.6,14.2
		c0,5.3,1.2,10,3.6,14.2c2.4,4.2,5.6,7.4,9.7,9.8c4.1,2.3,8.6,3.5,13.7,3.5c5,0,9.5-1.2,13.6-3.5s7.4-5.6,9.8-9.8
		c2.4-4.2,3.6-8.9,3.6-14.2c0-5.3-1.2-10-3.6-14.2C133.5,40,130.3,36.7,126.1,34.3z M125.5,67c-1.4,2.5-3.2,4.5-5.4,5.8
		c-2.3,1.4-4.8,2.1-7.6,2.1s-5.3-0.7-7.6-2.1s-4.1-3.3-5.4-5.8c-1.4-2.5-2-5.4-2-8.6s0.7-6.1,2-8.7c1.4-2.5,3.2-4.5,5.4-5.9
		c2.3-1.4,4.8-2.1,7.6-2.1s5.3,0.7,7.6,2.1s4.1,3.4,5.4,5.9c1.4,2.5,2,5.4,2,8.7C127.6,61.6,126.9,64.5,125.5,67z"/>
	<path d="M104.7,17.6c0.4,0,0.9-0.2,1.6-0.6c0.9-0.5,1.6-0.9,2.2-1.2c0.6-0.3,1.3-0.4,2-0.4c0.9,0,1.7,0.2,2.4,0.7s1,1.1,1,1.9
		s-0.8,2.2-2.3,4.3c-1.1,1.4-1.6,2.7-1.6,3.9c0,0.8,0.3,1.5,1,2s1.5,0.8,2.4,0.8s1.7-0.3,2.4-0.8s1-1.2,1-2c0-0.3,0.1-0.7,0.3-1.1
		s0.6-0.9,1.1-1.5s0.8-1,0.9-1.2c0.7-0.9,1.1-1.7,1.4-2.5c0.3-0.8,0.4-1.8,0.4-2.8c0-2.2-0.8-4.2-2.3-6c-1.6-1.7-4.2-2.6-7.9-2.6
		c-1.7,0-3.1,0.2-4.3,0.7s-2.4,1.2-3.6,2.1c-1.1,0.9-1.6,1.9-1.6,3c0,0.8,0.3,1.5,0.9,2.1C103.1,17.1,103.9,17.6,104.7,17.6z"/>
	<path d="M238.2,30.8c-3.9,0-7.4,1.1-10.4,3.4c-3.1,2.2-5.4,4.8-6.9,7.5c-2.3-7.3-7.6-10.9-15.9-10.9c-3.4,0-6.4,0.8-9.2,2.5
		c-2.7,1.7-5,3.7-6.8,6.1v-1.6c0-1.7-0.6-3.2-1.7-4.3c-1.1-1.2-2.5-1.7-4.3-1.7c-1.7,0-3.1,0.6-4.3,1.7c-1.1,1.2-1.7,2.6-1.7,4.3
		v40.9c0,1.7,0.6,3.2,1.7,4.3c1.1,1.2,2.5,1.7,4.3,1.7c1.7,0,3.1-0.6,4.3-1.7c1.1-1.2,1.7-2.6,1.7-4.3V53.4c0-3.4,1-6.2,3.1-8.4
		c2.1-2.2,5-3.3,8.7-3.3c3.6,0,6.1,1,7.5,3.1s2.1,4.9,2.1,8.6v25.3c0,1.7,0.6,3.2,1.7,4.3c1.1,1.2,2.5,1.7,4.3,1.7
		c1.7,0,3.1-0.6,4.3-1.7c1.1-1.2,1.7-2.6,1.7-4.3V53.4c0-3.4,1-6.2,3.1-8.4c2.1-2.2,5-3.3,8.7-3.3c3.6,0,6.1,1,7.5,3.1
		s2.1,4.9,2.1,8.6v25.3c0,1.7,0.6,3.2,1.7,4.3c1.1,1.2,2.5,1.7,4.3,1.7c1.7,0,3.1-0.6,4.3-1.7c1.1-1.2,1.7-2.6,1.7-4.3V53.4
		c0-7.1-1.3-12.6-3.8-16.6C249.2,32.8,244.7,30.8,238.2,30.8z"/>
	<path d="M311.2,30.8c-1.7,0-3.1,0.6-4.3,1.7c-1.1,1.2-1.7,2.6-1.7,4.3v0.1c-1.9-1.8-4.3-3.2-7-4.4c-2.8-1.2-5.7-1.7-8.9-1.7
		c-4.4,0-8.5,1.2-12.1,3.5c-3.7,2.3-6.6,5.6-8.7,9.8c-2.1,4.2-3.2,8.9-3.2,14.2c0,5.3,1.1,10,3.2,14.2c2.1,4.2,5.1,7.4,8.8,9.8
		c3.7,2.3,7.8,3.5,12.4,3.5c3.1,0,6.1-0.7,8.9-2c2.8-1.4,5-3,6.7-4.9c0.1,1.7,0.6,3.1,1.7,4.3c1.1,1.1,2.5,1.7,4.2,1.7
		s3.1-0.6,4.3-1.7c1.1-1.2,1.7-2.6,1.7-4.3V37c0-1.8-0.6-3.2-1.7-4.4C314.3,31.4,312.9,30.8,311.2,30.8z M301.7,70.2
		c-2.7,3.1-6.2,4.7-10.5,4.7s-7.8-1.6-10.4-4.7c-2.7-3.1-4-7.1-4-11.8s1.4-8.7,4.1-11.9c2.7-3.2,6.2-4.8,10.4-4.8
		c4.3,0,7.8,1.6,10.5,4.8c2.7,3.2,4.1,7.1,4.1,11.9S304.4,67.1,301.7,70.2z"/>
	<path d="M281.5,25.5c0.8,0,1.5-0.1,2-0.3c0.5-0.2,1.1-0.5,1.6-1c0.6-0.5,1-0.8,1.2-1l5.6-4.7l5.2,4.7c0.3,0.2,0.6,0.5,1.1,0.9
		s1,0.8,1.5,1c0.5,0.3,1.2,0.4,2.2,0.4c0.9,0,1.6-0.2,2.1-0.7c0.6-0.5,0.8-1.1,0.8-1.7s-0.1-1.1-0.2-1.5c-0.1-0.4-0.5-0.9-1-1.6
		l-4.4-6.1c-0.7-1.1-1.5-1.9-2.2-2.3c-0.8-0.4-1.8-0.6-3.1-0.6h-3.6c-2.5,0-4.5,1-6,2.9l-4.9,6.1c-0.5,0.7-0.9,1.2-1,1.6
		s-0.2,0.9-0.2,1.5c0,0.7,0.3,1.2,0.8,1.7C279.9,25.2,280.7,25.5,281.5,25.5z"/>
	<path d="M292.6,88.8c-2,0-3.6,0.4-4.6,1.1s-1.5,2-1.5,3.9v1.9c0,1.8,0.5,3.1,1.4,3.9c0.9,0.7,2.5,1.1,4.7,1.1c2.3,0,4-0.3,4.9-1
		c1-0.7,1.5-2,1.5-3.9v-1.9c0-1.8-0.5-3.1-1.4-3.9C296.7,89.2,295,88.8,292.6,88.8z"/>
	<path d="M358.3,30.8c-3.4,0-6.6,0.9-9.5,2.6s-5.2,3.8-7,6.1v-1.7c0-1.7-0.6-3.2-1.7-4.3c-1.1-1.2-2.5-1.7-4.3-1.7
		c-1.7,0-3.1,0.6-4.3,1.7c-1.1,1.2-1.7,2.6-1.7,4.3v40.9c0,1.7,0.6,3.2,1.7,4.3c1.1,1.2,2.5,1.7,4.3,1.7c1.7,0,3.1-0.6,4.3-1.7
		c1.1-1.2,1.7-2.6,1.7-4.3V53.4c0-3.4,1.1-6.2,3.3-8.4c2.2-2.2,5.2-3.3,9-3.3c3.7,0,6.3,1,7.8,3.1s2.3,4.9,2.3,8.6v25.3
		c0,1.7,0.6,3.2,1.7,4.3c1.1,1.2,2.5,1.7,4.3,1.7c1.7,0,3.1-0.6,4.3-1.7c1.1-1.2,1.7-2.6,1.7-4.3V53.4c0-7.1-1.3-12.6-3.9-16.6
		C369.7,32.8,365.1,30.8,358.3,30.8z"/>
	<path d="M438.5,48.6h-17.2c-1.7,0-3.2,0.6-4.3,1.7c-1.2,1.1-1.7,2.5-1.7,4.2s0.6,3.1,1.7,4.3c1.2,1.1,2.6,1.7,4.3,1.7h17.2
		c1.7,0,3.2-0.5,4.3-1.6c1.2-1.1,1.7-2.5,1.7-4.1c0-1.7-0.6-3.2-1.7-4.3C441.7,49.1,440.2,48.6,438.5,48.6z"/>
	<path d="M526.2,46.4c2.6-1.3,4.7-3.1,6.1-5.4s2.1-4.9,2.1-7.9c0-11.7-6.3-17.6-18.8-17.6h-24.9c-1.7,0-3.2,0.6-4.3,1.7
		c-1.2,1.2-1.7,2.6-1.7,4.3v57.2c0,1.7,0.6,3.2,1.7,4.3c1.2,1.2,2.6,1.7,4.3,1.7h24.7c6.2,0,11.5-1.5,16-4.7
		c4.5-3.1,6.7-8.6,6.7-16.4c0-4.5-1.1-8.2-3.3-11C532.6,49.9,529.7,47.8,526.2,46.4z M497.5,27.2h16.3c2.4,0,4.3,0.7,5.7,2
		c1.4,1.4,2,3.4,2,6.1c0,2.2-0.7,4-2.2,5.3s-3.2,2-5.2,2h-16.6L497.5,27.2L497.5,27.2z M522.6,70.9c-1.8,1.7-4.2,2.5-7.3,2.5h-17.8
		V54.3h17.1c3,0,5.5,0.6,7.5,1.8c2,1.2,3.1,3.7,3.1,7.6C525.2,66.9,524.4,69.3,522.6,70.9z"/>
	<path d="M581,43c-3.3-2.1-6.7-3.1-10.1-3.1c-4.2,0-8,1.4-11.3,4.3c1.6-4.2,4.2-7.9,7.8-10.9c3.5-3,7.4-5.1,11.5-6.3
		c1.6-0.5,2.9-1.2,3.8-2.3c1-1.1,1.4-2.4,1.4-3.8c0-1.9-0.6-3.3-1.7-4.2c-1.1-0.9-2.5-1.3-4.3-1.3c-0.7,0-1.5,0.1-2.3,0.3
		c-7.7,2.2-13.7,5.8-18.2,11s-7.5,10.6-9.2,16.4s-2.5,11.1-2.5,15.9c0,4.7,1,9.1,2.9,13.2s4.7,7.5,8.2,10c3.6,2.5,7.6,3.8,12.2,3.8
		c4.2,0,8.1-1,11.6-3.1c3.5-2,6.3-4.8,8.4-8.4c2.1-3.5,3.1-7.4,3.1-11.5s-1.1-7.9-3.2-11.4C587.1,47.8,584.4,45,581,43z M577.2,71.4
		c-2.2,2.3-4.8,3.5-7.9,3.5c-3.2,0-5.8-1.2-8-3.5c-2.1-2.3-3.2-5.2-3.2-8.6s1.1-6.3,3.2-8.6c2.1-2.3,4.8-3.5,8-3.5
		c3.1,0,5.7,1.2,7.9,3.5c2.2,2.3,3.3,5.2,3.3,8.6C580.5,66.2,579.4,69.1,577.2,71.4z"/>
	<path d="M623.3,17.2c-1.1-1.2-2.5-1.7-4.2-1.7s-3.1,0.3-4.3,0.9l-14.9,8.9c-0.9,0.5-1.7,1.3-2.2,2.2c-0.6,0.9-0.8,1.9-0.8,3
		c0,1.5,0.6,2.9,1.7,4.2c1.2,1.3,2.6,1.9,4.2,1.9c1.1,0,2.2-0.3,3.2-0.9l6.1-3.8v46.9c0,1.7,0.6,3.2,1.8,4.3
		c1.2,1.2,2.7,1.7,4.6,1.7c1.8,0,3.4-0.6,4.7-1.7c1.3-1.2,1.9-2.6,1.9-4.3V21.5C624.9,19.8,624.4,18.4,623.3,17.2z"/>
</g>
</svg>
