<?xml version="1.0" encoding="utf-8"?>
<!-- Generator: Adobe Illustrator 27.9.0, SVG Export Plug-In . SVG Version: 6.00 Build 0)  -->
<svg version="1.1" id="Layer_1" xmlns="http://www.w3.org/2000/svg" xmlns:xlink="http://www.w3.org/1999/xlink" x="0px" y="0px"
	 viewBox="0 0 880.2 110.6" style="enable-background:new 0 0 880.2 110.6;" xml:space="preserve">
<g>
	<path d="M51.7,72.9H31.3l12.6-13.4c3.6-3.9,6.5-8,8.7-12.2c2.1-4.3,3.2-8.4,3.2-12.4c0-4.1-0.9-7.8-2.7-11
		c-1.8-3.2-4.3-5.8-7.6-7.6c-3.3-1.8-7.1-2.8-11.5-2.8c-3,0-6.2,0.8-9.5,2.3s-6.2,3.5-8.7,6c-1.3,1.3-2.3,2.5-3,3.5s-1,2-1,3
		c0,1.4,0.6,2.6,1.8,3.8c1.2,1.1,2.6,1.7,4,1.7c1.8,0,3.4-0.8,4.6-2.4c1.6-2.1,3.3-3.8,5.3-5.1c1.9-1.3,3.9-1.9,5.8-1.9
		c2.8,0,5.2,1.1,7.3,3.3c2.1,2.2,3.2,4.8,3.2,7.7c0,2.2-0.7,4.7-2.1,7.4c-1.4,2.7-3.4,5.3-5.8,8L14.3,73.9c-1.2,1.3-1.8,2.7-1.8,4.4
		c0,1.7,0.5,3,1.5,4.1s2.3,1.6,4.1,1.6h33.7c1.6,0,2.9-0.5,4-1.5s1.6-2.3,1.6-3.8c0-1.6-0.5-2.9-1.6-4
		C54.7,73.4,53.3,72.9,51.7,72.9z"/>
	<path d="M99.2,43c-2.8-2-6-3-9.7-3.2l13.3-14.7c1.6-1.6,2.4-3.2,2.4-4.8c0-1.8-0.5-3.2-1.6-4.3c-1.1-1.1-2.6-1.6-4.6-1.6H68.7
		c-1.6,0-2.9,0.5-4,1.5s-1.6,2.3-1.6,3.8c0,1.6,0.5,2.9,1.6,4c1.1,1.1,2.4,1.6,4,1.6h19.6L73,42c-0.8,0.9-1.4,1.7-1.7,2.4
		c-0.3,0.7-0.5,1.6-0.5,2.5c0,1.5,0.4,2.8,1.3,3.8c0.9,1,2,1.5,3.5,1.5c1.1,0,2.5-0.3,4.3-0.8c0.2-0.1,0.8-0.2,1.8-0.5
		s2.1-0.4,3.5-0.4c3,0,5.6,1,7.8,3c2.1,2,3.2,4.8,3.2,8.3c0,2.5-0.6,4.7-1.7,6.7c-1.2,1.9-2.7,3.4-4.5,4.5c-1.8,1-3.8,1.5-5.8,1.5
		c-3.4,0-6.6-1.1-9.4-3.3c-1.5-1-2.9-1.5-4.3-1.5c-1.6,0-2.9,0.7-4.1,2c-1.1,1.3-1.7,2.8-1.7,4.4c0,2.2,1.2,4,3.7,5.3
		c1.8,1,3.9,1.8,6.2,2.4c2.4,0.6,4.8,0.9,7.1,0.9c5.3,0,9.9-1,13.9-2.9s7-4.7,9.2-8.3c2.2-3.6,3.3-7.8,3.3-12.6
		c0-3.6-0.8-7-2.3-10.2C104.2,47.6,102,45,99.2,43z"/>
	<path d="M167.9,47.5h-17.2c-1.7,0-3.2,0.6-4.3,1.7c-1.2,1.1-1.7,2.5-1.7,4.2s0.6,3.1,1.7,4.3c1.2,1.1,2.6,1.7,4.3,1.7h17.2
		c1.7,0,3.2-0.5,4.3-1.6c1.2-1.1,1.7-2.5,1.7-4.1c0-1.7-0.6-3.2-1.7-4.3C171,48.1,169.6,47.5,167.9,47.5z"/>
	<path d="M253.2,25.9c1.8,0,3.2-0.5,4.4-1.5c1.1-1,1.7-2.4,1.7-4c0-1.7-0.6-3.1-1.7-4.2c-1.2-1.1-2.6-1.6-4.3-1.6h-33.2
		c-1.7,0-3.2,0.6-4.3,1.7c-1.2,1.2-1.7,2.6-1.7,4.3v57.2c0,1.7,0.6,3.2,1.7,4.3c1.2,1.2,2.6,1.7,4.3,1.7h33.2c1.7,0,3.2-0.5,4.3-1.6
		c1.2-1.1,1.7-2.4,1.7-4.1c0-1.5-0.6-2.9-1.7-4c-1.2-1.2-2.6-1.7-4.3-1.7h-26.8V54.1h22.4c1.8,0,3.2-0.5,4.4-1.5
		c1.1-1,1.7-2.4,1.7-4c0-1.7-0.6-3.1-1.7-4.2c-1.2-1.1-2.6-1.6-4.3-1.6h-22.4V26h26.6V25.9z"/>
	<path d="M312.5,29.8c-1.7,0-3.1,0.6-4.3,1.7c-1.1,1.2-1.7,2.6-1.7,4.3v0.1c-1.9-1.8-4.3-3.2-7-4.4c-2.8-1.2-5.7-1.7-8.9-1.7
		c-4.4,0-8.5,1.2-12.1,3.5c-3.7,2.3-6.6,5.6-8.7,9.8c-2.1,4.2-3.2,8.9-3.2,14.2c0,5.3,1.1,10,3.2,14.2c2.1,4.2,5.1,7.4,8.8,9.8
		c3.7,2.3,7.8,3.5,12.4,3.5c3.1,0,6.1-0.7,8.9-2c2.8-1.4,5-3,6.7-4.9c0.1,1.7,0.6,3.1,1.7,4.3c1.1,1.1,2.5,1.7,4.2,1.7
		s3.1-0.6,4.3-1.7c1.1-1.2,1.7-2.6,1.7-4.3V36c0-1.8-0.6-3.2-1.7-4.4C315.6,30.4,314.2,29.8,312.5,29.8z M303,69.2
		c-2.7,3.1-6.2,4.7-10.5,4.7s-7.8-1.6-10.4-4.7c-2.7-3.1-4-7.1-4-11.8s1.4-8.7,4.1-11.9c2.7-3.2,6.2-4.8,10.4-4.8
		c4.3,0,7.8,1.6,10.5,4.8c2.7,3.2,4.1,7.1,4.1,11.9S305.7,66,303,69.2z"/>
	<path d="M363.8,31.5c-1.4-1.1-3-1.7-5-1.7c-3.2,0-6.3,0.7-9.1,2.1s-5,3.5-6.5,6.2v-1.3c0-1.7-0.6-3.2-1.7-4.3
		c-1.1-1.2-2.5-1.7-4.3-1.7c-1.7,0-3.1,0.6-4.3,1.7c-1.1,1.2-1.7,2.6-1.7,4.3v40.9c0,1.7,0.6,3.2,1.7,4.3c1.1,1.2,2.5,1.7,4.3,1.7
		c1.7,0,3.1-0.6,4.3-1.7c1.1-1.2,1.7-2.6,1.7-4.3V54.2c0-3,0.5-5.5,1.5-7.7c1-2.1,2.3-3.7,3.9-4.8c1.6-1.1,3.2-1.6,5-1.6
		c0.8,0,1.5,0.1,2.2,0.3s1.1,0.3,1.3,0.4c1.3,0.5,2.4,0.7,3.4,0.7c1.5,0,2.7-0.5,3.8-1.5s1.6-2.6,1.6-4.6
		C365.9,33.9,365.2,32.6,363.8,31.5z"/>
	<path d="M381.3,10.5c-1.7,0-3.2,0.6-4.3,1.7c-1.2,1.2-1.7,2.6-1.7,4.3v61.2c0,1.7,0.6,3.2,1.7,4.3c1.1,1.2,2.5,1.7,4.2,1.7
		s3.2-0.6,4.3-1.7c1.2-1.2,1.7-2.6,1.7-4.3V16.5c0-1.7-0.6-3.2-1.7-4.3C384.4,11.1,383,10.5,381.3,10.5z"/>
	<path d="M438.8,30.8c-1.7,0-3.1,0.6-4.3,1.7c-1.1,1.2-1.7,2.6-1.7,4.3v25.3c0,3.8-0.9,6.7-2.8,8.7c-1.9,2-4.5,3-8,3s-6.2-0.9-8-2.7
		c-1.8-1.8-2.7-4.8-2.7-9V36.8c0-1.7-0.6-3.2-1.7-4.3c-1.1-1.2-2.5-1.7-4.3-1.7c-1.7,0-3.1,0.6-4.3,1.7c-1.1,1.2-1.7,2.6-1.7,4.3
		v28.9c0,3.7,0.7,7,2.2,9.8c1.5,2.9,3.5,5.1,6.1,6.7s5.7,2.4,9.1,2.4c7.3,0,12.6-2.1,16-6.4v1c0,4.9-1.1,8.3-3.3,10.3s-5.7,3-10.3,3
		c-1.4,0-2.7-0.1-4-0.4s-2.5-0.7-3.7-1.1c-1.2-0.5-2-0.8-2.4-1c-0.6-0.2-1.2-0.3-1.9-0.3c-1.1,0-2.2,0.4-3.1,1.1
		c-1,0.8-1.6,1.9-2,3.3c-0.2,0.6-0.3,1.1-0.3,1.6c0,2.4,1.6,4.4,4.9,5.7c1.5,0.6,3.3,1.1,5.7,1.4c2.3,0.4,4.6,0.5,6.9,0.5
		c7.7,0,13.9-2,18.5-5.9s6.9-10.2,6.9-18.8V36.5c0-1.7-0.6-3.2-1.7-4.3C442,31.4,440.5,30.8,438.8,30.8z"/>
	<path d="M516.3,18c-0.5-1.3-1.2-2.2-2.2-2.9c-1-0.7-2.1-1-3.3-1c-1.3-0.1-2.5,0.2-3.6,0.9c-1.1,0.7-1.8,1.7-2.4,3.1l-24.7,59.2
		c-0.2,0.7-0.3,1.3-0.3,1.9c0,1.6,0.4,2.8,1.3,3.8c0.9,0.9,2.2,1.4,3.9,1.4c1.1,0,2.2-0.3,3.1-1c1-0.7,1.7-1.7,2.1-2.9l5.1-12.1
		h29.5l5.1,12c0.5,1.3,1.3,2.2,2.2,3c1,0.7,2,1.1,3.2,1.1c1.5,0,2.7-0.5,3.9-1.6c1.1-1.1,1.7-2.5,1.7-4.2c0-0.7-0.2-1.5-0.5-2.4
		L516.3,18z M500.4,56.8l9.8-23.2l10,23.2H500.4z"/>
	<path d="M609.7,29.8c-3.9,0-7.4,1.1-10.4,3.4c-3.1,2.2-5.4,4.8-6.9,7.5c-2.3-7.3-7.6-10.9-15.9-10.9c-3.4,0-6.4,0.8-9.2,2.5
		c-2.7,1.7-5,3.7-6.8,6.1v-1.6c0-1.7-0.6-3.2-1.7-4.3c-1.1-1.2-2.5-1.7-4.3-1.7c-1.7,0-3.1,0.6-4.3,1.7c-1.1,1.2-1.7,2.6-1.7,4.3
		v40.9c0,1.7,0.6,3.2,1.7,4.3c1.1,1.2,2.5,1.7,4.3,1.7c1.7,0,3.1-0.6,4.3-1.7c1.1-1.2,1.7-2.6,1.7-4.3V52.4c0-3.4,1-6.2,3.1-8.4
		c2.1-2.2,5-3.3,8.7-3.3c3.6,0,6.1,1,7.5,3.1s2.1,4.9,2.1,8.6v25.3c0,1.7,0.6,3.2,1.7,4.3c1.1,1.2,2.5,1.7,4.3,1.7
		c1.7,0,3.1-0.6,4.3-1.7c1.1-1.2,1.7-2.6,1.7-4.3V52.4c0-3.4,1-6.2,3.1-8.4c2.1-2.2,5-3.3,8.7-3.3c3.6,0,6.1,1,7.5,3.1
		s2.1,4.9,2.1,8.6v25.3c0,1.7,0.6,3.2,1.7,4.3c1.1,1.2,2.5,1.7,4.3,1.7c1.7,0,3.1-0.6,4.3-1.7c1.1-1.2,1.7-2.6,1.7-4.3V52.4
		c0-7.1-1.3-12.6-3.8-16.6C620.8,31.8,616.2,29.8,609.7,29.8z"/>
	<path d="M674.7,33.4c-3.9-2.4-8-3.6-12.3-3.6c-4.4,0-8.6,1.1-12.5,3.4s-7,5.6-9.4,9.9s-3.6,9.3-3.6,14.9c0,5.1,1.1,9.7,3.4,13.7
		c2.2,4.1,5.4,7.2,9.6,9.6c4.1,2.3,9,3.5,14.5,3.5c3.2,0,6.3-0.5,9.4-1.6s5.6-2.3,7.4-3.9c1.8-1.5,2.8-3.1,2.8-4.9
		c0-1.3-0.5-2.5-1.5-3.5s-2.2-1.5-3.6-1.5c-1.1,0-2.2,0.3-3.4,0.9c-0.3,0.2-0.9,0.6-1.8,1.1c-0.9,0.6-2.1,1.1-3.6,1.6
		s-3.6,0.7-6.3,0.7c-3.6,0-6.8-1.1-9.6-3.3c-2.8-2.2-4.7-5.3-5.4-9.2h32.7c1.6,0,3-0.5,4.2-1.5s1.8-2.3,1.9-3.9
		c0-4.7-1.2-9-3.5-13.1C681.6,39,678.6,35.8,674.7,33.4z M674.7,51.5h-25.9c1.4-7.2,5.9-10.8,13.6-10.8c3.1,0,5.9,1,8.3,3
		s3.8,4.4,4.1,7.1L674.7,51.5L674.7,51.5z"/>
	<path d="M729.8,31.5c-1.4-1.1-3-1.7-5-1.7c-3.2,0-6.3,0.7-9.1,2.1c-2.8,1.4-5,3.5-6.5,6.2v-1.3c0-1.7-0.6-3.2-1.7-4.3
		c-1.1-1.2-2.5-1.7-4.3-1.7c-1.7,0-3.1,0.6-4.3,1.7c-1.1,1.2-1.7,2.6-1.7,4.3v40.9c0,1.7,0.6,3.2,1.7,4.3c1.1,1.2,2.5,1.7,4.3,1.7
		c1.7,0,3.1-0.6,4.3-1.7c1.1-1.2,1.7-2.6,1.7-4.3V54.2c0-3,0.5-5.5,1.5-7.7c1-2.1,2.3-3.7,3.9-4.8c1.6-1.1,3.2-1.6,5-1.6
		c0.8,0,1.5,0.1,2.2,0.3s1.1,0.3,1.3,0.4c1.3,0.5,2.4,0.7,3.4,0.7c1.5,0,2.7-0.5,3.8-1.5c1.1-1,1.6-2.6,1.6-4.6
		C731.9,33.9,731.2,32.6,729.8,31.5z"/>
	<path d="M745.5,30.8c-1.7,0-3.1,0.6-4.3,1.7c-1.1,1.2-1.7,2.6-1.7,4.3v40.9c0,1.7,0.6,3.2,1.7,4.3c1.1,1.2,2.5,1.7,4.3,1.7
		c1.7,0,3.1-0.6,4.3-1.7c1.1-1.2,1.7-2.6,1.7-4.3V36.8c0-1.7-0.6-3.2-1.7-4.3C748.7,31.4,747.2,30.8,745.5,30.8z"/>
	<path d="M745.5,12.6c-2.2,0-3.8,0.4-4.8,1.1s-1.5,2-1.5,3.9v1.9c0,1.8,0.5,3.1,1.4,3.9c0.9,0.7,2.5,1.1,4.8,1.1s3.9-0.3,4.9-1
		s1.4-2,1.4-3.9v-1.9c0-1.8-0.5-3.1-1.4-3.9C749.5,13,747.8,12.6,745.5,12.6z"/>
	<path d="M800.7,70.1c-0.9,0-1.6,0.1-2.2,0.4s-1.2,0.6-1.9,1.1c-0.7,0.5-1.2,0.8-1.6,1c-1.6,0.8-4,1.2-7.2,1.2
		c-4.4,0-8.1-1.6-10.9-4.7s-4.3-7.1-4.3-11.8c0-5,1.4-9,4.2-12c2.8-3.1,6.7-4.6,11.6-4.6c0.8,0,1.8,0.1,3.1,0.4
		c1.3,0.3,2.3,0.6,2.9,0.9s1.2,0.7,1.8,1.2c0.6,0.5,1.3,0.9,1.9,1.2c0.7,0.3,1.5,0.4,2.6,0.4c1.4,0,2.5-0.5,3.4-1.6s1.3-2.4,1.3-3.8
		c0-2.9-1.7-5.2-5.1-7c-3.4-1.7-8-2.6-13.6-2.6c-5,0-9.5,1.2-13.5,3.5s-7,5.6-9.3,9.8c-2.2,4.2-3.3,8.9-3.3,14.3
		c0,5.1,1.1,9.8,3.2,14s5.1,7.5,9,9.9s8.3,3.6,13.4,3.6c3.4,0,6.7-0.4,9.7-1.2c3-0.8,5.5-1.9,7.3-3.3s2.8-2.9,2.8-4.5
		s-0.5-3-1.4-4.1C803.6,70.6,802.3,70.1,800.7,70.1z"/>
	<path d="M861.8,31.5c-1.1-1.1-2.5-1.7-4.3-1.7c-1.7,0-3.1,0.6-4.3,1.7c-1.1,1.2-1.7,2.6-1.7,4.3v0.1c-1.9-1.8-4.3-3.2-7-4.4
		c-2.8-1.2-5.7-1.7-8.9-1.7c-4.4,0-8.5,1.2-12.1,3.5c-3.7,2.3-6.6,5.6-8.7,9.8c-2.1,4.2-3.2,8.9-3.2,14.2c0,5.3,1.1,10,3.2,14.2
		s5.1,7.4,8.8,9.8c3.7,2.3,7.8,3.5,12.4,3.5c3.1,0,6.1-0.7,8.9-2c2.8-1.4,5-3,6.7-4.9c0.1,1.7,0.6,3.1,1.7,4.3
		c1.1,1.1,2.5,1.7,4.2,1.7s3.1-0.6,4.3-1.7c1.1-1.2,1.7-2.6,1.7-4.3V36C863.4,34.1,862.9,32.6,861.8,31.5z M848,69.2
		c-2.7,3.1-6.2,4.7-10.5,4.7s-7.8-1.6-10.4-4.7c-2.7-3.1-4-7.1-4-11.8s1.4-8.7,4.1-11.9c2.7-3.2,6.2-4.8,10.4-4.8
		c4.3,0,7.8,1.6,10.5,4.8c2.7,3.2,4.1,7.1,4.1,11.9S850.7,66,848,69.2z"/>
</g>
</svg>
