<?xml version="1.0" encoding="utf-8"?>
<!-- Generator: Adobe Illustrator 27.9.0, SVG Export Plug-In . SVG Version: 6.00 Build 0)  -->
<svg version="1.1" id="Layer_1" xmlns="http://www.w3.org/2000/svg" xmlns:xlink="http://www.w3.org/1999/xlink" x="0px" y="0px"
	 viewBox="0 0 296.6 105.4" style="enable-background:new 0 0 296.6 105.4;" xml:space="preserve">
<g>
	<path d="M44.9,22.1c1.8,0,3.2-0.5,4.4-1.5c1.1-1,1.7-2.4,1.7-4c0-1.7-0.6-3.1-1.7-4.2c-1.2-1.1-2.6-1.6-4.3-1.6H11.7
		c-1.7,0-3.2,0.6-4.3,1.7c-1.2,1.2-1.7,2.6-1.7,4.3V74c0,1.7,0.6,3.2,1.7,4.3C8.6,79.5,10,80,11.7,80h33.2c1.7,0,3.2-0.5,4.3-1.6
		c1.2-1.1,1.7-2.4,1.7-4.1c0-1.5-0.6-2.9-1.7-4c-1.2-1.2-2.6-1.7-4.3-1.7H18.1V50.3h22.4c1.8,0,3.2-0.5,4.4-1.5c1.1-1,1.7-2.4,1.7-4
		c0-1.7-0.6-3.1-1.7-4.2c-1.2-1.1-2.6-1.6-4.3-1.6H18.2V22.2h26.7V22.1z"/>
	<path d="M101.1,29.5c-3.7-2.3-7.8-3.5-12.4-3.5c-3.1,0-6.1,0.7-8.9,2.2c-2.8,1.5-5,3.2-6.6,5.2V12.7c0-1.7-0.6-3.2-1.7-4.3
		c-1.1-1.2-2.5-1.7-4.3-1.7c-1.7,0-3.1,0.6-4.3,1.7c-1.1,1.2-1.7,2.6-1.7,4.3v62.2c0,1.8,0.6,3.2,1.7,4.4c1.1,1.1,2.5,1.7,4.3,1.7
		c1.7,0,3.1-0.6,4.3-1.7c1.1-1.2,1.7-2.6,1.7-4.3v-0.6c1.8,1.8,4.2,3.4,7,4.7c2.8,1.3,5.8,1.9,9,1.9c4.4,0,8.5-1.2,12.1-3.5
		c3.7-2.3,6.5-5.6,8.7-9.8c2.1-4.2,3.2-8.9,3.2-14.2c0-5.3-1.1-10-3.2-14.2C107.7,35.1,104.8,31.9,101.1,29.5z M97.6,65.3
		c-2.7,3.2-6.2,4.8-10.4,4.8c-4.3,0-7.8-1.6-10.5-4.8c-2.7-3.2-4.1-7.1-4.1-11.9s1.4-8.7,4.1-11.8c2.7-3.1,6.2-4.7,10.5-4.7
		s7.8,1.6,10.4,4.7s4,7.1,4,11.8S100.3,62.2,97.6,65.3z"/>
	<path d="M160.5,29.5c-4.1-2.3-8.7-3.5-13.6-3.5c-5,0-9.6,1.2-13.7,3.5c-4.1,2.3-7.3,5.6-9.7,9.8c-2.4,4.2-3.6,8.9-3.6,14.2
		c0,5.3,1.2,10,3.6,14.2c2.4,4.2,5.6,7.4,9.7,9.8c4.1,2.3,8.6,3.5,13.7,3.5c5,0,9.5-1.2,13.6-3.5s7.4-5.6,9.8-9.8
		c2.4-4.2,3.6-8.9,3.6-14.2c0-5.3-1.2-10-3.6-14.2C167.9,35.2,164.7,31.9,160.5,29.5z M159.9,62.2c-1.4,2.5-3.2,4.5-5.4,5.8
		c-2.3,1.4-4.8,2.1-7.6,2.1s-5.3-0.7-7.6-2.1s-4.1-3.3-5.4-5.8c-1.4-2.5-2-5.4-2-8.6s0.7-6.1,2-8.7c1.4-2.5,3.2-4.5,5.4-5.9
		c2.3-1.4,4.8-2.1,7.6-2.1s5.3,0.7,7.6,2.1s4.1,3.4,5.4,5.9c1.4,2.5,2,5.4,2,8.7C162,56.8,161.3,59.7,159.9,62.2z"/>
	<path d="M212.1,26c-3.4,0-6.6,0.9-9.5,2.6s-5.2,3.8-7,6.1V33c0-1.7-0.6-3.2-1.7-4.3c-1.1-1.2-2.5-1.7-4.3-1.7
		c-1.7,0-3.1,0.6-4.3,1.7c-1.1,1.2-1.7,2.6-1.7,4.3v40.9c0,1.7,0.6,3.2,1.7,4.3c1.1,1.2,2.5,1.7,4.3,1.7c1.7,0,3.1-0.6,4.3-1.7
		c1.1-1.2,1.7-2.6,1.7-4.3V48.6c0-3.4,1.1-6.2,3.3-8.4c2.2-2.2,5.2-3.3,9-3.3c3.7,0,6.3,1,7.8,3.1s2.3,4.9,2.3,8.6v25.3
		c0,1.7,0.6,3.2,1.7,4.3c1.1,1.2,2.5,1.7,4.3,1.7c1.7,0,3.1-0.6,4.3-1.7c1.1-1.2,1.7-2.6,1.7-4.3V48.6c0-7.1-1.3-12.6-3.9-16.6
		C223.4,28,218.8,26,212.1,26z"/>
	<path d="M285.8,28.8c-1.1-1.2-2.5-1.7-4.3-1.7c-1.7,0-3.1,0.6-4.3,1.7c-1.1,1.2-1.7,2.6-1.7,4.3v25.3c0,3.8-0.9,6.7-2.8,8.7
		s-4.5,3-8,3s-6.2-0.9-8-2.7c-1.8-1.8-2.7-4.8-2.7-9V33.1c0-1.7-0.6-3.2-1.7-4.3c-1.1-1.2-2.5-1.7-4.3-1.7c-1.7,0-3.1,0.6-4.3,1.7
		c-1.1,1.2-1.7,2.6-1.7,4.3V62c0,3.7,0.7,7,2.2,9.9s3.5,5.1,6.1,6.7s5.7,2.4,9.1,2.4c7.3,0,12.6-2.1,16-6.4v1
		c0,4.9-1.1,8.3-3.3,10.3c-2.2,2-5.7,3-10.3,3c-1.4,0-2.7-0.1-4-0.4s-2.5-0.7-3.7-1.1c-1.2-0.5-2-0.8-2.4-1
		c-0.6-0.2-1.2-0.3-1.9-0.3c-1.1,0-2.2,0.4-3.1,1.1c-1,0.8-1.6,1.9-2,3.3c-0.2,0.6-0.3,1.1-0.3,1.6c0,2.4,1.6,4.4,4.9,5.7
		c1.5,0.6,3.3,1.1,5.7,1.4c2.3,0.4,4.6,0.5,6.9,0.5c7.7,0,13.9-2,18.5-5.9s6.9-10.2,6.9-18.8V32.9C287.5,31.3,286.9,29.9,285.8,28.8
		z"/>
</g>
</svg>
