<?xml version="1.0" encoding="utf-8"?>
<!-- Generator: Adobe Illustrator 27.9.0, SVG Export Plug-In . SVG Version: 6.00 Build 0)  -->
<svg version="1.1" id="Layer_1" xmlns="http://www.w3.org/2000/svg" xmlns:xlink="http://www.w3.org/1999/xlink" x="0px" y="0px"
	 viewBox="0 0 782.7 106" style="enable-background:new 0 0 782.7 106;" xml:space="preserve">
<g>
	<path d="M62.1,12.7c-1.6,0-2.9,0.5-3.9,1.6s-1.5,2.4-1.5,4v42.6L20.7,15c-0.5-0.7-1.2-1.2-2.1-1.6c-1-0.4-1.9-0.6-2.9-0.6
		c-1.7,0-3.2,0.6-4.3,1.7c-1.2,1.2-1.7,2.6-1.7,4.3v57.7c0,1.6,0.5,2.9,1.5,4s2.3,1.6,3.9,1.6s3-0.5,4-1.6s1.5-2.4,1.5-4V34.2
		l36.3,46.1c0.4,0.5,1,0.9,1.9,1.2c0.9,0.3,1.8,0.4,2.7,0.4c1.7,0,3.2-0.6,4.3-1.7c1.2-1.2,1.7-2.6,1.7-4.3V18.2
		c0-1.6-0.5-2.9-1.5-4C64.9,13.3,63.6,12.7,62.1,12.7z"/>
	<path d="M109.1,28.1c-3.4,0-6.4,0.8-9.2,2.5c-2.7,1.7-5,3.7-6.8,6.1V14.8c0-1.7-0.6-3.2-1.7-4.3c-1.1-1.2-2.5-1.7-4.3-1.7
		c-1.7,0-3.1,0.6-4.3,1.7c-1.1,1.2-1.7,2.6-1.7,4.3V76c0,1.7,0.6,3.2,1.7,4.3c1.1,1.2,2.5,1.7,4.3,1.7c1.7,0,3.1-0.6,4.3-1.7
		c1.1-1.2,1.7-2.6,1.7-4.3V50.7c0-3.4,1-6.2,3.1-8.4c2.1-2.2,5-3.3,8.7-3.3c3.6,0,6.1,1,7.5,3.1s2.1,4.9,2.1,8.6V76
		c0,1.7,0.6,3.2,1.7,4.3c1.1,1.2,2.5,1.7,4.3,1.7c1.7,0,3.1-0.6,4.3-1.7c1.1-1.2,1.7-2.6,1.7-4.3V50.7c0-7.1-1.3-12.6-3.8-16.6
		C120.1,30.1,115.6,28.1,109.1,28.1z"/>
	<path d="M178.6,29.1c-1.7,0-3.1,0.6-4.3,1.7c-1.1,1.2-1.7,2.6-1.7,4.3v25.1c0,4-0.9,7-2.7,9c-1.8,1.9-4.5,2.9-8.1,2.9s-6.2-1-8-2.9
		s-2.7-4.9-2.7-9V35.1c0-1.7-0.6-3.2-1.7-4.3c-1.1-1.2-2.5-1.7-4.3-1.7c-1.7,0-3.1,0.6-4.3,1.7c-1.1,1.2-1.7,2.6-1.7,4.3v25.1
		c0,7.1,1.9,12.7,5.8,16.7c3.9,4,9.5,6,16.7,6c7.3,0,12.9-2,16.8-6c3.9-4,5.9-9.6,5.9-16.7V35.1c0-1.7-0.6-3.2-1.7-4.3
		C181.7,29.6,180.3,29.1,178.6,29.1z"/>
	<path d="M148.7,23.6c1.1,0,1.9-0.3,2.6-0.9c0.7-0.6,1-1.5,1-2.5c0-0.6-0.1-1.1-0.2-1.4c-0.2-0.6-0.1-1.1,0.3-1.5
		c0.4-0.4,1-0.6,1.7-0.6s1.5,0.2,2.4,0.6s2.1,1.1,3.7,2c2,1.2,3.7,2.1,5.1,2.8c1.5,0.7,2.8,1,4.2,1c2.6,0,4.7-0.5,6.4-1.4
		c1.7-1,2.9-2.1,3.7-3.5s1.2-2.7,1.2-4c0-2-0.5-3.6-1.6-4.8c-1.1-1.2-2.3-1.8-3.9-1.8c-1.1,0-1.9,0.3-2.6,0.9c-0.7,0.6-1,1.5-1,2.5
		c0,0.6,0.1,1.1,0.2,1.4c0.2,0.6,0.1,1.1-0.3,1.5c-0.4,0.4-1,0.6-1.7,0.6s-1.4-0.2-2.1-0.6c-0.8-0.4-1.7-1-2.8-1.9
		c-1.8-1.3-3.5-2.2-4.9-2.9c-1.4-0.7-3-1-4.7-1c-3.9,0-6.9,0.9-9,2.6c-2.1,1.8-3.2,3.8-3.2,6.1c0,2,0.5,3.7,1.6,4.9
		C145.9,23,147.2,23.6,148.7,23.6z"/>
	<path d="M265.8,29.2c-1.1-0.1-2.1,0.2-3.1,0.9c-0.9,0.7-1.7,1.6-2.2,2.9l-13.6,31.2l-13.7-31.3c-0.5-1.2-1.3-2.1-2.4-2.8
		c-1.1-0.7-2.2-1-3.5-1c-1.7,0-3,0.5-4.2,1.6c-1.1,1.1-1.7,2.3-1.7,3.6c0,1.1,0.2,2.1,0.7,3.2l18.4,40.8c0.5,1.2,1.3,2.1,2.2,2.8
		c1,0.7,2,1,3.1,1l0.9-0.1c1.1-0.1,2.1-0.4,3-1.1s1.6-1.5,2-2.7l18.5-40.8c0.5-1.2,0.8-2.2,0.8-3c0-1.5-0.5-2.8-1.6-3.8
		C268.7,29.7,267.4,29.2,265.8,29.2z"/>
	<path d="M323.4,28.1c-1.7,0-3.1,0.6-4.3,1.7c-1.1,1.2-1.7,2.6-1.7,4.3v0.1c-1.9-1.8-4.3-3.2-7-4.4c-2.8-1.2-5.7-1.7-8.9-1.7
		c-4.4,0-8.5,1.2-12.1,3.5c-3.7,2.3-6.6,5.6-8.7,9.8c-2.1,4.2-3.2,8.9-3.2,14.2c0,5.3,1.1,10,3.2,14.2c2.1,4.2,5.1,7.4,8.8,9.8
		c3.7,2.3,7.8,3.5,12.4,3.5c3.1,0,6.1-0.7,8.9-2c2.8-1.4,5-3,6.7-4.9c0.1,1.7,0.6,3.1,1.7,4.3c1.1,1.1,2.5,1.7,4.2,1.7
		s3.1-0.6,4.3-1.7c1.1-1.2,1.7-2.6,1.7-4.3V34.1c0-1.8-0.6-3.2-1.7-4.4C326.6,28.6,325.1,28.1,323.4,28.1z M313.9,67.4
		c-2.7,3.1-6.2,4.7-10.5,4.7s-7.8-1.6-10.4-4.7c-2.7-3.1-4-7.1-4-11.8s1.4-8.7,4.1-11.9c2.7-3.2,6.2-4.8,10.4-4.8
		c4.3,0,7.8,1.6,10.5,4.8c2.7,3.2,4.1,7.1,4.1,11.9S316.6,64.3,313.9,67.4z"/>
	<path d="M292.1,19.8L302,25c0.8,0.4,1.5,0.6,2.3,0.6c1.3,0,2.3-0.3,3-1c0.8-0.7,1.1-1.5,1.1-2.6c0-0.9-0.5-1.8-1.4-2.7l-8.5-7.5
		c-1.7-1.5-3.3-2.2-4.9-2.2c-1.3,0-2.4,0.5-3.6,1.4c-1.1,0.9-1.7,2.1-1.7,3.5c0,1,0.3,1.9,0.9,2.9C290,18.3,290.9,19.1,292.1,19.8z"
		/>
	<path d="M370.5,28.1c-3.4,0-6.6,0.9-9.5,2.6c-2.9,1.7-5.2,3.8-7,6.1v-1.7c0-1.7-0.6-3.2-1.7-4.3c-1.1-1.2-2.5-1.7-4.3-1.7
		c-1.7,0-3.1,0.6-4.3,1.7c-1.1,1.2-1.7,2.6-1.7,4.3V76c0,1.7,0.6,3.2,1.7,4.3c1.1,1.2,2.5,1.7,4.3,1.7c1.7,0,3.1-0.6,4.3-1.7
		c1.1-1.2,1.7-2.6,1.7-4.3V50.7c0-3.4,1.1-6.2,3.3-8.4c2.2-2.2,5.2-3.3,9-3.3c3.7,0,6.3,1,7.8,3.1s2.3,4.9,2.3,8.6V76
		c0,1.7,0.6,3.2,1.7,4.3c1.1,1.2,2.5,1.7,4.3,1.7c1.7,0,3.1-0.6,4.3-1.7c1.1-1.2,1.7-2.6,1.7-4.3V50.7c0-7.1-1.3-12.6-3.9-16.6
		S377.3,28.1,370.5,28.1z"/>
	<path d="M445.1,28.1c-1.7,0-3.1,0.6-4.3,1.7c-1.1,1.2-1.7,2.6-1.7,4.3v1.1c-1.8-2-4.1-3.7-7-5c-2.9-1.4-6-2.1-9.4-2.1
		c-4.6,0-8.7,1.2-12.4,3.5s-6.7,5.6-8.8,9.8c-2.1,4.2-3.2,8.9-3.2,14.2c0,5.3,1.1,10,3.3,14.2s5.2,7.4,9,9.8c3.8,2.3,8,3.5,12.6,3.5
		c3.4,0,6.5-0.8,9.5-2.5c2.9-1.6,5.1-3.5,6.6-5.5v4.8c0,3.6-1.2,6.3-3.6,8.3c-2.4,1.9-6.1,2.9-10.9,2.9c-2.4,0-5.2-0.6-8.2-1.7
		c-3-1.2-4.6-1.8-4.9-1.8c-0.6-0.2-1.2-0.3-1.9-0.3c-1.1,0-2.2,0.4-3.1,1.1c-1,0.8-1.6,1.9-2,3.3c-0.2,0.6-0.3,1.1-0.3,1.6
		c0,2.4,1.6,4.4,4.9,5.7c1.5,0.7,3.9,1.3,7.4,2s6.2,1,8.2,1c7.7,0,14-1.9,19-5.8s7.5-9.8,7.5-17.9V34.1c0-1.8-0.6-3.2-1.7-4.4
		C448.2,28.6,446.8,28.1,445.1,28.1z M435.4,67.4c-2.8,3.1-6.4,4.7-10.8,4.7c-4.4,0-8-1.6-10.8-4.7s-4.2-7.1-4.2-11.8
		s1.4-8.7,4.2-11.9c2.8-3.2,6.4-4.8,10.8-4.8c4.4,0,8,1.6,10.8,4.8c2.8,3.2,4.2,7.1,4.2,11.9S438.2,64.3,435.4,67.4z"/>
	<path d="M513.4,45.8h-17.2c-1.7,0-3.2,0.6-4.3,1.7c-1.2,1.1-1.7,2.5-1.7,4.2s0.6,3.1,1.7,4.3c1.2,1.1,2.6,1.7,4.3,1.7h17.2
		c1.7,0,3.2-0.5,4.3-1.6c1.2-1.1,1.7-2.5,1.7-4.1c0-1.7-0.6-3.2-1.7-4.3C516.5,46.4,515.1,45.8,513.4,45.8z"/>
	<path d="M610.6,44.6h-16.2c-1.7,0-3.2,0.6-4.3,1.7c-1.2,1.1-1.7,2.5-1.7,4.3c0,1.7,0.6,3.1,1.7,4.3c1.2,1.1,2.6,1.7,4.3,1.7h9.3
		v12.9c-1.6,0.5-3.4,1-5.5,1.3s-4.1,0.5-5.9,0.5c-4.2,0-8.1-1.1-11.7-3.2s-6.4-5-8.5-8.7c-2.1-3.6-3.1-7.6-3.1-11.9s1-8.2,3.1-11.9
		s4.9-6.5,8.5-8.7c3.6-2.1,7.5-3.2,11.7-3.2c3.8,0,7.5,0.8,11.1,2.3c1.2,0.5,2.3,0.8,3.3,0.8c1.6,0,2.9-0.6,4-1.8
		c1.1-1.2,1.6-2.7,1.6-4.3c0-1-0.2-1.9-0.7-2.8s-1.2-1.5-2.2-2.1c-4.8-2.6-10.5-4-17-4s-12.6,1.6-18.1,4.8c-5.5,3.2-9.9,7.5-13.2,13
		c-3.2,5.4-4.9,11.4-4.9,17.9s1.6,12.4,4.9,17.9c3.2,5.4,7.6,9.8,13.2,13c5.5,3.2,11.6,4.8,18.1,4.8c7.7,0,14.8-2,21.3-6
		c2-1.3,3.1-3,3.1-5.3v-21c0-1.7-0.6-3.2-1.7-4.3C613.7,45.2,612.3,44.6,610.6,44.6z"/>
	<path d="M665,31.6c-4.1-2.3-8.7-3.5-13.6-3.5c-5,0-9.6,1.2-13.7,3.5s-7.3,5.6-9.7,9.8c-2.4,4.2-3.6,8.9-3.6,14.2
		c0,5.3,1.2,10,3.6,14.2s5.6,7.4,9.7,9.8c4.1,2.3,8.6,3.5,13.7,3.5c5,0,9.5-1.2,13.6-3.5s7.4-5.6,9.8-9.8c2.4-4.2,3.6-8.9,3.6-14.2
		c0-5.3-1.2-10-3.6-14.2C672.4,37.2,669.1,33.9,665,31.6z M664.4,64.2c-1.4,2.5-3.2,4.5-5.4,5.8c-2.3,1.4-4.8,2.1-7.6,2.1
		c-2.8,0-5.3-0.7-7.6-2.1c-2.3-1.4-4.1-3.3-5.4-5.8c-1.4-2.5-2-5.4-2-8.6s0.7-6.1,2-8.7c1.4-2.5,3.2-4.5,5.4-5.9
		c2.3-1.4,4.8-2.1,7.6-2.1c2.8,0,5.3,0.7,7.6,2.1c2.3,1.4,4.1,3.4,5.4,5.9c1.4,2.5,2,5.4,2,8.7C666.5,58.8,665.8,61.7,664.4,64.2z"
		/>
	<path d="M695.3,8.8c-1.7,0-3.2,0.6-4.3,1.7c-1.2,1.2-1.7,2.6-1.7,4.3V76c0,1.7,0.6,3.2,1.7,4.3c1.1,1.2,2.5,1.7,4.2,1.7
		s3.2-0.6,4.3-1.7c1.2-1.2,1.7-2.6,1.7-4.3V14.8c0-1.7-0.6-3.2-1.7-4.3C698.3,9.4,696.9,8.8,695.3,8.8z"/>
	<path d="M761.1,10.5c-1.1-1.1-2.5-1.7-4.3-1.7c-1.7,0-3.1,0.6-4.3,1.7c-1.1,1.2-1.7,2.6-1.7,4.3v19.4c-1.9-1.8-4.3-3.2-7-4.4
		c-2.8-1.2-5.7-1.7-8.9-1.7c-4.4,0-8.5,1.2-12.1,3.5c-3.7,2.3-6.6,5.6-8.7,9.8c-2.1,4.2-3.2,8.9-3.2,14.2c0,5.3,1.1,10,3.2,14.2
		s5.1,7.4,8.8,9.8c3.7,2.3,7.8,3.5,12.4,3.5c3.1,0,6.1-0.7,8.9-2c2.8-1.4,5-3,6.7-4.9c0.1,1.7,0.6,3.1,1.7,4.3
		c1.1,1.1,2.5,1.7,4.2,1.7s3.1-0.6,4.3-1.7c1.1-1.2,1.7-2.6,1.7-4.3V15C762.8,13,762.2,11.6,761.1,10.5z M747.3,67.4
		c-2.7,3.1-6.2,4.7-10.5,4.7s-7.8-1.6-10.4-4.7c-2.7-3.1-4-7.1-4-11.8s1.4-8.7,4.1-11.9c2.7-3.2,6.2-4.8,10.4-4.8
		c4.3,0,7.8,1.6,10.5,4.8c2.7,3.2,4.1,7.1,4.1,11.9S750,64.3,747.3,67.4z"/>
</g>
</svg>
