<?xml version="1.0" encoding="utf-8"?>
<!-- Generator: Adobe Illustrator 27.9.0, SVG Export Plug-In . SVG Version: 6.00 Build 0)  -->
<svg version="1.1" id="Layer_1" xmlns="http://www.w3.org/2000/svg" xmlns:xlink="http://www.w3.org/1999/xlink" x="0px" y="0px"
	 viewBox="0 0 758.9 99.7" style="enable-background:new 0 0 758.9 99.7;" xml:space="preserve">
<g>
	<path d="M32.3,17.3c-1.7,0-3.1,0.3-4.3,0.9l-14.9,8.9c-0.9,0.5-1.7,1.3-2.2,2.2c-0.6,0.9-0.8,1.9-0.8,3c0,1.5,0.6,2.9,1.7,4.2
		c1.2,1.3,2.6,1.9,4.2,1.9c1.1,0,2.2-0.3,3.2-0.9l6.1-3.8v46.9c0,1.7,0.6,3.2,1.8,4.3s2.7,1.7,4.6,1.7c1.8,0,3.4-0.6,4.7-1.7
		c1.3-1.2,1.9-2.6,1.9-4.3V23.4c0-1.7-0.6-3.2-1.7-4.3C35.4,17.9,34,17.3,32.3,17.3z"/>
	<path d="M84.7,43.1c-3.5-2-7.5-3-11.8-3c-1.7,0-3.5,0.2-5.4,0.7s-3.5,1.1-4.8,1.8l1.9-14.4h24.6c1.6,0,2.9-0.5,4-1.5
		s1.6-2.3,1.6-3.8c0-1.6-0.5-2.9-1.6-4s-2.4-1.6-4-1.6H60.6c-1.5,0-2.8,0.4-3.9,1.3s-1.8,2-2,3.4l-3.1,24.6
		c-0.1,0.3-0.1,0.7-0.1,1.4c0,1.9,0.5,3.6,1.6,5s2.9,2.1,5.5,2.1c0.7,0,1.4-0.1,2.1-0.4c0.7-0.3,1.6-0.7,2.8-1.3
		c1.6-0.8,3.1-1.4,4.3-1.8s2.5-0.6,4.1-0.6c3.4,0,6.3,1.1,8.7,3.4c2.4,2.2,3.7,5.1,3.7,8.7c0,2.4-0.7,4.7-2.1,6.8
		c-1.4,2.1-3.3,3.8-5.7,5s-4.9,1.9-7.6,1.9c-2.1,0-4.6-0.9-7.3-2.6c-1.8-1.3-3.3-1.9-4.5-1.9c-1.7,0-3,0.5-4,1.4c-1,1-1.5,2-1.5,3.2
		c0,1.1,0.3,2.2,0.8,3.4c0.5,1.2,1.2,2.1,2,2.8c1.7,1.4,3.9,2.5,6.7,3.3c2.7,0.8,5.4,1.2,8,1.2c4.8,0,9.3-1.1,13.5-3.3
		c4.2-2.2,7.5-5.2,10-9s3.8-7.9,3.8-12.3c0-4.3-1-8.2-3-11.7C91,47.9,88.2,45.1,84.7,43.1z"/>
	<path d="M158.9,50.4h-17.2c-1.7,0-3.2,0.6-4.3,1.7c-1.2,1.1-1.7,2.5-1.7,4.2s0.6,3.1,1.7,4.3c1.2,1.1,2.6,1.7,4.3,1.7h17.2
		c1.7,0,3.2-0.5,4.3-1.6c1.2-1.1,1.7-2.5,1.7-4.1c0-1.7-0.6-3.2-1.7-4.3C162,51,160.6,50.4,158.9,50.4z"/>
	<path d="M256.1,49.2h-16.2c-1.7,0-3.2,0.6-4.3,1.7c-1.2,1.1-1.7,2.5-1.7,4.3c0,1.7,0.6,3.1,1.7,4.3c1.2,1.1,2.6,1.7,4.3,1.7h9.3
		v12.9c-1.6,0.5-3.4,1-5.5,1.3s-4.1,0.5-5.9,0.5c-4.2,0-8.1-1.1-11.7-3.2c-3.6-2.1-6.4-5-8.5-8.7c-2.1-3.6-3.1-7.6-3.1-11.9
		s1-8.2,3.1-11.9s4.9-6.5,8.5-8.7c3.6-2.1,7.5-3.2,11.7-3.2c3.8,0,7.5,0.8,11.1,2.3c1.2,0.5,2.3,0.8,3.3,0.8c1.6,0,2.9-0.6,4-1.8
		c1.1-1.2,1.6-2.7,1.6-4.3c0-1-0.2-1.9-0.7-2.8s-1.2-1.5-2.2-2.1c-4.8-2.6-10.5-4-17-4s-12.6,1.6-18.1,4.8c-5.5,3.2-9.9,7.5-13.2,13
		c-3.2,5.4-4.9,11.4-4.9,17.9s1.6,12.4,4.9,17.9c3.2,5.4,7.6,9.8,13.2,13c5.5,3.2,11.6,4.8,18.1,4.8c7.7,0,14.8-2,21.3-6
		c2-1.3,3.1-3,3.1-5.3v-21c0-1.7-0.6-3.2-1.7-4.3C259.2,49.8,257.8,49.2,256.1,49.2z"/>
	<path d="M310.5,36.2c-4.1-2.3-8.7-3.5-13.6-3.5c-5,0-9.6,1.2-13.7,3.5c-4.1,2.3-7.3,5.6-9.7,9.8c-2.4,4.2-3.6,8.9-3.6,14.2
		c0,5.3,1.2,10,3.6,14.2s5.6,7.4,9.7,9.8c4.1,2.3,8.6,3.5,13.7,3.5c5,0,9.5-1.2,13.6-3.5s7.4-5.6,9.8-9.8s3.6-8.9,3.6-14.2
		c0-5.3-1.2-10-3.6-14.2C317.8,41.8,314.6,38.5,310.5,36.2z M309.9,68.8c-1.4,2.5-3.2,4.5-5.4,5.8c-2.3,1.4-4.8,2.1-7.6,2.1
		s-5.3-0.7-7.6-2.1s-4.1-3.3-5.4-5.8c-1.4-2.5-2-5.4-2-8.6s0.7-6.1,2-8.7c1.4-2.5,3.2-4.5,5.4-5.9c2.3-1.4,4.8-2.1,7.6-2.1
		s5.3,0.7,7.6,2.1s4.1,3.4,5.4,5.9c1.4,2.5,2,5.4,2,8.7C311.9,63.4,311.2,66.3,309.9,68.8z"/>
	<path d="M340.7,13.4c-1.7,0-3.2,0.6-4.3,1.7c-1.2,1.2-1.7,2.6-1.7,4.3v61.2c0,1.7,0.6,3.2,1.7,4.3c1.1,1.2,2.5,1.7,4.2,1.7
		s3.2-0.6,4.3-1.7c1.2-1.2,1.7-2.6,1.7-4.3V19.4c0-1.7-0.6-3.2-1.7-4.3C343.8,13.9,342.4,13.4,340.7,13.4z"/>
	<path d="M402.3,13.4c-1.7,0-3.1,0.6-4.3,1.7c-1.1,1.2-1.7,2.6-1.7,4.3v19.4c-1.9-1.8-4.3-3.2-7-4.4c-2.8-1.2-5.7-1.7-8.9-1.7
		c-4.4,0-8.5,1.2-12.1,3.5c-3.7,2.3-6.6,5.6-8.7,9.8c-2.1,4.2-3.2,8.9-3.2,14.2c0,5.3,1.1,10,3.2,14.2c2.1,4.2,5.1,7.4,8.8,9.8
		c3.7,2.3,7.8,3.5,12.4,3.5c3.1,0,6.1-0.7,8.9-2c2.8-1.4,5-3,6.7-4.9c0.1,1.7,0.6,3.1,1.7,4.3c1.1,1.1,2.5,1.7,4.2,1.7
		s3.1-0.6,4.3-1.7c1.1-1.2,1.7-2.6,1.7-4.3V19.4c0-1.8-0.6-3.2-1.7-4.4C405.4,13.9,404,13.4,402.3,13.4z M392.8,72
		c-2.7,3.1-6.2,4.7-10.5,4.7s-7.8-1.6-10.4-4.7c-2.7-3.1-4-7.1-4-11.8s1.4-8.7,4.1-11.9c2.7-3.2,6.2-4.8,10.4-4.8
		c4.3,0,7.8,1.6,10.5,4.8c2.7,3.2,4.1,7.1,4.1,11.9S395.5,68.9,392.8,72z"/>
	<path d="M455.9,36.2c-3.9-2.4-8-3.6-12.3-3.6c-4.4,0-8.6,1.1-12.5,3.4s-7,5.6-9.4,9.9s-3.6,9.3-3.6,14.9c0,5.1,1.1,9.7,3.4,13.7
		c2.2,4.1,5.4,7.2,9.6,9.6c4.1,2.3,9,3.5,14.5,3.5c3.2,0,6.3-0.5,9.4-1.6c3.1-1.1,5.6-2.3,7.4-3.9c1.8-1.5,2.8-3.1,2.8-4.9
		c0-1.3-0.5-2.5-1.5-3.5s-2.2-1.5-3.6-1.5c-1.1,0-2.2,0.3-3.4,0.9c-0.3,0.2-0.9,0.6-1.8,1.1c-0.9,0.6-2.1,1.1-3.6,1.6
		s-3.6,0.7-6.3,0.7c-3.6,0-6.8-1.1-9.6-3.3c-2.8-2.2-4.7-5.3-5.4-9.2h32.7c1.6,0,3-0.5,4.2-1.5s1.8-2.3,1.9-3.9
		c0-4.7-1.2-9-3.5-13.1C462.8,41.8,459.8,38.6,455.9,36.2z M455.9,54.3H430c1.4-7.2,5.9-10.8,13.6-10.8c3.1,0,5.9,1,8.3,3
		c2.4,2,3.8,4.4,4.1,7.1L455.9,54.3L455.9,54.3z"/>
	<path d="M506.8,32.7c-3.4,0-6.6,0.9-9.5,2.6s-5.2,3.8-7,6.1v-1.7c0-1.7-0.6-3.2-1.7-4.3c-1.1-1.2-2.5-1.7-4.3-1.7
		c-1.7,0-3.1,0.6-4.3,1.7c-1.1,1.2-1.7,2.6-1.7,4.3v40.9c0,1.7,0.6,3.2,1.7,4.3c1.1,1.2,2.5,1.7,4.3,1.7c1.7,0,3.1-0.6,4.3-1.7
		c1.1-1.2,1.7-2.6,1.7-4.3V55.3c0-3.4,1.1-6.2,3.3-8.4c2.2-2.2,5.2-3.3,9-3.3c3.7,0,6.3,1,7.8,3.1s2.3,4.9,2.3,8.6v25.3
		c0,1.7,0.6,3.2,1.7,4.3c1.1,1.2,2.5,1.7,4.3,1.7c1.7,0,3.1-0.6,4.3-1.7c1.1-1.2,1.7-2.6,1.7-4.3V55.3c0-7.1-1.3-12.6-3.9-16.6
		S513.6,32.7,506.8,32.7z"/>
	<path d="M613.6,21.1c-5.1-3.2-10.9-4.8-17.3-4.8s-12.2,1.6-17.3,4.8c-5.1,3.2-9.1,7.5-12,12.9s-4.3,11.4-4.3,18
		c0,6.5,1.4,12.5,4.3,18s6.9,9.8,12,12.9c5.1,3.2,10.9,4.8,17.3,4.8s12.2-1.6,17.3-4.8c5.1-3.2,9.1-7.5,12-12.9s4.4-11.4,4.4-18
		c0-6.5-1.5-12.5-4.4-18C622.7,28.6,618.7,24.3,613.6,21.1z M614.4,64c-1.8,3.6-4.3,6.5-7.4,8.6c-3.2,2.1-6.7,3.2-10.7,3.2
		s-7.6-1-10.7-3.1s-5.6-4.9-7.3-8.6c-1.7-3.6-2.6-7.7-2.6-12.1s0.9-8.4,2.6-12.1c1.7-3.6,4.2-6.5,7.3-8.6c3.1-2.1,6.7-3.1,10.7-3.1
		s7.5,1.1,10.7,3.2s5.6,5,7.4,8.6s2.7,7.6,2.7,12S616.2,60.4,614.4,64z"/>
	<path d="M683.2,32.7c-1.7,0-3.1,0.6-4.3,1.7c-1.1,1.2-1.7,2.6-1.7,4.3v0.1c-1.9-1.8-4.3-3.2-7-4.4c-2.8-1.2-5.7-1.7-8.9-1.7
		c-4.4,0-8.5,1.2-12.1,3.5c-3.7,2.3-6.6,5.6-8.7,9.8c-2.1,4.2-3.2,8.9-3.2,14.2c0,5.3,1.1,10,3.2,14.2s5.1,7.4,8.8,9.8
		c3.7,2.3,7.8,3.5,12.4,3.5c3.1,0,6.1-0.7,8.9-2c2.8-1.4,5-3,6.7-4.9c0.1,1.7,0.6,3.1,1.7,4.3c1.1,1.1,2.5,1.7,4.2,1.7
		s3.1-0.6,4.3-1.7c1.1-1.2,1.7-2.6,1.7-4.3V38.9c0-1.8-0.6-3.2-1.7-4.4C686.4,33.2,685,32.7,683.2,32.7z M673.7,72
		c-2.7,3.1-6.2,4.7-10.5,4.7s-7.8-1.6-10.4-4.7c-2.7-3.1-4-7.1-4-11.8s1.4-8.7,4.1-11.9c2.7-3.2,6.2-4.8,10.4-4.8
		c4.3,0,7.8,1.6,10.5,4.8c2.7,3.2,4.1,7.1,4.1,11.9S676.5,68.9,673.7,72z"/>
	<path d="M746.1,76.2l-17.3-18.8l14.9-13.8c1.6-1.4,2.4-2.9,2.4-4.5c0-1.3-0.6-2.5-1.7-3.7c-1.2-1.2-2.5-1.8-3.9-1.8
		c-1.7,0-3.1,0.6-4.4,1.9L714.9,56V19.4c0-1.7-0.6-3.2-1.7-4.3c-1.1-1.2-2.5-1.7-4.3-1.7c-1.7,0-3.1,0.6-4.3,1.7
		c-1.1,1.2-1.7,2.6-1.7,4.3v61.2c0,1.7,0.6,3.2,1.7,4.3c1.1,1.2,2.5,1.7,4.3,1.7c1.7,0,3.1-0.6,4.3-1.7c1.1-1.2,1.7-2.6,1.7-4.3
		V70.2l4.9-4.5l17.8,18.8c1.2,1.3,2.6,2,4.4,2c1.5,0,2.8-0.6,4.1-1.7c1.3-1.1,1.9-2.5,1.9-4.2C748,79,747.4,77.5,746.1,76.2z"/>
</g>
</svg>
