<?xml version="1.0" encoding="utf-8"?>
<!-- Generator: Adobe Illustrator 27.9.0, SVG Export Plug-In . SVG Version: 6.00 Build 0)  -->
<svg version="1.1" id="Layer_1" xmlns="http://www.w3.org/2000/svg" xmlns:xlink="http://www.w3.org/1999/xlink" x="0px" y="0px"
	 viewBox="0 0 468.7 99.3" style="enable-background:new 0 0 468.7 99.3;" xml:space="preserve">
<g>
	<path d="M56.6,37.2c2.6-1.3,4.7-3.1,6.1-5.4c1.4-2.3,2.1-4.9,2.1-7.9c0-11.7-6.3-17.6-18.8-17.6H21.1c-1.7,0-3.2,0.6-4.3,1.7
		c-1.2,1.2-1.7,2.6-1.7,4.3v57.2c0,1.7,0.6,3.2,1.7,4.3c1.2,1.2,2.6,1.7,4.3,1.7h24.7c6.2,0,11.5-1.5,16-4.7
		c4.5-3.1,6.7-8.6,6.7-16.4c0-4.5-1.1-8.2-3.3-11C62.9,40.7,60.1,38.6,56.6,37.2z M27.9,18h16.3c2.4,0,4.3,0.7,5.7,2
		c1.4,1.4,2,3.4,2,6.1c0,2.2-0.7,4-2.2,5.3s-3.2,2-5.2,2H27.9V18z M52.9,61.8c-1.7,1.7-4.2,2.5-7.3,2.5H27.8V45.2h17.1
		c3,0,5.5,0.6,7.5,1.8c2,1.2,3.1,3.7,3.1,7.6C55.6,57.7,54.7,60.1,52.9,61.8z"/>
	<path d="M95.2,6.3c-1.7,0-3.1,0.3-4.3,0.9L76,16.1c-0.9,0.5-1.7,1.3-2.2,2.2c-0.6,0.9-0.8,1.9-0.8,3c0,1.5,0.6,2.9,1.7,4.2
		c1.2,1.3,2.6,1.9,4.2,1.9c1.1,0,2.2-0.3,3.2-0.9l6.1-3.8v46.9c0,1.7,0.6,3.2,1.8,4.3c1.2,1.2,2.7,1.7,4.6,1.7
		c1.8,0,3.4-0.6,4.7-1.7c1.3-1.2,1.9-2.6,1.9-4.3V12.4c0-1.7-0.6-3.2-1.7-4.3C98.2,6.9,96.8,6.3,95.2,6.3z"/>
	<path d="M131.2,6.3c-1.7,0-3.1,0.3-4.3,0.9L112,16.1c-0.9,0.5-1.7,1.3-2.2,2.2c-0.6,0.9-0.8,1.9-0.8,3c0,1.5,0.6,2.9,1.7,4.2
		c1.2,1.3,2.6,1.9,4.2,1.9c1.1,0,2.2-0.3,3.2-0.9l6.1-3.8v46.9c0,1.7,0.6,3.2,1.8,4.3c1.2,1.2,2.7,1.7,4.6,1.7s3.4-0.6,4.7-1.7
		c1.3-1.2,1.9-2.6,1.9-4.3V12.4c0-1.7-0.6-3.2-1.7-4.3C134.2,6.9,132.9,6.3,131.2,6.3z"/>
	<path d="M200.4,39.4h-17.2c-1.7,0-3.2,0.6-4.3,1.7c-1.2,1.1-1.7,2.5-1.7,4.2s0.6,3.1,1.7,4.3c1.2,1.1,2.6,1.7,4.3,1.7h17.2
		c1.7,0,3.2-0.5,4.3-1.6c1.2-1.1,1.7-2.5,1.7-4.1c0-1.7-0.6-3.2-1.7-4.3C203.6,40,202.1,39.4,200.4,39.4z"/>
	<path d="M297.6,38.2h-16.2c-1.7,0-3.2,0.6-4.3,1.7c-1.2,1.1-1.7,2.5-1.7,4.3c0,1.7,0.6,3.1,1.7,4.3c1.2,1.1,2.6,1.7,4.3,1.7h9.3
		v12.9c-1.6,0.5-3.4,1-5.5,1.3s-4.1,0.5-5.9,0.5c-4.2,0-8.1-1.1-11.7-3.2c-3.6-2.1-6.4-5-8.5-8.7c-2.1-3.6-3.1-7.6-3.1-11.9
		s1-8.2,3.1-11.9s4.9-6.5,8.5-8.7c3.6-2.1,7.5-3.2,11.7-3.2c3.8,0,7.5,0.8,11.1,2.3c1.2,0.5,2.3,0.8,3.3,0.8c1.6,0,2.9-0.6,4-1.8
		c1.1-1.2,1.6-2.7,1.6-4.3c0-1-0.2-1.9-0.7-2.8s-1.2-1.5-2.2-2.1c-4.8-2.6-10.5-4-17-4s-12.6,1.6-18.1,4.8c-5.5,3.2-9.9,7.5-13.2,13
		c-3.2,5.4-4.9,11.4-4.9,17.9s1.6,12.4,4.9,17.9c3.2,5.4,7.6,9.8,13.2,13c5.5,3.2,11.6,4.8,18.1,4.8c7.7,0,14.8-2,21.3-6
		c2-1.3,3.1-3,3.1-5.3v-21c0-1.7-0.6-3.2-1.7-4.3C300.8,38.8,299.3,38.2,297.6,38.2z"/>
	<path d="M347,23.4c-1.4-1.1-3-1.7-5-1.7c-3.2,0-6.3,0.7-9.1,2.1s-5,3.5-6.5,6.2v-1.3c0-1.7-0.6-3.2-1.7-4.3
		c-1.1-1.2-2.5-1.7-4.3-1.7c-1.7,0-3.1,0.6-4.3,1.7c-1.1,1.2-1.7,2.6-1.7,4.3v40.9c0,1.7,0.6,3.2,1.7,4.3c1.1,1.2,2.5,1.7,4.3,1.7
		c1.7,0,3.1-0.6,4.3-1.7c1.1-1.2,1.7-2.6,1.7-4.3V46.1c0-3,0.5-5.5,1.5-7.7c1-2.1,2.3-3.7,3.9-4.8c1.6-1.1,3.2-1.6,5-1.6
		c0.8,0,1.5,0.1,2.2,0.3s1.1,0.3,1.3,0.4c1.3,0.5,2.4,0.7,3.4,0.7c1.5,0,2.7-0.5,3.8-1.5c1.1-1,1.6-2.6,1.6-4.6
		C349,25.8,348.3,24.5,347,23.4z"/>
	<path d="M390,25.3c-3.9-2.4-8-3.6-12.3-3.6c-4.4,0-8.6,1.1-12.5,3.4s-7,5.6-9.4,9.9s-3.6,9.3-3.6,14.9c0,5.1,1.1,9.7,3.4,13.7
		c2.2,4.1,5.4,7.2,9.6,9.6c4.1,2.3,9,3.5,14.5,3.5c3.2,0,6.3-0.5,9.4-1.6s5.6-2.3,7.4-3.9c1.8-1.5,2.8-3.1,2.8-4.9
		c0-1.3-0.5-2.5-1.5-3.5s-2.2-1.5-3.6-1.5c-1.1,0-2.2,0.3-3.4,0.9c-0.3,0.2-0.9,0.6-1.8,1.1c-0.9,0.6-2.1,1.1-3.6,1.6
		s-3.6,0.7-6.3,0.7c-3.6,0-6.8-1.1-9.6-3.3c-2.8-2.2-4.7-5.3-5.4-9.2h32.7c1.6,0,3-0.5,4.2-1.5s1.8-2.3,1.9-3.9
		c0-4.7-1.2-9-3.5-13.1C397,30.8,393.9,27.6,390,25.3z M390.1,43.4h-25.9c1.4-7.2,5.9-10.8,13.6-10.8c3.1,0,5.9,1,8.3,3
		s3.8,4.4,4.1,7.1L390.1,43.4L390.1,43.4z"/>
	<path d="M455.7,24.4c-1.1-1.2-2.5-1.7-4.3-1.7c-1.7,0-3.1,0.6-4.3,1.7c-1.1,1.2-1.7,2.6-1.7,4.3V54c0,3.8-0.9,6.7-2.8,8.7
		s-4.5,3-8,3s-6.2-0.9-8-2.7c-1.8-1.8-2.7-4.8-2.7-9V28.7c0-1.7-0.6-3.2-1.7-4.3c-1.1-1.2-2.5-1.7-4.3-1.7c-1.7,0-3.1,0.6-4.3,1.7
		c-1.1,1.2-1.7,2.6-1.7,4.3v28.9c0,3.7,0.7,7,2.2,9.8c1.5,2.9,3.5,5.1,6.1,6.7s5.7,2.4,9.1,2.4c7.3,0,12.6-2.1,16-6.4v1
		c0,4.9-1.1,8.3-3.3,10.3c-2.2,2-5.7,3-10.3,3c-1.4,0-2.7-0.1-4-0.4s-2.5-0.7-3.7-1.1c-1.2-0.5-2-0.8-2.4-1
		c-0.6-0.2-1.2-0.3-1.9-0.3c-1.1,0-2.2,0.4-3.1,1.1c-1,0.8-1.6,1.9-2,3.3c-0.2,0.6-0.3,1.1-0.3,1.6c0,2.4,1.6,4.4,4.9,5.7
		c1.5,0.6,3.3,1.1,5.7,1.4c2.3,0.4,4.6,0.5,6.9,0.5c7.7,0,13.9-2,18.5-5.9s6.9-10.2,6.9-18.8V28.4C457.4,27,456.9,25.6,455.7,24.4z"
		/>
</g>
</svg>
