<?xml version="1.0" encoding="utf-8"?>
<!-- Generator: Adobe Illustrator 27.9.0, SVG Export Plug-In . SVG Version: 6.00 Build 0)  -->
<svg version="1.1" id="Layer_1" xmlns="http://www.w3.org/2000/svg" xmlns:xlink="http://www.w3.org/1999/xlink" x="0px" y="0px"
	 viewBox="0 0 669.5 84.6" style="enable-background:new 0 0 669.5 84.6;" xml:space="preserve">
<g>
	<path d="M31.5,8.3c-1.7,0-3.1,0.3-4.3,0.9l-14.9,8.9c-0.9,0.5-1.7,1.3-2.2,2.2c-0.6,0.9-0.8,1.9-0.8,3c0,1.5,0.6,2.9,1.7,4.2
		c1.2,1.3,2.6,1.9,4.2,1.9c1.1,0,2.2-0.3,3.2-0.9l6.1-3.8v46.9c0,1.7,0.6,3.2,1.8,4.3c1.2,1.2,2.7,1.7,4.6,1.7
		c1.8,0,3.4-0.6,4.7-1.7c1.3-1.2,1.9-2.6,1.9-4.3V14.4c0-1.7-0.6-3.2-1.7-4.3C34.5,8.9,33.1,8.3,31.5,8.3z"/>
	<path d="M84,10.9c-3.6-2.5-7.6-3.8-12.2-3.8c-4.2,0-8.1,1-11.6,3.1c-3.5,2-6.3,4.8-8.4,8.4c-2.1,3.5-3.1,7.4-3.1,11.5
		s1.1,7.9,3.2,11.4c2.1,3.5,4.8,6.3,8.2,8.4C63.4,52,66.8,53,70.2,53c4.2,0,8-1.4,11.3-4.3c-1.7,4.2-4.2,7.9-7.8,10.9
		c-3.5,3-7.4,5.1-11.5,6.3c-1.6,0.5-2.9,1.2-3.8,2.3c-1,1.1-1.4,2.4-1.4,3.8c0,1.9,0.6,3.3,1.7,4.2c1.1,0.9,2.5,1.3,4.3,1.3
		c0.7,0,1.5-0.1,2.3-0.3C73,75,79,71.4,83.5,66.2c4.5-5.1,7.5-10.6,9.2-16.4s2.5-11.1,2.5-15.9c0-4.7-1-9.1-2.9-13.2
		C90.3,16.7,87.5,13.4,84,10.9z M79.8,38.6c-2.1,2.3-4.8,3.5-8,3.5c-3.1,0-5.7-1.2-7.9-3.5s-3.3-5.2-3.3-8.6s1.1-6.3,3.3-8.6
		c2.2-2.3,4.8-3.5,7.9-3.5c3.2,0,5.8,1.2,8,3.5c2.1,2.3,3.2,5.2,3.2,8.6S81.9,36.3,79.8,38.6z"/>
	<path d="M154.9,41.4h-17.2c-1.7,0-3.2,0.6-4.3,1.7c-1.2,1.1-1.7,2.5-1.7,4.2s0.6,3.1,1.7,4.3c1.2,1.1,2.6,1.7,4.3,1.7h17.2
		c1.7,0,3.2-0.5,4.3-1.6c1.2-1.1,1.7-2.5,1.7-4.1c0-1.7-0.6-3.2-1.7-4.3C158.1,42,156.7,41.4,154.9,41.4z"/>
	<path d="M234.7,8.3c-1.7,0-3.1,0.6-4.4,1.7c-1.3,1.2-1.9,2.6-1.9,4.3v41.6c0,1.8-0.5,3.6-1.6,5.3c-1.1,1.7-2.5,3-4.2,4
		c-1.8,1-3.6,1.5-5.5,1.5c-1.7,0-3.1-0.2-4.5-0.7c-1.3-0.5-2.6-1.3-3.9-2.5c-2-2-3.8-3-5.5-3c-1.3,0-2.6,0.6-3.9,1.7
		c-1.3,1.2-1.9,2.5-1.9,4.1c0,1.1,0.4,2.3,1.2,3.5c2,2.8,4.7,4.9,7.9,6.5s6.7,2.3,10.5,2.3c4.3,0,8.2-1,11.9-3.1
		c3.6-2.1,6.5-4.9,8.6-8.4s3.2-7.2,3.2-11.2V14.3c0-1.8-0.6-3.2-1.7-4.4C238.1,8.9,236.6,8.3,234.7,8.3z"/>
	<path d="M297.6,23.7c-1.7,0-3.1,0.6-4.3,1.7c-1.1,1.2-1.7,2.6-1.7,4.3v0.1c-1.9-1.8-4.3-3.2-7-4.4c-2.8-1.2-5.7-1.7-8.9-1.7
		c-4.4,0-8.5,1.2-12.1,3.5c-3.7,2.3-6.6,5.6-8.7,9.8c-2.1,4.2-3.2,8.9-3.2,14.2c0,5.3,1.1,10,3.2,14.2c2.1,4.2,5.1,7.4,8.8,9.8
		c3.7,2.3,7.8,3.5,12.4,3.5c3.1,0,6.1-0.7,8.9-2c2.8-1.4,5-3,6.7-4.9c0.1,1.7,0.6,3.1,1.7,4.3c1.1,1.1,2.5,1.7,4.2,1.7
		s3.1-0.6,4.3-1.7c1.1-1.2,1.7-2.6,1.7-4.3V29.9c0-1.8-0.6-3.2-1.7-4.4C300.7,24.2,299.3,23.7,297.6,23.7z M288.1,63
		c-2.7,3.1-6.2,4.7-10.5,4.7s-7.8-1.6-10.4-4.7c-2.7-3.1-4-7.1-4-11.8s1.4-8.7,4.1-11.9c2.7-3.2,6.2-4.8,10.4-4.8
		c4.3,0,7.8,1.6,10.5,4.8c2.7,3.2,4.1,7.1,4.1,11.9S290.8,59.9,288.1,63z"/>
	<path d="M353.4,64c-0.9,0-1.6,0.1-2.2,0.4s-1.2,0.6-1.9,1.1s-1.2,0.8-1.6,1c-1.6,0.8-4,1.2-7.2,1.2c-4.4,0-8.1-1.6-10.9-4.7
		c-2.8-3.1-4.3-7.1-4.3-11.8c0-5,1.4-9,4.2-12c2.8-3.1,6.7-4.6,11.6-4.6c0.8,0,1.8,0.1,3.1,0.4s2.3,0.6,2.9,0.9
		c0.6,0.3,1.2,0.7,1.8,1.2s1.3,0.9,1.9,1.2c0.7,0.3,1.5,0.4,2.6,0.4c1.4,0,2.5-0.5,3.4-1.6s1.3-2.4,1.3-3.8c0-2.9-1.7-5.2-5.1-7
		c-3.4-1.7-8-2.6-13.6-2.6c-5,0-9.5,1.2-13.5,3.5s-7,5.6-9.3,9.8c-2.2,4.2-3.3,8.9-3.3,14.3c0,5.1,1.1,9.8,3.2,14
		c2.1,4.2,5.1,7.5,9,9.9s8.3,3.6,13.4,3.6c3.4,0,6.7-0.4,9.7-1.2c3-0.8,5.5-1.9,7.3-3.3s2.8-2.9,2.8-4.5s-0.5-3-1.4-4.1
		C356.4,64.5,355.1,64,353.4,64z"/>
	<path d="M405,27.2c-4.1-2.3-8.7-3.5-13.6-3.5c-5,0-9.6,1.2-13.7,3.5c-4.1,2.3-7.3,5.6-9.7,9.8c-2.4,4.2-3.6,8.9-3.6,14.2
		c0,5.3,1.2,10,3.6,14.2c2.4,4.2,5.6,7.4,9.7,9.8c4.1,2.3,8.6,3.5,13.7,3.5c5,0,9.5-1.2,13.6-3.5s7.4-5.6,9.8-9.8
		c2.4-4.2,3.6-8.9,3.6-14.2c0-5.3-1.2-10-3.6-14.2C412.3,32.8,409.1,29.5,405,27.2z M404.4,59.8c-1.4,2.5-3.2,4.5-5.4,5.8
		c-2.3,1.4-4.8,2.1-7.6,2.1s-5.3-0.7-7.6-2.1s-4.1-3.3-5.4-5.8c-1.4-2.5-2-5.4-2-8.6s0.7-6.1,2-8.7c1.4-2.5,3.2-4.5,5.4-5.9
		c2.3-1.4,4.8-2.1,7.6-2.1s5.3,0.7,7.6,2.1s4.1,3.4,5.4,5.9c1.4,2.5,2,5.4,2,8.7C406.4,54.4,405.7,57.3,404.4,59.8z"/>
	<path d="M468,27.2c-3.7-2.3-7.8-3.5-12.4-3.5c-3.1,0-6.1,0.7-8.9,2.2c-2.8,1.5-5,3.2-6.6,5.2V10.4c0-1.7-0.6-3.2-1.7-4.3
		c-1.1-1.2-2.5-1.7-4.3-1.7c-1.7,0-3.1,0.6-4.3,1.7c-1.1,1.2-1.7,2.6-1.7,4.3v62.2c0,1.8,0.6,3.2,1.7,4.4c1.1,1.1,2.5,1.7,4.3,1.7
		c1.7,0,3.1-0.6,4.3-1.7c1.1-1.2,1.7-2.6,1.7-4.3v-0.6c1.8,1.8,4.2,3.4,7,4.7c2.8,1.3,5.8,1.9,9,1.9c4.4,0,8.5-1.2,12.1-3.5
		c3.7-2.3,6.5-5.6,8.7-9.8c2.1-4.2,3.2-8.9,3.2-14.2c0-5.3-1.1-10-3.2-14.2C474.6,32.8,471.7,29.5,468,27.2z M464.5,63
		c-2.7,3.2-6.2,4.8-10.4,4.8c-4.3,0-7.8-1.6-10.5-4.8c-2.7-3.2-4.1-7.1-4.1-11.9s1.4-8.7,4.1-11.8c2.7-3.1,6.2-4.7,10.5-4.7
		s7.8,1.6,10.4,4.7c2.7,3.1,4,7.1,4,11.8C468.6,55.8,467.2,59.8,464.5,63z"/>
	<path d="M524.7,27.2c-3.9-2.4-8-3.6-12.3-3.6c-4.4,0-8.6,1.1-12.5,3.4s-7,5.6-9.4,9.9s-3.6,9.3-3.6,14.9c0,5.1,1.1,9.7,3.4,13.7
		c2.2,4.1,5.4,7.2,9.6,9.6c4.1,2.3,9,3.5,14.5,3.5c3.2,0,6.3-0.5,9.4-1.6s5.6-2.3,7.4-3.9c1.8-1.5,2.8-3.1,2.8-4.9
		c0-1.3-0.5-2.5-1.5-3.5s-2.2-1.5-3.6-1.5c-1.1,0-2.2,0.3-3.4,0.9c-0.3,0.2-0.9,0.6-1.8,1.1c-0.9,0.6-2.1,1.1-3.6,1.6
		s-3.6,0.7-6.3,0.7c-3.6,0-6.8-1.1-9.6-3.3c-2.8-2.2-4.7-5.3-5.4-9.2h32.7c1.6,0,3-0.5,4.2-1.5s1.8-2.3,1.9-3.9
		c0-4.7-1.2-9-3.5-13.1C531.6,32.8,528.5,29.6,524.7,27.2z M524.7,45.4h-25.9c1.4-7.2,5.9-10.8,13.6-10.8c3.1,0,5.9,1,8.3,3
		s3.8,4.4,4.1,7.1L524.7,45.4L524.7,45.4z"/>
	<path d="M590.5,23.7c-1.7,0-3.1,0.6-4.3,1.7c-1.1,1.2-1.7,2.6-1.7,4.3v0.1c-1.9-1.8-4.3-3.2-7-4.4c-2.8-1.2-5.7-1.7-8.9-1.7
		c-4.4,0-8.5,1.2-12.1,3.5c-3.7,2.3-6.6,5.6-8.7,9.8c-2.1,4.2-3.2,8.9-3.2,14.2c0,5.3,1.1,10,3.2,14.2s5.1,7.4,8.8,9.8
		c3.7,2.3,7.8,3.5,12.4,3.5c3.1,0,6.1-0.7,8.9-2c2.8-1.4,5-3,6.7-4.9c0.1,1.7,0.6,3.1,1.7,4.3c1.1,1.1,2.5,1.7,4.2,1.7
		s3.1-0.6,4.3-1.7c1.1-1.2,1.7-2.6,1.7-4.3V29.9c0-1.8-0.6-3.2-1.7-4.4C593.7,24.2,592.3,23.7,590.5,23.7z M581,63
		c-2.7,3.1-6.2,4.7-10.5,4.7s-7.8-1.6-10.4-4.7c-2.7-3.1-4-7.1-4-11.8s1.4-8.7,4.1-11.9c2.7-3.2,6.2-4.8,10.4-4.8
		c4.3,0,7.8,1.6,10.5,4.8c2.7,3.2,4.1,7.1,4.1,11.9S583.7,59.9,581,63z"/>
	<path d="M651.6,29.7c-2.6-4-7.2-6-14-6c-3.4,0-6.6,0.9-9.5,2.6s-5.2,3.8-7,6.1v-1.7c0-1.7-0.6-3.2-1.7-4.3
		c-1.1-1.2-2.5-1.7-4.3-1.7c-1.7,0-3.1,0.6-4.3,1.7c-1.1,1.2-1.7,2.6-1.7,4.3v40.9c0,1.7,0.6,3.2,1.7,4.3c1.1,1.2,2.5,1.7,4.3,1.7
		c1.7,0,3.1-0.6,4.3-1.7c1.1-1.2,1.7-2.6,1.7-4.3V46.3c0-3.4,1.1-6.2,3.3-8.4c2.2-2.2,5.2-3.3,9-3.3c3.7,0,6.3,1,7.8,3.1
		s2.3,4.9,2.3,8.6v25.3c0,1.7,0.6,3.2,1.7,4.3c1.1,1.2,2.5,1.7,4.3,1.7c1.7,0,3.1-0.6,4.3-1.7c1.1-1.2,1.7-2.6,1.7-4.3V46.3
		C655.5,39.2,654.2,33.7,651.6,29.7z"/>
</g>
</svg>
