<?xml version="1.0" encoding="utf-8"?>
<!-- Generator: Adobe Illustrator 27.9.0, SVG Export Plug-In . SVG Version: 6.00 Build 0)  -->
<svg version="1.1" id="Layer_1" xmlns="http://www.w3.org/2000/svg" xmlns:xlink="http://www.w3.org/1999/xlink" x="0px" y="0px"
	 viewBox="0 0 321.6 93" style="enable-background:new 0 0 321.6 93;" xml:space="preserve">
<g>
	<path d="M62.6,73.9L40.5,44.7l21.6-20.6c1.2-1.2,1.8-2.5,1.8-3.9s-0.5-2.7-1.6-4s-2.3-1.9-3.9-1.9c-1.7,0-3.3,0.8-4.9,2.3
		L21.8,47.8V20.9c0-1.8-0.6-3.2-1.7-4.4c-1.1-1.1-2.6-1.7-4.4-1.7c-1.8,0-3.4,0.6-4.6,1.7c-1.2,1.2-1.8,2.6-1.8,4.3V78
		c0,1.7,0.6,3.2,1.7,4.3c1.2,1.2,2.6,1.7,4.4,1.7c1.8,0,3.3-0.6,4.5-1.7s1.7-2.6,1.7-4.4V62.4l9.4-9l21.5,28.3
		c0.5,0.7,1.2,1.3,2,1.7S56.1,84,57,84c1.8,0,3.3-0.6,4.7-1.8c1.4-1.2,2-2.7,2-4.5c0-0.7-0.1-1.4-0.4-2.1
		C63.3,75.1,63,74.4,62.6,73.9z"/>
	<path d="M108.9,33.7c-4.1-2.3-8.7-3.5-13.6-3.5c-5,0-9.6,1.2-13.7,3.5c-4.1,2.3-7.3,5.6-9.7,9.8s-3.6,8.9-3.6,14.2s1.2,10,3.6,14.2
		c2.4,4.2,5.6,7.4,9.7,9.8c4.1,2.3,8.6,3.5,13.7,3.5c4.9,0,9.5-1.2,13.6-3.5s7.4-5.6,9.8-9.8c2.4-4.2,3.6-8.9,3.6-14.2
		s-1.2-10-3.6-14.2C116.3,39.4,113,36.1,108.9,33.7z M108.3,66.4c-1.4,2.5-3.2,4.5-5.4,5.8c-2.3,1.4-4.8,2.1-7.6,2.1
		s-5.3-0.7-7.6-2.1s-4.1-3.3-5.4-5.8c-1.4-2.5-2-5.4-2-8.6c0-3.2,0.7-6.1,2-8.7c1.4-2.5,3.2-4.5,5.4-5.9c2.3-1.4,4.8-2.1,7.6-2.1
		s5.3,0.7,7.6,2.1c2.3,1.4,4.1,3.4,5.4,5.9c1.4,2.5,2,5.4,2,8.7C110.3,61,109.6,63.9,108.3,66.4z"/>
	<path d="M189.1,55.9c-2.4-1.1-5.3-2.1-8.9-3.1c-2.6-0.7-4.6-1.3-6-1.8s-2.6-1.2-3.5-2.1c-0.9-0.9-1.4-2.1-1.4-3.5
		c0-3.6,2.5-5.4,7.5-5.4c2.4,0,4.5,0.4,6.4,1.3c1.9,0.9,3.4,2,4.6,3.5c0.9,0.9,2.1,1.4,3.6,1.4c1.2,0,2.2-0.4,3.2-1.1
		c1.3-1,1.9-2.2,1.9-3.8c0-1.3-0.4-2.5-1.3-3.6c-1.9-2.4-4.6-4.3-7.9-5.5c-3.4-1.3-6.7-1.9-10.1-1.9c-3.3,0-6.4,0.6-9.4,1.9
		c-2.9,1.3-5.3,3.1-7.1,5.4c-1.8,2.3-2.7,5.1-2.7,8.3c0,3.6,0.9,6.5,2.6,8.7c1.7,2.1,3.8,3.7,6.2,4.8s5.5,2.1,9.4,3.2
		c3.7,1,6.4,2,8.2,3c1.7,1,2.6,2.4,2.6,4.4c0,3.7-2.6,5.6-7.7,5.8c-3,0-5.6-0.5-7.8-1.5c-2.1-1-4.2-2.5-6.2-4.6
		c-1.3-1.3-2.6-1.9-4-1.9c-1,0-1.9,0.3-2.9,0.9c-1.7,1.2-2.6,2.6-2.6,4.4c0,1.2,0.3,2.2,0.9,3c2.4,3.2,5.4,5.6,9.2,7
		c3.8,1.5,7.8,2.2,12.2,2.2c3.2,0,6.3-0.6,9.3-1.9s5.5-3.1,7.4-5.5s2.9-5.2,2.9-8.5c0-3.6-0.8-6.4-2.5-8.6
		C193.5,58.5,191.5,56.9,189.1,55.9z"/>
	<path d="M256.7,33.2c1.2-2.3,1.8-4.9,1.8-7.8c0-1.3-0.4-2.5-1.2-3.6s-2-1.6-3.7-1.6c-1.6,0-2.8,0.5-3.7,1.6s-1.3,2.3-1.3,3.6
		c0,2-0.7,3.6-2.2,4.6s-3.5,1.5-6.2,1.5v0.1c-2.9-0.9-5.8-1.4-8.7-1.4c-5,0-9.6,1.2-13.7,3.5c-4.1,2.3-7.3,5.6-9.7,9.8
		s-3.6,8.9-3.6,14.2s1.2,10,3.6,14.2c2.4,4.2,5.6,7.4,9.7,9.8c4.1,2.3,8.6,3.5,13.7,3.5c4.9,0,9.5-1.2,13.6-3.5s7.4-5.6,9.8-9.8
		c2.4-4.2,3.6-8.9,3.6-14.2c0-3.7-0.6-7.2-1.8-10.4s-3-6.1-5.2-8.6C253.8,37.4,255.5,35.5,256.7,33.2z M244.5,66.4
		c-1.4,2.5-3.2,4.5-5.4,5.8s-4.8,2.1-7.6,2.1s-5.3-0.7-7.6-2.1s-4.1-3.3-5.4-5.8c-1.4-2.5-2-5.4-2-8.6c0-3.2,0.7-6.1,2-8.7
		c1.4-2.5,3.2-4.5,5.4-5.9c2.3-1.4,4.8-2.1,7.6-2.1s5.3,0.7,7.6,2.1c2.3,1.4,4.1,3.4,5.4,5.9c1.4,2.5,2,5.4,2,8.7
		C246.5,61,245.9,63.9,244.5,66.4z"/>
	<path d="M310.6,36.2c-2.6-4-7.2-6-14-6c-3.4,0-6.6,0.9-9.5,2.6c-2.9,1.7-5.2,3.8-7,6.1v-1.7c0-1.7-0.6-3.2-1.7-4.3
		c-1.1-1.2-2.5-1.7-4.3-1.7c-1.7,0-3.1,0.6-4.3,1.7c-1.1,1.2-1.7,2.6-1.7,4.3v40.9c0,1.7,0.6,3.2,1.7,4.3c1.1,1.2,2.5,1.7,4.3,1.7
		c1.7,0,3.1-0.6,4.3-1.7c1.1-1.2,1.7-2.6,1.7-4.3V52.8c0-3.4,1.1-6.2,3.3-8.4s5.2-3.3,9-3.3c3.7,0,6.3,1,7.8,3.1s2.3,4.9,2.3,8.6
		v25.3c0,1.7,0.6,3.2,1.7,4.3c1.1,1.2,2.5,1.7,4.3,1.7c1.7,0,3.1-0.6,4.3-1.7c1.1-1.2,1.7-2.6,1.7-4.3V52.8
		C314.5,45.7,313.2,40.2,310.6,36.2z"/>
</g>
</svg>
