<?xml version="1.0" encoding="utf-8"?>
<!-- Generator: Adobe Illustrator 27.9.0, SVG Export Plug-In . SVG Version: 6.00 Build 0)  -->
<svg version="1.1" id="Layer_1" xmlns="http://www.w3.org/2000/svg" xmlns:xlink="http://www.w3.org/1999/xlink" x="0px" y="0px"
	 viewBox="0 0 910.5 97.4" style="enable-background:new 0 0 910.5 97.4;" xml:space="preserve">
<g>
	<path d="M51.5,42.7c2.6-1.3,4.7-3.1,6.1-5.4c1.4-2.3,2.1-4.9,2.1-7.9c0-11.7-6.3-17.6-18.8-17.6H16c-1.7,0-3.2,0.6-4.3,1.7
		c-1.2,1.2-1.7,2.6-1.7,4.3V75c0,1.7,0.6,3.2,1.7,4.3c1.2,1.2,2.6,1.7,4.3,1.7h24.7c6.2,0,11.5-1.5,16-4.7c4.5-3.1,6.7-8.6,6.7-16.4
		c0-4.5-1.1-8.2-3.3-11C57.8,46.2,55,44,51.5,42.7z M22.8,23.5h16.3c2.4,0,4.3,0.7,5.7,2c1.4,1.4,2,3.4,2,6.1c0,2.2-0.7,4-2.2,5.3
		s-3.2,2-5.2,2H22.8V23.5z M47.9,67.2c-1.7,1.7-4.2,2.5-7.3,2.5H22.8V50.6h17.1c3,0,5.5,0.6,7.5,1.8c2,1.2,3.1,3.7,3.1,7.6
		C50.5,63.2,49.6,65.6,47.9,67.2z"/>
	<path d="M111.9,70.2H91.5l12.6-13.4c3.6-3.9,6.5-8,8.7-12.2c2.1-4.3,3.2-8.4,3.2-12.4c0-4.1-0.9-7.8-2.7-11s-4.3-5.8-7.6-7.6
		c-3.3-1.8-7.1-2.8-11.5-2.8c-3,0-6.2,0.8-9.5,2.3s-6.2,3.5-8.7,6c-1.3,1.3-2.3,2.5-3,3.5s-1,2-1,3c0,1.4,0.6,2.6,1.8,3.8
		c1.2,1.1,2.6,1.7,4,1.7c1.8,0,3.4-0.8,4.6-2.4c1.6-2.1,3.3-3.8,5.3-5.1c1.9-1.3,3.9-1.9,5.8-1.9c2.8,0,5.2,1.1,7.3,3.3
		c2.1,2.2,3.2,4.8,3.2,7.7c0,2.2-0.7,4.7-2.1,7.4c-1.4,2.7-3.4,5.3-5.8,8L74.5,71.2c-1.2,1.3-1.8,2.7-1.8,4.4c0,1.7,0.5,3,1.5,4.1
		s2.3,1.6,4.1,1.6H112c1.6,0,2.9-0.5,4-1.5s1.6-2.3,1.6-3.8c0-1.6-0.5-2.9-1.6-4C114.8,70.7,113.5,70.2,111.9,70.2z"/>
	<path d="M164.9,70.2h-20.4l12.6-13.4c3.6-3.9,6.5-8,8.7-12.2c2.1-4.3,3.2-8.4,3.2-12.4c0-4.1-0.9-7.8-2.7-11s-4.3-5.8-7.6-7.6
		c-3.3-1.8-7.1-2.8-11.5-2.8c-3,0-6.2,0.8-9.5,2.3s-6.2,3.5-8.7,6c-1.3,1.3-2.3,2.5-3,3.5s-1,2-1,3c0,1.4,0.6,2.6,1.8,3.8
		c1.2,1.1,2.6,1.7,4,1.7c1.8,0,3.4-0.8,4.6-2.4c1.6-2.1,3.3-3.8,5.3-5.1c1.9-1.3,3.9-1.9,5.8-1.9c2.8,0,5.2,1.1,7.3,3.3
		c2.1,2.2,3.2,4.8,3.2,7.7c0,2.2-0.7,4.7-2.1,7.4c-1.4,2.7-3.4,5.3-5.8,8l-21.6,23.1c-1.2,1.3-1.8,2.7-1.8,4.4c0,1.7,0.5,3,1.5,4.1
		s2.3,1.6,4.1,1.6H165c1.6,0,2.9-0.5,4-1.5s1.6-2.3,1.6-3.8c0-1.6-0.5-2.9-1.6-4C167.8,70.7,166.5,70.2,164.9,70.2z"/>
	<path d="M229.4,44.8h-17.2c-1.7,0-3.2,0.6-4.3,1.7c-1.2,1.1-1.7,2.5-1.7,4.2s0.6,3.1,1.7,4.3c1.2,1.1,2.6,1.7,4.3,1.7h17.2
		c1.7,0,3.2-0.5,4.3-1.6c1.2-1.1,1.7-2.5,1.7-4.1c0-1.7-0.6-3.2-1.7-4.3C232.5,45.4,231.1,44.8,229.4,44.8z"/>
	<path d="M313.7,69.5h-25.8V17.8c0-1.7-0.6-3.2-1.8-4.3c-1.2-1.2-2.6-1.7-4.3-1.7c-1.8,0-3.4,0.6-4.6,1.7c-1.2,1.2-1.8,2.6-1.8,4.3
		V75c0,1.7,0.6,3.2,1.7,4.3c1.2,1.2,2.6,1.7,4.3,1.7h32.2c1.7,0,3.2-0.5,4.3-1.6c1.2-1.1,1.7-2.5,1.7-4.1c0-1.7-0.6-3.1-1.7-4.2
		C316.9,70,315.4,69.5,313.7,69.5z"/>
	<path d="M365,30.7c-3.9-2.4-8-3.6-12.3-3.6c-4.4,0-8.6,1.1-12.5,3.4s-7,5.6-9.4,9.9s-3.6,9.3-3.6,14.9c0,5.1,1.1,9.7,3.4,13.7
		c2.2,4.1,5.4,7.2,9.6,9.6c4.1,2.3,9,3.5,14.5,3.5c3.2,0,6.3-0.5,9.4-1.6c3.1-1.1,5.6-2.3,7.4-3.9c1.8-1.5,2.8-3.1,2.8-4.9
		c0-1.3-0.5-2.5-1.5-3.5s-2.2-1.5-3.6-1.5c-1.1,0-2.2,0.3-3.4,0.9c-0.3,0.2-0.9,0.6-1.8,1.1c-0.9,0.6-2.1,1.1-3.6,1.6
		s-3.6,0.7-6.3,0.7c-3.6,0-6.8-1.1-9.6-3.3c-2.8-2.2-4.7-5.3-5.4-9.2h32.7c1.6,0,3-0.5,4.2-1.5s1.8-2.3,1.9-3.9
		c0-4.7-1.2-9-3.5-13.1C371.9,36.3,368.8,33.1,365,30.7z M365,48.8h-25.9c1.4-7.2,5.9-10.8,13.6-10.8c3.1,0,5.9,1,8.3,3
		c2.4,2,3.8,4.4,4.1,7.1L365,48.8L365,48.8z"/>
	<path d="M448.7,27.1c-3.9,0-7.4,1.1-10.4,3.4c-3.1,2.2-5.4,4.8-6.9,7.5c-2.3-7.3-7.6-10.9-15.9-10.9c-3.4,0-6.4,0.8-9.2,2.5
		c-2.7,1.7-5,3.7-6.8,6.1v-1.6c0-1.7-0.6-3.2-1.7-4.3c-1.1-1.2-2.5-1.7-4.3-1.7c-1.7,0-3.1,0.6-4.3,1.7c-1.1,1.2-1.7,2.6-1.7,4.3V75
		c0,1.7,0.6,3.2,1.7,4.3c1.1,1.2,2.5,1.7,4.3,1.7c1.7,0,3.1-0.6,4.3-1.7c1.1-1.2,1.7-2.6,1.7-4.3V49.7c0-3.4,1-6.2,3.1-8.4
		c2.1-2.2,5-3.3,8.7-3.3c3.6,0,6.1,1,7.5,3.1s2.1,4.9,2.1,8.6V75c0,1.7,0.6,3.2,1.7,4.3c1.1,1.2,2.5,1.7,4.3,1.7
		c1.7,0,3.1-0.6,4.3-1.7c1.1-1.2,1.7-2.6,1.7-4.3V49.7c0-3.4,1-6.2,3.1-8.4c2.1-2.2,5-3.3,8.7-3.3c3.6,0,6.1,1,7.5,3.1
		s2.1,4.9,2.1,8.6V75c0,1.7,0.6,3.2,1.7,4.3c1.1,1.2,2.5,1.7,4.3,1.7c1.7,0,3.1-0.6,4.3-1.7c1.1-1.2,1.7-2.6,1.7-4.3V49.7
		c0-7.1-1.3-12.6-3.8-16.6C459.7,29.1,455.2,27.1,448.7,27.1z"/>
	<path d="M516.4,30.6c-4.1-2.3-8.7-3.5-13.6-3.5c-5,0-9.6,1.2-13.7,3.5c-4.1,2.3-7.3,5.6-9.7,9.8c-2.4,4.2-3.6,8.9-3.6,14.2
		c0,5.3,1.2,10,3.6,14.2c2.4,4.2,5.6,7.4,9.7,9.8c4.1,2.3,8.6,3.5,13.7,3.5c5,0,9.5-1.2,13.6-3.5s7.4-5.6,9.8-9.8
		c2.4-4.2,3.6-8.9,3.6-14.2c0-5.3-1.2-10-3.6-14.2C523.8,36.2,520.6,33,516.4,30.6z M515.8,63.3c-1.4,2.5-3.2,4.5-5.4,5.8
		c-2.3,1.4-4.8,2.1-7.6,2.1s-5.3-0.7-7.6-2.1s-4.1-3.3-5.4-5.8c-1.4-2.5-2-5.4-2-8.6s0.7-6.1,2-8.7c1.4-2.5,3.2-4.5,5.4-5.9
		c2.3-1.4,4.8-2.1,7.6-2.1s5.3,0.7,7.6,2.1s4.1,3.4,5.4,5.9c1.4,2.5,2,5.4,2,8.7C517.9,57.9,517.2,60.7,515.8,63.3z"/>
	<path d="M568,27.1c-3.4,0-6.6,0.9-9.5,2.6s-5.2,3.8-7,6.1v-1.7c0-1.7-0.6-3.2-1.7-4.3c-1.1-1.2-2.5-1.7-4.3-1.7
		c-1.7,0-3.1,0.6-4.3,1.7c-1.1,1.2-1.7,2.6-1.7,4.3V75c0,1.7,0.6,3.2,1.7,4.3c1.1,1.2,2.5,1.7,4.3,1.7c1.7,0,3.1-0.6,4.3-1.7
		c1.1-1.2,1.7-2.6,1.7-4.3V49.7c0-3.4,1.1-6.2,3.3-8.4c2.2-2.2,5.2-3.3,9-3.3c3.7,0,6.3,1,7.8,3.1s2.3,4.9,2.3,8.6V75
		c0,1.7,0.6,3.2,1.7,4.3c1.1,1.2,2.5,1.7,4.3,1.7c1.7,0,3.1-0.6,4.3-1.7c1.1-1.2,1.7-2.6,1.7-4.3V49.7c0-7.1-1.3-12.6-3.9-16.6
		C579.3,29.1,574.7,27.1,568,27.1z"/>
	<path d="M678.4,43.6h-16.2c-1.7,0-3.2,0.6-4.3,1.7c-1.2,1.1-1.7,2.5-1.7,4.3c0,1.7,0.6,3.1,1.7,4.3c1.2,1.1,2.6,1.7,4.3,1.7h9.3
		v12.9c-1.6,0.5-3.4,1-5.5,1.3s-4.1,0.5-5.9,0.5c-4.2,0-8.1-1.1-11.7-3.2s-6.4-5-8.5-8.7c-2.1-3.6-3.1-7.6-3.1-11.9s1-8.2,3.1-11.9
		s4.9-6.5,8.5-8.7c3.6-2.1,7.5-3.2,11.7-3.2c3.8,0,7.5,0.8,11.1,2.3c1.2,0.5,2.3,0.8,3.3,0.8c1.6,0,2.9-0.6,4-1.8
		c1.1-1.2,1.6-2.7,1.6-4.3c0-1-0.2-1.9-0.7-2.8s-1.2-1.5-2.2-2.1c-4.8-2.6-10.5-4-17-4s-12.6,1.6-18.1,4.8c-5.5,3.2-9.9,7.5-13.2,13
		C625.7,34,624,40,624,46.5s1.6,12.4,4.9,17.9c3.2,5.4,7.6,9.8,13.2,13c5.5,3.2,11.6,4.8,18.1,4.8c7.7,0,14.8-2,21.3-6
		c2-1.3,3.1-3,3.1-5.3v-21c0-1.7-0.6-3.2-1.7-4.3C681.6,44.2,680.2,43.6,678.4,43.6z"/>
	<path d="M727.8,28.8c-1.4-1.1-3-1.7-5-1.7c-3.2,0-6.3,0.7-9.1,2.1c-2.8,1.4-5,3.5-6.5,6.2v-1.3c0-1.7-0.6-3.2-1.7-4.3
		c-1.1-1.2-2.5-1.7-4.3-1.7c-1.7,0-3.1,0.6-4.3,1.7c-1.1,1.2-1.7,2.6-1.7,4.3V75c0,1.7,0.6,3.2,1.7,4.3c1.1,1.2,2.5,1.7,4.3,1.7
		c1.7,0,3.1-0.6,4.3-1.7c1.1-1.2,1.7-2.6,1.7-4.3V51.5c0-3,0.5-5.5,1.5-7.7c1-2.1,2.3-3.7,3.9-4.8c1.6-1.1,3.2-1.6,5-1.6
		c0.8,0,1.5,0.1,2.2,0.3s1.1,0.3,1.3,0.4c1.3,0.5,2.4,0.7,3.4,0.7c1.5,0,2.7-0.5,3.8-1.5c1.1-1,1.6-2.6,1.6-4.6
		C729.8,31.2,729.1,29.9,727.8,28.8z"/>
	<path d="M770.9,30.7c-3.9-2.4-8-3.6-12.3-3.6c-4.4,0-8.6,1.1-12.5,3.4s-7,5.6-9.4,9.9s-3.6,9.3-3.6,14.9c0,5.1,1.1,9.7,3.4,13.7
		c2.2,4.1,5.4,7.2,9.6,9.6c4.1,2.3,9,3.5,14.5,3.5c3.2,0,6.3-0.5,9.4-1.6s5.6-2.3,7.4-3.9c1.8-1.5,2.8-3.1,2.8-4.9
		c0-1.3-0.5-2.5-1.5-3.5s-2.2-1.5-3.6-1.5c-1.1,0-2.2,0.3-3.4,0.9c-0.3,0.2-0.9,0.6-1.8,1.1c-0.9,0.6-2.1,1.1-3.6,1.6
		S762.7,71,760,71c-3.6,0-6.8-1.1-9.6-3.3c-2.8-2.2-4.7-5.3-5.4-9.2h32.7c1.6,0,3-0.5,4.2-1.5s1.8-2.3,1.9-3.9c0-4.7-1.2-9-3.5-13.1
		C777.8,36.3,774.7,33.1,770.9,30.7z M770.9,48.8H745c1.4-7.2,5.9-10.8,13.6-10.8c3.1,0,5.9,1,8.3,3s3.8,4.4,4.1,7.1L770.9,48.8
		L770.9,48.8z"/>
	<path d="M828.3,30.7c-3.9-2.4-8-3.6-12.3-3.6c-4.4,0-8.6,1.1-12.5,3.4s-7,5.6-9.4,9.9s-3.6,9.3-3.6,14.9c0,5.1,1.1,9.7,3.4,13.7
		c2.2,4.1,5.4,7.2,9.6,9.6c4.1,2.3,9,3.5,14.5,3.5c3.2,0,6.3-0.5,9.4-1.6s5.6-2.3,7.4-3.9c1.8-1.5,2.8-3.1,2.8-4.9
		c0-1.3-0.5-2.5-1.5-3.5s-2.2-1.5-3.6-1.5c-1.1,0-2.2,0.3-3.4,0.9c-0.3,0.2-0.9,0.6-1.8,1.1c-0.9,0.6-2.1,1.1-3.6,1.6
		s-3.6,0.7-6.3,0.7c-3.6,0-6.8-1.1-9.6-3.3c-2.8-2.2-4.7-5.3-5.4-9.2h32.7c1.6,0,3-0.5,4.2-1.5s1.8-2.3,1.9-3.9
		c0-4.7-1.2-9-3.5-13.1C835.2,36.3,832.1,33.1,828.3,30.7z M828.3,48.8h-25.9c1.4-7.2,5.9-10.8,13.6-10.8c3.1,0,5.9,1,8.3,3
		s3.8,4.4,4.1,7.1L828.3,48.8L828.3,48.8z"/>
	<path d="M893.2,33.1c-2.6-4-7.2-6-14-6c-3.4,0-6.6,0.9-9.5,2.6s-5.2,3.8-7,6.1v-1.7c0-1.7-0.6-3.2-1.7-4.3
		c-1.1-1.2-2.5-1.7-4.3-1.7c-1.7,0-3.1,0.6-4.3,1.7c-1.1,1.2-1.7,2.6-1.7,4.3V75c0,1.7,0.6,3.2,1.7,4.3c1.1,1.2,2.5,1.7,4.3,1.7
		c1.7,0,3.1-0.6,4.3-1.7c1.1-1.2,1.7-2.6,1.7-4.3V49.7c0-3.4,1.1-6.2,3.3-8.4c2.2-2.2,5.2-3.3,9-3.3c3.7,0,6.3,1,7.8,3.1
		s2.3,4.9,2.3,8.6V75c0,1.7,0.6,3.2,1.7,4.3c1.1,1.2,2.5,1.7,4.3,1.7c1.7,0,3.1-0.6,4.3-1.7c1.1-1.2,1.7-2.6,1.7-4.3V49.7
		C897,42.6,895.7,37.1,893.2,33.1z"/>
</g>
</svg>
