<?xml version="1.0" encoding="utf-8"?>
<!-- Generator: Adobe Illustrator 27.9.0, SVG Export Plug-In . SVG Version: 6.00 Build 0)  -->
<svg version="1.1" id="Layer_1" xmlns="http://www.w3.org/2000/svg" xmlns:xlink="http://www.w3.org/1999/xlink" x="0px" y="0px"
	 viewBox="0 0 786.2 110.5" style="enable-background:new 0 0 786.2 110.5;" xml:space="preserve">
<g>
	<path d="M59.1,42c2.6-1.3,4.7-3.1,6.1-5.4c1.4-2.3,2.1-4.9,2.1-7.9c0-11.7-6.3-17.6-18.8-17.6H23.6c-1.7,0-3.2,0.6-4.3,1.7
		c-1.2,1.2-1.7,2.6-1.7,4.3v57.2c0,1.7,0.6,3.2,1.7,4.3c1.2,1.2,2.6,1.7,4.3,1.7h24.7c6.2,0,11.5-1.5,16-4.7
		C68.8,72.5,71,67,71,59.2c0-4.5-1.1-8.2-3.3-11C65.4,45.5,62.6,43.3,59.1,42z M30.3,22.8h16.3c2.4,0,4.3,0.7,5.7,2
		c1.4,1.4,2,3.4,2,6.1c0,2.2-0.7,4-2.2,5.3s-3.2,2-5.2,2H30.3L30.3,22.8L30.3,22.8z M55.4,66.5c-1.7,1.7-4.2,2.5-7.3,2.5H30.3V49.9
		h17.1c3,0,5.5,0.6,7.5,1.8c2,1.2,3.1,3.7,3.1,7.6C58.1,62.5,57.2,64.9,55.4,66.5z"/>
	<path d="M97.7,11.1c-1.7,0-3.1,0.3-4.3,0.9l-14.9,8.9c-0.9,0.5-1.7,1.3-2.2,2.2c-0.6,0.9-0.8,1.9-0.8,3c0,1.5,0.6,2.9,1.7,4.2
		c1.2,1.3,2.6,1.9,4.2,1.9c1.1,0,2.2-0.3,3.2-0.9l6.1-3.8v46.9c0,1.7,0.6,3.2,1.8,4.3c1.2,1.2,2.7,1.7,4.6,1.7
		c1.8,0,3.4-0.6,4.7-1.7c1.3-1.2,1.9-2.6,1.9-4.3V17.2c0-1.7-0.6-3.2-1.7-4.3C100.7,11.6,99.3,11.1,97.7,11.1z"/>
	<path d="M161.4,12.7c-1.3-1.1-2.8-1.6-4.5-1.6h-34.5c-1.6,0-2.9,0.5-4,1.5s-1.6,2.3-1.6,3.8c0,1.6,0.5,2.9,1.6,4s2.4,1.6,4,1.6
		h26.4l-23.1,50.5c-0.4,0.9-0.6,1.7-0.6,2.7c0,1.6,0.6,2.9,1.8,4.1c1.2,1.1,2.7,1.7,4.3,1.7c1.2,0,2.3-0.3,3.3-1s1.7-1.6,2.2-2.8
		l26-57.5c0.4-0.9,0.6-1.8,0.6-2.7C163.3,15.2,162.7,13.8,161.4,12.7z"/>
	<path d="M223.2,44.1H206c-1.7,0-3.2,0.6-4.3,1.7c-1.2,1.1-1.7,2.5-1.7,4.2s0.6,3.1,1.7,4.3c1.2,1.1,2.6,1.7,4.3,1.7h17.2
		c1.7,0,3.2-0.5,4.3-1.6c1.2-1.1,1.7-2.5,1.7-4.1c0-1.7-0.6-3.2-1.7-4.3C226.4,44.7,224.9,44.1,223.2,44.1z"/>
	<path d="M307.5,68.8h-25.8V17.1c0-1.7-0.6-3.2-1.8-4.3c-1.2-1.2-2.6-1.7-4.3-1.7c-1.8,0-3.4,0.6-4.6,1.7c-1.2,1.2-1.8,2.6-1.8,4.3
		v57.2c0,1.7,0.6,3.2,1.7,4.3c1.2,1.2,2.6,1.7,4.3,1.7h32.2c1.7,0,3.2-0.5,4.3-1.6c1.2-1.1,1.7-2.5,1.7-4.1c0-1.7-0.6-3.1-1.7-4.2
		C310.7,69.3,309.3,68.8,307.5,68.8z"/>
	<path d="M329.2,27.4c-1.7,0-3.1,0.6-4.3,1.7c-1.1,1.2-1.7,2.6-1.7,4.3v40.9c0,1.7,0.6,3.2,1.7,4.3c1.1,1.2,2.5,1.7,4.3,1.7
		c1.7,0,3.1-0.6,4.3-1.7c1.1-1.2,1.7-2.6,1.7-4.3V33.4c0-1.7-0.6-3.2-1.7-4.3C332.4,28,330.9,27.4,329.2,27.4z"/>
	<path d="M329.2,9.2c-2.2,0-3.8,0.4-4.8,1.1s-1.5,2-1.5,3.9v1.9c0,1.8,0.5,3.1,1.4,3.9c0.9,0.7,2.5,1.1,4.8,1.1s3.9-0.3,4.9-1
		s1.4-2,1.4-3.9v-1.9c0-1.8-0.5-3.1-1.4-3.9C333.2,9.6,331.5,9.2,329.2,9.2z"/>
	<path d="M391.2,26.4c-1.7,0-3.1,0.6-4.3,1.7c-1.1,1.2-1.7,2.6-1.7,4.3v1.1c-1.8-2-4.1-3.7-7-5c-2.9-1.4-6-2.1-9.4-2.1
		c-4.6,0-8.7,1.2-12.4,3.5s-6.7,5.6-8.8,9.8c-2.1,4.2-3.2,8.9-3.2,14.2c0,5.3,1.1,10,3.3,14.2s5.2,7.4,9,9.8c3.8,2.3,8,3.5,12.6,3.5
		c3.4,0,6.5-0.8,9.5-2.5c2.9-1.6,5.1-3.5,6.6-5.5v4.8c0,3.6-1.2,6.3-3.6,8.3c-2.4,1.9-6.1,2.9-10.9,2.9c-2.4,0-5.2-0.6-8.2-1.7
		c-3-1.2-4.6-1.8-4.9-1.8c-0.6-0.2-1.2-0.3-1.9-0.3c-1.1,0-2.2,0.4-3.1,1.1c-1,0.8-1.6,1.9-2,3.3c-0.2,0.6-0.3,1.1-0.3,1.6
		c0,2.4,1.6,4.4,4.9,5.7c1.5,0.7,3.9,1.3,7.4,2s6.2,1,8.2,1c7.7,0,14-1.9,19-5.8s7.5-9.8,7.5-17.9V32.5c0-1.8-0.6-3.2-1.7-4.4
		C394.3,27,392.9,26.4,391.2,26.4z M381.5,65.8c-2.8,3.1-6.4,4.7-10.8,4.7c-4.4,0-8-1.6-10.8-4.7s-4.2-7.1-4.2-11.8
		s1.4-8.7,4.2-11.9c2.8-3.2,6.4-4.8,10.8-4.8c4.4,0,8,1.6,10.8,4.8c2.8,3.2,4.2,7.1,4.2,11.9S384.4,62.6,381.5,65.8z"/>
	<path d="M437.8,26.4c-3.4,0-6.4,0.8-9.2,2.5c-2.7,1.7-5,3.7-6.8,6.1V13.1c0-1.7-0.6-3.2-1.7-4.3c-1.1-1.2-2.5-1.7-4.3-1.7
		c-1.7,0-3.1,0.6-4.3,1.7c-1.1,1.2-1.7,2.6-1.7,4.3v61.2c0,1.7,0.6,3.2,1.7,4.3c1.1,1.2,2.5,1.7,4.3,1.7c1.7,0,3.1-0.6,4.3-1.7
		c1.1-1.2,1.7-2.6,1.7-4.3V49c0-3.4,1-6.2,3.1-8.4c2.1-2.2,5-3.3,8.7-3.3c3.6,0,6.1,1,7.5,3.1s2.1,4.9,2.1,8.6v25.3
		c0,1.7,0.6,3.2,1.7,4.3c1.1,1.2,2.5,1.7,4.3,1.7c1.7,0,3.1-0.6,4.3-1.7c1.1-1.2,1.7-2.6,1.7-4.3V49c0-7.1-1.3-12.6-3.8-16.6
		C448.9,28.4,444.4,26.4,437.8,26.4z"/>
	<path d="M492.1,39.3c1.6,0,2.9-0.5,4-1.5s1.6-2.3,1.6-3.8c0-1.6-0.5-2.9-1.6-4s-2.4-1.6-4-1.6h-7v-6.3c0-1.7-0.6-3.2-1.7-4.3
		c-1.1-1.2-2.5-1.7-4.2-1.7s-3.2,0.6-4.3,1.7c-1.2,1.2-1.7,2.6-1.7,4.3v6.3h-4.6c-1.6,0-2.9,0.5-4,1.5s-1.6,2.3-1.6,3.8
		c0,1.6,0.5,2.9,1.6,4s2.4,1.6,4,1.6h4.6v27.3c0,5.7,1.4,9.4,4.2,11.1s6.3,2.6,10.3,2.6c2.4,0,4.6-0.6,6.6-1.8
		c1.9-1.2,2.9-2.7,2.9-4.5c0-1.5-0.4-2.6-1.1-3.5c-0.8-0.9-1.6-1.3-2.5-1.3c-0.7,0-1.5,0.2-2.3,0.5c-0.9,0.3-1.7,0.4-2.2,0.4
		c-1.3,0-2.2-0.3-3-0.9c-0.7-0.6-1.1-1.6-1.1-3V39.4L492.1,39.3L492.1,39.3z"/>
	<path d="M574.7,43.7c-3.4-1.5-7.9-2.8-13.6-3.8c-5-0.9-8.7-2.1-11-3.6s-3.5-3.6-3.5-6.4c0-2.5,1.1-4.5,3.4-6.1
		c2.3-1.5,5.5-2.3,9.7-2.3c2.4,0,5.2,0.6,8.3,1.7c3.1,1.2,5.5,2.4,7.2,3.8c0.8,0.6,1.7,0.9,2.7,0.9c1.5,0,2.8-0.6,4-1.7
		c1.1-1.2,1.7-2.5,1.7-4c0-2-1-3.7-2.9-5.2c-2.4-2-5.5-3.7-9.2-5s-7.6-1.9-11.7-1.9c-4.6,0-8.8,0.8-12.6,2.4s-6.7,4-8.9,7
		c-2.2,3.1-3.3,6.7-3.3,10.8c0,11.4,7.2,18.1,21.7,20.2c5.7,0.9,9.9,2.1,12.6,3.8c2.6,1.7,4,4,4,7c0,2.4-1.3,4.5-4,6.1
		c-2.7,1.7-5.9,2.5-9.6,2.5c-3.4,0-6.4-0.5-8.9-1.5s-5.1-2.6-7.7-4.8c-1-0.8-2.1-1.2-3.4-1.2c-1.6,0-2.9,0.6-4.1,1.7
		c-1.1,1.2-1.7,2.5-1.7,4c0,1.9,0.9,3.7,2.7,5.2c3.2,2.8,6.7,4.9,10.4,6c3.7,1.2,7.9,1.8,12.7,1.8c4.5,0,8.7-0.8,12.6-2.5
		c3.9-1.7,7-4.1,9.4-7.2c2.3-3.1,3.5-6.8,3.5-10.9c0-4.4-0.9-8-2.6-10.6C580.7,47.4,578.1,45.2,574.7,43.7z"/>
	<path d="M638.2,26.4c-1.7,0-3.1,0.6-4.3,1.7c-1.1,1.2-1.7,2.6-1.7,4.3v0.1c-1.9-1.8-4.3-3.2-7-4.4c-2.8-1.2-5.7-1.7-8.9-1.7
		c-4.4,0-8.5,1.2-12.1,3.5c-3.7,2.3-6.6,5.6-8.7,9.8c-2.1,4.2-3.2,8.9-3.2,14.2c0,5.3,1.1,10,3.2,14.2s5.1,7.4,8.8,9.8
		c3.7,2.3,7.8,3.5,12.4,3.5c3.1,0,6.1-0.7,8.9-2c2.8-1.4,5-3,6.7-4.9c0.1,1.7,0.6,3.1,1.7,4.3c1.1,1.1,2.5,1.7,4.2,1.7
		s3.1-0.6,4.3-1.7c1.1-1.2,1.7-2.6,1.7-4.3V32.6c0-1.8-0.6-3.2-1.7-4.4C641.3,27,639.9,26.4,638.2,26.4z M628.7,65.8
		c-2.7,3.1-6.2,4.7-10.5,4.7s-7.8-1.6-10.4-4.7c-2.7-3.1-4-7.1-4-11.8s1.4-8.7,4.1-11.9c2.7-3.2,6.2-4.8,10.4-4.8
		c4.3,0,7.8,1.6,10.5,4.8c2.7,3.2,4.1,7.1,4.1,11.9S631.4,62.6,628.7,65.8z"/>
	<path d="M700.9,26.4c-1.7,0-3.1,0.6-4.3,1.7c-1.1,1.2-1.7,2.6-1.7,4.3v1.1c-1.8-2-4.1-3.7-7-5c-2.9-1.4-6-2.1-9.4-2.1
		c-4.6,0-8.7,1.2-12.4,3.5c-3.7,2.3-6.7,5.6-8.8,9.8c-2.1,4.2-3.2,8.9-3.2,14.2c0,5.3,1.1,10,3.3,14.2c2.2,4.2,5.2,7.4,9,9.8
		c3.8,2.3,8,3.5,12.6,3.5c3.4,0,6.5-0.8,9.5-2.5c2.9-1.6,5.1-3.5,6.6-5.5v4.8c0,3.6-1.2,6.3-3.6,8.3c-2.4,1.9-6.1,2.9-10.9,2.9
		c-2.4,0-5.2-0.6-8.2-1.7c-3-1.2-4.6-1.8-4.9-1.8c-0.6-0.2-1.2-0.3-1.9-0.3c-1.1,0-2.2,0.4-3.1,1.1c-1,0.8-1.6,1.9-2,3.3
		c-0.2,0.6-0.3,1.1-0.3,1.6c0,2.4,1.6,4.4,4.9,5.7c1.5,0.7,3.9,1.3,7.4,2s6.2,1,8.2,1c7.7,0,14-1.9,19-5.8s7.5-9.8,7.5-17.9V32.5
		c0-1.8-0.6-3.2-1.7-4.4C704,27,702.6,26.4,700.9,26.4z M691.2,65.8c-2.8,3.1-6.4,4.7-10.8,4.7s-8-1.6-10.8-4.7s-4.2-7.1-4.2-11.8
		s1.4-8.7,4.2-11.9c2.8-3.2,6.4-4.8,10.8-4.8s8,1.6,10.8,4.8c2.8,3.2,4.2,7.1,4.2,11.9S694,62.6,691.2,65.8z"/>
	<path d="M763.3,56.5c1.2-1,1.8-2.3,1.9-3.9c0-4.7-1.2-9-3.5-13.1c-2.3-4-5.4-7.2-9.3-9.6s-8-3.6-12.3-3.6c-4.4,0-8.6,1.1-12.5,3.4
		s-7,5.6-9.4,9.9s-3.6,9.3-3.6,14.9c0,5.1,1.1,9.7,3.4,13.7c2.2,4.1,5.4,7.2,9.6,9.6c4.1,2.3,9,3.5,14.5,3.5c3.2,0,6.3-0.5,9.4-1.6
		s5.6-2.3,7.4-3.9c1.8-1.5,2.8-3.1,2.8-4.9c0-1.3-0.5-2.5-1.5-3.5s-2.2-1.5-3.6-1.5c-1.1,0-2.2,0.3-3.4,0.9
		c-0.3,0.2-0.9,0.6-1.8,1.1c-0.9,0.6-2.1,1.1-3.6,1.6s-3.6,0.7-6.3,0.7c-3.6,0-6.8-1.1-9.6-3.3c-2.8-2.2-4.7-5.3-5.4-9.2h32.7
		C760.8,58,762.2,57.5,763.3,56.5z M752.5,48.1h-25.9c1.4-7.2,5.9-10.8,13.6-10.8c3.1,0,5.9,1,8.3,3s3.8,4.4,4.1,7.1L752.5,48.1
		L752.5,48.1z"/>
</g>
</svg>
