<?xml version="1.0" encoding="utf-8"?>
<!-- Generator: Adobe Illustrator 27.9.0, SVG Export Plug-In . SVG Version: 6.00 Build 0)  -->
<svg version="1.1" id="Layer_1" xmlns="http://www.w3.org/2000/svg" xmlns:xlink="http://www.w3.org/1999/xlink" x="0px" y="0px"
	 viewBox="0 0 504 90.4" style="enable-background:new 0 0 504 90.4;" xml:space="preserve">
<g>
	<path d="M52.4,44c2.6-1.3,4.7-3.1,6.1-5.4c1.4-2.3,2.1-4.9,2.1-7.9c0-11.7-6.3-17.6-18.8-17.6H16.9c-1.7,0-3.2,0.6-4.3,1.7
		c-1.2,1.2-1.7,2.6-1.7,4.3v57.2c0,1.7,0.6,3.2,1.7,4.3c1.2,1.2,2.6,1.7,4.3,1.7h24.6c6.2,0,11.5-1.5,16-4.7
		c4.5-3.1,6.7-8.6,6.7-16.4c0-4.5-1.1-8.2-3.3-11C58.7,47.5,55.9,45.4,52.4,44z M23.7,24.8H40c2.4,0,4.3,0.7,5.7,2
		c1.4,1.4,2,3.4,2,6.1c0,2.2-0.7,4-2.2,5.3s-3.2,2-5.2,2H23.7V24.8z M48.8,68.5c-1.7,1.7-4.2,2.5-7.3,2.5H23.7V51.9h17.1
		c3,0,5.5,0.6,7.5,1.8c2,1.2,3.1,3.7,3.1,7.6C51.4,64.5,50.5,66.9,48.8,68.5z"/>
	<path d="M110.6,46.3c2.3-1.3,4.2-3,5.8-5.1s2.3-4.9,2.3-8.2c0-3.6-0.9-7-2.8-10c-1.9-3-4.5-5.4-7.7-7.2c-3.3-1.8-6.9-2.7-10.8-2.7
		s-7.6,0.9-10.8,2.7c-3.3,1.8-5.9,4.2-7.8,7.2c-1.9,3-2.9,6.4-2.9,10c0,3,0.7,5.7,2.2,7.9c1.5,2.2,3.4,4,5.7,5.3
		c-6.4,4-9.6,9.1-9.6,15.4c0,3.8,1,7.2,3.1,10.4s4.9,5.7,8.4,7.5s7.4,2.8,11.6,2.8c4.2,0,8.1-0.9,11.6-2.8c3.5-1.8,6.3-4.4,8.4-7.5
		c2.1-3.2,3.1-6.6,3.1-10.4c0-3-0.9-5.8-2.6-8.6C116.1,50.4,113.7,48.1,110.6,46.3z M90.4,26.6c1.8-1.7,4.1-2.6,6.9-2.6
		c2.7,0,5,0.9,6.8,2.6s2.7,3.9,2.7,6.6c0,2.6-0.9,4.9-2.7,6.6c-1.8,1.8-4.1,2.7-6.8,2.7c-2.8,0-5.1-0.9-6.9-2.6
		c-1.8-1.7-2.7-4-2.7-6.7C87.7,30.6,88.6,28.4,90.4,26.6z M105.3,68.6c-2.2,1.9-4.9,2.9-8,2.9s-5.8-1-8-2.9S86,64.3,86,61.5
		c0-2.8,1.1-5.2,3.3-7.2c2.2-1.9,4.9-2.9,8-2.9s5.8,1,8,2.9s3.3,4.3,3.3,7.2C108.6,64.3,107.5,66.6,105.3,68.6z"/>
	<path d="M165.4,40.6c-3.3-2.1-6.7-3.1-10.1-3.1c-4.2,0-8,1.4-11.3,4.3c1.6-4.2,4.2-7.9,7.8-10.9c3.5-3,7.4-5.1,11.5-6.3
		c1.6-0.5,2.9-1.2,3.8-2.3c1-1.1,1.4-2.4,1.4-3.8c0-1.9-0.6-3.3-1.7-4.2c-1.1-0.9-2.5-1.3-4.3-1.3c-0.7,0-1.5,0.1-2.3,0.3
		c-7.7,2.2-13.7,5.8-18.2,11s-7.5,10.6-9.2,16.4s-2.5,11.1-2.5,15.9c0,4.7,1,9.1,2.9,13.2s4.7,7.5,8.2,10c3.6,2.5,7.6,3.8,12.2,3.8
		c4.2,0,8.1-1,11.6-3.1c3.5-2,6.3-4.8,8.4-8.4c2.1-3.5,3.1-7.4,3.1-11.5s-1.1-7.9-3.2-11.4C171.4,45.5,168.7,42.7,165.4,40.6z
		 M161.6,69c-2.2,2.3-4.8,3.5-7.9,3.5c-3.2,0-5.8-1.2-8-3.5c-2.1-2.3-3.2-5.2-3.2-8.6s1.1-6.3,3.2-8.6c2.1-2.3,4.8-3.5,8-3.5
		c3.1,0,5.7,1.2,7.9,3.5s3.3,5.2,3.3,8.6C164.8,63.9,163.7,66.7,161.6,69z"/>
	<path d="M236.6,46.2h-17.2c-1.7,0-3.2,0.6-4.3,1.7c-1.2,1.1-1.7,2.5-1.7,4.2s0.6,3.1,1.7,4.3c1.2,1.1,2.6,1.7,4.3,1.7h17.2
		c1.7,0,3.2-0.5,4.3-1.6c1.2-1.1,1.7-2.5,1.7-4.1c0-1.7-0.6-3.2-1.7-4.3C239.8,46.8,238.3,46.2,236.6,46.2z"/>
	<path d="M321,70.8h-25.8V19.1c0-1.7-0.6-3.2-1.8-4.3c-1.2-1.2-2.6-1.7-4.3-1.7c-1.8,0-3.4,0.6-4.6,1.7c-1.2,1.2-1.8,2.6-1.8,4.3
		v57.2c0,1.7,0.6,3.2,1.7,4.3c1.2,1.2,2.6,1.7,4.3,1.7h32.2c1.7,0,3.2-0.5,4.3-1.6c1.2-1.1,1.7-2.5,1.7-4.1c0-1.7-0.6-3.1-1.7-4.2
		C324.1,71.4,322.7,70.8,321,70.8z"/>
	<path d="M342.6,29.4c-1.7,0-3.1,0.6-4.3,1.7c-1.1,1.2-1.7,2.6-1.7,4.3v40.9c0,1.7,0.6,3.2,1.7,4.3c1.1,1.2,2.5,1.7,4.3,1.7
		c1.7,0,3.1-0.6,4.3-1.7c1.1-1.2,1.7-2.6,1.7-4.3V35.4c0-1.7-0.6-3.2-1.7-4.3C345.8,30,344.4,29.4,342.6,29.4z"/>
	<path d="M342.6,11.2c-2.2,0-3.8,0.4-4.8,1.1s-1.5,2-1.5,3.9v1.9c0,1.8,0.5,3.1,1.4,3.9c0.9,0.7,2.5,1.1,4.8,1.1s3.9-0.3,4.9-1
		s1.4-2,1.4-3.9v-1.9c0-1.8-0.5-3.1-1.4-3.9C346.6,11.6,344.9,11.2,342.6,11.2z"/>
	<path d="M367.8,9.1c-1.7,0-3.2,0.6-4.3,1.7c-1.2,1.2-1.7,2.6-1.7,4.3v61.2c0,1.7,0.6,3.2,1.7,4.3c1.1,1.2,2.5,1.7,4.2,1.7
		s3.2-0.6,4.3-1.7c1.2-1.2,1.7-2.6,1.7-4.3V15.1c0-1.7-0.6-3.2-1.7-4.3C370.8,9.7,369.4,9.1,367.8,9.1z"/>
	<path d="M430.3,28.5c-1.7,0-3.1,0.6-4.3,1.7c-1.1,1.2-1.7,2.6-1.7,4.3v0.1c-1.9-1.8-4.3-3.2-7-4.4c-2.8-1.2-5.7-1.7-8.9-1.7
		c-4.4,0-8.5,1.2-12.1,3.5c-3.7,2.3-6.6,5.6-8.7,9.8c-2.1,4.2-3.2,8.9-3.2,14.2c0,5.3,1.1,10,3.2,14.2c2.1,4.2,5.1,7.4,8.8,9.8
		c3.7,2.3,7.8,3.5,12.4,3.5c3.1,0,6.1-0.7,8.9-2c2.8-1.4,5-3,6.7-4.9c0.1,1.7,0.6,3.1,1.7,4.3c1.1,1.1,2.5,1.7,4.2,1.7
		s3.1-0.6,4.3-1.7c1.1-1.2,1.7-2.6,1.7-4.3V34.7c0-1.8-0.6-3.2-1.7-4.4C433.5,29,432.1,28.5,430.3,28.5z M420.8,67.8
		c-2.7,3.1-6.2,4.7-10.5,4.7s-7.8-1.6-10.4-4.7c-2.7-3.1-4-7.1-4-11.8s1.4-8.7,4.1-11.9c2.7-3.2,6.2-4.8,10.4-4.8
		c4.3,0,7.8,1.6,10.5,4.8c2.7,3.2,4.1,7.1,4.1,11.9S423.6,64.7,420.8,67.8z"/>
	<path d="M490.1,70.3c-1-1.1-2.3-1.6-3.9-1.6c-0.9,0-1.6,0.1-2.2,0.4s-1.2,0.6-1.9,1.1c-0.7,0.5-1.2,0.8-1.6,1
		c-1.6,0.8-4,1.2-7.2,1.2c-4.4,0-8.1-1.6-10.9-4.7s-4.3-7.1-4.3-11.8c0-4.9,1.4-9,4.2-12c2.8-3.1,6.7-4.6,11.6-4.6
		c0.8,0,1.8,0.1,3.1,0.4c1.3,0.3,2.3,0.6,2.9,0.9s1.2,0.7,1.8,1.2c0.6,0.5,1.3,0.9,1.9,1.2c0.7,0.3,1.5,0.4,2.6,0.4
		c1.4,0,2.5-0.5,3.4-1.6s1.3-2.4,1.3-3.8c0-2.9-1.7-5.2-5.1-7c-3.4-1.7-8-2.6-13.6-2.6c-5,0-9.5,1.2-13.5,3.5s-7,5.6-9.3,9.8
		c-2.2,4.2-3.3,8.9-3.3,14.3c0,5.1,1.1,9.8,3.2,14s5.1,7.5,9,9.9s8.3,3.6,13.4,3.6c3.4,0,6.7-0.4,9.7-1.2c3-0.8,5.5-1.9,7.3-3.3
		s2.8-2.9,2.8-4.5C491.5,72.7,491,71.4,490.1,70.3z"/>
</g>
</svg>
