<?xml version="1.0" encoding="utf-8"?>
<!-- Generator: Adobe Illustrator 27.9.0, SVG Export Plug-In . SVG Version: 6.00 Build 0)  -->
<svg version="1.1" id="Layer_1" xmlns="http://www.w3.org/2000/svg" xmlns:xlink="http://www.w3.org/1999/xlink" x="0px" y="0px"
	 viewBox="0 0 517.4 83.7" style="enable-background:new 0 0 517.4 83.7;" xml:space="preserve">
<g>
	<path d="M51.3,65.1H30.9l12.6-13.4c3.6-3.9,6.5-8,8.7-12.2c2.1-4.3,3.2-8.4,3.2-12.4c0-4.1-0.9-7.8-2.7-11
		c-1.8-3.2-4.3-5.8-7.6-7.6C41.8,6.7,38,5.7,33.6,5.7c-3,0-6.2,0.8-9.5,2.3s-6.2,3.5-8.7,6c-1.3,1.3-2.3,2.5-3,3.5s-1,2-1,3
		c0,1.4,0.6,2.6,1.8,3.8c1.2,1.1,2.6,1.7,4,1.7c1.8,0,3.4-0.8,4.6-2.4c1.6-2.1,3.3-3.8,5.3-5.1c1.9-1.3,3.9-1.9,5.8-1.9
		c2.8,0,5.2,1.1,7.3,3.3c2.1,2.2,3.2,4.8,3.2,7.7c0,2.2-0.7,4.7-2.1,7.4c-1.4,2.7-3.4,5.3-5.8,8L13.9,66.1c-1.2,1.3-1.8,2.7-1.8,4.4
		c0,1.7,0.5,3,1.5,4.1s2.3,1.6,4.1,1.6h33.7c1.6,0,2.9-0.5,4-1.5s1.6-2.3,1.6-3.8c0-1.6-0.5-2.9-1.6-4
		C54.2,65.6,52.8,65.1,51.3,65.1z"/>
	<path d="M98.8,32.5c-3.5-2-7.5-3-11.8-3c-1.7,0-3.5,0.2-5.4,0.7s-3.5,1.1-4.8,1.8l1.9-14.4h24.5c1.6,0,2.9-0.5,4-1.5
		s1.6-2.3,1.6-3.8c0-1.6-0.5-2.9-1.6-4s-2.4-1.6-4-1.6H74.6c-1.5,0-2.8,0.4-3.9,1.3s-1.8,2-2,3.4L65.6,36c-0.1,0.3-0.1,0.7-0.1,1.4
		c0,1.9,0.5,3.6,1.6,4.9s2.9,2.1,5.5,2.1c0.7,0,1.4-0.1,2.1-0.4s1.6-0.7,2.8-1.3c1.6-0.8,3.1-1.4,4.3-1.8s2.5-0.6,4.1-0.6
		c3.4,0,6.3,1.1,8.7,3.4c2.4,2.2,3.7,5.1,3.7,8.7c0,2.4-0.7,4.7-2.1,6.8c-1.4,2.1-3.3,3.8-5.7,5c-2.4,1.3-4.9,1.9-7.6,1.9
		c-2.1,0-4.6-0.9-7.3-2.6c-1.8-1.3-3.3-1.9-4.5-1.9c-1.7,0-3,0.5-4,1.4c-1,1-1.5,2-1.5,3.2c0,1.1,0.3,2.2,0.8,3.4
		c0.5,1.2,1.2,2.1,2,2.8c1.7,1.4,3.9,2.5,6.7,3.3c2.7,0.8,5.4,1.2,8,1.2c4.8,0,9.3-1.1,13.5-3.3c4.2-2.2,7.5-5.2,10-9
		c2.5-3.8,3.8-7.9,3.8-12.3c0-4.3-1-8.2-3-11.7C105.1,37.3,102.4,34.5,98.8,32.5z"/>
	<path d="M156.2,32.5c-3.5-2-7.5-3-11.8-3c-1.7,0-3.5,0.2-5.4,0.7s-3.5,1.1-4.8,1.8l1.9-14.4h24.6c1.6,0,2.9-0.5,4-1.5
		s1.6-2.3,1.6-3.8c0-1.6-0.5-2.9-1.6-4s-2.4-1.6-4-1.6h-28.6c-1.5,0-2.8,0.4-3.9,1.3s-1.8,2-2,3.4L123.1,36
		c-0.1,0.3-0.1,0.7-0.1,1.4c0,1.9,0.5,3.6,1.6,4.9c1.1,1.4,2.9,2.1,5.5,2.1c0.7,0,1.4-0.1,2.1-0.4c0.7-0.3,1.6-0.7,2.8-1.3
		c1.6-0.8,3.1-1.4,4.3-1.8s2.5-0.6,4.1-0.6c3.4,0,6.3,1.1,8.7,3.4c2.4,2.2,3.7,5.1,3.7,8.7c0,2.4-0.7,4.7-2.1,6.8
		c-1.4,2.1-3.3,3.8-5.7,5c-2.4,1.3-4.9,1.9-7.6,1.9c-2.1,0-4.6-0.9-7.3-2.6c-1.8-1.3-3.3-1.9-4.5-1.9c-1.7,0-3,0.5-4,1.4
		c-1,1-1.5,2-1.5,3.2c0,1.1,0.3,2.2,0.8,3.4c0.5,1.2,1.2,2.1,2,2.8c1.7,1.4,3.9,2.5,6.7,3.3c2.7,0.8,5.4,1.2,8,1.2
		c4.8,0,9.3-1.1,13.5-3.3c4.2-2.2,7.5-5.2,10-9c2.5-3.8,3.8-7.9,3.8-12.3c0-4.3-1-8.2-3-11.7C162.5,37.3,159.7,34.5,156.2,32.5z"/>
	<path d="M197.2,6.7c-1.7,0-3.1,0.3-4.3,0.9L178,16.5c-0.9,0.5-1.7,1.3-2.2,2.2c-0.6,0.9-0.8,1.9-0.8,3c0,1.5,0.6,2.9,1.7,4.2
		c1.2,1.3,2.6,1.9,4.2,1.9c1.1,0,2.2-0.3,3.2-0.9l6.1-3.8V70c0,1.7,0.6,3.2,1.8,4.3c1.2,1.2,2.7,1.7,4.6,1.7c1.8,0,3.4-0.6,4.7-1.7
		c1.3-1.2,1.9-2.6,1.9-4.3V12.8c0-1.7-0.6-3.2-1.7-4.3C200.2,7.3,198.8,6.7,197.2,6.7z"/>
	<path d="M266.4,39.8h-17.2c-1.7,0-3.2,0.6-4.3,1.7c-1.2,1.1-1.7,2.5-1.7,4.2s0.6,3.1,1.7,4.3c1.2,1.1,2.6,1.7,4.3,1.7h17.2
		c1.7,0,3.2-0.5,4.3-1.6c1.2-1.1,1.7-2.5,1.7-4.1c0-1.7-0.6-3.2-1.7-4.3C269.5,40.3,268.1,39.8,266.4,39.8z"/>
	<path d="M372.6,6.6c-0.9,0-1.8,0.2-2.7,0.7c-0.9,0.5-1.6,1.1-2.1,1.9l-22.2,33.2L324,9.2c-0.5-0.8-1.3-1.4-2.3-1.9s-2-0.7-3-0.7
		c-1.7,0-3.2,0.6-4.4,1.8c-1.2,1.2-1.8,2.6-1.8,4.3V70c0,1.7,0.5,3.2,1.6,4.3c1.1,1.2,2.4,1.7,4.1,1.7s3.1-0.6,4.2-1.7
		s1.6-2.6,1.6-4.4V29.1l16.3,25.8c0.7,0.8,1.4,1.4,2.3,1.9s1.7,0.7,2.6,0.6c0.9,0.1,1.8-0.1,2.7-0.6c0.9-0.5,1.6-1.1,2.3-1.9
		L366.5,30v39.9c0,1.8,0.6,3.2,1.7,4.4c1.2,1.1,2.7,1.7,4.5,1.7s3.3-0.6,4.5-1.7c1.1-1.2,1.7-2.6,1.7-4.3V12.7
		c0-1.7-0.6-3.2-1.8-4.3C375.7,7.2,374.3,6.6,372.6,6.6z"/>
	<path d="M397.9,4.8c-2.2,0-3.8,0.4-4.8,1.1s-1.5,2-1.5,3.9v1.9c0,1.8,0.5,3.1,1.4,3.9c0.9,0.7,2.5,1.1,4.8,1.1s3.9-0.3,4.9-1
		c1-0.7,1.4-2,1.4-3.9V9.9c0-1.8-0.5-3.1-1.4-3.9C401.8,5.2,400.2,4.8,397.9,4.8z"/>
	<path d="M397.9,23c-1.7,0-3.1,0.6-4.3,1.7c-1.1,1.2-1.7,2.6-1.7,4.3v40.9c0,1.7,0.6,3.2,1.7,4.3c1.1,1.2,2.5,1.7,4.3,1.7
		c1.7,0,3.1-0.6,4.3-1.7c1.1-1.2,1.7-2.6,1.7-4.3V29.1c0-1.7-0.6-3.2-1.7-4.3C401,23.6,399.6,23,397.9,23z"/>
	<path d="M444.3,22c-3.4,0-6.6,0.9-9.5,2.6s-5.2,3.8-7,6.1v-1.6c0-1.7-0.6-3.2-1.7-4.3c-1.1-1.2-2.5-1.7-4.3-1.7
		c-1.7,0-3.1,0.6-4.3,1.7c-1.1,1.2-1.7,2.6-1.7,4.3V70c0,1.7,0.6,3.2,1.7,4.3c1.1,1.2,2.5,1.7,4.3,1.7c1.7,0,3.1-0.6,4.3-1.7
		c1.1-1.2,1.7-2.6,1.7-4.3V44.7c0-3.4,1.1-6.2,3.3-8.4c2.2-2.2,5.2-3.3,9-3.3c3.7,0,6.3,1,7.8,3.1s2.3,4.9,2.3,8.6V70
		c0,1.7,0.6,3.2,1.7,4.3c1.1,1.2,2.5,1.7,4.3,1.7c1.7,0,3.1-0.6,4.3-1.7c1.1-1.2,1.7-2.6,1.7-4.3V44.7c0-7.1-1.3-12.6-3.9-16.6
		C455.7,24,451,22,444.3,22z"/>
	<path d="M500.5,64.8c-0.7,0-1.5,0.2-2.3,0.5c-0.9,0.3-1.7,0.4-2.2,0.4c-1.3,0-2.2-0.3-3-0.9c-0.7-0.6-1.1-1.6-1.1-3V35h7
		c1.6,0,2.9-0.5,4-1.5s1.6-2.3,1.6-3.8c0-1.6-0.5-2.9-1.6-4s-2.4-1.6-4-1.6h-7v-6.3c0-1.7-0.6-3.2-1.7-4.3c-1.1-1.2-2.5-1.7-4.2-1.7
		s-3.2,0.6-4.3,1.7c-1.2,1.2-1.7,2.6-1.7,4.3v6.3h-4.6c-1.6,0-2.9,0.5-4,1.5s-1.6,2.3-1.6,3.8c0,1.6,0.5,2.9,1.6,4s2.4,1.6,4,1.6
		h4.6v27.3c0,5.7,1.4,9.4,4.2,11.1s6.3,2.6,10.3,2.6c2.4,0,4.6-0.6,6.6-1.8c1.9-1.2,2.9-2.7,2.9-4.5c0-1.5-0.4-2.6-1.1-3.5
		C502.3,65.3,501.4,64.8,500.5,64.8z"/>
</g>
</svg>
