<?xml version="1.0" encoding="utf-8"?>
<!-- Generator: Adobe Illustrator 27.9.0, SVG Export Plug-In . SVG Version: 6.00 Build 0)  -->
<svg version="1.1" id="Layer_1" xmlns="http://www.w3.org/2000/svg" xmlns:xlink="http://www.w3.org/1999/xlink" x="0px" y="0px"
	 viewBox="0 0 647.5 119.3" style="enable-background:new 0 0 647.5 119.3;" xml:space="preserve">
<g>
	<path d="M57,48.2c2.6-1.3,4.7-3.1,6.1-5.4c1.4-2.3,2.1-4.9,2.1-7.9c0-11.7-6.3-17.6-18.8-17.6H21.5c-1.7,0-3.2,0.6-4.3,1.7
		c-1.2,1.2-1.7,2.6-1.7,4.3v57.2c0,1.7,0.6,3.2,1.7,4.3c1.2,1.2,2.6,1.7,4.3,1.7h24.7c6.2,0,11.5-1.6,16-4.7s6.7-8.6,6.7-16.4
		c0-4.5-1.1-8.2-3.3-11C63.3,51.7,60.5,49.6,57,48.2z M28.3,29h16.3c2.4,0,4.3,0.7,5.7,2c1.4,1.4,2,3.4,2,6.1c0,2.2-0.7,4-2.2,5.3
		s-3.2,2-5.2,2H28.3V29z M53.4,72.8c-1.7,1.7-4.2,2.5-7.3,2.5H28.3V56.2h17.1c3,0,5.5,0.6,7.5,1.8c2,1.2,3.1,3.7,3.1,7.6
		C56,68.7,55.1,71.1,53.4,72.8z"/>
	<path d="M111.9,43.1c-3.5-2-7.5-3-11.8-3c-1.7,0-3.5,0.2-5.4,0.7s-3.5,1.1-4.8,1.8l1.9-14.4h24.6c1.6,0,2.9-0.5,4-1.5
		s1.6-2.3,1.6-3.8c0-1.6-0.5-2.9-1.6-4s-2.4-1.6-4-1.6H87.7c-1.5,0-2.8,0.4-3.9,1.3s-1.8,2-2,3.4l-3.1,24.6
		c-0.1,0.3-0.1,0.7-0.1,1.4c0,1.9,0.5,3.6,1.6,5s2.9,2.1,5.5,2.1c0.7,0,1.4-0.1,2.1-0.4c0.7-0.3,1.6-0.7,2.8-1.3
		c1.6-0.8,3.1-1.4,4.3-1.8S97.4,51,99,51c3.4,0,6.3,1.1,8.7,3.4c2.4,2.2,3.7,5.1,3.7,8.7c0,2.4-0.7,4.7-2.1,6.8
		c-1.4,2.1-3.3,3.8-5.7,5s-4.9,1.9-7.6,1.9c-2.1,0-4.6-0.9-7.3-2.6c-1.8-1.3-3.3-1.9-4.5-1.9c-1.7,0-3,0.5-4,1.4c-1,1-1.5,2-1.5,3.2
		c0,1.1,0.3,2.2,0.8,3.4c0.5,1.2,1.2,2.1,2,2.8c1.7,1.4,3.9,2.5,6.7,3.3c2.7,0.8,5.4,1.2,8,1.2c4.8,0,9.3-1.1,13.5-3.3
		c4.2-2.2,7.5-5.2,10-9s3.8-7.9,3.8-12.3c0-4.3-1-8.2-3-11.7C118.2,47.9,115.4,45.1,111.9,43.1z"/>
	<path d="M169.2,43.1c-3.5-2-7.5-3-11.8-3c-1.7,0-3.5,0.2-5.4,0.7s-3.5,1.1-4.8,1.8l1.9-14.4h24.6c1.6,0,2.9-0.5,4-1.5
		s1.6-2.3,1.6-3.8c0-1.6-0.5-2.9-1.6-4s-2.4-1.6-4-1.6h-28.6c-1.5,0-2.8,0.4-3.9,1.3s-1.8,2-2,3.4l-3.1,24.6
		c-0.1,0.3-0.1,0.7-0.1,1.4c0,1.9,0.5,3.6,1.6,5s2.9,2.1,5.5,2.1c0.7,0,1.4-0.1,2.1-0.4c0.7-0.3,1.6-0.7,2.8-1.3
		c1.6-0.8,3.1-1.4,4.3-1.8s2.5-0.6,4.1-0.6c3.4,0,6.3,1.1,8.7,3.4c2.4,2.2,3.7,5.1,3.7,8.7c0,2.4-0.7,4.7-2.1,6.8
		c-1.4,2.1-3.3,3.8-5.7,5s-4.9,1.9-7.6,1.9c-2.1,0-4.6-0.9-7.3-2.6c-1.8-1.3-3.3-1.9-4.5-1.9c-1.7,0-3,0.5-4,1.4c-1,1-1.5,2-1.5,3.2
		c0,1.1,0.3,2.2,0.8,3.4c0.5,1.2,1.2,2.1,2,2.8c1.7,1.4,3.9,2.5,6.7,3.3c2.7,0.8,5.4,1.2,8,1.2c4.8,0,9.3-1.1,13.5-3.3s7.5-5.2,10-9
		s3.8-7.9,3.8-12.3c0-4.3-1-8.2-3-11.7C175.5,47.9,172.7,45.1,169.2,43.1z"/>
	<path d="M243.4,50.4h-17.2c-1.7,0-3.2,0.6-4.3,1.7c-1.2,1.1-1.7,2.5-1.7,4.2s0.6,3.1,1.7,4.3c1.2,1.1,2.6,1.7,4.3,1.7h17.2
		c1.7,0,3.2-0.5,4.3-1.6c1.2-1.1,1.7-2.5,1.7-4.1c0-1.7-0.6-3.2-1.7-4.3C246.6,51,245.1,50.4,243.4,50.4z"/>
	<path d="M336.9,21.1c-5.1-3.2-10.9-4.8-17.3-4.8c-6.4,0-12.2,1.6-17.3,4.8c-5.1,3.2-9.1,7.5-12,12.9S286,45.4,286,52
		c0,6.5,1.4,12.5,4.3,18s6.9,9.8,12,12.9c5.1,3.2,10.9,4.8,17.3,4.8c6.4,0,12.2-1.6,17.3-4.8c5.1-3.2,9.1-7.5,12-12.9
		s4.4-11.4,4.4-18c0-6.5-1.5-12.5-4.4-18C346,28.6,342,24.3,336.9,21.1z M337.8,64c-1.8,3.6-4.3,6.5-7.4,8.6
		c-3.2,2.1-6.7,3.2-10.7,3.2s-7.6-1-10.7-3.1c-3.1-2.1-5.6-4.9-7.3-8.6c-1.7-3.6-2.6-7.7-2.6-12.1s0.9-8.4,2.6-12.1
		c1.7-3.6,4.2-6.5,7.3-8.6s6.7-3.1,10.7-3.1s7.5,1.1,10.7,3.2s5.6,5,7.4,8.6c1.8,3.6,2.7,7.6,2.7,12C340.4,56.4,339.5,60.4,337.8,64
		z"/>
	<path d="M396.2,34.4c-1.4-1.1-3-1.7-5-1.7c-3.2,0-6.3,0.7-9.1,2.1s-5,3.5-6.5,6.2v-1.3c0-1.7-0.6-3.2-1.7-4.3
		c-1.1-1.2-2.5-1.7-4.3-1.7c-1.7,0-3.1,0.6-4.3,1.7c-1.1,1.2-1.7,2.6-1.7,4.3v40.9c0,1.7,0.6,3.2,1.7,4.3c1.1,1.2,2.5,1.7,4.3,1.7
		c1.7,0,3.1-0.6,4.3-1.7c1.1-1.2,1.7-2.6,1.7-4.3V57.1c0-3,0.5-5.5,1.5-7.7c1-2.1,2.3-3.7,3.9-4.8c1.6-1.1,3.2-1.6,5-1.6
		c0.8,0,1.5,0.1,2.2,0.3c0.7,0.2,1.1,0.3,1.3,0.4c1.3,0.5,2.4,0.7,3.4,0.7c1.5,0,2.7-0.5,3.8-1.5s1.6-2.6,1.6-4.6
		C398.2,36.8,397.6,35.5,396.2,34.4z"/>
	<path d="M448.3,32.7c-1.7,0-3.1,0.6-4.3,1.7c-1.1,1.2-1.7,2.6-1.7,4.3v0.1c-1.9-1.8-4.3-3.2-7-4.4c-2.8-1.2-5.7-1.7-8.9-1.7
		c-4.4,0-8.5,1.2-12.1,3.5c-3.7,2.3-6.6,5.6-8.7,9.8c-2.1,4.2-3.2,8.9-3.2,14.2c0,5.3,1.1,10,3.2,14.2c2.1,4.2,5.1,7.4,8.8,9.8
		c3.7,2.3,7.8,3.5,12.4,3.5c3.1,0,6.1-0.7,8.9-2c2.8-1.4,5-3,6.7-4.9c0.1,1.7,0.6,3.1,1.7,4.3c1.1,1.1,2.5,1.7,4.2,1.7
		s3.1-0.6,4.3-1.7c1.1-1.2,1.7-2.6,1.7-4.3V38.9c0-1.8-0.6-3.2-1.7-4.4C451.5,33.2,450.1,32.7,448.3,32.7z M438.8,72
		c-2.7,3.1-6.2,4.7-10.5,4.7s-7.8-1.6-10.4-4.7c-2.7-3.1-4-7.1-4-11.8s1.4-8.7,4.1-11.9c2.7-3.2,6.2-4.8,10.4-4.8
		c4.3,0,7.8,1.6,10.5,4.8c2.7,3.2,4.1,7.1,4.1,11.9S441.5,68.9,438.8,72z"/>
	<path d="M495.5,32.7c-3.4,0-6.6,0.9-9.5,2.6s-5.2,3.8-7,6.1v-1.7c0-1.7-0.6-3.2-1.7-4.3c-1.1-1.2-2.5-1.7-4.3-1.7
		c-1.7,0-3.1,0.6-4.3,1.7c-1.1,1.2-1.7,2.6-1.7,4.3v40.9c0,1.7,0.6,3.2,1.7,4.3c1.1,1.2,2.5,1.7,4.3,1.7c1.7,0,3.1-0.6,4.3-1.7
		c1.1-1.2,1.7-2.6,1.7-4.3V55.3c0-3.4,1.1-6.2,3.3-8.4c2.2-2.2,5.2-3.3,9-3.3c3.7,0,6.3,1,7.8,3.1s2.3,4.9,2.3,8.6v25.3
		c0,1.7,0.6,3.2,1.7,4.3c1.1,1.2,2.5,1.7,4.3,1.7c1.7,0,3.1-0.6,4.3-1.7c1.1-1.2,1.7-2.6,1.7-4.3V55.3c0-7.1-1.3-12.6-3.9-16.6
		S502.2,32.7,495.5,32.7z"/>
	<path d="M570,32.7c-1.7,0-3.1,0.6-4.3,1.7c-1.1,1.2-1.7,2.6-1.7,4.3v1.1c-1.8-2-4.1-3.7-7-5c-2.9-1.4-6-2.1-9.4-2.1
		c-4.6,0-8.7,1.2-12.4,3.5c-3.7,2.3-6.7,5.6-8.8,9.8c-2.1,4.2-3.2,8.9-3.2,14.2c0,5.3,1.1,10,3.3,14.2c2.2,4.2,5.2,7.4,9,9.8
		c3.8,2.3,8,3.5,12.6,3.5c3.4,0,6.5-0.8,9.5-2.5c2.9-1.6,5.1-3.5,6.6-5.5v4.8c0,3.6-1.2,6.3-3.6,8.3c-2.4,1.9-6.1,2.9-10.9,2.9
		c-2.4,0-5.2-0.6-8.2-1.7c-3-1.2-4.6-1.8-4.9-1.8c-0.6-0.2-1.2-0.3-1.9-0.3c-1.1,0-2.2,0.4-3.1,1.1c-1,0.8-1.6,1.9-2,3.3
		c-0.2,0.6-0.3,1.1-0.3,1.6c0,2.4,1.6,4.4,4.9,5.7c1.5,0.7,3.9,1.3,7.4,2s6.2,1,8.2,1c7.7,0,14-1.9,19-5.8s7.5-9.8,7.5-17.9V38.8
		c0-1.8-0.6-3.2-1.7-4.4C573.1,33.2,571.7,32.7,570,32.7z M560.4,72c-2.8,3.1-6.4,4.7-10.8,4.7s-8-1.6-10.8-4.7s-4.2-7.1-4.2-11.8
		s1.4-8.7,4.2-11.9c2.8-3.2,6.4-4.8,10.8-4.8s8,1.6,10.8,4.8c2.8,3.2,4.2,7.1,4.2,11.9S563.2,68.9,560.4,72z"/>
	<path d="M632.5,62.8c1.2-1,1.8-2.3,1.9-3.9c0-4.7-1.2-9-3.5-13.1c-2.3-4-5.4-7.2-9.3-9.6s-8-3.6-12.3-3.6c-4.4,0-8.6,1.1-12.5,3.4
		s-7,5.6-9.4,9.9s-3.6,9.3-3.6,14.9c0,5.1,1.1,9.7,3.4,13.7c2.2,4.1,5.4,7.2,9.6,9.6c4.1,2.3,9,3.5,14.5,3.5c3.2,0,6.3-0.5,9.4-1.6
		s5.6-2.3,7.4-3.9c1.8-1.5,2.8-3.1,2.8-4.9c0-1.3-0.5-2.5-1.5-3.5s-2.2-1.5-3.6-1.5c-1.1,0-2.2,0.3-3.4,0.9
		c-0.3,0.2-0.9,0.6-1.8,1.1c-0.9,0.6-2.1,1.1-3.6,1.6s-3.6,0.7-6.3,0.7c-3.6,0-6.8-1.1-9.6-3.3c-2.8-2.2-4.7-5.3-5.4-9.2h32.7
		C629.9,64.2,631.3,63.8,632.5,62.8z M621.7,54.3h-26c1.4-7.2,5.9-10.8,13.6-10.8c3.1,0,5.9,1,8.3,3s3.8,4.4,4.1,7.1V54.3z"/>
</g>
</svg>
