<?xml version="1.0" encoding="utf-8"?>
<!-- Generator: Adobe Illustrator 27.9.0, SVG Export Plug-In . SVG Version: 6.00 Build 0)  -->
<svg version="1.1" id="Layer_1" xmlns="http://www.w3.org/2000/svg" xmlns:xlink="http://www.w3.org/1999/xlink" x="0px" y="0px"
	 viewBox="0 0 824.1 88.3" style="enable-background:new 0 0 824.1 88.3;" xml:space="preserve">
<g>
	<path d="M57.3,39.8c2.6-1.3,4.7-3.1,6.1-5.4c1.4-2.3,2.1-4.9,2.1-7.9c0-11.7-6.3-17.6-18.8-17.6H21.8c-1.7,0-3.2,0.6-4.3,1.7
		c-1.2,1.2-1.7,2.6-1.7,4.3v57.2c0,1.7,0.6,3.2,1.7,4.3c1.2,1.2,2.6,1.7,4.3,1.7h24.7c6.2,0,11.5-1.5,16-4.7
		c4.5-3.1,6.7-8.6,6.7-16.4c0-4.5-1.1-8.2-3.3-11C63.6,43.3,60.8,41.2,57.3,39.8z M28.5,20.6h16.3c2.4,0,4.3,0.7,5.7,2
		c1.4,1.4,2,3.4,2,6.1c0,2.2-0.7,4-2.2,5.3s-3.2,2-5.2,2H28.5V20.6z M53.6,64.4c-1.7,1.7-4.2,2.5-7.3,2.5H28.5V47.8h17.1
		c3,0,5.5,0.6,7.5,1.8c2,1.2,3.1,3.7,3.1,7.6C56.3,60.3,55.4,62.8,53.6,64.4z"/>
	<path d="M129.7,48.6h-4.2V15c0-1.7-0.6-3.2-1.7-4.3c-1.1-1.2-2.5-1.7-4.2-1.7c-2,0-3.7,0.8-4.9,2.4L83.4,49.7c-1,1.2-1.5,2.5-1.5,4
		c0,1.6,0.6,3,1.9,4.1c1.3,1.2,2.6,1.7,4.1,1.7h25.7v12.8c0,1.7,0.6,3.2,1.7,4.3c1.1,1.2,2.5,1.7,4.2,1.7s3.2-0.6,4.3-1.7
		c1.2-1.2,1.7-2.6,1.7-4.3V59.5h4.2c1.6,0,2.9-0.5,4-1.5s1.6-2.3,1.6-3.8c0-1.6-0.5-2.9-1.6-4C132.6,49.1,131.3,48.6,129.7,48.6z
		 M113.7,48.6h-16l16-19.8V48.6z"/>
	<path d="M193.6,10.6c-1.3-1.1-2.8-1.6-4.5-1.6h-34.5c-1.6,0-2.9,0.5-4,1.5s-1.6,2.3-1.6,3.8c0,1.6,0.5,2.9,1.6,4s2.4,1.6,4,1.6
		h26.3l-23.1,50.5c-0.4,0.9-0.6,1.7-0.6,2.7c0,1.6,0.6,2.9,1.8,4.1c1.2,1.1,2.7,1.7,4.3,1.7c1.2,0,2.3-0.3,3.3-1s1.7-1.6,2.2-2.8
		l26-57.5c0.4-0.9,0.6-1.8,0.6-2.7C195.6,13.1,194.9,11.7,193.6,10.6z"/>
	<path d="M255.4,42h-17.2c-1.7,0-3.2,0.6-4.3,1.7c-1.2,1.1-1.7,2.5-1.7,4.2s0.6,3.1,1.7,4.3c1.2,1.1,2.6,1.7,4.3,1.7h17.2
		c1.7,0,3.2-0.5,4.3-1.6c1.2-1.1,1.7-2.5,1.7-4.1c0-1.7-0.6-3.2-1.7-4.3C258.6,42.6,257.2,42,255.4,42z"/>
	<path d="M339.8,12c-3-2-6.2-3-9.6-3h-22.6c-1.7,0-3.2,0.6-4.3,1.7c-1.2,1.2-1.7,2.6-1.7,4.3v57.2c0,1.7,0.5,3.2,1.6,4.3
		c1.1,1.2,2.4,1.7,4.1,1.7c1.7,0,3.1-0.6,4.2-1.7c1.1-1.1,1.6-2.6,1.6-4.4V53.4h17.2c3.4,0,6.6-1,9.6-3s5.5-4.7,7.3-8.2
		c1.8-3.4,2.8-7.1,2.8-11.1s-0.9-7.7-2.8-11.1C345.3,16.7,342.8,14,339.8,12z M336.9,36.5c-0.8,1.7-1.8,3.1-3,4.1
		c-1.2,1.1-2.5,1.6-3.7,1.6H313V20.3h17.2c1.3,0,2.5,0.5,3.7,1.5s2.2,2.4,3,4.1s1.1,3.4,1.1,5.3C338,33.1,337.6,34.8,336.9,36.5z"/>
	<path d="M402.7,24.3c-1.7,0-3.1,0.6-4.3,1.7c-1.1,1.2-1.7,2.6-1.7,4.3v0.1c-1.9-1.8-4.3-3.2-7-4.4c-2.8-1.2-5.7-1.7-8.9-1.7
		c-4.4,0-8.5,1.2-12.1,3.5c-3.7,2.3-6.6,5.6-8.7,9.8c-2.1,4.2-3.2,8.9-3.2,14.2c0,5.3,1.1,10,3.2,14.2c2.1,4.2,5.1,7.4,8.8,9.8
		c3.7,2.3,7.8,3.5,12.4,3.5c3.1,0,6.1-0.7,8.9-2c2.8-1.4,5-3,6.7-4.9c0.1,1.7,0.6,3.1,1.7,4.3c1.1,1.1,2.5,1.7,4.2,1.7
		s3.1-0.6,4.3-1.7c1.1-1.2,1.7-2.6,1.7-4.3V30.5c0-1.8-0.6-3.2-1.7-4.4C405.8,24.9,404.4,24.3,402.7,24.3z M393.2,63.7
		c-2.7,3.1-6.2,4.7-10.5,4.7s-7.8-1.6-10.4-4.7c-2.7-3.1-4-7.1-4-11.8s1.4-8.7,4.1-11.9c2.7-3.2,6.2-4.8,10.4-4.8
		c4.3,0,7.8,1.6,10.5,4.8c2.7,3.2,4.1,7.1,4.1,11.9S395.9,60.5,393.2,63.7z"/>
	<path d="M450.8,49.9c-2.4-1.1-5.3-2.1-8.9-3.1c-2.6-0.7-4.6-1.3-6-1.8s-2.6-1.2-3.5-2.1s-1.4-2.1-1.4-3.5c0-3.6,2.5-5.4,7.5-5.4
		c2.4,0,4.5,0.4,6.4,1.3s3.4,2,4.6,3.5c0.9,0.9,2.1,1.4,3.6,1.4c1.2,0,2.2-0.4,3.2-1.1c1.3-1,1.9-2.2,1.9-3.8c0-1.3-0.4-2.5-1.3-3.6
		c-1.9-2.4-4.6-4.3-7.9-5.5c-3.4-1.3-6.7-1.9-10.1-1.9c-3.3,0-6.4,0.6-9.4,1.9c-2.9,1.3-5.3,3.1-7.1,5.4s-2.7,5.1-2.7,8.3
		c0,3.6,0.9,6.5,2.6,8.7c1.7,2.1,3.8,3.7,6.2,4.8c2.4,1.1,5.5,2.1,9.4,3.2c3.7,1,6.4,2,8.2,3c1.7,1,2.6,2.4,2.6,4.4
		c0,3.7-2.6,5.6-7.7,5.8c-3,0-5.6-0.5-7.8-1.5c-2.1-1-4.2-2.5-6.2-4.6c-1.3-1.3-2.6-1.9-4-1.9c-1,0-1.9,0.3-2.9,0.9
		c-1.7,1.2-2.6,2.6-2.6,4.4c0,1.2,0.3,2.2,0.9,3c2.4,3.2,5.4,5.6,9.2,7c3.8,1.5,7.8,2.2,12.2,2.2c3.2,0,6.3-0.6,9.3-1.9
		s5.5-3.1,7.4-5.5s2.9-5.2,2.9-8.5c0-3.6-0.8-6.4-2.5-8.6C455.2,52.6,453.2,51,450.8,49.9z"/>
	<path d="M493.2,37.2c1.6,0,2.9-0.5,4-1.5s1.6-2.3,1.6-3.8c0-1.6-0.5-2.9-1.6-4s-2.4-1.6-4-1.6h-7V20c0-1.7-0.6-3.2-1.7-4.3
		c-1.1-1.2-2.5-1.7-4.2-1.7s-3.2,0.6-4.3,1.7c-1.2,1.2-1.7,2.6-1.7,4.3v6.3h-4.5c-1.6,0-2.9,0.5-4,1.5s-1.6,2.3-1.6,3.8
		c0,1.6,0.5,2.9,1.6,4s2.4,1.6,4,1.6h4.6v27.3c0,5.7,1.4,9.4,4.2,11.1s6.3,2.6,10.3,2.6c2.4,0,4.6-0.6,6.6-1.8
		c1.9-1.2,2.9-2.7,2.9-4.5c0-1.5-0.4-2.6-1.1-3.5c-0.8-0.9-1.6-1.3-2.5-1.3c-0.7,0-1.5,0.2-2.3,0.5c-0.9,0.3-1.7,0.4-2.2,0.4
		c-1.3,0-2.2-0.3-3-0.9c-0.7-0.6-1.1-1.6-1.1-3V37.2H493.2z"/>
	<path d="M544,27.9c-3.9-2.4-8-3.6-12.3-3.6c-4.4,0-8.6,1.1-12.5,3.4s-7,5.6-9.4,9.9s-3.6,9.3-3.6,14.9c0,5.1,1.1,9.7,3.4,13.7
		c2.2,4.1,5.4,7.2,9.6,9.6c4.1,2.3,9,3.5,14.5,3.5c3.2,0,6.3-0.5,9.4-1.6s5.6-2.3,7.4-3.9c1.8-1.5,2.8-3.1,2.8-4.9
		c0-1.3-0.5-2.5-1.5-3.5s-2.2-1.5-3.6-1.5c-1.1,0-2.2,0.3-3.4,0.9c-0.3,0.2-0.9,0.6-1.8,1.1c-0.9,0.6-2.1,1.1-3.6,1.6
		s-3.6,0.7-6.3,0.7c-3.6,0-6.8-1.1-9.6-3.3c-2.8-2.2-4.7-5.3-5.4-9.2h32.7c1.6,0,3-0.5,4.2-1.5s1.8-2.3,1.9-3.9
		c0-4.7-1.2-9-3.5-13.1C550.9,33.4,547.8,30.2,544,27.9z M544,46h-25.9c1.4-7.2,5.9-10.8,13.6-10.8c3.1,0,5.9,1,8.3,3
		s3.8,4.4,4.1,7.1L544,46L544,46z"/>
	<path d="M573.6,5c-1.7,0-3.2,0.6-4.3,1.7c-1.2,1.2-1.7,2.6-1.7,4.3v61.2c0,1.7,0.6,3.2,1.7,4.3c1.1,1.2,2.5,1.7,4.2,1.7
		s3.2-0.6,4.3-1.7c1.2-1.2,1.7-2.6,1.7-4.3V11c0-1.7-0.6-3.2-1.7-4.3C576.7,5.6,575.3,5,573.6,5z"/>
	<path d="M660.3,12c-3-2-6.2-3-9.6-3h-22.6c-1.7,0-3.2,0.6-4.3,1.7c-1.2,1.2-1.7,2.6-1.7,4.3v57.2c0,1.7,0.5,3.2,1.6,4.3
		c1.1,1.2,2.4,1.7,4.1,1.7s3.1-0.6,4.2-1.7s1.6-2.6,1.6-4.4V53.4h17.2c3.4,0,6.6-1,9.6-3s5.5-4.7,7.3-8.2c1.8-3.4,2.8-7.1,2.8-11.1
		s-0.9-7.7-2.8-11.1C665.7,16.7,663.3,14,660.3,12z M657.3,36.5c-0.8,1.7-1.8,3.1-3,4.1c-1.2,1.1-2.5,1.6-3.7,1.6h-17.2V20.3h17.2
		c1.3,0,2.5,0.5,3.7,1.5s2.2,2.4,3,4.1s1.1,3.4,1.1,5.3C658.5,33.1,658.1,34.8,657.3,36.5z"/>
	<path d="M686,25.3c-1.7,0-3.1,0.6-4.3,1.7c-1.1,1.2-1.7,2.6-1.7,4.3v40.9c0,1.7,0.6,3.2,1.7,4.3c1.1,1.2,2.5,1.7,4.3,1.7
		c1.7,0,3.1-0.6,4.3-1.7c1.1-1.2,1.7-2.6,1.7-4.3V31.3c0-1.7-0.6-3.2-1.7-4.3C689.1,25.9,687.7,25.3,686,25.3z"/>
	<path d="M686,7.1c-2.2,0-3.8,0.4-4.8,1.1s-1.5,2-1.5,3.9V14c0,1.8,0.5,3.1,1.4,3.9c0.9,0.7,2.5,1.1,4.8,1.1s3.9-0.3,4.9-1
		s1.4-2,1.4-3.9v-1.9c0-1.8-0.5-3.1-1.4-3.9C689.9,7.4,688.3,7.1,686,7.1z"/>
	<path d="M732.4,24.3c-3.4,0-6.6,0.9-9.5,2.6s-5.2,3.8-7,6.1v-1.7c0-1.7-0.6-3.2-1.7-4.3c-1.1-1.2-2.5-1.7-4.3-1.7
		c-1.7,0-3.1,0.6-4.3,1.7c-1.1,1.2-1.7,2.6-1.7,4.3v40.9c0,1.7,0.6,3.2,1.7,4.3c1.1,1.2,2.5,1.7,4.3,1.7c1.7,0,3.1-0.6,4.3-1.7
		c1.1-1.2,1.7-2.6,1.7-4.3V46.9c0-3.4,1.1-6.2,3.3-8.4c2.2-2.2,5.2-3.3,9-3.3c3.7,0,6.3,1,7.8,3.1s2.3,4.9,2.3,8.6v25.3
		c0,1.7,0.6,3.2,1.7,4.3c1.1,1.2,2.5,1.7,4.3,1.7c1.7,0,3.1-0.6,4.3-1.7c1.1-1.2,1.7-2.6,1.7-4.3V46.9c0-7.1-1.3-12.6-3.9-16.6
		C743.8,26.3,739.2,24.3,732.4,24.3z"/>
	<path d="M807.2,67.9l-17.3-18.8l14.9-13.8c1.6-1.4,2.4-2.9,2.4-4.5c0-1.3-0.6-2.5-1.7-3.7c-1.2-1.2-2.5-1.8-3.9-1.8
		c-1.7,0-3.1,0.6-4.4,1.9L776,47.7V11.1c0-1.7-0.6-3.2-1.7-4.3c-1.1-1.2-2.5-1.7-4.3-1.7c-1.7,0-3.1,0.6-4.3,1.7
		c-1.1,1.2-1.7,2.6-1.7,4.3v61.2c0,1.7,0.6,3.2,1.7,4.3c1.1,1.2,2.5,1.7,4.3,1.7c1.7,0,3.1-0.6,4.3-1.7c1.1-1.2,1.7-2.6,1.7-4.3
		V61.9l4.9-4.5l17.8,18.8c1.2,1.3,2.6,2,4.4,2c1.5,0,2.8-0.6,4.1-1.7c1.3-1.1,1.9-2.5,1.9-4.2C809.1,70.7,808.4,69.2,807.2,67.9z"/>
</g>
</svg>
