<?xml version="1.0" encoding="utf-8"?>
<!-- Generator: Adobe Illustrator 27.9.0, SVG Export Plug-In . SVG Version: 6.00 Build 0)  -->
<svg version="1.1" id="Layer_1" xmlns="http://www.w3.org/2000/svg" xmlns:xlink="http://www.w3.org/1999/xlink" x="0px" y="0px"
	 viewBox="0 0 642.2 91.8" style="enable-background:new 0 0 642.2 91.8;" xml:space="preserve">
<g>
	<path d="M61.4,17.6c-4.5-3.1-9.8-4.6-16-4.6H21.7c-1.7,0-3.2,0.6-4.3,1.7c-1.2,1.2-1.7,2.6-1.7,4.3v23h-1.8c-1.7,0-3.2,0.5-4.3,1.5
		c-1.2,1-1.7,2.3-1.7,3.8c0,1.7,0.6,3,1.7,4c1.2,1,2.6,1.5,4.3,1.5h1.8v23.4c0,1.7,0.6,3.2,1.7,4.3c1.2,1.2,2.6,1.7,4.3,1.7h23.7
		c6.2,0,11.5-1.5,16-4.6s7.9-7.2,10.2-12.5c2.3-5.2,3.5-11.1,3.5-17.6s-1.2-12.3-3.5-17.6C69.2,24.9,65.8,20.7,61.4,17.6z
		 M57.8,64.4c-3,4.4-7.4,6.6-13.4,6.6H28.1V53h3.1c1.7,0,3.2-0.5,4.3-1.5c1.2-1,1.7-2.4,1.7-4c0-1.5-0.6-2.8-1.7-3.8
		c-1.2-1-2.6-1.5-4.3-1.5h-3.1V24.6h16.3c5.9,0,10.3,2.2,13.3,6.6s4.5,9.9,4.5,16.7S60.7,60,57.8,64.4z"/>
	<path d="M123.1,31.9c-4.1-2.3-8.7-3.5-13.6-3.5c-5,0-9.6,1.2-13.7,3.5c-4.1,2.3-7.3,5.6-9.7,9.8c-2.4,4.2-3.6,8.9-3.6,14.2
		c0,5.3,1.2,10,3.6,14.2c2.4,4.2,5.6,7.4,9.7,9.8c4.1,2.3,8.6,3.5,13.7,3.5c5,0,9.5-1.2,13.6-3.5s7.4-5.6,9.8-9.8
		c2.4-4.2,3.6-8.9,3.6-14.2c0-5.3-1.2-10-3.6-14.2C130.4,37.5,127.2,34.2,123.1,31.9z M122.5,64.5c-1.4,2.5-3.2,4.5-5.4,5.8
		c-2.3,1.4-4.8,2.1-7.6,2.1s-5.3-0.7-7.6-2.1s-4.1-3.3-5.4-5.8c-1.4-2.5-2-5.4-2-8.6s0.7-6.1,2-8.7c1.4-2.5,3.2-4.5,5.4-5.9
		c2.3-1.4,4.8-2.1,7.6-2.1s5.3,0.7,7.6,2.1s4.1,3.4,5.4,5.9c1.4,2.5,2,5.4,2,8.7C124.5,59.1,123.8,62,122.5,64.5z"/>
	<path d="M101.6,15.1c0.4,0,0.9-0.2,1.6-0.6c0.9-0.5,1.6-0.9,2.2-1.2c0.6-0.3,1.3-0.4,2-0.4c0.9,0,1.7,0.2,2.4,0.7s1,1.1,1,1.9
		c0,0.8-0.8,2.2-2.3,4.3c-1.1,1.4-1.6,2.7-1.6,3.9c0,0.8,0.3,1.5,1,2s1.5,0.8,2.4,0.8s1.7-0.3,2.4-0.8s1-1.2,1-2
		c0-0.3,0.1-0.7,0.3-1.1s0.6-0.9,1.1-1.5s0.8-1,0.9-1.2c0.7-0.9,1.1-1.7,1.4-2.5c0.3-0.8,0.4-1.8,0.4-2.8c0-2.2-0.8-4.2-2.3-6
		c-1.6-1.7-4.2-2.6-7.9-2.6c-1.7,0-3.1,0.2-4.3,0.7s-2.4,1.2-3.6,2.1c-1.1,0.9-1.6,1.9-1.6,3c0,0.8,0.3,1.5,0.9,2.1
		C100,14.7,100.8,15.1,101.6,15.1z"/>
	<path d="M198.1,41.3c1.6,0,2.9-0.5,4-1.5s1.6-2.3,1.6-3.8c0-1.6-0.5-2.9-1.6-4s-2.4-1.6-4-1.6h-7v-6.3c0-1.7-0.6-3.2-1.7-4.3
		c-1.1-1.2-2.5-1.7-4.2-1.7s-3.2,0.6-4.3,1.7c-1.2,1.2-1.7,2.6-1.7,4.3v6.3h-4.6c-1.6,0-2.9,0.5-4,1.5s-1.6,2.3-1.6,3.8
		c0,1.6,0.5,2.9,1.6,4s2.4,1.6,4,1.6h4.6v27.3c0,5.7,1.4,9.4,4.2,11.1s6.3,2.6,10.3,2.6c2.4,0,4.6-0.6,6.6-1.8
		c1.9-1.2,2.9-2.7,2.9-4.5c0-1.5-0.4-2.6-1.1-3.5c-0.8-0.9-1.6-1.3-2.5-1.3c-0.7,0-1.5,0.2-2.3,0.5c-0.9,0.3-1.7,0.4-2.2,0.4
		c-1.3,0-2.2-0.3-3-0.9c-0.7-0.6-1.1-1.6-1.1-3V41.4L198.1,41.3L198.1,41.3z"/>
	<path d="M269.7,19.7c-0.8-1.1-2-1.6-3.7-1.6c-1.6,0-2.8,0.5-3.7,1.6S261,22,261,23.3c0,3.6-2.2,5.6-6.7,6h-0.5
		c-0.5,0-0.9,0-1.2,0.1c-1.5,0.3-2.6,0.9-3.5,2s-1.3,2.4-1.3,3.9v25.1c0,4-0.9,7-2.7,9c-1.8,1.9-4.5,2.9-8.1,2.9s-6.2-1-8-2.9
		s-2.7-4.9-2.7-9V35.3c0-1.7-0.6-3.2-1.7-4.3c-1.1-1.2-2.5-1.7-4.3-1.7c-1.7,0-3.1,0.6-4.3,1.7c-1.1,1.2-1.7,2.6-1.7,4.3v25.1
		c0,7.1,1.9,12.7,5.8,16.7c3.9,4,9.5,6,16.7,6c7.3,0,12.9-2,16.8-6c3.9-4,5.9-9.6,5.9-16.7V38.3c3.8-1.1,6.6-3,8.4-5.7
		c1.8-2.7,2.8-5.8,2.8-9.5C270.9,22,270.5,20.8,269.7,19.7z"/>
	<path d="M321.8,31.3c1.2-2.3,1.8-4.9,1.8-7.8c0-1.3-0.4-2.5-1.2-3.6s-2-1.6-3.7-1.6c-1.6,0-2.8,0.5-3.7,1.6s-1.3,2.3-1.3,3.6
		c0,2-0.7,3.6-2.2,4.6s-3.5,1.5-6.2,1.5v0.1c-2.9-0.9-5.8-1.4-8.7-1.4c-5,0-9.6,1.2-13.7,3.5c-4.1,2.3-7.3,5.6-9.7,9.8
		c-2.4,4.2-3.6,8.9-3.6,14.2c0,5.3,1.2,10,3.6,14.2c2.4,4.2,5.6,7.4,9.7,9.8c4.1,2.3,8.6,3.5,13.7,3.5c5,0,9.5-1.2,13.6-3.5
		s7.4-5.6,9.8-9.8c2.4-4.2,3.6-8.9,3.6-14.2c0-3.7-0.6-7.2-1.8-10.4c-1.2-3.2-3-6.1-5.2-8.6C318.8,35.5,320.6,33.6,321.8,31.3z
		 M309.6,64.5c-1.4,2.5-3.2,4.5-5.4,5.8c-2.3,1.4-4.8,2.1-7.6,2.1s-5.3-0.7-7.6-2.1s-4.1-3.3-5.4-5.8c-1.4-2.5-2-5.4-2-8.6
		s0.7-6.1,2-8.7c1.4-2.5,3.2-4.5,5.4-5.9c2.3-1.4,4.8-2.1,7.6-2.1s5.3,0.7,7.6,2.1s4.1,3.4,5.4,5.9c1.4,2.5,2,5.4,2,8.7
		C311.6,59.1,310.9,62,309.6,64.5z"/>
	<path d="M338.6,11.2c-2.2,0-3.8,0.4-4.8,1.1s-1.5,2-1.5,3.9v1.9c0,1.8,0.5,3.1,1.4,3.9c0.9,0.7,2.5,1.1,4.8,1.1s3.9-0.3,4.9-1
		s1.4-2,1.4-3.9v-1.9c0-1.8-0.5-3.1-1.4-3.9C342.6,11.5,340.9,11.2,338.6,11.2z"/>
	<path d="M338.6,29.4c-1.7,0-3.1,0.6-4.3,1.7c-1.1,1.2-1.7,2.6-1.7,4.3v40.9c0,1.7,0.6,3.2,1.7,4.3c1.1,1.2,2.5,1.7,4.3,1.7
		c1.7,0,3.1-0.6,4.3-1.7c1.1-1.2,1.7-2.6,1.7-4.3V35.4c0-1.7-0.6-3.2-1.7-4.3C341.8,30,340.4,29.4,338.6,29.4z"/>
	<path d="M406.3,46.1h-17.2c-1.7,0-3.2,0.6-4.3,1.7c-1.2,1.1-1.7,2.5-1.7,4.2s0.6,3.1,1.7,4.3c1.2,1.1,2.6,1.7,4.3,1.7h17.2
		c1.7,0,3.2-0.5,4.3-1.6c1.2-1.1,1.7-2.5,1.7-4.1c0-1.7-0.6-3.2-1.7-4.3C409.4,46.7,408,46.1,406.3,46.1z"/>
	<path d="M506.7,72.6c-0.9-0.5-1.5-1.1-1.8-2s-0.5-2.4-0.8-4.4c0-1-0.1-2-0.3-3.1c-0.4-4.9-2.7-8.8-6.8-11.7
		c2.8-1.8,5.1-4.3,6.9-7.5c1.8-3.1,2.7-6.4,2.7-9.7c0-4-0.9-7.7-2.7-10.9c-1.8-3.2-4.2-5.8-7.3-7.6c-3-1.8-6.3-2.8-9.7-2.8h-28.5
		c-1.7,0-3.2,0.6-4.3,1.7c-1.2,1.2-1.7,2.6-1.7,4.3v57.2c0,1.7,0.7,3.2,2.1,4.3c1.4,1.2,3.1,1.7,5,1.7c1.6,0,2.9-0.6,3.8-1.7
		c1-1.1,1.4-2.6,1.4-4.4V56.8h18.5c2.9,0,5.1,0.7,6.7,2.1s2.3,3.3,2.3,5.6c0,8.3,2.4,13.8,7.1,16.5c1.3,0.7,2.8,1.1,4.4,1.1
		c2,0,3.6-0.6,4.6-1.8c0.8-1,1.2-2.1,1.2-3.3c0-0.9-0.2-1.8-0.7-2.7C508.3,73.9,507.6,73.2,506.7,72.6z M492.7,40.7
		c-0.7,1.9-1.7,3.4-2.8,4.5c-1.1,1.1-2.3,1.7-3.5,1.7h-21.7V24.4h21.7c1.2,0,2.3,0.5,3.5,1.4c1.1,0.9,2,2.2,2.8,3.7
		c0.7,1.6,1.1,3.3,1.1,5.1C493.8,36.8,493.4,38.8,492.7,40.7z"/>
	<path d="M553.7,31.9c-3.9-2.4-8-3.6-12.3-3.6c-4.4,0-8.6,1.1-12.5,3.4s-7,5.6-9.4,9.9s-3.6,9.3-3.6,14.9c0,5.1,1.1,9.7,3.4,13.7
		c2.2,4.1,5.4,7.2,9.6,9.6c4.1,2.3,9,3.5,14.5,3.5c3.2,0,6.3-0.5,9.4-1.6s5.6-2.3,7.4-3.9c1.8-1.5,2.8-3.1,2.8-4.9
		c0-1.3-0.5-2.5-1.5-3.5s-2.2-1.5-3.6-1.5c-1.1,0-2.2,0.3-3.4,0.9c-0.3,0.2-0.9,0.6-1.8,1.1c-0.9,0.6-2.1,1.1-3.6,1.6
		s-3.6,0.7-6.3,0.7c-3.6,0-6.8-1.1-9.6-3.3c-2.8-2.2-4.7-5.3-5.4-9.2h32.7c1.6,0,3-0.5,4.2-1.5s1.8-2.3,1.9-3.9
		c0-4.7-1.2-9-3.5-13.1C560.7,37.5,557.6,34.3,553.7,31.9z M553.8,50.1h-25.9c1.4-7.2,5.9-10.8,13.6-10.8c3.1,0,5.9,1,8.3,3
		s3.8,4.4,4.1,7.1L553.8,50.1L553.8,50.1z"/>
	<path d="M623.5,10.8c-1.1-1.1-2.5-1.7-4.3-1.7c-1.7,0-3.1,0.6-4.3,1.7c-1.1,1.2-1.7,2.6-1.7,4.3v19.4c-1.9-1.8-4.3-3.2-7-4.4
		c-2.8-1.2-5.7-1.7-8.9-1.7c-4.4,0-8.5,1.2-12.1,3.5c-3.7,2.3-6.6,5.6-8.7,9.8c-2.1,4.2-3.2,8.9-3.2,14.2c0,5.3,1.1,10,3.2,14.2
		s5.1,7.4,8.8,9.8c3.7,2.3,7.8,3.5,12.4,3.5c3.1,0,6.1-0.7,8.9-2c2.8-1.4,5-3,6.7-4.9c0.1,1.7,0.6,3.1,1.7,4.3
		c1.1,1.1,2.5,1.7,4.2,1.7s3.1-0.6,4.3-1.7c1.1-1.2,1.7-2.6,1.7-4.3V15.3C625.1,13.3,624.6,11.9,623.5,10.8z M609.7,67.7
		c-2.7,3.1-6.2,4.7-10.5,4.7s-7.8-1.6-10.4-4.7c-2.7-3.1-4-7.1-4-11.8s1.4-8.7,4.1-11.9c2.7-3.2,6.2-4.8,10.4-4.8
		c4.3,0,7.8,1.6,10.5,4.8c2.7,3.2,4.1,7.1,4.1,11.9S612.4,64.6,609.7,67.7z"/>
</g>
</svg>
