<?xml version="1.0" encoding="utf-8"?>
<!-- Generator: Adobe Illustrator 27.9.0, SVG Export Plug-In . SVG Version: 6.00 Build 0)  -->
<svg version="1.1" id="Layer_1" xmlns="http://www.w3.org/2000/svg" xmlns:xlink="http://www.w3.org/1999/xlink" x="0px" y="0px"
	 viewBox="0 0 925.7 111.6" style="enable-background:new 0 0 925.7 111.6;" xml:space="preserve">
<g>
	<path d="M46.9,69.4H26.5L39.1,56c3.6-3.9,6.5-8,8.7-12.2c2.1-4.3,3.2-8.4,3.2-12.4c0-4.1-0.9-7.8-2.7-11c-1.8-3.2-4.3-5.8-7.6-7.6
		C37.4,11,33.6,10,29.2,10c-3,0-6.2,0.8-9.5,2.3s-6.2,3.5-8.7,6c-1.3,1.3-2.3,2.5-3,3.5s-1,2-1,3c0,1.4,0.6,2.6,1.8,3.8
		c1.2,1.1,2.6,1.7,4,1.7c1.8,0,3.4-0.8,4.6-2.4c1.6-2.1,3.3-3.8,5.3-5.1c1.9-1.3,3.9-1.9,5.8-1.9c2.8,0,5.2,1.1,7.3,3.3
		c2.1,2.2,3.2,4.8,3.2,7.7c0,2.2-0.7,4.7-2.1,7.4c-1.4,2.7-3.4,5.3-5.8,8L9.5,70.4c-1.2,1.3-1.8,2.7-1.8,4.4c0,1.7,0.5,3,1.5,4.1
		s2.3,1.6,4.1,1.6H47c1.6,0,2.9-0.5,4-1.5s1.6-2.3,1.6-3.8c0-1.6-0.5-2.9-1.6-4C49.8,70,48.5,69.4,46.9,69.4z"/>
	<path d="M94.5,36.8c-3.5-2-7.5-3-11.8-3c-1.7,0-3.5,0.2-5.4,0.7s-3.5,1.1-4.8,1.8l1.9-14.4H99c1.6,0,2.9-0.5,4-1.5s1.6-2.3,1.6-3.8
		c0-1.6-0.5-2.9-1.6-4s-2.4-1.6-4-1.6H70.3c-1.5,0-2.8,0.4-3.9,1.3s-1.8,2-2,3.4l-3.1,24.6c-0.1,0.3-0.1,0.7-0.1,1.4
		c0,1.9,0.5,3.6,1.6,4.9c1.1,1.4,2.9,2.1,5.5,2.1c0.7,0,1.4-0.1,2.1-0.4s1.6-0.7,2.8-1.3c1.6-0.8,3.1-1.4,4.3-1.8
		c1.2-0.4,2.5-0.6,4.1-0.6c3.4,0,6.3,1.1,8.7,3.4c2.4,2.2,3.7,5.1,3.7,8.7c0,2.4-0.7,4.7-2.1,6.8c-1.4,2.1-3.3,3.8-5.7,5
		c-2.4,1.3-4.9,1.9-7.6,1.9c-2.1,0-4.6-0.9-7.3-2.6c-1.8-1.3-3.3-1.9-4.5-1.9c-1.7,0-3,0.5-4,1.4c-1,1-1.5,2-1.5,3.2
		c0,1.1,0.3,2.2,0.8,3.4c0.5,1.2,1.2,2.1,2,2.8c1.7,1.4,3.9,2.5,6.7,3.3c2.7,0.8,5.4,1.2,8,1.2c4.8,0,9.3-1.1,13.5-3.3
		c4.2-2.2,7.5-5.2,10-9s3.8-7.9,3.8-12.3c0-4.3-1-8.2-3-11.7C100.8,41.6,98,38.8,94.5,36.8z"/>
	<path d="M151.8,36.8c-3.5-2-7.5-3-11.8-3c-1.7,0-3.5,0.2-5.4,0.7s-3.5,1.1-4.8,1.8l1.9-14.4h24.6c1.6,0,2.9-0.5,4-1.5
		s1.6-2.3,1.6-3.8c0-1.6-0.5-2.9-1.6-4s-2.4-1.6-4-1.6h-28.6c-1.5,0-2.8,0.4-3.9,1.3s-1.8,2-2,3.4l-3.1,24.6
		c-0.1,0.3-0.1,0.7-0.1,1.4c0,1.9,0.5,3.6,1.6,4.9c1.1,1.4,2.9,2.1,5.5,2.1c0.7,0,1.4-0.1,2.1-0.4c0.7-0.3,1.6-0.7,2.8-1.3
		c1.6-0.8,3.1-1.4,4.3-1.8s2.5-0.6,4.1-0.6c3.4,0,6.3,1.1,8.7,3.4c2.4,2.2,3.7,5.1,3.7,8.7c0,2.4-0.7,4.7-2.1,6.8
		c-1.4,2.1-3.3,3.8-5.7,5c-2.4,1.3-4.9,1.9-7.6,1.9c-2.1,0-4.6-0.9-7.3-2.6c-1.8-1.3-3.3-1.9-4.5-1.9c-1.7,0-3,0.5-4,1.4
		c-1,1-1.5,2-1.5,3.2c0,1.1,0.3,2.2,0.8,3.4c0.5,1.2,1.2,2.1,2,2.8c1.7,1.4,3.9,2.5,6.7,3.3c2.7,0.8,5.4,1.2,8,1.2
		c4.8,0,9.3-1.1,13.5-3.3c4.2-2.2,7.5-5.2,10-9s3.8-7.9,3.8-12.3c0-4.3-1-8.2-3-11.7C158.1,41.6,155.3,38.8,151.8,36.8z"/>
	<path d="M214.6,69.4h-20.4L206.8,56c3.6-3.9,6.5-8,8.7-12.2c2.1-4.3,3.2-8.4,3.2-12.4c0-4.1-0.9-7.8-2.7-11s-4.3-5.8-7.6-7.6
		c-3.3-1.8-7.1-2.8-11.5-2.8c-3,0-6.2,0.8-9.5,2.3s-6.2,3.5-8.7,6c-1.3,1.3-2.3,2.5-3,3.5s-1,2-1,3c0,1.4,0.6,2.6,1.8,3.8
		c1.2,1.1,2.6,1.7,4,1.7c1.8,0,3.4-0.8,4.6-2.4c1.6-2.1,3.3-3.8,5.3-5.1c1.9-1.3,3.9-1.9,5.8-1.9c2.8,0,5.2,1.1,7.3,3.3
		c2.1,2.2,3.2,4.8,3.2,7.7c0,2.2-0.7,4.7-2.1,7.4c-1.4,2.7-3.4,5.3-5.8,8l-21.6,23.1c-1.2,1.3-1.8,2.7-1.8,4.4c0,1.7,0.5,3,1.5,4.1
		s2.3,1.6,4.1,1.6h33.7c1.6,0,2.9-0.5,4-1.5s1.6-2.3,1.6-3.8c0-1.6-0.5-2.9-1.6-4C217.5,70,216.2,69.4,214.6,69.4z"/>
	<path d="M279.1,44.1h-17.2c-1.7,0-3.2,0.6-4.3,1.7c-1.2,1.1-1.7,2.5-1.7,4.2s0.6,3.1,1.7,4.3c1.2,1.1,2.6,1.7,4.3,1.7h17.2
		c1.7,0,3.2-0.5,4.3-1.6c1.2-1.1,1.7-2.5,1.7-4.1c0-1.7-0.6-3.2-1.7-4.3C282.2,44.7,280.8,44.1,279.1,44.1z"/>
	<path d="M379.6,70.6c-0.9-0.5-1.5-1.1-1.8-2s-0.5-2.4-0.8-4.4c0-1-0.1-2-0.3-3.1c-0.4-4.9-2.7-8.8-6.8-11.7
		c2.8-1.8,5.1-4.3,6.9-7.5c1.8-3.1,2.7-6.4,2.7-9.7c0-4-0.9-7.7-2.7-10.9c-1.8-3.2-4.2-5.8-7.3-7.6c-3-1.8-6.3-2.8-9.7-2.8h-28.5
		c-1.7,0-3.2,0.6-4.3,1.7c-1.2,1.2-1.7,2.6-1.7,4.3v57.2c0,1.7,0.7,3.2,2.1,4.3c1.4,1.2,3.1,1.7,5,1.7c1.6,0,2.9-0.6,3.8-1.7
		c1-1.1,1.4-2.6,1.4-4.4V54.8h18.5c2.9,0,5.1,0.7,6.7,2.1c1.6,1.4,2.3,3.3,2.3,5.6c0,8.3,2.4,13.8,7.1,16.5c1.3,0.7,2.8,1.1,4.4,1.1
		c2,0,3.6-0.6,4.6-1.8c0.8-1,1.2-2.1,1.2-3.3c0-0.9-0.2-1.8-0.7-2.7C381.1,71.8,380.4,71.2,379.6,70.6z M365.5,38.7
		c-0.7,1.9-1.7,3.4-2.8,4.5s-2.3,1.7-3.5,1.7h-21.7V22.4h21.8c1.2,0,2.3,0.5,3.5,1.4c1.1,0.9,2,2.2,2.8,3.7c0.7,1.6,1.1,3.3,1.1,5.1
		C366.6,34.8,366.2,36.8,365.5,38.7z"/>
	<path d="M426.5,29.9c-3.9-2.4-8-3.6-12.3-3.6c-4.4,0-8.6,1.1-12.5,3.4s-7,5.6-9.4,9.9s-3.6,9.3-3.6,14.9c0,5.1,1.1,9.7,3.4,13.7
		c2.2,4.1,5.4,7.2,9.6,9.6c4.1,2.3,9,3.5,14.5,3.5c3.2,0,6.3-0.5,9.4-1.6c3.1-1.1,5.6-2.3,7.4-3.9c1.8-1.5,2.8-3.1,2.8-4.9
		c0-1.3-0.5-2.5-1.5-3.5s-2.2-1.5-3.6-1.5c-1.1,0-2.2,0.3-3.4,0.9c-0.3,0.2-0.9,0.6-1.8,1.1c-0.9,0.6-2.1,1.1-3.6,1.6
		s-3.6,0.7-6.3,0.7c-3.6,0-6.8-1.1-9.6-3.3c-2.8-2.2-4.7-5.3-5.4-9.2h32.7c1.6,0,3-0.5,4.2-1.5s1.8-2.3,1.9-3.9
		c0-4.7-1.2-9-3.5-13.1C433.5,35.5,430.4,32.3,426.5,29.9z M426.6,48.1h-25.9c1.4-7.2,5.9-10.8,13.6-10.8c3.1,0,5.9,1,8.3,3
		c2.4,2,3.8,4.4,4.1,7.1L426.6,48.1L426.6,48.1z"/>
	<path d="M473.2,39.2c1.6,0,2.9-0.5,4-1.5s1.6-2.3,1.6-3.8c0-1.6-0.5-2.9-1.6-4s-2.4-1.6-4-1.6h-7V22c0-1.7-0.6-3.2-1.7-4.3
		c-1.1-1.2-2.5-1.7-4.2-1.7s-3.2,0.6-4.3,1.7c-1.2,1.2-1.7,2.6-1.7,4.3v6.3h-4.6c-1.6,0-2.9,0.5-4,1.5s-1.6,2.3-1.6,3.8
		c0,1.6,0.5,2.9,1.6,4s2.4,1.6,4,1.6h4.6v27.3c0,5.7,1.4,9.4,4.2,11.1s6.3,2.6,10.3,2.6c2.4,0,4.6-0.6,6.6-1.8
		c1.9-1.2,2.9-2.7,2.9-4.5c0-1.5-0.4-2.6-1.1-3.5c-0.8-0.9-1.6-1.3-2.5-1.3c-0.7,0-1.5,0.2-2.3,0.5c-0.9,0.3-1.7,0.4-2.2,0.4
		c-1.3,0-2.2-0.3-3-0.9c-0.7-0.6-1.1-1.6-1.1-3V39.2H473.2z"/>
	<path d="M522.2,28.1c-1.4-1.1-3-1.7-5-1.7c-3.2,0-6.3,0.7-9.1,2.1s-5,3.5-6.5,6.2v-1.3c0-1.7-0.6-3.2-1.7-4.3
		c-1.1-1.2-2.5-1.7-4.3-1.7c-1.7,0-3.1,0.6-4.3,1.7c-1.1,1.2-1.7,2.6-1.7,4.3v40.9c0,1.7,0.6,3.2,1.7,4.3c1.1,1.2,2.5,1.7,4.3,1.7
		c1.7,0,3.1-0.6,4.3-1.7c1.1-1.2,1.7-2.6,1.7-4.3V50.8c0-3,0.5-5.5,1.5-7.7c1-2.1,2.3-3.7,3.9-4.8c1.6-1.1,3.2-1.6,5-1.6
		c0.8,0,1.5,0.1,2.2,0.3c0.7,0.2,1.1,0.3,1.3,0.4c1.3,0.5,2.4,0.7,3.4,0.7c1.5,0,2.7-0.5,3.8-1.5s1.6-2.6,1.6-4.6
		C524.2,30.5,523.5,29.2,522.2,28.1z"/>
	<path d="M568,29.9c-4.1-2.3-8.7-3.5-13.6-3.5c-5,0-9.6,1.2-13.7,3.5c-4.1,2.3-7.3,5.6-9.7,9.8c-2.4,4.2-3.6,8.9-3.6,14.2
		c0,5.3,1.2,10,3.6,14.2c2.4,4.2,5.6,7.4,9.7,9.8c4.1,2.3,8.6,3.5,13.7,3.5c5,0,9.5-1.2,13.6-3.5s7.4-5.6,9.8-9.8
		c2.4-4.2,3.6-8.9,3.6-14.2c0-5.3-1.2-10-3.6-14.2C575.4,35.5,572.1,32.2,568,29.9z M567.4,62.5c-1.4,2.5-3.2,4.5-5.4,5.8
		c-2.3,1.4-4.8,2.1-7.6,2.1s-5.3-0.7-7.6-2.1s-4.1-3.3-5.4-5.8c-1.4-2.5-2-5.4-2-8.6s0.7-6.1,2-8.7c1.4-2.5,3.2-4.5,5.4-5.9
		c2.3-1.4,4.8-2.1,7.6-2.1s5.3,0.7,7.6,2.1s4.1,3.4,5.4,5.9c1.4,2.5,2,5.4,2,8.7C569.4,57.1,568.8,60,567.4,62.5z"/>
	<path d="M658.2,14c-3-2-6.2-3-9.6-3H626c-1.7,0-3.2,0.6-4.3,1.7c-1.2,1.2-1.7,2.6-1.7,4.3v57.2c0,1.7,0.5,3.2,1.6,4.3
		c1.1,1.2,2.4,1.7,4.1,1.7s3.1-0.6,4.2-1.7s1.6-2.6,1.6-4.4V55.4h17.2c3.4,0,6.6-1,9.6-3s5.5-4.7,7.3-8.2c1.8-3.4,2.8-7.1,2.8-11.1
		s-0.9-7.7-2.8-11.1C663.6,18.8,661.2,16.1,658.2,14z M655.2,38.6c-0.8,1.7-1.8,3.1-3,4.1c-1.2,1.1-2.5,1.6-3.7,1.6h-17.2V22.4h17.2
		c1.3,0,2.5,0.5,3.7,1.5s2.2,2.4,3,4.1s1.1,3.4,1.1,5.3C656.4,35.2,656,36.9,655.2,38.6z"/>
	<path d="M717.5,27.4c-1.7,0-3.1,0.6-4.3,1.7c-1.1,1.2-1.7,2.6-1.7,4.3v25.1c0,4-0.9,7-2.7,9c-1.8,1.9-4.5,2.9-8.1,2.9s-6.2-1-8-2.9
		s-2.7-4.9-2.7-9V33.4c0-1.7-0.6-3.2-1.7-4.3c-1.1-1.2-2.5-1.7-4.3-1.7c-1.7,0-3.1,0.6-4.3,1.7c-1.1,1.2-1.7,2.6-1.7,4.3v25.1
		c0,7.1,1.9,12.7,5.8,16.7s9.5,6,16.7,6c7.3,0,12.9-2,16.8-6s5.9-9.6,5.9-16.7V33.4c0-1.7-0.6-3.2-1.7-4.3
		C720.6,27.9,719.2,27.4,717.5,27.4z"/>
	<path d="M768.8,28.1c-1.4-1.1-3-1.7-5-1.7c-3.2,0-6.3,0.7-9.1,2.1c-2.8,1.4-5,3.5-6.5,6.2v-1.3c0-1.7-0.6-3.2-1.7-4.3
		c-1.1-1.2-2.5-1.7-4.3-1.7c-1.7,0-3.1,0.6-4.3,1.7c-1.1,1.2-1.7,2.6-1.7,4.3v40.9c0,1.7,0.6,3.2,1.7,4.3c1.1,1.2,2.5,1.7,4.3,1.7
		c1.7,0,3.1-0.6,4.3-1.7c1.1-1.2,1.7-2.6,1.7-4.3V50.8c0-3,0.5-5.5,1.5-7.7c1-2.1,2.3-3.7,3.9-4.8c1.6-1.1,3.2-1.6,5-1.6
		c0.8,0,1.5,0.1,2.2,0.3c0.7,0.2,1.1,0.3,1.3,0.4c1.3,0.5,2.4,0.7,3.4,0.7c1.5,0,2.7-0.5,3.8-1.5c1.1-1,1.6-2.6,1.6-4.6
		C770.8,30.5,770.1,29.2,768.8,28.1z"/>
	<path d="M819,29.9c-3.7-2.3-7.8-3.5-12.4-3.5c-3.1,0-6.1,0.7-8.9,2.2s-5,3.2-6.6,5.2v-0.4c0-1.7-0.6-3.2-1.7-4.3
		c-1.1-1.2-2.5-1.7-4.3-1.7c-1.7,0-3.1,0.6-4.3,1.7c-1.1,1.2-1.7,2.6-1.7,4.3v60.7c0,1.8,0.6,3.2,1.7,4.4c1.1,1.1,2.5,1.7,4.3,1.7
		c1.7,0,3.1-0.6,4.3-1.7c1.1-1.2,1.7-2.6,1.7-4.3V74.8c1.8,1.8,4.2,3.4,7,4.7c2.8,1.3,5.8,1.9,9,1.9c4.4,0,8.5-1.2,12.1-3.5
		c3.7-2.3,6.5-5.6,8.7-9.8c2.1-4.2,3.2-8.9,3.2-14.2c0-5.3-1.1-10-3.2-14.2C825.6,35.5,822.7,32.2,819,29.9z M815.6,65.7
		c-2.7,3.2-6.2,4.8-10.4,4.8c-4.3,0-7.8-1.6-10.5-4.8c-2.7-3.2-4.1-7.1-4.1-11.9s1.4-8.7,4.1-11.8c2.7-3.1,6.2-4.7,10.5-4.7
		s7.8,1.6,10.4,4.7c2.7,3.1,4,7.1,4,11.8S818.3,62.5,815.6,65.7z"/>
	<path d="M847.9,7.1c-1.7,0-3.2,0.6-4.3,1.7c-1.2,1.2-1.7,2.6-1.7,4.3v61.2c0,1.7,0.6,3.2,1.7,4.3c1.1,1.2,2.5,1.7,4.2,1.7
		s3.2-0.6,4.3-1.7c1.2-1.2,1.7-2.6,1.7-4.3V13.1c0-1.7-0.6-3.2-1.7-4.3C851,7.6,849.6,7.1,847.9,7.1z"/>
	<path d="M912.3,56.5c1.2-1,1.8-2.3,1.9-3.9c0-4.7-1.2-9-3.5-13.1c-2.3-4-5.4-7.2-9.3-9.6s-8-3.6-12.3-3.6c-4.4,0-8.6,1.1-12.5,3.4
		s-7,5.6-9.4,9.9s-3.6,9.3-3.6,14.9c0,5.1,1.1,9.7,3.4,13.7c2.2,4.1,5.4,7.2,9.6,9.6c4.1,2.3,9,3.5,14.5,3.5c3.2,0,6.3-0.5,9.4-1.6
		s5.6-2.3,7.4-3.9c1.8-1.5,2.8-3.1,2.8-4.9c0-1.3-0.5-2.5-1.5-3.5s-2.2-1.5-3.6-1.5c-1.1,0-2.2,0.3-3.4,0.9
		c-0.3,0.2-0.9,0.6-1.8,1.1c-0.9,0.6-2.1,1.1-3.6,1.6s-3.6,0.7-6.3,0.7c-3.6,0-6.8-1.1-9.6-3.3c-2.8-2.2-4.7-5.3-5.4-9.2h32.7
		C909.7,58,911.1,57.5,912.3,56.5z M901.5,48.1h-25.9c1.4-7.2,5.9-10.8,13.6-10.8c3.1,0,5.9,1,8.3,3s3.8,4.4,4.1,7.1L901.5,48.1
		L901.5,48.1z"/>
</g>
</svg>
