<?xml version="1.0" encoding="utf-8"?>
<!-- Generator: Adobe Illustrator 27.9.0, SVG Export Plug-In . SVG Version: 6.00 Build 0)  -->
<svg version="1.1" id="Layer_1" xmlns="http://www.w3.org/2000/svg" xmlns:xlink="http://www.w3.org/1999/xlink" x="0px" y="0px"
	 viewBox="0 0 775.6 107" style="enable-background:new 0 0 775.6 107;" xml:space="preserve">
<g>
	<path d="M73.1,13.6c-1.6,0-2.9,0.5-3.9,1.6s-1.5,2.4-1.5,4v42.6l-36-45.9c-0.5-0.7-1.2-1.2-2.1-1.6c-1-0.4-1.9-0.6-2.9-0.6
		c-1.7,0-3.2,0.6-4.3,1.7c-1.2,1.2-1.7,2.6-1.7,4.3v57.7c0,1.6,0.5,2.9,1.5,4s2.3,1.6,3.9,1.6c1.6,0,3-0.5,4-1.6s1.5-2.4,1.5-4V35.1
		l36.3,46.1c0.4,0.5,1,0.9,1.9,1.2s1.8,0.4,2.7,0.4c1.7,0,3.2-0.6,4.3-1.7c1.2-1.2,1.7-2.6,1.7-4.3V19.1c0-1.6-0.5-2.9-1.5-4
		C75.9,14.1,74.6,13.6,73.1,13.6z"/>
	<path d="M120.1,29c-3.4,0-6.4,0.8-9.2,2.5c-2.7,1.7-5,3.7-6.8,6.1V15.7c0-1.7-0.6-3.2-1.7-4.3c-1.1-1.2-2.5-1.7-4.3-1.7
		c-1.7,0-3.1,0.6-4.3,1.7c-1.1,1.2-1.7,2.6-1.7,4.3v61.2c0,1.7,0.6,3.2,1.7,4.3c1.1,1.2,2.5,1.7,4.3,1.7c1.7,0,3.1-0.6,4.3-1.7
		c1.1-1.2,1.7-2.6,1.7-4.3V51.6c0-3.4,1-6.2,3.1-8.4c2.1-2.2,5-3.3,8.7-3.3c3.6,0,6.1,1,7.5,3.1s2.1,4.9,2.1,8.6v25.3
		c0,1.7,0.6,3.2,1.7,4.3c1.1,1.2,2.5,1.7,4.3,1.7c1.7,0,3.1-0.6,4.3-1.7c1.1-1.2,1.7-2.6,1.7-4.3V51.6c0-7.1-1.3-12.6-3.8-16.6
		C131.1,31,126.6,29,120.1,29z"/>
	<path d="M159.7,24.5c1.1,0,1.9-0.3,2.6-0.9c0.7-0.6,1-1.5,1-2.5c0-0.6-0.1-1.1-0.2-1.4c-0.2-0.6-0.1-1.1,0.3-1.5
		c0.4-0.4,1-0.6,1.7-0.6s1.5,0.2,2.4,0.6s2.1,1.1,3.7,2c2,1.2,3.7,2.1,5.1,2.8c1.5,0.7,2.8,1,4.2,1c2.6,0,4.7-0.5,6.4-1.4
		c1.7-1,2.9-2.1,3.7-3.5s1.2-2.7,1.2-4c0-2-0.5-3.6-1.6-4.8c-1.1-1.2-2.3-1.8-3.9-1.8c-1.1,0-1.9,0.3-2.6,0.9c-0.7,0.6-1,1.5-1,2.5
		c0,0.6,0.1,1.1,0.2,1.4c0.2,0.6,0.1,1.1-0.3,1.5c-0.4,0.4-1,0.6-1.7,0.6s-1.4-0.2-2.1-0.6c-0.8-0.4-1.7-1-2.8-1.9
		c-1.8-1.3-3.5-2.2-4.9-2.9c-1.4-0.7-3-1-4.7-1c-3.9,0-6.9,0.9-9,2.6c-2.1,1.8-3.2,3.8-3.2,6.1c0,2,0.5,3.7,1.6,4.9
		C156.9,23.9,158.2,24.5,159.7,24.5z"/>
	<path d="M189.6,29.9c-1.7,0-3.1,0.6-4.3,1.7c-1.1,1.2-1.7,2.6-1.7,4.3V61c0,4-0.9,7-2.7,9c-1.8,1.9-4.5,2.9-8.1,2.9s-6.2-1-8-2.9
		s-2.7-4.9-2.7-9V35.9c0-1.7-0.6-3.2-1.7-4.3c-1.1-1.2-2.5-1.7-4.3-1.7c-1.7,0-3.1,0.6-4.3,1.7c-1.1,1.2-1.7,2.6-1.7,4.3V61
		c0,7.1,1.9,12.7,5.8,16.7c3.9,4,9.5,6,16.7,6c7.3,0,12.9-2,16.8-6c3.9-4,5.9-9.6,5.9-16.7V35.9c0-1.7-0.6-3.2-1.7-4.3
		C192.7,30.5,191.3,29.9,189.6,29.9z"/>
	<path d="M275.9,32.5c-3.7-2.3-7.8-3.5-12.4-3.5c-3.1,0-6.1,0.7-8.9,2.2c-2.8,1.5-5,3.2-6.6,5.2V15.7c0-1.7-0.6-3.2-1.7-4.3
		c-1.1-1.2-2.5-1.7-4.3-1.7c-1.7,0-3.1,0.6-4.3,1.7c-1.1,1.2-1.7,2.6-1.7,4.3v62.2c0,1.8,0.6,3.2,1.7,4.4c1.1,1.1,2.5,1.7,4.3,1.7
		c1.7,0,3.1-0.6,4.3-1.7c1.1-1.2,1.7-2.6,1.7-4.3v-0.6c1.8,1.8,4.2,3.4,7,4.7c2.8,1.3,5.8,1.9,9,1.9c4.4,0,8.5-1.2,12.1-3.5
		c3.7-2.3,6.5-5.6,8.7-9.8c2.1-4.2,3.2-8.9,3.2-14.2c0-5.3-1.1-10-3.2-14.2C282.5,38.1,279.6,34.8,275.9,32.5z M272.4,68.3
		c-2.7,3.2-6.2,4.8-10.4,4.8c-4.3,0-7.8-1.6-10.5-4.8c-2.7-3.2-4.1-7.1-4.1-11.9s1.4-8.7,4.1-11.8c2.7-3.1,6.2-4.7,10.5-4.7
		s7.8,1.6,10.4,4.7c2.7,3.1,4,7.1,4,11.8C276.5,61.1,275.1,65.1,272.4,68.3z"/>
	<path d="M340.6,29c-1.7,0-3.1,0.6-4.3,1.7c-1.1,1.2-1.7,2.6-1.7,4.3v0.1c-1.9-1.8-4.3-3.2-7-4.4c-2.8-1.2-5.7-1.7-8.9-1.7
		c-4.4,0-8.5,1.2-12.1,3.5c-3.7,2.3-6.6,5.6-8.7,9.8c-2.1,4.2-3.2,8.9-3.2,14.2c0,5.3,1.1,10,3.2,14.2c2.1,4.2,5.1,7.4,8.8,9.8
		c3.7,2.3,7.8,3.5,12.4,3.5c3.1,0,6.1-0.7,8.9-2c2.8-1.4,5-3,6.7-4.9c0.1,1.7,0.6,3.1,1.7,4.3c1.1,1.1,2.5,1.7,4.2,1.7
		s3.1-0.6,4.3-1.7c1.1-1.2,1.7-2.6,1.7-4.3V35.2c0-1.8-0.6-3.2-1.7-4.4C343.8,29.5,342.4,29,340.6,29z M331.1,68.3
		c-2.7,3.1-6.2,4.7-10.5,4.7s-7.8-1.6-10.4-4.7c-2.7-3.1-4-7.1-4-11.8s1.4-8.7,4.1-11.9c2.7-3.2,6.2-4.8,10.4-4.8
		c4.3,0,7.8,1.6,10.5,4.8c2.7,3.2,4.1,7.1,4.1,11.9S333.9,65.2,331.1,68.3z"/>
	<path d="M322,87c-2,0-3.6,0.4-4.6,1.1s-1.5,2-1.5,3.9v1.9c0,1.8,0.5,3.1,1.4,3.9c0.9,0.7,2.5,1.1,4.7,1.1c2.3,0,4-0.3,4.9-1
		c1-0.7,1.5-2,1.5-3.9v-1.9c0-1.8-0.5-3.1-1.4-3.9C326.2,87.3,324.5,87,322,87z"/>
	<path d="M396.5,69.3c-0.9,0-1.6,0.1-2.2,0.4s-1.2,0.6-1.9,1.1s-1.2,0.8-1.6,1c-1.6,0.8-4,1.2-7.2,1.2c-4.4,0-8.1-1.6-10.9-4.7
		c-2.8-3.1-4.3-7.1-4.3-11.8c0-5,1.4-9,4.2-12c2.8-3.1,6.7-4.6,11.6-4.6c0.8,0,1.8,0.1,3.1,0.4s2.3,0.6,2.9,0.9
		c0.6,0.3,1.2,0.7,1.8,1.2s1.3,0.9,1.9,1.2c0.7,0.3,1.5,0.4,2.6,0.4c1.4,0,2.5-0.5,3.4-1.6s1.3-2.4,1.3-3.8c0-2.9-1.7-5.2-5.1-7
		c-3.4-1.7-8-2.6-13.6-2.6c-5,0-9.5,1.2-13.5,3.5s-7,5.6-9.3,9.8c-2.2,4.2-3.3,8.9-3.3,14.3c0,5.1,1.1,9.8,3.2,14
		c2.1,4.2,5.1,7.5,9,9.9s8.3,3.6,13.4,3.6c3.4,0,6.7-0.4,9.7-1.2c3-0.8,5.5-1.9,7.3-3.3s2.8-2.9,2.8-4.5s-0.5-3-1.4-4.1
		C399.4,69.8,398.1,69.3,396.5,69.3z"/>
	<path d="M459.9,46.7h-17.2c-1.7,0-3.2,0.6-4.3,1.7c-1.2,1.1-1.7,2.5-1.7,4.2s0.6,3.1,1.7,4.3c1.2,1.1,2.6,1.7,4.3,1.7h17.2
		c1.7,0,3.2-0.5,4.3-1.6c1.2-1.1,1.7-2.5,1.7-4.1c0-1.7-0.6-3.2-1.7-4.3C463.1,47.3,461.7,46.7,459.9,46.7z"/>
	<path d="M543.5,46.2c-3.4-1.5-7.9-2.8-13.6-3.8c-5-0.9-8.7-2.1-11-3.6s-3.5-3.6-3.5-6.4c0-2.5,1.1-4.5,3.4-6.1
		c2.3-1.5,5.5-2.3,9.7-2.3c2.4,0,5.2,0.6,8.3,1.7c3.1,1.2,5.5,2.4,7.2,3.8c0.8,0.6,1.7,0.9,2.7,0.9c1.5,0,2.8-0.6,4-1.7
		c1.1-1.2,1.7-2.5,1.7-4c0-2-1-3.7-2.9-5.2c-2.4-2-5.5-3.7-9.2-5s-7.6-1.9-11.7-1.9c-4.6,0-8.8,0.8-12.6,2.4c-3.8,1.6-6.7,4-8.9,7
		c-2.2,3.1-3.3,6.7-3.3,10.8c0,11.4,7.2,18.1,21.7,20.2c5.7,0.9,9.9,2.1,12.6,3.8c2.6,1.7,4,4,4,7c0,2.4-1.3,4.5-4,6.1
		c-2.7,1.7-5.9,2.5-9.6,2.5c-3.4,0-6.4-0.5-8.9-1.5s-5.1-2.6-7.7-4.8c-1-0.8-2.1-1.2-3.4-1.2c-1.6,0-2.9,0.6-4.1,1.7
		c-1.1,1.2-1.7,2.5-1.7,4c0,1.9,0.9,3.7,2.7,5.2c3.2,2.8,6.7,4.9,10.4,6c3.7,1.2,7.9,1.8,12.7,1.8c4.5,0,8.7-0.8,12.6-2.5
		s7-4.1,9.4-7.2c2.3-3.1,3.5-6.8,3.5-10.9c0-4.4-0.9-8-2.6-10.6C549.5,49.9,546.9,47.8,543.5,46.2z"/>
	<path d="M569.4,11.7c-2.2,0-3.8,0.4-4.8,1.1s-1.5,2-1.5,3.9v1.9c0,1.8,0.5,3.1,1.4,3.9c0.9,0.7,2.5,1.1,4.8,1.1s3.9-0.3,4.9-1
		s1.4-2,1.4-3.9v-1.9c0-1.8-0.5-3.1-1.4-3.9C573.4,12.1,571.7,11.7,569.4,11.7z"/>
	<path d="M569.4,29.9c-1.7,0-3.1,0.6-4.3,1.7c-1.1,1.2-1.7,2.6-1.7,4.3v40.9c0,1.7,0.6,3.2,1.7,4.3c1.1,1.2,2.5,1.7,4.3,1.7
		c1.7,0,3.1-0.6,4.3-1.7c1.1-1.2,1.7-2.6,1.7-4.3V35.9c0-1.7-0.6-3.2-1.7-4.3C572.6,30.5,571.1,29.9,569.4,29.9z"/>
	<path d="M594.6,9.7c-1.7,0-3.2,0.6-4.3,1.7c-1.2,1.2-1.7,2.6-1.7,4.3v61.2c0,1.7,0.6,3.2,1.7,4.3c1.1,1.2,2.5,1.7,4.2,1.7
		s3.2-0.6,4.3-1.7c1.2-1.2,1.7-2.6,1.7-4.3V15.7c0-1.7-0.6-3.2-1.7-4.3C597.6,10.2,596.2,9.7,594.6,9.7z"/>
	<path d="M652.5,30c-1.1-0.1-2.1,0.2-3.1,0.9c-0.9,0.7-1.7,1.6-2.2,2.9L633.6,65l-13.7-31.3c-0.5-1.2-1.3-2.1-2.4-2.8
		c-1.1-0.7-2.2-1-3.5-1c-1.7,0-3,0.5-4.2,1.6c-1.1,1.1-1.7,2.3-1.7,3.6c0,1.1,0.2,2.1,0.7,3.2l18.4,40.8c0.5,1.2,1.3,2.1,2.2,2.8
		c1,0.7,2,1,3.1,1l0.9-0.1c1.1-0.1,2.1-0.4,3-1.1s1.6-1.5,2-2.7l18.5-40.8c0.5-1.2,0.8-2.2,0.8-3c0-1.5-0.5-2.8-1.6-3.8
		C655.4,30.6,654.1,30,652.5,30z"/>
	<path d="M701.7,32.5c-3.9-2.4-8-3.6-12.3-3.6c-4.4,0-8.6,1.1-12.5,3.4s-7,5.6-9.4,9.9s-3.6,9.3-3.6,14.9c0,5.1,1.1,9.7,3.4,13.7
		c2.2,4.1,5.4,7.2,9.6,9.6c4.1,2.3,9,3.5,14.5,3.5c3.2,0,6.3-0.5,9.4-1.6s5.6-2.3,7.4-3.9c1.8-1.5,2.8-3.1,2.8-4.9
		c0-1.3-0.5-2.5-1.5-3.5s-2.2-1.5-3.6-1.5c-1.1,0-2.2,0.3-3.4,0.9c-0.3,0.2-0.9,0.6-1.8,1.1c-0.9,0.6-2.1,1.1-3.6,1.6
		s-3.6,0.7-6.3,0.7c-3.6,0-6.8-1.1-9.6-3.3c-2.8-2.2-4.7-5.3-5.4-9.2h32.7c1.6,0,3-0.5,4.2-1.5s1.8-2.3,1.9-3.9
		c0-4.7-1.2-9-3.5-13.1C708.7,38.1,705.6,34.9,701.7,32.5z M701.8,50.6h-25.9c1.4-7.2,5.9-10.8,13.6-10.8c3.1,0,5.9,1,8.3,3
		s3.8,4.4,4.1,7.1L701.8,50.6L701.8,50.6z"/>
	<path d="M756.9,30.6c-1.4-1.1-3-1.7-5-1.7c-3.2,0-6.3,0.7-9.1,2.1c-2.8,1.4-5,3.5-6.5,6.2v-1.3c0-1.7-0.6-3.2-1.7-4.3
		c-1.1-1.2-2.5-1.7-4.3-1.7c-1.7,0-3.1,0.6-4.3,1.7c-1.1,1.2-1.7,2.6-1.7,4.3v40.9c0,1.7,0.6,3.2,1.7,4.3c1.1,1.2,2.5,1.7,4.3,1.7
		c1.7,0,3.1-0.6,4.3-1.7c1.1-1.2,1.7-2.6,1.7-4.3V53.3c0-3,0.5-5.5,1.5-7.7c1-2.1,2.3-3.7,3.9-4.8c1.6-1.1,3.2-1.6,5-1.6
		c0.8,0,1.5,0.1,2.2,0.3s1.1,0.3,1.3,0.4c1.3,0.5,2.4,0.7,3.4,0.7c1.5,0,2.7-0.5,3.8-1.5c1.1-1,1.6-2.6,1.6-4.6
		C758.9,33.1,758.2,31.8,756.9,30.6z"/>
</g>
</svg>
