<?xml version="1.0" encoding="utf-8"?>
<!-- Generator: Adobe Illustrator 27.9.0, SVG Export Plug-In . SVG Version: 6.00 Build 0)  -->
<svg version="1.1" id="Layer_1" xmlns="http://www.w3.org/2000/svg" xmlns:xlink="http://www.w3.org/1999/xlink" x="0px" y="0px"
	 viewBox="0 0 467.9 96" style="enable-background:new 0 0 467.9 96;" xml:space="preserve">
<g>
	<path d="M50.5,47.9c2.6-1.3,4.7-3.1,6.1-5.4c1.4-2.3,2.1-4.9,2.1-7.9c0-11.7-6.3-17.6-18.8-17.6H15c-1.7,0-3.2,0.6-4.3,1.7
		C9.5,19.9,9,21.3,9,23v57.2c0,1.7,0.6,3.2,1.7,4.3c1.2,1.2,2.6,1.7,4.3,1.7h24.7c6.2,0,11.5-1.5,16-4.7c4.5-3.1,6.7-8.6,6.7-16.4
		c0-4.5-1.1-8.2-3.3-11C56.8,51.4,54,49.3,50.5,47.9z M21.8,28.7h16.3c2.4,0,4.3,0.7,5.7,2c1.4,1.4,2,3.4,2,6.1c0,2.2-0.7,4-2.2,5.3
		s-3.2,2-5.2,2H21.8V28.7z M46.9,72.4c-1.7,1.7-4.2,2.5-7.3,2.5H21.8V55.8h17.1c3,0,5.5,0.6,7.5,1.8c2,1.2,3.1,3.7,3.1,7.6
		C49.5,68.4,48.6,70.8,46.9,72.4z"/>
	<path d="M89.1,17c-1.7,0-3.1,0.3-4.3,0.9l-14.9,8.9c-0.9,0.5-1.7,1.3-2.2,2.2c-0.6,0.9-0.8,1.9-0.8,3c0,1.5,0.6,2.9,1.7,4.2
		c1.2,1.3,2.6,1.9,4.2,1.9c1.1,0,2.2-0.3,3.2-0.9l6.1-3.8v46.9c0,1.7,0.6,3.2,1.8,4.3c1.2,1.2,2.7,1.7,4.6,1.7
		c1.8,0,3.4-0.6,4.7-1.7c1.3-1.2,1.9-2.6,1.9-4.3V23.1c0-1.7-0.6-3.2-1.7-4.3C92.1,17.6,90.7,17,89.1,17z"/>
	<path d="M159,56.6h-4.2V23c0-1.7-0.6-3.2-1.7-4.3c-1.1-1.2-2.5-1.7-4.2-1.7c-2,0-3.7,0.8-5,2.4l-31.3,38.3c-1,1.2-1.5,2.5-1.5,4
		c0,1.6,0.6,3,1.9,4.1c1.3,1.2,2.6,1.7,4.1,1.7h25.7v12.8c0,1.7,0.6,3.2,1.7,4.3c1.1,1.2,2.5,1.7,4.2,1.7s3.2-0.6,4.3-1.7
		c1.2-1.2,1.7-2.6,1.7-4.3V67.5h4.2c1.6,0,2.9-0.5,4-1.5s1.6-2.3,1.6-3.8c0-1.6-0.5-2.9-1.6-4C161.9,57.1,160.6,56.6,159,56.6z
		 M142.9,56.6h-16l16-19.8V56.6z"/>
	<path d="M228.4,50.1h-17.2c-1.7,0-3.2,0.6-4.3,1.7c-1.2,1.1-1.7,2.5-1.7,4.2s0.6,3.1,1.7,4.3c1.2,1.1,2.6,1.7,4.3,1.7h17.2
		c1.7,0,3.2-0.5,4.3-1.6c1.2-1.1,1.7-2.5,1.7-4.1c0-1.7-0.6-3.2-1.7-4.3C231.5,50.6,230.1,50.1,228.4,50.1z"/>
	<path d="M326.1,22.7c0-1.7-0.6-3.1-1.7-4.2s-2.6-1.6-4.4-1.6h-44c-1.7,0-3.2,0.5-4.3,1.6c-1.2,1.1-1.7,2.4-1.7,4.1s0.6,3.1,1.7,4.2
		s2.6,1.6,4.4,1.6h15.5v51.9c0,1.7,0.6,3.2,1.8,4.3c1.2,1.2,2.7,1.7,4.6,1.7c1.8,0,3.4-0.6,4.7-1.7c1.3-1.2,1.9-2.6,1.9-4.3V28.4
		h15.5c1.8,0,3.2-0.5,4.4-1.5C325.5,25.8,326.1,24.5,326.1,22.7z"/>
	<path d="M358.4,35.9c-3.9-2.4-8-3.6-12.3-3.6c-4.4,0-8.6,1.1-12.5,3.4s-7,5.6-9.4,9.9s-3.6,9.3-3.6,14.9c0,5.1,1.1,9.7,3.4,13.7
		c2.2,4.1,5.4,7.2,9.6,9.6c4.1,2.3,9,3.5,14.5,3.5c3.2,0,6.3-0.5,9.4-1.6s5.6-2.3,7.4-3.9c1.8-1.5,2.8-3.1,2.8-4.9
		c0-1.3-0.5-2.5-1.5-3.5s-2.2-1.5-3.6-1.5c-1.1,0-2.2,0.3-3.4,0.9c-0.3,0.2-0.9,0.6-1.8,1.1c-0.9,0.6-2.1,1.1-3.6,1.6
		s-3.6,0.7-6.3,0.7c-3.6,0-6.8-1.1-9.6-3.3c-2.8-2.2-4.7-5.3-5.4-9.2h32.7c1.6,0,3-0.5,4.2-1.5s1.8-2.3,1.9-3.9
		c0-4.7-1.2-9-3.5-13.1C365.4,41.5,362.3,38.3,358.4,35.9z M358.5,54h-25.9c1.4-7.2,5.9-10.8,13.6-10.8c3.1,0,5.9,1,8.3,3
		s3.8,4.4,4.1,7.1L358.5,54L358.5,54z"/>
	<path d="M424.3,32.3c-1.7,0-3.1,0.6-4.3,1.7c-1.1,1.2-1.7,2.6-1.7,4.3v0.1c-1.9-1.8-4.3-3.2-7-4.4c-2.8-1.2-5.7-1.7-8.9-1.7
		c-4.4,0-8.5,1.2-12.1,3.5c-3.7,2.3-6.6,5.6-8.7,9.8c-2.1,4.2-3.2,8.9-3.2,14.2c0,5.3,1.1,10,3.2,14.2s5.1,7.4,8.8,9.8
		c3.7,2.3,7.8,3.5,12.4,3.5c3.1,0,6.1-0.7,8.9-2c2.8-1.4,5-3,6.7-4.9c0.1,1.7,0.6,3.1,1.7,4.3c1.1,1.1,2.5,1.7,4.2,1.7
		s3.1-0.6,4.3-1.7c1.1-1.2,1.7-2.6,1.7-4.3V38.5c0-1.8-0.6-3.2-1.7-4.4C427.4,32.9,426,32.3,424.3,32.3z M414.8,71.7
		c-2.7,3.1-6.2,4.7-10.5,4.7s-7.8-1.6-10.4-4.7c-2.7-3.1-4-7.1-4-11.8s1.4-8.7,4.1-11.9c2.7-3.2,6.2-4.8,10.4-4.8
		c4.3,0,7.8,1.6,10.5,4.8c2.7,3.2,4.1,7.1,4.1,11.9S417.5,68.6,414.8,71.7z"/>
	<path d="M454.3,14.8c-1.1-1.2-2.5-1.7-4.2-1.7s-3.2,0.6-4.3,1.7c-1.2,1.2-1.7,2.6-1.7,4.3v61.2c0,1.7,0.6,3.2,1.7,4.3
		c1.1,1.2,2.5,1.7,4.2,1.7s3.2-0.6,4.3-1.7c1.2-1.2,1.7-2.6,1.7-4.3V19.1C456,17.4,455.4,15.9,454.3,14.8z"/>
</g>
</svg>
