<?xml version="1.0" encoding="utf-8"?>
<!-- Generator: Adobe Illustrator 27.9.0, SVG Export Plug-In . SVG Version: 6.00 Build 0)  -->
<svg version="1.1" id="Layer_1" xmlns="http://www.w3.org/2000/svg" xmlns:xlink="http://www.w3.org/1999/xlink" x="0px" y="0px"
	 viewBox="0 0 1021.2 108.7" style="enable-background:new 0 0 1021.2 108.7;" xml:space="preserve">
<g>
	<path d="M65.4,7.1c-1.1,0-2.2,0.3-3.2,1s-1.8,1.6-2.3,2.8L41.7,57.7L21.8,10.9c-0.5-1.3-1.3-2.2-2.3-2.9c-1-0.7-2-1-3.2-1
		c-1.4,0-2.7,0.5-4.1,1.6c-1.3,1.1-2,2.5-2,4.3c0,1,0.2,1.8,0.5,2.5l24.5,57.4c0.5,1.2,1.3,2.1,2.2,2.7c1,0.6,2,1,3.1,1
		c1.2,0,2.3-0.3,3.4-1s1.9-1.6,2.5-2.9l24.5-57.2c0.4-0.9,0.6-1.8,0.6-2.7c0-1.6-0.6-2.9-1.8-4.1C68.5,7.7,67,7.1,65.4,7.1z"/>
	<path d="M113.4,26.2c-3.9-2.4-8-3.6-12.3-3.6c-4.4,0-8.6,1.1-12.5,3.4s-7,5.6-9.4,9.9s-3.6,9.3-3.6,14.9c0,5.1,1.1,9.7,3.4,13.7
		c2.2,4.1,5.4,7.2,9.6,9.6c4.1,2.3,9,3.5,14.5,3.5c3.2,0,6.3-0.5,9.4-1.6s5.6-2.3,7.4-3.9c1.8-1.5,2.8-3.1,2.8-4.9
		c0-1.3-0.5-2.5-1.5-3.5s-2.2-1.5-3.6-1.5c-1.1,0-2.2,0.3-3.4,0.9c-0.3,0.2-0.9,0.6-1.8,1.1c-0.9,0.6-2.1,1.1-3.6,1.6
		s-3.6,0.7-6.3,0.7c-3.6,0-6.8-1.1-9.6-3.3c-2.8-2.2-4.7-5.3-5.4-9.2h32.7c1.6,0,3-0.5,4.2-1.5s1.8-2.3,1.9-3.9
		c0-4.7-1.2-9-3.5-13.1C120.4,31.8,117.3,28.6,113.4,26.2z M113.5,44.4H87.6c1.4-7.2,5.9-10.8,13.6-10.8c3.1,0,5.9,1,8.3,3
		s3.8,4.4,4.1,7.1v0.7H113.5z"/>
	<path d="M173.1,63c-0.9,0-1.6,0.1-2.2,0.4s-1.2,0.6-1.9,1.1s-1.2,0.8-1.6,1c-1.6,0.8-4,1.2-7.2,1.2c-4.4,0-8.1-1.6-10.9-4.7
		c-2.8-3.1-4.3-7.1-4.3-11.8c0-5,1.4-9,4.2-12c2.8-3.1,6.7-4.6,11.6-4.6c0.8,0,1.8,0.1,3.1,0.4s2.3,0.6,2.9,0.9
		c0.6,0.3,1.2,0.7,1.8,1.2s1.3,0.9,1.9,1.2c0.7,0.3,1.5,0.4,2.6,0.4c1.4,0,2.5-0.5,3.4-1.6s1.3-2.4,1.3-3.8c0-2.9-1.7-5.2-5.1-7
		c-3.4-1.7-8-2.6-13.6-2.6c-5,0-9.5,1.2-13.5,3.5s-7,5.6-9.3,9.8c-2.2,4.2-3.3,8.9-3.3,14.3c0,5.1,1.1,9.8,3.2,14
		c2.1,4.2,5.1,7.5,9,9.9s8.3,3.6,13.4,3.6c3.4,0,6.7-0.4,9.7-1.2c3-0.8,5.5-1.9,7.3-3.3s2.8-2.9,2.8-4.5s-0.5-3-1.4-4.1
		C176,63.5,174.7,63,173.1,63z"/>
	<path d="M215.4,22.7c-3.4,0-6.6,0.9-9.5,2.6s-5.2,3.8-7,6.1v-1.7c0-1.7-0.6-3.2-1.7-4.3c-1.1-1.2-2.5-1.7-4.3-1.7
		c-1.7,0-3.1,0.6-4.3,1.7c-1.1,1.2-1.7,2.6-1.7,4.3v40.9c0,1.7,0.6,3.2,1.7,4.3c1.1,1.2,2.5,1.7,4.3,1.7c1.7,0,3.1-0.6,4.3-1.7
		c1.1-1.2,1.7-2.6,1.7-4.3V45.3c0-3.4,1.1-6.2,3.3-8.4c2.2-2.2,5.2-3.3,9-3.3c3.7,0,6.3,1,7.8,3.1s2.3,4.9,2.3,8.6v25.3
		c0,1.7,0.6,3.2,1.7,4.3c1.1,1.2,2.5,1.7,4.3,1.7c1.7,0,3.1-0.6,4.3-1.7c1.1-1.2,1.7-2.6,1.7-4.3V45.3c0-7.1-1.3-12.6-3.9-16.6
		S222.1,22.7,215.4,22.7z"/>
	<path d="M284.9,23.7c-1.7,0-3.1,0.6-4.3,1.7c-1.1,1.2-1.7,2.6-1.7,4.3V55c0,3.8-0.9,6.7-2.8,8.7c-1.9,2-4.5,3-8,3s-6.2-0.9-8-2.7
		c-1.8-1.8-2.7-4.8-2.7-9V29.7c0-1.7-0.6-3.2-1.7-4.3c-1.1-1.2-2.5-1.7-4.3-1.7c-1.7,0-3.1,0.6-4.3,1.7c-1.1,1.2-1.7,2.6-1.7,4.3
		v28.9c0,3.7,0.7,7,2.2,9.8c1.5,2.9,3.5,5.1,6.1,6.7c2.6,1.6,5.7,2.4,9.1,2.4c7.3,0,12.6-2.1,16-6.4v1c0,4.9-1.1,8.3-3.3,10.3
		s-5.7,3-10.3,3c-1.4,0-2.7-0.1-4-0.4s-2.5-0.7-3.7-1.1c-1.2-0.5-2-0.8-2.4-1c-0.6-0.2-1.2-0.3-1.9-0.3c-1.1,0-2.2,0.4-3.1,1.1
		c-1,0.8-1.6,1.9-2,3.3c-0.2,0.6-0.3,1.1-0.3,1.6c0,2.4,1.6,4.4,4.9,5.7c1.5,0.6,3.3,1.1,5.7,1.4c2.3,0.4,4.6,0.5,6.9,0.5
		c7.7,0,13.9-2,18.5-5.9s6.9-10.2,6.9-18.8V29.4c0-1.7-0.6-3.2-1.7-4.3C288,24.2,286.6,23.7,284.9,23.7z"/>
	<path d="M353.2,40.4H336c-1.7,0-3.2,0.6-4.3,1.7c-1.2,1.1-1.7,2.5-1.7,4.2s0.6,3.1,1.7,4.3c1.2,1.1,2.6,1.7,4.3,1.7h17.2
		c1.7,0,3.2-0.5,4.3-1.6c1.2-1.1,1.7-2.5,1.7-4.1c0-1.7-0.6-3.2-1.7-4.3C356.3,41,354.9,40.4,353.2,40.4z"/>
	<path d="M449.5,7.3c-1.7,0-3.1,0.6-4.4,1.7c-1.3,1.2-1.9,2.6-1.9,4.3v22.8h-31.6V13.3c0-1.7-0.6-3.2-1.8-4.3
		c-1.2-1.2-2.6-1.7-4.3-1.7c-1.8,0-3.4,0.6-4.6,1.7c-1.2,1.2-1.8,2.6-1.8,4.3v57.2c0,1.7,0.6,3.2,1.7,4.3c1.2,1.2,2.6,1.7,4.4,1.7
		c1.6,0,3.1-0.6,4.4-1.7c1.3-1.2,1.9-2.6,1.9-4.3V47.4h31.6v23.1c0,1.7,0.6,3.2,1.8,4.3c1.2,1.2,2.6,1.7,4.3,1.7
		c1.8,0,3.4-0.6,4.6-1.7c1.2-1.2,1.8-2.6,1.8-4.3V13.3c0-1.8-0.6-3.2-1.7-4.4C452.8,7.9,451.3,7.3,449.5,7.3z"/>
	<path d="M507.1,26.2c-4.1-2.3-8.7-3.5-13.6-3.5c-5,0-9.6,1.2-13.7,3.5c-4.1,2.3-7.3,5.6-9.7,9.8c-2.4,4.2-3.6,8.9-3.6,14.2
		c0,5.3,1.2,10,3.6,14.2c2.4,4.2,5.6,7.4,9.7,9.8c4.1,2.3,8.6,3.5,13.7,3.5c5,0,9.5-1.2,13.6-3.5s7.4-5.6,9.8-9.8
		c2.4-4.2,3.6-8.9,3.6-14.2c0-5.3-1.2-10-3.6-14.2C514.4,31.8,511.2,28.5,507.1,26.2z M506.5,58.8c-1.4,2.5-3.2,4.5-5.4,5.8
		c-2.3,1.4-4.8,2.1-7.6,2.1s-5.3-0.7-7.6-2.1s-4.1-3.3-5.4-5.8c-1.4-2.5-2-5.4-2-8.6s0.7-6.1,2-8.7c1.4-2.5,3.2-4.5,5.4-5.9
		c2.3-1.4,4.8-2.1,7.6-2.1s5.3,0.7,7.6,2.1s4.1,3.4,5.4,5.9c1.4,2.5,2,5.4,2,8.7C508.5,53.4,507.8,56.3,506.5,58.8z"/>
	<path d="M558.6,22.7c-3.4,0-6.6,0.9-9.5,2.6s-5.2,3.8-7,6.1v-1.7c0-1.7-0.6-3.2-1.7-4.3c-1.1-1.2-2.5-1.7-4.3-1.7
		c-1.7,0-3.1,0.6-4.3,1.7c-1.1,1.2-1.7,2.6-1.7,4.3v40.9c0,1.7,0.6,3.2,1.7,4.3c1.1,1.2,2.5,1.7,4.3,1.7c1.7,0,3.1-0.6,4.3-1.7
		c1.1-1.2,1.7-2.6,1.7-4.3V45.3c0-3.4,1.1-6.2,3.3-8.4c2.2-2.2,5.2-3.3,9-3.3c3.7,0,6.3,1,7.8,3.1s2.3,4.9,2.3,8.6v25.3
		c0,1.7,0.6,3.2,1.7,4.3c1.1,1.2,2.5,1.7,4.3,1.7c1.7,0,3.1-0.6,4.3-1.7c1.1-1.2,1.7-2.6,1.7-4.3V45.3c0-7.1-1.3-12.6-3.9-16.6
		S565.3,22.7,558.6,22.7z"/>
	<path d="M624.1,26.2c-3.9-2.4-8-3.6-12.3-3.6c-4.4,0-8.6,1.1-12.5,3.4s-7,5.6-9.4,9.9s-3.6,9.3-3.6,14.9c0,5.1,1.1,9.7,3.4,13.7
		c2.2,4.1,5.4,7.2,9.6,9.6c4.1,2.3,9,3.5,14.5,3.5c3.2,0,6.3-0.5,9.4-1.6c3.1-1.1,5.6-2.3,7.4-3.9c1.8-1.5,2.8-3.1,2.8-4.9
		c0-1.3-0.5-2.5-1.5-3.5s-2.2-1.5-3.6-1.5c-1.1,0-2.2,0.3-3.4,0.9c-0.3,0.2-0.9,0.6-1.8,1.1c-0.9,0.6-2.1,1.1-3.6,1.6
		s-3.6,0.7-6.3,0.7c-3.6,0-6.8-1.1-9.6-3.3c-2.8-2.2-4.7-5.3-5.4-9.2h32.7c1.6,0,3-0.5,4.2-1.5s1.8-2.3,1.9-3.9
		c0-4.7-1.2-9-3.5-13.1C631,31.8,627.9,28.6,624.1,26.2z M624.1,44.4h-25.9c1.4-7.2,5.9-10.8,13.6-10.8c3.1,0,5.9,1,8.3,3
		c2.4,2,3.8,4.4,4.1,7.1L624.1,44.4L624.1,44.4z"/>
	<path d="M685.5,23.7c-1.7,0-3.1,0.6-4.3,1.7c-1.1,1.2-1.7,2.6-1.7,4.3V55c0,3.8-0.9,6.7-2.8,8.7s-4.5,3-8,3s-6.2-0.9-8-2.7
		c-1.8-1.8-2.7-4.8-2.7-9V29.7c0-1.7-0.6-3.2-1.7-4.3c-1.1-1.2-2.5-1.7-4.3-1.7c-1.7,0-3.1,0.6-4.3,1.7c-1.1,1.2-1.7,2.6-1.7,4.3
		v28.9c0,3.7,0.7,7,2.2,9.8c1.5,2.9,3.5,5.1,6.1,6.7s5.7,2.4,9.1,2.4c7.3,0,12.6-2.1,16-6.4v1c0,4.9-1.1,8.3-3.3,10.3
		c-2.2,2-5.7,3-10.3,3c-1.4,0-2.7-0.1-4-0.4s-2.5-0.7-3.7-1.1c-1.2-0.5-2-0.8-2.4-1c-0.6-0.2-1.2-0.3-1.9-0.3
		c-1.1,0-2.2,0.4-3.1,1.1c-1,0.8-1.6,1.9-2,3.3c-0.2,0.6-0.3,1.1-0.3,1.6c0,2.4,1.6,4.4,4.9,5.7c1.5,0.6,3.3,1.1,5.7,1.4
		c2.3,0.4,4.6,0.5,6.9,0.5c7.7,0,13.9-2,18.5-5.9s6.9-10.2,6.9-18.8V29.4c0-1.7-0.6-3.2-1.7-4.3C688.6,24.2,687.2,23.7,685.5,23.7z"
		/>
	<path d="M793.1,7.2c-0.9,0-1.8,0.2-2.7,0.7c-0.9,0.5-1.6,1.1-2.1,1.9L766.1,43L744.5,9.8c-0.5-0.8-1.3-1.4-2.3-1.9s-2-0.7-3-0.7
		c-1.7,0-3.2,0.6-4.4,1.8c-1.2,1.2-1.8,2.6-1.8,4.3v57.3c0,1.7,0.5,3.2,1.6,4.3c1.1,1.2,2.4,1.7,4.1,1.7s3.1-0.6,4.2-1.7
		s1.6-2.6,1.6-4.4V29.7l16.3,25.8c0.7,0.8,1.4,1.4,2.3,1.9s1.7,0.7,2.6,0.6c0.9,0.1,1.8-0.1,2.7-0.6c0.9-0.5,1.6-1.1,2.3-1.9
		L787,30.6v39.9c0,1.8,0.6,3.2,1.7,4.4c1.2,1.1,2.7,1.7,4.5,1.7s3.3-0.6,4.5-1.7c1.1-1.2,1.7-2.6,1.7-4.3V13.3
		c0-1.7-0.6-3.2-1.8-4.3C796.2,7.8,794.8,7.2,793.1,7.2z"/>
	<path d="M856,22.7c-1.7,0-3.1,0.6-4.3,1.7c-1.1,1.2-1.7,2.6-1.7,4.3v0.1c-1.9-1.8-4.3-3.2-7-4.4c-2.8-1.2-5.7-1.7-8.9-1.7
		c-4.4,0-8.5,1.2-12.1,3.5c-3.7,2.3-6.6,5.6-8.7,9.8c-2.1,4.2-3.2,8.9-3.2,14.2c0,5.3,1.1,10,3.2,14.2s5.1,7.4,8.8,9.8
		c3.7,2.3,7.8,3.5,12.4,3.5c3.1,0,6.1-0.7,8.9-2c2.8-1.4,5-3,6.7-4.9c0.1,1.7,0.6,3.1,1.7,4.3c1.1,1.1,2.5,1.7,4.2,1.7
		s3.1-0.6,4.3-1.7c1.1-1.2,1.7-2.6,1.7-4.3V28.9c0-1.8-0.6-3.2-1.7-4.4C859.1,23.2,857.7,22.7,856,22.7z M846.5,62
		c-2.7,3.1-6.2,4.7-10.5,4.7s-7.8-1.6-10.4-4.7c-2.7-3.1-4-7.1-4-11.8s1.4-8.7,4.1-11.9c2.7-3.2,6.2-4.8,10.4-4.8
		c4.3,0,7.8,1.6,10.5,4.8c2.7,3.2,4.1,7.1,4.1,11.9S849.2,58.9,846.5,62z"/>
	<path d="M914.6,26.2c-3.7-2.3-7.8-3.5-12.4-3.5c-3.1,0-6.1,0.7-8.9,2.2s-5,3.2-6.6,5.2v-0.4c0-1.7-0.6-3.2-1.7-4.3
		c-1.1-1.2-2.5-1.7-4.3-1.7c-1.7,0-3.1,0.6-4.3,1.7c-1.1,1.2-1.7,2.6-1.7,4.3v60.7c0,1.8,0.6,3.2,1.7,4.4c1.1,1.1,2.5,1.7,4.3,1.7
		c1.7,0,3.1-0.6,4.3-1.7c1.1-1.2,1.7-2.6,1.7-4.3V71.1c1.8,1.8,4.2,3.4,7,4.7c2.8,1.3,5.8,1.9,9,1.9c4.4,0,8.5-1.2,12.1-3.5
		c3.7-2.3,6.5-5.6,8.7-9.8c2.1-4.2,3.2-8.9,3.2-14.2c0-5.3-1.1-10-3.2-14.2C921.2,31.8,918.3,28.5,914.6,26.2z M911.1,62
		c-2.7,3.2-6.2,4.8-10.4,4.8c-4.3,0-7.8-1.6-10.5-4.8c-2.7-3.2-4.1-7.1-4.1-11.9s1.4-8.7,4.1-11.8c2.7-3.1,6.2-4.7,10.5-4.7
		s7.8,1.6,10.4,4.7c2.7,3.1,4,7.1,4,11.8C915.2,54.8,913.8,58.8,911.1,62z"/>
	<path d="M943.5,3.4c-1.7,0-3.2,0.6-4.3,1.7c-1.2,1.2-1.7,2.6-1.7,4.3v61.2c0,1.7,0.6,3.2,1.7,4.3c1.1,1.2,2.5,1.7,4.2,1.7
		s3.2-0.6,4.3-1.7c1.2-1.2,1.7-2.6,1.7-4.3V9.4c0-1.7-0.6-3.2-1.7-4.3C946.5,3.9,945.2,3.4,943.5,3.4z"/>
	<path d="M1007.9,52.8c1.2-1,1.8-2.3,1.9-3.9c0-4.7-1.2-9-3.5-13.1c-2.3-4-5.4-7.2-9.3-9.6s-8-3.6-12.3-3.6c-4.4,0-8.6,1.1-12.5,3.4
		s-7,5.6-9.4,9.9s-3.6,9.3-3.6,14.9c0,5.1,1.1,9.7,3.4,13.7c2.2,4.1,5.4,7.2,9.6,9.6c4.1,2.3,9,3.5,14.5,3.5c3.2,0,6.3-0.5,9.4-1.6
		s5.6-2.3,7.4-3.9c1.8-1.5,2.8-3.1,2.8-4.9c0-1.3-0.5-2.5-1.5-3.5s-2.2-1.5-3.6-1.5c-1.1,0-2.2,0.3-3.4,0.9
		c-0.3,0.2-0.9,0.6-1.8,1.1c-0.9,0.6-2.1,1.1-3.6,1.6s-3.6,0.7-6.3,0.7c-3.6,0-6.8-1.1-9.6-3.3c-2.8-2.2-4.7-5.3-5.4-9.2h32.7
		C1005.3,54.3,1006.7,53.8,1007.9,52.8z M997.1,44.4h-25.9c1.4-7.2,5.9-10.8,13.6-10.8c3.1,0,5.9,1,8.3,3s3.8,4.4,4.1,7.1
		L997.1,44.4L997.1,44.4z"/>
</g>
</svg>
