<?xml version="1.0" encoding="utf-8"?>
<!-- Generator: Adobe Illustrator 27.9.0, SVG Export Plug-In . SVG Version: 6.00 Build 0)  -->
<svg version="1.1" id="Layer_1" xmlns="http://www.w3.org/2000/svg" xmlns:xlink="http://www.w3.org/1999/xlink" x="0px" y="0px"
	 viewBox="0 0 669.5 127.1" style="enable-background:new 0 0 669.5 127.1;" xml:space="preserve">
<g>
	<path d="M63.7,31.2h-44c-1.7,0-3.2,0.5-4.3,1.6c-1.2,1.1-1.7,2.4-1.7,4.1s0.6,3.1,1.7,4.2c1.1,1.1,2.6,1.6,4.4,1.6h15.5v51.9
		c0,1.7,0.6,3.2,1.8,4.3c1.2,1.2,2.7,1.7,4.6,1.7c1.8,0,3.4-0.6,4.7-1.7c1.3-1.2,1.9-2.6,1.9-4.3V42.7h15.5c1.8,0,3.2-0.5,4.4-1.5
		c1.1-1,1.7-2.4,1.7-4.1s-0.6-3.1-1.7-4.2C66.9,31.7,65.5,31.2,63.7,31.2z"/>
	<path d="M105.7,48.2c-1.4-1.1-3-1.7-5-1.7c-3.2,0-6.3,0.7-9.1,2.1s-5,3.5-6.5,6.2v-1.3c0-1.7-0.6-3.2-1.7-4.3
		c-1.1-1.2-2.5-1.7-4.3-1.7c-1.7,0-3.1,0.6-4.3,1.7c-1.1,1.2-1.7,2.6-1.7,4.3v40.9c0,1.7,0.6,3.2,1.7,4.3c1.1,1.2,2.5,1.7,4.3,1.7
		c1.7,0,3.1-0.6,4.3-1.7c1.1-1.2,1.7-2.6,1.7-4.3V70.9c0-3,0.5-5.5,1.5-7.7c1-2.1,2.3-3.7,3.9-4.8c1.6-1.1,3.2-1.6,5-1.6
		c0.8,0,1.5,0.1,2.2,0.3c0.7,0.2,1.1,0.3,1.3,0.4c1.3,0.5,2.4,0.7,3.4,0.7c1.5,0,2.7-0.5,3.8-1.5s1.6-2.6,1.6-4.6
		C107.8,50.7,107.1,49.3,105.7,48.2z"/>
	<path d="M129.9,41c2.7,1.6,6,2.4,9.8,2.4s7-0.8,9.8-2.4c2.7-1.6,4.7-3.9,6-7c0.3-0.7,0.4-1.4,0.4-2.1c0-1-0.3-1.8-0.9-2.3
		c-0.6-0.6-1.4-0.8-2.4-0.8c-1.3,0-2.4,0.3-3.2,0.8c-0.8,0.6-1.7,1.5-2.7,2.7c-1.6,1.8-3.9,2.7-6.8,2.7s-5.2-0.9-6.8-2.7
		c-1-1.3-1.9-2.2-2.7-2.7c-0.8-0.6-1.9-0.8-3.2-0.8c-1,0-1.8,0.3-2.4,0.9c-0.6,0.6-0.9,1.4-0.9,2.4c0,0.6,0.2,1.3,0.5,2.2
		C125.2,37.1,127.1,39.4,129.9,41z"/>
	<path d="M138,28.7c0.8,0.6,1.5,0.9,2.1,0.9c1.9,0,3.4-0.6,4.5-1.7l7.5-8.3c1.1-1.3,1.7-2.7,1.9-4.3c0.1-1.5-0.3-2.6-1.2-3.6
		c-0.9-0.9-2.2-1.4-4-1.4c-1.1,0-2.1,0.4-3.1,1.1c-0.9,0.7-1.7,1.7-2.4,2.9l-5.7,10.1c-0.4,0.7-0.6,1.3-0.6,1.9
		C136.9,27.3,137.2,28.1,138,28.7z"/>
	<path d="M157.9,46.5c-1.7,0-3.1,0.6-4.3,1.7c-1.1,1.2-1.7,2.6-1.7,4.3v0.1c-1.9-1.8-4.3-3.2-7-4.4c-2.8-1.2-5.7-1.7-8.9-1.7
		c-4.4,0-8.5,1.2-12.1,3.5c-3.7,2.3-6.6,5.6-8.7,9.8C113.1,64,112,68.7,112,74c0,5.3,1.1,10,3.2,14.2c2.1,4.2,5.1,7.4,8.8,9.8
		c3.7,2.3,7.8,3.5,12.4,3.5c3.1,0,6.1-0.7,8.9-2c2.8-1.4,5-3,6.7-4.9c0.1,1.7,0.6,3.1,1.7,4.3c1.1,1.1,2.5,1.7,4.2,1.7
		s3.1-0.6,4.3-1.7c1.1-1.2,1.7-2.6,1.7-4.3V52.7c0-1.8-0.6-3.2-1.7-4.4C161,47.1,159.6,46.5,157.9,46.5z M148.3,85.9
		c-2.7,3.1-6.2,4.7-10.5,4.7s-7.8-1.6-10.4-4.7c-2.7-3.1-4-7.1-4-11.8s1.4-8.7,4.1-11.9c2.7-3.2,6.2-4.8,10.4-4.8
		c4.3,0,7.8,1.6,10.5,4.8c2.7,3.2,4.1,7.1,4.1,11.9S151.1,82.8,148.3,85.9z"/>
	<path d="M205,46.5c-3.4,0-6.6,0.9-9.5,2.6s-5.2,3.8-7,6.1v-1.7c0-1.7-0.6-3.2-1.7-4.3c-1.1-1.2-2.5-1.7-4.3-1.7
		c-1.7,0-3.1,0.6-4.3,1.7c-1.1,1.2-1.7,2.6-1.7,4.3v40.9c0,1.7,0.6,3.2,1.7,4.3c1.1,1.2,2.5,1.7,4.3,1.7c1.7,0,3.1-0.6,4.3-1.7
		c1.1-1.2,1.7-2.6,1.7-4.3V69.1c0-3.4,1.1-6.2,3.3-8.4c2.2-2.2,5.2-3.3,9-3.3c3.7,0,6.3,1,7.8,3.1s2.3,4.9,2.3,8.6v25.3
		c0,1.7,0.6,3.2,1.7,4.3c1.1,1.2,2.5,1.7,4.3,1.7c1.7,0,3.1-0.6,4.3-1.7c1.1-1.2,1.7-2.6,1.7-4.3V69.1c0-7.1-1.3-12.6-3.9-16.6
		C216.4,48.5,211.7,46.5,205,46.5z"/>
	<path d="M279.5,46.5c-1.7,0-3.1,0.6-4.3,1.7c-1.1,1.2-1.7,2.6-1.7,4.3v1.1c-1.8-2-4.1-3.7-7-5c-2.9-1.4-6-2.1-9.4-2.1
		c-4.6,0-8.7,1.2-12.4,3.5s-6.7,5.6-8.8,9.8c-2.1,4.2-3.2,8.9-3.2,14.2c0,5.3,1.1,10,3.3,14.2s5.2,7.4,9,9.8c3.8,2.3,8,3.5,12.6,3.5
		c3.4,0,6.5-0.8,9.5-2.5c2.9-1.6,5.1-3.5,6.6-5.5v4.8c0,3.6-1.2,6.3-3.6,8.3c-2.4,1.9-6.1,2.9-10.9,2.9c-2.4,0-5.2-0.6-8.2-1.7
		c-3-1.2-4.6-1.8-4.9-1.8c-0.6-0.2-1.2-0.3-1.9-0.3c-1.1,0-2.2,0.4-3.1,1.1c-1,0.8-1.6,1.9-2,3.3c-0.2,0.6-0.3,1.1-0.3,1.6
		c0,2.4,1.6,4.4,4.9,5.7c1.5,0.7,3.9,1.3,7.4,2s6.2,1,8.2,1c7.7,0,14-1.9,19-5.8s7.5-9.8,7.5-17.9V52.6c0-1.8-0.6-3.2-1.7-4.4
		C282.7,47.1,281.2,46.5,279.5,46.5z M269.9,85.9c-2.8,3.1-6.4,4.7-10.8,4.7c-4.4,0-8-1.6-10.8-4.7s-4.2-7.1-4.2-11.8
		s1.4-8.7,4.2-11.9c2.8-3.2,6.4-4.8,10.8-4.8c4.4,0,8,1.6,10.8,4.8c2.8,3.2,4.2,7.1,4.2,11.9S272.7,82.8,269.9,85.9z"/>
	<path d="M347.8,64.3h-17.2c-1.7,0-3.2,0.6-4.3,1.7c-1.2,1.1-1.7,2.5-1.7,4.2s0.6,3.1,1.7,4.3c1.2,1.1,2.6,1.7,4.3,1.7h17.2
		c1.7,0,3.2-0.5,4.3-1.6c1.2-1.1,1.7-2.5,1.7-4.1c0-1.7-0.6-3.2-1.7-4.3C351,64.8,349.5,64.3,347.8,64.3z"/>
	<path d="M476.3,32.7c-1.4-1.2-2.8-1.8-4.4-1.8c-1.3,0-2.5,0.3-3.6,1c-1.1,0.7-1.8,1.6-2.2,2.8l-14.7,44.5l-12.2-30.6
		c-0.5-1.2-1.3-2.1-2.2-2.8c-1-0.7-2.1-1-3.3-0.9c-1.3-0.1-2.4,0.2-3.4,0.9c-1,0.7-1.7,1.6-2.3,2.8l-12.9,30.9l-14.8-44.7
		c-0.4-1.2-1.1-2.1-2.2-2.8c-1.1-0.7-2.2-1-3.6-1c-1.7,0-3.2,0.6-4.5,1.8c-1.4,1.2-2,2.8-2,4.6c0,0.6,0.1,1.3,0.3,2l19.5,57.4
		c0.4,1.1,1.1,2,2.1,2.7s2.1,1,3.3,1.1c1.2,0,2.3-0.3,3.4-1c1.1-0.7,1.9-1.6,2.5-2.9l14.2-32l14.1,32c0.6,1.3,1.4,2.2,2.5,2.9
		c1.1,0.7,2.2,1,3.4,1c1.2-0.1,2.3-0.4,3.3-1.1s1.7-1.5,2.1-2.7l19.5-57.4c0.2-0.7,0.3-1.4,0.3-2C478.3,35.5,477.6,33.9,476.3,32.7z
		"/>
	<path d="M514.1,46.5c-3.4,0-6.4,0.8-9.2,2.5c-2.7,1.7-5,3.7-6.8,6.1V33.2c0-1.7-0.6-3.2-1.7-4.3c-1.1-1.2-2.5-1.7-4.3-1.7
		c-1.7,0-3.1,0.6-4.3,1.7c-1.1,1.2-1.7,2.6-1.7,4.3v61.2c0,1.7,0.6,3.2,1.7,4.3c1.1,1.2,2.5,1.7,4.3,1.7c1.7,0,3.1-0.6,4.3-1.7
		c1.1-1.2,1.7-2.6,1.7-4.3V69.1c0-3.4,1-6.2,3.1-8.4c2.1-2.2,5-3.3,8.7-3.3c3.6,0,6.1,1,7.5,3.1s2.1,4.9,2.1,8.6v25.3
		c0,1.7,0.6,3.2,1.7,4.3c1.1,1.2,2.5,1.7,4.3,1.7c1.7,0,3.1-0.6,4.3-1.7c1.1-1.2,1.7-2.6,1.7-4.3V69.1c0-7.1-1.3-12.6-3.8-16.6
		C525.2,48.5,520.7,46.5,514.1,46.5z"/>
	<path d="M549.6,29.3c-2.2,0-3.8,0.4-4.8,1.1s-1.5,2-1.5,3.9v1.9c0,1.8,0.5,3.1,1.4,3.9c0.9,0.7,2.5,1.1,4.8,1.1s3.9-0.3,4.9-1
		s1.4-2,1.4-3.9v-1.9c0-1.8-0.5-3.1-1.4-3.9C553.5,29.7,551.9,29.3,549.6,29.3z"/>
	<path d="M549.6,47.5c-1.7,0-3.1,0.6-4.3,1.7c-1.1,1.2-1.7,2.6-1.7,4.3v40.9c0,1.7,0.6,3.2,1.7,4.3c1.1,1.2,2.5,1.7,4.3,1.7
		c1.7,0,3.1-0.6,4.3-1.7c1.1-1.2,1.7-2.6,1.7-4.3V53.5c0-1.7-0.6-3.2-1.7-4.3C552.7,48.1,551.3,47.5,549.6,47.5z"/>
	<path d="M591.8,59.4c1.6,0,2.9-0.5,4-1.5s1.6-2.3,1.6-3.8c0-1.6-0.5-2.9-1.6-4s-2.4-1.6-4-1.6h-7v-6.3c0-1.7-0.6-3.2-1.7-4.3
		c-1.1-1.2-2.5-1.7-4.2-1.7s-3.2,0.6-4.3,1.7c-1.2,1.2-1.7,2.6-1.7,4.3v6.3h-4.6c-1.6,0-2.9,0.5-4,1.5s-1.6,2.3-1.6,3.8
		c0,1.6,0.5,2.9,1.6,4s2.4,1.6,4,1.6h4.6v27.3c0,5.7,1.4,9.4,4.2,11.1c2.8,1.7,6.3,2.6,10.3,2.6c2.4,0,4.6-0.6,6.6-1.8
		c1.9-1.2,2.9-2.7,2.9-4.5c0-1.5-0.4-2.6-1.1-3.5c-0.8-0.9-1.6-1.3-2.5-1.3c-0.7,0-1.5,0.2-2.3,0.5c-0.9,0.3-1.7,0.4-2.2,0.4
		c-1.3,0-2.2-0.3-3-0.9c-0.7-0.6-1.1-1.6-1.1-3V59.5L591.8,59.4L591.8,59.4z"/>
	<path d="M653.3,76.6c1.2-1,1.8-2.3,1.9-3.9c0-4.7-1.2-9-3.5-13.1c-2.3-4-5.4-7.2-9.3-9.6s-8-3.6-12.3-3.6c-4.4,0-8.6,1.1-12.5,3.4
		s-7,5.6-9.4,9.9s-3.6,9.3-3.6,14.9c0,5.1,1.1,9.7,3.4,13.7c2.2,4.1,5.4,7.2,9.6,9.6c4.1,2.3,9,3.5,14.5,3.5c3.2,0,6.3-0.5,9.4-1.6
		s5.6-2.3,7.4-3.9c1.8-1.5,2.8-3.1,2.8-4.9c0-1.3-0.5-2.5-1.5-3.5S648,86,646.6,86c-1.1,0-2.2,0.3-3.4,0.9c-0.3,0.2-0.9,0.6-1.8,1.1
		c-0.9,0.6-2.1,1.1-3.6,1.6s-3.6,0.7-6.3,0.7c-3.6,0-6.8-1.1-9.6-3.3c-2.8-2.2-4.7-5.3-5.4-9.2h32.7
		C650.8,78.1,652.2,77.6,653.3,76.6z M642.6,68.2h-25.9c1.4-7.2,5.9-10.8,13.6-10.8c3.1,0,5.9,1,8.3,3s3.8,4.4,4.1,7.1L642.6,68.2
		L642.6,68.2z"/>
</g>
</svg>
