<?xml version="1.0" encoding="utf-8"?>
<!-- Generator: Adobe Illustrator 27.9.0, SVG Export Plug-In . SVG Version: 6.00 Build 0)  -->
<svg version="1.1" id="Layer_1" xmlns="http://www.w3.org/2000/svg" xmlns:xlink="http://www.w3.org/1999/xlink" x="0px" y="0px"
	 viewBox="0 0 587.1 83.1" style="enable-background:new 0 0 587.1 83.1;" xml:space="preserve">
<g>
	<path d="M49.3,38.7c2.6-1.3,4.7-3.1,6.1-5.4c1.4-2.3,2.1-4.9,2.1-7.9c0-11.7-6.3-17.6-18.8-17.6H13.8c-1.7,0-3.2,0.6-4.3,1.7
		c-1.2,1.2-1.7,2.6-1.7,4.3V71c0,1.7,0.6,3.2,1.7,4.3c1.2,1.2,2.6,1.7,4.3,1.7h24.6c6.2,0,11.5-1.5,16-4.7c4.5-3.1,6.7-8.6,6.7-16.4
		c0-4.5-1.1-8.2-3.3-11C55.6,42.2,52.8,40.1,49.3,38.7z M20.6,19.5h16.3c2.4,0,4.3,0.7,5.7,2c1.4,1.4,2,3.4,2,6.1
		c0,2.2-0.7,4-2.2,5.3s-3.2,2-5.2,2H20.6V19.5z M45.7,63.3c-1.7,1.7-4.2,2.5-7.3,2.5H20.6V46.7h17.1c3,0,5.5,0.6,7.5,1.8
		c2,1.2,3.1,3.7,3.1,7.6C48.3,59.2,47.4,61.6,45.7,63.3z"/>
	<path d="M109.8,11.3c-4-3-8.8-4.5-14.3-4.5s-10.3,1.5-14.3,4.5s-7,7.1-9.1,12.5c-2,5.4-3.1,11.6-3.1,18.7s1,13.3,3.1,18.7
		c2,5.4,5.1,9.6,9.1,12.5c4,3,8.8,4.5,14.3,4.5s10.3-1.5,14.3-4.5s7-7.1,9.1-12.5c2-5.4,3.1-11.6,3.1-18.7s-1-13.3-3.1-18.7
		C116.8,18.4,113.8,14.3,109.8,11.3z M105.5,60.2c-2.4,4-5.7,6-9.9,6s-7.5-2-9.9-6s-3.6-9.9-3.6-17.7c0-7.8,1.2-13.7,3.6-17.7
		c2.4-4,5.7-6,9.9-6s7.5,2,9.9,6s3.6,9.9,3.6,17.7C109.1,50.3,107.9,56.2,105.5,60.2z"/>
	<path d="M164.9,36.3c-2.8-2-6-3-9.7-3.2l13.3-14.7c1.6-1.6,2.4-3.2,2.4-4.8c0-1.8-0.5-3.2-1.6-4.3c-1.1-1.1-2.6-1.6-4.6-1.6h-30.3
		c-1.6,0-2.9,0.5-4,1.5s-1.6,2.3-1.6,3.8c0,1.6,0.5,2.9,1.6,4s2.4,1.6,4,1.6H154l-15.3,16.7c-0.8,0.9-1.4,1.7-1.7,2.4
		c-0.3,0.7-0.5,1.6-0.5,2.5c0,1.5,0.4,2.8,1.3,3.8c0.9,1,2,1.5,3.5,1.5c1.1,0,2.5-0.3,4.3-0.8c0.2-0.1,0.8-0.2,1.8-0.5
		s2.1-0.4,3.5-0.4c3,0,5.6,1,7.8,3c2.1,2,3.2,4.8,3.2,8.3c0,2.5-0.6,4.7-1.7,6.7c-1.2,1.9-2.7,3.4-4.5,4.5c-1.8,1-3.8,1.5-5.8,1.5
		c-3.4,0-6.6-1.1-9.4-3.3c-1.5-1-2.9-1.5-4.3-1.5c-1.6,0-2.9,0.7-4.1,2c-1.1,1.3-1.7,2.8-1.7,4.4c0,2.2,1.2,4,3.7,5.3
		c1.8,1,3.9,1.8,6.2,2.4c2.4,0.6,4.8,0.9,7.1,0.9c5.3,0,9.9-1,13.9-2.9s7-4.7,9.2-8.3c2.2-3.6,3.3-7.8,3.3-12.6
		c0-3.6-0.8-7-2.3-10.2C169.8,40.9,167.7,38.3,164.9,36.3z"/>
	<path d="M233.5,40.9h-17.2c-1.7,0-3.2,0.6-4.3,1.7c-1.2,1.1-1.7,2.5-1.7,4.2s0.6,3.1,1.7,4.3c1.2,1.1,2.6,1.7,4.3,1.7h17.2
		c1.7,0,3.2-0.5,4.3-1.6c1.2-1.1,1.7-2.5,1.7-4.1c0-1.7-0.6-3.2-1.7-4.3C236.7,41.5,235.2,40.9,233.5,40.9z"/>
	<path d="M323.8,7.5c-1.9,0-3.6,1-5,3l-16.3,23.9l-17.4-24.1c-1.4-1.8-3-2.8-4.9-2.8c-1.5,0-3,0.6-4.3,1.7c-1.4,1.2-2,2.6-2,4.3
		c0,1.5,0.6,3.1,1.8,4.7l20.6,27.3V71c0,1.7,0.6,3.2,1.7,4.3c1.2,1.2,2.6,1.7,4.2,1.7c1.6,0,2.9-0.6,4.1-1.7
		c1.1-1.2,1.7-2.6,1.7-4.3V46.8l20.7-29.6c0.7-1.1,1.1-2.3,1.1-3.7c0-1.7-0.6-3.2-1.8-4.4C326.8,8.1,325.4,7.5,323.8,7.5z"/>
	<path d="M368.4,26.7c-3.9-2.4-8-3.6-12.3-3.6c-4.4,0-8.6,1.1-12.5,3.4s-7,5.6-9.4,9.9s-3.6,9.3-3.6,14.9c0,5.1,1.1,9.7,3.4,13.7
		c2.2,4.1,5.4,7.2,9.6,9.6c4.1,2.3,9,3.5,14.5,3.5c3.2,0,6.3-0.5,9.4-1.6c3.1-1.1,5.6-2.3,7.4-3.9c1.8-1.5,2.8-3.1,2.8-4.9
		c0-1.3-0.5-2.5-1.5-3.5c-1-1-2.2-1.5-3.6-1.5c-1.1,0-2.2,0.3-3.4,0.9c-0.3,0.2-0.9,0.6-1.8,1.1c-0.9,0.6-2.1,1.1-3.6,1.6
		s-3.6,0.7-6.3,0.7c-3.6,0-6.8-1.1-9.6-3.3c-2.8-2.2-4.7-5.3-5.4-9.2h32.7c1.6,0,3-0.5,4.2-1.5s1.8-2.3,1.9-3.9
		c0-4.7-1.2-9-3.5-13.1C375.3,32.3,372.3,29.1,368.4,26.7z M368.4,44.9h-25.9c1.4-7.2,5.9-10.8,13.6-10.8c3.1,0,5.9,1,8.3,3
		c2.4,2,3.8,4.4,4.1,7.1L368.4,44.9L368.4,44.9z"/>
	<path d="M398,3.9c-1.7,0-3.2,0.6-4.3,1.7c-1.2,1.2-1.7,2.6-1.7,4.3v61.2c0,1.7,0.6,3.2,1.7,4.3c1.1,1.2,2.5,1.7,4.2,1.7
		s3.2-0.6,4.3-1.7c1.2-1.2,1.7-2.6,1.7-4.3V9.9c0-1.7-0.6-3.2-1.7-4.3C401.1,4.5,399.7,3.9,398,3.9z"/>
	<path d="M424.8,3.9c-1.7,0-3.2,0.6-4.3,1.7c-1.2,1.2-1.7,2.6-1.7,4.3v61.2c0,1.7,0.6,3.2,1.7,4.3c1.1,1.2,2.5,1.7,4.2,1.7
		s3.2-0.6,4.3-1.7c1.2-1.2,1.7-2.6,1.7-4.3V9.9c0-1.7-0.6-3.2-1.7-4.3C427.8,4.5,426.4,3.9,424.8,3.9z"/>
	<path d="M481.1,26.7c-4.1-2.3-8.7-3.5-13.6-3.5c-5,0-9.6,1.2-13.7,3.5s-7.3,5.6-9.7,9.8c-2.4,4.2-3.6,8.9-3.6,14.2
		c0,5.3,1.2,10,3.6,14.2s5.6,7.4,9.7,9.8c4.1,2.3,8.6,3.5,13.7,3.5c5,0,9.5-1.2,13.6-3.5s7.4-5.6,9.8-9.8c2.4-4.2,3.6-8.9,3.6-14.2
		c0-5.3-1.2-10-3.6-14.2C488.4,32.3,485.2,29,481.1,26.7z M480.5,59.3c-1.4,2.5-3.2,4.5-5.4,5.8c-2.3,1.4-4.8,2.1-7.6,2.1
		c-2.8,0-5.3-0.7-7.6-2.1c-2.3-1.4-4.1-3.3-5.4-5.8c-1.4-2.5-2-5.4-2-8.6s0.7-6.1,2-8.7c1.4-2.5,3.2-4.5,5.4-5.9
		c2.3-1.4,4.8-2.1,7.6-2.1c2.8,0,5.3,0.7,7.6,2.1c2.3,1.4,4.1,3.4,5.4,5.9c1.4,2.5,2,5.4,2,8.7C482.5,53.9,481.8,56.8,480.5,59.3z"
		/>
	<path d="M569.3,25.9c-1.1-1.2-2.4-1.7-4-1.7c-1.5,0-2.7,0.3-3.7,0.9s-1.7,1.6-2.1,2.8l-10.6,28.5l-7.6-20.7
		c-0.5-1.3-1.2-2.2-1.9-2.8c-0.8-0.6-1.8-0.9-3.2-0.9c-2.6,0-4.4,1.2-5.4,3.7L523,56.9l-10.7-29c-0.4-1.3-1.1-2.2-2-2.8
		c-1-0.6-2.1-0.9-3.4-0.9c-1.8,0-3.2,0.6-4.3,1.8c-1.1,1.2-1.6,2.7-1.6,4.3c0,0.8,0.1,1.6,0.4,2.3l15.1,40.8
		c0.4,1.2,1.1,2.1,2.1,2.8c1,0.7,2.1,1,3.3,1l0.8-0.1c2.2-0.1,3.9-1.4,5-3.8l8-24.4l8.4,24.4c1.1,2.4,2.8,3.6,5,3.8l0.8,0.1
		c1.2,0,2.3-0.3,3.3-1s1.7-1.6,2.1-2.8l15.1-40.8c0.3-0.9,0.4-1.7,0.4-2.3C570.9,28.5,570.4,27.1,569.3,25.9z"/>
</g>
</svg>
