<?xml version="1.0" encoding="UTF-8"?>
<svg id="Layer_2" data-name="Layer 2" xmlns="http://www.w3.org/2000/svg" viewBox="0 0 136.66 146">
  <g id="Layer_1-2" data-name="Layer 1">
    <g>
      <path d="m129.6,46.52c-.98-1.98-2.37-3.77-4.14-5.32-1.59-1.39-3.37-2.09-5.29-2.09h0c-1.85,0-3.65.69-5.06,1.94-.3.27-.57.55-.82.84l-.25-.14c-1.08-.61-2.11-1.18-2.94-1.77-1.44-1.03-2.55-1.96-3.41-2.88,1.45-2.87,2.56-5.63,3.36-8.35,1.08-3.66,1.58-6.84,1.58-10,0-1.77-.16-3.57-.47-5.35-.45-2.57-1.22-4.8-2.36-6.8-1.36-2.4-3.35-4.28-5.75-5.43C102.4.39,100.69,0,98.95,0h0c-2.43,0-4.87.79-7.05,2.3-2.17,1.5-3.98,3.27-5.43,5.31-.93-.48-1.94-.89-3.04-1.19-1.23-.34-2.37-.5-3.5-.5-1.67,0-3.27.36-4.75,1.08-3.68,1.77-5.95,5.09-6.41,9.35-.35,3.23.24,6.48,1.78,9.95,3.09,6.93,8.27,12.02,15.39,15.12.14.06.27.12.41.18-2.5-.76-5.15-1.18-7.92-1.24-.5-.01-1-.02-1.49-.04-1.2-.03-2.44-.06-3.71-.06-.23,0-.46,0-.69,0-.02-.06-.03-.12-.05-.18-.41-1.41-1.04-2.54-1.47-3.26-1.87-3.07-5.04-4.91-8.5-4.91-2.21,0-4.36.75-6.22,2.18-2.38,1.82-3.86,4.07-4.77,5.61-.18.3-.35.6-.53.91-.45-.03-.9-.07-1.36-.11-1.91-.16-3.89-.32-5.95-.36-.7-.02-1.4-.02-2.09-.02-2.67,0-5.39.12-8.07.34-2.37.2-4.57.6-6.71.99l-.9.16c-.16.03-.32.05-.49.08-.61-.68-1.27-1.36-2-2.02-2.38-2.15-5.03-3.24-7.86-3.24-.6,0-1.21.05-1.81.15-3.99.67-7.01,3.66-7.7,7.63-.19,1.07-.2,2.02-.19,2.88.03,2.73.31,5.49.86,8.45.03.16.05.26-.17.71-1.25,2.6-2.28,5.19-3.13,7.38-.84,2.16-1.52,4.54-2.09,7.27-.64,3.05-1.05,6.37-1.26,10.16-.2,3.56-.02,7.36.57,11.97.36,2.81.87,5.6,1.5,8.29.87,3.65,2.03,7.34,3.46,10.94,1.23,3.1,2.75,6.11,4.53,8.95,2.07,3.31,4.13,5.81,6.47,7.84,2.27,1.98,4.86,3.67,7.99,5.19,0,.16,0,.32,0,.49-.02,1.33.15,2.63.51,3.86.78,2.71,2.62,4.86,5.16,6.07,1.87.88,3.87,1.33,5.94,1.33.39,0,.79-.02,1.18-.05,2.1-.17,3.99-.86,5.55-2,.24.12.48.23.74.33,1.79.73,3.65,1.11,5.52,1.11.61,0,1.24-.04,1.85-.12,3.45-.46,6.24-2.49,7.66-5.59.51-1.12.87-2.32,1.06-3.57.37-.02.73-.04,1.09-.06.64-.03,1.29-.07,1.93-.09.47-.02.96-.03,1.48-.04.88,2.98,2.8,5.3,5.48,6.59,1.83.88,3.77,1.32,5.79,1.32.81,0,1.64-.07,2.47-.22,1.57-.28,2.99-.84,4.22-1.65.4.09.82.17,1.25.22.13.02.25.04.37.06.63.09,1.26.14,1.87.14,5.59,0,10.1-3.79,11.22-9.42.31-1.54.39-2.97.44-4.26,2.48-2.71,4.58-5.45,6.36-8.33,4.19-6.74,6.85-13.79,7.91-20.96.54-3.64,1.03-7.22,1.15-11.01.08-2.49.13-5.22-.05-8.09.83-.35,1.65-.78,2.46-1.29,4.15-2.6,7.14-6.2,8.76-10.5,1.36-.93,2.57-2.09,3.62-3.46,4.51-.99,6.81-3.65,7.97-5.78,1.39-2.57,1.47-5.51.23-8.05-1.2-2.44-3.44-4.14-6.18-4.72Z" style="fill: #e2d6c7; stroke-width: 0px;"/>
      <g>
        <path d="m128.02,53.41c-.99-.16-1.9.04-2.78.52-.29.16-.51.52-.97.42-.02-.21-.03-.42-.05-.63-.01-.21-.03-.43-.04-.64-.2-2.67-1.39-4.82-3.38-6.56-.31-.27-.64-.53-1.03-.18-.38.33-.23.72.01,1.06.31.43.65.85.99,1.26,1.08,1.29,1.75,2.74,1.86,4.44-.33-.07-.39-.35-.51-.56-.19-.35-.44-.65-.73-.92-1.08-1.01-2.21-.73-2.69.65-.04.11-.1.18-.24.21-2.33-1.46-4.77-2.79-7.18-4.16-1.46-.83-2.94-1.61-4.31-2.59-2.52-1.79-4.82-3.79-6.5-6.42-.33-.52-.55-1.08-.69-1.67-.08-.35-.07-.69.13-1.03,1.79-3.14,3.31-6.38,4.34-9.86.77-2.61,1.29-5.25,1.29-7.99,0-1.4-.13-2.78-.37-4.15-.28-1.59-.74-3.12-1.54-4.53-.63-1.11-1.52-2-2.67-2.55-1.77-.85-3.5-.52-5.06.57-3.16,2.18-5.14,5.18-6.04,8.9-.17.72-.33,1.44-.48,2.13-.38.04-.49-.21-.65-.39-.64-.72-1.23-1.48-1.93-2.14-1.54-1.45-3.14-2.81-5.25-3.38-1.12-.31-2.23-.4-3.33.13-1.58.76-2.28,2.11-2.45,3.75-.24,2.22.32,4.32,1.21,6.32,2.4,5.39,6.42,9.2,11.77,11.53,3.02,1.32,6.14,2.55,9.57,2.36.41-.02.59.14.56.55-.05.7.21,1.33.53,1.94,1.54,2.95,3.84,5.21,6.49,7.14,2.43,1.76,5.11,3.12,7.76,4.5,2.93,1.53,5.69,3.23,7.8,5.85.38.47.46.8.16,1.31-.63,1.1-1.46,2.02-2.45,2.79-.24.19-.51.41-.9.24-.03-.52-.06-1.05-.09-1.58-.08-1.32-.52-2.51-1.32-3.56-1.1-1.43-3.11-2.23-4.97-1.37-1.97.92-3.61,3.06-2.5,5.72.62,1.47,1.8,2.36,3.23,2.95,1.14.47,2.34.58,3.59.5.01.23.04.31.02.37-1.13,3.53-3.28,6.22-6.61,7.89-1.4.7-2.9.93-4.47.52-.46-.12-.63-.33-.73-.76-.22-.97-.49-1.93-.77-2.89-.74-2.54-1.73-4.98-3.1-7.25-.7-1.16-1.49-2.25-2.33-3.31-2.53-3.23-5.47-5.96-8.92-8.19-3.38-2.18-7.08-3.18-11.03-3.26-3.7-.08-7.42-.29-11.1.33-.38.06-.53-.13-.58-.45-.04-.25-.04-.5-.07-.74-.18-1.52-.4-3.04-.83-4.51-.16-.55-.43-1.05-.72-1.54-.84-1.39-2.59-2.17-4.4-.78-1.27.97-2.19,2.24-2.99,3.6-.84,1.41-1.63,2.85-2.41,4.29-.22.41-.45.58-.92.45-.44-.12-.9-.2-1.36-.22-3.13-.16-6.24-.55-9.38-.62-3.14-.07-6.27.03-9.4.3-2.34.2-4.65.65-6.96,1.06-1.16.21-2.35.27-3.46.65-.69.24-1.12.06-1.56-.49-1.08-1.32-2.16-2.66-3.43-3.81-1.06-.96-2.26-1.62-3.78-1.37-1.04.17-1.73.85-1.91,1.88-.09.53-.1,1.06-.09,1.6.03,2.43.3,4.85.75,7.23.34,1.81.05,3.41-.74,5.05-1.08,2.24-2.01,4.56-2.91,6.88-.77,1.99-1.32,4.06-1.76,6.16-.63,3.01-.95,6.04-1.13,9.12-.2,3.59.07,7.13.52,10.67.32,2.54.78,5.07,1.37,7.56.81,3.4,1.86,6.72,3.15,9.97,1.08,2.72,2.4,5.33,3.96,7.81,1.44,2.31,3.07,4.48,5.12,6.27,2.88,2.51,6.24,4.23,9.77,5.63.54.21.7.43.69.97-.04,1.5-.03,3-.05,4.5,0,.61.06,1.21.23,1.8.22.76.65,1.3,1.4,1.65,1.14.54,2.32.73,3.54.63,1.46-.12,2.54-.82,3.15-2.21.48-1.1.56-2.28.7-3.44.14-1.21,0-2.42.18-3.63.05-.34.17-.5.55-.45,1.5.19,2.21.85,2.47,2.34.03.18.05.35.08.53.17,1.09.31,2.19.51,3.27.21,1.12.79,1.98,1.88,2.43,1.21.5,2.47.69,3.77.52.97-.13,1.73-.58,2.16-1.53.4-.87.57-1.77.59-2.7.03-1.39,0-2.77-.22-4.15-.14-.88-.02-1,.88-.9,3,.33,5.99.03,8.98-.09,2.35-.09,4.71-.07,7.06-.04.8,0,.84.09.9.97.09,1.17.2,2.34.42,3.5.23,1.22.78,2.27,1.91,2.81,1.24.6,2.56.76,3.96.51,1.9-.34,2.89-1.55,3.38-3.29.12-.41.18-.84.23-1.26.13-1.14.13-2.28.1-3.42,0-.37-.06-.75.18-1.11.49.28.54.72.58,1.14.11,1.06.21,2.13.29,3.2.17,2.3,1.15,3.07,2.95,3.27.14.02.28.05.42.07,2.68.4,4.62-1.14,5.12-3.68.33-1.66.3-3.33.37-5,.02-.55.17-.94.54-1.32,2.57-2.64,4.88-5.48,6.83-8.61,3.5-5.63,5.95-11.68,6.93-18.27.5-3.38.97-6.77,1.08-10.2.13-4.28.13-8.56-.73-12.78-.08-.37-.16-.76-.04-1.19.18.02.32.02.45.05,2.2.5,4.21-.09,6.03-1.23,3.2-2.01,5.44-4.79,6.37-8.52.13-.52.34-.87.87-1.11,1.64-.73,2.89-1.94,3.85-3.45.34-.54.51-1.28.97-1.63.52-.39,1.3.04,1.96-.06,1.62-.24,3.04-.83,3.86-2.35.64-1.17.01-2.31-1.32-2.53Zm-28.83-17.83c-.21.51-.48.63-.97.56-1.73-.25-3.44-.65-5.06-1.28-1.69-.65-3.42-1.22-4.98-2.16-2.26-1.36-4.48-2.79-6.2-4.82-1.86-2.19-3.4-4.56-4.16-7.38-.28-1.05-.34-2.12-.3-3.18.05-1.42,1.48-2.77,3.03-2.37,1.2.32,2.27.86,3.25,1.57,1.67,1.22,3.17,2.65,4.59,4.16.22.23.46.45.72.63.73.5,1.4.25,1.61-.61.07-.27.08-.57.1-.85.32-4.05,2.07-7.33,5.18-9.93,2.88-2.41,5.3-1.08,6.6,1.5,1.18,2.36,1.44,4.9,1.5,6.9-.05,5.5-1.51,10.05-3.57,14.45-.44.94-.94,1.84-1.33,2.8Zm4.21,59.87c-.45,3.61-1.08,7.19-2.34,10.63-.73,1.97-1.64,3.87-2.57,5.76-1.98,4.04-4.66,7.58-7.56,10.98-.23.27-.44.56-.63.86-.18.29-.37.62-.78.68-.69.1-.82.62-.83,1.18-.02,1.28-.02,2.57-.03,3.85,0,1.04-.13,2.06-.62,3.01-.46.89-1.19,1.3-2.15,1.32-.39,0-.78-.06-1.17-.12-1.2-.19-1.47-.51-1.55-1.76-.08-1.24-.12-2.49-.39-3.72-.18-.79-.47-1.5-1.21-1.93-.31-.18-.63-.31-1-.36-.95-.12-1.46.18-1.58,1.13-.11.85-.13,1.71-.11,2.56.02.89,0,1.78-.11,2.66-.35,2.7-3.11,3.91-5.38,2.37-.37-.25-.55-.62-.69-1.04-.41-1.17-.37-2.39-.54-3.59-.02-.11,0-.21,0-.32-.18-1.7-.54-2.34-2.41-2.4-3.72-.12-7.42.1-11.11.4-1.6.13-3.2.17-4.81.16-.68,0-1.35.06-2.03.07-.5,0-.7.28-.76.72-.11.78-.09,1.57,0,2.35.14,1.14.21,2.27.16,3.41-.02.43-.11.85-.19,1.27-.14.71-.6,1.02-1.25,1.12-1.11.17-2.13-.16-3.09-.67-.48-.26-.53-.8-.61-1.3-.21-1.34-.29-2.7-.61-4.02-.5-2.01-2.68-3.47-4.71-3.1-.95.17-1.55.93-1.59,2-.06,1.46-.11,2.92-.19,4.37-.04.75-.21,1.48-.5,2.18-.24.58-.65.9-1.24,1.08-1.16.35-2.26.05-3.35-.31-.5-.17-.63-.63-.72-1.11-.24-1.24-.2-2.49-.23-3.74-.02-1.04-.22-2.06-.16-3.1.03-.62-.53-.81-.97-1.01-.87-.4-1.76-.78-2.63-1.2-1.6-.79-3.2-1.61-4.66-2.61-2.06-1.42-3.83-3.16-5.28-5.25-1.29-1.85-2.51-3.72-3.55-5.71-.89-1.71-1.61-3.48-2.29-5.28-.74-1.93-1.39-3.89-1.95-5.88-.95-3.37-1.6-6.79-2.04-10.27-.25-1.94-.46-3.89-.54-5.85-.14-3.43.11-6.83.59-10.23.64-4.55,1.97-8.9,3.65-13.16.6-1.53,1.16-3.07,1.72-4.61.28-.77.31-1.54.23-2.39-.26-2.8-.52-5.61-.54-8.43,0-.21.04-.43.03-.64-.03-1.09.47-1.65,1.86-1.03.77.35,1.41.95,1.98,1.6,1.01,1.15,2.03,2.29,3.04,3.45.47.54,1.02.71,1.72.63.65-.08,1.24-.36,1.87-.45,3.8-.57,7.57-1.36,11.43-1.57,4.75-.26,9.48-.11,14.21.35,1.1.11,2.21.18,3.3.1,1.11-.08,1.95-.75,2.55-1.71.91-1.45,1.79-2.92,2.73-4.34.61-.92,1.27-1.81,2.21-2.45.95-.65,1.73-.48,2.26.55.5.96.7,2.02.89,3.07.21,1.15.38,2.32.51,3.49.1.92.66,1.35,1.71,1.35.78,0,1.53-.25,2.32-.29,2.25-.11,4.5.01,6.74-.07,1.79-.06,3.57.05,5.33.3,2.58.37,4.93,1.33,7.15,2.68,4.48,2.74,7.9,6.53,10.72,10.87,1.42,2.18,2.35,4.64,3.07,7.15,1.39,4.9,2.16,9.88,1.98,15.27.17,3.19-.24,6.63-.67,10.06Zm11.72-32.69c-1.73-.06-3.18-.69-4.15-2.21-.9-1.41-.15-2.68.7-3.42,1.1-.96,2.36-1.02,3.4-.18,1.36,1.09,1.58,2.63,1.67,3.85,0,1.92-.09,2.03-1.62,1.97Zm4.92-10.53c1.08.8,1.39,1.95,1.86,3.1-1.44-.79-2.05-1.79-1.86-3.1Zm7.83,3.51c-.87,1.14-2.59,1.67-3.87,1.19.58-1.45,1.91-2.37,3.33-2.31.32.02.69.03.83.36.12.29-.12.53-.29.76Z" style="stroke-width: 0px;"/>
        <path d="m45.91,71.01c-3.83-2.23-9.48-1.49-12.57,1.72-2.53,2.63-2.26,6.2.99,8.29,1.55,1,3.28,1.35,4.89,1.34,1.98.03,5.37-.79,6.85-2.01,1.01-.83,1.88-1.75,2.35-2.99.92-2.45-.08-4.95-2.51-6.36Zm.76,7.37c-1.57,1.82-3.57,2.9-6.01,3.09-.35.03-.71,0-1.07,0-1.72.08-3.31-.35-4.78-1.24-2.23-1.36-2.97-4.18-1.13-6.44.93-1.14,2.11-1.93,3.47-2.41,2.38-.85,4.8-.96,7.21-.04.85.32,1.61.77,2.22,1.44,1.56,1.7,1.63,3.82.09,5.61Z" style="stroke-width: 0px;"/>
        <path d="m62.88,46.45c-.04-.56-.22-1.12-.39-1.65-.15-.46-.47-.8-.99-.86-.51-.07-.75.31-1.01.65-.18.23-.24.51-.34.77-.23.63-.46,1.27-.71,1.89-.18.46-.44.9-.59,1.37-.28.87.03,1.42.91,1.7.54.18,1.1.24,1.67.26,1.47.02,2.03-.68,1.78-2.14-.11-.66-.27-1.31-.32-1.99Z" style="stroke-width: 0px;"/>
        <path d="m18.29,49.55c-.28-.44-.7-.7-1.24-.77-.53,0-.9.52-.82,1.24.18,1.64.66,3.21,1.17,4.76.18.55.64.74,1.19.59.8-.22,1.37-.73,1.79-1.43.2-.35.17-.69-.03-1.01-.68-1.13-1.36-2.26-2.06-3.37Z" style="stroke-width: 0px;"/>
        <path d="m37.01,75.37c-.52,0-1.09.43-1.09.82,0,.41.79,1.21,1.19,1.2.4,0,.92-.59.92-1.02,0-.53-.48-1-1.02-1Z" style="stroke-width: 0px;"/>
        <path d="m43.86,74.2c-.33.03-.62.51-.63,1.01,0,.51,1.13,1.21,1.39.62.05-.1.03-.22,0-.33-.08-.46-.08-1.35-.77-1.31Z" style="stroke-width: 0px;"/>
        <path d="m23.08,68.23c-.3.22-.37.64-.15.94.13.18.34.28.54.28.14,0,.27-.04.39-.13.03-.02,3.08-2.2,5.06-.08.25.27.68.28.95.03.27-.25.28-.68.03-.95-2.23-2.38-5.44-1.09-6.83-.08Z" style="stroke-width: 0px;"/>
        <path d="m52.1,67.6c-.34.14-.5.53-.36.87.14.34.53.5.87.36.03-.01,3.51-1.41,4.94,1.11.12.22.35.34.58.34.11,0,.23-.03.33-.09.32-.18.43-.59.25-.91-1.61-2.83-5.03-2.34-6.62-1.69Z" style="stroke-width: 0px;"/>
      </g>
    </g>
  </g>
</svg>