<?xml version="1.0" encoding="UTF-8"?>
<svg id="Layer_2" data-name="Layer 2" xmlns="http://www.w3.org/2000/svg" viewBox="0 0 149.95 130.72">
  <g id="Layer_1-2" data-name="Layer 1">
    <g>
      <path d="m148.51,20.83c-.48-1.63-.94-3.17-1.05-4.59-.17-2.2-1.58-3.98-3.53-4.72-.89-.57-1.93-.89-2.99-.89-1.29,0-2.55.47-3.55,1.31-7.78,6.59-9.26,18.28-3.36,26.6.03.04.06.08.08.12,1.86,5.96.83,12.4-2.51,17.43-.71-1.85-1.51-3.62-2.42-5.34-3.55-6.73-8.66-12.18-14.79-15.77-5.96-3.49-13.08-5.58-21.17-6.21-1.73-.13-3.55-.2-5.4-.2-6.07,0-12.11.73-17.68,1.53-.94-3.42-2.08-6.78-3.31-10.15,1.68-.92,3.08-2.22,4.09-3.83,2.33-3.71,2.07-8.4-.66-11.68-1.73-2.08-4.29-3.27-7.02-3.27-1.69,0-3.4.45-4.92,1.3-.47.27-.91.56-1.32.87-.91-.69-1.79-1.05-2.3-1.21-.74-.24-1.5-.36-2.24-.36-2.21,0-4.13,1.02-5.5,2.78-3-.58-6.05-.88-9.11-.88-.71,0-1.41.02-2.12.05C34.14,1.04,31.67,0,29.48,0h0c-.39,0-.79.03-1.18.09-1.57.24-3.16.96-4.39,2.29-.45-.31-.94-.6-1.47-.85-1.42-.68-2.98-1.04-4.51-1.04-2.79,0-5.37,1.21-7.08,3.31-2.33,2.86-2.85,6.97-1.32,10.46.56,1.29,1.37,2.45,2.39,3.48C6.22,26.52,1.37,35.45.22,45.75c-.66,5.9.16,11.76,2.37,16.94,2.43,5.71,6.45,10.26,11.61,13.17,4.78,2.69,10.52,4.16,17.04,4.37.73.02,1.47.03,2.2.03.56,0,1.13,0,1.69-.02-.3,10.02-.47,20.06-.51,29.91,0,.75-.02,1.52-.04,2.32-.05,2.16-.1,4.39.12,6.68.46,4.66,3.15,8.19,7.01,9.21.68.18,1.36.27,2.04.27,3.33,0,6.36-2.13,7.89-5.57.11-.25.22-.5.32-.75.17.55.35,1.1.56,1.64,1.38,3.56,4.01,5.96,7.23,6.6.53.1,1.07.16,1.61.16,3.02,0,5.85-1.65,7.57-4.4,1.57-2.52,1.77-5.24,1.92-7.43.02-.31.04-.62.07-.92l.65-7.46c.29-3.31.58-6.62.87-9.93.53.91,1.12,1.78,1.77,2.61-.28.65-.55,1.35-.78,2.09-1.04,3.39.52,6.86,3.64,8.07.74.29,1.5.43,2.25.43.19,0,.44-.01.71-.05.21.52.49,1,.82,1.43,1,1.3,2.45,2.12,4.09,2.33.25.03.51.05.77.05,2.83,0,5.26-2,6.05-4.81.23.02.47.03.7.04.21,1.29.69,2.59,1.68,3.67,1.11,1.2,2.64,1.86,4.3,1.86.31,0,.64-.02.96-.07,2.19-.32,3.93-1.76,4.76-3.73.75.31,1.55.48,2.37.48.54,0,1.07-.07,1.58-.21.27,1.75.56,3.47.88,5.17.25,1.31,1,5.3,4.78,7.22,1.07.54,2.21.82,3.39.82,1.72,0,3.39-.6,4.75-1.68.09.11.17.21.26.32,1.57,1.81,3.82,2.85,6.17,2.85,1.35,0,2.7-.34,3.9-1,2.91-1.57,4.67-4.59,4.98-8.51.17-2.21.06-4.34-.04-6.4-.02-.44-.04-.87-.06-1.3-.11-2.49-.28-5.02-.51-7.53-.3-3.34-.72-6.76-1.25-10.17.44-8.78.69-17.37-.57-25.84,4.07-3.4,7.19-7.74,9.13-12.69,2.12-5.44,2.62-11.44,1.46-17.24,2.66-2.17,4.35-5.61,4.51-9.55.13-3.14-.7-5.94-1.42-8.4Z" style="fill: #e2d6c7; stroke-width: 0px;"/>
      <g>
        <path d="m143,16.59c-.05-.66-.62-.98-1.13-.95-.3-.48-1.02-.76-1.58-.28-6.03,5.11-7.17,14.16-2.6,20.61.1.14.22.24.35.32,3.72,10.31.24,21.93-8.51,28.39-.93-4.07-2.31-8.04-4.31-11.84-3.03-5.75-7.46-10.7-13.09-14-5.84-3.42-12.56-5.09-19.26-5.61-8.74-.68-17.47.59-26.1,1.89-1.34-6.19-3.59-12.25-5.82-18.1,2.45-.12,4.84-1.15,6.18-3.29,1.26-2.01,1.22-4.6-.31-6.44-1.59-1.91-4.21-2.09-6.31-.92-2.23,1.25-3.32,3.62-4.23,5.9-.28-.13-.56-.26-.84-.38.33-2.07.29-4.73-2.11-5.5-2.29-.74-3.5,1.45-3.85,3.34-5.45-1.52-11.17-1.96-16.78-1.28-.34-1.97-1.29-4.33-3.72-3.95-2.57.39-3,3.14-2.87,5.29-.51.15-1.02.3-1.53.47-.91-1.92-2.12-3.77-4.08-4.72-2.08-1-4.65-.82-6.17,1.05-1.32,1.62-1.52,3.95-.7,5.84.85,1.94,2.54,3.25,4.43,4.09-6.07,9.07-12.15,18.61-13.38,29.7-1.12,10,2.64,20.6,11.72,25.71,4.56,2.57,9.8,3.63,14.99,3.8,2.75.09,5.58,0,8.38-.27-.39,11.56-.61,23.12-.66,34.69-.01,2.82-.21,5.73.06,8.54.22,2.27,1.29,4.68,3.69,5.32,2.15.56,3.88-.94,4.7-2.79,1.04-2.33,1.4-5.03,1.99-7.5l3.27-13.75c.23,2.83.55,5.66.96,8.48.35,2.42.78,4.82,1.27,7.21.45,2.21.84,4.55,1.65,6.67.68,1.76,1.97,3.44,3.92,3.82,1.85.36,3.55-.68,4.51-2.23,1.16-1.86,1.15-4.26,1.33-6.37.22-2.49.44-4.97.66-7.46.46-5.22.92-10.44,1.37-15.66,2.19.55,4.39,1.02,6.61,1.42,0,.03.02.05.03.08,1.02,2.45,2.52,4.64,4.37,6.49-.1.1-.18.22-.24.37-.51,1.25-1.15,2.5-1.54,3.8-.31.99-.08,2.18.98,2.59,2.32.9,2.84-3.21,3.22-4.69.91.66,1.88,1.25,2.89,1.76-.27,1.4-.6,2.81-.8,4.22-.15,1.1.21,2.43,1.5,2.59,1.19.15,1.93-.93,2.04-1.99.12-1.2.11-2.44.12-3.66.43.14.88.26,1.32.37,2.68.66,5.41.68,8.03.17-.04.11-.07.23-.07.36-.04,1.42-.83,5.87,1.83,5.48,1.06-.15,1.53-1.19,1.45-2.18-.11-1.41-.5-2.85-.75-4.24,0-.03-.01-.05-.02-.07,1.43-.48,2.8-1.12,4.1-1.9,0,.1.02.2.05.3.41,1.23.68,2.73,1.35,3.84.5.83,1.65,1.29,2.48.64.84-.66.62-1.71.21-2.54-.62-1.25-1.34-2.46-2.02-3.68.28-.22.56-.45.83-.69,1.81-1.58,3.31-3.48,4.44-5.59.38,7.18,1.19,14.35,2.52,21.4.3,1.6.86,3.27,2.42,4.06,1.35.69,2.87.26,3.82-.87,1.16-1.38,1.11-3.26,1.15-4.96.05-2.11.11-4.21.16-6.32.04-1.65.08-3.3.12-4.96.28,1.84.59,3.67.93,5.49.45,2.37.97,4.74,1.54,7.08.42,1.74.81,3.65,2.02,5.05,1.17,1.34,2.99,1.69,4.56.85,1.81-.98,2.5-2.98,2.65-4.92.19-2.36,0-4.79-.12-7.15-.11-2.45-.28-4.89-.5-7.32-.32-3.46-.75-6.91-1.28-10.35.47-9.28.8-18.86-.94-27.99,4.42-3.06,7.86-7.37,9.82-12.4,2.22-5.68,2.3-12.1.41-17.88,3.32-.83,5.12-4.23,5.26-7.46.18-4.32-2.13-8.21-2.46-12.46Zm-86.94-2.21c.62.31,1.2-.06,1.42-.55.22-.1.42-.29.53-.57.64-1.63,1.32-3.42,2.68-4.6,1.29-1.12,3.28-1.57,4.54-.17,1.12,1.25,1.01,3.03.1,4.37-1.08,1.58-2.99,2.18-4.82,2.19-.56,0-.88.39-.94.83-.53.09-.97.54-.72,1.18.58,1.53,1.17,3.06,1.74,4.61-5.02,1.06-10.64,1.39-15.3-1.07-3.87-2.04-6.86-6-6.7-10.46,6.03.1,12.04,1.52,17.48,4.24ZM6.45,49.53c.14-12.28,7.25-22.93,13.84-32.75.38-.56.08-1.1-.4-1.34-.11-.21-.29-.39-.56-.49-2.64-.99-5.85-4.26-3.45-7.12,1.13-1.34,3.1-1.01,4.39-.1,1.5,1.06,2.31,2.86,3,4.49.33.77,1.19.6,1.59.05,3.79-1.28,7.75-1.98,11.72-2.11-.21,5.03,3.13,9.64,7.43,12.02,5.24,2.9,11.57,2.59,17.25,1.38,2.92,8.11,5.28,16.5,4.62,25.19-.13,1.72-.4,3.44-.82,5.13-4.55-7.3-11.76-12.85-19.96-15.48-9.2-2.96-19.29-1.82-27.78,2.73-4.18,2.24-7.88,5.27-10.88,8.92,0-.17,0-.35,0-.52Zm33.78,23.88c-1.43.14-2.85.24-4.26.31-5.27.28-10.64-.1-15.6-2.05-4.38-1.72-8.12-4.71-10.53-8.77-1.8-3.04-2.85-6.46-3.23-9.96.11-.07.21-.15.29-.27,5.41-7.38,13.87-12.28,22.89-13.62,8.92-1.32,18.06,1.3,25.22,6.72,3.81,2.88,6.98,6.55,9.29,10.73-2.21,6.41-6.58,12-13.13,14.55-3.15,1.23-6.55,1.88-9.96,2.26-.32-.12-.7-.09-.99.1Zm58.65,32.05c-5.42,1.83-11.28.7-15.88-2.62-2.34-1.69-4.3-3.98-5.57-6.59,10.75,1.61,21.76,1.3,32.43-.93-1.99,4.73-6.11,8.5-10.97,10.13Zm31.91,9.32c.06,2,.38,4.33-.24,6.27-.47,1.47-2.19,2.76-3.47,1.33-1.07-1.2-1.32-3.13-1.68-4.63-.51-2.1-.97-4.21-1.38-6.34-.93-4.78-1.59-9.61-2.02-14.46-.06-.65-.61-.97-1.12-.95-.58-.32-1.52-.05-1.54.83-.18,7.1-.33,14.21-.53,21.32-.03,1.01-.19,3.96-1.95,3.32-1.46-.53-1.54-2.92-1.76-4.19-.61-3.49-1.11-7.01-1.49-10.53-.43-4-.71-8.02-.86-12.04,0-.04,0-.08,0-.11.71-.56.17-1.99-.92-1.73-14.2,3.38-29.11,3.23-43.24-.42-.31-.83-1.84-.69-1.94.42-.78,8.88-1.5,17.77-2.34,26.65-.16,1.67-.49,4.15-2.42,4.7-1.96.56-3.14-1.8-3.58-3.29-1.2-4.01-1.9-8.26-2.53-12.39-.74-4.93-1.17-9.9-1.33-14.89-.02-.63-.52-.95-1.01-.96-.45-.08-.93.12-1.07.69-1.27,5.33-2.54,10.67-3.81,16-.63,2.64-1.25,5.27-1.88,7.91-.35,1.46-.74,4.63-2.67,4.89-1.06.14-1.99-.77-2.4-1.66-.52-1.13-.51-2.45-.52-3.67-.01-2.68,0-5.36.01-8.04.03-5.38.09-10.75.2-16.13.11-5.81.27-11.61.46-17.41,2.14-.28,4.26-.66,6.31-1.17,4.87-1.2,9.28-3.58,12.63-7.36,2.39-2.69,4.2-5.87,5.4-9.26.32-.24.52-.66.37-1.11.24-.76.44-1.53.62-2.3,1.3-5.7,1.09-11.4.06-17,13.8-2.07,28.8-4.1,41.8,2.33,5.76,2.84,10.38,7.28,13.63,12.8,2.56,4.35,4.25,9.14,5.29,14.07-.01.19.03.39.12.56.25,1.24.45,2.48.62,3.73.77,5.7.82,11.46.63,17.21-.02,0-.04-.01-.07-.02-.13,1.83-.3,3.65-.32,5.49,0,.19-.05.35-.12.48.06.38.13.77.19,1.15-.02.39-.04.78-.06,1.17-.02.37.13.63.36.78.86,5.95,1.39,11.94,1.57,17.95Z" style="stroke-width: 0px;"/>
        <path d="m20.72,13.08c.26-.23.4-.6.34-1.01-.11-.65-.41-1.24-.83-1.71-.37-.56-.88-1.03-1.51-1.33-.73-.35-1.54.16-1.48.95-.28.35-.36.87.05,1.29.64.65,1.28,1.3,1.91,1.95.45.45,1.18.32,1.52-.14Z" style="stroke-width: 0px;"/>
        <path d="m60.98,13.73s0,0,0,0c.06,0,.13,0,.2-.02.69-.15,1.32-.45,1.89-.84.64-.16,1.21-.49,1.52-1.15.14-.3.2-.63.18-.93.09-.47-.19-.98-.6-1.17-.17-.14-.36-.25-.59-.32-2.02-.64-3.87,1.43-4,3.27-.23.79.56,1.76,1.4,1.18Z" style="stroke-width: 0px;"/>
        <path d="m46.32,55.94c.04.05.08.11.12.16.14.16.33.1.43-.03,1.59.1,1.96-2.53,1.88-3.68-.11-1.51-1.69-2.57-2.77-1.13-.63.84-.73,1.91-.5,2.91-.05.78.14,1.48.83,1.77Z" style="stroke-width: 0px;"/>
        <path d="m23.95,51.26c-.63.84-.73,1.91-.5,2.91-.05.78.14,1.48.83,1.77.04.05.08.11.13.16.14.16.33.1.43-.03,1.59.1,1.96-2.53,1.88-3.68-.11-1.51-1.69-2.57-2.77-1.13Z" style="stroke-width: 0px;"/>
        <path d="m19.48,29.55c.47-.26.93-.53,1.4-.79.15.2.31.38.48.56-.57.38-1.13.76-1.7,1.14-1.05.71-.06,2.43,1,1.71.8-.54,1.6-1.08,2.4-1.62,2.76,1.34,6.39.53,8.15-2.45.65-1.1-1.06-2.1-1.71-1-1.71,2.88-5.66,2.76-7.33,0-.04-.12-.1-.23-.18-.32-.38-.74-1.25-.56-1.64-.02-.62.35-1.25.71-1.87,1.06-1.11.63-.11,2.35,1,1.71Z" style="stroke-width: 0px;"/>
        <path d="m52.23,30.56c.8.54,1.6,1.08,2.4,1.62,1.06.72,2.06-1,1-1.71-.57-.38-1.13-.76-1.7-1.14.17-.17.33-.36.48-.56.47.26.93.53,1.4.79,1.11.63,2.11-1.08,1-1.71-.62-.35-1.25-.71-1.87-1.06-.38-.53-1.25-.72-1.64.02-.08.1-.14.21-.18.32-1.67,2.75-5.62,2.87-7.33,0-.65-1.1-2.37-.1-1.71,1,1.77,2.98,5.39,3.79,8.15,2.45Z" style="stroke-width: 0px;"/>
        <path d="m90.55,49.53c2.15-.86,4.2-2.44,4.75-4.8.5-2.13-.44-4.3-2.01-5.74-1.86-1.7-4.43-2.43-6.84-2.98-2.37-.54-4.9-.76-7.19.22-.24.1-.47.22-.69.35-.18-.01-.38.04-.57.17-3.63,2.47-3.7,7.52-.92,10.67,3.34,3.78,9.09,3.86,13.48,2.1Z" style="stroke-width: 0px;"/>
        <path d="m107.48,41.15c-2.36.27-4.4,1.66-5.55,3.54-2.15,2.78-1.82,6.95.31,9.71,2.63,3.42,7.9,5.39,12.11,4.27,2.02-.54,3.87-1.97,4.56-3.98.79-2.3-.02-4.88-1.03-6.98-1.9-3.96-5.83-7.08-10.41-6.56Z" style="stroke-width: 0px;"/>
        <path d="m89.28,54.39c-2.14-.1-4.06.73-5.44,2.1-.17.04-.35.13-.5.31-.72.85-1.16,1.83-1.38,2.86-.15.53-.24,1.07-.27,1.63-.06.61-.03,1.22.09,1.82.07.81.29,1.62.66,2.39,1.59,3.3,5.48,4.94,8.94,3.84,1.75-.37,3.36-1.37,4.43-2.98,1.2-1.81,1.36-3.86.78-5.71-.63-3.51-3.77-6.1-7.32-6.26Z" style="stroke-width: 0px;"/>
        <path d="m14.27,35.68c1.51,0,2.73-.59,2.73-1.32s-1.22-1.32-2.73-1.32-2.73.59-2.73,1.32,1.22,1.32,2.73,1.32Z" style="stroke-width: 0px;"/>
        <path d="m60.85,35.68c1.51,0,2.73-.59,2.73-1.32s-1.22-1.32-2.73-1.32-2.73.59-2.73,1.32,1.22,1.32,2.73,1.32Z" style="stroke-width: 0px;"/>
      </g>
    </g>
  </g>
</svg>