<?xml version="1.0" encoding="UTF-8"?>
<svg id="Layer_2" data-name="Layer 2" xmlns="http://www.w3.org/2000/svg" viewBox="0 0 147.75 147.75">
  <g id="Layer_1-2" data-name="Layer 1">
    <g>
      <path d="m147.06,63.14c-.35-.93-.84-1.77-1.44-2.49,0-.01,0-.02,0-.03.49-3.39-1.08-6.53-4-8.01-.98-.5-2.03-.75-3.1-.75-.37,0-.79.03-1.25.12-1.22-2.29-2.37-4.35-3.51-6.32-1.17-2.03-2.23-4.28-3.25-6.46l-.02-.04c-.43-.92-.87-1.86-1.33-2.8-.51-1.04-.94-2.08-1.28-3.1.09-.41.12-.83.12-1.26-.01-.72-.16-1.63-.66-2.57.84-4.34,1.24-8.27,1.21-11.98-.02-3.26-.51-6.18-1.51-8.93-1.01-2.78-2.51-4.88-4.58-6.4C120.58.73,118.41,0,116.2,0c-2.06,0-4.08.64-5.84,1.84-2.59,1.77-4.39,4.22-5.46,7.45-1.02-.25-2.13-.41-3.32-.41-.56,0-1.13.04-1.68.11-3.55.48-6.32,2.55-7.8,5.84-1.99,4.42-.09,8.37.54,9.67,1.66,3.44,4.4,6.15,8.64,8.53,3.96,2.22,8.46,3.3,13.75,3.3h.29s.82,0,.82,0c.15,0,.3,0,.44,0,.11.13.23.26.36.38.79,2.48,1.81,4.76,2.74,6.82,1.2,2.69,2.51,5.34,3.95,8.04-1.05-.34-2.1-.54-3.14-.6-.53-.68-1.09-1.34-1.68-1.98-3.74-4.08-9.04-6.32-14.92-6.32-3.18,0-6.31.68-9.02,1.95-.61-.31-1.25-.61-1.91-.88-2.13-.87-4.28-1.32-6.38-1.32-1.97,0-3.93.39-5.82,1.16-.04-.06-.09-.12-.13-.18-.11-1.38-.42-2.58-.69-3.54-1.08-3.68-3.69-6.33-7.27-7.44-1.48-3.03-3.65-5.29-6.44-6.71-2.04-1.04-4.15-1.56-6.29-1.56-2.52,0-4.94.75-7.04,2.15-.72-.29-1.46-.53-2.2-.74-1.6-.45-3.27-.68-4.96-.68-2.15,0-4.39.35-6.84,1.08-4.23,1.25-7.43,3.56-9.55,6.87-1.96.72-3.77,1.9-5.39,3.53-3.07,3.08-4.49,6.71-4.18,10.64-1.67-.35-3.42-.87-5.11-1.38l-.76-.23c-1.05-.31-2.28-.65-3.76-.65-.42,0-.84.03-1.25.08-4.25.58-7.31,3.38-8.4,7.7-1.09,4.32-.33,8.59,2.25,12.68,2.17,3.44,5.4,5.57,9.6,6.33,1.02.18,2.06.28,3.1.28.87,0,1.76-.06,2.66-.19-.53,2.5-.61,4.85-.61,6.72,0,3.86.5,6.92,1.62,9.71-.59,3.73.12,7.41,2.1,10.7.73,1.21,1.62,2.31,2.69,3.33-.1,2.11.26,4.25,1.07,6.38.87,2.28,2.07,4.9,4.41,7.09,2.07,1.94,4.41,2.92,6.44,3.62,1.81.63,3.73.93,5.87.93.69,0,1.36-.03,1.98-.08.62.68,1.28,1.29,1.97,1.84-.07.94-.1,1.79-.12,2.62-.05,3.09-.07,6.4.17,9.73.18,2.46.48,5.12,1.47,7.89,1.02,2.84,3.19,4.73,6.11,5.35,1.18.25,2.25.28,3.16.3.04,0,.08,0,.12,0,2.32,0,4.37-.92,5.82-2.51,1.61,1.2,3.56,1.86,5.65,1.86.75,0,1.51-.09,2.26-.25,3.15-.71,5.41-2.99,6.02-6.1.23-1.14.31-2.32.24-3.49l-.05-.8c-.07-1.27-.15-2.56-.29-3.9-.32-2.99-.24-5.66.23-8.11,2.19-.16,4.18-.69,6.06-1.59,1.18-.57,2.31-1.21,3.38-1.91,1.17.55,2.28.95,3.39,1.24,1.53.4,2.95.6,4.32.6.06,0,.12,0,.17,0,.14,2.18.18,4.31.2,6.22.02,1.83,0,3.97-.22,5.99-.11,1-.13,2.01-.07,2.99.21,3.03,1.81,5.45,4.4,6.62,1.42.64,2.99.98,4.55.98,3.27,0,6.2-1.47,8.09-4,1.23,1.2,2.79,2.02,4.53,2.34.53.1,1.06.15,1.6.15,2.61,0,5.14-1.18,6.92-3.23,1.82-2.09,3.08-4.65,3.95-8.04,1.2-4.64,1.79-9.48,1.8-14.78,0-3.01-.16-6.02-.48-8.93-.12-1.03-.24-2.02-.38-2.98,1.98-.85,3.7-2.18,5.1-3.96,4.46-5.68,5.96-12.3,4.33-19.13l-.08-.34v-.06c-.07-.25-.16-.59-.19-.78.02-.12.07-.31.1-.46,0-.04.02-.08.03-.12.18.01.35.02.53.02.45,0,.91-.05,1.35-.15,1.9-.41,3.5-1.68,4.49-3.57,0,0,0-.01,0-.02.16-.29.61-1.1.74-2.24.08-.2.32-.63.49-.92.28-.49.62-1.09.93-1.78.56-1.26,2.27-5.08.63-9.48Z" style="fill: #e2d6c7; stroke-width: 0px;"/>
      <g>
        <path d="m142.27,64.92c-.42-1.13-1.27-1.82-2.52-2.03-.08-.01-.16-.01-.24-.01-.15,0-.29,0-.42-.1.05-.08.11-.15.16-.22.15-.21.31-.42.45-.64.44-.7.76-1.31.86-2.02.18-1.22-.29-2.23-1.25-2.72-.84-.43-1.71-.17-2.65.79-.5.51-.77,1.13-1.05,1.79l-.05.13c-.24-.32-.37-.67-.5-1-.08-.21-.15-.4-.25-.6-2.01-3.89-3.75-7.09-5.47-10.06-1.28-2.22-2.39-4.57-3.45-6.85-.43-.91-.87-1.86-1.32-2.78-.83-1.71-1.49-3.43-1.97-5.11-.02-.07-.05-.13-.07-.2-.1-.26-.15-.42,0-.56.24-.21.36-.42.36-.63,0-.29-.25-.53-.48-.72-.44-.36-.54-.71-.4-1.39.98-4.62,1.45-8.71,1.43-12.5-.02-2.66-.41-5.03-1.21-7.22-.66-1.83-1.55-3.11-2.8-4.02-1.94-1.43-4.26-1.49-6.2-.17-2.1,1.43-3.37,3.59-4,6.77-.24,1.2-.19,2.42-.12,3.7-.29-.14-.57-.27-.84-.4-.69-.33-1.34-.65-2.01-.94-1.62-.72-3.56-1.41-5.7-1.13-1.79.24-3.07,1.21-3.82,2.87-.89,1.99-.26,3.82.48,5.36,1.2,2.49,3.21,4.43,6.53,6.29,3.25,1.82,7.01,2.68,11.51,2.65h.83c1.42-.01,2.89-.02,4.32-.13.08.33.03.61,0,.89-.01.08-.02.15-.03.23-.04.34-.12.96.6,1.07.31.05.36.25.44.53v.05c.72,2.67,1.84,5.17,2.92,7.59,1.7,3.79,3.61,7.52,5.84,11.41,1.22,2.13,2.49,4.33,3.5,6.68.03.07.07.13.1.2.11.18.21.36.13.58l-.13-.09c-.16-.11-.31-.22-.47-.32l-.06-.04c-.2-.13-.41-.27-.63-.38-.88-.45-1.59-.37-2.1.22-.5.58-.45,1.33.16,2.1.58.75,1.34,1.31,2.08,1.86l.25.19s.1.06.16.09c.14.06.21.1.18.25-.11.02-.23.05-.35.07-.3.06-.61.13-.92.18-.7.12-1.09-.07-1.45-.7-1.56-2.74-3.92-4.97-7.01-6.63-1.71-.92-3.31-1.23-4.91-.94-.53.09-.83-.03-1.13-.48-.73-1.11-1.59-2.2-2.55-3.25-5.31-5.79-14.28-5.73-19.54-2.36-.49.31-.81.4-1.33.05-.92-.63-1.98-1.19-3.15-1.67-3.1-1.27-5.98-1.25-8.83.06-1.5.69-2.86,1.6-4.12,2.48-.15-.27-.19-.54-.22-.83,0-.07-.02-.13-.03-.2-.22-1.46-.63-3.11-2.03-4.3-.28-.24-.26-.52-.25-.84,0-.05,0-.09,0-.14.04-1.26-.24-2.43-.53-3.4-.68-2.32-2.33-3.78-4.79-4.21-1.06-.19-1.51-.57-1.77-1.5-.07-.25-.19-.5-.31-.73l-.06-.13c-1.01-2.07-2.38-3.53-4.19-4.45-3.59-1.83-7.3-1.14-9.93,1.82-.24.27-.36.23-.65.07-1.3-.73-2.65-1.3-4.02-1.68-2.69-.76-5.54-.63-8.96.38-3.52,1.04-5.92,2.96-7.34,5.86-.2.4-.51.52-.81.59-1.7.37-3.22,1.24-4.64,2.66-2.48,2.48-3.25,5.24-2.37,8.44.28,1.02.73,2.06,1.36,3.17-.2.25-.48.3-.75.35l-.1.02c-1.61.31-3.73.61-5.88.25-2.26-.38-4.49-1.05-6.65-1.7l-.75-.23c-.94-.28-1.87-.53-2.85-.39-2.17.29-3.56,1.6-4.13,3.88-.75,2.95-.22,5.8,1.62,8.7,1.39,2.21,3.42,3.53,6.19,4.03,2.29.42,4.66.17,7.47-.76.72-.24,1.43-.53,2.12-.8.29-.12.58-.23.86-.35.07.15.04.29,0,.43v.03c-.32,1.46-.31,2.89-.25,4.23,0,.17.02.34.04.51.04.5.09,1.03-.06,1.51-.74,2.51-.84,5.08-.85,7.04,0,3.64.51,6.33,1.67,8.74.16.34.12.63.03,1.04-.63,2.82-.2,5.5,1.3,7.99.73,1.22,1.73,2.29,3.05,3.27.54.4.7.78.58,1.35-.41,1.9-.23,3.89.53,5.89.7,1.82,1.56,3.71,3.13,5.18,1.37,1.28,3.03,1.97,4.62,2.52,2.58.89,5.24.7,7.51.39.61-.08.94-.06,1.33.48,1.22,1.68,2.58,2.91,4.16,3.75.38.2.49.43.44.92-.19,1.89-.29,3.34-.31,4.69-.05,2.97-.07,6.15.16,9.28.15,2.1.4,4.34,1.19,6.53.41,1.15,1.18,1.83,2.35,2.08.74.15,1.48.18,2.18.19.02,0,.03,0,.05,0,1.37,0,2.4-.83,2.77-2.22.23-.86.18-1.71.1-2.42-.34-3.1-.6-6.36-.76-9.69-.12-2.55.14-5.09.81-7.79.01-.04.02-.08.03-.13.05-.25.09-.4.29-.43.57-.09,1.1-.3,1.61-.52.4-.16.81-.33,1.23-.44.13.32.1.64.07.94,0,.07-.01.14-.02.21-.27,4.13-.52,8.95-.15,13.73.17,2.15.59,3.84,1.33,5.33,1.07,2.15,3.05,3.14,5.3,2.63,1.19-.27,1.91-.98,2.13-2.11.14-.72.19-1.45.15-2.19l-.05-.81c-.07-1.2-.14-2.44-.27-3.65-.51-4.83-.14-9.03,1.13-12.86l.04-.12q.28-.84,1.24-.77c2.65.19,4.79-.16,6.73-1.09,1.52-.73,2.93-1.6,4.2-2.59.68-.53,1.25-.58,1.97-.17,1.53.86,2.84,1.42,4.11,1.75,2.89.75,5.15.52,7.14-.74l.05-.04c.17-.11.29-.18.45-.08.03.21.06.41.09.62.07.48.14.97.2,1.46.45,3.66.55,7.35.58,10.48.02,1.98,0,4.31-.25,6.6-.08.7-.09,1.39-.05,2.07.08,1.15.55,1.93,1.41,2.31,2.29,1.04,5.38.65,6.86-2.08.82-1.52,1.39-3.12,1.7-4.75.49-2.63.53-5.34.57-7.95,0-.59.02-1.18.03-1.76.06-2.41.05-4.87.04-7.24v-1.45c0-.48.13-.67.51-.7.58-.06,1.11-.22,1.68-.4.36-.11.73-.23,1.11-.32.36,1.39.48,2.76.56,4.04.24,3.57.24,6.71,0,9.6l-.05.56c-.18,2.09-.36,4.26-.37,6.4,0,.86.13,1.63.4,2.38.51,1.4,1.61,2.38,2.95,2.63,1.35.25,2.74-.28,3.73-1.41,1.3-1.49,2.18-3.33,2.86-5.97,1.09-4.22,1.62-8.64,1.63-13.52,0-2.82-.15-5.63-.45-8.35-.26-2.33-.58-4.44-.96-6.46-.1-.55-.14-.81-.04-.94.1-.13.4-.16.91-.2,2.43-.18,4.41-1.21,5.87-3.07,3.52-4.47,4.65-9.45,3.38-14.78-.03-.12-.06-.24-.09-.36-.16-.67-.33-1.35-.33-2.03,0-.53.12-1.05.23-1.56.05-.24.11-.49.16-.74.05-.27.07-.6.1-.94.06-.88.14-1.88.66-2.4.27-.27.65-.32,1.04-.38.23-.03.46-.07.67-.14l.17-.06c.7-.25,1.01-.37,1.68.15.45.35.9.49,1.31.4.42-.09.79-.43,1.07-.96.01-.03.03-.06.05-.09.06-.12.13-.24.14-.37.1-1.07.62-1.99,1.13-2.87.24-.43.5-.87.7-1.33.61-1.36,1.32-3.43.51-5.61Zm-1.22,1.61c-.09,3.01-1.32,5.17-3.67,6.43-.03.01-.09.01-.15.01-.2-.3-.24-.64-.25-.97-.1-2.24-.16-4.42-.18-6.5,0-.68.29-.88.79-1,.11-.03.22-.04.33-.05.11-.01.23-.03.35-.06.35-.08.66-.12.95-.12.49,0,.88.12,1.18.36.57.47.67,1.3.66,1.91Zm-2.64-8.04c.05,0,.11,0,.16.03.35.13.43.49.46.86.03.33-.13.63-.28.92-.45.87-1.05,1.6-1.88,2.27-.16-1.6.13-2.74.94-3.68.21-.24.39-.4.61-.4Zm-2.95,15.44c-.52.21-1.06.42-1.8.56-.24-3.52-.89-6.35-2.05-8.89.58-.12,1.15-.2,1.71-.27.76-.1,1.48-.2,2.19-.39.11.39.07.73.04,1.07,0,.09-.02.17-.02.26l-.04.58c-.15,2.14-.3,4.34.29,6.5.08.31,0,.47-.31.59Zm-.72-10.83c-1.22-.35-2.09-1.16-3.01-2.09-.19-.19-.27-.32-.15-.45.12-.13.29-.08.52.03.57.29,1.05.62,1.47,1.02.46.44.84.93,1.17,1.49Zm-21.04,50.19c-.1-.4-.05-.57.24-.75,2.84-1.75,4.61-4.45,5.58-8.51.09-.37.2-.74.3-1.1.05-.18.11-.36.16-.56.06-.2.11-.41.25-.48.04-.02.08-.03.13-.03s.1,0,.17.03c.1.03.21.05.32.06.33.04.6.08.65.52.08.62.18,1.25.28,1.86.1.65.21,1.32.29,1.98.46,3.5.86,7.26.75,10.96h0c.06,4.43-.36,8.6-1.26,12.76l-.02.09q-.24,1.09-1.41,1.23c-.33.04-.65.09-.98.13-1.3.18-2.65.36-4,.24h-.05q-.83-.08-.77-.96v-.04c.04-.53.08-1.06.12-1.59.11-1.42.21-2.9.24-4.35.06-3.47,0-7.55-1.01-11.49Zm6.73-13.07c.04-.52.07-1.04.11-1.56.03-.43.05-.86.09-1.29.05-.62-.03-1.24-.1-1.84-.03-.26-.07-.53-.09-.8-.02-.27-.1-.64-.49-.8l-.04-.02-.04.02c-.34.16-.3.44-.28.65,0,.05.01.1.01.14.06,1.51.09,3.5-.24,5.46-.01.07-.01.14-.02.21,0,.12,0,.24-.06.3-.79.94-1.06,2.08-1.32,3.18-.13.54-.26,1.09-.45,1.61-.93,2.54-2.16,4.27-3.88,5.45-2.54,1.74-5.3,2.25-8.2,1.49-.27-.07-.55-.15-.82-.23-.45-.13-.92-.27-1.39-.36-1.33-.28-2.5-1.01-3.67-2.29-.35-.38-.73-.78-1.18-1.25-.12-.12-.34-.35-.61-.13-.13.11-.24.31-.03.64.53.79,1.17,1.53,1.95,2.27.19.18.38.35.58.53l.23.21c-1.19,1.49-2.33,2.55-3.57,3.33-1.17.73-2.47,1.04-3.98.92-2.19-.17-4.15-1.14-6.04-2.09.24-.29.48-.58.72-.85.5-.59.98-1.14,1.39-1.76.6-.9,1.05-1.77,1.36-2.65.09-.25.15-.47.17-.68.03-.25-.1-.46-.33-.56-.23-.1-.46-.02-.61.21-.13.2-.25.44-.36.73-.71,1.78-1.65,3.23-2.89,4.44-.37.36-.71.62-1.2.7-.58.1-1.05.43-1.51.74-.14.1-.28.19-.42.29-.3.19-.59.38-.89.58-.89.59-1.82,1.2-2.82,1.64-2.69,1.2-5.6,1.27-9.45.25-1.11-.29-2.19-.76-3.23-1.38-.71-.42-1.34-.39-2.11.11l-.28.18c-1.23.8-2.5,1.62-3.92,2.05-3.72,1.12-6.68.94-9.33-.57-2.18-1.23-3.8-3.19-4.84-5.8-.29-.75-.61-1.51-.97-2.33-.05-.11-.18-.41-.45-.41-.06,0-.12.01-.19.04-.36.15-.24.46-.18.64l.02.06c.27.81.6,1.76.94,2.7.08.2.14.4.07.51-.05.08-.17.14-.37.17-3.91.67-7.03.23-9.8-1.39-.93-.54-1.57-1.09-2.04-1.75-2.36-3.32-3.17-6.29-2.53-9.35.18-.88-.03-1.44-.75-1.94-2.22-1.53-3.66-3.37-4.39-5.62-.35-1.08-.46-2.21-.33-3.43.17.02.23.14.29.26l.02.03c1.99,3.74,5.25,6.56,9.99,8.6l.29.13c2.15.93,4.37,1.89,6.72,2.38,4.13.86,8.17.62,12-.73,2.13-.75,4.6-1.71,6.84-3.18,2.85-1.87,5.21-4.41,7.21-7.76,1.51-2.53,2.66-4.88,3.52-7.19.73-1.96,1.28-4.14,1.69-6.66.19-1.21.32-2.41.45-3.68.07-.66.14-1.34.22-2.03,1.11,1.1,2.2,1.89,3.4,2.45,3.32,1.56,6.75,1.53,10.48-.1,1.05-.46,1.99-1.27,2.88-2.47,1.24-1.69,1-4.46-.52-6.05-.56-.58-1.23-1.1-2.09-1.62-2.32-1.4-4.91-2.24-7.42-3.05l-.42-.14c-1.37-.45-2.7-1.1-4.07-2.01-.27-.18-.44-.3-.46-.41-.02-.11.1-.28.31-.57.52-.72,1.08-1.61,1.24-2.72.04-.25.11-.53.37-.72,1.71-1.24,3.57-2.5,5.79-3.07,2.3-.59,4.63-.26,7.12,1.02.93.48,1.83,1.03,2.66,1.55.71.44,1.31.42,1.99-.07,2.41-1.74,5.28-2.47,9.04-2.32,2.74.11,5.2,1.02,7.33,2.7,1.97,1.56,3.57,3.45,4.74,5.61.63,1.16.83,2.53,1.03,3.85.04.29.09.58.13.87.08.5.13,1.01.18,1.5.03.29.06.59.09.88.03.25.08.48.15.68.12.35.32.49.6.42.3-.07.31-.34.32-.54.08-1.31-.14-2.59-.37-3.66-.16-.76-.36-1.52-.56-2.26-.1-.36-.19-.72-.28-1.08-.07-.27-.12-.45-.08-.51.04-.06.22-.09.49-.14h.05c2.08-.37,3.82.52,5.1,1.34,3.78,2.4,6.19,5.8,7.38,10.39.75,2.91.94,5.68.57,8.47-.09.7-.28,1.37-.46,1.99-.61,2.04-1.52,4.03-2.79,6.08-.26.42-.52.88-.54,1.42-.01.33.1.56.35.66.23.1.44,0,.62-.12.33-.21.52-.53.7-.8.44-.7.87-1.4,1.35-2.16l.46-.73c.69,2.1.81,4.21.38,6.44-.52,2.69-1.51,4.99-3.03,7.04-1.82,2.45-4.38,3.38-8.05,2.94-.33-.04-.38-.19-.35-.53Zm-12.45,20.33c0,.69,0,1.39,0,2.08-.04.88-.06,1.78-.09,2.65-.06,2.24-.12,4.55-.49,6.81l-.06.37q-.19,1.16-1.2,1.19c-.16,0-.34,0-.55.02-1.71.07-3,0-4.2-.22q-.93-.18-.91-1.05c.04-1.88-.06-3.79-.15-5.64-.02-.4-.04-.81-.06-1.21-.13-2.76-.37-6.02-1.18-9.31-.1-.4-.09-.67.22-.92.69-.54,1.26-1.21,1.81-1.85.11-.13.22-.26.33-.39.16-.18.29-.28.48-.28.08,0,.18.02.29.06,1.37.47,3.19,1.04,5.09,1.29.53.07.69.17.68.73-.03,1.9-.02,3.82-.02,5.69Zm-38.52,10.52c.05.75.12,1.51.18,2.24.05.54.1,1.09.14,1.63q.06.79-.74.86c-.5.04-1,.09-1.49.13-.74.07-1.51.14-2.26.19-1,.07-1.06.02-1.2-1.01-.26-1.79-.39-3.69-.42-5.8-.02-1.98-.02-4,0-5.96,0-1.42.01-2.89,0-4.34,0-.5.13-.76.49-.95.07-.04.14-.09.21-.14.56-.45,1.06-.68,1.57-.68.41,0,.83.14,1.29.43,1.07.66,2.36,1.11,3.94,1.38-.49,1.44-.84,2.79-1.11,3.92-.6,2.45-.79,5.09-.59,8.09Zm-44.69-59.41c.15-.6.08-1.26.02-1.9-.02-.21-.04-.42-.06-.63-.1-1.48-.13-3.06.27-4.64.01-.05.03-.1.04-.15.11-.39.24-.87-.16-1.24-.21-.19-.43-.26-.65-.26-.28,0-.56.11-.82.22l-.12.05c-.23.09-.47.19-.7.28-1.68.68-3.41,1.38-5.24,1.65-2.63.38-4.78.04-6.59-1.04-2.11-1.26-3.38-3.31-3.99-6.45-.26-1.33-.14-2.72.35-4.12.46-1.32,1.81-2.51,3.79-2.2.95.15,1.89.42,2.8.68.53.15,1.08.31,1.63.45.32.08.64.16.97.24,1.58.4,3.21.81,4.89.83,2.49.03,4.47-.33,6.25-1.13.14.35.15.67.16.97,0,.09,0,.18.01.27.21,3.06,1.8,4.9,4.99,5.76,1.33.36,2.75.39,4.24.09.9-.18,1.47,0,2.03.62,1.75,1.97,4.18,2.62,6.33,3,1.8.32,3.48.22,5.13-.31.76-.24,1.45-.15,2.21.3,2.41,1.43,4.77,1.89,7.19,1.41,1.08-.21,2.05-.59,2.89-1.13.53-.34,1.09-.71,1.6-1.12.37-.3.71-.37,1.19-.25,1.24.31,2.49.27,3.44.2,2.46-.18,4.28-1.4,5.42-3.62.03-.06.06-.12.09-.19.12-.24.23-.47.42-.66l.03-.02q.55-.53,1.17-.07l.04.03c1.54,1.14,3.28,2.05,5.18,2.69,2.5.84,5.13,1.84,7.44,3.39,1.57,1.06,2.25,2.63,1.81,4.2-.28.99-.97,1.81-2.13,2.51-2.09,1.27-4.44,1.68-6.99,1.23-2.38-.42-4.37-1.54-5.91-3.32-.2-.23-.41-.44-.62-.65-.14-.14-.28-.28-.41-.42-.15-.15-.42-.44-.81-.23-.28.15-.32.42-.32.67-.02,2.35-.35,4.72-.68,7.01l-.05.36c-.47,3.36-1.33,6.25-2.62,8.81l-.04.08c-1.23,2.44-2.5,4.97-4.21,7.2-2.42,3.14-5.57,5.43-9.64,7-2.5.96-4.63,1.51-6.71,1.73-1.54.16-3.1.12-4.64-.13-4.71-.75-9.26-2.67-13.52-5.71-1.68-1.2-2.84-2.94-3.79-4.48-.28-.45-.55-.93-.81-1.39l-.05-.09c-1.38-2.43-2.15-5.12-2.29-8.02-.12-2.49-.14-5.44.58-8.38Zm11.92-32.82c.16.03.32.05.48.06.46.03.83-.07,1.03-.26.11-.11.17-.25.16-.4-.02-.6-.51-.77-.93-.85-.46-.09-.94-.16-1.47-.22-.42-.05-.84-.09-1.29-.13-.16-.01-.33-.03-.5-.05.56-1.15,1.39-1.95,2.14-2.58,1.47-1.25,3.24-1.84,4.78-2.26,3.25-.88,6.1-.83,8.71.14h.03c.12.05.22.09.33.14l2.67,1.23c.1.03.19.07.29.12.08.03.15.07.23.1.51.18.78.27.98.16.2-.12.26-.43.34-1.02.04-.29.24-.47.45-.66l.02-.02c1.72-1.59,3.84-2.1,6.29-1.5,2.28.56,4.02,2.03,5.17,4.37.2.4.37.83.53,1.25.07.18.14.36.21.54.33.81.81,1.55,2.04,1.46.62-.05,1.29.16,2.11.64.98.58,1.61,1.32,1.92,2.24.45,1.36.64,2.42.59,3.44-.03.73.05,1.55.89,2.08.06.04.12.1.17.17l.05.05c1.41,1.62,1.79,5.28.75,7.26-.68,1.29-1.57,2.31-2.72,3.13-.51.36-.83.87-1.13,1.36-.05.09-.11.18-.16.26-.49.76-1.19,1.21-2.28,1.43-1.37.28-2.65.27-3.81-.05-.95-.26-1.72-.1-2.52.53-1.34,1.05-2.55,1.66-3.82,1.89-2.05.39-4.1-.06-6.26-1.36-.67-.41-1.27-.61-1.88-.61-.33,0-.66.06-1.01.17-.91.3-1.88.6-2.87.54-2.7-.14-5.74-.63-7.9-3.26-.55-.66-1.18-.88-2.01-.66-1.17.3-2.24.42-3.26.38-1.1-.05-2.18-.38-3.21-.97-1.33-.78-2.04-2.07-2.21-4.07-.07-.78-.12-1.8.13-2.82.05-.22.09-.46.13-.68.02-.11.04-.23.06-.34.04-.24-.02-.41-.19-.49-.11-.05-.21-.07-.31-.03-.11.04-.21.14-.28.27-.18.38-.32.73-.43,1.07-.03.09-.05.18-.06.27-.03.18-.07.37-.19.59-1.26-2.29-1.64-4.12-1.24-5.91.65-2.86,2.5-4.87,5.5-5.96,1.44-.53,2.94-.41,4.48-.23.11.01.21.03.32.05Zm15.28,83.1c.02-.48.05-.95.08-1.5.01-.23.03-.48.04-.74,1.82.55,3.69.74,5.7.59.19.26.12.49.05.72l-.02.09c-.95,3.47-.74,7.05-.53,10.5l.03.43c.08,1.34.2,2.75.37,4.21.03.26.01.42-.07.51-.07.08-.19.13-.39.15-.46.05-.91.1-1.37.15-.78.09-1.58.18-2.37.24-.64.05-.84-.13-.96-.9-.32-2.06-.4-4.17-.48-6.22l-.03-.71c-.08-2.07-.16-4.8-.05-7.53ZM120.17,29.79c-4.19,0-8.53.02-12.64-1.39-2.92-1.01-5.43-2.64-7.46-4.85-.95-1.03-1.57-2.27-1.92-3.79-.21-.93.06-2,.7-2.78.61-.74,1.47-1.15,2.44-1.15.04,0,.08,0,.11,0,1.39.05,2.78.38,4.38,1.05.7.29,1.4.61,2.07.93.35.16.7.32,1.05.48l.06.03c.22.1.46.21.7.28.38.12.73.08.97-.12.24-.19.35-.5.32-.88-.02-.29-.09-.57-.15-.85-.02-.1-.04-.19-.06-.29-.52-2.56.02-4.99,1.65-7.42.59-.89,1.39-1.55,2.3-1.91,1.62-.64,3.41-.08,4.57,1.41,1.03,1.33,1.72,2.95,2.1,4.96.39,2.05.58,3.94.51,5.33.03,3.39-.41,6.39-.84,9.3-.05.34-.1.69-.15,1.03-.06.45-.23.62-.62.62h-.11Z" style="stroke-width: 0px;"/>
        <path d="m104.13,62.75c.07.11.15.21.23.3l.06.07s.07.1.11.16c.09.15.23.35.45.35.07,0,.14-.02.23-.07.39-.21.25-.64.14-.94-.05-.16-.11-.31-.21-.44-.1-.12-.19-.25-.29-.37-.52-.68-1.06-1.39-1.76-1.94-1.69-1.31-3.7-1.65-5.47-1.87-.07,0-.13,0-.19,0-.14,0-.27,0-.41,0h-.04c-.18.01-.44.03-.5.33-.07.41.3.5.48.54.1.02.21.03.31.04.05,0,.1,0,.15.02,3.31.43,5.38,1.61,6.7,3.8Z" style="stroke-width: 0px;"/>
        <path d="m77.87,105.25h0c-.1.02-.2.05-.31.07-.27.06-.55.12-.81.21-2.51.89-4.79.37-6.97-1.6-.05-.04-.1-.11-.15-.17-.12-.15-.26-.32-.45-.34-.11,0-.21.04-.32.13-.32.29-.05.65.13.88.03.04.07.09.09.13.14.2.32.37.48.52,1.4,1.26,3.14,1.92,5.18,1.97.05,0,.1,0,.14,0,.05,0,.1,0,.15,0,.06,0,.11,0,.17,0,1-.06,1.97-.35,2.98-.87.3-.16.4-.42.28-.69-.1-.22-.32-.3-.59-.24Z" style="stroke-width: 0px;"/>
        <path d="m110.74,96.34c-.11.11-.22.23-.32.34-.41.43-.84.87-1.23,1.34-1.68,2.05-3.58,2.78-5.8,2.24-.14-.03-.35-.08-.5.02-.08.06-.14.15-.15.28-.03.19.03.44.44.6.47.17.97.26,1.6.26.14,0,.29,0,.45-.01.08,0,.17-.01.27-.02.24-.01.51-.03.78-.09,2.36-.56,3.73-2.36,5.05-4.1l.22-.29c.16-.22.14-.48-.07-.64-.23-.19-.51-.15-.73.09Z" style="stroke-width: 0px;"/>
        <path d="m123.4,84.73s.03,0,.04,0c.29,0,.39-.27.47-.47l.02-.05c.48-1.31.77-2.73.89-4.5,0-.78-.14-1.55-.28-2.29-.01-.06-.02-.13-.03-.2-.06-.4-.14-.94-.6-.88-.18.03-.31.1-.39.21-.14.21-.07.52,0,.8.02.09.04.17.05.25.25,1.65.17,3.16-.23,4.61-.16.56-.24,1.15-.32,1.73v.08c-.04.21-.05.42.07.57.07.09.18.14.32.15Z" style="stroke-width: 0px;"/>
        <path d="m26.54,55.34c-.2-.65-.55-.86-1.19-.7-1.6.4-3.27.42-4.88.44h-.1c-.29,0-.59,0-.88,0-.65-.01-1.32-.02-1.98.02-1.49.1-2.7.48-3.71,1.17-1.12.76-1.63,1.84-1.49,3.12.13,1.15.79,2.01,1.91,2.49.45.19.97.35,1.54.48.66.14,1.33.22,2.02.22,1.36,0,2.78-.28,4.31-.84,1.92-.71,3.22-1.8,3.98-3.35.44-.91.81-1.91.47-3.03Z" style="stroke-width: 0px;"/>
        <path d="m79.15,68.51c.87.43,1.97.88,3.22.88.33,0,.68-.03,1.03-.11,1.35-.28,2.08-1.24,2.07-2.67.13-1.06-.62-1.88-1.38-2.55-1.33-1.18-3-2.11-5.09-2.84-.11-.04-.23-.08-.34-.12-.71-.26-1.44-.52-2.23-.51-.9.02-1.63.38-2,1.01-.36.63-.33,1.44.1,2.22,1.21,2.22,2.72,3.75,4.61,4.68Z" style="stroke-width: 0px;"/>
        <path d="m40.46,92.23c.68,1.11,2.1,1.81,3.46,1.81.33,0,.65-.04.96-.13.58-.16,1.14-.21,1.76-.16.84.07,2.08.06,3.09-.81.06-.05.13-.1.2-.16.35-.26.82-.63.47-1.13-.13-.18-.27-.28-.43-.29-.29-.03-.54.22-.77.43-.06.05-.11.1-.16.15-.61.52-1.35.72-2.4.65-.37-.03-.52-.19-.53-.56,0-.93-.05-1.85-.11-2.74-.03-.42.11-.57.56-.61,1.29-.11,2.4-.69,3.43-1.28.23-.13.52-.32.72-.62.18-.25.18-.5,0-.74-.25-.34-.57-.15-.73-.06-.18.11-.37.22-.55.33-.3.19-.61.38-.92.54-2.24,1.15-4.56.95-6.2-.51-.05-.05-.11-.12-.18-.2-.15-.19-.32-.41-.55-.42-.13,0-.25.06-.37.18-.35.37.03.76.31,1.05.04.05.09.09.13.13.58.65,1.34,1.11,2.25,1.39.25.08.5.14.77.21.11.03.22.06.34.09v.96c0,.81,0,1.59,0,2.38,0,.48-.18.72-.61.78-1.17.15-2.16-.17-2.96-.95-.14-.14-.24-.33-.35-.52-.06-.11-.12-.22-.19-.33-.16-.25-.38-.32-.6-.2-.21.11-.29.34-.2.61.09.28.2.53.34.74Z" style="stroke-width: 0px;"/>
        <path d="m35.32,74.56s.07,0,.11,0c.61,0,1.17-.21,1.59-.6.42-.39.66-.92.69-1.5.02-.52-.2-1.06-.59-1.48-.43-.45-1.02-.71-1.62-.71h0c-1,0-2.41.68-2.46,1.79-.03.65.19,1.26.61,1.73.43.47,1.03.74,1.69.77Z" style="stroke-width: 0px;"/>
        <path d="m59.58,77.03s.04,0,.06,0c.53,0,1.08-.23,1.5-.63.41-.39.65-.91.66-1.42,0-.63-.19-1.18-.55-1.56-.32-.33-.76-.51-1.26-.52-.01,0-.02,0-.03,0-1.24,0-2.31.92-2.36,2.02-.02.55.16,1.06.52,1.45.37.4.89.63,1.47.65Z" style="stroke-width: 0px;"/>
      </g>
    </g>
  </g>
</svg>