<?xml version="1.0" encoding="UTF-8"?>
<svg id="Layer_2" data-name="Layer 2" xmlns="http://www.w3.org/2000/svg" viewBox="0 0 110.55 125.94">
  <g id="Layer_1-2" data-name="Layer 1">
    <g>
      <path d="m101.87,3.5c-.6-.08-1.2-.12-1.8-.12-1.59,0-3.19.29-4.74.87-2.12.79-4.06,1.99-5.8,3.58-1.62-1.17-3.31-1.93-5.11-2.31-.62-.13-1.26-.2-1.9-.2-3.42,0-6.61,1.95-8.14,4.97-1.23,2.42-1.15,4.7-.98,6.2.33,2.95,1.37,5.85,3.09,8.63,1.36,2.19,2.98,4.08,4.82,5.63,1.7,1.43,3.59,2.72,5.64,3.85.1.34.23.67.39.99-.15,2.05.03,3.95.2,5.64.02.24.05.48.07.72.14,1.54.32,3.09.48,4.58.08.69.15,1.38.23,2.06.06.58.12,1.16.17,1.74-1.04.41-1.96,1.05-2.69,1.89-1.29,1.49-1.84,3.36-1.61,5.25-1.01-.48-2.17-.87-3.49-1.05-1.23-.16-2.25-.26-3.2-.3-.71-.03-1.37-.04-1.99-.04-1.97,0-3.72.14-5.37.44-1.69.3-3.45.71-5.46,1.27-1.4-.51-2.89-.88-4.52-1.12-1.48-.22-2.96-.33-4.41-.33-.45,0-.9.01-1.35.03-.56-1.33-1.27-2.5-2.15-3.49.02-.69,0-1.45-.09-2.23-.19-1.77-.67-3.48-1.43-5.11,1.05-2.1,1.84-4.35,2.42-6.84,1.09-4.69,1.27-9.44.56-14.12-.21-1.36-.45-2.76-.9-4.18.96-1.23,1.8-2.38,2.57-3.51,1.02-1.49,1.65-2.97,1.92-4.51.41-2.35-.3-4.65-1.94-6.31-1.62-1.63-3.7-2.53-5.87-2.53-.52,0-1.04.05-1.56.15-.91.18-1.73.42-2.49.75-.17.07-.34.14-.5.22-1.35-1.26-3.1-2.11-5.09-2.44C37.81.77,35.49,0,33.06,0,33.06,0,33.06,0,33.06,0c-1.31,0-2.65.22-3.99.67-.53-.08-1.07-.12-1.6-.12-1.72,0-3.44.4-5.11,1.19-1.2.57-2.65,1.4-3.81,2.9-.18.1-.33.19-.44.26-1.01.62-1.87,1.36-2.58,2.19-1.06-.72-2.17-1.35-3.33-1.91-1.37-.65-2.84-.99-4.39-.99-.23,0-.47,0-.7.02C3.36,4.46.6,7.03.09,10.76c-.18,1.29-.08,2.63.28,3.98.96,3.56,2.84,6.54,5.61,8.86-.76,3.08-.8,6.02-.73,8.52.05,1.85.37,3.53.66,5.02l.06.3c.78,4.12,2.32,7.51,4.72,10.34.2.24.41.48.61.73.24.29.48.57.73.87-.43,2.01-.68,4.26-.21,6.74.29,1.53.79,3.53,2.06,5.51-.93,2.72-1.37,5.55-1.3,8.43.09,3.99,1.11,7.24,3.09,9.91.39.53.77,1.05,1.16,1.58,0,0,0,0,0,0-.15,1.24-.15,2.55,0,3.96.42,3.86,2.05,7.12,4.82,9.71,1.42,1.33,2.98,2.22,4.27,2.84,0,.01.01.02.02.03-.28,2.86-.3,5.62-.31,8.3,0,.99,0,1.98.01,2.93.02,2.07.04,4.02-.1,5.91-.12,1.63,0,3.23.39,4.77.54,2.19,1.99,3.95,4.09,4.95,1.34.63,2.81.96,4.38.96,1.26,0,2.36-.2,3.25-.36.59-.11,1.27-.31,1.96-.68.39.2.81.38,1.25.53,1.09.37,2.25.55,3.47.55.24,0,.47,0,.71-.02,5.93-.33,7.68-3.94,8.55-7.05.57-2.06.64-4.01.65-5.83,0-.73.01-1.47.02-2.2.02-1.42.03-2.86.03-4.32,1.33.19,2.56.29,3.74.29,1.85,0,3.57-.23,5.24-.69.16.02.33.05.49.07.46.07.98.15,1.56.21.68.06,1.37.1,2.05.1,1.49,0,2.96-.15,4.39-.46-.05,1.43-.09,2.91-.03,4.43l.02.56c.05,1.36.1,2.65.1,3.92,0,1.39.17,2.79.51,4.15,1.02,4.04,4.52,6.76,8.71,6.76.06,0,.12,0,.18,0,1.55-.03,2.97-.46,4.17-1.23.71.26,1.73.6,2.97.71.25.02.51.03.76.03,2.92,0,5.5-1.52,6.89-4.06,1.09-1.99,1.4-3.96,1.53-5.27.26-2.46.3-4.85.35-7.17.02-.84.03-1.68.06-2.53.06-2.04.13-3.61.22-5.09.02-.33.05-.65.08-.98.03-.31.05-.64.08-.99.04-.05.09-.09.13-.14.34-.38.65-.75.89-1.03,1.39-1.69,1.89-3.38,2.01-4.73.19-.43.39-.91.59-1.4.7-1.72,1.5-4.04,1.45-6.79-.04-2.15-.23-3.91-.61-5.54-.06-.27-.04-.34-.03-.38.41-1.54.78-3.23.72-5.12-.07-2.17-.42-4.14-1.06-5.95.38-.84.76-1.82,1.01-2.94.31-1.4.31-2.77,0-4.07.48-.62.93-1.37,1.24-2.3.71-2.09.43-4.32-.77-6.13-.77-1.17-1.86-2.06-3.13-2.59-.11-1.68-.25-3.32-.43-4.89l-.11-.95c-.15-1.3-.3-2.52-.36-3.7-.08-1.43-.12-2.86-.16-4.38,0-.13,0-.27-.01-.4.08-.15.15-.3.22-.45.22-.51.49-1.32.5-2.34,1.25-1.3,2.55-2.7,3.79-4.17,1.75-2.07,4.22-5.31,5.55-9.5.81-2.55.99-5.16.56-7.77-.78-4.67-4.84-7.62-8.45-8.12Z" style="fill: #e2d6c7; stroke-width: 0px;"/>
      <path d="m101.1,9.04c-.31-.04-.62-.06-.93-.07.31,0,.62.02.93.07Zm-.99-.07c-.29,0-.58.02-.87.05.27-.03.55-.05.83-.05.01,0,.03,0,.04,0Zm-5.62,22.96c.11.19.18.41.26.62-.08-.21-.15-.43-.26-.62-.23-.38-.15-.63.16-.95-.32.32-.39.58-.16.95Zm-.04,24.5c-.14-2.82-.27-5.63-.58-8.44.3,2.81.44,5.62.58,8.44Zm-1.76-24.5c-.08.12-.16.25-.19.38,0,.01-.01.03-.02.04,0-.01.01-.02.02-.04.03-.13.11-.26.19-.38Zm-.36,23.93c-.19-.12-.39-.23-.59-.32,0,0,0,0,0,0,0,0,0,0,0,0,.21.09.41.2.59.32Zm-.86-.4s-.06,0-.09-.01c.03,0,.06,0,.09.01Zm-.28-.03s-.06,0-.09,0c.01,0,.03,0,.04,0,.02,0,.03,0,.05,0Zm-1.25,2.02c.07.13.15.26.23.38-.08-.12-.16-.25-.23-.38-.07-.14-.13-.27-.17-.41.04.13.1.27.17.41Zm.27-1.75s.04-.03.07-.04c-.02.01-.05.03-.07.04Zm.25-.14s.05-.02.07-.03c-.02,0-.05.02-.07.03Zm.34-.11s.02,0,.04,0c-.01,0-.02,0-.04,0Zm2.1-21.46c-.01-.26-.03-.51-.29-.66.26.15.28.41.29.66,0,.13.01.27.02.4,0-.13-.02-.27-.02-.4Zm.1,61.88c-.06.03-.12.08-.16.14.04-.06.1-.1.16-.14Zm-.04-35.37c.19-.03.38-.09.54-.2-.16.11-.34.16-.54.2Zm.3,35.3c-.08,0-.16.02-.22.05.07-.03.14-.05.22-.05Zm.62-.06s-.09.04-.14.05c.05-.01.1-.03.14-.05Zm.91-49.84c.07.6.13,1.21.19,1.81.11,1.21.2,2.42.27,3.63.03.61.06,1.21.09,1.82.04,1.09.08,2.19.13,3.41h0c-.05-1.23-.09-2.32-.13-3.41-.02-.61-.05-1.21-.09-1.82-.07-1.21-.16-2.42-.27-3.63-.06-.6-.12-1.21-.19-1.81-.05-.41-.1-.83-.14-1.24.05.41.1.83.14,1.24Zm1.89,23.02c.2.43.38.86.52,1.3-.15-.44-.32-.87-.52-1.3-.13-.28-.2-.54-.21-.8,0,.26.08.52.21.8Zm.56,11.36c-.04-.3-.07-.61-.08-.91,0,.3.03.6.08.91Zm.61-4.95c-.08.84-.28,1.68-.49,2.5.22-.82.41-1.66.49-2.5Zm-1.33-19.65s.03-.02.04-.03c-.01,0-.03.02-.04.03Zm.96-.42s-.05.01-.07.02c.02,0,.05-.01.07-.02Zm-.48.15s-.04.02-.06.03c.02,0,.04-.02.06-.03Zm.95-.2c.06,0,.13,0,.19,0-.08,0-.15,0-.22,0,.01,0,.02,0,.03,0Zm.41-46.05c.21-.05.43-.09.65-.12-.22.03-.43.07-.65.12Zm-.24.06c-.28.07-.56.16-.84.26.28-.1.56-.19.84-.26Zm-2.46,1.01c-.51.29-1,.61-1.46.97.46-.36.95-.68,1.46-.97Zm-2.14,1.52c-.44.39-.86.81-1.25,1.25.4-.45.81-.86,1.25-1.25Zm-3.39,4.35c-.27-.15-.46-.36-.63-.58.17.22.36.43.63.58Zm-6.85-5.12c-.19-.04-.37-.06-.55-.07.18,0,.37.03.55.07Zm-.66-.07c-.15,0-.3,0-.45.02.12-.01.24-.03.36-.03.03,0,.06,0,.09,0Zm-.57.03c-.18.02-.36.06-.53.12.17-.05.35-.09.53-.12Zm-.66.16c-.13.04-.25.09-.37.15.12-.06.24-.1.37-.15Zm-.54.23c-.1.05-.2.11-.29.17.09-.06.19-.12.29-.17Zm-.46.29c-.09.07-.17.14-.26.21.08-.07.17-.15.26-.21Zm-.4.35c-.08.08-.16.17-.23.27.07-.09.15-.18.23-.27Zm-.78,1.21c.05-.12.1-.25.17-.37.08-.15.17-.3.27-.44-.1.14-.19.29-.27.44-.06.12-.12.25-.17.37-.1.25-.17.5-.21.75.05-.25.12-.5.21-.75Zm6.9,50.13c-.27.15-.53.3-.8.45-.15.08-.28.14-.41.18.13-.04.26-.1.41-.18.27-.15.53-.3.8-.45Zm-.69,41.54c-.01,1.1-.03,2.2-.07,3.29.04-1.1.05-2.2.07-3.29Zm.17-5.67c-.03.61-.07,1.23-.1,1.84.03-.61.07-1.23.1-1.84Zm-1.23-35.17s.08.01.12.01c-.04,0-.08,0-.12-.01Zm.21,34.77s-.04.04-.06.06c.01-.02.04-.04.06-.06Zm-.04-34.76c.11,0,.23-.02.35-.06-.12.04-.24.06-.35.06Zm.55,34.54s-.09,0-.13.02c.04,0,.09-.01.13-.02Zm-.29.07s-.07.02-.1.04c.03-.02.06-.03.1-.04Zm-.51-34.63s-.08-.02-.12-.04c.04.01.08.03.12.04Zm-.41-.17c-.07-.04-.14-.09-.22-.14.07.05.15.1.22.14Zm.21.1s-.09-.04-.14-.07c.05.02.09.05.14.07Zm-4.13,56.15c-.1-.03-.19-.07-.28-.11.09.04.18.08.28.11Zm-.51-.21c-.09-.05-.17-.1-.25-.16.08.05.16.11.25.16Zm-.46-.29c-.08-.06-.15-.13-.22-.2.07.07.14.14.22.2Zm-1.38-20.08c-.05,1.35-.1,2.71-.14,4.06.05-1.35.1-2.71.14-4.06,0-.09,0-.16,0-.23,0,.07,0,.14,0,.23Zm-2-37.83c-.45,0-.89,0-1.34.02.41-.02.81-.02,1.22-.02.04,0,.08,0,.12,0Zm.77,37.12c-.1,0-.19,0-.29.01.1,0,.19-.01.29-.01Zm-.71.07c-.09.01-.18.03-.27.04.09-.02.18-.03.27-.04Zm-.72.16c-.07.02-.15.04-.22.06.07-.02.15-.04.22-.06Zm-.98-37.31c-.37.02-.73.04-1.1.08.37-.03.73-.06,1.1-.08Zm-1.49.12c-.46.05-.92.11-1.38.19.46-.08.92-.14,1.38-.19Zm-1.53,38.63c-.23.06-.46.1-.7.15.23-.04.47-.09.7-.15Zm-.95.2c-.32.05-.63.1-.95.14.32-.03.64-.08.95-.14Zm-1.84-38.01c-.97.24-1.93.5-2.9.78,0,0,0,0,0,0,0,0,0,0,0,0,.96-.28,1.92-.54,2.9-.78Zm.68,38.16c-.25.02-.51.04-.76.06.26-.01.51-.03.76-.06Zm-4.74-37.3c.11.02.21.03.32.03-.11,0-.21-.02-.32-.03Zm.6.02s.09,0,.14-.01c-.05,0-.09,0-.14.01Zm-.75-.04c-.16-.04-.32-.08-.48-.15.16.07.32.12.48.15Zm-.92,36.99c-.1,0-.19,0-.28.02.09,0,.19-.02.28-.02Zm-.44.03c-.14.02-.29.05-.43.09.14-.04.28-.07.43-.09Zm.84-.02s-.08,0-.12,0c.04,0,.08,0,.12,0Zm-1.3.12c-.34.1-.68.19-1.02.27.34-.07.68-.16,1.02-.27Zm-1.38.33c-.23.04-.46.09-.69.12.23-.03.46-.08.69-.12Zm-1.12.16c-.21.02-.41.05-.62.06.21-.01.41-.04.62-.06Zm-1.92-39.09c-.1,0-.2-.02-.31-.02.1,0,.2.02.31.02Zm-1.86-.08c-.14,0-.27,0-.41,0,.1,0,.19,0,.29,0,.04,0,.08,0,.12,0Zm-1.16.02c-.15,0-.31.02-.46.03.15,0,.31-.02.46-.03Zm-2.45.24c-.13.02-.26.04-.38.06.13-.02.26-.04.38-.06Zm1.25-.16c-.15.01-.3.03-.45.05.15-.02.3-.03.45-.05Zm-6.05-23.61c-.18.67-.38,1.33-.62,1.97.23-.65.43-1.31.62-1.97Zm-.88-19.21c-.11.13-.22.24-.2.4-.02-.16.09-.26.2-.4.37-.45.73-.9,1.09-1.35-.36.45-.72.9-1.09,1.35Zm.42,100.47c-.08.06-.16.12-.25.17.09-.05.17-.11.25-.17Zm2.35-60.9c-.12-.32-.25-.62-.41-.91.15.29.29.6.41.91.41,1.08.67,2.21.85,3.35-.18-1.14-.44-2.27-.85-3.35Zm.41,40.25c-.1-.02-.22-.04-.33-.04.11,0,.22.01.33.04Zm-.42-.04c-.05,0-.1,0-.16.01.05,0,.1,0,.16-.01Zm-.25.03c-.05,0-.1.02-.15.03.05-.01.1-.03.15-.03Zm-.24.06c-.05.02-.1.04-.14.06.04-.02.09-.04.14-.06Zm-.21.09c-.06.04-.12.08-.16.13.04-.05.1-.09.16-.13Zm1.85-36.68s-.01,0-.02,0c0,0,.01,0,.02,0Zm-.13-.03s-.02-.02-.03-.02c.01,0,.02.02.03.02Zm-.09-.1s-.02-.03-.02-.04c0,.02.01.03.02.04Zm.67-52.76s.05.04.08.06c-.03-.02-.05-.04-.08-.06Zm-1.39-.48s-.07,0-.11,0c.02,0,.03,0,.05,0,.02,0,.04,0,.05,0Zm.99.25s-.05-.02-.08-.03c.03.01.05.02.08.03Zm-.5-.18s-.02,0-.03,0c.01,0,.02,0,.03,0Zm-5.93,2.25c-.38.23-.75.48-1.12.72,0,0,0,0,0,0,0,0,0,0,0,0,.37-.25.74-.49,1.12-.72Zm-1.73.92c.07.03.12.04.17.04-.05,0-.11-.01-.17-.04Zm.19.05s.08,0,.11-.02c-.03.01-.07.02-.11.02Zm1.54,107.9c-.11,0-.22-.01-.33-.02.11.01.22.02.33.02Zm-.5-.04c-.11-.01-.22-.03-.33-.05.11.02.22.04.33.05Zm-.48-.08c-.16-.04-.31-.08-.47-.13.16.05.31.09.47.13Zm-.43-107.81s.06-.03.09-.05c-.03.02-.06.04-.09.05Zm.1-.06s.07-.05.1-.08c-.03.03-.06.05-.1.08Zm-.52-1.29c.03.22.07.44.09.67-.02-.22-.06-.44-.09-.67-.08-.51-.24-.97-.46-1.36.22.4.37.85.46,1.36Zm-2.16,87.25c-.07,0-.15,0-.22,0,.07,0,.15,0,.22,0Zm1.27,9.26c-.02,1.5-.04,2.99-.05,4.49.01-1.5.03-2.99.05-4.49Zm-3.31-99.93c-.4-.08-.74-.24-1.08-.53-.22-.18-.44-.34-.66-.49.22.15.45.31.66.49.34.29.68.45,1.08.53Zm-1.89-1.12c-.22-.14-.44-.26-.67-.37.22.11.45.23.67.37Zm-.78-.42c-.21-.09-.42-.17-.63-.24.21.07.42.15.63.24Zm-.74-.28c-.23-.07-.47-.12-.7-.15.24.04.47.09.7.15Zm-.86-.17c-.24-.03-.49-.05-.73-.05.25,0,.49.02.73.05Zm-.73-.05c-.25,0-.5.02-.76.05.25-.03.51-.05.76-.05h0Zm-1.86,90.14c.2.26.32.54.38.83-.06-.29-.17-.57-.38-.83Zm.38,2.25c.04-.36.07-.71.05-1.04.02.33-.01.67-.05,1.04-.16,1.4-.24,2.81-.29,4.21.05-1.41.13-2.81.29-4.21Zm-.07-92.19c.19-.05.38-.08.57-.11-.19.03-.38.07-.57.11Zm-1.01.3c.26-.1.52-.18.78-.25-.26.07-.52.15-.78.25Zm-1.35.23s-.07,0-.11,0c.04,0,.07,0,.11,0Zm1.35-.23c-.19.07-.37.12-.56.16.18-.04.37-.09.56-.16Zm-.72.19c-.13.02-.27.04-.4.04.13,0,.27-.02.4-.04Zm-1.7-.1c-.06,0-.12,0-.18-.01.06,0,.12,0,.18.01Zm-.54-.03c-.06,0-.11,0-.17,0,.03,0,.07,0,.1,0,.02,0,.04,0,.07,0Zm-.66.03c-.05,0-.1,0-.15.02.05,0,.1-.01.15-.02Zm-.76.13s-.08.02-.11.03c.04,0,.08-.02.11-.03Zm-.61.18c-.05.02-.11.04-.16.06.05-.02.11-.04.16-.06Zm-3.18,76.37c-.02.34-.02.67,0,1.01-.01-.34-.01-.67,0-1.01Zm.34-1.99c.06-.2.06-.37.04-.53.03.16.02.34-.04.53-.1.33-.17.66-.23.99.05-.33.13-.66.23-.99Zm-1.04-71.5c.13-.05.26-.1.37-.17-.11.07-.24.12-.37.17-.11.04-.21.09-.31.14.1-.05.2-.1.31-.14Zm-1.59,51.22c-.05-.09-.11-.18-.19-.27-.22-.26-.43-.52-.63-.8.2.28.4.54.63.8.08.09.14.18.19.27Zm-1.38,4.66c-.28,1.22-.44,2.46-.48,3.71.03-1.26.19-2.5.48-3.71Zm.85-2.7c.07-.18.15-.36.23-.54-.08.18-.16.36-.23.54-.23.59-.44,1.19-.61,1.79.17-.6.38-1.2.61-1.79Zm-.04-51.37c-.27.45-.43.95-.48,1.52.04-.57.21-1.07.48-1.52Zm-.44,2.64c-.02-.19-.03-.36-.04-.52.01.17.02.34.04.52Zm-.32.62c.12,0,.25,0,.38.01-.18-.01-.35-.01-.52,0,.05,0,.09,0,.14,0Zm-.37.02c-.12,0-.24.02-.35.04.12-.02.23-.03.35-.04Zm-1.09.22c-.17.06-.34.13-.51.2,0,0,0,0,0,0h0c.17-.08.33-.15.51-.2Zm.53-.14c-.12.03-.24.06-.36.09.12-.04.24-.07.36-.09Zm-1.27.43s-.04,0-.05,0c.02,0,.04,0,.05,0Zm-.23,0s0,0,0,0c0,0,0,0,0,0Zm-.17-.09s-.03-.02-.04-.03c.01.01.03.02.04.03Zm-5.23,14.24c.03-.63.07-1.26.15-1.89-.07.63-.12,1.26-.15,1.89Zm1.62-7.5c0,.07-.03.16-.07.25-.17.42-.32.84-.46,1.27.14-.43.3-.85.46-1.27.04-.1.06-.18.07-.25Zm-2.69-11.38c-.17-.08-.34-.15-.51-.21.17.06.35.12.51.21Zm-.69-.25c-.12-.03-.24-.07-.36-.09.12.02.24.06.36.09Zm-.57-.12c-.11-.02-.23-.03-.34-.04.12,0,.23.02.34.04Zm-.56-.05c-.16,0-.32,0-.48,0,.11,0,.22-.01.33-.01.05,0,.1,0,.15,0Zm2.43,10.14c.57.41,1.16.8,1.76,1.17.08.05.14.09.19.14-.05-.05-.11-.09-.19-.14-.6-.37-1.19-.76-1.76-1.17Zm1.15,4.48c-.17.62-.31,1.24-.41,1.86.1-.62.24-1.24.41-1.86Zm.14,13.03c.17.7.37,1.39.61,2.06-.24-.67-.45-1.36-.61-2.06Zm4.51,8.19c.42.49.84.98,1.27,1.46.13.14.23.28.3.43-.08-.14-.18-.29-.3-.43-.43-.48-.85-.97-1.27-1.46Zm1.31,10.37c-.08-.31-.15-.63-.21-.95-.1-.52-.15-1.04-.15-1.55,0-.51.03-1.02.09-1.53-.06.51-.1,1.01-.09,1.53,0,.51.05,1.03.15,1.55.06.32.13.64.21.95s.17.62.27.93c-.11-.3-.19-.61-.27-.93Zm.64,13.89c.06,2.39.51,4.71,1.99,6.71.36.49.72.98,1.07,1.47-.36-.49-.71-.98-1.07-1.47-1.48-1.99-1.94-4.32-1.99-6.71Zm4.23,14.98c-.03-.31-.06-.63-.07-.94.01.31.04.63.07.94.1.92.3,1.79.61,2.6-.31-.81-.51-1.68-.61-2.6Zm6.89,8.53c-.16-.07-.31-.14-.46-.21.15.07.3.14.46.21.08.03.15.07.23.1-.07-.03-.15-.07-.23-.1Zm1.28,1.3c-.05-.28-.16-.49-.3-.67.14.18.25.39.3.67.01.07.03.13.05.2-.02-.07-.04-.14-.05-.2Zm.81,23.93c-.12-.5-.2-1-.24-1.51.04.5.12,1.01.24,1.51.07.3.2.55.38.74-.18-.2-.31-.44-.38-.74Zm.84,1.1c.07.04.14.09.21.12.17.08.34.15.51.2-.17-.05-.34-.12-.51-.2-.08-.04-.14-.08-.21-.12Zm1.97.53c.1,0,.19,0,.29,0-.02,0-.04,0-.07,0-.07,0-.15,0-.22,0Zm-1.07-.16c.11.03.22.06.33.08-.11-.02-.22-.05-.33-.08Zm.55.11c.1.01.2.03.3.04-.1,0-.2-.02-.3-.04Zm2.46-.12c-.05,0-.11.02-.16.03.05,0,.11-.02.16-.03Zm-.55.09c-.07,0-.14.02-.2.02.07,0,.14-.01.2-.02Zm-.55.06c-.08,0-.15,0-.22.01.07,0,.15,0,.22-.01Zm2.86-1.73c-.05.16-.12.31-.19.46-.06.12-.12.24-.19.35.07-.11.13-.23.19-.35.07-.15.14-.31.19-.46.16-.47.25-.94.31-1.42-.05.48-.14.96-.31,1.42Zm1.07-15.49c.06-1.1.05-2.21.13-3.31-.08,1.1-.07,2.21-.13,3.31Zm.6-4.73s.04,0,.07-.01c-.02,0-.04,0-.07.01Zm-.15.05s.03-.01.05-.02c-.02,0-.04.01-.05.02Zm.39-.08s-.05,0-.07,0c.02,0,.05,0,.07,0Zm.54.01s.04,0,.07,0c0,0-.02,0-.02,0-.01,0-.03,0-.04,0Zm1.12,20.71c-.06-.18-.09-.38-.1-.61-.06-1.03-.06-2.06-.05-3.1,0,1.03-.01,2.06.05,3.1.01.23.05.43.1.61s.14.33.24.46c-.1-.13-.18-.28-.24-.46Zm2.8,1.31c.15,0,.31,0,.47,0-.13,0-.26.01-.4.01-.02,0-.05,0-.07,0Zm3.7-2.2c-.08.23-.17.44-.26.63.09-.19.17-.4.26-.63.08-.23.16-.49.24-.78.19-.68.29-1.36.35-2.06-.06.69-.16,1.38-.35,2.06-.08.29-.16.54-.24.78Zm.68-5.14c0,.36,0,.72-.02,1.08.01-.36.02-.72.02-1.08.03-3.85.14-7.69-.1-11.54.24,3.84.13,7.69.1,11.54Zm3.14-12.87c-.59-.26-1.14-.58-1.69-.93-.08-.05-.19-.09-.29-.12.11.03.21.07.29.12.55.35,1.11.67,1.69.93.59.26,1.2.47,1.85.6.02,0,.04,0,.06.01-.02,0-.04,0-.06-.01-.65-.13-1.26-.34-1.85-.6Zm2.94.8c.12.02.23.03.35.05-.12-.02-.23-.03-.35-.05Zm1.09.15c.14.02.28.03.42.04-.14-.01-.28-.02-.42-.04Zm1.08.1c.15,0,.3.01.45.02-.15,0-.3,0-.45-.02Zm1.08.04c.2,0,.39,0,.59-.01-.17,0-.35.02-.52.02-.02,0-.04,0-.07,0Zm7.35-.45c.18.02.35.05.53.07.32.03.64.05.96.06-.32-.01-.64-.03-.96-.06-.18-.02-.36-.05-.53-.07Zm1.75.13c.23,0,.46,0,.69,0-.13,0-.25.01-.38.01-.1,0-.2,0-.3,0Zm4.22-.5c.21-.05.41-.11.62-.18-.2.06-.41.12-.62.18Zm.95-.28c.21-.07.42-.15.63-.23-.21.08-.42.16-.63.23Zm1.82-.73c-.3.14-.6.27-.9.39.3-.12.6-.25.9-.39Zm3.28,7.48c-.02.58-.03,1.15-.04,1.73,0-.58.02-1.15.04-1.73Zm1.05,12.13c.06.09.13.18.2.26-.07-.08-.13-.17-.2-.26Zm-.59-1.25c.05.2.11.39.19.57-.08-.18-.14-.37-.19-.57Zm.28.74c.06.11.11.23.18.33-.07-.1-.12-.22-.18-.33Zm3,1.79c-.1,0-.19-.01-.28-.02.12,0,.24.02.36.02-.03,0-.05,0-.08,0Zm-.86-.11c.1.02.2.05.3.07-.1-.01-.2-.04-.3-.07Zm2.37-.36c.14-.11.26-.24.37-.39-.11.15-.23.28-.37.39Zm1.36-5.77c0-.63-.01-1.27,0-1.9,0,.63,0,1.27,0,1.9Zm.3-9.13c.02-.7.04-1.4.05-2.09,0-.02,0-.04,0-.06,0,.02,0,.04,0,.06-.01.7-.03,1.4-.05,2.09Zm1.33,12.97c.03.12.07.23.12.34-.05-.11-.09-.22-.12-.34Zm.27.6c.15.21.35.39.59.53-.24-.14-.44-.32-.59-.53Zm3.32,1.31c-.09,0-.18,0-.27-.01-.36-.03-.7-.12-1.03-.22-.23-.07-.45-.15-.68-.23.22.08.45.16.68.23.33.11.67.19,1.03.22.11,0,.21.01.32,0-.02,0-.03,0-.04,0Zm.18-.01c.07,0,.13,0,.19-.02-.06,0-.13.01-.19.02Zm.33-.04c.06-.01.12-.03.18-.04-.06.02-.12.03-.18.04Zm.3-.08c.06-.02.11-.04.16-.07-.05.02-.11.05-.16.07Zm.28-.12c.05-.03.1-.06.15-.09-.05.03-.1.06-.15.09Zm.26-.16s.1-.08.14-.12c-.05.04-.09.08-.14.12Zm.23-.2s.1-.11.14-.16c-.05.06-.09.11-.14.16Zm.21-.24c.07-.09.13-.18.18-.29-.06.1-.12.2-.18.29Zm1.79-22.35c-.01-.1,0-.19,0-.28-.02.09-.02.18,0,.28.05.37.07.73.07,1.1,0-.36-.02-.73-.07-1.1Zm.1-.52c-.04.06-.07.13-.09.21.02-.08.05-.15.09-.21Zm.56-.22c.09.01.17,0,.24,0-.03,0-.05.01-.08.01-.05,0-.1,0-.16-.01Zm.57-.1s.09-.06.13-.1c-.04.04-.09.07-.13.1Zm.19-.14c.06-.05.11-.11.17-.18-.06.06-.11.12-.17.18Zm.89-1.01c-.16.19-.32.38-.49.57.16-.19.33-.38.49-.57.24-.29.44-.6.58-.93.1-.25.15-.52.17-.8-.02.28-.07.55-.17.8-.14.33-.34.64-.58.93Zm2.87-35.89c.46-.3.92-.62,1.22-1.07-.31.45-.76.76-1.22,1.07Zm6.96-42.9c-.09.64-.23,1.28-.43,1.92-.34,1.08-.79,2.1-1.31,3.07.53-.97.97-1.98,1.31-3.07.2-.64.35-1.28.43-1.92.06-.43.09-.86.09-1.29,0,.43-.04.86-.09,1.29Z" style="fill: #e2d6c7; stroke-width: 0px;"/>
      <g>
        <path d="m104.8,12.54c-.33-1.95-2.21-3.29-3.7-3.49-1.31-.18-2.59-.01-3.82.45-2.28.85-4.09,2.33-5.6,4.21-.6.75-1.03,1.61-1.56,2.41-.27-.15-.46-.36-.63-.58-.54-.69-1.14-1.32-1.76-1.93-1.27-1.23-2.68-2.24-4.46-2.61-1.66-.35-3.23.5-3.9,1.83-.5.99-.52,2.01-.41,3.04.25,2.28,1.08,4.36,2.28,6.3,1,1.62,2.2,3.07,3.66,4.29,2.15,1.8,4.53,3.25,7.07,4.42.3.14.74.22.87.45.18.33-.28.63-.35.99-.01.05-.05.1-.08.15-.17.34-.19.65.19.87.26.15.28.41.29.66.02.53.1,1.08.04,1.6-.2,1.95.04,3.89.22,5.82.2,2.19.47,4.37.7,6.56.3,2.81.44,5.62.58,8.44.02.36.14.72,0,1.16-.55-.46-1.07-.88-1.58-1.31-.35-.29-.72-.55-1.14-.73-.58-.24-1.35-.09-1.72.34-.43.5-.36,1.02-.08,1.57.56,1.08,1.52,1.64,2.61,2,.42.14.85.22,1.32.34-.16.5-.51.65-.9.72-.33.06-.66.15-.98.24-2.39.64-4.54,1.83-6.67,3.02-.65.36-1.08.35-1.65-.08-1.11-.82-2.3-1.54-3.72-1.73-.89-.12-1.79-.22-2.69-.25-2.06-.08-4.11-.05-6.15.31-1.97.35-3.91.85-5.83,1.4-.63.18-1.19.17-1.8-.09-1.32-.57-2.72-.93-4.15-1.14-2.9-.43-5.79-.35-8.65.3-.33.07-.44,0-.5-.34-.18-1.14-.44-2.27-.85-3.35-.48-1.26-1.2-2.37-2.33-3.14-.44-.3-.57-.63-.51-1.13.13-1.09.2-2.19.09-3.29-.2-1.89-.9-3.6-1.99-5.15-.27-.38-.28-.64-.02-1.04,1.5-2.35,2.49-4.9,3.12-7.62.92-3.98,1.09-7.98.48-12.01-.3-1.95-.66-3.9-1.73-5.61-.17-.27-.02-.4.13-.58,1.47-1.79,2.89-3.61,4.19-5.51.48-.69.87-1.45,1.02-2.3.09-.54-.03-1.03-.4-1.41-.65-.65-1.44-1.01-2.38-.82-.46.09-.93.22-1.37.4-1.64.7-3.16,1.6-4.65,2.59-.16.11-.31.35-.61.2.06-.45-.02-.89-.09-1.33-.32-2.05-1.85-3.19-3.77-3.36-.6-.05-1.05-.2-1.51-.59-1.95-1.65-4.16-1.88-6.49-1.01-.64.24-1.24.31-1.88.17-1.36-.29-2.64-.05-3.86.53-.76.36-1.52.79-1.97,1.55-.28.49-.64.84-1.17,1.02-.21.07-.41.19-.6.31-1.35.82-2.15,1.96-2.04,3.61.02.34.05.67.09,1.16-.86-.07-1.63.1-2.34.43-.4.19-.57.08-.84-.2-1.76-1.85-3.79-3.35-6.1-4.45-.72-.34-1.5-.48-2.3-.43-1.12.07-1.69.62-1.85,1.72-.08.6-.01,1.18.14,1.76.75,2.77,2.29,4.99,4.62,6.66.57.41,1.16.8,1.76,1.17.31.19.41.36.25.75-.34.83-.61,1.7-.86,2.56-.69,2.47-.77,4.99-.7,7.53.04,1.5.34,2.96.62,4.43.54,2.87,1.59,5.52,3.49,7.77.83.99,1.65,1.99,2.52,2.95.51.57.59,1.14.4,1.86-.52,1.99-.96,4-.56,6.09.25,1.29.6,2.52,1.33,3.62.37.56.75,1.13,1.2,1.64.31.35.39.72.14,1.16-.19.34-.35.71-.49,1.07-.94,2.36-1.38,4.83-1.33,7.36.06,2.39.51,4.71,1.99,6.71.72.97,1.43,1.96,2.14,2.93.29.4.52.78.36,1.32-.39,1.31-.42,2.66-.27,4.02.27,2.45,1.26,4.53,3.07,6.22,1.11,1.04,2.43,1.73,3.81,2.31.62.26,1.14.57,1.28,1.3.05.26.2.56.39.74.77.72.74,1.55.63,2.52-.31,2.8-.33,5.62-.35,8.44-.02,3.07.12,6.14-.1,9.21-.07,1,0,2.02.24,3.02.15.61.52.97,1.06,1.22,1.39.66,2.82.4,4.23.14.52-.09.8-.54,1.04-1.03.58-1.22.54-2.54.6-3.81.17-3.66.12-7.33.56-10.97.18-1.49.13-2.99.23-4.48.03-.43-.17-.99.18-1.28.37-.3.93-.08,1.4-.17.05-.01.11,0,.17,0,.55.07.8.38.78.95-.07,2.03-.16,4.05-.19,6.08-.05,2.99-.07,5.97-.1,8.96-.01,1.38-.04,2.75.04,4.13.06.93.43,1.37,1.29,1.66.68.23,1.37.29,2.08.25,2.23-.12,2.83-.69,3.47-2.97.4-1.43.43-2.91.44-4.36.03-4.39.18-8.79-.23-13.18-.01-.16-.09-.33.05-.48.32-.35,1.18-.41,1.62-.14,1.1.7,2.24,1.27,3.54,1.53,2.86.57,5.7.77,8.53-.11.55-.17,1.12-.14,1.68-.07.67.09,1.33.22,2.01.28,2.87.27,5.62-.22,8.22-1.46.93-.44,1.86-.61,2.87-.56.7.03.7.02.68.71-.05,1.35-.1,2.71-.14,4.06-.08,2.22-.22,4.45-.14,6.67.06,1.57.13,3.15.13,4.72,0,.94.11,1.86.34,2.76.4,1.6,1.69,2.56,3.36,2.53,1.13-.02,1.88-.61,2.23-1.71.38-1.17.52-2.37.54-3.58.03-1.27-.03-2.54.02-3.8.11-2.79.3-5.58.34-8.37.02-1.24.1-2.48.16-3.72.02-.36.38-.56.87-.52.42.03.29.33.28.56-.04.84-.11,1.69-.13,2.53-.04,2.17-.03,4.34-.11,6.51-.05,1.4.03,2.8.02,4.21-.01,1.63.05,3.27.1,4.9.03.94.45,1.6,1.37,1.93.66.23,1.31.51,2.03.57.99.09,1.78-.28,2.25-1.14.54-.98.76-2.06.87-3.16.32-3.09.28-6.2.38-9.3.06-1.75.12-3.5.23-5.24.09-1.46.32-2.91.13-4.37-.06-.47.2-.8.66-.74.45.07.69-.15.94-.43.25-.27.48-.55.72-.84.48-.58.8-1.22.76-2.01-.01-.26.04-.5.15-.74.29-.64.57-1.29.83-1.94.6-1.47,1.06-2.98,1.04-4.59-.03-1.47-.13-2.93-.47-4.36-.24-1.04-.27-2.05,0-3.08.3-1.14.57-2.32.53-3.5-.06-1.87-.39-3.7-1.21-5.41-.27-.56-.28-1.03-.02-1.6.49-1.07,1.05-2.12,1.32-3.29.22-1.01.06-1.9-.53-2.72-.46-.63-.63-1.41-1.23-2.05.68-.12,1.21-.29,1.69-.6.61-.41,1.22-.82,1.47-1.57.31-.93-.27-1.8-1.24-1.87-.79-.06-1.43.26-2,.74-.2.17-.4.36-.68.61-.05-1.23-.09-2.32-.13-3.41-.09-2.42-.27-4.84-.54-7.25-.19-1.65-.41-3.31-.5-4.96-.13-2.28-.15-4.56-.23-6.84-.01-.32.08-.54.39-.66.46-.18.45-.52.3-.9-.08-.21-.15-.43-.26-.62-.23-.38-.15-.63.16-.95,1.82-1.85,3.62-3.71,5.3-5.69,1.92-2.28,3.58-4.7,4.49-7.58.54-1.71.67-3.41.37-5.17Zm-13.63,44.93c-.11-.12-.21-.27-.29-.41-.09-.15-.11-.32.03-.47.12-.12.25-.09.39-.04.13.05.28.08.39.15.93.58,1.78,1.25,2.55,2.08-1.17-.09-2.25-.39-3.06-1.31ZM22.07,10.52c.71-.21,1.19-.61,1.63-1.22,1.05-1.46,2.62-1.91,4.33-1.71,1.12.13,2.11.04,3.2-.36,1.65-.62,3.35-.44,4.76.76.71.6,1.44.98,2.41,1.01,1.65.05,2.68,1.21,2.66,2.87,0,.51-.01,1.01-.12,1.51-.08.36-.05.72,0,1.09.31,1.95-.68,3.88-2.99,4.4-1.46.33-2.88.21-4.36.09-.34-.03-.7-.04-.99.14-.96.6-2.03.63-3.1.62-1.06-.02-2.05-.3-2.97-.85-.64-.39-1.3-.62-2.08-.55-.66.06-1.29-.16-1.81-.59-.65-.54-1.19-1.18-1.6-1.93-.05-.1-.09-.22-.17-.28-1.6-1.32-1.15-4.28,1.19-4.99Zm15.86,88.45c-.24,5.37-1,10.7-.95,16.14-1.37-.22-2.64-.1-3.9-.16-.64-.03-.64-.06-.6-.7.09-1.49.07-2.98.01-4.47-.11-3.41-.08-6.81.01-10.22.02-.75,0-1.51,0-2.48,1.75,1.17,3.52,1.51,5.33,1.41.14.2.1.34.09.48Zm9.5,13.66c-.02.56-.1,1.12-.13,1.68-.02.31-.12.44-.46.42-.67-.03-1.35.01-2.03,0-.56,0-1.12.02-1.68.16-.36.09-.53-.06-.53-.43,0-1.32,0-2.64,0-3.97,0-3.58-.06-7.15-.05-10.73,0-.61.06-.66.62-.55,1.22.26,2.45.32,3.69.29.6-.01.61,0,.55.62-.11,1.1,0,2.19.02,3.29.07,3.07.09,6.14,0,9.21Zm35.78-13.27c-.21,3.66-.16,7.32-.37,10.98-.07,1.18.02,2.36.02,3.55,0,.27.07.56-.11.85-.82-.12-1.66-.24-2.49-.36-.11-.02-.22-.04-.33-.07-.4-.09-.93.13-1.19-.23-.24-.33-.1-.82-.09-1.24.01-2.25-.25-4.5-.15-6.76.1-2.17-.05-4.33,0-6.5.02-.72.02-.7.76-.69,1.13,0,2.25-.02,3.38-.04.56,0,.58,0,.55.52Zm8.17-1.25c-.11,3.37-.38,6.74-.4,10.12,0,1.63-.07,3.26-.12,4.9-.02.76-.03.76-.76.83-.95.08-1.91.17-2.86.24-.52.04-.59-.01-.59-.54,0-2.89.02-5.8-.18-8.68-.11-1.57.02-3.16.02-4.74,0-.11-.01-.23,0-.34.04-.48-.04-1,.15-1.41.19-.42.8-.31,1.2-.5.56-.26,1.14-.48,1.71-.71.16-.06.3-.15.46-.2,1.23-.38,1.41-.24,1.37,1.05Zm5.03-22.76c-.14.89-.3,1.78-.5,2.66-.21.93-.13,1.85.07,2.76.34,1.55.45,3.12.48,4.7.02,1.24-.35,2.39-.76,3.53-.25.69-.53,1.36-.8,2.04-.14.34-.2.69-.22,1.07-.03.53-.1,1.07-.38,1.55-.22.38-.39.73-.97.79-.54.06-.99.51-1.45.84-.3.22-.6.43-.99.42-.9-.02-1.71.32-2.51.66-1.82.78-3.72,1.06-5.68,1.16-1.94.1-3.88.02-5.82-.05-1.33-.05-2.49.37-3.67.85-2.29.95-4.65,1.52-7.15,1.21-.81-.1-1.62-.19-2.44-.29-.68-.08-1.35,0-2,.17-1.29.34-2.59.67-3.92.57-2.07-.16-4.16-.29-6.08-1.27-.36-.18-.68-.4-.97-.66-.54-.47-1.12-.51-1.73-.25-1.78.76-3.63.72-5.47.36-.7-.14-1.4-.39-2.05-.69-.51-.24-1.01-.29-1.56-.25-1.1.07-2.19.2-3.29.09-1.46-.14-2.81-.6-3.9-1.64-.56-.53-1.05-1.1-1.18-1.9-.08-.54-.46-.8-.93-1-1.25-.52-2.49-1.07-3.59-1.87-1.56-1.14-2.57-2.66-3.06-4.52-.47-1.81-.53-3.63-.06-5.44.19-.73,0-1.31-.42-1.89-.88-1.2-1.77-2.4-2.58-3.66-.83-1.31-1.18-2.75-1.32-4.24-.26-2.62.14-5.18,1-7.66.21-.61.48-1.2.73-1.8.3-.72.22-1.36-.3-1.96-.65-.75-1.2-1.56-1.61-2.47-.85-1.91-1.07-3.89-.61-5.94.19-.85.39-1.7.55-2.56.15-.81.04-1.54-.55-2.2-1-1.14-1.94-2.35-2.9-3.52-1.44-1.76-2.26-3.81-2.81-5.99-.57-2.25-.84-4.54-.91-6.85-.09-3.2.59-6.26,1.6-9.27.09-.26.23-.52.2-.82-.01-.15-.07-.28-.21-.34-.15-.08-.26.03-.36.13-.14.14-.17.36-.41.45-2-1.32-3.85-2.82-5.01-5-.56-1.05-.97-2.16-1.09-3.35-.07-.7.2-.96.94-.96,1.01,0,1.82.52,2.65,1.01,1.45.85,2.69,1.95,3.92,3.07.25.23.54.41.78.65.5.48,1,.56,1.58.12.03-.03.07-.05.1-.07.77-.17,2.07-.42,2.85-.37.15.19.3.38.38.63.5,1.52,1.5,2.62,2.98,3.26.51.22,1.04.23,1.58.23.44,0,.81.11,1.2.34,1.89,1.09,3.91,1.37,6.03.89.08-.02.18-.02.24-.07.9-.65,1.91-.46,2.91-.38,1.59.12,3.14-.06,4.62-.75,1.86-.87,2.71-3.04,2.55-4.59-.12-1.11-.13-1.12.77-1.69,1.49-.96,3.03-1.84,4.67-2.55.47-.2.96-.33,1.45-.46.29-.07.55-.05.82.07.71.31.86.66.55,1.39-.26.63-.6,1.22-.99,1.77-1.01,1.38-2.1,2.71-3.09,4.11-.44.62-.99,1.24-.91,2.04.07.76.57,1.42.78,2.14.37,1.22.55,2.48.71,3.74.35,2.84.36,5.69-.07,8.52-.39,2.63-1,5.21-2.06,7.65-.4.93-.89,1.83-1.41,2.7-.53.89-.49,1.66.15,2.47.88,1.1,1.36,2.38,1.65,3.76.17.84.12,1.69.1,2.53-.01.56-.05,1.13-.07,1.69-.03.63.15,1.14.71,1.53,1.34.92,2.1,2.24,2.46,3.81.23.99.51,1.96.79,2.93.21.74.42.82,1.07.43.63-.38,1.36-.39,2.04-.43,2.9-.16,5.81-.16,8.64.65.62.18,1.27.34,1.83.64,1.14.61,2.23.33,3.36.04,2.78-.7,5.56-1.43,8.45-1.5,1.69-.04,3.38.02,5.05.28,1.08.17,2.02.67,2.92,1.27.38.25.75.49,1.13.74.5.32.98.29,1.51.01,1.95-1.02,3.87-2.09,5.92-2.88.53-.2,1.07-.34,1.61-.51.25-.08.36.02.38.28.14,1.92.9,3.62,1.66,5.37,1.07,2.46,2.09,5.01,1.66,7.82Zm.75-18.98c.16-.1.37-.14.56-.19.24-.06.47,0,.59.22.1.19,0,.39-.12.54-.61.73-1.44,1.01-2.47,1.31.27-.95.78-1.49,1.45-1.89Zm-2.32,5.09c.52.02,1.06.03,1.45.51.3.37.47.73.42,1.22-.11,1.26-.67,2.34-1.32,3.6-.84-1.55-1.29-3-1.33-4.57-.02-.68.12-.8.78-.77Zm7.16-42.11c-1.05,2.26-2.53,4.24-4.13,6.13-1.26,1.48-2.62,2.86-3.78,4.42-.41.54-.43.54-1.03.21-2.28-1.24-4.5-2.58-6.51-4.23-2.09-1.73-3.8-3.78-4.97-6.23-.67-1.4-1.11-2.89-1.22-4.46-.04-.52.05-1.02.21-1.5.28-.88,1.21-1.41,2.15-1.27,1.03.16,1.91.62,2.72,1.26,1.16.91,2.19,1.94,3.23,2.98.18.18.36.36.55.53.78.69,1.48.59,2-.32.24-.41.45-.85.7-1.25,1.32-2.12,3.11-3.7,5.42-4.64,1-.41,2.08-.58,3.15-.44,1.62.21,2.49,1.07,2.79,2.71.06.36.06.73.08,1.04.01,1.85-.62,3.48-1.36,5.06Z" style="stroke-width: 0px;"/>
        <path d="m36.83,35.17c.06-.66-.03-1.3-.19-1.93-.5-1.93-1.46-3.55-3.32-4.46-1.69-.83-3.5-1.11-5.34-.72-1.68.36-3.2,1.13-4.34,2.47-1.46,1.72-2.08,3.76-1.85,5.97.26,2.43,1.52,4.2,3.88,5.08,1.61.6,3.29.82,4.99.61,1.68-.21,3.23-.74,4.42-2.05,1.29-1.42,1.72-3.12,1.75-4.97Zm-4.31,5.84c-2.78.97-5.46.69-7.95-.83-1.01-.62-1.64-1.65-1.89-2.81-.68-3.09.47-7.17,4.84-8.55-1.09,1.88-.04,2.78,1.42,2.85.47.02.56.2.55.61-.02,1.33,0,2.65-.01,3.98,0,.54-.08.59-.6.44-.47-.13-.9-.32-1.21-.72-.12-.15-.26-.37-.47-.17-.18.17-.02.36.09.52.17.23.38.42.63.55,1.27.66,2.79.77,4.07-.45.33-.31.62-.66.85-1.05.08-.13.07-.28-.06-.38-.13-.1-.27-.05-.37.06-.15.17-.27.36-.42.53-.48.57-1.02,1.04-1.76,1.17-.25-.12-.19-.31-.19-.46-.02-1.27-.03-2.54-.05-3.81q0-.78.76-.97c.91-.22,1.35-.69,1.41-1.45.03-.37-.19-.68-.25-1.11,1.1.22,1.94.76,2.6,1.55,2.22,2.67,1.97,6.7.3,8.83-.62.78-1.38,1.33-2.3,1.65Z" style="stroke-width: 0px;"/>
        <path d="m12.19,14.86c-.29-.12-.58-.22-.85-.24-.71.01-1.21.47-1.29,1.14-.06.53.1,1.01.34,1.46.71,1.27,1.72,2.11,3.23,2.27.47.05.93.12,1.18-.38.27-.54.72-1.09.26-1.72-.78-1.05-1.63-2.02-2.88-2.53Z" style="stroke-width: 0px;"/>
        <path d="m36.2,25.96c-.18.18-.34.38-.41.63-.09.31-.15.65.21.81.36.15.48-.16.59-.42.01-.03.02-.06.03-.08.56-.95,1.87-1.03,2.54-.16.15.2.29.41.46.6.12.13.29.17.46.09.17-.08.26-.21.27-.46-.02-.05-.04-.16-.09-.26-.69-1.6-2.86-1.99-4.07-.74Z" style="stroke-width: 0px;"/>
        <path d="m21.1,27.2c.2.11.4.05.53-.11.14-.16.15-.38,0-.55-.46-.51-.97-.96-1.72-.93-1.1,0-2.09.83-2.26,1.92-.04.24-.03.47.22.58.29.12.49-.03.61-.29.08-.18.15-.36.22-.55.28-.69,1.38-1.02,1.91-.43.13.14.31.25.47.35Z" style="stroke-width: 0px;"/>
        <path d="m37.71,89.58c-.39-.2-.9-.34-1.13-.47-.44-.24-.67-.51-.72-.87-.02-.15-.06-.32-.19-.41-.08-.06-.18-.08-.3-.07-.13.02-.24.08-.31.18-.11.15-.11.34-.09.48.02.14.07.35.18.54.53.91,1.38,1.45,2.53,1.6.02,0,.04,0,.06,0,.24,0,.53-.26.48-.49-.04-.2-.24-.36-.5-.49Z" style="stroke-width: 0px;"/>
        <path d="m42.3,54.63h0c.04.21.12.58.48.58.02,0,.04,0,.06,0,.42-.05.4-.45.39-.67,0-.06,0-.12,0-.21-.01-.08-.02-.16-.03-.24v-.02c-.07-.48-.13-.98-.35-1.46-.17-.38-.39-.76-.81-.98-.24-.13-.47-.1-.6.1-.11.16-.08.38.09.53.4.37.51.87.62,1.4l.04.19c.02.09.03.18.03.28,0,.12.02.26.06.4.01.04.02.08.03.12Z" style="stroke-width: 0px;"/>
        <path d="m30.35,75.41c-.06,0-.12,0-.18,0-.23,0-.46,0-.69.06-.54.13-.9,0-1.18-.45-.06-.11-.16-.27-.33-.31-.1-.02-.2,0-.3.06-.3.2-.17.55-.13.67.22.61.9,1.01,1.69,1.01h0s.08,0,.12,0c.39,0,.78-.11,1.14-.23.24-.08.38-.26.36-.48-.03-.37-.38-.35-.5-.35Z" style="stroke-width: 0px;"/>
        <path d="m72.71,65.58s0-.03,0-.04c-.02-.03-.07-.04-.11-.04-.65,0-1.38.09-1.97.39-.03.02-.07.03-.11.05h-.02c-.17.09-.36.18-.5.37-.16.22-.17.42-.03.59.07.09.17.14.27.14.08,0,.17-.03.26-.09.53-.34,1.14-.49,1.99-.5h.07c.19,0,.44,0,.59-.15.3-.31-.04-.88-.45-.71Z" style="stroke-width: 0px;"/>
        <path d="m77.7,81.32c-.03-.05-.16-.22-.33-.23-.1,0-.19.03-.26.09-.08.07-.12.18-.12.3,0,.56-.12,1.11-.24,1.65-.06.26-.11.54-.16.81v.06c-.04.13-.1.45.23.56.05.02.1.03.15.03.06,0,.12-.02.18-.05.15-.09.21-.26.24-.39.05-.21.1-.43.16-.64.12-.46.25-.93.28-1.42,0-.06,0-.12,0-.17,0-.2,0-.41-.13-.61Z" style="stroke-width: 0px;"/>
        <path d="m58.32,95.54c-.64-.2-1.39-.34-1.53-.5-.09-.1-.22-.14-.34-.09-.16.06-.27.25-.27.45,0,.28.16.52.42.63.58.25,1.11.37,1.64.37.22,0,.87.09.99-.16.15-.31-.33-.53-.91-.71Z" style="stroke-width: 0px;"/>
        <path d="m72.39,94.7s-.08,0-.12,0c-.79.02-1.56.58-2.35.28-.19-.07-.36.04-.43.19-.08.17-.04.37.11.51.23.23.52.34.87.34.16,0,.34-.02.57-.08.08-.02.15-.03.23-.05.44-.09.93-.24,1.23-.59.22-.26.22-.54-.11-.59Z" style="stroke-width: 0px;"/>
        <path d="m44.79,95.13h0s-.03-.02-.05-.03c-.21-.15-.44-.28-.65-.4-.45-.26-.88-.5-1.15-.95-.05-.08-.12-.11-.17-.13-.01,0-.02,0-.03-.01l-.07-.04-.08.03s-.02,0-.04.01c-.05.01-.11.03-.17.09-.17.16-.19.41-.05.61.49.7,1.18,1.19,2.11,1.49.06.02.11.03.17.03.08,0,.15-.02.21-.05.07-.04.15-.11.18-.26.06-.24-.13-.34-.21-.38Z" style="stroke-width: 0px;"/>
        <path d="m93.3,86c-.24-.07-.43.07-.49.24-.06.15-.12.29-.18.45-.2.48-.41.98-.5,1.56-.05.23.04.41.25.48.04.01.08.02.12.02.12,0,.23-.07.31-.18.44-.7.7-1.4.78-2.11.02-.17-.04-.39-.28-.46Z" style="stroke-width: 0px;"/>
        <path d="m87.46,93.25l-.06.02c-.62.18-1.27.37-1.86.69-.08.04-.32.17-.25.45.04.17.17.27.36.28.67-.05,1.21-.28,1.74-.51.13-.05.25-.11.38-.16.13-.05.23-.15.28-.27.04-.1.04-.21,0-.31-.09-.2-.31-.27-.58-.2Z" style="stroke-width: 0px;"/>
        <path d="m22.4,65.28c-.1,0-.25.05-.33.15-.31.38-.45,1.86-.2,2.3.25.46.7.21.74-.22.07-.64.13-1.26.13-1.89,0-.17-.12-.34-.34-.33Z" style="stroke-width: 0px;"/>
        <path d="m87.72,75.02c-.1-.12-.31-.38-.61-.2-.19.12-.23.35-.09.61.21.4.33.85.44,1.29.04.17.09.33.14.5,0,.02.01.04.02.07.02.1.05.24.18.32.05.03.11.05.17.05.04,0,.08,0,.13-.02.18-.05.29-.2.3-.43.02-.61-.33-1.79-.65-2.16l-.02-.02Z" style="stroke-width: 0px;"/>
        <path d="m22.15,55.31c0-.16-.12-.27-.19-.33-.4-.36-.61-.77-.75-1.29-.07-.27.05-.37-.25-.42-.17-.03-.35.08-.43.23-.16.3-.17.66-.03,1.04.19.5.63,1,1.03,1.15.05.02.11.03.16.03.12,0,.24-.05.33-.14.09-.08.13-.18.13-.28Z" style="stroke-width: 0px;"/>
        <path d="m52.74,66.94h-.12c-.27.02-.58.03-.82.26-.06.06-.26.24-.14.5.1.22.3.3.49.22.47-.19.84-.04,1.31.3.06.04.12.07.19.1.09.04.18.06.26.06.14,0,.26-.07.33-.19.09-.15.06-.35-.09-.51-.43-.48-.89-.72-1.4-.72Z" style="stroke-width: 0px;"/>
        <path d="m90.2,66.72c-.31-.19-.5-.08-.6.04-.17.2-.03.41.04.51.11.16.19.35.28.55.1.22.33.99.65,1,.74.01-.02-1.9-.36-2.11Z" style="stroke-width: 0px;"/>
        <path d="m25.52,10.11s.07-.05.11-.08c.24-.15.47-.32.7-.49.23-.17.46-.32.7-.47.12-.08.76-.29.68-.5-.02-.04-.06-.06-.1-.07-.63-.23-1.08.15-1.56.48,0,0-.07.05-.07.05-.27.19-.58.47-.61.82,0,.06-.02.21.02.26.05.05.09.04.14,0Z" style="stroke-width: 0px;"/>
        <path d="m25.57,15.98c.55.27,1.14.7,1.78.66.24-.02.51-.13.24-.37-.2-.18-.44-.33-.7-.46-.4-.2-.84-.35-1.24-.48-.48-.16-.42.48-.08.65Z" style="stroke-width: 0px;"/>
        <path d="m33.13,16.81c-.27.24.2.25.39.26.5.02,1.04-.06,1.5-.29.13-.07.47-.2.51-.37.06-.27-.4-.21-.61-.19-.26.03-.53.11-.73.18-.34.12-.78.16-1.06.41Z" style="stroke-width: 0px;"/>
        <path d="m32.69,8.95c.12.06.25.11.38.16.45.19.87.48,1.35.59.06.01.23.08.29.04.06-.04.03-.11-.01-.19-.04-.06-.08-.12-.11-.16-.25-.37-.64-.7-1.08-.8-.23-.05-.78-.08-.93.17-.07.12,0,.12.11.18Z" style="stroke-width: 0px;"/>
        <path d="m22.13,13.46c.09,0,.2-.12.27-.23.2-.3.22-.66.21-1.01,0-.09,0-.18,0-.27,0-.19-.09-.32-.26-.34-.16-.02-.29.09-.33.26-.09.45-.16.96-.05,1.41.03.13.09.18.15.17Z" style="stroke-width: 0px;"/>
        <path d="m38.24,13.26c.05.22.11.44.2.65.05.11.12.37.23.43.17.09.2-.49.21-.58.02-.3-.02-.6-.12-.88-.08-.21-.24-.63-.5-.68-.06-.01-.16.01-.23.06-.09.06-.15.15-.08.25.15.22.21.47.29.75Z" style="stroke-width: 0px;"/>
        <path d="m45.11,17.54c.78-.61,1.23-1.47,1.73-2.29.36-.58.7-1.16,1.05-1.75,0-.04.02-.08.02-.12.09-.76-.48-1.32-1.22-1.17-.25.05-.49.13-.7.28-.81.55-1.58,1.17-2.32,1.81-.35.31-.52.71-.57,1.17-.06.54.04,1.07.19,1.58.27.87,1.07,1.06,1.8.49Z" style="stroke-width: 0px;"/>
        <path d="m45.93,18s.02-.01.03-.02c0,0,0,0,0-.01,0,0-.01,0-.02,0,0,0,0,.01,0,.02Z" style="stroke-width: 0px;"/>
      </g>
    </g>
  </g>
</svg>