<?xml version="1.0" encoding="UTF-8"?>
<svg id="Layer_2" data-name="Layer 2" xmlns="http://www.w3.org/2000/svg" viewBox="0 0 130.68 147.11">
  <g id="Layer_1-2" data-name="Layer 1">
    <g>
      <path d="m117.84.32c-1.07-.22-2.16-.32-3.24-.32-3.18,0-6.3.93-9.26,2.77-1.49.92-2.83,2-4.03,3.22-1.01-.86-2.15-1.68-3.47-2.37-2.45-1.28-4.78-1.91-7.12-1.91-.81,0-1.62.08-2.42.23-4.6.88-8.2,3.91-10.13,8.53-1.59,3.81-1.94,7.96-1.05,12.37-5.45-2.97-11.93-4.6-18.95-4.6-5.21,0-10.49.94-15.28,2.71-10.38,3.85-18.08,10.59-21.68,18.99-3.22,7.5-4.56,17.47-4.75,24.3-.14,5.11-1.77,10.44-4.83,15.84-.94,1.65-2.22,3.76-3.82,5.38-.29.29-.58.58-.87.87-.72.72-1.47,1.47-2.22,2.25-1.3,1.37-2.93,3.28-3.97,5.92-1.07,2.71-.99,5.57.23,8.05,1.23,2.5,3.56,4.41,6.4,5.23,1.72.5,3.45.75,5.16.75.26,0,.51,0,.77-.02,1.39-.06,2.78-.23,4.16-.5,0,.46,0,.92,0,1.39.04,2.37.15,5.14.94,7.98,1.26,4.5,3.45,8.42,6.54,11.72-.69.85-1.36,1.89-1.88,3.14-1.95,4.7.09,9.75,4.75,11.76,1.22.53,2.52.79,3.86.79.16,0,.32,0,.48-.01,1.59.85,3.24,1.28,4.95,1.28.39,0,.77-.02,1.15-.07,1.12.51,2.29.85,3.51,1.01.47.06.94.09,1.4.09,4.07,0,7.59-2.33,9.17-6.08.19-.44.34-.87.47-1.3.56.05,1.11.09,1.66.13l.97.08c1.1.09,2.25.13,3.42.13.18,0,.35,0,.53,0,1.13,3.79,4.47,6.48,8.5,6.48,1.17,0,2.33-.23,3.43-.68.98.24,1.9.35,2.83.35,2.2,0,4.25-.69,5.95-1.96,4.39-.48,7.52-3.49,8.48-8.26.46-2.27-.08-4.12-.34-5.01-.2-.68-.44-1.3-.69-1.85.91-.85,1.78-1.74,2.62-2.67,2.74-3,4.71-6.47,5.88-10.33,1.14-3.75,1.5-7.45,1.67-9.91.09-1.29.14-2.57.16-3.82.28.04.57.08.85.11.85.1,1.7.15,2.5.15,1.72,0,3.39-.23,4.95-.68,3.24-.94,5.76-3.33,6.73-6.4.85-2.68.44-5.61-1.08-8.07,0-.32,0-.62,0-.91-.02-1.17-.05-2.34-.07-3.5-.04-1.73-.08-3.52-.09-5.26-.05-5.26.05-10.65.16-15.87.03-1.5.06-3,.09-4.5.06-3.15.09-6.72,0-10.44,3.97-1.82,7.51-4.57,10.55-8.17,4.29-5.09,6.85-10.34,7.81-16.05.87-5.17.27-9.92-1.78-14.12-2.21-4.52-5.9-7.41-10.67-8.37Z" style="fill: #e2d6c7; stroke-width: 0px;"/>
      <g>
        <path d="m122.15,11.81c-1.17-2.4-3-4-5.7-4.54-2.69-.54-5.14.13-7.37,1.52-3.34,2.07-5.44,5.13-6.49,8.91-.07.24-.05.52-.35.6-.25-.1-.34-.32-.46-.51-.72-1.22-1.51-2.4-2.38-3.51-1.36-1.73-2.85-3.34-4.84-4.39-1.55-.81-3.17-1.33-4.93-1-2.46.47-4,2.1-4.92,4.3-1.37,3.28-1.2,6.64-.22,9.98.89,3.04,2.39,5.76,4.37,8.23,3.72,4.65,8.32,8.05,13.95,10.02.52.18.68.4.66.95-.08,3.2-.1,6.41-.16,9.61-.06,2.94-.2,5.88-.24,8.83-.04,3.05-.03,6.1,0,9.15.06,5.25.17,10.5.22,15.75,0,.93.21,1.88-.14,2.87-1.09-.82-1.9-1.8-2.78-2.71-3.13-3.21-5.28-7.04-6.71-11.23-1.39-4.05-2.17-8.28-3-12.48-.61-3.11-1.39-6.18-2.18-9.24-.8-3.1-2.04-6.06-2.79-9.18-.19-.79-.45-1.58-.76-2.34-6.19-15.29-25.19-19.17-39.6-13.83-7.43,2.75-14.43,7.66-17.63,15.14-2.64,6.17-4,15.02-4.18,21.71-.19,6.79-2.42,13.27-5.75,19.13-1.4,2.47-2.94,4.84-4.96,6.87-1,1-2.01,1.99-2.98,3.02-1.03,1.08-1.96,2.23-2.52,3.65-.78,1.98.36,3.4,2.01,3.88,1.18.34,2.4.52,3.64.46,2.83-.13,5.51-.85,8.09-1.98,1.29-.56,2.57-1.14,3.99-1.78.11.77.08,1.4.03,2.02-.28,3.19-.6,6.37-.55,9.57.03,2.09.12,4.17.68,6.19,1.42,5.08,4.37,9.08,8.72,12.05.64.44,1.29.84,2.06,1.34-1.63,1.05-2.98,2.28-4.35,3.47-.85.74-1.61,1.55-2.05,2.62-.48,1.15-.12,2.06,1.02,2.55.61.26,1.25.26,1.87.12.85-.19,1.54-.09,2.29.47,1.23.91,2.61,1.31,4.04.33.36-.24.59-.1.88.15.86.74,1.82,1.27,2.98,1.42,1.43.18,2.59-.41,3.15-1.73.38-.9.49-1.86.53-2.84.04-1.02-.14-2-.35-2.99-.08-.39.04-.58.45-.55.15.01.3.03.44.05,3.02.48,6.06.69,9.11.93,2.91.23,5.8.07,8.69-.25,1.02-.11,2.04-.25,3.21-.39-.27.48-.47.83-.66,1.18-.63,1.19-1.21,2.4-1.2,3.8.01,1.88,1.53,2.85,3.11,1.82,1.17-.76,2.17-.98,3.34-.21.09.06.21.09.31.11,1.44.39,2.76.29,3.7-1.05.44-.62.94-.74,1.71-.68,2.12.18,2.99-.51,3.42-2.63.11-.56-.05-1.11-.21-1.65-.3-1.01-.85-1.9-1.35-2.81-.55-.99-1.25-1.74-2.59-1.87.36-.3.6-.52.86-.71,2.41-1.72,4.6-3.68,6.59-5.86,2.02-2.21,3.47-4.76,4.33-7.61.82-2.72,1.19-5.53,1.39-8.36.23-3.24.17-6.47.07-9.71-.03-.83-.14-1.68.05-2.57.65.18,1.23.34,1.8.49,2.31.6,4.6,1.27,6.98,1.55,1.57.18,3.13.14,4.66-.3,2.07-.6,2.69-2.63,1.35-4.31-.09-.12-.19-.24-.31-.33-.45-.36-.57-.82-.54-1.38.05-.81.04-1.63.03-2.45-.05-2.94-.14-5.87-.17-8.81-.07-6.86.13-13.71.25-20.57.09-4.81.1-9.62-.15-14.42-.03-.48.07-.67.51-.8.97-.29,1.87-.74,2.8-1.11,3.62-1.45,6.57-3.77,9.06-6.72,3.12-3.7,5.43-7.83,6.24-12.66.57-3.38.37-6.7-1.16-9.83Zm-77.5,125.43c-.32,1.21-.95,1.56-2.15,1.25-.74-.19-1.36-.54-1.91-1.08-1.05-1.03-1.2-1.06-2.37-.26-.8.55-1.61.52-2.27-.04-1.14-.96-2.34-1.15-3.73-.76-.46.13-1.1.29-1.44-.26-.32-.54.12-.98.38-1.42.17-.28.35-.58.59-.81,1.53-1.47,3.1-2.9,4.75-4.24.34-.28.63-.34,1-.16,1.97.92,4.07,1.42,6.16,1.93.52.13.73.34.82.86.16.92.35,1.83.35,2.7.05.81,0,1.56-.19,2.28Zm33.52-7.21c.94,1.02,1.54,2.27,1.97,3.59.08.24.1.52.09.77-.04.97-.59,1.5-1.56,1.51-.22,0-.45-.03-.66-.09-.98-.26-1.66,0-2.26.89-.79,1.16-1.46,1.28-2.8.79-.35-.13-.7-.26-1.03-.43-.94-.5-1.78-.41-2.55.33-.3.28-.62.54-1.02.66-.58.18-.94-.04-1.01-.65-.1-.87.11-1.7.46-2.49.38-.85.81-1.67,1.2-2.52.15-.32.35-.56.69-.67,1.27-.43,2.56-.78,3.76-1.38,1.19-.59,2.38-1.19,3.69-1.84.23.66.62,1.08,1.03,1.53Zm11.15-26.59c-.17,3.58-.43,7.14-1.56,10.58-.89,2.7-2.31,5.07-4.27,7.14-1.93,2.04-3.99,3.93-6.33,5.47-3.56,2.34-7.43,3.91-11.7,4.43-3.98.49-7.95.49-11.94.16-3.05-.25-6.08-.64-9.08-1.2-3.16-.59-6.25-1.5-9.01-3.22-2.56-1.6-4.65-3.7-6.32-6.22-1.93-2.9-2.95-6.08-3.13-9.54-.18-3.5.07-7,.08-10.49,0-3.53.86-6.93,1.09-10.41.14-2.19.3-4.39.42-6.58.23-4.13.22-8.27.64-12.39.41-4.02,1.12-7.99,2.7-11.73,1.86-4.39,4.81-7.81,9.34-9.59,3.15-1.24,6.27-1.05,9.26.68,1.43.83,2.68,1.88,4,2.85,1.04.77,1.25.76,2.2-.08,1.23-1.09,2.29-2.35,3.56-3.39,3.2-2.62,6.8-4.32,10.97-4.5,4.19-.18,7.59,1.46,10.19,4.77,1.99,2.53,3.04,5.41,3.59,8.55.49,2.78.38,5.57.43,8.36.19,5.58.6,11.15,1.52,16.66.42,2.5.85,5,1.8,7.36.33.83.59,1.7,1.25,2.35.24.24.27.48.27.8-.04,3.05.17,6.11.02,9.16Zm30.3-75.93c-1.53,2.97-3.48,5.63-5.89,7.95-1.03.99-2.16,1.88-3.38,2.64-1.25.78-2.63,1.36-3.93,2.05-1.46.78-2.88.48-4.29-.28-2.46-1.32-4.86-2.72-7.05-4.49-2.55-2.06-4.72-4.46-6.42-7.22-2.36-3.82-3.81-7.92-2.89-12.53.16-.81.4-1.61.8-2.31,1.54-2.63,3.58-3.38,6.41-2.17,2.35,1,4.01,2.79,5.48,4.79,1.1,1.5,2.15,3.04,3.2,4.57.3.43.65.79,1.17.72.59-.08.82-.58.89-1.14.29-2.14,1.08-4.1,2.27-5.88,1.93-2.9,4.59-4.73,8.09-5.21,2.22-.3,5.01,1.15,6.15,3.11,1.22,2.09,1.65,4.37,1.69,6.26-.02,3.57-.91,6.42-2.31,9.14Z" style="stroke-width: 0px;"/>
        <path d="m58.93,60.46c-.15,0-.3,0-.45,0-2.01-.1-4.02.11-6.03-.16-.94-.12-1.4.4-1.38,1.53.02.12.03.35.1.56.52,1.77,1.32,3.41,2.32,4.94.66,1.01,1.63,1.11,2.59.33.7-.57,1.22-1.31,1.67-2.08.74-1.25,1.34-2.57,1.94-3.89.53-1.17.55-1.19-.76-1.22Z" style="stroke-width: 0px;"/>
        <path d="m42.92,53.97c-1.39,0-2.53.72-2.89,1.85-.29.9.21,2.09,1.14,2.83,1.25.99,4,.56,4.19-1.5.05-.55-.1-1.04-.22-1.53-.28-1.09-1.09-1.65-2.22-1.66Z" style="stroke-width: 0px;"/>
        <path d="m69.03,54.1c-1.41-.03-2.64,1.2-2.71,2.7-.05,1.25,1.14,2.32,2.6,2.35,1.4.03,2.59-1.07,2.68-2.46.08-1.24-1.23-2.56-2.57-2.59Z" style="stroke-width: 0px;"/>
      </g>
    </g>
  </g>
</svg>