<?xml version="1.0" encoding="UTF-8"?>
<svg id="Layer_2" data-name="Layer 2" xmlns="http://www.w3.org/2000/svg" viewBox="0 0 141.63 135.2">
  <g id="Layer_1-2" data-name="Layer 1">
    <g>
      <path d="m52.69,81.13c-.58,2.43-1.11,5.23-1.46,8.27-1.15,9.96.2,19.07,3.91,26.58-1.22,2.74-1.94,6.83.37,12.01,1.83,4.11,5.53,6.71,10.14,7.14.45.04.91.06,1.37.06,3.01,0,6.41-.93,9.49-2.55,2.19.4,4.5.6,6.9.6,2,0,4.09-.14,6.22-.41,5.31-.68,10.99-2.22,16.69-4.51.63.91,1.52,1.64,2.56,2.07.73.31,1.51.46,2.28.46s1.59-.16,2.33-.48l.88-.38c10.01-4.3,19.22-8.18,21.72-9.14,1.52-.22,2.91-1.02,3.85-2.26l.28-.36c1.93-2.52,1.43-5.21,1.1-6.98-.41-2.18-1.33-6.02-3.1-12.83l-.15-.56c-.05-1.68-.47-3.27-1.23-4.7-.66-2.51-1.26-4.73-1.67-6.24l4.82-14.03c.81-2.36.05-4.97-1.89-6.53l-4.95-3.96c-1.05-.84-2.36-1.29-3.69-1.29-.36,0-.72.03-1.08.1-.57.11-1.12.3-1.63.56l-2.32-9.92c.9-1.05,1.7-2.15,2.42-3.31,3.1-5.02,4.03-10.19,4.14-14.29.45-.27.89-.58,1.32-.92,2.02-1.63,4.64-5.16,2.43-11.72.38-.56.74-1.2,1.07-1.91.76-1.65,2.04-6.04-2.58-11.21C129.74,4.56,122.31,0,112.84,0h0c-3.19,0-6.37.52-9.47,1.55-5.8,1.93-10.83,5.32-14.77,9.93-4.17-1.28-8.59-1.95-13.03-1.95-3.8,0-7.63.48-11.37,1.42-8.62,2.18-16.29,6.7-22.05,12.92-4.12-1.76-8.43-2.64-12.88-2.64-1.93,0-3.9.17-5.85.52C10.41,24.04,2.38,33.86.44,42.02c-1.61,6.74,1.6,10,3.06,11.09.63.47,1.25.86,1.85,1.17,1.17,6.83,5.15,8.69,7.71,9.17.53.1,1.07.16,1.6.19,2.04,3.55,5.32,7.66,10.43,10.61,4.24,2.45,9.08,3.69,14.38,3.69,2.16,0,4.43-.21,6.77-.63,2.01,1.47,4.17,2.76,6.46,3.84Z" style="fill: #e2d6c7; stroke-width: 0px;"/>
      <path d="m134.4,113.27c.14-.04.22-.06.27-.07-.1.01-.19.03-.27.07Z" style="stroke-width: 0px;"/>
      <path d="m92.97,42.1c4.3-1.86,4.42-6.92,2.54-10.54-.53-1.01-2.28-.31-1.87.79.84,2.26.99,5.27-1.21,6.83-2.19,1.56-5.84.43-7.06-1.86-.33-.62-1.4-.35-1.35.37.27,4.08,5.49,5.92,8.95,4.42Z" style="stroke-width: 0px;"/>
      <path d="m63.47,81.46c.12-.47.22-.94.33-1.42.18-.76-.96-1.08-1.17-.32-.13.47-.27.93-.4,1.4-.12.44-.22.85.01,1.27.11.2.4.28.6.16.4-.25.51-.65.63-1.09Z" style="stroke-width: 0px;"/>
      <path d="m61.85,89.98c.35-.35.36-.83.42-1.3.07-.57.14-1.14.21-1.7.07-.56-.91-.69-.99-.13-.08.57-.15,1.13-.23,1.7-.06.47-.17.94.07,1.37.11.18.37.22.52.07Z" style="stroke-width: 0px;"/>
      <path d="m61.71,97.87c.37-.85.16-2.05.16-2.96,0-.62-.96-.62-.96,0,0,.91-.21,2.11.16,2.96.11.25.54.25.65,0Z" style="stroke-width: 0px;"/>
      <path d="m62.43,102.62c0-.73-1.11-.72-1.13,0-.02.86-.08,2.31.8,2.76.12.06.3.04.37-.1.22-.42.17-.72.09-1.17-.09-.5-.14-.98-.13-1.49Z" style="stroke-width: 0px;"/>
      <path d="m64.97,112.71c.57-.35.09-1.08-.15-1.47-.36-.59-.68-1.2-.97-1.83-.34-.72-1.38-.09-1.06.62.28.63.59,1.25.93,1.85.22.39.69,1.18,1.25.83Z" style="stroke-width: 0px;"/>
      <path d="m69.27,117.18c-.43-.51-.96-.93-1.46-1.37-.56-.5-1.38.32-.83.83.53.48,1.03,1,1.62,1.41.22.15.56.06.71-.14.17-.23.14-.51-.04-.72Z" style="stroke-width: 0px;"/>
      <path d="m72.92,120.74c-.26-.24-.53-.48-.79-.72-.53-.48-1.31.29-.79.79.27.26.54.51.82.77.28.27.55.52.93.66.43.15.68-.36.53-.69-.15-.33-.44-.57-.7-.8Z" style="stroke-width: 0px;"/>
      <path d="m77.88,123.23c-.35-.15-.72-.26-1.08-.38-.6-.21-.87.75-.26.96.39.13,1.61.75,1.82.09.09-.29-.24-.56-.47-.66Z" style="stroke-width: 0px;"/>
      <path d="m84.03,123.49c-.37-.1-.73-.17-1.11-.22-.34-.04-.64.32-.64.64,0,.38.29.59.64.64.32.04.64.05.96.05.63,0,.77-.94.15-1.11Z" style="stroke-width: 0px;"/>
      <path d="m66.28,86.35c.24-.26.29-.56.36-.9.07-.32.14-.65.21-.97.15-.72-.95-1.02-1.1-.3-.07.32-.13.65-.2.97-.07.33-.18.66-.06.99.11.32.53.49.79.21Z" style="stroke-width: 0px;"/>
      <path d="m65.14,95.53c.26-.32.28-.68.29-1.08.02-.45.1-.88.22-1.31.21-.7-.87-.99-1.09-.3-.22.71-.63,2.13.07,2.69.14.11.37.16.5,0Z" style="stroke-width: 0px;"/>
      <path d="m65.95,102.33c.39-.76.07-1.71-.05-2.51-.1-.65-1.24-.51-1.16.16.1.8.03,1.8.6,2.44.16.18.5.14.61-.08Z" style="stroke-width: 0px;"/>
      <path d="m66.15,107.74c.19.36.37.73.56,1.09.17.33.43.66.81.75.13.03.32-.02.38-.16.32-.76-.36-1.64-.7-2.3-.36-.7-1.41-.08-1.05.61Z" style="stroke-width: 0px;"/>
      <path d="m72.1,115.67c.17.01.37-.14.41-.31.14-.76-.6-1.46-1.02-2.02-.24-.32-.64-.46-.99-.19-.35.27-.32.69-.07,1.01.43.55.91,1.45,1.68,1.51Z" style="stroke-width: 0px;"/>
      <path d="m74.86,118.5c.66.61,2.22,1.82,3.14,1.11.2-.16.32-.41.17-.66-.25-.42-.71-.55-1.14-.72-.43-.17-.83-.42-1.17-.73-.68-.6-1.67.37-1,1Z" style="stroke-width: 0px;"/>
      <path d="m82.65,120.98c.89.41,2.58,1.07,3.27,0,.16-.25.07-.54-.1-.74-.3-.37-.79-.4-1.24-.44-.46-.05-.89-.12-1.33-.26-.84-.27-1.43,1.06-.61,1.44Z" style="stroke-width: 0px;"/>
      <path d="m90.11,120.9c.02.4.33.77.76.76.57-.01,1.71.09,1.71-.76s-1.13-.74-1.71-.76c-.4,0-.78.36-.76.76Z" style="stroke-width: 0px;"/>
      <path d="m99.35,118.92c-.63-.16-1.23.1-1.83.29-.41.13-.68.56-.56.99.11.41.57.69.99.56.58-.18,1.27-.31,1.68-.78.3-.34.21-.94-.28-1.06Z" style="stroke-width: 0px;"/>
      <path d="m69.2,97.86c.27.18.61-.01.71-.29.12-.37-.06-.7-.12-1.07-.06-.37-.05-.74-.01-1.11.07-.72-1.05-.71-1.13,0-.08.73-.12,2.01.55,2.46Z" style="stroke-width: 0px;"/>
      <path d="m72.07,106.18c.13,0,.26-.09.29-.22.09-.34-.09-.66-.24-.95-.17-.31-.27-.63-.35-.97-.15-.66-1.17-.38-1.01.28.15.62.51,1.86,1.32,1.86Z" style="stroke-width: 0px;"/>
      <path d="m74.89,111.76c.44.49.93,1.1,1.65,1.05.17-.01.34-.14.33-.33-.05-.66-.52-1.02-.96-1.47-.5-.5-.96-1.03-1.39-1.6-.44-.59-1.45-.04-1.01.59.42.61.88,1.2,1.37,1.75Z" style="stroke-width: 0px;"/>
      <path d="m79.89,115.51c.45.36.91.69,1.43.94.26.12.54.25.83.24.17,0,.27-.09.4-.16.01,0,.13-.04.18-.07.11-.07.2-.23.15-.36-.01-.03-.07-.15-.09-.17-.01-.08-.02-.15-.06-.23-.14-.24-.43-.38-.67-.5-.46-.23-.89-.49-1.3-.81-.63-.48-1.48.61-.85,1.11Z" style="stroke-width: 0px;"/>
      <path d="m87.73,117.62c.64.06,1.28.13,1.92.19.6.06.99.03,1.44-.39.14-.13.11-.33,0-.47-.39-.5-.82-.54-1.44-.58-.64-.04-1.28-.08-1.92-.12-.89-.05-.86,1.28,0,1.37Z" style="stroke-width: 0px;"/>
      <path d="m97.91,115.42c-.56.12-1.05.27-1.64.22-.38-.03-.7.35-.7.7,0,.41.32.66.7.7.71.08,1.54,0,2.13-.45.56-.43.25-1.32-.49-1.17Z" style="stroke-width: 0px;"/>
      <path d="m102.99,115.23c.48.11,1.02-.08,1.44-.32.42-.24.7-.66.76-1.13.03-.21-.2-.39-.39-.39-.37,0-.75.13-1.08.31-.32.17-.71.32-.98.58-.3.29-.17.85.25.95Z" style="stroke-width: 0px;"/>
      <path d="m110.03,112.53c.21-.18.42-.35.63-.53.09-.08.19-.15.28-.24.16-.17.21-.38.23-.6.02-.23-.19-.51-.42-.55-.39-.07-.63.06-.94.28-.22.16-.44.32-.67.48-.36.25-.49.71-.21,1.08.28.37.76.36,1.1.07Z" style="stroke-width: 0px;"/>
      <path d="m115.16,109.11c.31-.24.63-.47.9-.77.14-.15.23-.39.15-.58-.07-.17-.14-.25-.28-.36-.17-.13-.43-.09-.61,0-.35.19-.66.43-.97.67-.31.24-.45.63-.19.97.26.34.67.31.99.07Z" style="stroke-width: 0px;"/>
      <path d="m104.59,117.62c-.68-.09-1.33.36-1.93.64-.72.34-.21,1.58.55,1.3.33-.12.65-.23.98-.36.41-.16.65-.34.92-.69.31-.41-.13-.85-.51-.9Z" style="stroke-width: 0px;"/>
      <path d="m110.93,114.97c-.27-.04-.46-.02-.71.07-.25.09-.48.2-.71.31-.38.19-.44.73-.2,1.04.28.36.72.34,1.05.07.35-.28.71-.56.83-1.01.05-.18-.06-.45-.27-.48Z" style="stroke-width: 0px;"/>
      <path d="m116.03,112.34c.35.2.92.03.99-.4.04-.22.08-.44.07-.66-.02-.34-.4-.63-.72-.41-.18.12-.33.26-.48.42-.3.32-.25.84.14,1.06Z" style="stroke-width: 0px;"/>
      <path d="m107.04,65.61c.54-.19,1.76-.42,1.54-1.23-.23-.85-1.39-.27-1.9-.08-.35.13-.58.46-.48.84.09.34.49.6.84.48Z" style="stroke-width: 0px;"/>
      <path d="m112.64,64.9c.34.03.93.1,1-.37.07-.47-.53-.6-.86-.68-.31-.08-.62.12-.66.44-.05.34.2.57.52.6Z" style="stroke-width: 0px;"/>
      <path d="m115.82,67.63c.36.18.78-.04.79-.46,0-.34-.13-.57-.31-.84-.19-.27-.54-.4-.84-.22-.3.17-.38.55-.22.84.15.29.28.52.58.67Z" style="stroke-width: 0px;"/>
      <path d="m49.78,68.06c-.29-.32-.61-.62-.94-.9-.26-.22-.64-.25-.89,0-.23.23-.26.67,0,.89.31.27.62.55.9.85.28.3.53.65.91.83.4.19.78-.12.71-.55-.07-.45-.39-.81-.69-1.13Z" style="stroke-width: 0px;"/>
      <path d="m54.53,70.74c-.67-.56-1.64.39-.97.97.71.61,1.65,1.36,2.64,1.14.38-.08.43-.55.21-.81-.48-.58-1.3-.81-1.89-1.3Z" style="stroke-width: 0px;"/>
      <path d="m62.52,73.93c-.1-.27-.27-.47-.54-.6-.21-.09-.41-.19-.62-.28-.32-.15-.71-.09-.9.24-.16.28-.09.76.24.9.44.19.99.55,1.47.37.24-.09.46-.35.36-.63Z" style="stroke-width: 0px;"/>
      <path d="m85.49,22.35c.25-.04.43-.1.64-.24.25-.17.25-.5,0-.67-.21-.14-.39-.21-.64-.24-.38-.06-.76.16-.76.58s.38.63.76.58Z" style="stroke-width: 0px;"/>
      <path d="m95.69,47.32c-.79.43-1.45,1-1.88,1.63-1.08.83-1.55,1.9-1.29,2.95.27,1.1,1.31,1.99,2.6,2.22.47.17.99.25,1.53.25,1.04,0,2.18-.3,3.31-.87,1.66-.85,2.9-2.15,3.25-3.4.3-1.09-.04-2.13-.96-2.86-1.3-1.03-3.83-1.41-6.56.07Zm6.63,2.54c-.27.99-1.37,2.09-2.78,2.82-1.48.76-3.03.97-4.14.57l-.08-.02c-.95-.16-1.71-.78-1.9-1.54-.17-.71.19-1.43,1.01-2.05l.06-.05.04-.07c.36-.54.91-1.02,1.6-1.4,2.34-1.28,4.51-.98,5.54-.16.62.49.84,1.16.64,1.89Z" style="stroke-width: 0px;"/>
      <path d="m59.79,77.58c-.95,2.97-2.11,7.38-2.7,12.49-1.18,10.25.52,19.17,4.92,26.12-.25.26-.49.54-.72.86-1.18,1.64-2.21,4.44-.39,8.53.97,2.17,2.8,3.43,5.29,3.67.27.02.54.04.82.04,2.84,0,6.07-1.26,8.48-2.91,2.42.63,5.06.96,7.91.96,1.75,0,3.58-.12,5.48-.36,6.68-.85,13.92-3.25,20.55-6.5l1.74,4.48.88-.38c8.51-3.66,21.5-9.18,22.84-9.55h.38s.28-.37.28-.37c.37-.48.59-.78-3.03-14.75-.11-.44-.23-.88-.34-1.32.08-1.2-.2-2.23-.81-3.1-1.11-4.21-2.08-7.78-2.34-8.77l5.41-15.75-4.95-3.96-5.39,9.26-6.13-26.22c1.52-1.37,2.82-2.91,3.88-4.62,3.75-6.09,3.45-12.59,3.02-15.61,1.06.18,2.4,0,3.75-1.1,2.3-1.85.33-6.23-.98-8.58.95-.33,2.01-1.16,2.83-2.94.59-1.27.01-2.97-1.62-4.8-3.62-4.06-12.9-8.8-23.59-5.25-7.32,2.43-11.82,7.15-14.53,11.39-7.37-3.23-16.2-4.1-25.05-1.87-9.35,2.36-17.02,7.76-21.96,14.62-4.43-2.7-11.02-5.18-19.25-3.73-11.1,1.95-17.01,10.53-18.27,15.83-.57,2.39-.27,4.16.85,5,1.57,1.17,2.9,1.41,3.89,1.24-.04,2.69.31,7.48,3.21,8.02,1.71.32,2.97-.16,3.82-.82,1.06,2.86,3.88,8.73,10.08,12.3,3.35,1.93,7.17,2.9,11.43,2.9,2.59,0,5.35-.36,8.26-1.08,3.42,2.95,7.54,5.21,12.07,6.64Zm-30.82-10.04c-7.56-4.35-9.74-12.73-9.76-12.81l-.64-2.57-1.1,2.42c-.08.17-.81,1.65-3,1.25-1.5-.28-1.87-4.71-1.64-7.61l.22-2.82-1.84,2.15s-.92.96-3.07-.64c-.37-.27-.58-1.36-.16-3.09,1.15-4.82,6.57-12.64,16.79-14.44,7.64-1.34,13.76.93,17.89,3.43-1.88,2.93-3.28,6.09-4.12,9.37-3.94-3.24-9.34-6.45-13.86-5.65-1.92.34-4.51,1.01-4.83,2.82-.21,1.21.74,2.23,1.49,2.82-.41.81-.83,2.1-.35,3.44.54,1.52,2.04,2.63,4.48,3.3-.1,2.04.07,7.38,4.03,11.22,2.8,2.72,6.88,4.08,12.15,4.08.09,0,.18,0,.27,0,1.18,1.89,2.58,3.63,4.16,5.21-6.69,1.43-12.44.8-17.12-1.89Zm46.63-50.27c14.69,0,27.62,8.57,30.95,21.73,4.03,15.94-7.56,32.66-25.83,37.28-18.27,4.61-36.41-4.6-40.44-20.54-4.03-15.94,7.56-32.66,25.83-37.28,3.19-.81,6.38-1.19,9.49-1.19Zm51.85-3.64c1.19,1.33,1.52,2.38,1.32,2.8-1.09,2.36-2.29,2.06-2.4,2.02l-2.65-1.02,1.54,2.38c1.64,2.54,3.31,6.56,2.17,7.48-1.73,1.4-3.09.44-3.23.34l-2.16-1.73.69,2.68c.02.08,2.1,8.45-2.49,15.89-2.56,4.14-6.68,7.23-12.28,9.21.68-2.3,1.09-4.66,1.19-7.05,3.69-2.33,6.07-5.14,7.1-8.39,1.66-5.27-.72-10.04-1.78-11.79,1.82-1.75,2.62-3.44,2.37-5.03-.22-1.41-1.2-2.34-1.94-2.86.38-.88.74-2.22-.03-3.19-1.14-1.44-3.73-.8-5.59-.18-3.86,1.27-6.83,5.64-8.8,9.9-2.35-2.29-5.09-4.22-8.11-5.74,2.54-3.9,6.71-8.19,13.44-10.43,9.85-3.27,18.34,1.03,21.64,4.73Zm4.8,57.96l-5.17,15.05.07.27c.55,2.04,1.18,4.36,1.81,6.75-5.9-2.53-18.25.4-22.03,1.4l-3.07-13.16c3.24-.91,14.11-4.5,15.79-12.18.74-3.38-.5-5.32-1.67-6.35-2.49-2.2-7.31-2.7-13.77-1.54,1.22-1.91,2.24-3.92,3.02-6,3.55-1.1,6.59-2.61,9.11-4.49l6.98,29.86,6.64-11.43,2.27,1.81Zm2.42,41.6c-.06.01-.14.03-.27.07.08-.04.17-.06.27-.07Zm-22.48,9.31l-1.11-2.86c9.05-4.71,16.71-10.97,19.78-16.91.11-.21.21-.42.31-.63,1.35,5.25,2.45,9.78,2.69,11.35-1.68.61-6.61,2.59-21.66,9.05Zm-45.83,4.91c-1.82-.17-3.09-1.04-3.78-2.58-1.54-3.46-.64-5.73.5-7.07.6.83,1.24,1.64,1.92,2.41,2.2,2.46,4.95,4.29,8.19,5.49-2.12,1.17-4.69,1.96-6.83,1.76Zm.01-8.48c-11.75-13.12-7.36-32.68-4.79-40.85,3.08.8,6.32,1.22,9.65,1.22,3.26,0,6.59-.4,9.93-1.25,7.82-1.98,14.48-6.08,19.34-11.38.02.04.04.07.07.11.25.33.67.32.97.07.08-.06.27-.18.36-.22.25-.12.46-.21.63-.45.16-.23.03-.54-.18-.68-.22-.15-.48-.15-.74-.09.38-.45.74-.92,1.1-1.39,6.72-1.45,11.83-1.24,14.06.73,1.18,1.04,1.53,2.54,1.09,4.58-1.68,7.72-15.16,10.98-15.3,11.01l-.9.21,3.91,16.8.93-.26c5.38-1.52,20.05-4.6,23.24-.69.94,1.15.76,2.99-.52,5.48-4.71,9.14-23.06,21.03-40.57,23.27-6.84.87-16.26.51-22.27-6.21Zm41.96-80.39c-1.16-4.58-3.41-8.63-6.45-12.02,1.75-4.06,4.45-8.45,7.98-9.61,3.06-1.01,3.56-.43,3.56-.43.18.23-.09,1.19-.53,1.92l-.55.9.96.43s1.52.69,1.71,1.95c.16,1.07-.65,2.42-2.35,3.89l-.64.55.49.68c.04.05,3.74,5.27,1.96,10.86-.81,2.54-2.59,4.78-5.33,6.72-.07-1.95-.33-3.91-.83-5.86Zm-81.68,8.76c-2.2-.49-3.55-1.29-3.92-2.31-.43-1.2.57-2.52.58-2.53l.65-.83-.92-.53c-.73-.43-1.43-1.15-1.38-1.44,0,0,.17-.75,3.34-1.32.39-.07.79-.1,1.19-.1,3.98,0,8.63,3.18,11.9,6.01-.7,3.9-.62,7.94.39,11.93.55,2.18,1.35,4.24,2.36,6.17-4.37-.13-7.74-1.31-10.05-3.54-4.22-4.08-3.44-10.43-3.43-10.49l.11-.84-.83-.19Z" style="stroke-width: 0px;"/>
      <path d="m72.34,55.46c.81,4.15,10.02,3.97,12.18-.18,2.17-4.15-5.14-13.71-9.56-9.84,0,0-3.43,5.86-2.62,10.02Z" style="stroke-width: 0px;"/>
      <path d="m81.17,65.54c3.5-.73,5.39-3.54,5.15-7.02-.03-.37-.57-.6-.76-.21-1.01,2.09-1.79,4.35-4.22,5.18-2.57.87-5.16-.04-7.18-1.62-.45-.35-1.25-.05-1.04.61.93,2.95,5.43,3.62,8.05,3.07Z" style="stroke-width: 0px;"/>
      <path d="m41.01,43c.37.1.71-.12.83-.47.17-.5.38-1.1.1-1.6-.12-.22-.39-.26-.6-.16-.21.1-.43.39-.54.59-.13.24-.19.54-.26.81-.1.35.12.73.47.83Z" style="stroke-width: 0px;"/>
      <path d="m44.44,36.39c.28.17.73.08.88-.23.23-.47.65-1.09.33-1.6-.06-.1-.18-.18-.3-.17-.6.02-.88.67-1.14,1.12-.18.3-.07.71.23.88Z" style="stroke-width: 0px;"/>
      <path d="m47.82,30.94c-.44.74.68,1.38,1.14.67.23-.35.52-.64.76-.98.18-.26.41-.85.05-1.08-.37-.23-.88.04-1.15.3-.32.31-.57.72-.8,1.1Z" style="stroke-width: 0px;"/>
      <path d="m53.76,26.66c.38-.32,1.55-1.12.97-1.7-.31-.31-.8-.05-1.09.18-.26.21-.49.45-.73.67-.24.22-.22.63,0,.85.24.24.6.21.85,0Z" style="stroke-width: 0px;"/>
      <path d="m59.96,23.05c.35-.23,1.36-.71,1.03-1.27-.34-.58-1.21.14-1.56.37-.57.37-.04,1.28.53.91Z" style="stroke-width: 0px;"/>
      <path d="m66.12,20.66c.35-.05.87-.11,1.1-.4.18-.23.14-.47-.08-.65-.3-.23-.82-.15-1.17-.12-.35.04-.63.29-.58.67.05.38.39.54.74.49Z" style="stroke-width: 0px;"/>
      <path d="m41.09,50.97c-.1-.51-.2-1.02-.31-1.53-.11-.54-1.04-.43-.97.13.07.55.14,1.1.21,1.65.06.47.09.92.51,1.2.18.12.4.02.51-.13.29-.37.13-.88.05-1.3Z" style="stroke-width: 0px;"/>
      <path d="m42.15,56.13c-.26-.78-1.49-.46-1.24.34.18.57.34,1.15.53,1.71.13.4.42.94.94.8.45-.12.47-.7.37-1.06-.16-.6-.4-1.2-.6-1.79Z" style="stroke-width: 0px;"/>
      <path d="m45.6,63.93c-.08-.31-.26-.54-.42-.81-.15-.26-.27-.53-.36-.82-.21-.65-1.25-.37-1.03.28.22.64.54,1.51,1.17,1.84.33.17.74-.11.64-.49Z" style="stroke-width: 0px;"/>
      <path d="m49.52,35.33c.22.22.67.26.88,0,.21-.27.43-.53.64-.8.2-.26.27-.61.19-.93-.04-.14-.17-.23-.31-.24-.31,0-.64.13-.83.37-.19.24-.38.48-.56.72-.21.26-.26.62,0,.88Z" style="stroke-width: 0px;"/>
      <path d="m54.9,30.56c.22.28.64.32.9.06.14-.14.28-.28.41-.43.14-.17.23-.33.32-.53.12-.27-.08-.6-.4-.52-.41.11-.71.29-1.05.54-.29.21-.41.57-.17.88Z" style="stroke-width: 0px;"/>
      <path d="m60.08,26.6c.13.23.5.36.73.19.39-.29,1.03-.61,1.15-1.12.03-.12-.04-.25-.16-.28-.51-.13-1.09.27-1.53.48-.26.12-.33.5-.19.73Z" style="stroke-width: 0px;"/>
      <path d="m66.4,23.63c.09.32.48.59.82.47.35-.13.67-.29,1-.46.61-.33.18-1.23-.46-1.08-.31.07-.6.15-.9.26-.34.13-.57.45-.47.82Z" style="stroke-width: 0px;"/>
      <path d="m73.54,21.53c-.46,0-.46.72,0,.72s.46-.72,0-.72Z" style="stroke-width: 0px;"/>
      <path d="m78.35,22.02c.44.01.85.04,1.26-.16.34-.17.34-.73,0-.9-.4-.2-.82-.17-1.26-.16-.33,0-.61.27-.61.61s.28.6.61.61Z" style="stroke-width: 0px;"/>
      <path d="m71.61,19.96c.49.05.99.1,1.48.14.5.04.96.06,1.34-.31.23-.22.23-.62,0-.84-.38-.37-.84-.36-1.34-.31-.49.04-.99.09-1.48.14-.76.07-.76,1.11,0,1.19Z" style="stroke-width: 0px;"/>
      <path d="m48.08,37.94c-.27-.16-.71-.08-.85.22-.29.61-.88,1.42-.61,2.12.07.18.25.33.45.26.72-.24.95-1.12,1.24-1.75.14-.31.09-.67-.22-.85Z" style="stroke-width: 0px;"/>
      <path d="m48.65,46.99c-.51-1-1.8-.39-1.91.52-.51,4.38,4.74,7.61,8.62,6.75,4.05-.89,7.35-6.06,5.14-10.01-.32-.57-1.35-.67-1.64,0-1.18,2.7.12,5.92-3.49,7.22-3.61,1.3-5.35-1.79-6.72-4.47Z" style="stroke-width: 0px;"/>
      <path d="m60.76,59.79c-.76-.13-1.62-.06-2.48.21-2.97.91-4.47,2.99-4.64,4.64-.12,1.16.38,2.13,1.38,2.68.58.32,1.34.48,2.18.48.79,0,1.66-.14,2.52-.43,1.83-.61,3.22-1.71,3.83-3.02.74-1.09.83-2.45.23-3.41-.58-.92-1.67-1.33-3.02-1.14Zm2.23,1.63c.42.66.32,1.64-.23,2.43l-.04.07c-.49,1.08-1.72,2.04-3.3,2.57-1.51.5-3.07.51-3.96.02-.66-.36-.98-1-.9-1.78.13-1.31,1.44-3.07,3.99-3.85.75-.23,1.49-.29,2.12-.17h.08s.08,0,.08,0c1.01-.16,1.78.09,2.17.71Z" style="stroke-width: 0px;"/>
    </g>
  </g>
</svg>