<?xml version="1.0" encoding="UTF-8"?>
<svg id="Layer_2" data-name="Layer 2" xmlns="http://www.w3.org/2000/svg" viewBox="0 0 132.36 155.82">
  <g id="Layer_1-2" data-name="Layer 1">
    <g>
      <path d="m130.09,62.39c1.46-1.23,2.35-3.1,2.25-5.15-.11-2.08-1.21-3.89-2.83-4.95,0-.06-.01-.12-.02-.19,1.95-1.55,2.88-4.18,2.13-6.71-.42-1.44-1.34-2.64-2.52-3.44.43-1.51.28-3.11-.42-4.52-1.08-2.16-3.24-3.5-5.65-3.5-.25,0-.49.01-.74.04-2.63-2.38-5.95-3.72-9.31-3.72-1.1,0-2.19.15-3.24.44-3.18.88-5.46,2.9-7.08,4.97-.06,0-.12,0-.18,0-1.32,0-2.58.4-3.66,1.17-.22.15-.42.32-.61.49-.5-.79-1.16-1.44-1.92-1.93.61-1.74.45-3.73-.6-5.41-.74-1.19-1.83-2.07-3.09-2.56,0-.95-.21-1.92-.67-2.83-.89-1.76-2.49-2.97-4.36-3.35-.26-1.85-1.33-3.57-3.06-4.58-.97-.56-2.07-.86-3.18-.86-.78,0-1.54.15-2.25.42.7-1.69,1.52-4.25.67-7.12-.57-1.96-1.86-3.54-3.54-4.42-.72-1.15-1.61-1.87-2.28-2.29-1.12-.69-2.39-1.06-3.68-1.06-.05,0-.11,0-.16,0-1.35-.91-2.7-1.13-3.32-1.18-.21-.02-.39-.02-.58-.02-.62,0-1.23.08-1.82.24-.74-.25-1.48-.36-2.16-.36s-1.35.1-2,.31c-.25.08-.52.18-.8.31-.73-.21-1.4-.27-1.91-.27-.02,0-.05,0-.06,0-3.46.03-6.21,2.48-7.04,6.25-.94.62-1.72,1.48-2.26,2.51-.91,1.75-.82,3.38-.75,4.06-1.72,1.08-2.74,2.85-2.93,4.72-.41-.08-.82-.12-1.24-.12-1.71,0-3.37.71-4.56,1.95-.87.91-1.44,2.04-1.65,3.26-1.76.61-3.2,1.98-3.87,3.78-.14.38-.25.78-.31,1.17-1.55.64-2.8,1.88-3.44,3.52-.28.72-.42,1.46-.44,2.19-.29-.04-.58-.06-.86-.06s-.56.02-.83.06c-1.55-1.43-3.3-2.41-5.22-2.95-1.05-.29-2.14-.44-3.24-.44-3.9,0-7.74,1.8-10.52,4.95-.71.8-1.34,1.67-1.92,2.63-2.54.39-4.66,2.33-5.21,4.9-.29,1.37-.12,2.73.41,3.91C.63,47.71.04,49.13,0,50.7c-.04,1.67.57,3.26,1.72,4.48-.71.75-1.23,1.68-1.51,2.71-.43,1.63-.21,3.33.63,4.78.57.98,1.38,1.77,2.34,2.32-.95,2.99.46,6.31,3.38,7.64.83.38,1.71.57,2.62.57.07,0,.13,0,.2,0,.73.79,1.52,1.55,2.35,2.28-.15.93-.09,1.89.19,2.82.49,1.61,1.58,2.94,3.06,3.74.91.49,1.94.75,2.97.75.78,0,1.53-.14,2.24-.41.09.13.18.26.27.38.11.14.22.27.34.4-.1.82-.03,1.65.2,2.47.36,1.24,1.08,2.31,2.03,3.11-.71,1.4-.9,3.06-.41,4.67.34,1.11.95,2.07,1.76,2.82-.66.75-1.14,1.65-1.39,2.65-.33,1.31-.23,2.66.27,3.88-.07.06-.14.13-.21.19-1.4,1.34-2.11,3.29-1.9,5.22l1.32,12.37c.22,2.07,1.44,3.84,3.17,4.82l4.18,22.2c.4,2.13,1.91,3.94,3.94,4.72.94.36,9.75,3.52,28.96,3.52s29.22-2.6,29.64-2.72c2.4-.64,4.21-2.64,4.6-5.1l3.36-21.33c2.48-.76,4.27-2.99,4.42-5.67l.72-12.55c.11-1.87-.62-3.69-2-4.98-.91-.84-2.01-1.38-3.19-1.59.33-3.49.67-7.98.88-13.05,1.08-.8,1.88-1.93,2.28-3.21.59.18,1.2.27,1.83.27,1.13,0,2.24-.3,3.21-.88.92-.55,1.65-1.29,2.17-2.14.57.17,1.17.26,1.77.26,1.35,0,2.69-.45,3.77-1.25,1.35-1.01,2.22-2.48,2.47-4.15.02-.17.04-.34.05-.5.43.09.88.14,1.33.14,1.99,0,3.88-.95,5.07-2.55.79-1.07,1.22-2.34,1.24-3.65,1.49-.48,2.78-1.5,3.57-2.89.83-1.45,1.05-3.15.6-4.78-.11-.39-.25-.76-.42-1.12Z" style="fill: #e2d6c7; stroke-width: 0px;"/>
      <g>
        <path d="m45.32,127.3c-1.79,0-3.25,1.46-3.25,3.25s1.46,3.25,3.25,3.25,3.25-1.46,3.25-3.25-1.46-3.25-3.25-3.25Zm0,5.25c-1.1,0-1.99-.89-1.99-1.99s.89-1.99,1.99-1.99,1.99.89,1.99,1.99-.89,1.99-1.99,1.99Z" style="stroke-width: 0px;"/>
        <path d="m57,127.9c-1.79,0-3.25,1.46-3.25,3.25s1.46,3.25,3.25,3.25,3.25-1.46,3.25-3.25-1.46-3.25-3.25-3.25Zm0,5.25c-1.1,0-1.99-.89-1.99-1.99s.89-1.99,1.99-1.99,1.99.89,1.99,1.99-.89,1.99-1.99,1.99Z" style="stroke-width: 0px;"/>
        <path d="m72.38,134.41c1.79,0,3.25-1.46,3.25-3.25s-1.46-3.25-3.25-3.25-3.25,1.46-3.25,3.25,1.46,3.25,3.25,3.25Zm0-5.25c1.1,0,1.99.89,1.99,1.99s-.89,1.99-1.99,1.99-1.99-.89-1.99-1.99.89-1.99,1.99-1.99Z" style="stroke-width: 0px;"/>
        <path d="m83.59,133.69c1.79,0,3.25-1.46,3.25-3.25s-1.46-3.25-3.25-3.25-3.25,1.46-3.25,3.25,1.46,3.25,3.25,3.25Zm0-5.25c1.1,0,1.99.89,1.99,1.99s-.89,1.99-1.99,1.99-1.99-.89-1.99-1.99.89-1.99,1.99-1.99Z" style="stroke-width: 0px;"/>
        <path d="m80.26,30.51c-1.24-.24-2.49.02-3.54.73-1.04.71-1.75,1.78-1.99,3.01-.49,2.55,1.19,5.03,3.74,5.52.3.06.6.09.9.09.93,0,1.84-.28,2.63-.81,1.04-.71,1.75-1.78,1.99-3.01.24-1.24-.02-2.49-.73-3.54-.71-1.04-1.78-1.75-3.01-1.99Zm-.2,3.12h0c-.05.26-.2.48-.41.63-.22.15-.48.2-.74.15-.26-.05-.48-.2-.63-.42-.15-.22-.2-.48-.15-.74.05-.26.2-.48.41-.63.17-.11.36-.17.55-.17.06,0,.13,0,.19.02.26.05.48.2.63.42.15.22.2.48.15.74Zm.32,2.35s.09-.05.17-.05c.02,0,.04,0,.06,0,.17.03.27.19.24.36h0c-.03.17-.19.27-.36.24-.17-.03-.27-.19-.24-.36.02-.11.09-.17.13-.2Z" style="stroke-width: 0px;"/>
        <path d="m69.7,41.11c2.36,0,3.27-3.17,3.31-3.3.09-.33-.1-.68-.44-.78-.33-.09-.68.1-.78.44,0,.02-.72,2.38-2.1,2.38-1.25,0-2.48-1.72-2.85-2.38-.17-.3-.55-.42-.86-.25-.3.17-.42.55-.25.86.07.12,1.7,3.03,3.95,3.03Z" style="stroke-width: 0px;"/>
        <path d="m126.02,56.92c-.72.04-1.43-.02-2.13-.18.18-2.47-.03-5.16-.62-8.09.81-.34,1.65-.65,2.49-.89.33-.1.53-.45.43-.78-.1-.33-.45-.53-.78-.43-.82.24-1.62.53-2.41.86-.06-.26-.11-.52-.18-.79-.36-1.45-.86-3.14-1.65-4.76l2.15-1.07c.31-.16.44-.53.28-.85-.16-.31-.53-.44-.85-.28l-2.19,1.09c-.38-.63-.81-1.24-1.3-1.8-2.17-2.45-5.31-3.55-8-2.8-3.43.95-5.33,4.55-6.45,7.17,0,.02-.01.04-.02.05-.69-.49-1.29-1.09-1.78-1.78-.2-.28-.59-.35-.88-.15-.28.2-.35.6-.15.88.63.89,1.41,1.64,2.32,2.25-.21.52-.43,1.04-.64,1.56-.66,1.63-1.34,3.29-2.11,4.88-.72-.31-1.4-.72-2.01-1.22-.27-.22-.67-.18-.89.09-.22.27-.18.67.09.89.68.55,1.43,1.01,2.23,1.36-.79,1.49-1.7,2.9-2.81,4.14-.63.7-2.17,2.2-3.79,2.04-.36-2.68-.8-5.34-1.34-7.93.53-.18,1.03-.43,1.5-.74.29-.19.36-.59.17-.88-.2-.29-.59-.37-.88-.17-.33.22-.69.4-1.06.54-.51-2.31-1.11-4.56-1.8-6.74l2.23-1.15c.31-.16.43-.54.27-.85-.16-.31-.54-.43-.85-.27l-2.05,1.06c-.71-2.09-1.5-4.1-2.4-6,.87-.4,1.73-.84,2.53-1.35.3-.18.39-.57.2-.87s-.57-.39-.87-.2c-.77.48-1.59.9-2.42,1.29-.87-1.73-1.83-3.36-2.89-4.87.59-.47,1.22-.87,1.89-1.21.31-.16.44-.54.28-.85-.16-.31-.53-.44-.85-.28-.73.37-1.42.81-2.07,1.31-.43-.58-.88-1.14-1.34-1.67-.67-.77-1.37-1.49-2.09-2.16.5-.6.97-1.23,1.36-1.91.18-.3.07-.69-.23-.86-.3-.18-.69-.07-.86.23-.35.6-.77,1.17-1.22,1.71-2.47-2.07-5.22-3.57-8.23-4.5.93-1.56,1.77-3.2,2.49-4.91.43-1.03.83-2.24.49-3.39-.17-.57-.5-.95-.93-1.08-.59-.17-1.09.21-1.25.34-.14.11-.27.22-.4.34.02-.3.03-.59.03-.89,0-.42.02-1.68-.83-2.21-.31-.2-.67-.25-1.03-.15-.78.21-1.31,1.08-1.5,1.45-.11.21-.22.43-.32.66-.09-.53-.2-1.06-.32-1.59-.27-1.11-.77-1.7-1.46-1.76-.54-.04-1.04.26-1.47.92-.34.52-.6,1.09-.8,1.69-.12-.46-.26-.91-.41-1.36-.42-1.23-1.16-1.49-1.7-1.32-.47.14-.71.58-.83.78-.45.79-.83,1.69-1.1,2.6-.3-.7-.65-1.38-1.04-2.02-.18-.29-.65-1.07-1.44-1.07h-.01c-.75,0-1.32.68-1.56,1.84-.26,1.27-.34,2.59-.24,3.88-.3-.23-.63-.41-.99-.53-.66-.21-1.26-.01-1.53.51-.19.36-.15.76-.12.97.24,2.28,1.01,4.5,2.18,6.32-.97.28-1.9.62-2.81,1.01l-1.16-1.85c-.18-.3-.57-.38-.87-.2-.29.18-.38.57-.2.87l1.07,1.72c-2.19,1.08-4.19,2.5-6.01,4.25-.58-.34-1.13-.74-1.61-1.2-.25-.24-.65-.23-.89.02-.24.25-.23.65.02.89.48.46,1.01.85,1.58,1.21-.99,1.05-1.92,2.2-2.8,3.45l-2.28-.84c-.33-.12-.69.05-.81.37-.12.33.05.69.37.81l2,.74c-.75,1.18-1.46,2.44-2.13,3.78-1.1-.18-2.18-.47-3.22-.88-.32-.13-.69.03-.82.36-.13.32.03.69.36.82,1.01.4,2.06.69,3.12.89-.67,1.46-1.29,3.02-1.87,4.67-.66-.03-1.33-.15-1.95-.39-.32-.12-.69.04-.82.36-.12.33.04.69.36.81.64.25,1.31.4,1.99.46-.57,1.76-1.08,3.63-1.55,5.6-.55-.05-1.09-.18-1.59-.39-.32-.14-.69.01-.83.34-.14.32.01.69.33.83.57.24,1.18.4,1.8.47-.5,2.27-.93,4.67-1.3,7.2-.57-.76-1.09-1.56-1.56-2.4l1.34-1.79c.21-.28.15-.67-.13-.88-.28-.21-.67-.15-.88.13l-.99,1.32c-.56-1.09-1.05-2.22-1.53-3.35l1.83-2.52c.2-.28.14-.68-.14-.88-.28-.2-.68-.14-.88.14l-1.37,1.89c-.1-.24-.2-.48-.29-.72-.38-.94-.76-1.88-1.16-2.81-.03-.08-.07-.16-.11-.24.7-.91,1.31-1.89,1.8-2.92.15-.31.01-.69-.3-.84s-.69-.01-.84.3c-.36.75-.78,1.48-1.26,2.16-1.17-2.32-2.95-4.85-5.74-5.63-2.69-.75-5.83.35-8,2.8-1.31,1.48-2.16,3.26-2.76,4.98l-2.32-.5c-.34-.07-.68.14-.75.48-.07.34.14.68.48.75l2.2.48c-.15.51-.29,1.01-.4,1.48-.3,1.19-.52,2.33-.7,3.45-.66.11-1.32.16-1.99.15-.36-.02-.64.27-.64.62,0,.35.27.64.62.64.09,0,.19,0,.28,0,.52,0,1.03-.05,1.54-.11-.28,2.29-.3,4.42-.06,6.41l-2.06,1.19c-.3.17-.4.56-.23.86.12.2.33.31.55.31.11,0,.22-.03.31-.08l1.63-.94c.18,1,.43,1.97.75,2.89.29.82.64,1.61,1.02,2.36-.56.7-1.03,1.46-1.4,2.27-.14.32,0,.69.31.84.08.04.17.06.26.06.24,0,.47-.14.57-.37.25-.56.58-1.07.93-1.57,2.22,3.68,5.4,6.37,8.03,8.13l-1.32,2.46c-.16.31-.05.69.26.85.09.05.2.07.3.07.23,0,.44-.12.56-.33l1.27-2.37c1.68,1.04,3.44,1.95,5.27,2.7l-.22,1.71c-.04.35.2.66.55.71.03,0,.05,0,.08,0,.31,0,.58-.23.62-.55l.18-1.39c1.48.55,3,1.01,4.55,1.37-.03,1.3-.05,2.57-.05,3.81-1.3,0-2.6.17-3.86.53-.33.1-.53.44-.43.78.08.28.33.46.61.46.06,0,.12,0,.17-.02,1.15-.33,2.33-.48,3.52-.48,0,2.18.05,4.26.12,6.22l-2.4.73c-.33.1-.52.45-.42.79.08.27.33.45.6.45.06,0,.12,0,.18-.03l2.09-.63c.1,2.49.25,4.77.4,6.79l-2.54,1.53c-.3.18-.4.57-.22.87.12.2.33.31.54.31.11,0,.22-.03.32-.09l2.01-1.21c.33,3.87.68,6.6.85,7.8-1.59-.21-3.19-.43-4.78-.66-.19-.03-.39.03-.53.17-.14.14-.21.33-.19.52l1.32,12.38c.03.29.25.52.54.56.63.09,1.26.17,1.89.25l4.85,25.76c.04.22.19.39.39.47.34.13,8.43,3.14,26.93,3.14s28.08-2.5,28.18-2.52c.24-.06.42-.26.46-.51l4.01-25.5c1.05-.11,2.09-.21,3.14-.33.31-.03.54-.28.56-.59l.72-12.55c.01-.19-.06-.37-.2-.5-.14-.13-.33-.19-.51-.16-1.73.23-3.47.44-5.21.63.35-2.69,1.47-11.95,1.73-23.58.04,0,.08,0,.12,0,.6,0,1.19-.05,1.78-.14.34-.05.58-.38.53-.72-.05-.34-.37-.58-.72-.53-.55.09-1.12.11-1.68.11.02-1.14.03-2.29.03-3.47,2.85-.22,5.65-.78,8.36-1.66.14.63.37,1.25.7,1.8.12.2.33.31.54.31.11,0,.22-.03.32-.09.3-.18.4-.56.22-.86-.28-.48-.48-1.02-.58-1.57,1.81-.66,3.58-1.46,5.27-2.4l1.42,1.9c.12.17.31.25.51.25.13,0,.26-.04.38-.13.28-.21.34-.6.13-.88l-1.33-1.78c.42-.25.84-.51,1.25-.78,1.51-.99,3.22-2.29,4.84-3.92.64.56,1.3,1.1,1.98,1.6.11.08.24.12.37.12.19,0,.38-.09.51-.26.21-.28.15-.67-.13-.88-.64-.47-1.26-.98-1.87-1.5,1.22-1.36,2.35-2.91,3.25-4.67l2.32,1.32c.1.06.21.08.31.08.22,0,.43-.11.55-.32.17-.3.07-.69-.24-.86l-2.41-1.37c.17-.4.34-.81.49-1.23.44-1.27.74-2.61.92-4.01.61.12,1.23.19,1.85.19.16,0,.32,0,.48-.01.35-.02.62-.31.6-.66-.02-.35-.32-.62-.66-.6Zm-10.24-4.58c-.86,5.24-3.34,10.26-6.98,14.12-3.53,3.74-8.2,6.44-13.2,7.66-.09-3.09-.25-6.24-.52-9.41,4.94-2.01,8.36-4.34,10.76-7.33,3.66-4.56,4.73-10.55,5.44-16.36.58.11,1.18.17,1.79.17.06,0,.12,0,.19,0,.77-.01,1.56-.11,2.37-.29.66,4.31.71,8.06.16,11.43Zm-6.7-13.47c.17.12.34.22.51.32-.19-.09-.37-.19-.54-.29.01-.01.02-.02.03-.03Zm6.97.64c.43-.2.84-.43,1.23-.71.09.07.18.14.26.22-.51.2-1,.36-1.49.49Zm-4.43-2.14c1.55-.43,3.16-.06,4.51.68-.86.52-1.85.82-2.87.84-1.11.02-2.21-.27-3.15-.84.46-.3.96-.53,1.51-.68Zm-12.51,19.75c2.7-3.03,4.24-6.83,5.73-10.51.38-.93.75-1.87,1.15-2.79.56-1.31,1.27-2.75,2.2-3.95.56.36,1.19.65,1.85.87-.69,5.68-1.71,11.53-5.19,15.88-2.2,2.74-5.35,4.91-9.89,6.8-.12-1.28-.26-2.56-.42-3.83,1.49.03,3.11-.82,4.57-2.46Zm-55.77,51.62c-1.43-16.24-1.26-30.67.53-44.1,2.07-15.58,6.37-29.76,12.76-42.16,1.39.8,2.93,1.32,4.51,1.55.42,2.51.72,5.02.94,7.5-.47-.29-1-.5-1.57-.61-2.56-.49-5.03,1.18-5.52,3.74-.49,2.55,1.19,5.03,3.74,5.52.3.06.6.09.89.09,1.1,0,2.14-.39,2.96-1.05.02.41.04.83.06,1.24,1.06,22.98.8,46.26-.76,69.21-6.19-.09-12.37-.4-18.54-.93Zm16.97-74.71c-.1.53-.62.88-1.15.78-.53-.1-.88-.62-.78-1.15.09-.47.51-.8.97-.8.06,0,.12,0,.19.02.53.1.88.62.78,1.15Zm.49,2.3s.04,0,.06,0c.17.03.27.19.24.36-.03.17-.19.27-.36.24-.17-.03-.27-.19-.24-.36.03-.15.16-.25.3-.25Zm3.11,4.06c-.04-.87-.08-1.74-.13-2.62.22-.41.38-.85.48-1.33h0c.25-1.32-.07-2.61-.8-3.63-.22-2.86-.54-5.76-1.02-8.66.2,0,.4.03.6.03,1.73,0,3.46-.35,5.03-1.08.33-.15.65-.32.98-.51,8.5,28.07,13.4,57.15,14.56,86.45-6.81.48-13.63.71-20.46.64,1.56-22.98,1.82-46.29.76-69.29Zm3.63-18.44c-3.83,1.78-8.7,1.05-11.89-1.7.09-.03.17-.05.26-.08,2.07,1.52,4.62,2.37,7.19,2.37h.01c2.63,0,5.23-.87,7.33-2.46.02-.01.02-.03.04-.04.02,0,.03,0,.05.01-1.09.85-2.03,1.45-2.99,1.9Zm-9.98-2.2c1.93-.41,3.97-.62,6.13-.62,1.79,0,3.51.17,5.16.51-1.72,1.06-3.72,1.64-5.74,1.64h-.01c-1.94,0-3.86-.54-5.53-1.52Zm-3.21-7.19c0-.07-.01-.12-.01-.16,0,0,.02,0,.03,0,.68.22,1.28.94,1.8,1.57.19.22.5.29.76.16.26-.13.4-.42.34-.7-.39-1.74-.41-3.58-.05-5.33.11-.54.3-.81.31-.84.02,0,.14.07.38.46.73,1.2,1.29,2.52,1.68,3.93.08.29.35.49.67.46.3-.03.54-.27.57-.58.12-1.44.64-3.09,1.39-4.42.02-.03.04-.06.05-.09.06.09.13.23.19.41.45,1.31.76,2.68.94,4.08.04.31.3.55.61.55.33.03.58-.22.64-.52.24-1.41.52-3,1.28-4.15.18-.27.3-.34.3-.36.06.04.22.25.36.81.35,1.41.53,2.88.56,4.35,0,.32.25.59.57.62.31.03.61-.18.68-.49.26-1.16.66-2.26,1.19-3.27.3-.57.62-.8.74-.81.03.02.25.18.23,1.12-.01,1.04-.11,2.08-.27,3.1-.05.31.14.62.45.71.31.09.63-.07.75-.36.3-.71.84-1.4,1.47-1.89.05-.04.09-.07.12-.08.02.04.05.1.07.18.23.78-.08,1.68-.44,2.55-.74,1.76-1.61,3.46-2.59,5.05-2.03-.51-4.18-.77-6.43-.77-2.52,0-4.89.27-7.11.8-1.19-1.73-1.98-3.88-2.22-6.11ZM14.3,39.01c.09-.07.17-.15.26-.22.38.28.8.52,1.23.71-.49-.13-.98-.3-1.49-.49Zm8.5-.11c-.18.1-.36.2-.54.29.17-.1.34-.21.51-.32.01.01.02.02.03.03Zm-2.58-1.54c.55.15,1.05.38,1.51.68-.95.57-2.05.86-3.15.84-1.01-.03-2.01-.32-2.87-.84,1.36-.74,2.96-1.11,4.51-.68Zm11.96,53.5c.03-.11.04-.23,0-.35,0-.01-.02-.02-.02-.04-.12-3.42-.17-7.21-.08-11.25,1.47.29,2.96.48,4.46.59.01,0,.03,0,.04,0,.33,0,.61-.25.63-.59.02-.35-.24-.65-.59-.67-5.88-.4-11.58-2.29-16.54-5.46-.05-.07-.12-.13-.2-.17-.04-.02-.09-.03-.14-.04-.02-.01-.04-.03-.06-.04-3.29-2.17-7.61-5.88-9.49-11.24-1.43-4.07-1.41-8.87.04-14.68.54-2.17,1.39-4.89,3.11-6.94.56.24,1.11.44,1.64.6-.7,4.5-.76,8.42-.18,11.96.9,5.49,3.49,10.74,7.31,14.79,3.82,4.05,8.91,6.94,14.34,8.15.05.01.09.02.14.02.29,0,.55-.2.62-.49.08-.34-.14-.68-.48-.75-5.19-1.15-10.05-3.92-13.7-7.78-3.65-3.86-6.13-8.88-6.98-14.12-.55-3.37-.49-7.12.16-11.43.81.18,1.6.27,2.37.29.06,0,.12,0,.19,0,.61,0,1.21-.06,1.79-.17.71,5.81,1.78,11.8,5.44,16.36,2.45,3.06,5.99,5.44,11.13,7.48.08.03.16.04.23.04.25,0,.49-.15.59-.4.13-.32-.03-.69-.35-.82-4.93-1.96-8.3-4.21-10.61-7.09-3.49-4.35-4.5-10.2-5.19-15.88.66-.22,1.29-.51,1.85-.87.93,1.2,1.64,2.64,2.2,3.95.4.92.77,1.85,1.15,2.79,1.48,3.67,3.02,7.46,5.7,10.48,0,0,0,0,0,0,.01.01.02.02.03.04,1.8,2.02,3.83,2.86,5.59,2.31.33-.1.52-.46.41-.79s-.46-.52-.79-.41c-1.64.51-3.28-.9-4.07-1.74,2.7-19.96,9.41-31.77,20.4-35.78.4.39.83.75,1.29,1.07-6.49,12.56-10.84,26.92-12.94,42.69-1.79,13.46-1.97,27.92-.55,44.16-2.82-.26-5.64-.56-8.46-.92-.21-1.46-1.07-7.81-1.42-16.84Zm58.01,55.63c-1.97.46-11.26,2.39-27.46,2.39s-24.47-2.39-26.15-2.95l-2.33-12.39c1.53-.51,3.44-.09,5.01,1.14,1.56,1.22,2.64,3,3.69,4.87.1.18.29.3.5.32.2.02.41-.07.54-.23,1.54-1.91,4.2-2.88,6.63-2.43,2.43.46,4.54,2.33,5.25,4.65.08.25.3.43.56.44.01,0,.03,0,.04,0,.24,0,.47-.14.57-.37,1.4-3.03,4.29-5.22,7.36-5.58,3.26-.39,6.61,1.43,7.79,4.22.09.22.29.36.53.38.23.02.46-.09.58-.29,1.18-1.84,3.36-3.01,5.57-3.01.03,0,.05,0,.08,0,2.23.03,4.42,1.26,5.57,3.15.13.21.36.33.61.3.24-.03.45-.19.53-.42.85-2.48,3.46-4.28,6.12-4.3l-1.59,10.1Zm1.79-11.36c-2.89-.07-5.7,1.59-7.05,4.1-1.45-1.72-3.68-2.8-5.96-2.82-2.3-.01-4.59,1.03-6.09,2.75-1.68-2.75-5.19-4.45-8.62-4.05-3.08.36-5.98,2.32-7.71,5.11-1.13-2.15-3.28-3.79-5.7-4.24-2.57-.48-5.37.39-7.23,2.21-.99-1.71-2.06-3.3-3.58-4.49-1.84-1.44-4.13-1.95-6.02-1.4l-2.13-11.35c11.15,1.46,22.4,2.2,33.92,2.2,9.23,0,18.64-.47,28.29-1.41l-2.11,13.4Zm-62.65-15.8l-.55-5.18c1.23-.96,3-.69,4.17-.15,1.19.56,2.2,1.43,3.26,2.36.27.23.53.46.8.69,1.26,1.06,2.97,2.31,4.97,2.48,2.62.22,4.77-1.35,6.84-2.87,1.83-1.34,3.56-2.61,5.56-2.71,2.28-.11,4.24,1.3,6.32,2.8.83.6,1.7,1.23,2.59,1.75,1.7.99,3.45,1.5,5.09,1.5.66,0,1.3-.08,1.91-.25,1.78-.49,3.21-1.65,4.59-2.78.31-.25.62-.5.93-.74,2.04-1.59,3.77-2.2,5.27-1.87,1.14.25,2.12,1.04,3.16,1.87,1.25,1,2.54,2.04,4.22,2.17,2.02.16,3.7-1.08,5.31-2.28,1.49-1.1,2.91-2.14,4.44-1.96l-.34,5.93c-24.05,2.62-46.48,2.38-68.53-.75Zm68.94-6.45c-1.99-.2-3.65,1.03-5.26,2.22-1.49,1.11-2.9,2.15-4.47,2.03-1.29-.1-2.37-.97-3.52-1.89-1.1-.89-2.25-1.81-3.68-2.12-1.89-.42-3.96.27-6.32,2.11-.32.25-.63.5-.95.76-1.34,1.09-2.61,2.12-4.13,2.54-2.42.67-4.81-.42-6.03-1.13-.84-.49-1.67-1.09-2.48-1.68-2.16-1.56-4.39-3.18-7.12-3.04-2.38.12-4.34,1.56-6.24,2.96-1.97,1.45-3.83,2.82-5.99,2.63-1.65-.14-3.15-1.24-4.26-2.18-.26-.22-.52-.45-.79-.68-1.08-.95-2.21-1.92-3.56-2.56-1.69-.79-3.49-.8-4.85-.1l-.48-4.51c4.77.7,9.56,1.25,14.36,1.68.08.03.16.06.25.06.02,0,.04,0,.06,0,.03,0,.05-.02.07-.02,18.53,1.63,37.18,1.25,55.62-1.14l-.23,4.06Zm-5.68-4.64c-2.58.28-5.16.51-7.74.71-1.17-29.51-6.12-58.8-14.71-87.06.57-.39,1.16-.84,1.8-1.37,3.69,1.32,6.95,3.59,9.74,6.8.52.59,1.01,1.22,1.48,1.87,0,.14.05.27.15.38.07.08.15.13.24.16,1.13,1.6,2.15,3.35,3.06,5.21,0,.07.01.15.05.22.04.09.1.17.17.23,3.22,6.75,5.15,14.98,6.24,23.46,0,.03,0,.05,0,.07,2.82,22.16-.06,45.97-.5,49.31Zm19.56-35.4c-4.92,3.24-10.62,5.2-16.49,5.67,0-1.02-.02-2.06-.04-3.1,5.33-1.24,10.33-4.1,14.09-8.08,3.82-4.04,6.42-9.3,7.31-14.79.58-3.54.52-7.46-.18-11.96.54-.17,1.08-.37,1.64-.6,1.72,2.05,2.57,4.77,3.12,6.94.93,3.73,1.26,7.04,1.01,10.01-.02.03-.04.06-.05.1-.03.11-.02.22,0,.33-.16,1.49-.45,2.91-.92,4.24-1.88,5.37-6.2,9.08-9.49,11.24Z" style="stroke-width: 0px;"/>
      </g>
    </g>
  </g>
</svg>