<?xml version="1.0" encoding="UTF-8"?>
<svg id="Layer_2" data-name="Layer 2" xmlns="http://www.w3.org/2000/svg" viewBox="0 0 135.56 132.48">
  <g id="Layer_1-2" data-name="Layer 1">
    <g>
      <path d="m135.2,95.47c-.04-.26-.98-6.55-5.24-12.9-3.81-5.68-11-12.45-23.74-13.12,1.92-1.83,3.69-3.78,5.3-5.87l.28-.36c1.12-1.45,1.52-3.32,1.11-5.1l-.1-.44c-.23-1-2.38-9.66-9.03-21.52.51-3.14,1.11-8.56.66-14.88-.66-9.21-2.35-15.34-2.54-16.01l-.25-.86C100.88,1.76,98.46,0,95.8,0,95.37,0,94.93.05,94.49.14l-.87.19c-1.57.34-14.53,3.37-24.22,11.41-2.82-.65-6.66-1.39-10.38-1.67-.38-.07-.77-.11-1.17-.11,0,0-.01,0-.02,0h-1.26s-.33,0-.33,0c-.02,0-.04,0-.07,0-.02,0-.05,0-.07,0h-.95c-.34.02-.68.05-1.01.11-3.75.27-7.63,1.02-10.47,1.67C33.98,3.7,21.02.68,19.45.33l-.87-.19C18.14.05,17.7,0,17.27,0c-2.66,0-5.08,1.75-5.84,4.41l-.25.86c-.19.67-1.89,6.8-2.54,16.01-.45,6.32.15,11.73.66,14.88C2.63,48.04.49,56.69.26,57.68l-.1.44c-.42,1.78,0,3.65,1.11,5.1l.28.36c1.02,1.32,2.11,2.59,3.31,3.87.1.12.21.24.32.35l.48.48c.14.14.27.27.41.41l.12.12.08.08c.07.07.15.15.22.22.44.43.9.86,1.41,1.33l.07.06c.09.08.18.17.28.25.45.4.93.81,1.41,1.21.14.11.28.23.42.34.48.39.92.74,1.37,1.07.14.11.29.22.44.33l.09.07c.38.28.75.55,1.13.82.29.2.58.4.87.6.23.16.47.31.7.46.48.31.97.63,1.48.94l.07.04.18.11c3.52,2.13,7.35,3.93,11.43,5.38-1.48,5.09-3.02,11.75-3.52,18.61-1.31,17.87,5.42,26.17,11.29,29.99l.11.07c.5.33,1.06.58,1.63.75l.14.04c.44.13,2.69.74,5.36.82.02,0,.04,0,.06,0,.46.05.92.07,1.36.07,3.32,0,6.16-1.25,8.09-3.39h7.47c.93,1.07,1.97,1.73,2.84,2.14,1.58.83,3.37,1.25,5.31,1.25.44,0,.89-.02,1.35-.07.05,0,.09,0,.14-.01,2.59-.11,4.73-.69,5.14-.82l.13-.04c.58-.17,1.13-.42,1.63-.75l.12-.08c2.51-1.63,4.63-3.71,6.34-6.2,1.47.21,2.93.31,4.38.31,6.81,0,16.57-2.33,24.41-13.45,1.48-2.1,2.97-3.88,4.44-5.29.05-.04.1-.09.15-.13l.2-.19c2.46-2.27,4.89-3.52,6.84-3.52.69,0,1.13.15,1.29.22l1.57,1.05c1.02.68,2.2,1.02,3.37,1.02s2.25-.31,3.25-.94c2.03-1.28,3.12-3.63,2.77-6.01l-.3-2.11Z" style="fill: #e2d6c7; stroke-width: 0px;"/>
      <path d="m129.48,98.44l-.3-2.11c-.03-.21-3.2-20.51-24.47-20.85-.53,0-1.06,0-1.58,0-.44,0-.88.02-1.32.04-.05,0-.11,0-.16,0-7.96.37-14.52,2.74-19.52,7.07-1.24,1.08-2.27,2.19-3.15,3.29-.85-3.17-1.71-5.81-2.33-7.57,9.99-2.4,21.63-7.56,30.05-18.46l.28-.36-.1-.44c-.09-.39-2.27-9.5-9.5-21.82.34-1.58,1.53-7.8.98-15.53-.62-8.75-2.26-14.53-2.33-14.78l-.25-.86-.87.19c-.62.14-15.14,3.4-23.83,12.15-1.84-.5-7.91-2.04-13.24-2.33v-.05h-1.3s-.38,0-.38,0h-.95v.05c-5.33.29-11.39,1.84-13.24,2.33-8.7-8.76-23.21-12.02-23.83-12.15l-.87-.19-.25.86c-.07.24-1.7,6.03-2.33,14.78-.55,7.73.64,13.95.98,15.53-7.23,12.32-9.41,21.43-9.5,21.82l-.1.44.28.36c1.01,1.31,2.07,2.53,3.17,3.67h0s.48.5.48.5c.15.16.31.31.46.46.09.09.18.18.27.27.41.4.83.79,1.25,1.17.1.09.2.18.3.27.41.37.83.72,1.25,1.07.12.1.25.2.37.3.4.33.8.64,1.21.95.16.12.32.24.47.35.33.25.67.49,1,.72.26.18.52.36.78.53.21.14.41.28.62.41.44.29.88.57,1.33.84.07.04.15.09.22.13,5.28,3.19,10.82,5.25,15.96,6.57-2.88,8.15-11.93,37.54,3.42,47.53l.12.08.14.04c.12.03,2.02.57,4.16.59.06,0,.12.02.18.03,2.98.29,4.84-1.12,5.29-3.36h14.6c.03.06.05.12.07.18.11.46.28.88.51,1.26.26.52.64,1.01,1.35,1.31,0,0,.02,0,.03,0,.87.5,2,.73,3.37.59.07,0,.13-.02.2-.03,2.06-.05,3.86-.55,3.98-.59l.14-.04.12-.08c3.07-2,5.16-4.77,6.52-7.99,2.01.59,4.61,1.12,7.53,1.12,6.03,0,13.37-2.26,19.44-10.88,1.89-2.68,3.71-4.77,5.43-6.4h.01s.2-.19.2-.19c8.84-8.14,15.16-4.19,15.42-4.02l.13.08,1.64,1.1Zm-80.72-1.24c.65-1.29,2.35-2.55,4.35-3.2,2.24-.73,4.52-.63,6.27.27,5.2,2.69,6.79,11.88,4.4,24.86-.08.34-.16.68-.25,1.02-.08.32-.13.63-.16.94h-14.27c-1.54-8.5-2.5-19.56-.34-23.89Zm28.98,6.34c-.14-.63-1.01-.43-1.06.14-.36,4.36.52,8.53-.56,12.89-.67,2.71-2.46,6.24-5.16,7.64-1.36.23-3.42.42-4.89-.21-.3-.13-.4-.36-.66-1.05-.09-.24-.19-.5-.31-.77.38-1.73.68-3.37.92-4.91.39-1.55.7-3.12.91-4.71.36-2.72.31-5.32-.33-7.87-.84-8.11-4.35-11.07-6.36-12.1-2.19-1.13-5.01-1.28-7.73-.39-2.53.83-4.57,2.38-5.46,4.16-1.03,2.05-1.42,5.11-1.47,8.45-.58,2.38-.66,4.8-.37,7.33.21,1.78.56,3.55,1,5.29.18.74.5,1.61.74,2.49.1.63.2,1.19.29,1.67-.29.5-.46.96-.61,1.37-.25.69-.36.92-.66,1.05-1.38.59-3.28.47-4.63.25-2.63-1.31-4.44-4.63-5.15-7.26-1.23-4.51-.3-8.79-.67-13.31-.05-.57-.92-.78-1.06-.14-.96,4.17-.92,11.18,1.3,16.34-7.87-11.73-.71-34.77,1.6-41.36,9.55,2.16,17.4,1.84,19.08,1.74.49.03,1.49.08,2.9.08,3.33,0,8.95-.27,15.42-1.65,2.32,6.67,9.1,28.73,1.95,40.55,1.95-5.09,1.96-11.69,1.04-15.69ZM17.51,37.89l.2-.33-.09-.37c-.02-.07-1.62-6.85-1.02-15.33.47-6.6,1.55-11.57,2.03-13.5,3.34.87,15.31,4.38,22.38,11.8l.4.42.55-.16c.08-.02,8.07-2.29,14.24-2.45h.21s.14,0,.14,0h.05s.28,0,.28,0c6.17.17,14.16,2.43,14.24,2.45l.55.16.4-.42c7.07-7.41,19.03-10.93,22.38-11.8.47,1.94,1.56,6.9,2.03,13.5.61,8.49-1,15.27-1.02,15.33l-.09.38.2.33c6.34,10.72,8.84,19.2,9.36,21.17-.78.99-1.58,1.92-2.41,2.81-2.82-5.36-14.21-25.58-28.29-30.75-3.4-1.25-6.35-.98-8.75.8-7.06,5.22-7.02,22.12-6.88,26.48h-4.29c.13-4.36.17-21.25-6.88-26.48-2.41-1.78-5.35-2.05-8.75-.8-13.97,5.14-25.29,25.08-28.22,30.63-.79-.85-1.55-1.74-2.3-2.68.53-1.97,3.01-10.43,9.36-21.17Zm38.99,40.47h-.06s-.06,0-.06,0c-2.83.18-27.93,1.25-44.55-15.18,2.31-4.46,13.63-25.19,27.48-30.28,2.8-1.03,5.08-.85,6.96.54,7.13,5.28,6.09,25.64,6.08,25.85v.02h-1.28s1.33,4.34,5.43,4.34,5.79-4.34,5.79-4.34h-1.77v-.02c-.01-.21-1.06-20.56,6.07-25.85,1.89-1.4,4.16-1.57,6.97-.54,13.85,5.09,25.18,25.82,27.48,30.28-16.62,16.43-41.72,15.36-44.55,15.18Zm23.09,9.9c.96-1.39,2.19-2.84,3.79-4.22,2.23-1.93,4.8-3.44,7.7-4.53-3.23,4.58-3.12,4.73-2.69,5.32l.44.56.58-.19c.85-.07,6.73.13,11.32.31l-4.02,4.6,7.96-.19-4.76,7.14,7.27-1.61-2.88,7.42,4.56-.8c-1.23,1.35-2.49,2.91-3.77,4.74-8.38,11.89-19.1,10.82-24.76,9.12,2.79-8.44,1.27-19.35-.74-27.63Zm47.33,6.57c-2.82-.94-8.61-1.56-15.71,4.86l-3.91.69,2.95-7.58-6.12,1.36,4.17-6.25-7.29.18,3.78-4.32-1.98-.08c-6.8-.29-10.24-.39-12-.4.56-.86,1.55-2.3,3.27-4.72,3.22-.85,6.79-1.24,10.6-1.18,16.24.26,21.01,12.72,22.24,17.45Z" style="stroke-width: 0px;"/>
      <path d="m90.54,35.77l1.24,1.31.38-1.77c2.46-11.59-.7-21.58-1.07-22.68l-.9.29.9-.3-.18-.51-.51-.13c-.38-.09-.65-.16-3.04,1.6-.89.66-2.65,2.01-4.37,3.67-2.56,2.48-4.65,5.51-4.73,5.64l-.48.7.64.55c6.14,5.32,12.06,11.54,12.12,11.6Zm-.92-21.44c.78,2.79,2.44,10.19,1.01,18.8-1.99-2.04-6.05-6.09-10.32-9.84.75-1.02,2.27-3,3.99-4.66,2.01-1.94,4.15-3.53,5.31-4.31Z" style="stroke-width: 0px;"/>
      <path d="m21.28,37.08l1.24-1.31c.06-.06,5.98-6.28,12.12-11.6l.64-.55-.48-.7c-.09-.13-2.17-3.17-4.73-5.64-1.72-1.66-3.48-3.01-4.37-3.67-2.39-1.76-2.66-1.69-3.04-1.6l-.52.14-.17.5c-.37,1.1-3.53,11.09-1.07,22.68l.38,1.77Zm7.47-18.44c1.72,1.66,3.25,3.64,3.99,4.66-4.26,3.75-8.32,7.8-10.32,9.84-1.42-8.6.23-16,1.02-18.8,1.16.78,3.29,2.36,5.31,4.31Z" style="stroke-width: 0px;"/>
      <path d="m82.22,50.79s-2.42-5.3-8.37-5.11c-5.95.19-7.53,7.62-6.69,10.32,0,0,5.11-10.78,15.06-5.21Z" style="stroke-width: 0px;"/>
      <path d="m45.66,56c.84-2.7-.74-10.13-6.69-10.32-5.95-.19-8.37,5.11-8.37,5.11,9.95-5.58,15.06,5.21,15.06,5.21Z" style="stroke-width: 0px;"/>
      <path d="m78.67,63.19c-1.31,2.46.28,4.9,2.15,5.69,2.56,1.08,5.99.56,8.32-1.46,1.65-1.44,3.25-4.17,1.6-6.17-.97-1.17-2.56-1.4-4.13-1.2-.03-.16-.11-.3-.28-.31-2.4-.22-6.19.69-7.66,3.46Z" style="stroke-width: 0px;"/>
      <path d="m26.59,59.73c-.16.01-.25.15-.28.31-1.58-.2-3.17.03-4.13,1.2-1.65,2-.05,4.73,1.6,6.17,2.33,2.03,5.75,2.55,8.32,1.46,1.87-.79,3.46-3.23,2.15-5.69-1.48-2.77-5.27-3.68-7.66-3.46Z" style="stroke-width: 0px;"/>
      <path d="m56.93,72.27c.78-.81.47-1.99.44-3.05-.03-1.28-.17-2.51-.38-3.77-.07-.43-.79-.43-.86,0-.22,1.26-.36,2.49-.38,3.77-.02,1.05-.34,2.24.44,3.05.19.2.55.2.74,0Z" style="stroke-width: 0px;"/>
    </g>
  </g>
</svg>