<?xml version="1.0" encoding="UTF-8"?>
<svg id="Layer_2" data-name="Layer 2" xmlns="http://www.w3.org/2000/svg" viewBox="0 0 155.35 146.05">
  <g id="Layer_1-2" data-name="Layer 1">
    <g>
      <path d="m155.26,66.54c-.12-1.47-.49-2.91-1.12-4.29-1.06-2.35-3.24-3.81-5.69-3.81-.92,0-1.81.2-2.62.59-.88-.41-1.83-.62-2.82-.62-.8,0-1.6.15-2.37.43-.8-1.42-1.59-2.72-2.43-3.96-.88-1.3-1.79-2.56-2.67-3.78-.73-1.01-1.41-1.96-2.08-2.93-1.02-1.48-2.06-3.04-2.99-4.67,2.13-2.59,4.01-5.58,5.99-9.52,2.6-5.16,3.94-10.46,3.98-15.76.04-5.11-1.22-9.19-3.84-12.48-2.8-3.5-6.27-5.42-10.33-5.71C126.01.01,125.72,0,125.44,0h0c-5.74,0-11.54,4.19-13.8,9.97-.06.15-.12.31-.17.46-.42-.27-.85-.53-1.29-.77-2.1-1.14-4.22-1.72-6.3-1.72-.96,0-1.91.12-2.84.37-3.26.85-7.56,3.23-9.53,9.75-1.14,3.79-.72,7.74,1.3,12.08,1.92,4.13,5.05,7.7,9.56,10.93,4.16,2.98,8.79,4.48,13.18,5.65.92.25,1.88.45,2.92.62.51.13,1,.26,1.47.36,1.47,3.07,3.29,5.79,5.07,8.44.62.92,1.25,1.81,1.86,2.68.79,1.12,1.55,2.19,2.24,3.27-.43.55-.79,1.18-1.05,1.88-2.89-.93-6.08-1.5-9.93-1.78-2.67-.2-4.74-.28-6.72-.28-2.24,0-4.28.12-6.24.36-.15.02-.3.04-.45.06-.46-2.37-.97-4.7-1.48-6.98-.28-1.28-.58-2.61-.85-3.9-.8-3.78-2.06-7.37-3.75-10.68-2.14-4.19-4.92-7.71-8.28-10.47-3.66-3-7.09-4.77-10.8-5.57-1.79-.38-3.73-.74-5.83-.74-.97,0-1.91.08-2.82.23,0,0-.01,0-.02,0,0,0-.02,0-.03-.01-2.41-1.1-4.98-1.88-7.62-2.32-1.63-.27-3.31-.41-4.98-.41-2.88,0-5.85.41-8.82,1.23-1.13.31-2.24.64-3.32.95-1.43.42-2.79.82-4.14,1.17-1.1-.31-2.14-.44-3.02-.56-.21-.03-.42-.05-.64-.09-1.07-.15-2.16-.23-3.24-.23-3.25,0-6.48.67-9.87,2.04-3.73,1.51-7.18,3.89-10.55,7.3-4.52,4.57-8.31,9.83-11.27,15.64C1.37,52.92.27,56.73.04,60.59c-.13,2.2-.07,5.09,1.58,7.95,1.78,3.09,5.08,5.01,8.62,5.01.32,0,.65-.02.98-.05,1.53-.15,2.95-.59,4.25-1.32-.27,5.85.4,11.41,1.98,16.56,1.79,5.81,5.35,10.41,10.57,13.69,1.45.91,2.87,1.69,4.3,2.36-.51,1.96-.89,4.04-1.17,6.27-.77,6.2-1.05,12.36-.82,18.33.08,2.11.33,4.9,1.58,7.74,1.74,3.97,5.68,6.53,10.02,6.53,2.78,0,5.42-1.05,7.43-2.97.46-.44.88-.9,1.26-1.39.82,1.21,1.88,2.25,3.17,3.11,2.24,1.5,4.7,2.26,7.3,2.27h.07c4.43,0,8.07-1.8,10.55-5.2,1.56-2.15,2.34-4.46,2.89-6.44.77-2.78,1.12-5.49,1.42-8.13.4-.08.78-.14,1.14-.18,1.7-.18,3.52-.27,5.74-.27,1.68,0,3.33.05,5.31.11,5.59.18,10.99.75,16.06,1.69.38.07.75.14,1.13.21.29.05.57.1.85.16-.13,2.69-.22,5.45-.09,8.26.09,1.95.55,3.76,1.37,5.36,1.55,3.07,4.38,4.83,7.75,4.83.07,0,.14,0,.21,0,2.45-.05,4.61-1.14,6.41-3.23.19-.22.38-.45.55-.68.05.08.09.17.14.25,1.61,2.86,4.63,4.64,7.88,4.64.78,0,1.55-.1,2.3-.3,2.07-.55,3.92-1.72,5.52-3.49,1.75-1.95,3.21-4.26,4.45-7.09.51-1.16.93-2.29,1.35-3.39.14-.37.27-.73.41-1.1,1.59-4.16,2.78-8.54,3.52-13.01.84-5.09,1.42-10.57,1.81-17.23.24-4.18,0-8.04-.75-11.69,1.24-.26,2.38-.88,3.29-1.81,1.32-1.35,2.02-3.2,1.97-5.21-.02-.89-.11-2.1-.58-3.37,1.32-3.89,1.84-7.86,1.52-11.81Z" style="fill: #e2d6c7; stroke-width: 0px;"/>
      <path d="m148.71,77.49c1.27-3.4,1.83-6.91,1.54-10.55-.07-.92-.31-1.79-.69-2.62-.49-1.08-1.54-1.14-2.23-.17-.32.45-.41.98-.54,1.5-.36,1.44-.66,2.9-1.24,4.27-.3.71-.6,1.44-1.22,1.96.08-.51.26-.97.43-1.42.54-1.37.72-2.79.54-4.25-.08-.67-.32-1.28-.7-1.83-.77-1.1-1.96-1.25-2.97-.36-.68.59-.96,1.41-1.25,2.23-.23.64-.12,1.38-.62,2.05-.18-.38-.33-.67-.47-.96-1.53-3.33-3.2-6.6-5.24-9.65-1.52-2.26-3.17-4.42-4.71-6.67-1.68-2.45-3.29-4.94-4.57-7.63-.25-.53-.29-.89.21-1.27.35-.27.63-.64.93-.98,2.5-2.83,4.4-6.06,6.09-9.41,2.14-4.26,3.4-8.76,3.44-13.54.03-3.36-.57-6.58-2.74-9.3-1.73-2.17-3.87-3.63-6.76-3.83-4-.29-8.15,3.03-9.61,6.76-.94,2.41-1.29,4.93-1.28,7.51,0,.26.16.59-.04.66-.9-.8-1.74-1.51-2.54-2.28-1.43-1.38-2.94-2.67-4.68-3.61-1.7-.92-3.53-1.41-5.47-.91-3.3.86-5.07,3.29-5.99,6.35-.89,2.94-.22,5.79,1.05,8.51,1.76,3.77,4.6,6.58,7.93,8.97,3.49,2.5,7.48,3.79,11.55,4.88.88.23,1.77.41,2.67.55,1.25.34,2.74.68,3.96.81.02.04.05.08.06.13,1.39,3.61,3.51,6.8,5.65,9.99,1.7,2.53,3.58,4.94,5.1,7.59.77,1.33,1.54,2.65,2.18,4.23-.51-.21-.83-.37-1.18-.48-1.43-.45-2.45.18-2.7,1.66-.12.75-.03,1.5.25,2.18.96,2.36,2.52,4.22,4.7,5.56,1.08.67,2.25,1.16,3.43,1.62-.31.55-.82.78-1.24,1.09-.34.25-.64.22-.94-.16-2.93-3.72-6.89-5.93-11.24-7.54-3.16-1.16-6.46-1.67-9.8-1.91-3.99-.29-7.99-.44-11.97.05-1.47.18-2.94.39-4.4.62-.53.08-.81.02-.91-.62-.75-4.98-1.96-9.86-3-14.78-.69-3.28-1.78-6.45-3.3-9.43-1.74-3.41-4.02-6.43-6.99-8.87-2.56-2.11-5.35-3.83-8.67-4.54-2.23-.48-4.48-.85-6.74-.47-1.09.19-2.01.05-2.98-.39-2.04-.93-4.17-1.57-6.37-1.94-3.92-.65-7.81-.34-11.64.7-2.78.76-5.53,1.66-8.34,2.35-.32.08-.63.21-.96.07-1.23-.52-2.56-.61-3.86-.8-3.65-.52-7.14.13-10.52,1.49-3.42,1.38-6.3,3.59-8.87,6.18-4.2,4.24-7.65,9.06-10.36,14.39-1.54,3.02-2.6,6.24-2.81,9.67-.11,1.78-.01,3.53.92,5.15.98,1.7,2.81,2.66,4.76,2.47,1.85-.18,3.25-1.15,4.37-2.53,1.51-1.86,2.76-3.87,3.66-6.11,1.04-2.57,1.66-5.26,2.67-7.84.77-1.96,1.46-3.94,2.45-5.8,1.49-2.8,3.47-5.21,5.76-7.36,1.15-1.08,2.42-2.03,4.13-2.83-.59,1.14-1.25,1.88-1.68,2.76-1.5,3.12-2.99,6.24-4.57,9.31-1.72,3.34-3.32,6.71-4.43,10.32-1.27,4.16-2.24,8.37-2.55,12.7-.39,5.46.07,10.87,1.69,16.14,1.45,4.69,4.3,8.32,8.43,10.91,2.24,1.4,4.6,2.58,7.12,3.41.56.18.68.39.47.97-1.09,2.95-1.75,6.02-2.14,9.13-.73,5.82-1.01,11.66-.79,17.52.08,2.02.33,4.02,1.15,5.91,1.63,3.71,6.47,4.72,9.39,1.95,1.21-1.15,1.93-2.54,2.22-4.17.39-2.2.59-4.41.66-6.64.05-1.65.65-2.42,2.15-2.95,1.27-.45,2-.06,2.19,1.27.15,1.06.2,2.13.24,3.2.07,1.89.03,3.79.31,5.67.3,2.04,1.19,3.64,2.92,4.8,1.38.92,2.88,1.42,4.53,1.43,2.67.01,4.92-.91,6.53-3.13,1.06-1.46,1.64-3.13,2.12-4.84.87-3.11,1.14-6.32,1.51-9.5.12-.99.55-1.49,1.47-1.69,1.28-.29,2.56-.62,3.88-.76,3.91-.42,7.83-.31,11.74-.19,5.64.18,11.26.74,16.83,1.77,1.62.3,3.25.57,4.85.95,1.43.34,1.46-.03,1.37,1.73,0,.08,0,.16-.01.25-.17,3.46-.38,6.92-.22,10.39.06,1.17.3,2.29.83,3.34.69,1.37,1.79,2.1,3.37,2.07,1.18-.03,2.01-.67,2.72-1.49,1.3-1.51,1.96-3.33,2.42-5.22.47-1.92.87-3.86,1.33-5.9,1.56,1.39,2.59,3.27,3.19,5.54.53,2.03.88,4.12,1.93,5.98.9,1.61,2.75,2.41,4.52,1.94,1.24-.33,2.23-1.06,3.07-2,1.53-1.7,2.66-3.66,3.58-5.75.61-1.4,1.12-2.84,1.67-4.26,1.5-3.9,2.57-7.92,3.25-12.03.92-5.53,1.42-11.12,1.75-16.71.27-4.6-.1-9.14-1.47-13.57-.12-.39-.32-.8-.3-1.19.02-.5.64-.4.93-.67.12-.11.27-.21.36-.34.65-1.03,1.34-1.31,2.58-.71,1.33.64,2.44-.32,2.41-1.82-.02-.79-.11-1.6-.52-2.27-.44-.73-.34-1.35-.07-2.09Zm-26.2-35.81c-3.2-.76-6.41-1.5-9.5-2.67-3.92-1.48-7.39-3.62-10.33-6.6-2.39-2.42-4.2-5.2-4.78-8.61-.55-3.2.56-6.24,3.19-8.01,1.49-1,3.07-1.12,4.71-.48,1.36.53,2.54,1.34,3.66,2.27,1.68,1.41,3.2,2.98,4.73,4.54.29.29.55.62.94.79.77.35,1.43,0,1.5-.84.06-.74.01-1.48.01-2.23.02-2.83.24-5.66,1.66-8.15,1.58-2.77,3.87-4.69,7.28-4.79,1.05-.03,2.03.24,2.94.78,3.28,1.97,4.8,5,5.12,8.68.3,3.41-.36,6.72-1.34,9.98-1.16,3.88-3.31,7.25-5.42,10.64-.91,1.47-1.91,2.88-3.09,4.16-.35.38-.68.66-1.28.52Zm11.97,27.15c-.28-.54-.48-1.14-.47-1.77,0-.27.02-.62.3-.77.33-.18.62-.02.9.19.75.59,1.42,1.27,1.94,2.06,1.08,1.65,2.05,3.37,2.96,5.47-2.58-1.25-4.43-2.86-5.63-5.17Zm7.32-1.78c.11-.54.31-1.03.6-1.47.39-.59.78-.55,1.03.14.42,1.16.4,2.36.04,3.52-.38,1.25-.87,2.46-1.32,3.69-.59-1.96-.74-3.9-.36-5.87ZM75.46,30.4c7.27.97,12.21,5.32,16.1,11.17.28.43.28.77-.01,1.23-2.95,4.67-2.43,12.11,3.88,15.93.21.13.44.29.67.31,1.15.08,1.42.84,1.6,1.81.44,2.43,1.11,4.81,1.45,7.27.3,2.14.13,4.21-.89,6.13-.96,1.79-2.43,2.87-4.53,2.95-.86.03-1.51-.31-1.98-1.03-.93-1.4-1.45-2.95-1.63-4.62-.22-2.02-.04-4.04-.01-6.05.02-1.81.11-3.63-.02-5.44-.21-2.85-.89-5.6-1.71-8.32-1.07-3.51-2.54-6.87-4.1-10.18-1.12-2.39-2.7-4.42-4.66-6.17-.46-.41-.94-.87-1.52-1.04-1.28-.38-2.2-1.24-3.14-2.09-.76-.68-1.66-1.19-2.71-1.87,1.3-.33,2.27-.11,3.24.02Zm-44.48,5.75c-2.65,1.89-4.76,4.29-6.6,6.96-2.39,3.48-3.77,7.41-5.16,11.33-1.02,2.88-1.95,5.78-3.63,8.37-.77,1.18-1.63,2.28-2.7,3.19-.54.46-1.15.79-1.87.92-1.73.31-3.15-.35-3.87-1.94-.69-1.51-.73-3.11-.53-4.73.05-.37.24-.44.59-.44,3.37.09,5.58-1.54,6.57-4.95.61-2.1.81-4.22-.31-6.26-.26-.47-.5-.98-.91-1.32-.45-.37-.46-.63-.14-1.11,2.74-4.16,5.86-7.97,9.79-11.07,3.62-2.86,7.7-4.61,12.33-4.87,1.77-.1,3.53.06,5.48.35-.52.63-1.16.64-1.62.95-.92.63-1.8,1.32-2.56,2.14-.25.27-.47.57-.89.61-1.54.16-2.78.98-3.99,1.85Zm-2.4,58.53c-2.78-2.52-4.4-5.71-5.31-9.31-1.89-7.43-1.78-14.86.08-22.28.82-3.29,1.75-6.54,3.19-9.61.91-1.94,1.92-3.84,2.84-5.77,1.15-2.42,2.26-4.86,3.39-7.29,1.14-2.45,2.59-4.69,4.46-6.64.44-.46.95-.74,1.5-1.04,2.29-1.3,4.81-1.91,7.32-2.55,1.99-.51,3.95-1.16,5.96-1.63,3.36-.79,6.78-1.12,10.19-.45,4.16.82,8.09,2.27,11.53,4.83,2.79,2.08,4.58,4.93,6.14,7.97,1.64,3.18,2.49,6.6,3.28,10.3-2.15-.98-4.24-1.3-6.4-1.39-2.89-.12-5.47.76-7.79,2.37-2.7,1.87-4.58,4.36-5.28,7.64-.8,3.71.84,7.91,4.09,9.91,4.44,2.74,9.21,3.43,14.24,1.92.91-.27,1.63-.93,2.63-1.32-.05,2.17-.34,4.2-.61,6.23-.52,3.84-1.8,7.43-3.3,10.97-.6,1.4-1.13,2.83-1.74,4.23-2.14,4.88-5.86,8.03-10.79,9.92-3.01,1.16-6.15,1.76-9.31,1.64-6.63-.24-13.24-.92-19.63-2.86-3.93-1.19-7.59-3-10.66-5.79Zm50.96-32.54c-.24.47-.72.49-1.19.33-.08-.03-.15-.07-.22-.11-1.35-.91-2.81-.78-4.29-.49-.47.1-1.07.44-1.25-.24-.16-.61.52-.77.95-.95.81-.33,1.66-.46,2.6-.41,1.01-.1,1.96.27,2.88.78.43.24.78.58.52,1.09Zm41.01,64.63c-.52,2.2-.99,4.41-1.52,6.6-.36,1.49-1,2.87-1.92,4.11-1.2,1.61-3.04,1.47-3.95-.32-.32-.63-.41-1.33-.5-2.02-.41-3.16-.19-6.33-.23-9.49-.01-.86-.12-1.72.05-2.62,1.04-.03,1.94.42,2.85.74,1.7.6,3.38,1.28,4.87,2.34.26.18.43.29.35.66Zm22.78-27.2c-.04,1.03-.12,2.06-.19,3.09-.02.33-.04.66-.51.7-2.82.24-4.94,1.76-6.66,3.86-1.84,2.26-2.98,4.83-2.81,7.85.1,1.81.83,3.34,1.99,4.69,1.21,1.4,2.68,2.43,4.43,3.05.5.17.59.4.43.91-1.17,3.61-2.41,7.19-4.08,10.6-.62,1.27-1.44,2.4-2.35,3.47-.29.34-.61.68-.97.95-2.33,1.75-4.04.52-4.66-1.22-.64-1.79-.99-3.65-1.48-5.48-.83-3.12-2.5-5.62-5.27-7.34-2.36-1.47-4.91-2.45-7.59-3.2-3.86-1.08-7.8-1.73-11.74-2.36-2.11-.34-4.26-.47-6.39-.69-.41-.04-.81-.09-1.32-.15.15-1.38.16-2.72-.08-4.06-.4-2.18-1.12-4.2-2.45-6.01-1.86-2.54-5.45-3.84-8.71-3-4.35,1.13-7.59,5.05-7.87,9.57-.05.83.11,1.63.37,2.43.13.39.38.74.37,1.23-.79.19-1.57.43-2.38.58-1.08.2-2,.74-2.91,1.29-.37.22-.45.57-.53.93-.29,1.37-.53,2.75-.65,4.15-.24,2.84-.72,5.64-1.8,8.3-.84,2.09-2.19,3.72-4.47,4.27-2.34.57-4.48.1-6.34-1.53-.89-.78-1.31-1.77-1.49-2.9-.29-1.79-.33-3.6-.35-5.41,0-1.15,0-2.31-.2-3.46-.09-.58-.28-1.11-.5-1.64-.44-1.07-1.31-1.49-2.37-1.44-1.51.08-2.77.75-3.77,1.9-.56.65-.76,1.43-.8,2.29-.09,2.14-.14,4.28-.5,6.4-.25,1.47-.87,2.71-1.89,3.81-1.6,1.73-5.35,1.23-6.44-.66-.53-.91-.92-1.85-1.08-2.87-.47-3.03-.55-6.08-.45-9.13.02-.49-.03-.98-.01-1.48.02-.51.21-.73.71-.8,4.59-.6,7.4-5.36,7.05-9.22-.29-3.18-2.19-5.25-4.96-6.6-.96-.47-.97-.45-.71-1.52.46-1.85.07-1.71,1.95-1.22,3.08.81,6.2,1.33,9.36,1.66,3.07.32,6.14.8,9.24.69,5.89-.2,11.29-1.86,15.81-5.78,2.67-2.31,4.44-5.27,5.66-8.58.84-2.28,1.74-4.54,2.6-6.81,1.1-2.87,1.64-5.86,2.01-8.9.6-4.93.62-9.88.2-14.82-.5-5.89-1.56-11.69-3.7-17.23-.81-2.1-1.84-4.12-3.04-6.05,1.36,1.06,2.49,2.32,3.27,3.84,2.29,4.45,4.16,9.07,5.4,13.92.84,3.25,1.24,6.55,1.11,9.92-.08,2.06-.07,4.13-.04,6.19.03,2.14.6,4.14,1.74,5.98,1.08,1.74,2.51,2.36,4.94,1.66,2.26-.66,3.69-2.26,4.49-4.44.43-1.17.67-2.39.7-3.63.01-.6.16-.86.83-.92,1.6-.14,3.18-.4,4.77-.61.32-.04.65-.05.93-.07.27.32.11.6.07.87-.36,2.85.57,5.26,2.72,7.08,3.2,2.72,7.36,3.41,11.28,1.32,1.11-.59,2.03-1.44,2.72-2.48,1.03-1.54,1.93-3.16,2.12-5.13,1.93.54,3.69,1.42,5.43,2.37,2.38,1.29,4.42,3.02,6.11,5.13.75.93,1.25,2.03,1.77,3.1,1.63,3.39,2.95,6.9,3.53,10.64.42,2.7.48,5.42.37,8.15Zm.64-17.14c-.45.52-.9,1.05-1.42,1.65-.89-1.96-1.73-3.81-2.58-5.65-.16-.35-.05-.54.24-.7.42-.24.85-.48,1.28-.73.82,1.6,1.33,3.33,2.52,4.68.25.28.17.51-.05.75Zm1.46-1.78c-.75-.49-.98-1.17-1.31-1.75-.41-.71-.76-1.46-1.13-2.19-.24-.48-.26-.89.2-1.32,2.62-2.44,4.12-5.51,4.84-8.98.03-.16.09-.31.15-.47.01-.04.05-.06.31-.33.66,5.5-.38,10.37-3.05,15.04Zm2.43,1.41c-.5.45-.88,0-1.35-.26.36-.53.57-1.06.99-1.47.53.67.72,1.41.36,1.73Z" style="stroke-width: 0px;"/>
      <path d="m52.03,80.53c1.32,0,2.61-.3,3.87-.65,1.23-.35,2.09-1.13,2.25-2.49.16-1.44-.31-2.6-1.59-3.35-1.23-.72-2.55-1.14-4.51-1.12-1.23.07-2.9.39-4.31,1.55-1.17.97-1.12,2.34-.52,3.33,1.09,1.81,2.71,2.73,4.8,2.73Z" style="stroke-width: 0px;"/>
      <path d="m36.17,59.68c.31.23.67.25,1.05.13.71-.21,1.43-.39,2.15-.56,1.04-.25,2.04-.1,3,.37.71.35,1.18.3,1.37-.14.24-.55-.03-1-.47-1.26-1.17-.68-2.34-1.42-3.79-1.34-1.12.02-2.2.26-3.18.83-1.06.61-1.1,1.25-.13,1.98Z" style="stroke-width: 0px;"/>
    </g>
  </g>
</svg>