<?xml version="1.0" encoding="UTF-8"?>
<svg id="Layer_2" data-name="Layer 2" xmlns="http://www.w3.org/2000/svg" viewBox="0 0 104.97 137.23">
  <g id="Layer_1-2" data-name="Layer 1">
    <g>
      <path d="m68.32,128.62c.69-.17,1.37-.41,2.02-.74.28.11.55.2.84.28,1.48.42,3.04.45,4.53.09,1.02-.25,2-.68,2.92-1.27.39-.25.77-.52,1.12-.8,1.15.17,2.31.12,3.43-.15,1.26-.31,2.43-.87,3.49-1.69,2.89-2.23,4.17-6.25,3.92-12.3-.08-2.05-.34-4.29-.75-6.52,2.31-.63,4.59-1.33,6.78-2.11.05-.02.1-.04.15-.06l.04-.02s.08-.03.13-.05c3.13-1.29,5.26-3.95,5.86-7.3.05-.3.09-.61.12-.92,1.52-1.63,1.91-3.41,2-4.34.18-1.86-.33-3.52-1.21-4.97.74-1.88.6-4-.38-5.87-.99-1.88-2.47-3.17-4.13-3.97-.74-4.32-2.22-11.23-4.72-16.65l.11-1.72c3.75-5.91,4.75-13.61,2.96-22.91-1.02-5.31-2.77-10.03-3.96-12.86.35-1.09.67-2.38.82-3.74.28-2.5-.7-4.96-2.62-6.56-3.15-2.63-7.76-2.05-11.15-1.27-4.05-1.71-12.92-5.06-22.82-6.29C56.19,1.31,53.53.17,51.22.02c-.61-.04-1.56-.05-2.85.26h0c-2.29.56-5.07,2.03-8.69,4.62-13.58,3.58-22.98,12.98-25.86,25.9-1.68,7.53-.23,15.24,4.18,22.31,1.81,2.9,3.85,5.29,5.69,7.13-3.21,6.32-4.69,14.17-2.14,22.09-1.03.49-1.95,1.2-2.7,2.09-1.94,2.27-2.56,5.61-1.84,8.55-.99-.08-2,0-3.03.26-5.16,1.25-10.13,6.75-12.02,9.06l-.64.78c-1.04,1.27-1.5,2.92-1.25,4.54.25,1.62,1.17,3.06,2.54,3.96l.84.55c1.24.81,7.16,4.42,13.51,4-.01.08-.03.17-.04.25-1.09,7.66,3.73,15.9,4.71,17.47l.43.69c1.34,2.15,3.89,3.14,6.26,2.56.41-.1.81-.24,1.2-.44l.73-.36c1.4-.7,8.56-4.51,11.67-11.36,2.16-4.75.72-10.18-1.13-14.27,1-.35,2.06-.75,3.2-1.19-1.38,4.42-1.04,6.71-.89,7.7.55,3.66,2.61,6.42,5.67,7.57,1.23.46,2.57.63,3.95.51,1.68,1.64,3.81,2.56,6.16,2.58.89,0,1.79-.1,2.67-.31.02,0,.04-.01.06-.02,1.59,1.05,3.42,1.54,5.35,1.37.45-.04.91-.11,1.36-.22Zm-1.86-5.53c.18-.02.36-.05.54-.1-.02,0-.03.01-.05.01-.16.04-.33.07-.49.08Zm-11.28-4.79s0,0,0,0c0,0,0,0,0,0h0Zm-.49.29c-.06.03-.11.06-.17.09.06-.03.12-.06.17-.09Zm-.54.28c-.07.03-.15.07-.22.1.07-.03.15-.06.22-.1Zm-3.81-10.08c.24-.6.5-1.2.76-1.78-.26.58-.52,1.18-.76,1.78-.24.6-.47,1.2-.67,1.8.2-.6.43-1.2.67-1.8ZM31.11,14.95c.3-.2.6-.41.91-.6-.31.19-.61.4-.91.6Zm-4.66,3.91c.25-.26.49-.53.76-.78-.26.25-.51.52-.76.78Zm1.44-1.4c.27-.24.53-.49.81-.72-.28.23-.54.48-.81.72Zm1.56-1.31c.28-.22.56-.45.86-.66-.29.21-.57.44-.86.66Zm39.26,105.96c.09-.07.17-.14.26-.21-.08.07-.17.14-.26.21Zm-1.51.82c.11-.04.22-.07.33-.12-.11.05-.22.08-.33.12Zm.54-.21c.1-.05.2-.1.3-.15-.1.06-.2.11-.3.15Zm.5-.28c.09-.06.19-.12.28-.18-.09.06-.18.13-.28.18Zm1.29-1.06c.09-.09.17-.17.25-.26-.08.09-.16.17-.25.26Zm-.39.38c.09-.08.17-.15.25-.23-.08.08-.16.16-.25.23Zm1.07-1.12c-.1.12-.2.24-.31.37.11-.13.22-.25.31-.37h0ZM43.4,9.33c.3-.21.6-.42.88-.61-.28.19-.58.39-.88.61Zm.9-.62c.29-.2.56-.37.83-.54-.27.17-.54.35-.83.54Zm1.02-.67c.24-.15.48-.3.7-.43-.22.13-.46.28-.7.43Zm.75-.46c.24-.14.46-.27.67-.39-.21.12-.43.25-.67.39Zm29.42,114.56c-.19.12-.37.22-.56.31.19-.08.38-.19.56-.31.19-.12.36-.24.53-.37-.17.12-.34.25-.53.37ZM46.9,7.1c.19-.11.38-.21.55-.3-.17.09-.36.19-.55.3Zm.6-.32c.19-.1.36-.18.53-.26-.17.08-.34.16-.53.26Zm.65-.32c.15-.07.29-.13.42-.19-.13.06-.28.12-.42.19Zm.47-.21c.15-.06.28-.11.41-.16-.13.05-.26.1-.41.16Zm.5-.19c.11-.04.22-.07.32-.1-.1.03-.21.06-.32.1Zm.99-.26s.02,0,.04,0c-.01,0-.02,0-.04,0Zm.28-.03s.05,0,.08,0c-.03,0-.05,0-.08,0Zm.23,0s.04,0,.06,0c-.02,0-.04,0-.06,0Zm30.58,114.73c-.22,0-.44,0-.66-.04.22.04.44.05.66.04Zm.21-.03c.15-.02.3-.03.44-.07-.02,0-.03.01-.05.02-.13.03-.26.04-.39.05Zm1.14-.34c.2-.1.39-.22.58-.37-.19.15-.38.27-.58.37Zm-.63.25c.2-.06.39-.13.59-.23-.19.1-.39.17-.59.23Zm4.18-19.87c-1.08.26-2.16.5-3.22.72,1.07-.22,2.15-.46,3.23-.72h0Zm8.63-2.56l-.04.02.04-.02c.33-.13.62-.3.89-.49-.26.19-.56.36-.89.49Zm-.04-12.76s.02,0,.04,0c-.02,0-.04,0-.04,0Zm.07,0s.06,0,.1,0c-.04,0-.07,0-.1,0Zm.15-.02s.11-.01.17-.02c-.06,0-.12.01-.17.02Zm.22-.03c.08-.01.17-.02.26-.04-.09.01-.18.03-.26.04Zm.34-.05c.07-.01.15-.03.23-.04-.08.01-.15.03-.23.04Zm.34-.06c.08-.02.16-.03.25-.05-.09.02-.17.04-.25.05Zm.35-.08c.11-.03.22-.06.33-.09-.1.03-.2.06-.3.08-.01,0-.02,0-.04,0Zm1.76-.75c-.08.06-.16.12-.25.18.09-.05.17-.11.25-.18Zm-.3.21c-.1.06-.2.11-.3.16.11-.05.21-.1.3-.16Zm-.37.19c-.11.05-.22.09-.33.14.11-.04.23-.09.33-.14Zm-.33.14c-.12.04-.23.08-.35.11.12-.03.24-.07.35-.11Zm-8.28-24.3c.37.7.72,1.45,1.05,2.23-.33-.78-.68-1.53-1.05-2.23l.3-4.85-.3,4.85Zm9.31,23.75c.08-.07.15-.14.21-.22-.06.08-.13.15-.21.22Zm.25-.27c.06-.08.11-.16.15-.25-.04.09-.09.17-.15.25Zm.22-.54c0,.09-.03.18-.06.26.03-.08.05-.17.06-.26Zm0-.05c0-.1,0-.2-.03-.31.02.11.03.21.03.31Zm-.19-.75c.07.13.11.25.14.36-.03-.12-.07-.24-.14-.36Zm-5.92-44.33c.11.85.2,1.72.26,2.58-.06-.87-.15-1.73-.26-2.58-.11-.85-.25-1.7-.41-2.53.16.83.3,1.67.41,2.53Zm-.67-3.75c-.18-.81-.37-1.6-.57-2.37-.61-2.3-1.32-4.38-1.97-6.08-.75-1.98-1.42-3.44-1.74-4.12.14-.3.33-.73.53-1.27-.2.53-.39.97-.53,1.27.33.69.99,2.14,1.74,4.12.64,1.7,1.35,3.78,1.97,6.08.2.77.4,1.56.57,2.37Zm-6.08-19.18c.13,0,.25,0,.37,0-.12,0-.25,0-.37,0Zm.49,0c.16,0,.31.02.46.03-.15-.02-.3-.03-.46-.03Zm2.06.58c-.09-.07-.18-.13-.29-.19.1.06.2.12.29.19Zm-1.49-.54c.11.01.22.03.33.05-.11-.02-.21-.04-.33-.05Zm.47.08c.09.02.18.04.26.07-.08-.03-.17-.05-.26-.07Zm.39.11c.08.03.16.06.24.1-.08-.04-.15-.07-.24-.1Zm-2.1-.24c-.11,0-.23,0-.34.02.11,0,.23-.01.34-.02Zm-.53.03c-.12,0-.24.02-.36.03.12-.01.24-.02.36-.03Zm-.53.05c-.17.02-.34.04-.51.07.17-.03.34-.05.51-.07Zm-.53.07c-.18.03-.36.06-.53.09.18-.03.35-.06.53-.09Zm-.7.12c-.12.02-.24.04-.36.07.12-.02.24-.05.36-.07Zm-.55.11c-.11.02-.23.05-.34.07.11-.02.23-.05.34-.07Zm-.52.11c-.13.03-.25.06-.37.09.12-.03.24-.06.37-.09Zm-.49.11s-.07.02-.1.03c.03,0,.05-.01.08-.02,0,0,.02,0,.03,0Zm-.82.21c.05-.01.11-.03.16-.04-.06.01-.11.03-.16.04Zm-30.95-10.24c-.09.02-.18.04-.28.07.09-.03.17-.05.25-.07.01,0,.02,0,.04,0Zm-7.9,4.41c.1-.02.19-.05.29-.07.35-.26.68-.49,1-.72-.32.23-.65.46-1,.72-.44.1-.86.23-1.28.34.33-.09.65-.19.99-.27Zm-3.13.93c.36-.12.72-.25,1.1-.37-.37.11-.73.24-1.1.37Zm-1,.34c-.36.13-.7.28-1.05.43.35-.14.69-.29,1.05-.43Zm-2,.82c-.34.15-.67.32-1.01.49.33-.16.66-.33,1.01-.49Zm-1.91.93c-.33.17-.64.36-.96.55.32-.18.63-.37.96-.55Zm-8.01,6.21c-.24.27-.47.56-.7.84.23-.28.46-.57.7-.84Zm-1.27,1.53c-.22.29-.43.6-.64.9.21-.3.42-.61.64-.9Zm-1.16,1.62c-.21.31-.39.64-.58.96.19-.32.38-.65.58-.96Zm1.8,30.59c-.39-.49-.78-1-1.17-1.54.38.54.77,1.05,1.17,1.54Zm-5.71-21.33c.15-.65.31-1.29.5-1.92-.19.63-.35,1.27-.5,1.92Zm15.46,68.84c.07-.05.14-.09.21-.14-.07.05-.14.09-.21.14Zm.54-.37c.07-.05.14-.1.2-.15-.07.05-.13.1-.2.15Zm-1.72.96s.05-.02.08-.04c-.03.01-.05.02-.08.04Zm.6-.27c.07-.03.14-.07.2-.11-.07.04-.13.08-.2.11Zm-1.32.47s.05,0,.08-.02c-.03,0-.05,0-.08.02Zm-1.17.15s-.03,0-.05,0c.18-.02.36-.04.57-.06-.19.01-.35.04-.52.06Zm-8.16-14.01s.03-.02.04-.03c-.01,0-.03.02-.04.03Zm.35-.2s.04-.02.06-.03c-.02,0-.04.02-.06.03Zm11.92,12.5c.06-.05.12-.1.18-.15-.06.05-.12.1-.18.15Zm.61-.54s-.09.08-.13.12c.04-.04.09-.08.13-.12Zm2.94,5.49c-.19.07-.37.13-.55.2.18-.06.36-.13.55-.2Zm-.83.3c-.19.07-.37.13-.54.19.18-.06.36-.12.54-.19Zm1.76-.64c-.22.08-.44.16-.65.24.21-.08.43-.16.65-.24Zm-11.45-42.11c.23-.43.45-.84.67-1.21-.22.37-.44.78-.67,1.21Zm1.84-3.04c-.25.35-.54.79-.85,1.3.31-.51.6-.95.85-1.3.08-.12.16-.23.23-.33-.1-.08-.21-.16-.32-.25-.69-.55-1.65-1.38-2.73-2.45,1.08,1.07,2.04,1.89,2.73,2.45.11.09.22.18.32.25-.07.1-.15.21-.23.33Zm11.75,44.32c-.26.11-.52.21-.77.31.25-.1.51-.2.77-.31Zm-.98.39c-.32.12-.62.24-.92.35.3-.11.61-.23.92-.35ZM20.2,29.35c.14-.43.28-.87.44-1.29-.16.42-.29.86-.44,1.29Zm.75-2.05c.15-.38.3-.75.47-1.12-.17.37-.32.75-.47,1.12Zm.86-1.88c.17-.35.34-.7.53-1.03-.19.34-.35.69-.53,1.03Zm4.22,49.71c.04.73.11,1.48.23,2.24-.12-.76-.19-1.5-.23-2.24Zm2.05,8.09c.38.8.82,1.6,1.32,2.41.5.81,1.07,1.62,1.71,2.43.33.42.68.83,1.05,1.23-.37-.4-.72-.81-1.05-1.23-.64-.81-1.21-1.62-1.71-2.43-.5-.81-.94-1.61-1.32-2.41-.76-1.6-1.28-3.17-1.61-4.71.33,1.54.85,3.11,1.61,4.71Zm-2.37,4.1c.05,0,.11.02.16.03-.06-.01-.11-.02-.16-.03Zm.38.08c.06.01.11.03.17.04-.06-.02-.11-.03-.17-.04Zm.42.12c.06.02.11.04.17.06-.06-.02-.11-.04-.17-.06Zm.46.18c.05.02.1.04.15.06-.05-.02-.1-.04-.15-.06Zm-2.38-.36s-.07.01-.1.02c.01,0,.02,0,.03-.01.02,0,.05,0,.07-.01Zm.92-.05c-.05,0-.1,0-.15-.01.05,0,.1,0,.15.01Zm-.33-.02s-.1,0-.14,0c.05,0,.09,0,.14,0Zm-.31.02s-.09.01-.13.02c.04,0,.09-.01.13-.02Zm-1.42.62s-.01.01-.02.02c0,0,.01-.01.02-.02Zm-7.49,10.79s.06,0,.09,0c-.03,0-.06,0-.09,0Zm-.59.1s-.07.02-.11.03c.02,0,.04-.01.06-.02.02,0,.03,0,.05,0Zm-8.98,7.12s0,0,0,0c0,0,0,0,0,0l-.64.78.64-.78Zm8.26-6.9s-.06.03-.1.04c.03-.01.06-.03.1-.04Zm-.75.32s-.02.01-.03.02c0,0,.02-.01.03-.02Zm-.69.37s-.05.03-.07.04c.02-.01.05-.03.07-.04Zm-.72.45s-.07.05-.11.07c.04-.02.07-.05.11-.07Zm-.73.52s-.07.06-.11.08c.04-.03.07-.06.11-.08Zm-.73.57s-.05.04-.08.06c.03-.02.05-.04.08-.06Zm-.69.58s-.02.01-.02.02c0,0,.02-.01.02-.02Zm-.62.56s-.06.05-.08.08c.03-.03.06-.05.08-.08Zm-.62.59s-.06.06-.09.09c.03-.03.06-.06.09-.09Zm-.59.59s-.05.05-.08.08c.03-.03.05-.05.08-.08Zm-.54.56s-.02.02-.03.04c.01-.01.02-.02.03-.04Zm-.45.48s-.02.03-.04.04c.01-.01.02-.03.04-.04Zm-.39.43s-.04.04-.05.06c.02-.02.03-.04.05-.06Zm-.33.38s-.03.04-.05.06c.02-.02.03-.04.05-.06Zm-.25.3s-.02.02-.03.04c.01-.01.02-.02.03-.04Zm31.37-.22s.01,0,.02,0c0,0-.01,0-.02,0,0,0,0,0,0,0Zm5.02-1.88c.23-.09.47-.19.71-.29-.24.1-.47.19-.71.29Zm3.39-1.41c-.4.17-.79.34-1.17.5.38-.16.77-.33,1.17-.5Zm-1.53.65c-.26.11-.52.22-.77.32.25-.1.51-.21.77-.32Zm4.44,14.96c-.14-.29-.25-.62-.34-.98-.04-.18-.08-.37-.11-.57-.13-.9-.06-1.95.16-3.07-.22,1.12-.3,2.17-.16,3.07.03.2.07.39.11.57.09.36.2.69.34.98.14.29.31.54.5.76-.19-.22-.36-.47-.5-.76Zm1.54,1.47c.17.07.35.11.53.14-.18-.03-.36-.07-.53-.14Zm1.08.17c-.12,0-.24,0-.37-.02.12.01.24.02.37.02Zm.22-.01c.11,0,.23-.02.34-.04-.11.02-.23.03-.34.04Zm.57-.08c.1-.02.2-.05.3-.07-.05.01-.09.03-.13.04-.05.01-.11.02-.16.03Zm.91-.27c-.08.03-.16.06-.25.09.08-.03.17-.06.25-.09Zm5.98,2.86c.07,0,.14-.03.2-.04-.07.01-.13.03-.2.04Zm.62-.11s0,0-.01,0c.18-.04.35-.09.51-.15-.16.06-.33.11-.5.15Zm2.79-1.48c-.1.08-.21.17-.32.25.11-.09.22-.17.32-.25Zm-.42.33c-.09.06-.18.13-.27.19.09-.06.19-.13.27-.19Zm-.39.27c-.13.09-.27.17-.41.25.14-.08.28-.16.41-.25Zm-.44.27c-.13.07-.27.14-.41.21.14-.07.28-.14.41-.21Zm-.55.27c-.12.05-.24.1-.36.15.12-.05.24-.09.36-.15Z" style="fill: #e2d6c7; stroke-width: 0px;"/>
      <g>
        <path d="m62.98,120.39c.6,1.25,1.72,2.85,3.49,2.7,1.56-.13,2.91-1.44,3.73-2.46.56.77,1.43,1.65,2.55,1.97.53.15,1.07.16,1.6.03.39-.09.77-.26,1.14-.5,1.49-.96,2.3-2.03,2.75-2.9.59.54,1.38,1.07,2.32,1.23.91.15,1.8-.09,2.59-.7,2.74-2.11,1.83-11.69-.25-18.53,1.07-.22,2.15-.46,3.23-.72,2.82-.69,5.7-1.53,8.58-2.55l.04-.02c1.3-.54,2.13-1.57,2.38-2.98.16-.88.07-1.87-.17-2.84,6.12-2.09-2.25-6.94-2.25-6.94,0,0,4.72-.35,3.53-2.62-1.19-2.27-4.14-1.88-4.14-1.88,0,0-1.48-12.76-5.45-20.26l.3-4.85c8.5-11.22-.09-30.54-1.58-33.67.37-.79,1.12-2.58,1.33-4.53.07-.6-.14-1.13-.58-1.5-1.49-1.24-5.82-.22-7.94.39-2.11-.97-13.91-6.19-26.52-6.97-.24-2.89-1.83-3.45-2.81-3.52-.61-.04-2.44-.16-8.68,4.44-11.97,2.81-20.24,10.74-22.71,21.83-3.2,14.34,8.5,24.62,11.65,27.09-2.31,3.19-10.2,15.94.03,28.92.67.85,1.4,1.64,2.2,2.39-2.35-.89-4.47-1.77-5.71-2.45-2.52-1.37-3.83-.5-4.38.15-1.06,1.24-.93,3.51-.11,4.57,1.11,1.44,8.84,5.2,13.86,6.37-1,1.05-2.7,2.46-4.58,2.57-2.47.14-3.28,1.09-3.52,1.86-.3.96.17,2.07,1.22,2.91.68.54,2.27,1.8,16.25-4.2.79.13,3.19.51,6.76.79-2.02,3.69-4.85,9.67-4.31,13.27.24,1.6.91,2.61,1.99,3.02,1.47.55,3.24-.28,4.39-1.01.53,1.76,1.67,3.71,3.72,3.73,1.74.01,3.16-.87,4.06-1.64Zm-7.78-4.32c-.79.67-2.75,1.93-3.75,1.55-.43-.16-.71-.7-.85-1.6-.46-3.11,2.39-9.08,4.51-12.86,6.44.38,15.75.34,26.04-1.58,2.17,6.94,2.54,15.51.92,16.76-.4.31-.78.42-1.19.35-.99-.16-1.93-1.29-2.21-1.71l-1.42-2.13-.23,2.56c0,.07-.18,1.73-2.49,3.22-.45.29-.85.37-1.26.25-1.04-.29-1.92-1.73-2.18-2.25l-.72-1.51-.87,1.43c-.41.68-1.89,2.64-3.18,2.76-.97.08-1.87-1.87-2.13-2.77l-.49-1.7-1.09,1.39s-1.6,2.02-3.68,2c-1.45,0-2.13-2.65-2.26-3.58l-.22-1.64-1.26,1.07Zm-9.05-15.71l-.25.11c-12.7,5.47-14.5,4.66-14.67,4.55-.5-.4-.67-.81-.62-.95.04-.14.47-.52,1.91-.6,3.86-.23,6.78-4.28,6.9-4.46l.87-1.23-1.5-.19c-4.74-.59-13.49-5.07-14.23-5.98-.32-.42-.42-1.74.06-2.3.46-.54,1.54-.07,2.14.26,2.45,1.34,8.04,3.38,12.24,4.83,2.11,1.1,4.45,1.97,6.98,2.63,0-.03.02-.06.03-.08.17-.51.43-1.12.83-1.55-6.12-1.51-11.03-4.36-14.27-8.47-10.83-13.75.04-26.85.51-27.4l.65-.76-.83-.57c-.15-.1-15.06-10.53-11.67-25.77,2.29-10.28,9.95-17.69,21.04-20.39.16-.04.33-.08.5-.12l.18-.04.15-.11c5.41-4.01,7.22-4.23,7.64-4.2.78.05,1.17.91,1.15,2.57v.87s1.03.04,1.03.04c13.49.67,26.66,6.92,26.8,6.98l.31.15.33-.1c2.84-.84,5.88-1.24,6.54-.87-.25,2.19-1.32,4.23-1.33,4.25l-.22.41.21.41c.11.21,10.47,21.34,1.8,32.38l-.17.22-.18,2.94c-.77-.97-1.61-1.74-2.52-2.21-7.15-3.71-15.22,7.23-13.3,19.74,1.09,7.11,6.68,12.25,12.65,15-1.75,1.56-4.9,3.22-10.53,4.5.04.07.07.13.1.21.18.49.15,1.05.18,1.58.33-.07.67-.15.99-.23,5.24-1.27,8.94-3.05,11.07-5.29,3.47,1.31,6.92,1.8,9.58,1.41.18.73.25,1.47.14,2.11-.14.8-.55,1.31-1.27,1.62-24.1,8.52-47.44,4.19-47.67,4.15l-.27-.05Zm40.84-20.55c.35-.14.89-.09,1.14.24.42.54.64,1.24.38,1.91-.15.38-.43.66-.86.7-.43.05-.74-.17-.98-.5-.26-.37-.37-.84-.36-1.28,0-.03,0-.05,0-.07,0-.02,0-.04,0-.05-.04-.41.32-.81.68-.94Zm-8.36-4.6c-.04.46-.33.88-.8.99-.83.19-1.7-.11-2.17-.83-.43-.66-.26-1.56.34-2.05.68-.55,1.74-.53,2.22.29.07.12.11.24.14.37.2.38.3.82.27,1.24Zm1.61,5.34c.6-.89,1.91-.78,2.45.11.25.4.28.91.16,1.35-.15.55-.65.9-1.22.85-.37-.03-.7-.21-.93-.48-.2-.12-.37-.29-.48-.47-.23-.4-.23-.97.03-1.36Zm2.86-4.04c-.68-.02-1.27-.55-1.43-1.2-.14-.57.05-1.31.49-1.72.6-.57,1.54-.48,1.93.28.16.33.24.73.2,1.12.07.73-.35,1.55-1.19,1.52Zm.22-9.86c-.68,1.78-3.11,1.56-3.99.09-.88-1.49.06-3.49,1.85-3.53.54-.01,1.01.2,1.35.54.09.06.18.12.25.19.67.65.87,1.85.54,2.72Zm4.32,6.97c-.3.34-.97.33-1.26-.02-.11-.14-.2-.29-.28-.44-.09-.11-.17-.24-.22-.4-.14-.5.22-1.07.72-1.18.14-.03.28-.04.42-.05.33-.01.66.22.82.5.3.55.19,1.13-.21,1.59Z" style="stroke-width: 0px;"/>
        <path d="m70.04,95.52c0-.07,0-.13-.02-.2-.19-.73-.89-1.08-1.61-.96-.78.13-1.32.69-1.58,1.42-.03.09-.06.18-.08.27-.17.58-.25,1.22-.22,1.85.03.74.19,1.48.46,2.12.54,1.25,2.82.74,2.68-.65-.07-.64-.2-1.27-.21-1.91,0-.19,0-.39.03-.58.06-.51.56-.84.56-1.35Z" style="stroke-width: 0px;"/>
        <path d="m72.04,94.48c-.37.21-.65.5-.86.83-.34.55-.47,1.23-.43,1.92.06,1.11.54,2.25,1.22,2.93.84.84,2.44.06,2.1-1.15-.17-.6-.36-1.26-.45-1.88-.02-.15-.03-.31-.04-.47-.03-.53,0-1.09-.18-1.58-.03-.07-.06-.14-.1-.21-.25-.43-.76-.67-1.25-.38Z" style="stroke-width: 0px;"/>
        <path d="m53.03,96.45c.02-.09.05-.18.07-.27.17-.67-.6-1.5-1.27-1.02-.42.3-.76.64-1.01,1.04-.18.28-.32.59-.43.95-.07.25-.13.51-.16.77-.07.63,0,1.26.3,1.83.42.79,1.87.75,2.05-.22.08-.44.08-.87.11-1.3,0-.15.02-.29.04-.44.06-.44.18-.89.3-1.33Z" style="stroke-width: 0px;"/>
        <path d="m46.04,99.5c.42.62,1.36.76,1.79.03.34-.58.3-1.24.43-1.88,0-.02.01-.05.02-.07.13-.57.43-1.15.42-1.74,0-.02,0-.03,0-.05-.03-.71-.68-1.07-1.31-.8-.22.1-.41.25-.58.43-.4.43-.65,1.04-.83,1.55,0,.03-.02.06-.03.08-.24.76-.39,1.77.08,2.45Z" style="stroke-width: 0px;"/>
        <path d="m36.33,59.54l.22.12h.25c.21-.02,4.07-.17,9.22-1.42,1.46-.35,3.02-.8,4.63-1.35,9.74-3.35,16.5-9.16,19.55-16.81,3.13-7.85,1.24-15.37-4.94-19.63-5.87-4.05-15.97-4.91-24.63,2.5-2.08-2.27-6.26-4.88-10.64-1.92-5.87,3.97-10.91,15.32-5.81,24.81.33.76,4.14,9.3,12.15,13.7Zm3.48-34.76l.6.8.74-.68c8.08-7.41,17.64-6.74,23.09-2.98,5.53,3.81,7.13,10.35,4.29,17.48-6.54,16.4-28.95,18.27-31.55,18.43-7.5-4.23-11.11-12.65-11.15-12.73l-.04-.08c-4.66-8.61-.1-18.9,5.21-22.5,4.67-3.16,8.65,2.03,8.81,2.25Z" style="stroke-width: 0px;"/>
        <path d="m36.88,46.56c.99.61,2.06-4.98,3.72-5.63,1.66-.65,4.59-.03,3.54-4.86,0,0-2.14-4.32-4.94-3.88-2.8.44-6.46,6.78-2.32,14.36Z" style="stroke-width: 0px;"/>
        <path d="m55.31,41.43c4.11-.46,9.42-4.97,8.11-9.5-.43-1.49-2.53-1.25-2.67.28-.26,2.83-3.35,5.33-6.04,5.73-3.45.51-4.58-2.51-6.03-4.94-.45-.76-1.71-.51-1.72.42-.07,4.76,3.42,8.57,8.36,8.01Z" style="stroke-width: 0px;"/>
        <path d="m31.17,35.46c-.52.93-1.49,2.74-2.81,2.43-1.27-.3-1.46-2.17-2.3-2.98-.44-.43-1.2-.27-1.38.34-.66,2.2,1.12,5.02,3.39,5.36,2.77.41,4.38-1.93,5.3-4.17.53-1.28-1.53-2.17-2.2-.98Z" style="stroke-width: 0px;"/>
        <path d="m33.87,72.03c2.72,1.17,4.88-.55,6.52-2.58.81,1.28,2.26,2.12,3.92,2.15,2.2.04,3.82-1.36,4.95-3.08,1.24,1.5,3.13,2.35,5.21,2.03,2.3-.35,3.9-2.01,4.67-4.05,1.36.87,2.97,1.21,4.63.67,2.05-.67,3.67-2.53,3.62-4.72-.02-.87-1.36-1.47-1.79-.53-.51,1.12-.95,2.18-2.11,2.77-1.5.76-3.09.36-4.19-.91-.51-.59-1.69-.35-1.84.45-.29,1.49-1.05,2.88-2.46,3.59-1.74.88-4.01.09-4.71-1.77-.39-1.03-1.68-1.11-2.11-.05-.48,1.2-1.29,2.38-2.5,2.94-1.5.69-3.67.06-3.79-1.86-.07-1.03-1.41-1.59-2.02-.6-.82,1.34-1.83,2.91-3.44,3.38-2.44.72-3.21-1.71-2.46-3.59.34-.85-.86-1.46-1.46-.89-2.1,2-1.26,5.52,1.36,6.65Z" style="stroke-width: 0px;"/>
        <path d="m40.1,80.12c2.27,2.65,6.41,2.35,7.96-.86,3.22,2.21,7.86,1.4,9.06-2.42,1.79,1.08,3.85,1.91,5.89,1.05,2.08-.88,3.33-3.26,2.75-5.44-.24-.92-1.71-.82-1.7.18.02,1.94-.9,3.66-3.04,3.63-1.55-.02-2.83-.94-4.08-1.77-.61-.41-1.39.1-1.43.78-.23,3.99-4.87,4.2-7.22,1.89-.46-.45-1.31-.3-1.48.36-.77,2.98-4.63,3.57-5.89.59-.28-.65-1.22-.55-1.55-.03-1.4,2.17-5.16,2.47-5.04-.88.03-.79-1.08-.93-1.34-.22-.68,1.9.37,3.94,2.29,4.63,1.86.67,3.64-.12,4.84-1.48Z" style="stroke-width: 0px;"/>
        <path d="m54.2,86.91c1.31,1.13,2.82,2.06,4.68,1.72,1.67-.31,2.52-1.53,3.05-2.96,1.23.66,2.63.85,4.03.26,1.71-.73,3.04-2.64,2.56-4.5-.15-.58-1.12-.87-1.41-.22-.9,2.02-2.48,4.58-5.03,2.42-.49-.42-1.32-.34-1.52.37-.45,1.63-1.12,3.11-3.25,2.62-1.08-.24-2.08-.98-2.96-1.63-.36-.27-1.05-.03-1.12.43-.49,2.94-4.16,3.61-5.87,1.26-.47-.64-1.67-.56-1.66.4-.11,1.59-1,2.12-2.67,1.58-.55-.39-.92-.89-1.11-1.51-.33-.78-1.36-.2-1.28.5.47,3.76,5.15,4.02,6.47,1.24,2.45,1.8,5.62.69,7.1-1.99Z" style="stroke-width: 0px;"/>
        <path d="m32.26,107.48l-.65.26c-.33.13-8.1,3.33-8.97,9.41-.84,5.9,3.7,13.3,3.9,13.61l.43.69.73-.36c.27-.13,6.58-3.3,8.97-8.57,2.47-5.45-3.73-14.11-4-14.48l-.41-.57Zm-4.62,21.59c-1.09-1.96-3.82-7.41-3.22-11.66.59-4.13,5.42-6.83,7.2-7.7,1.3,1.97,5.12,8.29,3.4,12.07-1.67,3.68-5.72,6.32-7.39,7.29Z" style="stroke-width: 0px;"/>
        <path d="m25.31,103.4l.19-.62-.52-.38c-.19-.13-4.64-3.31-8.31-3.69-3.85-.4-9.6,6.44-10.25,7.22l-.64.78.84.55c.26.17,6.34,4.09,11.42,2.86.17-.04.34-.09.51-.14,5.22-1.66,6.7-6.38,6.76-6.58Zm-16.82,2.88c2.31-2.62,6.01-5.98,7.98-5.77,2.49.26,5.61,2.15,6.87,2.98-.53,1.17-2.02,3.72-5.34,4.78-3.35,1.06-7.67-.97-9.51-1.98Z" style="stroke-width: 0px;"/>
      </g>
    </g>
  </g>
</svg>