<?xml version="1.0" encoding="UTF-8"?>
<svg id="Layer_2" data-name="Layer 2" xmlns="http://www.w3.org/2000/svg" viewBox="0 0 138.49 137.29">
  <g id="Layer_1-2" data-name="Layer 1">
    <g>
      <path d="m132.31,51.57c-.54-2.85-1.92-5.37-4.12-7.47-.56-.54-1.12-1.08-1.69-1.61-.13-.12-.26-.24-.38-.37.24-.21.43-.4.57-.54l.07-.07c2.93-2.77,4.65-6.19,5.12-10.14.32-2.71-.5-5.53-2.26-7.73-.84-1.05-1.85-1.91-2.98-2.56-.85-1.72-2.02-3.33-3.5-4.82-.63-5.47-4.31-10.4-9.66-12.38-2.17-.8-4.21-1.03-5.75-1.14-.71-.05-1.45-.08-2.25-.08-1.06,0-2.05.04-3,.08l-.79.03c-.41.02-.82.02-1.21.02-1.72,0-3.25-.16-4.66-.48-1.39-.32-2.83-.76-4.36-1.23-2.4-.74-4.79-1.1-7.15-1.1-3.44,0-6.84.78-10.11,2.31-3.74,1.75-6.65,4.32-8.59,7.55-.56.24-1.11.51-1.65.84-4.52,2.66-7.55,6.85-8.78,12.12-.84,3.61-.97,7.31-.38,11,.05.31.09.62.14.93.17,1.21.39,2.72.88,4.32.25.81.46,1.62.65,2.43-1.19-.17-2.32-.25-3.41-.25-2.16,0-4.23.33-6.17.98-5.4,1.81-9.27,5.46-11.18,10.55-.69,1.84-1,3.7-.94,5.54-.21.16-.42.32-.63.48-5.97,4.78-8.9,11.1-8.49,18.26.26,4.53,2.28,8.54,5.47,11.35-1.32-.13-2.62-.2-3.91-.2-3.98,0-7.91.63-11.68,1.86-4.5,1.47-7.9,3.39-10.69,6.05-1.18,1.12-2.54,2.53-3.6,4.49-1.44,2.64-1.61,5.66-.47,8.29,1.14,2.63,3.47,4.56,6.39,5.31.99.25,2.02.38,3.07.38.38,0,.77-.02,1.15-.05.6-.05,1.18-.1,1.68-.11h0c.19,0,.26.02.37.09.51.3,1.13.93,1.56,1.39,1.82,1.93,3.59,3.67,5.41,5.32,2.87,2.6,6.25,4.38,10.06,5.27,2.26.53,4.63.8,7.06.8,1.12,0,2.27-.06,3.42-.17,2.62-.26,5.05-.85,7.27-1.78,3.78,3.97,8.43,7.03,13.87,9.11,4.9,1.88,10.02,2.83,15.22,2.83,3.22,0,6.53-.37,9.84-1.09,8.15-1.78,15.3-5.49,21.24-11,7.13-6.61,11.42-14.42,12.79-23.26,1-.8,1.81-1.79,2.41-2.93,2.03-1.58,3.4-3.88,3.83-6.34,1.02-1.72,1.49-3.71,1.3-5.73-.29-3.18-2.15-5.99-5.01-7.59,1.75-2.6,3.17-5.5,4.26-8.68,1.21-3.53,1.89-6.91,2.04-10.24.97-.98,1.75-2.27,2.18-3.9.41-1.56.46-3.23.13-4.96Z" style="fill: #e2d6c7; stroke-width: 0px;"/>
      <g>
        <path d="m125.41,49.46c-.26-1.35-.94-2.47-1.93-3.42-1.25-1.2-2.51-2.4-3.76-3.6-.75-.72-1.33-1.57-1.91-2.43-.21-.3-.2-.56-.03-.9.63-1.26,1.26-2.52,1.83-3.81.39-.86.83-1.63,1.68-2.11.3-.18.55-.45.8-.69,1.6-1.51,2.55-3.33,2.81-5.54.16-1.35-.89-2.98-2.52-3.15-.37-.04-.73.04-1.11.03-.36-2.89-1.94-5-4.08-6.76-.25-.21-.5-.42-.78-.59-.32-.2-.39-.42-.32-.81.64-3.43-1.41-6.99-4.69-8.2-1.18-.44-2.42-.6-3.67-.69-1.74-.13-3.47-.02-5.21.05-2.64.1-5.25-.05-7.84-.64-1.67-.38-3.3-.88-4.93-1.38-4.05-1.24-7.97-.96-11.81.83-3.07,1.44-5.3,3.63-6.36,6.91-.1.31-.2.44-.55.41-.98-.09-1.87.24-2.7.73-2.83,1.67-4.52,4.17-5.25,7.32-.63,2.67-.71,5.37-.28,8.08.23,1.42.36,2.85.78,4.23.61,1.98,1.07,3.99,1.38,6.03.2,1.37.01,2.7-.53,3.98-.67,1.56-1.84,2.42-3.56,2.55-1.4.12-2.77-.04-4.13-.28-2.33-.41-4.63-.48-6.92.28-3.08,1.04-5.34,2.96-6.5,6.04-.82,2.19-.52,4.27.82,6.19.12.17.32.31.31.55-.04.04-.07.08-.11.1-.16.05-.31.1-.47.14-1.63.49-3.14,1.22-4.47,2.28-3.8,3.06-5.95,6.92-5.66,11.92.23,4.06,3.12,7.33,7.1,8.17.9.18,1.82.17,2.71.23.1.21,0,.35-.06.49-1.84,4.24-2.49,8.63-1.83,13.21.02.16.1.35-.04.46-.19.16-.35-.02-.51-.12-2.19-1.37-4.58-2.18-7.11-2.67-5.28-1.01-10.48-.8-15.59.87-2.89.95-5.6,2.22-7.84,4.35-.83.79-1.61,1.61-2.17,2.62-.65,1.21-.17,2.3,1.15,2.64.56.14,1.13.17,1.7.12.73-.06,1.46-.12,2.19-.14,1.56-.02,3.01.35,4.36,1.14,1.23.72,2.26,1.69,3.23,2.71,1.6,1.7,3.26,3.34,4.99,4.91,1.93,1.75,4.18,2.92,6.7,3.51,2.64.62,5.33.73,8.02.47,3.4-.34,6.5-1.43,9.08-3.78.19-.18.36-.41.67-.47.09.12.2.25.28.38,3.54,5.51,8.46,9.34,14.54,11.66,6.76,2.59,13.69,2.96,20.73,1.41,6.72-1.47,12.67-4.47,17.72-9.15,6.52-6.05,10.39-13.41,10.81-22.42.02-.47.2-.55.62-.59,1.76-.17,2.52-1,2.55-2.71,0-.25.07-.33.3-.36.24-.03.49-.07.72-.15,1.19-.41,2.04-1.79,1.68-2.89-.17-.52-.03-.72.36-1.02,1.35-1.05,1.16-2.81-.35-3.59-.36-.19-.75-.32-1.13-.46-.44-.14-.89-.25-1.33-.4-.7-.23-1.32-.6-1.87-1.11-.36-.32-.48-.62-.28-1.13.52-1.38.5-2.77-.24-4.08-.2-.35-.08-.53.14-.78,2.56-2.84,4.35-6.14,5.59-9.74,1.32-3.84,1.97-7.78,1.52-11.86-.09-.89-.35-1.75-.46-2.64-.05-.09-.11-.19.02-.26.04-.02.13.04.2.06.73.28,1.24.85,1.78,1.38.52.5.82.4,1-.3.15-.54.12-1.08.02-1.62Zm-3.48-24.95c1.2-.08,2.24.88,2.22,2.09-.02,1.45-.5,2.77-1.32,3.96-.7,1.01-1.58,1.86-2.61,2.54-.42.28-.68.6-.89,1.08-1.49,3.38-3.15,6.67-5.35,9.66-1.99,2.69-3.83,5.47-5.47,8.38-.27.48-.54.74-1.15.57-.5-.15-1.03-.02-1.52.15-1.88.64-3.23,1.87-4.02,3.68-.52,1.21-.83,2.46-.76,3.8.03.66-.59,1-1.2.75-3.07-1.3-6.07-1.13-8.99.47-.82.44-1.43,1.09-1.69,2-.1.35-.3.54-.58.73-1.61,1.06-3.35,1.9-5.07,2.77-2.24,1.14-4.51,2.24-6.78,3.35-2.3,1.11-4.67,2.03-7.08,2.87-.48.17-.89.4-1.24.75-.59.6-1.18,1.2-1.79,1.78-1.09,1.05-2.3,1.91-3.84,2.17-1.6.26-3.15-.8-3.4-2.32-.11-.71.04-1.34.49-1.91.4-.51.91-.93,1.36-1.4.15-.15.32-.29.45-.47.3-.4.24-.61-.22-.81-.24-.11-.5-.19-.75-.3-.38-.17-.6-.46-.7-.85-.13-.52.08-.93.58-1.09.21-.07.44-.11.64-.09,1.81.22,3.58-.11,5.35-.36.1-.02.21-.03.32-.04.59-.04,1.25.06,1.76-.17.51-.23.96-.68,1.44-1.04,4.26-3.27,8.59-6.46,12.79-9.81,1.99-1.59,4.11-3.02,6-4.75.31-.28.69-.29,1.06-.32,1.35-.11,2.71-.1,4.06-.23,2.64-.24,5.08-1.05,7.44-2.2,1.72-.84,3.3-1.89,4.87-2.95,1.27-.86,2.32-1.96,3.24-3.18.56-.74.91-1.58,1.19-2.58.2.17.29.23.37.3.61.54,1.3.68,2.03.31.75-.38,1.14-1.06,1.04-1.87-.06-.54.07-.93.33-1.36.8-1.33.97-2.76.56-4.24-.15-.55-.11-.96.31-1.37.38-.38.71-.83.91-1.34.1-.25.3-.37.51-.5.56-.33,1.09-.7,1.59-1.13,1.5-1.28,2.5-2.84,2.79-4.82.08-.53.21-.63.72-.66Zm-9.49,50.45c-.39,2.23-1.2,4.25-2.75,5.97-1.02,1.12-2.07,2.23-2.89,3.62-1.64-1.27-3.54-1.49-5.41-1.84-1.49-.28-2.99-.51-4.48-.77-1.74-.3-3.31-1.02-4.78-1.97-1.31-.84-1.98-2.07-2.12-3.58-.15-1.51.15-3,.33-4.49.29-.04.31.16.38.28.56.92,1.4,1.4,2.44,1.58,1.25.23,2.44-.05,3.58-.5,2.36-.95,4.28-2.44,5.47-4.75.21-.41.43-.82.46-1.29.02-.36.19-.43.52-.43.91,0,1.57-.43,1.87-1.29.13-.36.3-.38.61-.32,1.93.35,3.71-.09,5.38-1.06.51-.3.55-.29.69.28.84,3.48,1.31,6.98.7,10.56Zm.83-.59c.01-.1.05-.2.08-.3.28-.1.44.08.59.22,1.29,1.15,1.74,2.6,1.36,4.26-.32,1.4-1.09,2.54-2.25,3.39-.77.56-1.59,1.03-2.49,1.36-.88.33-1.74.7-2.61,1.06-.04-.06-.07-.11-.11-.16.7-.83,1.35-1.7,2.09-2.48,1.99-2.06,2.99-4.55,3.34-7.35Zm-20.08,21.29c-.28-.17-.46.04-.64.19-.81.66-1.72.91-2.74.72-1.3-.24-1.89-1.18-1.54-2.45.06-.24.19-.48-.07-.66-.25-.17-.46.01-.67.13-.84.53-1.75.72-2.72.53-1.77-.34-2.5-1.79-1.73-3.42.08-.17.23-.32.12-.53-.14-.25-.37-.16-.58-.13-.38.04-.76.08-1.14.02-.88-.15-1.47-.67-1.76-1.5-.27-.8.02-1.58.75-2.15.12-.1.26-.2.4-.29,1.76-1.12,3.49-2.28,4.65-4.22.46.57.9,1.05,1.45,1.41,1.24.82,2.62,1.29,4.09,1.5,2.48.36,4.97.41,7.47.28,1.9-.1,3.79-.17,5.68.21.48.1.94.26,1.4.42.29.11.37.26.21.55-.23.46-.42.95-.67,1.39-1.86,3.17-3.98,6.15-6.58,8.76-.6.6-1.28,1.09-2.04,1.47-.53.25-1.07.37-1.66.31-1.07-.12-1.71-.89-1.6-1.95.02-.21.16-.43-.08-.59Zm-8.22-14.91c.1.29.05.52-.09.76-.18.3-.35.62-.57.89-1.34,1.58-2.89,2.82-5,3.28-1.44.32-2.89.46-4.35.58-1.71.14-3.39.41-5.02.97-1.29.44-2.37,1.18-3.18,2.3-.6.84-.77,1.78-.6,2.79.24,1.31,1.43,2.25,2.67,2.12.57-.06,1.04-.3,1.37-.78.11-.16.16-.36-.01-.52-.18-.16-.38-.1-.51.05-.51.62-1.13.75-1.8.36-.75-.42-1.07-1.12-1.04-1.98.04-.79.45-1.3,1.18-1.6.97-.4,1.87-.33,2.78.25,2.51,1.59,3.04,4.7,1.15,7.08-1.7,2.13-4.08,3.04-6.82,2.5-1.32-.25-2.37-1.05-3.17-2.14-.23-.31-.25-.64-.23-1,.09-1.74.02-3.47-.43-5.17-.3-1.16-.63-2.31-1.08-3.41-.28-.67-.19-1.25.08-1.87.66-1.5,1.72-2.61,3.1-3.47,2.63-1.64,5.49-2.68,8.48-3.44,2.39-.61,4.75-1.33,7.07-2.16,3.61-1.3,6.88-3.2,9.89-5.57.22-.17.42-.41.82-.56-.03.37-.06.61-.07.85-.01.43-.21.61-.62.79-3.04,1.37-5.03,4.87-4,8.1Zm-23.4,17.94c.29-.12.38.11.5.22,1.8,1.6,3.85,2.15,6.19,1.5,1.35-.38,2.58-.98,3.62-1.94,1.28-1.16,1.87-2.65,1.91-4.34.05-2.17-1.51-4.28-3.56-4.97-.63-.21-1.27-.16-2.07-.04.66-.69,1.34-1,2.06-1.24,1.42-.48,2.89-.74,4.38-.88,1.53-.14,3.08-.19,4.69-.59-.1.3-.18.5-.25.71-.33,1.03-.16,1.96.61,2.7.4.38.38.67.17,1.11-.49,1.05-.58,2.2-.74,3.32-.39,2.64-.9,5.25-1.54,7.82-.91,3.68-3.09,6.45-6.45,8.29-3.2,1.76-6.57,2.09-10.08,1.28-1.93-.45-3.97-1.93-5.09-3.66,1.65-.99,2.97-2.32,3.9-4.03.9-1.65,1.49-3.42,1.75-5.26Zm41.91-14.22c-2.06-.27-4.12-.1-6.18-.05-2.25.06-4.5.02-6.72-.41-.97-.18-1.88-.51-2.74-1-1.9-1.1-2.7-2.84-2.31-5.02.36-2.04,1.93-3.98,3.83-4.68-.04.7-.08,1.36-.11,2.02-.14,2.41.78,4.24,2.89,5.5,1.66.98,3.42,1.61,5.32,1.92,1.79.3,3.58.61,5.36.94.64.12,1.26.31,1.88.5.46.15.9.36,1.23.76-.83-.14-1.63-.37-2.45-.48Zm-13.02-18.84c-.85-.91-.86-1.88,0-2.79.49-.53,1.12-.86,1.78-1.12,1.17-.46,2.38-.73,3.83-.68,1.4-.03,2.88.31,4.25,1.14.19.12.35.22.42.45.06.18.19.34.36.42.28.14.37.34.35.65-.01.21.01.5.14.62.53.45.46,1.1.46,1.64,0,.71-.07,1.45-.43,2.13-1.48,2.77-3.81,4.39-6.85,4.98-.97.18-1.96.11-2.79-.55-.84-.65-.95-1.26-.4-2.16.24-.4.16-.58-.31-.64-.1-.02-.21,0-.32-.01-.79-.08-1.3-.46-1.5-1.15-.23-.77,0-1.45.66-1.93.09-.07.19-.11.28-.18.43-.31.44-.43.07-.82Zm12.1-1.14c-.45.01-.73-.3-.72-.77.01-.27.65-.82.96-.83.27-.01.64.42.64.73.01.46-.4.86-.88.87Zm1.1-.06c.2-.21.5.18.62.46.18.42,0,.81-.47,1.06-.17.09-.35.15-.53.15-.3.01-.57-.06-.74-.29-.09-.13-.17-.31-.16-.45.08-.75.89-.53,1.28-.93Zm-1.86-1.53c-.43,0-.74-.31-.73-.7.01-.42.31-.69.73-.68.39.01.68.33.68.74-.01.38-.3.65-.68.64Zm9.97-.4c-.24.37-.55.66-.92.9-1.21.8-2.55,1.17-4.36,1.23-.39.06-1.1-.33-1.87-.26-.33.03-.72-.45-.79-.84-.01-.05-.01-.11-.03-.16-.1-.51-.68-.63-.87-1.01-.19-.4-.18-.92-.67-1.13-.29-.12-.41-.31-.42-.61-.11-2.7.71-4.96,3.07-6.49.59-.39,1.25-.63,1.97-.68,1.08-.06,1.76.55,1.81,1.62.03.82.03.83.82.75.74-.07,1.32.19,1.79.76.48.58.54,1.73-.2,2.25-.55.39-.49.63.1,1.01,1,.65,1.22,1.67.57,2.66Zm-.31-7.32c-.12.21-.26.35-.52.19-.09-.05-.22-.06-.3-.12-.37-.3-1.13.21-1.24-.59-.08-.5-.34-.9-.63-1.3-.1-.14.03-.26.1-.36,1.49-2.49,2.95-5,4.8-7.46.26,1.15.15,2.15,0,3.12-.32,2.14-1.02,4.16-1.98,6.09-.07.15-.16.29-.23.43Zm-32.86-7.29c.69-.02,1.34.67,1.36,1.44.02.66-.49,1.22-1.13,1.25-.72.03-1.36-.62-1.4-1.4-.03-.71.48-1.28,1.17-1.29Zm-1.76.66c-1.53-.64-2.45-1.75-2.79-3.35-.23-1.08.02-2.04.83-2.82.35-.33.41-.33.68.07.59.87,1.16,1.76,1.74,2.64.45.67.9,1.34,1.43,2.12-.98.07-1.56.54-1.89,1.34Zm-2.46-9.95c-.22-.47-.19-.84.05-1.29,1.76-3.25,2.61-6.76,2.95-10.42.09-1.03.08-2.06-.04-3.09-.04-.29-.06-.59-.1-1.09,1.39,1.07,2.8,1.59,4.32,1.84,1.1.18,2.21.26,3.32.31,3.35.14,6.66-.22,9.97-.71,2.69-.4,5.38-.67,8.1-.73,2.07-.04,4.11.2,6.11.78.61.18.95.47,1.07,1.13.52,2.84.86,5.69.67,8.58-.12,1.7-.13,3.42-.35,5.11-.24,1.83-.72,3.57-1.89,5.04-.63.79-1.39,1.45-2.22,2.03-2.57,1.78-5.23,3.38-8.21,4.41-1.27.44-2.58.66-3.89.83-2.76.36-5.52.24-8.28-.09-2.27-.27-4.13-1.35-5.53-3.11-2.35-2.96-4.48-6.07-6.05-9.53Zm39.88-4.55c.5,1.41.4,2.77-.31,4.08-.09.16-.14.4-.47.26-1.07-.47-1.08-.46-2.22-.2.23-1.47.16-2.93.26-4.38.04-.44.08-.87.08-1.3.01-.39.19-.44.52-.36,1.06.25,1.78.88,2.14,1.9Zm.12-1.78c.22-.09.45-.16.78-.27-.12.35-.3.51-.46.69-.15.18-.27.1-.39-.05-.12-.15-.14-.29.07-.37Zm-.79,7.79c-.02.72-.54,1.27-1.2,1.29-.69.01-1.27-.62-1.26-1.4,0-.74.57-1.34,1.24-1.33.7.01,1.24.66,1.22,1.44Zm-1.94-9.62c-.18-1.79-.51-3.51-.79-5.24.93.23,2.03,1.39,2.2,2.35.23,1.29-.62,2.07-1.41,2.89Zm-39.18-18.22c.83-2.16,2.23-3.85,4.19-5.04,2.86-1.72,5.95-2.62,9.32-2.35,1.25.1,2.47.36,3.66.73,2.23.68,4.47,1.35,6.78,1.73,2.56.42,5.14.36,7.72.23,1.84-.09,3.69-.09,5.51.25.48.09.96.21,1.42.37,2.68.95,4.57,3.81,4.42,6.66-.01.08-.01.16-.02.24-.08.65-.16.69-.75.36-1.23-.69-2.52-1.25-3.87-1.7-.18-.06-.36-.11-.54-.17-.21-.05-.39.01-.47.21-.08.21.03.38.22.46.26.1.52.18.77.27,2.64.92,5.07,2.21,7.06,4.23,1.1,1.13,1.97,2.39,2.37,3.93.54,2.05.18,3.93-1.15,5.59-1.38,1.75-3.25,2.75-5.31,3.47-.27.09-.53.08-.79-.02-.31-.11-.62-.21-.93-.32-.08-.24.14-.32.26-.44.41-.41.73-.88,1.03-1.37.71-1.18.61-2.33-.18-3.43-.89-1.24-2.16-1.97-3.55-2.47-1.31-.47-2.67-.76-4.05-.86-3.02-.23-6.03.01-9.02.39-3.25.41-6.49.98-9.79.97-2.15-.01-4.3-.02-6.38-.61-1.62-.46-2.96-1.34-3.87-2.8-.36-.59-.73-1.17-1.22-1.69-.52-.56-.82-1.33-1.07-2.07.2-.17.37-.03.54.02,1.47.41,2.96.39,4.44.13,3.95-.7,7.88-1.5,11.76-2.57,2.83-.78,5.72-1.23,8.67-1.32,2.51-.07,4.99.1,7.41.8.23.06.45.21.76.03-.15-.22-.35-.24-.53-.29-2.33-.71-4.73-.9-7.16-.87-3.72.04-7.33.78-10.89,1.77-2.93.82-5.92,1.35-8.9,1.93-1.5.29-2.99.51-4.53.29-1-.14-1.88-.51-2.58-1.25-.93-.98-1.26-2.09-.76-3.42Zm-28.47,39.99c1.04-2.88,3.14-4.68,6.01-5.64,2.12-.71,4.26-.65,6.44-.3,1.52.25,3.04.49,4.61.32,2.06-.22,3.38-1.33,4.14-3.2.63-1.55.73-3.16.41-4.8-.25-1.27-.51-2.55-.84-3.81-.63-2.45-1.06-4.93-1.37-7.43-.34-2.63-.03-5.21.86-7.68.86-2.38,2.41-4.23,4.65-5.45.79-.43,1.62-.6,2.51-.52.3.03.5.12.58.44.25.93.8,1.65,1.57,2.21.14.1.23.21.26.39.13.68.51,1.25.81,1.85.23.43.52.83.58,1.33.02.15.07.31.19.44.9,1.01,1.06,2.28,1.19,3.54.3,3.02-.25,5.95-1.07,8.84-.7,2.47-1.96,4.7-3.14,6.96-.8,1.52-1.57,3.03-1.87,4.75-.22,1.23-.08,2.43.22,3.63.02.1.07.2.11.3.1.25.25.45.54.32.26-.11.21-.35.14-.56-.15-.47-.24-.95-.31-1.43-.15-1.07-.05-2.11.25-3.14.48-1.62,1.31-3.07,2.2-4.65.42.82.74,1.47,1.1,2.11.15.28.07.44-.15.62-1.51,1.26-1.65,2.97-.99,4.73.39,1.04,1.06,1.81,1.94,2.42.34.24.49.47.35.87-1.47,4.06-3.81,7.18-8.42,7.91-1.46.23-2.92.31-4.38.15-2.27-.25-4.54-.42-6.82-.39-.16,0-.33.02-.49-.12.07-.74.03-1.49-.26-2.21-.56-1.4-2.22-2.43-3.71-2.29-.87.08-1.86.88-2.1,1.71-.23.78.18,1.62.94,1.93.25.1.5.15.65-.13.14-.27-.09-.36-.28-.48-.8-.54-.84-1.09-.17-1.79.5-.52,1.1-.65,1.79-.49,2.04.47,3.05,2.73,2.03,4.62-.92,1.72-2.46,2.52-4.34,2.54-2.25.03-4.1-.89-5.46-2.72-1.3-1.75-1.64-3.67-.9-5.7Zm-.9,28.57c-2.87.02-5.27-.97-7-3.3-1.41-1.9-1.84-4.09-1.62-6.41.52-5.33,4.61-10.12,9.78-11.54.6-.16,1.03-.11,1.55.29,1.94,1.48,4.11,1.91,6.45,1.18,1.44-.45,2.51-1.39,3.16-2.75.18-.37.39-.51.8-.52,2.06-.05,4.12.06,6.17.31,2.4.29,4.77.18,7.08-.59,1.96-.65,3.56-1.81,4.73-3.54.88-1.32,1.63-2.69,2.11-4.2.04-.13.06-.29.23-.29.15-.01.24.11.3.24.07.14.12.3.2.44.4.73,1.01,1.15,1.85,1.1.84-.04,1.39-.53,1.64-1.35.02-.07.05-.15.09-.22.01-.02.04-.03.07-.04,1.88,1.05.42,1.37,7.31,2.8-.08.33-.37.46-.59.63-2.01,1.57-4.04,3.12-6.04,4.7-4.03,3.17-8.15,6.23-12.23,9.34-.5.38-1.03.56-1.64.63-.99.11-1.99.21-2.99.36-1,.15-1.99.2-3,.07-.24-.03-.48-.03-.73.02-.82.15-1.37.62-1.5,1.29-.14.71.19,1.47.84,1.89.23.15.47.25.75.4-.33.48-.76.81-1.13,1.19-.68.71-1.16,1.5-1.11,2.53.06,1.36.73,2.3,1.91,2.9,1.19.61,2.41.59,3.62.08,1.17-.49,2.24-1.17,3.06-2.12,1.28-1.49,2.83-2.42,4.69-3.03,2.76-.91,5.36-2.22,7.96-3.52,2.08-1.05,4.16-2.1,6.25-3.15.99-.5,1.95-1.05,2.91-1.69.23.38.44.72.66,1.09-.63.55-1.08,1.2-1.08,2.09.01.88.47,1.52,1.17,2.05-.31.43-.67.72-1.02,1-3.19,2.55-6.68,4.54-10.55,5.86-2.67.9-5.38,1.68-8.11,2.41-2.54.67-4.89,1.76-7.11,3.15-1.25.78-2.24,1.8-2.88,3.14-.11.23-.18.5-.39.69-.25-.03-.27-.25-.34-.41-.6-1.28-1.25-2.54-2-3.73-1.85-2.95-2.02-6.06-1.02-9.31.15-.5.3-.99.44-1.49.06-.23.11-.47.13-.71.05-.96-.62-1.53-1.57-1.32-.91.2-1.73.64-2.51,1.12-.84.51-1.6,1.13-2.33,1.78-.2.17-.41.34-.7.58-.16-1.4-.94-2.3-1.95-3.03-2.46-1.75-6.07-.59-7.06,2.24-.33.95-.14,1.77.55,2.47.71.73,1.59,1.01,2.6.83.2-.03.37-.14.36-.37-.02-.24-.2-.3-.41-.3-.19,0-.38.02-.56.02-1.51-.07-2.33-1.4-1.7-2.76.67-1.45,1.83-2.16,3.41-2.22,1.66-.06,2.87.71,3.69,2.1.51.86.37,1.72-.3,2.45-1.57,1.68-2.86,3.56-3.9,5.59-.35.67-.75.85-1.45.86Zm8.96-8.83c.68-.58,1.49-.98,2.23-1.47.28-.18.61-.18.98-.23l.89.29c.12.5-.21.85-.32,1.25-.64,2.37-1.14,4.76-.61,7.23.22,1.02.65,1.95,1.13,2.86.36.67.73,1.34,1.11,2,1.42,2.46,2.4,5.09,3.12,7.83.54,2.08.47,4.19.3,6.31-.14,1.72-.63,3.35-1.36,4.91-1.1,2.33-2.77,4.05-5.22,4.97-.07.03-.14.06-.21.06-.03.01-.06.01-.09,0l-2.04-.03c-.42.12-.67-.13-.92-.28-1.11-.65-2.07-1.49-2.98-2.39-1.06-1.02-2.01-2.13-2.87-3.32-1.81-2.48-2.79-5.29-2.96-8.33-.51-8.92,3.1-16,9.82-21.66Zm-2.62,39.44h-.01s-1.13,1.11-1.13,1.11c-.1.31-.4.41-.64.57-1.7,1.14-3.59,1.78-5.59,2.1-3.22.53-6.44.44-9.61-.36-2.24-.57-4.23-1.67-5.95-3.23-1.68-1.54-3.31-3.13-4.87-4.8-.74-.79-1.53-1.54-2.39-2.2-1.97-1.49-4.19-2.12-6.65-1.92-.47.04-.95.07-1.43.03h-.06l-1.33-.03-.75-.71h-.02s-.02,0-.03,0c-.14-.54-.14-.56.17-1.08.61-1.01,1.43-1.83,2.3-2.61,1.91-1.73,4.18-2.81,6.58-3.64,6.23-2.15,12.5-2.19,18.79-.31,1.62.48,3.11,1.27,4.5,2.25.52.37.87.84,1.07,1.47.63,1.99,1.67,3.76,3.01,5.36.15.18.3.38.45.57l3.67,3.51c.45.41,1,.71,1.62,1.07l.36.49c-.04.39-.31.67-.53.95-.45.57-.97,1.03-1.53,1.4Zm63.56-11.73c-1.12,4.37-3.11,8.32-5.91,11.85-1,1.27-2.07,2.44-3.2,3.53-.8.55-1.79.74-2.74.47-1.08-.31-1.92-1.15-2.24-2.23-.01-.02-.03-.03-.04-.04-.01-.02,0-.04-.01-.05-.02-.02-.03-.01-.04-.02-.03-.02-.06-.03-.09-.04-.03-.01-.05-.02-.09-.01-.01,0-.03-.01-.04-.01-.02.01-.03.03-.04.04-.02.01-.04,0-.06.01-.84.75-2,1.02-3.08.71-1.08-.32-1.92-1.15-2.24-2.23-.01-.02-.03-.03-.04-.05-.01,0,0-.03-.01-.05-.01-.01-.03-.01-.04-.02-.03-.02-.05-.03-.09-.04-.03,0-.05-.01-.09-.01-.01.01-.03,0-.04,0-.02.01-.03.02-.04.03-.02.01-.04.01-.06.02-.84.75-1.99,1.01-3.08.7-1.08-.31-1.92-1.14-2.24-2.22-.04-.14-.18-.21-.31-.17-.13.04-.21.18-.17.31.37,1.25,1.33,2.21,2.59,2.56.34.1.69.15,1.04.15.8,0,1.58-.27,2.24-.76.43,1.09,1.3,1.93,2.44,2.26.35.1.7.14,1.05.14.8,0,1.58-.27,2.24-.75.43,1.08,1.3,1.92,2.44,2.25.35.1.7.15,1.05.15.24,0,.48-.03.71-.07-3.41,3.03-7.32,5.36-11.71,7.01-5.16,1.94-10.49,2.72-15.98,2.28-2.69-.21-5.31-.74-7.88-1.57-4.3-1.4-8.12-3.59-11.43-6.68-1.73-1.61-3.22-3.44-4.48-5.45-.2-.32-.25-.55.04-.86.37-.39.69-.83.94-1.32.1-.2.25-.31.5-.35.64-.11,1.27-.3,1.84-.61.44-.24.67-.11.95.24,1.02,1.35,2.31,2.35,3.85,3.05.52.24,1.06.43,1.61.55,4.96,1.1,9.38-.08,13.2-3.35,2.19-1.87,3.51-4.34,4.13-7.14.67-2.99,1.28-5.99,1.7-9.03.09-.62.25-1.22.5-1.8.13-.29.3-.41.63-.33.29.08.59.1.96.15-.06.35-.14.65-.15.94-.02,1.17.54,2.03,1.53,2.59,1.08.61,2.22.66,3.39.28.08-.02.15-.06.23-.09.07-.02.15-.04.21-.06.18.08.14.22.13.35-.05,1.04.5,1.7,1.37,2.12.92.44,1.89.46,2.85.12.23-.08.45-.17.64-.24.19.02.2.14.23.24.53,1.41,1.76,2.08,3.24,1.74.72-.17,1.37-.5,1.98-.91,1.08-.75,2.05-1.62,2.85-2.66,1.46-1.88,2.99-3.72,4.24-5.76.56-.91,1.07-1.83,1.52-2.78.15-.32.27-.66.67-.75.14.01.17.13.21.22.81,1.8,1.97,3.36,3.35,4.76.79.81,1.65,1.51,2.73,1.87.43.14.5.39.49.79-.09,2.04-.35,4.05-.85,6.03Zm5.69-17.17c.5.13.99.29,1.44.54.62.34.9.9.8,1.56-.09.56-.65,1.07-1.3,1.16-.66.09-.71.21-.34.73.59.8.63,1.26.16,1.99-.43.68-1.14.99-1.95.85-.7-.12-.86.04-.67.68.43,1.47-.22,2.38-1.76,2.43-.86.02-1.66-.22-2.38-.69-1.46-.96-2.54-2.28-3.53-3.68-.4-.57-.72-1.2-1.04-1.83-.47-.93-.46-.95.46-1.36.65-.28,1.29-.57,1.95-.82,1.87-.68,3.53-1.66,4.72-3.44.98,1.04,2.16,1.56,3.44,1.88Zm5.93-32.03c-.36-.12-.59-.44-.88-.65-.77-.57-1.62-.87-2.58-.83-.16.01-.33.02-.48.07-.16.05-.29.16-.25.36.03.16.15.27.28.25.79-.12.84.47.97.99.84,3.33.69,6.67,0,10-.95,4.58-2.79,8.77-5.73,12.45-.3.38-.58.78-1,1.07-.42-.3-.78-.68-1.26-.89-.26-.11-.27-.31-.25-.54.13-1.88-.15-3.74-.36-5.59-.13-1.19-.44-2.35-.8-3.49-.09-.27-.09-.48.07-.75.87-1.48.72-2.39-.57-3.61.03-.07.04-.15.09-.21.74-1.04.77-1.89.03-2.9-.26-.35-.24-.57-.05-.93,1.4-2.67,2.32-5.49,2.36-8.54.01-.51.06-1.05-.21-1.5-.14-.25.05-.41.12-.49,1.07-1.17,1.83-2.55,2.67-3.87.09-.13.18-.27.26-.4.18,0,.25.12.32.23,1,1.51,2.28,2.76,3.6,3.96.87.79,1.73,1.57,2.5,2.45.72.82,1.12,1.79,1.25,2.87.01.15.06.32-.1.49Z" style="fill: #2e2723; stroke-width: 0px;"/>
        <path d="m108.93,31.98c-.1-.11-.22-.15-.36-.1-.1.04-.19.12-.28.16-.53.27-.76.23-1.1-.25-.14-.21-.38-.38-.4-.67.4-.12.76-.24,1.01-.55.14-.17.28-.37.1-.58-.18-.2-.39-.14-.57.03-.54.48-1.15.43-1.76.23-.33-.1-.64-.29-1.02-.46.2-.38.39-.64.46-.97.04-.17,0-.32-.18-.41-.18-.09-.32-.01-.43.12-.08.11-.13.24-.19.36-.26.48-.65.67-1.2.67-2.98.04-5.01,2.04-5.1,4.99-.07,2.09,1.52,3.85,3.6,3.99,2.07.14,3.89-1.43,4.08-3.49.2-2.13-1.3-3.97-3.43-4.2-.31-.04-.63-.05-.97-.07.05-.09.06-.16.1-.17,1.83-.83,4.26-.09,5.3,1.62.13.21.22.44.34.65.1.17.26.33.46.22.3-.16.64-.15.94-.25.27-.09.49-.25.63-.49.07-.12.07-.26-.03-.38Zm-5.47,2.77c.38.02.67.3.69.67.02.4-.29.72-.71.72-.37,0-.65-.27-.67-.67-.03-.43.26-.73.69-.72Zm-2.17-.84c.37.21.78.19,1.29.34-.37.45-.82.64-1,1.09-.18.43.01.9-.1,1.33-.32.06-.35-.17-.43-.32-.33-.59-.79-.96-1.5-.92-.17.01-.35.01-.4-.18-.04-.15.08-.25.21-.31.79-.35.95-.97.8-1.75-.03-.13-.05-.27.12-.34.08-.03.16,0,.2.08.19.4.41.75.81.98Z" style="fill: #2e2723; stroke-width: 0px;"/>
        <path d="m88.42,37.27c-1.48-2.45-4.21-3.25-6.76-1.95-.64.33-1.23.57-1.87.04-.16-.13-.38-.13-.51.05-.16.21-.07.42.12.57.23.18.48.34.74.52-.11.17-.22.33-.32.48-.46.74-1.02,1.27-1.99,1.09-.2-.04-.39.04-.44.25-.07.27.1.4.32.48.42.15.84.06,1.26-.02.02.95-.01,1.1-.19,1.31-.25.29-.58.22-.9.23-.18,0-.3.11-.31.3,0,.19.1.31.26.37.3.09.59.09.88,0,.21-.07.39-.2.62-.2.31,0,.41-.22.4-.49-.01-.19-.03-.38-.03-.57-.03-2.21,1.87-4.18,4.15-4.23-.42.27-.78.46-1.1.7-1.63,1.25-1.98,3.58-.81,5.25,1.23,1.75,3.55,2.18,5.33,1,1.69-1.13,2.2-3.43,1.15-5.18Zm-4.4,4.21c-.4-.01-.72-.36-.69-.74.03-.37.42-.71.77-.69.37.03.66.41.63.81-.03.36-.34.64-.71.62Zm3.51-2.81c-.85.4-1.02,1.12-.96,1.97,0,.04-.04.09-.11.24-.44-.33-.45-.87-.85-1.14-.4-.27-.86-.29-1.28-.36-.1-.25.06-.33.19-.42.61-.42.91-.98.79-1.74-.02-.14-.02-.29.15-.31.11-.02.2.06.24.17.27.81.76,1.3,1.69,1.17.1-.01.22.02.25.15.03.11,0,.22-.11.27Z" style="fill: #2e2723; stroke-width: 0px;"/>
        <path d="m99.33,43.48c-.55-.37-1.14-.38-1.68-.01-.67.45-1.4.54-1.92.49-.82-.03-1.38-.06-1.94.1-.64.17-1.01.59-1.16,1.22-.2.88.16,1.75.93,2.25,1.8,1.16,4.56.69,5.87-1,.35-.44.56-.93.58-1.49.02-.61-.13-1.19-.68-1.56Zm-5.32,3.79c-.78-.43-.76-.68.01-1.12,1.16-.68,3.21-.25,3.68,1.04-1.26.53-2.47.75-3.69.08Z" style="fill: #2e2723; stroke-width: 0px;"/>
        <path d="m77.99,33.71c1.79-1.4,3.77-2.22,6.09-2.02.26.05.53.05.6-.26.07-.35-.21-.47-.49-.52-.35-.07-.7-.1-1.05-.08-2.14.13-3.98.98-5.62,2.31-.24.19-.63.43-.34.78.3.36.57-.02.81-.21Z" style="fill: #2e2723; stroke-width: 0px;"/>
        <path d="m98.56,27.82c.12-.06.22-.15.33-.23.72-.56,1.54-.89,2.41-1.11,1.33-.34,2.67-.4,4.02-.15.23.04.47,0,.53-.24.08-.32-.17-.43-.42-.48-.61-.12-1.23-.18-1.85-.16-1.73.04-3.38.37-4.84,1.36-.22.15-.45.3-.6.54-.08.12-.08.26,0,.38.11.15.27.17.43.1Z" style="fill: #2e2723; stroke-width: 0px;"/>
        <path d="m95.06,39.08c.39.01.74.15,1.02.43.25.24.37.54.28.89-.09.36-.4.5-.73.57-.16.03-.32,0-.49,0-.14,0-.27.06-.3.22-.03.2.09.31.26.34.83.18,2.08-.3,1.88-1.58-.13-.82-.97-1.49-1.88-1.49-.23,0-.48.03-.51.29-.03.3.22.32.45.32Z" style="fill: #2e2723; stroke-width: 0px;"/>
        <path d="m107.34,79.35c-.23-.15-.51-.12-.74-.18-.12-.31.09-.52.11-.75,0-.1-.04-.16-.13-.18-.04-.01-.11,0-.14.03-.55.46-.4,1.92.23,2.25.36.19.81.07.99-.27.17-.32.03-.68-.32-.9Zm-.29.87c-.27-.02-.41-.2-.46-.45-.02-.16.12-.14.21-.18.26.01.48.1.51.39,0,.13-.11.25-.26.24Z" style="fill: #2e2723; stroke-width: 0px;"/>
        <path d="m98.4,103.06c-.84.75-1.99,1.01-3.08.7-1.09-.31-1.92-1.14-2.24-2.23,0-.02-.03-.03-.04-.04,0-.02,0-.04-.02-.05-.01-.01-.03,0-.04-.02-.03-.02-.05-.03-.08-.04-.03,0-.06-.01-.09,0-.02,0-.03,0-.04,0-.02,0-.03.03-.04.03-.02,0-.04,0-.05.02-.84.75-1.99,1.01-3.08.7-1.08-.31-1.92-1.14-2.24-2.23,0-.02-.03-.03-.04-.04,0-.02,0-.04-.02-.05-.01-.01-.03,0-.04-.02-.03-.02-.05-.03-.08-.04-.03,0-.06-.01-.09,0-.02,0-.03,0-.04,0-.02,0-.03.03-.04.03-.02,0-.04,0-.05.02-.84.75-2,1.01-3.08.7-1.08-.31-1.92-1.14-2.24-2.23-.04-.13-.18-.21-.31-.17-.13.04-.21.18-.17.31.37,1.25,1.33,2.21,2.58,2.57.35.1.7.15,1.05.15.8,0,1.58-.27,2.23-.76.43,1.09,1.31,1.92,2.45,2.25.35.1.7.15,1.05.15.8,0,1.58-.27,2.23-.76.43,1.09,1.31,1.92,2.45,2.25.35.1.7.15,1.05.15.91,0,1.8-.33,2.5-.96.1-.09.11-.25.02-.35-.09-.1-.25-.11-.35-.02Z" style="fill: #2e2723; stroke-width: 0px;"/>
        <path d="m83.86,118.65c-1.08-.31-1.92-1.14-2.24-2.23,0-.02-.03-.03-.04-.04,0-.02,0-.04-.02-.05-.01-.01-.03,0-.04-.02-.03-.02-.05-.03-.08-.04-.03,0-.06-.01-.09,0-.02,0-.03,0-.04,0-.02,0-.03.03-.04.03-.02,0-.04,0-.05.02-.84.75-2,1.01-3.08.7-1.09-.31-1.92-1.14-2.24-2.23,0-.02-.03-.03-.04-.04,0-.02,0-.04-.02-.05-.01-.01-.03,0-.04-.02-.03-.02-.05-.03-.08-.04-.03,0-.06-.01-.09,0-.02,0-.03,0-.04,0-.02,0-.03.03-.04.03-.02,0-.04,0-.05.02-.84.75-1.99,1.01-3.08.7-1.09-.31-1.92-1.14-2.24-2.23-.04-.13-.18-.21-.31-.17-.13.04-.21.18-.17.31.37,1.25,1.33,2.21,2.58,2.57.35.1.7.15,1.05.15.8,0,1.58-.27,2.23-.76.43,1.09,1.31,1.92,2.45,2.25.35.1.7.15,1.05.15.8,0,1.58-.27,2.23-.76.43,1.09,1.31,1.92,2.45,2.25.35.1.7.15,1.05.15.91,0,1.8-.33,2.5-.96.1-.09.11-.25.02-.35-.09-.1-.25-.11-.35-.02-.84.75-2,1.01-3.08.7Z" style="fill: #2e2723; stroke-width: 0px;"/>
      </g>
      <path d="m136.3,101.92l.07.03h-.04l-.03-.03Z" style="fill: #2e2723; stroke-width: 0px;"/>
      <path d="m138.49,102.69h-.06s.02-.01.03-.01h.03Z" style="fill: #2e2723; stroke-width: 0px;"/>
    </g>
  </g>
</svg>