<?xml version="1.0" encoding="UTF-8"?>
<svg id="Layer_2" data-name="Layer 2" xmlns="http://www.w3.org/2000/svg" viewBox="0 0 157.29 107.5">
  <g id="Layer_1-2" data-name="Layer 1">
    <g>
      <path d="m154.85,78.02l.03-.1c.23-.64.36-1.3.4-1.95.9-1.24,1.43-2.74,1.51-4.38v-.1c.01-.11.01-.22.01-.33.31-.79.47-1.65.48-2.52,0-1.41-.4-2.77-1.15-3.93-.04-.18-.09-.35-.14-.53-.64-2.11-2.14-3.86-4.13-4.77-1.02-.46-2.09-.7-3.2-.7-1.54,0-2.72.44-3.46.78l-.05.02c-.22.1-.52.23-.63.27l-.72.25c-.28.1-.56.19-.83.29-1.03-.59-1.99-1.16-2.83-1.77-2-1.43-3.81-3.35-5.63-5.96,0-.08,0-.17,0-.25-.04-.95-.07-2.02-.18-3.13-.53-5.31-1.88-9.57-4.25-13.4-4.17-6.74-9.5-11.33-16.29-14.04l-.61-.24c-1.62-.65-3.3-1.31-4.78-2.03-2.53-1.22-4.54-2.27-6.34-3.33-3.22-1.89-6.11-3.7-8.84-5.52-1.05-.7-2.17-1.58-3.26-2.42-.72-.57-1.54-1.21-2.4-1.84-3.87-2.85-7.44-4.56-11.24-5.37C73.16.34,69.97,0,66.84,0c-5.18,0-10.32.93-15.28,2.77-5.74,2.12-11,4.77-15.62,7.87-3.98,2.67-8.57,5.89-12.57,10.27l-.42.46c-2.2,2.41-4.7,5.15-6.71,8.45-.81,1.33-1.63,2.66-2.44,3.98l-.03.05c-1.03,1.68-2.1,3.41-3.15,5.14-.27.44-.54.88-.8,1.32-1.08,1.76-2.29,3.74-3.33,5.84-2.14,4.34-3.81,9.06-5.09,14.44-.83,3.49-1.57,7.31-1.33,11.55.46,8.27,3.93,15.38,10.05,20.54,3.43,2.9,7.74,4.57,12.45,4.83.41.02.82.03,1.23.03,3.15,0,6.28-.65,9.29-1.93,2.54-1.08,6.2-2.98,8.68-7,1.89-3.06,2.79-6.03,2.7-8.9.21-.44.4-.92.56-1.46.1-.36.22-.85.28-1.43.55-.5,1.09-1.02,1.63-1.57.05,1.67.1,3.33.15,4.97.04,1.52.09,3.04.13,4.57.02.59.03,1.18.05,1.77.04,1.79.09,3.63.24,5.52.23,2.98,1.32,5.66,3.17,7.75,2.33,2.64,5.51,4.16,8.72,4.16,1.37,0,2.7-.27,3.95-.8,1.11.68,2.34,1.13,3.64,1.32.46.06.89.09,1.33.09,2.22,0,4.36-.77,6.19-2.22,1.61-1.28,2.85-2.72,3.69-4.3.8-1.5,1.33-2.95,1.79-4.23l.19-.53c.28-.76.52-1.52.73-2.19,0-.03.02-.05.02-.08,2.3-.21,4.64-.4,6.9-.48.17,0,.32,0,.48,0,1.78,0,3.28.38,4.6,1.16.1.06.19.11.27.16.16.87.28,1.75.38,2.55.03.26.06.51.09.76.19,1.71.43,3.83,1.31,6.09,1.37,3.53,4.5,5.83,8.36,6.17.3.03.59.04.87.04.01,0,.04,0,.06,0,2.05,0,3.97-.61,5.58-1.73.08.04.17.08.25.11,1.2.53,2.48.8,3.81.8,1.84,0,3.69-.54,5.36-1.55,2.71-1.64,4.01-4.06,4.64-5.22,1.22-2.26,2.06-4.78,2.66-7.93.86-4.55,1.9-8.51,3.19-12.11.5-1.4.95-2.79,1.36-4.16.1.03.21.06.31.08,1.25.33,2.45.56,3.63.74.97,2.35,2.42,4.52,4.34,6.49,2.07,2.13,4.33,2.57,5.87,2.57,1.36,0,3.39-.35,5.36-2.05l.14-.12c.54-.47,1-1,1.36-1.57,1.03-.77,2.13-1.97,2.8-3.85Z" style="fill: #e2d6c7; stroke-width: 0px;"/>
      <g>
        <path d="m149.93,68.74l.22-.15-.22-.15c-.75-.53-1.47-.44-2.11-.36-.19.02-.38.05-.56.05.03-.02.06-.04.09-.06.48-.3.94-.57,1.37-.9.24-.18.53-.63.44-.93-.05-.17-.14-.29-.28-.35-.25-.11-.56.02-.76.11l-.07.03c-.4.18-.81.36-1.22.5l-.71.24c-1.04.36-2.12.73-3.2,1.03-.4.11-.98.12-1.33-.08l-.69-.39c-1.66-.93-3.38-1.89-4.94-3.01-3.03-2.18-5.65-5.06-8.26-9.06-.15-.23-.25-.56-.27-.89-.04-.6-.06-1.2-.08-1.81-.03-.88-.07-1.79-.15-2.68-.41-4.19-1.44-7.48-3.22-10.35-3.34-5.39-7.55-9.04-12.86-11.17l-.61-.24c-1.74-.69-3.53-1.41-5.23-2.23-2.71-1.3-4.89-2.45-6.86-3.61-3.34-1.97-6.35-3.84-9.18-5.74-1.27-.85-2.5-1.81-3.69-2.74-.73-.57-1.49-1.16-2.25-1.72-3.02-2.23-5.72-3.54-8.5-4.14-7.06-1.52-14.04-1.02-20.77,1.46-5.22,1.93-9.97,4.32-14.12,7.1-3.64,2.44-7.81,5.35-11.27,9.15l-.43.47c-2.08,2.28-4.24,4.63-5.89,7.35-.82,1.34-1.64,2.68-2.47,4.02-1.05,1.71-2.11,3.42-3.14,5.13-.28.46-.56.92-.84,1.37-1.04,1.7-2.12,3.46-3.01,5.27-1.9,3.85-3.39,8.08-4.55,12.93-.71,2.96-1.34,6.17-1.15,9.5.35,6.35,2.89,11.56,7.53,15.49,2.27,1.92,5.04,2.98,8.23,3.16,2.45.13,4.92-.32,7.33-1.34,1.78-.76,4-1.92,5.4-4.18,1.11-1.79,2.25-4.17,1.28-6.68.13-.2.27-.38.41-.56.33-.44.65-.86.79-1.34.23-.79-.39-1.29-.94-1.72-.04-.03-.09-.07-.13-.11l.53-.43c.48-.39.93-.76,1.37-1.15,2.27-1.95,4.83-4.3,6.47-7.5,1.87-3.65.68-8.36-1.55-10.79-1.54-1.69-3.91-2.15-6.03-1.19-1.41.64-2.45,1.47-3.18,2.54-.54.78-1.02,1.61-1.49,2.42-.15.26-.31.53-.47.79-.05-.1-.1-.21-.15-.31-.24-.49-.48-.99-.81-1.43-.68-.92-1.37-1.8-2.21-2.48-1.43-1.17-3.65-1.09-5.04.18-1.26,1.15-1.99,2.53-2.17,4.09-.32,2.86.3,5.64,1.85,8.26,1.44,2.43,3.1,4.37,5.07,5.95.07.05.13.13.21.22l-.31.15c-.05.02-.1.05-.16.07-.14.06-.28.12-.4.21-.29.23-.44.55-.39.84.04.24.22.43.48.52.7.23.67.67.63,1.23,0,.11-.01.22-.01.33,0,.79-.38,1.18-1.22,1.27-.3.03-.6.04-.91,0-2.61-.25-4.6-1.57-6.08-4.06-1.51-2.54-1.82-5.39-1.93-8.09-.09-2.32.4-4.73,1.5-7.39,2.43-5.84,6.9-9.81,13.27-11.78,2.86-.88,5.67-.61,8.33.82,5.72,3.06,9.27,7.67,10.56,13.69.57,2.65.89,5.5,1.05,9.22.13,3.12.22,6.3.31,9.38.04,1.51.08,3.03.13,4.54.02.61.03,1.21.05,1.82.04,1.69.09,3.44.22,5.15.11,1.44.58,2.64,1.4,3.57,1.07,1.21,2.95,2.31,4.73,1.41.93-.47,1.62-1.23,2.1-2.32.52-1.17.79-2.47.83-3.98,0-.34.01-.68.02-1.03.01-.86.03-1.75.1-2.62.01-.14.02-.28.02-.42.02-.52.04-1.06.37-1.56.4.92.51,1.74.57,3.1.08,1.78.22,4.12.48,6.48.09.77.52,1.51.87,2,.51.72,1.16,1.16,1.88,1.26.69.1,1.41-.13,2.08-.65.82-.65,1.45-1.36,1.82-2.06.56-1.05.98-2.2,1.38-3.31l.19-.53c.23-.62.43-1.27.63-1.89.17-.53.33-1.06.52-1.59.71-2.01,2.03-3.12,3.93-3.3,2.95-.28,6-.56,9.04-.67,3.34-.12,6.36.6,8.96,2.14,1.76,1.04,3.01,2.09,3.41,3.83.33,1.44.53,2.91.69,4.17.03.28.07.56.1.83.16,1.43.33,2.91.87,4.3.39,1,1.15,1.54,2.32,1.65.1,0,.19.01.28.01,1.14,0,2.03-.59,2.62-1.79.4-.8.68-1.63.79-2.39.12-.78.2-1.58.27-2.35.08-.85.16-1.72.3-2.57.19-1.12.58-2.19.95-3.1.12-.3.47-.99,1.12-.86.38.08.57.43.63,1.16.07.86.12,1.75.16,2.6.03.66.07,1.32.11,1.97.03.37.04.73.06,1.1.06,1.07.12,2.18.32,3.25.18.94.68,1.64,1.4,1.96.76.34,1.67.22,2.57-.32.97-.59,1.53-1.52,2.06-2.51.86-1.59,1.47-3.45,1.92-5.86.93-4.92,2.07-9.24,3.49-13.19.74-2.06,1.37-4.19,1.98-6.26.26-.88.52-1.77.79-2.65.17-.56.33-1.11.48-1.65l.15-.52c.67.26,1.34.52,1.99.78,1.64.66,3.19,1.28,4.82,1.71,1.66.44,3.33.67,5.1.91.73.1,1.46.2,2.19.32l.17.62c.16.58.33,1.21.51,1.83.57,2,1.65,3.79,3.29,5.49.37.38.79.65,1.45.09l.13-.11-.34-.47c-.96-1.32-1.95-2.67-2.49-4.24.07.06.14.12.2.18,1.12,1.09,2.28,1.94,3.56,2.6.2.1.47.21.71.11.2-.08.34-.26.46-.59l.04-.1-.07-.08c-.6-.67-1.31-1.23-2-1.78-.73-.58-1.48-1.17-2.1-1.89.33.18.65.37.96.56.19.11.37.22.56.33.5.29,1.04.59,1.6.8.2.07.42-.02.63-.11.07-.03.15-.07.22-.09l.19-.06-.08-.19c-.03-.07-.05-.14-.07-.21-.06-.2-.12-.4-.27-.54-.19-.18-.41-.33-.63-.48.55.02,1.07.1,1.64.19.19.03.47.05.68-.11.16-.13.24-.33.25-.62v-.1s-.08-.06-.08-.06c-.78-.53-1.64-.74-2.56-.96-.4-.1-.8-.19-1.2-.32.04,0,.09,0,.13,0,1.38-.09,2.68-.17,3.97-1.05Zm-11.92-.83c-4.18-.19-7.88-1.57-11.32-3l.81-7.41c.34.55.69,1.09,1.05,1.61,2.52,3.66,5.64,6.55,9.46,8.79Zm-12.46-9.42c-.04.64-.09,1.31-.15,2.01-.27,3.15-.92,6.36-1.94,9.54-.4,1.24-.81,2.49-1.22,3.73-.92,2.78-1.87,5.66-2.69,8.53-.53,1.84-.91,3.74-1.27,5.59-.19.97-.39,1.97-.61,2.95-.36,1.63-.88,3.53-1.96,5.22-.31.48-.73.95-1.22,1.35-.25.21-.5.29-.68.23-.22-.07-.33-.32-.38-.52-.22-.88-.3-1.83-.35-2.63-.05-.9-.08-1.81-.11-2.69-.03-.89-.06-1.82-.11-2.73,0-.15-.02-.3-.05-.44-.07-.44-.18-.88-.31-1.32-.24-.85-.66-1.44-1.23-1.72-.19-.1-.39-.16-.62-.19-.99-.13-1.96.3-2.64,1.18-.77.98-1.24,2.01-1.4,3.07-.14.89-.23,1.79-.32,2.67-.06.52-.11,1.04-.17,1.56l-.03.23c-.1.8-.2,1.64-.36,2.44-.08.38-.26.77-.43,1.14l-.06.14c-.2.43-.59.93-1.3.83-.45-.06-.73-.41-.83-1.04-.15-.88-.28-1.75-.42-2.63-.13-.87-.27-1.74-.41-2.6l-.03-.2c-.13-.76-.25-1.53-.42-2.3-.05-.26-.11-.51-.17-.76-.46-1.87-1.65-3.36-3.74-4.68-1.29-.81-2.65-1.44-4.11-1.9-1.12-.35-2.29-.6-3.52-.75-.83-.1-1.67-.15-2.55-.16-.44,0-.88,0-1.33.03-2.45.11-4.9.31-7.19.5-.72.06-1.47.21-2.23.44-1.97.6-3.33,2.03-4.17,4.4-.3.85-.59,1.7-.88,2.55-.35,1.03-.71,2.09-1.09,3.13-.29.8-.7,1.71-1.51,2.38-.37.31-.71.48-.99.5-.09,0-.18,0-.26-.02-.3-.09-.54-.4-.71-.92-.35-1.08-.49-2.23-.58-3.31-.07-.82-.09-1.66-.12-2.47-.02-.74-.04-1.5-.1-2.25-.02-.21-.04-.43-.07-.64-.08-.64-.22-1.29-.41-1.93-.21-.72-.63-1.2-1.19-1.38-.19-.06-.39-.09-.6-.08-.96.03-1.67.6-1.89,1.52-.23.96-.39,1.99-.49,3.16-.06.67-.09,1.36-.12,2.02-.03.81-.07,1.64-.16,2.45-.08.75-.31,1.52-.66,2.17-.37.71-.95,1.15-1.6,1.21-.63.05-1.26-.27-1.73-.89-.36-.48-.99-1.43-1.11-2.44-.22-1.87-.33-3.92-.35-6.46-.05-6.31-.11-12.84-.74-19.36-.27-2.75-.72-5.99-2.05-9.12-1.12-2.62-2.78-4.94-5.06-7.07-.33-.3-.67-.6-1.02-.9-2.08-1.75-4.21-2.95-6.49-3.66-2.74-.86-5.62-.72-8.79.43-5.13,1.86-9.07,5.1-11.71,9.63-2.15,3.7-3.15,7.49-2.98,11.25.14,3.17.69,5.63,1.71,7.74,1.46,3.03,3.79,4.92,6.92,5.61.89.2,1.72.19,2.55,0,.08-.02.15-.03.23-.05.89-.24,1.52-.75,1.84-1.46.19-.43.26-.92.2-1.47-.04-.42-.13-.82-.23-1.33-.03-.15-.06-.31-.1-.48.1.05.19.11.28.16.39.22.72.41,1.01.64.54.44,1.03.51,1.69.26.67-.26,1.42-.38,2.13-.48.5-.07.84.08,1.1.49l-.77.58c-.96.72-1.11,1.24-.68,2.33.32.81.3,1.66-.08,2.75-.96,2.74-2.89,4.53-6.08,5.62,0-.34.03-.69.06-1.02.07-.8.15-1.64-.19-2.47l-.08-.2-.19.12c-.07.04-.13.09-.19.14-.38.33-.38.73-.37,1.06,0,.1,0,.2,0,.29-.04.33-.06.66-.07.97-.02.38-.04.76-.1,1.13-.03.19-.24.45-.41.53-3.56,1.49-9.08.29-11.96-2.57,1.28-.84,2.69-1.82,3.39-3.48l.17-.4-.41.16c-.62.24-1.11.65-1.57,1.09-.12.11-.24.23-.35.34-.61.6-1.18,1.17-2,1.41-1.58-.99-3.75-4.4-4.83-8.26-.41-1.47-.67-3-.68-4.48.56-.73,1.39-1.04,2.27-1.38.68-.26,1.39-.52,2.03-1l.26-.2-.31-.12c-.88-.36-1.52-.09-2.08.14-.12.05-.24.1-.36.14-.49.17-.96.41-1.41.65-.12.06-.24.13-.37.19-.11-2.47,1.03-8.32,2.25-11.45.15,0,.3,0,.46,0,.47,0,.96.02,1.45,0,.16,0,.33,0,.51.02.52.04,1.12.09,1.76-.4l.27-.21-.32-.12c-1-.36-1.94-.39-2.85-.42-.29,0-.57-.02-.85-.04.1-.7.53-2.03,1.08-3.48.81-2.13,1.88-4.51,2.58-5.54.55-.13,1.12-.09,1.73-.05.02,0,.04,0,.06,0,.35.03.71.05,1.08.05.37,0,.75-.04,1.14-.14l.32-.08-.23-.23c-.57-.56-1.15-.59-1.66-.62h-.2c-.19-.03-.38-.03-.57-.03-.2,0-.4,0-.62,0-.12,0-.24,0-.37,0,.1-.18.19-.35.28-.52.27-.51.53-1,.8-1.45.65-1.06,1.28-2.1,1.91-3.12,1.87-3.06,3.64-5.94,5.44-8.84.6-.96,1.31-1.85,2.05-2.7.44-.51.9-1.01,1.35-1.5.42-.46.85-.92,1.26-1.39,3.08-3.51,6.77-6.27,10.28-8.73,4.05-2.83,8.77-5.31,14.43-7.59,3.74-1.51,7.81-2.28,12.38-2.37.65-.01,1.32,0,1.99,0,2.54.06,4.57.33,6.37.84,2.14.6,4.09,1.52,5.79,2.73,1.99,1.41,3.75,2.72,5.38,4.01,2.88,2.28,6.14,4.42,10.27,6.75,2.7,1.53,5.58,3.03,8.78,4.59,1.85.9,3.8,1.66,5.69,2.4l.41.16c4.35,1.7,7.94,4.8,10.97,9.47.71,1.09,1.27,2.23,1.72,3.37,1.35,3.43,1.67,6.95,1.77,9.83.02.52.03,1.06.03,1.61,0,1.1-.04,2.27-.12,3.56Zm-98.42,10.53c-1.72-1.96-2.78-4.32-3.15-7.02-.26-1.92-.01-3.4.78-4.66.55-.86,1.3-1.38,2.1-1.46.07,0,.15-.01.22,0,.74,0,1.49.37,2.13,1.05.82.87,1.35,1.87,1.9,3.05.08.17.16.34.24.52.06.14.12.28.18.42.17.4.35.82.6,1.2.2.31.49.47.78.45.31-.02.58-.23.74-.58.12-.24.17-.51.23-.77.02-.1.04-.19.06-.29.54-2.17,1.53-3.82,3.04-5.06.36-.3.75-.56,1.13-.78,1.89-1.05,3.66-.69,4.86,1.01,2.15,3.03,2.38,6.01.73,9.11-1.24,2.32-3.13,4.07-4.8,5.52-1.25,1.09-2.54,2.21-3.9,3.21-.41.3-.93.5-1.47.71-.24.09-.48.18-.73.29-.56-.58-1.12-1.15-1.69-1.72-1.34-1.35-2.72-2.75-3.99-4.2Z" style="stroke-width: 0px;"/>
        <path d="m85.05,30.83c-.24-.18-.51-.3-.77-.42-.12-.05-.23-.11-.35-.17l-.12-.06-.49.53.08.12c.06.09.12.18.18.28.14.22.28.45.48.63.34.3.7.58,1.05.85.24.18.48.37.71.56,4.24,3.51,7.29,7.93,9.07,13.16,1.51,4.43.97,8.59-1.59,12.34-1.62,2.37-3.97,4.05-6.97,4.97-3.72,1.14-7.11,1.03-10.37-.33-2.47-1.04-4.28-2.84-5.36-5.34-.92-2.13-.93-4.43-.87-6.41.08-2.8.61-5.6,1.12-8.31.11-.56.21-1.13.31-1.69.14-.77.29-1.53.44-2.3.26-1.34.53-2.72.74-4.09.16-1.1.12-2.24.08-3.34v-.11c-.01-.32-.04-1.18-.98-1.41l-.25-.06.02.26c.02.25.05.49.08.72.06.46.11.9.06,1.32-.21,1.73-.46,3.57-.84,5.34-.15.68-.3,1.36-.45,2.04-.87,3.91-1.77,7.95-1.93,12.06-.07,1.75-.03,4.36,1.09,6.78,1.91,4.14,5.34,6.46,10.48,7.09.59.07,1.18.11,1.76.11,2.42.01,4.86-.56,7.4-1.74,2.55-1.19,4.55-2.95,5.92-5.24,2.58-4.3,2.95-9.01,1.08-13.99-2.08-5.56-5.62-10.18-10.83-14.12Z" style="stroke-width: 0px;"/>
        <path d="m58.28,30.91h0c-.48,0-.91.17-1.21.47-.27.28-.42.66-.41,1.07,0,.43.2.84.54,1.16.36.34.84.54,1.33.54.03,0,.06,0,.09,0,.7-.03,1.54-.89,1.54-1.59,0-.37-.17-.74-.47-1.05-.37-.37-.88-.59-1.4-.59Z" style="stroke-width: 0px;"/>
      </g>
    </g>
  </g>
</svg>