<?xml version="1.0" encoding="UTF-8"?>
<svg id="Layer_2" data-name="Layer 2" xmlns="http://www.w3.org/2000/svg" viewBox="0 0 97.95 150.15">
  <g id="Layer_1-2" data-name="Layer 1">
    <g>
      <path d="m2.3,72.61c0,.65.08,1.3.26,1.95-1.35,1.77-1.91,3.92-1.54,6.06.51,2.89,2.63,5.19,5.67,6.16.17.05.34.11.51.16-1.24,3.7-2.11,7.3-2.66,10.92-.44,2.93-.66,5.95-.67,9.22,0,4.68.21,10.84,1.96,17.05,1.95,6.91,5.03,12.35,9.44,16.62,3.83,3.71,8.35,6.25,13.42,7.53,3.07.77,6.09,1.18,8.76,1.54,1.65.22,3.27.34,4.82.34,1.68,0,3.33-.13,4.91-.39,6.61-1.09,12.64-3.81,17.94-8.09,4.51-3.64,8.56-8.01,12.04-12.99,2.51-3.59,4.27-6.93,5.4-10.29.86-.51,1.64-1.11,2.34-1.8,2.32-2.28,3.18-5.5,2.3-8.62-.61-2.19-2-4.02-3.83-5.18-.44-1.32-1.15-2.75-2.38-4.09-.84-.91-1.78-1.66-2.78-2.22.03-.41.07-.82.1-1.22.29-3.07.52-6.16.74-9.15.06-.87.13-1.74.2-2.61l.1-1.3c.18-2.3.36-4.68.49-7.05.18-3.22.28-6.4.35-8.81.1-3.48.18-7.6-.06-11.72-.18-3.18-.25-6.33-.28-9.58,3.13-1.66,5.63-3.73,7.51-5.4,4.09-3.64,7.06-7.88,8.83-12.6,2.69-7.18,2.27-13.89-1.25-19.94-2.59-4.45-7.08-7.1-12-7.1-.68,0-1.36.05-2.04.15-3.18.47-6.01,2-8.63,4.68-.14.14-.27.28-.41.42-1.25-1.22-2.64-2.25-4.15-3.07-1.87-1.02-3.95-1.56-6.01-1.56-3.32,0-6.47,1.35-8.88,3.81-1.49,1.52-2.63,3.3-3.4,5.29-1.19,3.06-1.49,6.42-.93,10.26.26,1.81.68,3.61,1.26,5.37-1.16.66-2.25,1.49-3.4,2.57-.74.69-1.41,1.38-2.03,2.07-.89.07-1.74.19-2.55.32-3.28.51-6.24,1.43-9.1,2.33l-.25.08c-4.66,1.46-8.47,3.06-11.8,4.98-1.77-.77-3.76-1.57-6.12-1.96-.63-.1-1.26-.16-1.87-.16-5.13,0-8.94,3.71-9.25,9.02-.08,1.39.02,2.82.31,4.49.36,2.03.97,3.87,1.57,5.55.2.55.19.78.17.99-.2,1.6-.18,3.15-.03,4.6C1.98,61.25-.23,64.33.02,67.81c.14,1.91.98,3.59,2.28,4.8Z" style="fill: #e2d6c7; stroke-width: 0px;"/>
      <g>
        <path d="m89,10.57c-1.55-2.66-4.2-4.02-7.07-3.6-1.91.28-3.41,1.35-4.71,2.69-2.26,2.31-3.78,5.05-4.59,8.17-.09.33-.2.66-.3.99-.26-.11-.29-.32-.37-.51-1.06-2.5-2.18-4.96-3.93-7.08-1.01-1.22-2.19-2.23-3.58-2.99-2.3-1.25-4.85-.85-6.68,1.02-.84.86-1.47,1.84-1.9,2.96-.85,2.21-.87,4.49-.54,6.78.59,4.06,2.15,7.76,4.39,11.16,2.13,3.22,4.8,5.94,8.03,8.09,1.07.71,2.22,1.31,3.45,1.7.5.16.66.44.59.92-.02.14,0,.28-.01.42-.14,4.93-.17,9.86.13,14.78.05.8.01.86-.85.91-1.56.09-3.12.1-4.68.23-1.4.12-1.41.08-1.49-1.38-.08-1.42-.07-1.4,1.24-1.9,1.46-.55,2.97-.96,4.38-1.63.31-.15.9-.24.67-.73-.2-.43-.67-.14-1.02,0-1.59.61-3.18,1.21-4.76,1.83-.22.08-.42.24-.72.09-.2-.85-.38-1.73-.61-2.61-.1-.39.09-.57.39-.73.76-.43,1.5-.88,2.25-1.3.75-.43,1.52-.83,2.28-1.26.21-.12.43-.31.28-.59-.16-.29-.42-.16-.64-.06-.83.36-1.64.76-2.41,1.24-.62.39-1.23.79-1.85,1.17-.56.34-.59.32-.79-.26-.16-.46-.3-.93-.47-1.38-1.07-2.84-2.46-5.46-5.25-7.01-.41-.23-.56-.54-.54-1.02.07-1.74-.03-3.48-.2-5.21-.09-.95-.31-1.86-.86-2.64-.72-1.02-1.61-1.21-2.72-.64-.91.46-1.69,1.09-2.43,1.78-1.06,1-2.06,2.07-2.92,3.26-.32.44-.65.7-1.28.65-1.35-.1-2.7.07-4.04.28-2.86.44-5.6,1.32-8.35,2.17-4.22,1.32-8.31,2.94-12.04,5.38-.43.28-.85.72-1.32.79-.53.09-.96-.47-1.48-.66-.26-.09-.5-.23-.76-.35-1.78-.79-3.54-1.6-5.49-1.92-1.94-.32-3.01.51-3.12,2.47-.06.97.05,1.94.22,2.9.26,1.51.75,2.97,1.27,4.4.49,1.37.7,2.69.52,4.16-.33,2.74.26,5.39,1.09,7.99.13.41.36.81.3,1.31-.94.13-1.84.25-2.73.39-1.2.19-2.4.37-3.58.69-.24.06-.5.16-.48.46.03.4.35.35.63.35.73-.01,1.45-.16,2.17-.29,1.19-.22,2.38-.47,3.58-.67.35-.06.82-.23.98.29.29.93.83,1.74,1.16,2.75-1.13.44-2.22.88-3.32,1.28-.92.34-1.77.8-2.63,1.25-.17.09-.35.27-.25.51.11.26.31.21.52.13,1.49-.57,2.99-1.11,4.47-1.72,1.82-.76,1.81-.78,2.82.99-1.06.83-2.12,1.66-3.19,2.49-.41.32-.78.69-1.26.91-1.5.69-2.78,1.7-4.07,2.69-1.03.8-.92,1.54.29,1.93,2.22.71,4.49.96,6.77.33.76-.21,1.48-.56,2.42-.91-.76,1.21-1.37,2.26-1.71,3.43-.18.61-.42,1.18-.76,1.71-.3.47-.55.97-.75,1.49-1.56,4.1-2.75,8.29-3.41,12.64-.41,2.72-.59,5.45-.59,8.2,0,5.12.3,10.2,1.7,15.17,1.45,5.14,3.71,9.77,7.6,13.54,2.94,2.85,6.36,4.79,10.31,5.79,2.63.66,5.32,1.03,8,1.39,2.56.34,5.13.39,7.69-.03,5.5-.9,10.4-3.15,14.73-6.65,4.14-3.34,7.68-7.23,10.72-11.58,2.34-3.34,4.28-6.9,5.19-10.93.09-.41.28-.55.66-.66,1.01-.27,1.93-.71,2.71-1.47,1.21-1.19.31-3.01-.95-3.3-.44-.1-.87-.22-1.33-.2-.3.01-.45-.13-.46-.43,0-.21-.01-.42-.04-.62-.21-1.34-.39-2.7-1.36-3.76-1.32-1.43-2.82-1.67-4.21-.19-.14.15-.19.49-.61.36,0-.39,0-.81,0-1.22.02-2.57.12-5.13.37-7.69.37-3.87.63-7.75.93-11.63.21-2.73.43-5.47.58-8.21.16-2.88.26-5.76.35-8.64.11-3.71.16-7.42-.05-11.12-.27-4.69-.29-9.38-.32-14.07,0-.51.22-.67.63-.76.75-.16,1.45-.46,2.14-.78,2.64-1.24,4.92-3,7.07-4.92,3.08-2.74,5.5-5.97,6.96-9.86,1.8-4.79,1.89-9.51-.75-14.04Zm-11.73,100.17c.01-.1.04-.2.04-.31,0-.53.25-.75.61-.67.34.03.52.02.68.07.43.12.57.51.31.88-.2.28-.47.5-.79.64-.27.12-.56.4-.85.16-.24-.2-.03-.51,0-.77ZM15.09,65.97c-.65-1.8-1.27-3.6-1.62-5.48-.43-2.35-.39-4.69.07-7.03.04-.2.13-.4.15-.61.03-.29-.1-.53-.41-.36-.28.15-.43.16-.53-.15-.67-2.23-1.37-4.45-1.36-6.81,0-1.95.55-2.32,2.44-1.91,2.1.45,4.02,1.33,5.89,2.32.85.45,1.51.42,2.31-.03,2.23-1.27,4.47-2.52,6.86-3.49,2.97-1.2,6.04-2.09,9.11-2.97,2.34-.67,4.7-1.22,7.12-1.52.62-.08,1.25-.13,1.87-.11.78.02,1.3-.33,1.76-.91,1.14-1.41,2.4-2.7,3.77-3.88.42-.36.88-.68,1.38-.93.78-.39,1.33-.22,1.65.62.24.64.42,1.34.48,2.02.13,1.56.17,3.12.24,4.68,0,.09-.06.19-.1.34-.55-.14-1.08-.29-1.61-.43-.39-.1-.81-.15-.94.35-.11.44.31.59.6.74.3.16.65.24.98.34,2.88.92,4.9,2.76,6.14,5.53,1.93,4.33,2.88,8.83,2.47,13.58-.27,3.09-1.17,5.97-2.8,8.63-1.5,2.45-3.34,4.6-5.51,6.48-1.68,1.46-3.68,2.33-5.73,3.12-5.39,2.11-10.98,2.71-16.69,2.04-5.59-.65-10.31-3.12-14.04-7.4-1.75-2.01-3.05-4.29-3.96-6.79Zm24.5,15.57c.38-.2.76-.23,1.14-.24,2.62-.1,5.15-.69,7.61-1.57.23-.08.47-.13.69-.22.32-.13.53-.11.8.19.78.89,1.57,1.08,2.5.72,1.02-.4,1.46-1.08,1.44-2.27,0-.36-.02-.65.35-.89,1.3-.81,2.48-1.77,3.53-2.89.11-.12.27-.2.43-.32.41.69.8,1.35,1.71,1.39.35.01.33.31.3.54-.08.62-.14,1.24-.27,1.85-.48,2.21-1.15,4.35-2.25,6.35-.29.52-.64.98-1.04,1.43-.3.34-.65.47-1.1.48-.45,0-.71-.12-.82-.59-.08-.33-.23-.66-.39-.96-.62-1.18-1.91-1.47-2.99-.7-.72.52-1.08,1.24-1.17,2.18-.89-.07-1.75-.11-2.6-.2-2.45-.28-4.86-.76-7.27-1.26-.73-.15-.76-.19-.54-.88.23-.72.21-1.42-.07-2.14Zm-22.35-8.52c.2-.17.38-.1.53.08.42.5.84,1,1.41,1.67-1.36,0-2.51-.1-3.9.06.69-.81,1.34-1.3,1.96-1.82Zm-7.66,6.12c.82-.87,1.77-1.4,2.62-2.02.34,0,.42.28.59.43,1.01.87,2.2.71,2.94-.4.02-.03.04-.06.05-.09.31-1.34,1.33-1.33,2.4-1.29.9.04,1.77.16,2.77.65-3.51,2.51-7.02,4.1-11.37,2.72Zm9.91.4c.1.17.17.26.19.35.2.95.79,1.51,1.71,1.77.8.23.83.18.58,1.1-.44,1.68-1,3.32-2.13,4.76-.84-.66-1.69-.93-2.56-.12-.74-1.82.38-5.82,2.2-7.86Zm54.63,32.24c-.1-.03-.2-.07-.3-.1.47-.7.64-.82,2.03-1.35.07,1.76-.11,1.9-1.74,1.45Zm-1.85-6.85c.06-.2.13-.4.24-.58.5-.86,1.33-1.02,2.11-.42.51.4.79.96,1,1.56.28.79.32,1.63.44,2.45.05.33-.08.54-.37.66-1.05.45-2,1.08-3.06,1.77-.46-1.85-.94-3.6-.35-5.44Zm.18,8.34c.08-.52.33-.63.79-.48.4.13.79.27,1.2.36,1.05.26,1.05.25.74,1.34-.97,3.45-2.66,6.56-4.69,9.48-2.65,3.8-5.68,7.27-9.2,10.3-3.05,2.63-6.41,4.72-10.22,6.1-4.13,1.5-8.36,1.96-12.7,1.33-1.92-.28-3.84-.61-5.75-.94-4.91-.87-9.07-3.11-12.47-6.79-3.02-3.26-4.96-7.08-6.11-11.34-.23-.84-.48-1.67-.7-2.51-1.12-4.2-1.24-8.51-1.3-12.82-.08-5.31.66-10.53,2.01-15.66.41-1.54.84-3.08,1.34-4.6.04-.13.06-.28.3-.29.14,1.25.37,2.49.75,3.7.38,1.22.96,1.4,1.99.64.32-.23.57-.51.82-.8,2.39-2.79,3.87-5.97,4.2-9.67.08-.84-.22-1.65-.13-2.58.89.44,1.71.87,2.55,1.26,1.04.48,2.1.91,3.22,1.18.51.12.95.36,1.36.71,2.19,1.85,4.76,2.96,7.48,3.77,4.96,1.48,10.02,2.26,15.2,2.11.76-.02,1.53-.03,2.29.03.81.07,1.41-.29,1.93-.84.89-.95,1.53-2.06,2.03-3.25.13-.31.26-.62.58-.92.09.48.2.97.28,1.45.61,3.71.82,7.46.87,11.21.02,1.77.11,3.53.1,5.3-.02,2.32-.11,4.65-.17,6.97-.1,3.92-.28,7.85-.82,11.74-.26,1.89-.59,3.77-.93,5.65-.24,1.33-.34,2.69-.77,3.98-.08.25-.1.47.11.67.24.21.51.25.77.09,2.41-1.43,4.9-2.77,6.9-4.8,2.05-2.08,3.47-4.59,4.76-7.18.62-1.25,1.17-2.52,1.39-3.91Zm-.49-46.78c-.06,3.09-.15,6.18-.32,9.27-.18,3.12-.5,6.23-.72,9.35-.36,5.13-.85,10.25-1,15.39-.09,2.89.1,5.76.48,8.62.01.1,0,.2,0,.31-.37.05-.43-.31-.63-.46-.22-.16-.38-.41-.59-.58-.97-.81-2-.98-2.76-.47-.88.6-1.35,1.9-1.06,2.96.43,1.61,1.65,2.34,3.13,2.72.76.2,1.56.21,2.38.09-1.61,5.52-5.67,11.22-10.75,13.34.26-1.41.5-2.76.76-4.1.5-2.56.79-5.15,1.04-7.74.41-4.29.41-8.6.52-12.9.11-4.33.02-8.66-.37-12.98-.21-2.38-.46-4.79-1.22-7.07-.42-1.26-.41-2.37-.04-3.6.71-2.36.74-4.81.41-7.22-.14-.98.15-1.63.61-2.37,1.78-2.89,2.85-6,3.02-9.41.03-.51-.12-1.15.22-1.49.32-.31.93-.08,1.41-.1,1.49-.07,2.98-.13,4.48-.17.92-.02.95,0,.95.91.03,2.57.07,5.14.03,7.71Zm-1.12,45.9c-.16.29-.55.17-.75.18-1.28-.04-2.36-.31-3.17-1.26-.28-.33-.47-.69-.41-1.13.07-.45.2-.9.62-1.14.47-.26.88.03,1.23.29.62.45,1.07,1.07,1.55,1.66.17.21.35.43.52.64.18.23.59.41.4.75Zm16.68-85.75c-1.97,3.89-5.01,6.78-8.47,9.31-1.86,1.36-3.82,2.52-6.03,3.23-.65.21-1.18.19-1.79-.09-2.23-1.02-4.22-2.38-6-4.07-3.1-2.92-5.55-6.29-7.17-10.24-1.12-2.72-1.91-5.6-1.87-8.38.02-2.02.42-3.93,1.67-5.58,1.78-2.35,4.12-2.72,6.68-1.07,1.89,1.22,3.2,2.96,4.27,4.89.94,1.7,1.72,3.48,2.52,5.25.16.35.33.69.53,1.01.15.24.38.43.69.38.35-.06.54-.31.61-.63.1-.48.17-.96.27-1.43.8-3.91,2.66-7.2,5.8-9.71,2.99-2.38,6.43-1.26,8.22,1.2,1.44,1.97,2.07,4.22,2.24,6.62.25,3.33-.69,6.38-2.18,9.31Z" style="stroke-width: 0px;"/>
        <path d="m38,63.55c-.39-.01-.76-.08-1.09-.29-.13-.08-.29-.09-.37.04-.11.17-.04.33.1.46.08.07.16.14.25.18,1.17.6,2.97.38,3.56-1.05.13-.32.25-.64.41-1.05,1.28.74,1.79.9,2.61.84,1.2-.08,2.14-1.24,1.94-2.38-.12-.65-.6-1.15-1.16-1.16-.32,0-.68.04-.71.44-.03.32.27.34.51.37.51.05.6.4.56.82-.06.59-.54,1.13-1.1,1.24-1.27.24-2.67-.72-2.82-1.99-.07-.59-.14-1.18-.35-1.73-.2-.54-.13-.93.4-1.22.48-.27.77-.68.9-1.22.17-.7-.09-1.2-.8-1.31-1.55-.24-2.9.2-3.95,1.37-.61.68-.43,1.37.39,1.77.54.27,1.11.39,1.71.35.28-.02.48.05.56.34.32,1.18.62,2.36.42,3.59-.18,1.1-.85,1.6-1.97,1.57Z" style="stroke-width: 0px;"/>
        <path d="m17.91,47.85c-.47-.35-.95-.7-1.46-.97-.45-.24-.88-.56-1.4-.66-.67-.13-1.18.2-1.19.77,0,.03.01.07.02.1.17,1.46.75,2.79,1.38,4.1.2.43.54.3.85.04.72-.59,1.38-1.26,1.98-1.97.44-.51.37-1.01-.18-1.42Z" style="stroke-width: 0px;"/>
        <path d="m51.04,38.23c.53.33,1.12.52,1.73.68,1.7.43,1.89.3,1.87-1.59.03-.57-.1-1.28-.27-1.99-.12-.48-.3-.94-.87-1.05-.55-.1-.94.19-1.22.61-.51.78-.99,1.58-1.49,2.37-.26.41-.14.73.24.97Z" style="stroke-width: 0px;"/>
        <path d="m26.58,61.02c.3.06.26-.22.31-.41.44-1.69,1.74-2.2,3.25-1.29.21.13.4.28.61.39.16.08.35.1.48-.06.13-.16.05-.35-.08-.47-.62-.59-1.34-.98-2.23-.94-1.47,0-2.6.98-2.6,2.26,0,.21.03.47.26.51Z" style="stroke-width: 0px;"/>
        <path d="m47.17,54.25c.39.07.29-.37.36-.61.4-1.31,1.5-1.74,2.68-1.02.12.07.22.17.33.25.23.17.53.35.72.05.18-.27-.06-.52-.29-.7-.53-.42-1.13-.68-1.64-.66-1.33-.01-2.3.8-2.43,1.9-.03.3-.13.73.25.8Z" style="stroke-width: 0px;"/>
        <path d="m78.45,33.42c-.26,0-.45.15-.64.3-1.09.86-2.24,1.61-3.5,2.2-.12.06-.24.13-.34.22-.11.1-.13.24-.09.38.05.2.21.27.39.26.17-.01.34-.06.5-.12,1.37-.51,2.57-1.34,3.72-2.22.22-.17.41-.38.41-.68-.04-.26-.21-.35-.44-.35Z" style="stroke-width: 0px;"/>
      </g>
    </g>
  </g>
</svg>