<?xml version="1.0" encoding="utf-8"?>
<!-- Generator: Adobe Illustrator 27.9.0, SVG Export Plug-In . SVG Version: 6.00 Build 0)  -->
<svg version="1.1" id="Layer_1" xmlns="http://www.w3.org/2000/svg" xmlns:xlink="http://www.w3.org/1999/xlink" x="0px" y="0px"
	 viewBox="0 0 60.3 58.6" enable-background="new 0 0 60.3 58.6" xml:space="preserve">
<g>
	<path fill="#E2D6C7" stroke="#FFB000" stroke-width="0.2801" stroke-miterlimit="10" d="M58.6,30c0-0.5-0.1-1.2-0.2-1.9
		c-0.4-2.5-1.2-5.7-3.6-8.3c-1.9-2-4.3-2.6-6.7-1.8c0.1-1.9,0-3.8-0.6-5.6l0,0c-0.2-0.7-0.5-1.5-0.8-2.3c-0.9-2.1-2.3-5.1-5.2-7.4
		c-2.4-1.9-4.6-1.9-6-1.7c-1.3,0.3-3.2,1.1-4.7,3.6c-0.3,0.5-0.5,1-0.8,1.5c-0.3-0.7-0.7-1.4-1.2-2c-2.5-3.5-6.4-4.1-9.9-1.7
		c-2.3,1.6-3.7,3.8-4.5,5.3c-1.9,3.5-2.8,6.9-2.5,10.2c-0.9-0.3-1.9-0.4-2.9-0.3c-1.9,0.3-3.6,1.4-4.7,3.3C0.9,26.3,0.4,32,2.8,37.5
		C4,40.3,5.9,42.2,8.5,43c0.7,0.2,1.4,0.3,2.1,0.4c-0.2,0.5-0.4,0.9-0.5,1.4c-0.8,4.6,2.2,9.9,6.6,11.8c2.9,1.2,5.8,1.2,8.7-0.1
		c3.2-1.3,6.1-1.4,9-0.1c1,0.4,1.9,0.6,2.8,0.8c0.3,0.1,0.6,0.1,0.9,0.2l0.5,0.1l0.5,0c4.7-0.3,7.2-2.6,8.5-4.5
		c2.1-3.1,2.8-5.9,2.2-8.4c-0.1-0.5-0.3-0.9-0.5-1.3c2.6-0.2,5-1.5,6.6-3.8c1.8-2.5,2.6-5.3,2.6-8.8l0-0.2L58.6,30z"/>
	<g>
		<path stroke="#3F33D3" stroke-width="0.3032" stroke-miterlimit="10" d="M45.3,41.8c-1.9-1-3.6-2.7-5.2-5.2
			c-1.4-2.1-2.7-3.9-4.1-5.2c-3.3-3.3-7.8-3.5-11.3-0.4c-1.5,1.3-2.8,2.9-3.9,4.6c-1.8,3-4,5.1-6.5,6.7c-0.6,0.4-1.3,0.8-1.7,1.3
			c-0.7,0.8-1.1,1.4-1.2,2.1c-0.6,3.5,1.9,8,5.3,9.5c2.3,1,4.7,0.9,7.1-0.1c4.2-1.8,8.2-1.8,12.2-0.1c0.8,0.4,1.7,0.6,2.5,0.7
			c0.4,0.1,0.8,0.2,1.1,0.3l0.1,0h0.1c3.1-0.2,5.5-1.4,6.9-3.5c1.8-2.6,2.4-4.8,2-6.7C48.3,44.1,47.2,42.8,45.3,41.8z M39.8,54.7
			c-0.4-0.1-0.7-0.2-1.1-0.3c-0.8-0.2-1.6-0.4-2.3-0.7c-2.1-0.9-4.2-1.3-6.4-1.3c-2.2,0-4.5,0.5-6.8,1.5c-2.1,0.9-4.1,0.9-6.2,0.1
			c-2.9-1.2-5.1-5.1-4.6-8.1c0.1-0.4,0.4-0.9,0.9-1.5c0.4-0.4,0.9-0.8,1.5-1.1c2.7-1.7,5-4,6.9-7.1c1-1.6,2.2-3.1,3.7-4.3
			c3-2.6,6.9-2.5,9.7,0.4c1.3,1.3,2.6,3,3.9,5c1.8,2.7,3.6,4.5,5.7,5.6c1.6,0.8,2.5,1.9,2.8,3.1c0.4,1.5-0.2,3.4-1.8,5.7
			C44.5,53.5,42.6,54.5,39.8,54.7z"/>
		<path stroke="#3F33D3" stroke-width="0.2778" stroke-miterlimit="10" d="M21.5,25.9h0.3c1.6,0,2.9-0.4,4-1.1
			c1.1-0.8,1.9-1.9,2.4-3.3c0.7-2,0.9-3.6,0.9-5.6c0-0.3,0-0.6-0.1-0.9c0-0.7-0.1-1.4-0.2-2c-0.3-2.4-0.8-5-2.4-7.2
			c-1.6-2.2-3.8-2.6-6.1-1c-1.4,1-2.5,2.4-3.6,4.3c-2.3,4.2-2.8,8.1-1.6,11.9C16.2,23.9,18.6,25.8,21.5,25.9z M25.7,6.4
			c1.5,2,1.9,4.4,2.2,6.7c0.1,0.6,0.1,1.3,0.1,1.9c0,0.3,0,0.6,0.1,0.9V16c0,1.8-0.3,3.3-0.9,5.1c-0.9,2.5-2.8,3.8-5.7,3.7
			c-2.5-0.1-4.4-1.6-5.2-4.2c-1.1-3.5-0.6-7.1,1.5-11c1-1.8,2.1-3.1,3.3-4c0.7-0.5,1.4-0.8,2-0.8C24.1,4.9,24.9,5.4,25.7,6.4z"/>
		<path stroke="#3F33D3" stroke-width="0.2778" stroke-miterlimit="10" d="M38.1,25.9c0.1,0,0.2,0,0.2,0c2.9-0.1,5.3-1.8,6.2-4.6
			c0.2-0.7,0.4-1.5,0.5-2.1c0.2-0.8,0.2-1.7,0.2-2.5c0-1.2-0.2-2.4-0.5-3.6c-0.2-0.6-0.4-1.3-0.7-2c-1.2-2.9-2.5-4.8-4.4-6.2
			c-1.3-1-2.5-1.4-3.7-1.1C34.9,4,34,4.8,33.2,6c-2.7,4.8-3.2,10-1.5,15.4C32.7,24.4,34.9,25.9,38.1,25.9z M36.3,4.9
			c0.1,0,0.3,0,0.4,0c0.7,0,1.5,0.3,2.3,1c1.7,1.3,2.9,3.1,4,5.8c0.3,0.7,0.5,1.3,0.7,1.9c0.5,1.7,0.6,3.7,0.3,5.5
			c-0.1,0.6-0.3,1.3-0.5,2c-0.8,2.4-2.7,3.8-5.2,3.8c-2.9,0.1-4.8-1.2-5.6-3.7c-1.6-5.1-1.2-10,1.4-14.5C34.8,5.6,35.5,5,36.3,4.9z"
			/>
		<path stroke="#3F33D3" stroke-width="0.2778" stroke-miterlimit="10" d="M17.3,36.4c0.4-1.2,0.5-2.6,0.3-4l0-0.1
			c-0.2-1-0.4-2-0.6-3c-0.7-2.5-1.7-5.4-4.1-7.6c-1.1-1-2.3-1.5-3.4-1.3c-1.1,0.1-2,0.8-2.7,2c-2.9,4.6-3.4,9.3-1.3,14
			c0.9,2.1,2.2,3.4,4,4c0.7,0.2,1.4,0.3,2.1,0.3C14.1,40.7,16.3,39.1,17.3,36.4z M9.7,39.3c-1.5-0.5-2.6-1.6-3.4-3.4
			C4.5,31.7,4.9,27.3,7.6,23c0.5-0.9,1.2-1.4,1.9-1.5c0.1,0,0.2,0,0.3,0c0.7,0,1.5,0.4,2.2,1.1c2.2,2,3.2,4.7,3.8,7.1
			c0.3,0.9,0.4,1.9,0.6,2.9l0,0.2c0.2,1.2,0.1,2.4-0.2,3.4C15.2,38.9,12.5,40.2,9.7,39.3z"/>
		<path stroke="#3F33D3" stroke-width="0.2778" stroke-miterlimit="10" d="M55.8,30.2c0-0.5-0.1-1.1-0.2-1.7c-0.4-2.2-1-4.8-2.9-6.8
			c-1.4-1.5-3.2-1.7-4.9-0.5c-0.4,0.3-0.9,0.6-1.2,1.1c-3,3.7-4.4,8-4.2,12.5c0.1,2.8,1.8,4.8,4.6,5.6c0.6,0.2,1.2,0.3,1.8,0.3
			c2,0,3.7-0.9,5-2.7c1.4-2,2.1-4.3,2.1-7.2v0L55.8,30.2z M47.2,39.3c-2.4-0.7-3.7-2.2-3.8-4.5c-0.2-4.3,1.2-8.3,4-11.8
			c0.3-0.3,0.6-0.6,1-0.9c0.6-0.4,1.1-0.6,1.6-0.6c0.7,0,1.3,0.3,1.9,0.9c1.7,1.8,2.3,4.2,2.6,6.3c0.1,0.6,0.1,1.2,0.2,1.6l0,0.4
			c0,2.7-0.6,4.8-1.9,6.6C51.5,39.2,49.5,39.9,47.2,39.3z"/>
	</g>
</g>
<text transform="matrix(1 0 0 1 20.1904 50.1129)" stroke="#00FF1E" stroke-width="0.25" stroke-miterlimit="10" font-family="'RollerSkates-Regular'" font-size="16px">asd</text>
</svg>
