<?xml version="1.0" encoding="utf-8"?>
<!-- Generator: Adobe Illustrator 27.9.0, SVG Export Plug-In . SVG Version: 6.00 Build 0)  -->
<svg version="1.1" id="Layer_1" xmlns="http://www.w3.org/2000/svg" xmlns:xlink="http://www.w3.org/1999/xlink" x="0px" y="0px"
	 viewBox="0 0 67 93" style="enable-background:new 0 0 67 93;" xml:space="preserve">
<style type="text/css">
	.st0{fill:#E2D6C7;stroke:#FFB000;stroke-width:0.25;stroke-miterlimit:10;}
	.st1{stroke:#3F33D3;stroke-width:0.25;stroke-miterlimit:10;}
	.st2{font-family:'RollerSkates-Regular';}
	.st3{font-size:16px;}
	.st4{fill:none;stroke:#00FF1E;stroke-width:0.25;stroke-miterlimit:10.0001;}
</style>
<g>
	<path class="st0" d="M63.4,46.2c-0.2-0.3-6-6.1-14.8-10.4l0,0c-1.6-0.7-3.1-1.2-4.6-1.6c-0.1,0-0.1-0.1-0.1-0.1
		c0-0.1,0-0.2-0.1-0.2c0-0.1,0-0.1,0-0.2c2.3-2.7,3.6-6.4,3.6-10.4c0-5-2.2-9.5-5.6-12.3l0,0h0.1c0.8-0.5,1.1-2,1.4-2.8
		c0.3-1,0.8-2.5,0.1-3.3c-0.1-0.1-0.2-0.2-0.3-0.3l0,0V4.5c-0.2-0.2-0.4-0.4-0.8-0.6c-0.7-0.2-1.5,0.2-2.1,0.5L38.7,5V4.9
		C38.3,4,37.8,3,37.1,2.3L37,2.2l0,0c-0.3-0.4-0.7-0.6-1.1-0.8c-1.7-0.6-2.6,1.6-3,2.9c-0.3,1-0.8,2.7-0.1,3.5v0.1h-0.3
		c-7.1,0.6-12.8,7.2-12.8,15.3c0,4,1.4,7.6,3.7,10.4c0,0.2-0.1,0.2-0.1,0.4c-1.6,0.5-3.3,1-5.1,1.8l0,0C9.4,40.1,3.7,46,3.5,46.2
		l0,0c-3.4,4.5-0.9,8.5-0.8,8.6l0,0C5.8,59.3,10,56,10.1,56l0,0c2-1.7,3.8-2.9,5.4-3.6c0.1-0.1,0.3,0.1,0.2,0.2L7.2,69.9
		c0,0.1,0,0.2,0,0.2c0.6,0.5,3.9,3,9.1,4.7c-0.1,0.1-0.2,0.3-0.3,0.4c0,0-5.7,8-4.7,11.2c0,0,0.9,4.4,6,4.7c0,0,4.4,1.2,8.4-4.7l0,0
		c0.1-0.1,2.8-4.5,5.1-9.3c0-0.1,0.1-0.1,0.1-0.1c1.8,0,4.9,0,5.7,0c0.1,0,0.1,0,0.1,0.1c2.3,4.8,4.5,8.9,4.6,9.1l0,0
		c4,5.9,8.4,4.7,8.4,4.7c5.2-0.3,6-4.7,6-4.7C56.7,82.9,51,75,51,75c-0.2-0.3-0.4-0.5-0.6-0.8c-0.1-0.1,0-0.2,0.1-0.3
		c5-1.7,8.2-4.1,8.9-4.6c0.1-0.1,0.1-0.1,0-0.2l-8-16.2c-0.1-0.1,0.1-0.3,0.2-0.2c1.5,0.7,3.2,1.8,5,3.3l0,0
		c0.1,0.1,4.3,3.3,7.4-1.2l0,0C64.3,54.8,66.9,50.8,63.4,46.2L63.4,46.2z M36.5,8.1C37,7.9,37.6,7.6,38,7.4l0.1-0.1l0.1,0.1
		c0.2,0.5,0.5,1,0.7,1.4L39,9.1L38.7,9C38,8.7,37.2,8.4,36.5,8.1l-0.2,0.1L36.5,8.1z"/>
	<g>
		<path class="st1" d="M29.9,21.7c-1,0-1.8-0.8-1.8-1.8s0.8-1.8,1.8-1.8s1.8,0.8,1.8,1.8C31.7,20.8,30.9,21.7,29.9,21.7z"/>
		<path class="st1" d="M38.1,21.7c-1,0-1.8-0.8-1.8-1.8s0.8-1.8,1.8-1.8s1.8,0.8,1.8,1.8C40,20.8,39.1,21.7,38.1,21.7z"/>
		<path class="st1" d="M38.2,25.6c-0.6,2-2.3,3.2-4.3,3.2c-2.1,0-3.7-1.3-4.3-3.2c0-0.2,0-0.3,0.2-0.4c0.2,0,0.3,0,0.4,0.2
			c0.5,1.7,2,2.8,3.8,2.8s3.3-1.1,3.8-2.8c0-0.2,0.2-0.2,0.4-0.2C38.2,25.3,38.3,25.4,38.2,25.6z"/>
	</g>
</g>
<text transform="matrix(0.4301 0.9028 -0.9028 0.4301 20.4871 39.5801)" class="st2 st3">Mackenzie </text>
<text transform="matrix(0.4301 0.9028 -0.9028 0.4301 20.4871 39.5806)" class="st4 st2 st3">Mackenzie </text>
</svg>
