<?xml version="1.0" encoding="UTF-8"?>
<svg id="Layer_2" data-name="Layer 2" xmlns="http://www.w3.org/2000/svg" viewBox="0 0 172.5 119.81">
  <defs>
    <style>
      .cls-1,
      .cls-2 {
        stroke-width: 0px;
      }

      .cls-2 {
        fill: #e2d6c7;
      }
    </style>
  </defs>
  <g id="Layer_1-2" data-name="Layer 1" transform="translate(0, 24) scale(0.675)">
    <g>
      <path class="cls-2"
        d="m168.4,27.51l-.12-.1-.14-.13h0s-.05-.04-.07-.06c-6.4-5.51-14.29-9.39-23.47-11.54,0,0,0,0,0,0,0,0,0,0,0,0,0,0,0,0,0,0-.02,0-.04,0-.06-.01-8.92-2.08-18.87-2.45-28.9-1.07-9.68-6.95-20.96-11.78-32.74-14.01-2.65-.5-5.52-.88-8.5-.28h0c-.26.05-.51.11-.76.18-3.84.99-7.97,4.18-8.55,9.06-.57,4.86,2.7,8.61,4.27,10.41l4.51,5.17c.53.61,1.07,1.23,1.6,1.84-1.71.71-3.4,1.42-5.07,2.12l-.31.13-.21.09c-3.51,1.47-7.13,2.99-10.69,4.42-.38.15-.76.3-1.14.45.01-.07.02-.15.03-.22.63-4.11-1.04-6.37-2.56-7.54-2.44-1.88-5.21-1.46-6.12-1.33-.53.08-1.07.17-1.6.28h0s0,0,0,0h0s0,0,0,0c-5.62,1.13-11.03,3.81-15.48,7.62-1.29-.85-2.51-1.59-3.72-2.27-7.39-4.13-15.11-5.67-21.73-4.33h0s0,0,0,0h0c-1.34.27-2.65.66-3.88,1.16C1.21,28.26.04,29.97,0,31.87c-.08,4.4,2.18,8.86,6.53,12.88,1.2,1.11,2.45,2.12,3.66,3.09,1.85,1.49,3.59,2.89,4.94,4.48.38.45.78.98,1.13,1.44.57.75,1.17,1.54,1.86,2.31-.46,2.69-.54,5.23-.23,7.58-2.08,2.96-3.55,6.29-4.31,9.8-1.27,5.86.62,11.05,4.83,13.22,1.93,1,4.18,1.28,6.49.82,2.2-.44,4.5-1.56,6.85-3.32,1.72-1.29,3.3-2.65,4.76-4.09,1.25.21,2.42.35,3.36.46,9.25,1.05,18.69,1.31,28.12.81-.07.25-.15.51-.22.75-2.1,7.36-4.09,14.3-5.76,21.52-2.03,8.77.95,12.81,3.82,14.65,2.16,1.4,4.91,1.86,7.72,1.29.92-.19,1.82-.48,2.68-.86,2.72-1.23,4.67-3.12,6.4-4.78,14.36-13.89,26.97-26.76,35.02-42.54,18.95-6.76,36.06-16.49,50.86-28.92,1.1-.92,3.39-2.84,3.9-6.08.49-3.15-.86-6.13-4-8.88Z" />
      <g>
        <path class="cls-1"
          d="m165.26,31.1c-.08-.07-.16-.14-.25-.22,0,0,0,0-.01,0-5.82-5.03-13.06-8.58-21.5-10.56,0,0,0,0,0,0-8.93-2.09-18.99-2.34-29.1-.72-9.46-7.16-20.65-12.11-32.38-14.33-2.2-.41-4.74-.8-7.18-.17-2.27.58-4.7,2.36-5.01,5.01-.3,2.55,1.46,4.8,3.13,6.72,3.49,4.01,6.99,8.03,10.48,12.04-3.86,1.54-7.74,3.17-11.5,4.75-3.59,1.51-7.31,3.07-10.97,4.54-2.94,1.18-5.91,2.32-8.84,3.41.42-2.77.84-5.54,1.25-8.31.1-.66.34-2.21-.76-3.06-.73-.56-1.68-.51-2.51-.39-6.13.92-11.95,3.91-16.45,8.44-2.59-1.88-4.7-3.26-6.79-4.42-8.18-4.57-16.53-5.6-22.92-2.83-.21.09-.35.29-.37.52-.3,4.41,2.76,8.22,5.37,10.64,1.12,1.03,2.32,2,3.48,2.93,1.89,1.52,3.85,3.1,5.41,4.94.43.51.85,1.06,1.26,1.6,1.08,1.43,2.2,2.9,3.78,3.93.06.04.12.08.18.12-.61,2.81-.75,5.4-.4,7.7-2.8,3.1-4.74,6.84-5.61,10.84-.7,3.22-.34,7.6,2.99,9.31,1.34.69,2.75.77,4.14.49,1.99-.4,3.92-1.55,5.43-2.68,2.49-1.87,4.66-3.88,6.62-6.14,1.57.3,3.12.49,4.17.61,10.75,1.22,21.76,1.36,32.72.42-.65,2.31-1.31,4.62-1.95,6.85-2.09,7.31-4.07,14.22-5.71,21.34-1.26,5.43-.49,9.08,2.28,10.87,1.58,1.02,3.46,1.12,5.11.79.69-.14,1.34-.36,1.91-.61,2.15-.97,3.87-2.63,5.38-4.1,14.98-14.48,28.01-27.83,35.69-44.4,18.49-6.57,35.18-16.05,49.59-28.15,1.03-.86,2.04-1.81,2.25-3.16.3-1.92-1.25-3.53-2.43-4.57Zm-1.45.35c-1.73,2.49-4.05,4.8-6.91,6.88-4.48,3.25-9.68,5.56-14.71,7.79-7.43,3.3-15.11,6.71-23.45,7.26-4.35.29-7.92-.39-10.6-2.01-2.77-1.68-5.13-5.16-4.28-8.58.67-2.67,3.23-4.94,6.86-6.08,2.14-.67,4.44-.95,6.68-1.22,1.15-.14,2.34-.28,3.5-.48,8.95-1.51,17.2-6.39,22.7-13.43,7.9,1.9,14.69,5.22,20.21,9.86Zm-89.96-15.43c-1.57-1.8-3.08-3.73-2.84-5.78.24-2.07,2.3-3.51,4.11-3.97,2.2-.57,4.59-.2,6.66.19,11.17,2.11,21.84,6.74,30.95,13.42-.05,0-.09.02-.14.03-10.57,1.93-20.46,5.52-27.97,8.48-3.59-4.12-7.18-8.24-10.76-12.36Zm-23.58,14.97c.58-.09,1.21-.14,1.58.15.47.36.4,1.21.3,1.91-.45,2.99-.9,5.98-1.35,8.97-2.72,1-5.47,1.96-8.19,2.88-1.65-1.17-3.28-2.41-4.87-3.61-1.01-.77-2.06-1.56-3.11-2.34,4.29-4.27,9.82-7.09,15.64-7.97Zm-30.21,19.89c-.41-.55-.84-1.11-1.29-1.65-1.64-1.93-3.64-3.55-5.58-5.11-1.15-.92-2.33-1.88-3.42-2.88-2.34-2.17-5.07-5.51-5-9.3,5.99-2.43,13.8-1.38,21.49,2.92,2.14,1.2,4.32,2.63,7.06,4.63,0,0,.02.01.03.02h0c1.23.9,2.46,1.84,3.66,2.74,1.67,1.27,3.4,2.58,5.15,3.81.84.59,1.62,1.13,2.38,1.63-1.73,1.36-3.23,2.51-4.74,3.55-1.85,1.28-3.47,2.23-5.1,2.98-1.9.88-6.74,2.69-10.65.59,0,0-.01,0-.02,0,0,0-.02,0-.02-.01-.17-.09-.33-.19-.48-.28-1.4-.91-2.41-2.24-3.47-3.64Zm8.83,29.47c-2.29,1.72-5.59,3.48-8.29,2.09-2.72-1.4-2.97-5.17-2.36-7.98.84-3.88,2.74-7.5,5.49-10.48,0,0,.01-.01.02-.02,0,0,.01-.01.02-.02.51-.55,1.07-1.1,1.66-1.62,6.19-.95,12.38-1.89,18.57-2.84-2.34,5.92-5.11,10.72-8.46,14.64,0,0,0,0,0,0-1.96,2.3-4.14,4.33-6.66,6.22Zm50.43,30.14c-1.51,1.46-3.08,2.98-5.04,3.86-1.63.73-4.03,1.1-5.86-.09-2.3-1.48-2.89-4.7-1.76-9.58,1.64-7.09,3.61-13.98,5.7-21.28.72-2.51,1.46-5.1,2.19-7.7,0,0,0,0,0,0,1.06-3.81,1.92-7.01,2.68-10.03,11.65-2.88,23.61-5.06,35.56-6.49,2.03-.24,3.26.03,3.77.83.48.76.16,1.81-.25,2.84-.45,1.11-.93,2.24-1.45,3.36,0,0,0,0,0,0,0,0,0,0,0,.01-7.58,16.48-20.58,29.79-35.54,44.25Zm87.18-75.03c-.14.93-.99,1.7-1.83,2.42-14.02,11.77-30.2,21.04-48.12,27.54.31-.71.61-1.42.89-2.12.51-1.26.92-2.72.15-3.94-1.16-1.85-4.01-1.5-4.94-1.39-12.12,1.45-24.25,3.67-36.06,6.61-.22.05-.39.22-.44.44-.76,3.01-1.6,6.18-2.65,9.95-11.04.97-22.12.84-32.94-.38-.88-.1-2.12-.25-3.41-.47,3.32-4.1,6.07-9.08,8.39-15.18.08-.2.04-.43-.1-.6-.13-.17-.35-.25-.56-.22-6.6,1.01-13.19,2.01-19.79,3.03-.11.02-.22.07-.31.14-.35.31-.7.62-1.02.94-.16-1.82-.02-3.83.43-5.99,2.29.98,4.76.9,6.85.48,1.77-.36,3.28-.96,4.18-1.38,1.69-.78,3.37-1.76,5.28-3.08,1.73-1.2,3.43-2.52,5.47-4.12.15-.12.24-.31.23-.51,0-.2-.11-.38-.28-.48-.67-.42-1.35-.88-2.07-1.37,2.56-.87,5.15-1.79,7.72-2.73.01,0,.03-.01.04-.02,3.25-1.19,6.54-2.45,9.8-3.76,3.68-1.47,7.4-3.03,10.99-4.55,4.02-1.69,8.17-3.43,12.28-5.06,7.51-2.97,17.49-6.63,28.14-8.58.51-.09,1.02-.18,1.51-.26,9.7-1.59,19.34-1.43,27.96.45-5.31,6.56-13.13,11.11-21.59,12.54-1.14.19-2.31.33-3.44.47-2.29.28-4.65.56-6.89,1.27-4.03,1.27-6.9,3.86-7.67,6.94-1,3.98,1.67,8,4.83,9.91,2.9,1.75,6.7,2.49,11.31,2.18,1.79-.12,3.55-.37,5.3-.72,6.61-1.33,12.88-4.12,18.56-6.64,5.09-2.26,10.35-4.59,14.93-7.92,2.93-2.13,5.32-4.5,7.12-7.06,1.35,1.24,1.91,2.27,1.76,3.22Z" />
        <path class="cls-1"
          d="m95.46,39.43c-.62-.34-1.37-.4-2.12-.16-.88.28-1.68.97-2.07,1.79-.36.77-.47,1.57-.44,2.41-1.03-.82-2.26-1.29-3.47-1.26-1.1.03-2.2.53-2.94,1.35-.62.69-.93,1.53-.87,2.36.09,1.29.97,2.49,2.6,3.56,2.35,1.54,5.21,2.44,8.04,2.51.05,0,.09,0,.14-.01.18-.04.33-.15.42-.31,2.71-5.08,2.91-7.4,2.35-9.71-.31-1.27-.84-2.1-1.64-2.54Zm-1.61,11.34c-2.48-.13-4.97-.94-7.03-2.3-1.3-.85-1.99-1.74-2.06-2.64-.04-.5.16-1.02.56-1.46.41-.45,1-.78,1.61-.9.16-.03.31-.05.47-.05,1.36-.03,2.79.78,3.73,2.12.16.23.46.32.72.22.26-.1.42-.38.37-.65-.19-1.28-.32-2.52.15-3.52.25-.52.78-.97,1.34-1.16.3-.1.74-.16,1.16.07.48.26.82.84,1.05,1.76.48,1.97.29,4.02-2.06,8.52Z" />
        <path class="cls-1"
          d="m78.45,42.83c-.62-.31-1.36-.33-2.07-.07-.85.31-1.6,1.02-1.95,1.83-.31.71-.38,1.47-.36,2.2-1.66-1.29-4.04-1.73-6.02-.95-1.08.42-2.09,1.42-1.75,2.6.17.59.64.99.96,1.25,2.52,2.1,5.3,3.93,8.25,5.42.13.06.26.08.39.05.12-.02.24-.09.33-.19,3.69-4.02,4.07-6.64,3.94-8.86-.1-1.65-.69-2.79-1.72-3.3Zm.51,3.37c.13,2.19-.39,4.34-3.31,7.62-2.72-1.41-5.28-3.11-7.61-5.06-.27-.22-.51-.44-.57-.66-.12-.41.44-.9,1.02-1.13.23-.09.47-.16.71-.21,1.93-.39,4.18.5,5.18,2.16.15.25.46.36.73.25.27-.1.44-.38.39-.67-.19-1.12-.4-2.4.05-3.44.22-.51.71-.97,1.25-1.17.28-.1.7-.19,1.12.02.78.38,1,1.45,1.05,2.28Z" />
        <path class="cls-1"
          d="m60.95,46.96c-.71-.25-1.5-.19-2.23.17-.88.43-1.6,1.23-1.92,2.14-.33.95-.31,1.93-.19,2.87-.49-.34-1.01-.65-1.6-.86-1.39-.49-2.84-.24-3.7.62-1.17,1.18-.88,3.1.06,4.28.91,1.13,2.31,1.75,3.56,2.2.19.07.37.13.56.2,1.05.37,2.04.72,2.86,1.32.14.1.32.14.48.11.11-.02.22-.08.31-.16,3.99-3.96,5.2-7.04,4.05-10.29-.48-1.35-1.25-2.25-2.24-2.59Zm-2.31,11.67c-.86-.53-1.81-.87-2.74-1.2-.18-.07-.37-.13-.55-.2-1.15-.42-2.31-.92-3.03-1.82-.6-.74-.83-1.98-.15-2.66.24-.24.55-.38.89-.45.51-.1,1.09-.04,1.54.12.94.33,1.74,1.01,2.52,1.68.2.17.48.19.71.06.22-.13.34-.4.28-.65-.27-1.24-.59-2.64-.17-3.85.21-.61.71-1.16,1.3-1.45.31-.15.79-.29,1.3-.11.8.28,1.25,1.16,1.5,1.86.67,1.89.77,4.39-3.41,8.67Z" />
        <path class="cls-1"
          d="m119.47,38.47c-.34,0-.61.27-.61.6-.03,2.88-.73,5.76-2.05,8.32-.15.3-.04.66.26.82.13.07.27.08.4.05.18-.04.33-.15.42-.32,1.4-2.74,2.16-5.8,2.18-8.87,0-.34-.27-.61-.6-.61Z" />
        <path class="cls-1"
          d="m129.96,36.21c-.34,0-.61.27-.61.61.01,3.11-.45,6.2-1.37,9.17-.1.32.08.66.4.76.1.03.2.03.3.01.21-.04.39-.2.46-.41.96-3.09,1.44-6.3,1.43-9.54,0-.34-.27-.61-.61-.61Z" />
        <path class="cls-1"
          d="m136.12,32.46c-.27.2-.32.58-.12.85,1.7,2.23,2.63,4.97,2.63,7.71,0,.33.27.61.61.61.04,0,.08,0,.12-.01.28-.06.49-.3.49-.6,0-3-1.02-6.01-2.88-8.45-.2-.27-.58-.32-.85-.12Z" />
      </g>
    </g>
  </g>
</svg>