<?xml version="1.0" encoding="UTF-8"?>
<svg id="Layer_2" data-name="Layer 2" xmlns="http://www.w3.org/2000/svg" viewBox="0 0 141.92 95.98">
  <defs>
    <style>
      .cls-1, .cls-2 {
        stroke-width: 0px;
      }

      .cls-2 {
        fill: #e2d6c7;
      }
    </style>
  </defs>
  <g id="Layer_1-2" data-name="Layer 1">
    <g>
      <path class="cls-2" d="m141.18,67.06c-.14-2.47-1.11-4.52-2.71-5.9-.06-1.62-.16-3.17-.33-4.67.73-.72,1.16-1.48,1.41-2.04,1.15-2.56,1.35-5.41.59-8.23-.68-2.53-2.55-4.32-4.97-4.89-1.29-2.39-3.17-3.62-4.67-4.25-.35-.15-.74-.32-1.14-.51-.59-.27-1.26-.58-1.99-.86-.34-.13-.53-.27-.74-.75-.14-.32-.28-.65-.41-.98l-1.31-3.31c-.93-2.35-1.86-4.69-2.79-7.03-.3-.75-.71-1.74-1.24-2.73-1.93-3.62-4.58-6.92-8.33-10.39-4.05-3.75-8.94-6.42-14.97-8.15-4.32-1.24-9.01-1.98-14.36-2.27-1.12-.06-2.27-.09-3.43-.09-3.72,0-7.58.3-11.82.92-5.23.77-9.95,2.63-13.88,4.34-7.04,3.08-12.61,8.25-16.57,15.39-1.89,3.4-3.25,6.25-4.28,8.99-.32.86-.7,1.63-1.13,2.29-1.71,2.66-3.29,3.32-4.47,3.59-.93.22-1.81.49-2.58.73-.55.17-1.07.33-1.55.46-2.06.53-4.08,1.32-6,2.34-2.43,1.29-5.96,3.43-8.6,7.03-2.78,3.79-4.58,7.49-5.5,11.31-.37,1.54-.64,3.17-.83,4.98-.03.32-.07.63-.1.95-.23,2.12-.48,4.51-.26,7.03-1.06.97-2.02,2.49-2.19,4.85-.11,1.55.12,2.93.39,4.19.35,1.67,1.24,3.08,2.5,4.03,1.01,2.05,2.91,3.54,5.33,4.12.77.18,1.58.27,2.39.27.12,0,.23,0,.35,0,1.45-.05,2.86-.12,4.19-.22.4-.03.79-.06,1.19-.08,1.18-.08,2.38-.16,3.6-.28,3.63,5.12,9.38,8.13,15.66,8.13s11.78-2.9,15.43-7.82l3.82-.06c5.89-.09,11.78-.19,17.66-.27,1.34-.02,2.67-.03,4.01-.04,2.47-.02,5.02-.05,7.57-.12,3.5,5.48,9.8,8.96,16.43,8.96,1.74,0,3.46-.23,5.14-.7,5.02-1.39,9.01-4.38,11.63-8.69,1.32-.08,2.8-.11,4.66-.11.82,0,1.66,0,2.52.01.53.02,1.1.03,1.69.03,1.39,0,2.92-.06,4.54-.17,1.35-.09,3.39-.3,5.47-1.04,2.72-.96,4.6-3.07,5.17-5.77.41-1.92,1.14-5.4-.3-9.05.15-1.04.18-2.15.1-3.42Z"/>
      <g>
        <path class="cls-1" d="m124.63,81.29c-3.36-.03-6.37-.04-9.38.24-.84.08-1.32.36-1.71,1.15-1.93,3.9-5.05,6.42-9.24,7.59-6.41,1.78-13.27-1.24-16.31-6.94-.64-1.2-1.29-1.61-2.64-1.56-4.29.16-8.58.14-12.87.21-7.65.11-15.31.24-22.96.36-.29,0-.58,0-.87.03-.3.03-.55.16-.71.44-.17.3-.36.6-.55.89-5.74,8.79-18.42,8.52-23.8-.47-.4-1.3-1.29-1.53-2.55-1.38-2.07.26-4.16.37-6.24.52-1.33.1-2.66.16-3.99.21-.46.02-.93-.03-1.38-.13-1.03-.24-1.8-.82-2.05-1.9-.13-.56-.33-.93-.93-1.1-.54-.15-.84-.61-.96-1.15-.19-.91-.35-1.83-.29-2.76.05-.79.28-1.49,1.16-1.75.23-.07.47-.16.5-.41.14-1.07.68-2.04.55-3.21-.26-2.43.08-4.86.32-7.28.15-1.44.37-2.87.71-4.28.85-3.5,2.54-6.59,4.64-9.45,1.78-2.43,4.22-4.12,6.85-5.52,1.53-.82,3.15-1.46,4.84-1.89,1.34-.35,2.65-.84,4.01-1.15,3.45-.8,5.82-2.97,7.67-5.84.66-1.03,1.19-2.12,1.62-3.26,1.09-2.88,2.47-5.62,3.96-8.3,3.28-5.91,7.86-10.41,14.11-13.14,4.05-1.77,8.16-3.32,12.55-3.96,4.71-.69,9.45-1.04,14.22-.79,4.47.24,8.88.83,13.19,2.07,4.8,1.38,9.2,3.56,12.88,6.97,2.85,2.64,5.42,5.56,7.28,9.03.38.71.7,1.46,1,2.21,1.38,3.44,2.73,6.89,4.1,10.33.15.38.31.75.47,1.12.72,1.68,1.91,2.87,3.63,3.53,1.02.4,2,.91,3.02,1.33,1.41.58,2.15,1.7,2.56,3.09.06.22.1.45.13.68.06.52.39.65.85.65.46,0,.93.04,1.39.03.88-.02,1.47.42,1.68,1.23.43,1.61.37,3.22-.32,4.75-.28.62-.84.9-1.51,1.05-.78.18-.81.24-.71.88.5,3.04.7,6.1.72,9.18,0,.55.05.96.75,1.15,1.37.37,1.85,1.48,1.93,2.79.06.98.04,1.97-.16,2.95-.12.6-.03,1.12.23,1.67,1.01,2.11.69,4.31.23,6.48-.2.96-.88,1.61-1.82,1.95-1.32.47-2.7.66-4.09.76-2.03.14-4.05.2-5.74.13ZM46.84,32.77c.19-1.46.34-2.92.91-4.26,2.25-5.28,5.83-9.29,11.18-11.57,1.83-.78,3.75-1.21,5.74-1.24,1.12-.01,1.72.45,2.02,1.53.12.44.15.91.18,1.38.23,3.13.14,6.26.1,9.39-.06,4.46-.21,8.92-.28,13.38-.04,2.38.03,4.75.03,7.13.01,6.55.02,13.1.03,19.66,0,.46.01.93.04,1.39.02.27.2.41.46.42.41.02.81.02,1.22.02,5.62.02,11.25.04,16.87.06.69,0,1.48.15,2.05-.13.48-.24.7-1.01,1.05-1.53,3.09-4.52,7.42-6.83,12.85-6.57,5.21.25,9.24,2.79,11.88,7.36.46.79.89,1.32,1.89.97.37-.13.8-.09,1.21-.1,4.86-.16,9.73-.57,14.6-.17.73.06.9-.12.92-.9.07-2.96.16-5.91-.02-8.87-.12-1.97-.29-3.93-.65-5.87-.13-.7-.19-.75-.89-.81-.4-.04-.81-.03-1.21-.09-1.07-.16-1.54-.6-1.71-1.66-.17-1.03-.18-2.08-.02-3.12.16-.99.65-1.68,1.7-1.97.85-.23.92-.44.69-1.22-.27-.92-.69-1.71-1.65-2.11-.75-.31-1.44-.76-2.21-1.01-2.78-.91-4.67-2.71-5.63-5.48-.06-.16-.14-.32-.2-.48-1.29-3.29-2.58-6.57-3.89-9.85-.34-.86-.71-1.72-1.15-2.53-1.76-3.25-4.19-5.99-6.87-8.48-3.49-3.25-7.67-5.35-12.26-6.66-3.35-.96-6.77-1.52-10.24-1.84-5.75-.54-11.47-.23-17.15.66-4.5.7-8.7,2.35-12.8,4.28-5.05,2.38-8.82,6.14-11.67,10.85-1.71,2.82-3.2,5.77-4.38,8.87-.47,1.25-1.02,2.46-1.72,3.6-2.05,3.32-4.73,5.83-8.66,6.76-1.52.36-3.01.86-4.51,1.3-2.01.59-3.91,1.42-5.76,2.61,2.57,2.86,2.67,6,.61,8.95-2.26,3.22-5.51,3.47-8.96,1.95-1.37,3.57-2.2,11.24-1.49,13.76.79-.05,1.59-.15,2.39-.16,3.07,0,6.15.02,9.22.03.69,0,1.39-.03,2.08-.05.34-.54.68-1.07,1.01-1.61,3.09-5,9.44-7.79,15.56-6.04,3.56,1.02,6.32,3.11,8.23,6.27.4.66.82.97,1.63.97,5.1-.01,10.2.03,15.31.06,1.06,0,1.52.12,1.34-1.3-.07-.51-.01-1.04-.01-1.56-.02-8.81-.04-17.63-.06-26.44,0-.5.14-1.04-.17-1.45-.67.07-1.3.18-1.93.2-3.59.09-7.18.16-10.78.24-.35,0-.7.02-1.04.06-.25.03-.41.17-.43.44-.06.63-.1,1.27-.2,1.9-.07.43-.36.73-.81.81-1.79.31-3.58.24-5.37.01-.39-.05-.58-.32-.71-.67-.18-.48.04-1.06-.4-1.48-.45,0-.92.02-1.38,0-.3-.02-.59-.14-.75-.39-.5-.78-.53-1.63-.26-2.5.2-.64.66-.92,1.3-.98.17-.02.34-.06.52-.08.4-.05.62-.27.65-.68.04-.52.08-1.04.14-1.56.09-.78.52-1.26,1.3-1.43.45-.1.89-.22,1.37-.35Zm53.96,56.54c7.13-.06,13.04-5.96,12.84-13.38-.18-6.98-5.75-12.79-13.17-12.71-7.93.08-13.13,6.68-12.93,13.48.19,6.55,5.65,12.75,13.26,12.61Zm-65.15-25.69c-6.33-.08-12.49,4.84-12.55,12.44-.06,7.56,5.99,12.64,12.54,12.64,6.78,0,12.5-5.33,12.55-12.46.05-7.27-5.83-12.69-12.54-12.62Zm50.91,7.87c-.61,0-1.29-.02-1.98-.03-5.16-.02-10.32-.04-15.48-.06-6.2-.02-12.41-.06-18.61-.07-.5,0-1.03-.16-1.53.23.27,1.52.69,3.03.7,4.61,0,1.56-.5,3.05-.66,4.63.94.18,1.81.08,2.67.07,8.41-.13,16.81-.27,25.22-.4,2.96-.05,5.91-.08,8.87-.14.72-.01.85-.18.71-.83-.51-2.37-.46-4.72.14-7.06.07-.27.18-.56-.05-.96Zm-38.73-38.86c.47.32,1.01.16,1.52.22,1.28.15,1.63.42,1.79,1.68.15,1.2.2,2.42.3,3.63.04.47.16.62.63.61,3.88-.05,7.75-.08,11.63-.18,1.83-.04,2.25-.47,2.28-2.29.1-5.73.22-11.45.09-17.18-.01-.46-.03-.93-.13-1.38-.2-.95-.61-1.29-1.58-1.2-1.91.18-3.76.56-5.53,1.37-3.46,1.59-6.23,3.99-8.29,7.16-1.49,2.29-2.74,4.7-2.71,7.56Zm66.87,47.29c.34.25.63.19.91.16,3.23-.33,6.47-.25,9.72-.23,1.62.01,3.24-.03,4.86-.13,1.04-.06,2.07-.25,3.09-.43,1.08-.2,1.76-.81,1.8-1.99.03-.81.14-1.61.19-2.42.05-.71-.14-1.38-.36-2.04-.21-.65-.68-1.08-1.33-1.26-.39-.1-.79-.16-1.2-.18-1.27-.08-2.54-.14-3.81-.2-4.23-.21-8.45.21-12.67.3-.34,0-.69.08-1.03.15-.35.07-.46.31-.36.64.69,2.32.77,4.67.26,7.04-.05.21-.05.43-.07.6Zm-92.51-8.12c-3.87,0-7.63-.01-11.39.01-.51,0-1.02.16-1.53.26-.36.07-.6.31-.76.65-.18.38-.03.72.37.71.87,0,1.74-.03,2.6-.03.58,0,1.16-.02,1.73.05.78.09,1.15.46,1.21,1.23.06.75.06,1.5.04,2.26-.04,1.9-.57,2.56-2.44,2.6-.92.02-1.85.11-2.77.19-.15.01-.37.09-.43.2-.11.22.01.45.15.64.22.29.53.47.87.51.46.06.93.09,1.38.06,2.08-.12,4.16-.25,6.24-.41,1.55-.12,3.1-.28,4.65-.42-.83-5.46-.41-4.66.08-8.52Zm-2.14-21.49c-.08-1.21-.39-2.42-1.39-3.35-.45-.42-.65-.44-1.2-.06-3.02,2.08-4.73,5.15-6.31,8.32-.19.38.01.67.35.86,1.27.7,2.61.93,4.01.52,3.23-.95,4.41-3.12,4.54-6.27Zm30.41-11.96s.07,0,.11,0c-.09-1.26-.17-2.53-.29-3.79-.04-.42-.28-.73-.78-.77-1.16-.1-2.31-.07-3.45.08-.69.09-.9.31-1.03.97-.07.34-.1.68-.12,1.03-.05.79-.02.83.78,1.02,1.2.29,1.29.4,1.29,1.62,0,1.41-.03,1.49-1.37,1.97-.56.2-.42.6-.42.98,0,.42.22.64.62.66,1.27.09,2.53.13,3.8,0,.7-.07.82-.17.85-.83.04-.98,0-1.96,0-2.94Zm81.77,8.8c-.93-.08-1.84.11-2.75.23-.83.11-1.22.62-1.34,1.36-.15.91-.15,1.84.02,2.76.1.58.47.92,1.05.99,1.26.17,2.53.16,3.8.04.55-.05,1.02-.34,1.17-.89.28-1.06.48-2.14.3-3.25-.15-.92-.41-1.12-1.38-1.18-.29-.02-.58-.04-.86-.06ZM9.81,78.76v-.08c.86,0,1.73.05,2.59-.01.84-.06,1.09-.36,1.14-1.22.04-.8.03-1.61,0-2.42-.02-.52-.23-.76-.73-.77-1.15-.02-2.31-.04-3.46.02-.8.04-1.6.16-2.4.29-.59.1-.82.33-.82.92,0,.8.06,1.61.15,2.41.06.51.39.84.93.86.86.02,1.73,0,2.59,0Zm125.08-8.43c.2-1.1.29-2.24.13-3.39-.09-.68-.39-1.2-1.06-1.46-.31-.12-.65.02-.65.31-.04,1.21-.05,2.43-.09,3.64-.01.42.21.62.58.73.33.1.64.27,1.09.17Zm-91.56-30.49c.87-.08,1.45-.11,2.02-.19.59-.09.79-.41.77-1.14-.01-.57-.23-.78-.89-.8-.75-.02-1.51-.01-2.26.02-.31.01-.55.23-.59.54-.05.34-.03.69-.02,1.03.02.34.23.51.56.54.23.02.46,0,.4,0Z"/>
        <path class="cls-1" d="m93.43,40.2c-4.75-.16-9.49-.31-14.24-.48-1.04-.04-2.08-.17-3.12-.26-.47-.04-.91-.16-1.33-.38-.53-.28-.92-.65-1.09-1.27-.17-.62-.31-1.23-.3-1.88.02-3.3-.05-6.61.08-9.91.1-2.49.28-4.97.35-7.46.02-.75.14-1.5.3-2.24.23-1.07.82-1.56,1.92-1.71.34-.04.7-.07,1.04-.05,3.35.24,6.72.08,10.06.47,2.76.33,5.52.66,8.22,1.37,3.67.97,6.83,2.84,9.4,5.64,3.59,3.92,5.58,8.6,6.45,13.8.21,1.25-.08,2.41-.46,3.58-.21.65-.64.91-1.31.89-.52-.01-1.04.05-1.56.05-4.23.03-8.46.09-12.68-.16-.58-.03-1.16,0-1.74,0,0-.01,0-.02,0-.03Zm2.67-.71c2.68,0,7.02,0,11.37,0,.64,0,1.27-.05,1.91-.08.33-.02.5-.2.61-.51.46-1.24.44-2.52.19-3.77-.93-4.63-2.76-8.83-5.97-12.35-2.6-2.86-5.8-4.75-9.57-5.64-4.07-.95-8.21-1.43-12.39-1.49-1.22-.02-2.43-.02-3.64-.17-.57-.07-1.16-.07-1.74-.07-1.53.01-1.91.37-2.09,1.92-.03.29-.05.58-.07.87-.08,1.62-.13,3.24-.26,4.86-.32,3.99-.3,7.99-.29,11.98,0,.7.06,1.38.19,2.07.16.78.59,1.24,1.34,1.41.34.08.68.14,1.02.17,1.56.11,3.12.28,4.68.3,4.34.06,8.68.21,14.69.5Z"/>
        <path class="cls-1" d="m107.47,45.7c-1.21,0-2.42.02-3.63,0-.65-.01-.83-.22-.84-.83,0-.29,0-.58.04-.86.13-.98.72-1.54,1.66-1.75.28-.06.57-.09.86-.09,1.44-.02,2.89-.04,4.33-.02,1.15.02,1.68.53,1.84,1.65.03.23.04.46.05.69.04,1.22-.03,1.3-1.2,1.3-1.04,0-2.08,0-3.11,0,0-.02,0-.05,0-.07Zm0-.7s0,.04,0,.07c.98,0,1.96,0,2.93,0,.53,0,.7-.19.67-.73-.06-1.05-.31-1.47-1.06-1.48-1.67-.03-3.34-.02-5,.08-.9.05-1.25.56-1.3,1.52-.02.34.14.55.48.55,1.09,0,2.18,0,3.28,0Z"/>
        <path class="cls-1" d="m59.35,45.98c-1.21,0-2.42.02-3.63,0-.58-.01-.83-.31-.86-.86-.07-1.43.45-2.15,1.84-2.5.28-.07.57-.11.86-.11,1.33,0,2.65-.01,3.98.01.34,0,.69.07,1.01.18.64.23,1.08.66,1.13,1.38.03.4.06.81.04,1.21-.02.52-.23.74-.74.75-.92,0-1.85-.03-2.77-.04-.29,0-.58,0-.87,0h0Zm3.57-.79c.1-1.67-.08-1.92-1.54-1.97-1.1-.04-2.2-.05-3.3-.05-.4,0-.81.05-1.21.12-.4.07-.79.23-1.04.56-.29.39-.33.85-.16,1.31,1.4.17,5.89.18,7.25.02Z"/>
        <path class="cls-1" d="m105.83,76.57c.02,2.81-2.21,5.09-5.02,5.16-2.76.06-5.12-2.21-5.18-5-.06-2.87,2.27-5.31,5.11-5.24,3.12.07,5.09,2.51,5.09,5.09Zm-5.08,4.26c2.29,0,4.19-1.87,4.24-4.16.05-2.34-1.9-4.28-4.28-4.29-2.05-.01-4.12,1.52-4.23,4.16-.1,2.33,1.9,4.29,4.27,4.29Z"/>
        <path class="cls-1" d="m35.57,81.61c-2.9,0-5.28-2.33-5.18-5.19.12-3.49,2.93-5.15,5.27-5.13,2.53.03,5.07,2.14,5.09,5.12.02,3.08-2.58,5.31-5.17,5.19Zm-.07-.83c2.34.04,4.36-1.91,4.4-4.25.04-2.33-1.92-4.35-4.26-4.39-2.37-.04-4.34,1.87-4.38,4.24-.03,2.38,1.87,4.35,4.23,4.39Z"/>
      </g>
    </g>
  </g>
</svg>