<svg version="1.1" id="Layer_2_00000062878127446892349830000017115364737972546478_"
	 xmlns="http://www.w3.org/2000/svg" xmlns:xlink="http://www.w3.org/1999/xlink" x="0px" y="0px" viewBox="0 0 2290.1 1442.8"
	 style="enable-background:new 0 0 2290.1 1442.8;" xml:space="preserve">
<style type="text/css">
	.st0{fill:#F4A5AC;}
	.st1{font-family:'#9Slide03QuicksandBold-Bold';}
	.st2{font-size:480px;}
	.st3{fill:#F4A5AC;stroke:#F4A5AC;stroke-width:2;stroke-linecap:round;stroke-linejoin:round;stroke-miterlimit:10;}
	.st4{font-family:'SharkBlindateRegular';}
	.st5{font-size:222.9332px;}
	.st6{font-family:'AmaticSC-Bold';}
	.st7{font-size:37.1513px;}
	.st8{font-size:98px;}
	.st9{fill:#FFFFFF;}
	.st10{fill-rule:evenodd;clip-rule:evenodd;fill:none;stroke:#FFFFFF;stroke-linejoin:bevel;stroke-miterlimit:22.9256;}
	.st11{fill:#FFFFFF;stroke:#FFFFFF;stroke-width:1.6887;stroke-miterlimit:10;}
</style>


<g id="Layer_1-2" data-name="Layer 1" transform="translate(800, 600) scale(1.69)">
<g>
  <path d="m168.4,27.51l-.12-.1-.14-.13h0s-.05-.04-.07-.06c-6.4-5.51-14.29-9.39-23.47-11.54,0,0,0,0,0,0,0,0,0,0,0,0,0,0,0,0,0,0-.02,0-.04,0-.06-.01-8.92-2.08-18.87-2.45-28.9-1.07-9.68-6.95-20.96-11.78-32.74-14.01-2.65-.5-5.52-.88-8.5-.28h0c-.26.05-.51.11-.76.18-3.84.99-7.97,4.18-8.55,9.06-.57,4.86,2.7,8.61,4.27,10.41l4.51,5.17c.53.61,1.07,1.23,1.6,1.84-1.71.71-3.4,1.42-5.07,2.12l-.31.13-.21.09c-3.51,1.47-7.13,2.99-10.69,4.42-.38.15-.76.3-1.14.45.01-.07.02-.15.03-.22.63-4.11-1.04-6.37-2.56-7.54-2.44-1.88-5.21-1.46-6.12-1.33-.53.08-1.07.17-1.6.28h0s0,0,0,0h0s0,0,0,0c-5.62,1.13-11.03,3.81-15.48,7.62-1.29-.85-2.51-1.59-3.72-2.27-7.39-4.13-15.11-5.67-21.73-4.33h0s0,0,0,0h0c-1.34.27-2.65.66-3.88,1.16C1.21,28.26.04,29.97,0,31.87c-.08,4.4,2.18,8.86,6.53,12.88,1.2,1.11,2.45,2.12,3.66,3.09,1.85,1.49,3.59,2.89,4.94,4.48.38.45.78.98,1.13,1.44.57.75,1.17,1.54,1.86,2.31-.46,2.69-.54,5.23-.23,7.58-2.08,2.96-3.55,6.29-4.31,9.8-1.27,5.86.62,11.05,4.83,13.22,1.93,1,4.18,1.28,6.49.82,2.2-.44,4.5-1.56,6.85-3.32,1.72-1.29,3.3-2.65,4.76-4.09,1.25.21,2.42.35,3.36.46,9.25,1.05,18.69,1.31,28.12.81-.07.25-.15.51-.22.75-2.1,7.36-4.09,14.3-5.76,21.52-2.03,8.77.95,12.81,3.82,14.65,2.16,1.4,4.91,1.86,7.72,1.29.92-.19,1.82-.48,2.68-.86,2.72-1.23,4.67-3.12,6.4-4.78,14.36-13.89,26.97-26.76,35.02-42.54,18.95-6.76,36.06-16.49,50.86-28.92,1.1-.92,3.39-2.84,3.9-6.08.49-3.15-.86-6.13-4-8.88Z" style="fill: #e2d6c7; stroke-width: 0px;"/>
  <g>
	<path d="m165.26,31.1c-.08-.07-.16-.14-.25-.22,0,0,0,0-.01,0-5.82-5.03-13.06-8.58-21.5-10.56,0,0,0,0,0,0-8.93-2.09-18.99-2.34-29.1-.72-9.46-7.16-20.65-12.11-32.38-14.33-2.2-.41-4.74-.8-7.18-.17-2.27.58-4.7,2.36-5.01,5.01-.3,2.55,1.46,4.8,3.13,6.72,3.49,4.01,6.99,8.03,10.48,12.04-3.86,1.54-7.74,3.17-11.5,4.75-3.59,1.51-7.31,3.07-10.97,4.54-2.94,1.18-5.91,2.32-8.84,3.41.42-2.77.84-5.54,1.25-8.31.1-.66.34-2.21-.76-3.06-.73-.56-1.68-.51-2.51-.39-6.13.92-11.95,3.91-16.45,8.44-2.59-1.88-4.7-3.26-6.79-4.42-8.18-4.57-16.53-5.6-22.92-2.83-.21.09-.35.29-.37.52-.3,4.41,2.76,8.22,5.37,10.64,1.12,1.03,2.32,2,3.48,2.93,1.89,1.52,3.85,3.1,5.41,4.94.43.51.85,1.06,1.26,1.6,1.08,1.43,2.2,2.9,3.78,3.93.06.04.12.08.18.12-.61,2.81-.75,5.4-.4,7.7-2.8,3.1-4.74,6.84-5.61,10.84-.7,3.22-.34,7.6,2.99,9.31,1.34.69,2.75.77,4.14.49,1.99-.4,3.92-1.55,5.43-2.68,2.49-1.87,4.66-3.88,6.62-6.14,1.57.3,3.12.49,4.17.61,10.75,1.22,21.76,1.36,32.72.42-.65,2.31-1.31,4.62-1.95,6.85-2.09,7.31-4.07,14.22-5.71,21.34-1.26,5.43-.49,9.08,2.28,10.87,1.58,1.02,3.46,1.12,5.11.79.69-.14,1.34-.36,1.91-.61,2.15-.97,3.87-2.63,5.38-4.1,14.98-14.48,28.01-27.83,35.69-44.4,18.49-6.57,35.18-16.05,49.59-28.15,1.03-.86,2.04-1.81,2.25-3.16.3-1.92-1.25-3.53-2.43-4.57Zm-1.45.35c-1.73,2.49-4.05,4.8-6.91,6.88-4.48,3.25-9.68,5.56-14.71,7.79-7.43,3.3-15.11,6.71-23.45,7.26-4.35.29-7.92-.39-10.6-2.01-2.77-1.68-5.13-5.16-4.28-8.58.67-2.67,3.23-4.94,6.86-6.08,2.14-.67,4.44-.95,6.68-1.22,1.15-.14,2.34-.28,3.5-.48,8.95-1.51,17.2-6.39,22.7-13.43,7.9,1.9,14.69,5.22,20.21,9.86Zm-89.96-15.43c-1.57-1.8-3.08-3.73-2.84-5.78.24-2.07,2.3-3.51,4.11-3.97,2.2-.57,4.59-.2,6.66.19,11.17,2.11,21.84,6.74,30.95,13.42-.05,0-.09.02-.14.03-10.57,1.93-20.46,5.52-27.97,8.48-3.59-4.12-7.18-8.24-10.76-12.36Zm-23.58,14.97c.58-.09,1.21-.14,1.58.15.47.36.4,1.21.3,1.91-.45,2.99-.9,5.98-1.35,8.97-2.72,1-5.47,1.96-8.19,2.88-1.65-1.17-3.28-2.41-4.87-3.61-1.01-.77-2.06-1.56-3.11-2.34,4.29-4.27,9.82-7.09,15.64-7.97Zm-30.21,19.89c-.41-.55-.84-1.11-1.29-1.65-1.64-1.93-3.64-3.55-5.58-5.11-1.15-.92-2.33-1.88-3.42-2.88-2.34-2.17-5.07-5.51-5-9.3,5.99-2.43,13.8-1.38,21.49,2.92,2.14,1.2,4.32,2.63,7.06,4.63,0,0,.02.01.03.02h0c1.23.9,2.46,1.84,3.66,2.74,1.67,1.27,3.4,2.58,5.15,3.81.84.59,1.62,1.13,2.38,1.63-1.73,1.36-3.23,2.51-4.74,3.55-1.85,1.28-3.47,2.23-5.1,2.98-1.9.88-6.74,2.69-10.65.59,0,0-.01,0-.02,0,0,0-.02,0-.02-.01-.17-.09-.33-.19-.48-.28-1.4-.91-2.41-2.24-3.47-3.64Zm8.83,29.47c-2.29,1.72-5.59,3.48-8.29,2.09-2.72-1.4-2.97-5.17-2.36-7.98.84-3.88,2.74-7.5,5.49-10.48,0,0,.01-.01.02-.02,0,0,.01-.01.02-.02.51-.55,1.07-1.1,1.66-1.62,6.19-.95,12.38-1.89,18.57-2.84-2.34,5.92-5.11,10.72-8.46,14.64,0,0,0,0,0,0-1.96,2.3-4.14,4.33-6.66,6.22Zm50.43,30.14c-1.51,1.46-3.08,2.98-5.04,3.86-1.63.73-4.03,1.1-5.86-.09-2.3-1.48-2.89-4.7-1.76-9.58,1.64-7.09,3.61-13.98,5.7-21.28.72-2.51,1.46-5.1,2.19-7.7,0,0,0,0,0,0,1.06-3.81,1.92-7.01,2.68-10.03,11.65-2.88,23.61-5.06,35.56-6.49,2.03-.24,3.26.03,3.77.83.48.76.16,1.81-.25,2.84-.45,1.11-.93,2.24-1.45,3.36,0,0,0,0,0,0,0,0,0,0,0,.01-7.58,16.48-20.58,29.79-35.54,44.25Zm87.18-75.03c-.14.93-.99,1.7-1.83,2.42-14.02,11.77-30.2,21.04-48.12,27.54.31-.71.61-1.42.89-2.12.51-1.26.92-2.72.15-3.94-1.16-1.85-4.01-1.5-4.94-1.39-12.12,1.45-24.25,3.67-36.06,6.61-.22.05-.39.22-.44.44-.76,3.01-1.6,6.18-2.65,9.95-11.04.97-22.12.84-32.94-.38-.88-.1-2.12-.25-3.41-.47,3.32-4.1,6.07-9.08,8.39-15.18.08-.2.04-.43-.1-.6-.13-.17-.35-.25-.56-.22-6.6,1.01-13.19,2.01-19.79,3.03-.11.02-.22.07-.31.14-.35.31-.7.62-1.02.94-.16-1.82-.02-3.83.43-5.99,2.29.98,4.76.9,6.85.48,1.77-.36,3.28-.96,4.18-1.38,1.69-.78,3.37-1.76,5.28-3.08,1.73-1.2,3.43-2.52,5.47-4.12.15-.12.24-.31.23-.51,0-.2-.11-.38-.28-.48-.67-.42-1.35-.88-2.07-1.37,2.56-.87,5.15-1.79,7.72-2.73.01,0,.03-.01.04-.02,3.25-1.19,6.54-2.45,9.8-3.76,3.68-1.47,7.4-3.03,10.99-4.55,4.02-1.69,8.17-3.43,12.28-5.06,7.51-2.97,17.49-6.63,28.14-8.58.51-.09,1.02-.18,1.51-.26,9.7-1.59,19.34-1.43,27.96.45-5.31,6.56-13.13,11.11-21.59,12.54-1.14.19-2.31.33-3.44.47-2.29.28-4.65.56-6.89,1.27-4.03,1.27-6.9,3.86-7.67,6.94-1,3.98,1.67,8,4.83,9.91,2.9,1.75,6.7,2.49,11.31,2.18,1.79-.12,3.55-.37,5.3-.72,6.61-1.33,12.88-4.12,18.56-6.64,5.09-2.26,10.35-4.59,14.93-7.92,2.93-2.13,5.32-4.5,7.12-7.06,1.35,1.24,1.91,2.27,1.76,3.22Z" style="stroke-width: 0px;"/>
	<path d="m95.46,39.43c-.62-.34-1.37-.4-2.12-.16-.88.28-1.68.97-2.07,1.79-.36.77-.47,1.57-.44,2.41-1.03-.82-2.26-1.29-3.47-1.26-1.1.03-2.2.53-2.94,1.35-.62.69-.93,1.53-.87,2.36.09,1.29.97,2.49,2.6,3.56,2.35,1.54,5.21,2.44,8.04,2.51.05,0,.09,0,.14-.01.18-.04.33-.15.42-.31,2.71-5.08,2.91-7.4,2.35-9.71-.31-1.27-.84-2.1-1.64-2.54Zm-1.61,11.34c-2.48-.13-4.97-.94-7.03-2.3-1.3-.85-1.99-1.74-2.06-2.64-.04-.5.16-1.02.56-1.46.41-.45,1-.78,1.61-.9.16-.03.31-.05.47-.05,1.36-.03,2.79.78,3.73,2.12.16.23.46.32.72.22.26-.1.42-.38.37-.65-.19-1.28-.32-2.52.15-3.52.25-.52.78-.97,1.34-1.16.3-.1.74-.16,1.16.07.48.26.82.84,1.05,1.76.48,1.97.29,4.02-2.06,8.52Z" style="stroke-width: 0px;"/>
	<path d="m78.45,42.83c-.62-.31-1.36-.33-2.07-.07-.85.31-1.6,1.02-1.95,1.83-.31.71-.38,1.47-.36,2.2-1.66-1.29-4.04-1.73-6.02-.95-1.08.42-2.09,1.42-1.75,2.6.17.59.64.99.96,1.25,2.52,2.1,5.3,3.93,8.25,5.42.13.06.26.08.39.05.12-.02.24-.09.33-.19,3.69-4.02,4.07-6.64,3.94-8.86-.1-1.65-.69-2.79-1.72-3.3Zm.51,3.37c.13,2.19-.39,4.34-3.31,7.62-2.72-1.41-5.28-3.11-7.61-5.06-.27-.22-.51-.44-.57-.66-.12-.41.44-.9,1.02-1.13.23-.09.47-.16.71-.21,1.93-.39,4.18.5,5.18,2.16.15.25.46.36.73.25.27-.1.44-.38.39-.67-.19-1.12-.4-2.4.05-3.44.22-.51.71-.97,1.25-1.17.28-.1.7-.19,1.12.02.78.38,1,1.45,1.05,2.28Z" style="stroke-width: 0px;"/>
	<path d="m60.95,46.96c-.71-.25-1.5-.19-2.23.17-.88.43-1.6,1.23-1.92,2.14-.33.95-.31,1.93-.19,2.87-.49-.34-1.01-.65-1.6-.86-1.39-.49-2.84-.24-3.7.62-1.17,1.18-.88,3.1.06,4.28.91,1.13,2.31,1.75,3.56,2.2.19.07.37.13.56.2,1.05.37,2.04.72,2.86,1.32.14.1.32.14.48.11.11-.02.22-.08.31-.16,3.99-3.96,5.2-7.04,4.05-10.29-.48-1.35-1.25-2.25-2.24-2.59Zm-2.31,11.67c-.86-.53-1.81-.87-2.74-1.2-.18-.07-.37-.13-.55-.2-1.15-.42-2.31-.92-3.03-1.82-.6-.74-.83-1.98-.15-2.66.24-.24.55-.38.89-.45.51-.1,1.09-.04,1.54.12.94.33,1.74,1.01,2.52,1.68.2.17.48.19.71.06.22-.13.34-.4.28-.65-.27-1.24-.59-2.64-.17-3.85.21-.61.71-1.16,1.3-1.45.31-.15.79-.29,1.3-.11.8.28,1.25,1.16,1.5,1.86.67,1.89.77,4.39-3.41,8.67Z" style="stroke-width: 0px;"/>
	<path d="m119.47,38.47c-.34,0-.61.27-.61.6-.03,2.88-.73,5.76-2.05,8.32-.15.3-.04.66.26.82.13.07.27.08.4.05.18-.04.33-.15.42-.32,1.4-2.74,2.16-5.8,2.18-8.87,0-.34-.27-.61-.6-.61Z" style="stroke-width: 0px;"/>
	<path d="m129.96,36.21c-.34,0-.61.27-.61.61.01,3.11-.45,6.2-1.37,9.17-.1.32.08.66.4.76.1.03.2.03.3.01.21-.04.39-.2.46-.41.96-3.09,1.44-6.3,1.43-9.54,0-.34-.27-.61-.61-.61Z" style="stroke-width: 0px;"/>
	<path d="m136.12,32.46c-.27.2-.32.58-.12.85,1.7,2.23,2.63,4.97,2.63,7.71,0,.33.27.61.61.61.04,0,.08,0,.12-.01.28-.06.49-.3.49-.6,0-3-1.02-6.01-2.88-8.45-.2-.27-.58-.32-.85-.12Z" style="stroke-width: 0px;"/>
  </g>
</g>
</g>

<text transform="matrix(1 0 0 1 600 1393.6327)" class="st8 st1 st7"># 1</text>
<path class="st0" d="M1517.6,209.5v-34.2h-8.5v-15.7c0-37.4-14.8-73.3-41.3-99.8c-26.4-26.4-62.3-41.3-99.8-41.3h-238.5V10h-34.1
	v8.5H856.8c-37.4,0-73.3,14.8-99.8,41.3c-26.4,26.5-41.3,62.3-41.3,99.8v15.7h-8.5v34.2h8.5v59h-8.5v34.2h8.5v15.7
	c0,37.4,14.8,73.3,41.3,99.8s62.3,41.3,99.8,41.3h97v8h27.3v-8h262.7v8h27.3v-8h97c37.4,0.1,73.3-14.8,99.8-41.3
	s41.3-62.3,41.3-99.8v-15.7h8.5v-34.2h-8.5v-59H1517.6z M1443,313.9c0,43.8-35.5,79.3-79.3,79.3H861.3c-43.8,0-79.3-35.5-79.3-79.3
	V164.1c0-43.8,35.5-79.3,79.3-79.3h502.4c43.8,0,79.3,35.5,79.3,79.3V313.9z"/>
<text transform="matrix(1 0 0 1 -0.3618 762.453)" class="st1 st2">L</text>
<g>
	<g transform="matrix(1 0 0 1 600 200)"><g>
<path d="M592.6,1137.3c2.6-1.3,4.7-3.1,6.1-5.4c1.4-2.3,2.1-4.9,2.1-7.9c0-11.7-6.3-17.6-18.8-17.6h-24.9c-1.7,0-3.2,0.6-4.3,1.7
  c-1.2,1.2-1.7,2.6-1.7,4.3v57.2c0,1.7,0.6,3.2,1.7,4.3c1.2,1.2,2.6,1.7,4.3,1.7h24.7c6.2,0,11.5-1.5,16-4.7
  c4.5-3.1,6.7-8.6,6.7-16.4c0-4.5-1.1-8.2-3.3-11C598.9,1140.8,596.1,1138.7,592.6,1137.3z M563.9,1118.1h16.3c2.4,0,4.3,0.7,5.7,2
  c1.4,1.4,2,3.4,2,6.1c0,2.2-0.7,4-2.2,5.3c-1.5,1.3-3.2,2-5.2,2h-16.6V1118.1z M589,1161.8c-1.7,1.7-4.2,2.5-7.3,2.5h-17.8v-19.1
  H581c3,0,5.5,0.6,7.5,1.8c2,1.2,3.1,3.7,3.1,7.6C591.6,1157.8,590.7,1160.2,589,1161.8z"/>
<path d="M647.4,1133.9c-3.3-2.1-6.7-3.1-10.1-3.1c-4.2,0-8,1.4-11.3,4.3c1.6-4.2,4.2-7.9,7.8-10.9c3.5-3,7.4-5.1,11.5-6.3
  c1.6-0.5,2.9-1.2,3.8-2.3c1-1.1,1.4-2.4,1.4-3.8c0-1.9-0.6-3.3-1.7-4.2c-1.1-0.9-2.5-1.3-4.3-1.3c-0.7,0-1.5,0.1-2.3,0.3
  c-7.7,2.2-13.7,5.8-18.2,11s-7.5,10.6-9.2,16.4c-1.7,5.8-2.5,11.1-2.5,15.9c0,4.7,1,9.1,2.9,13.2c1.9,4.1,4.7,7.5,8.2,10
  c3.6,2.5,7.6,3.8,12.2,3.8c4.2,0,8.1-1,11.6-3.1c3.5-2,6.3-4.8,8.4-8.4c2.1-3.5,3.1-7.4,3.1-11.5c0-4.1-1.1-7.9-3.2-11.4
  C653.4,1138.8,650.7,1135.9,647.4,1133.9z M643.6,1162.3c-2.2,2.3-4.8,3.5-7.9,3.5c-3.2,0-5.8-1.2-8-3.5c-2.1-2.3-3.2-5.2-3.2-8.6
  c0-3.4,1.1-6.3,3.2-8.6c2.1-2.3,4.8-3.5,8-3.5c3.1,0,5.7,1.2,7.9,3.5c2.2,2.3,3.3,5.2,3.3,8.6
  C646.8,1157.2,645.8,1160,643.6,1162.3z"/>
<path d="M707.2,1164.8h-20.4l12.6-13.4c3.6-3.9,6.5-8,8.7-12.2c2.1-4.3,3.2-8.4,3.2-12.4c0-4.1-0.9-7.8-2.7-11
  c-1.8-3.2-4.3-5.8-7.6-7.6c-3.3-1.8-7.1-2.8-11.5-2.8c-3,0-6.2,0.8-9.5,2.3c-3.3,1.5-6.2,3.5-8.7,6c-1.3,1.3-2.3,2.5-3,3.5
  c-0.7,1-1,2-1,3c0,1.4,0.6,2.6,1.8,3.8c1.2,1.1,2.6,1.7,4,1.7c1.8,0,3.4-0.8,4.6-2.4c1.6-2.1,3.3-3.8,5.3-5.1
  c1.9-1.3,3.9-1.9,5.8-1.9c2.8,0,5.2,1.1,7.3,3.3c2.1,2.2,3.2,4.8,3.2,7.7c0,2.2-0.7,4.7-2.1,7.4c-1.4,2.7-3.4,5.3-5.8,8l-21.6,23.1
  c-1.2,1.3-1.8,2.7-1.8,4.4c0,1.7,0.5,3,1.5,4.1c1,1.1,2.3,1.6,4.1,1.6h33.7c1.6,0,2.9-0.5,4-1.5c1.1-1,1.6-2.3,1.6-3.8
  c0-1.6-0.5-2.9-1.6-4C710.1,1165.3,708.8,1164.8,707.2,1164.8z"/>
<path d="M771.7,1139.5h-17.2c-1.7,0-3.2,0.6-4.3,1.7c-1.2,1.1-1.7,2.5-1.7,4.2c0,1.7,0.6,3.1,1.7,4.3c1.2,1.1,2.6,1.7,4.3,1.7h17.2
  c1.7,0,3.2-0.5,4.3-1.6c1.2-1.1,1.7-2.5,1.7-4.1c0-1.7-0.6-3.2-1.7-4.3C774.8,1140,773.4,1139.5,771.7,1139.5z"/>
<path d="M859.4,1137.3c2.6-1.3,4.7-3.1,6.1-5.4c1.4-2.3,2.1-4.9,2.1-7.9c0-11.7-6.3-17.6-18.8-17.6h-24.9c-1.7,0-3.2,0.6-4.3,1.7
  c-1.2,1.2-1.7,2.6-1.7,4.3v57.2c0,1.7,0.6,3.2,1.7,4.3c1.2,1.2,2.6,1.7,4.3,1.7h24.7c6.2,0,11.5-1.5,16-4.7
  c4.5-3.1,6.7-8.6,6.7-16.4c0-4.5-1.1-8.2-3.3-11C865.7,1140.8,862.9,1138.7,859.4,1137.3z M830.7,1118.1H847c2.4,0,4.3,0.7,5.7,2
  c1.4,1.4,2,3.4,2,6.1c0,2.2-0.7,4-2.2,5.3c-1.5,1.3-3.2,2-5.2,2h-16.6V1118.1z M855.8,1161.8c-1.8,1.7-4.2,2.5-7.3,2.5h-17.8v-19.1
  h17.1c3,0,5.5,0.6,7.5,1.8c2,1.2,3.1,3.7,3.1,7.6C858.4,1157.8,857.5,1160.2,855.8,1161.8z"/>
<path d="M888.4,1102.4c-1.7,0-3.2,0.6-4.3,1.7c-1.2,1.2-1.7,2.6-1.7,4.3v61.2c0,1.7,0.6,3.2,1.7,4.3c1.1,1.2,2.5,1.7,4.2,1.7
  c1.7,0,3.2-0.6,4.3-1.7c1.2-1.2,1.7-2.6,1.7-4.3v-61.2c0-1.7-0.6-3.2-1.7-4.3C891.4,1103,890.1,1102.4,888.4,1102.4z"/>
<path d="M946.9,1122.7c-1.7,0-3.1,0.6-4.3,1.7c-1.1,1.2-1.7,2.6-1.7,4.3v25.1c0,4-0.9,7-2.7,9c-1.8,1.9-4.5,2.9-8.1,2.9
  c-3.6,0-6.2-1-8-2.9c-1.8-1.9-2.7-4.9-2.7-9v-25.1c0-1.7-0.6-3.2-1.7-4.3c-1.1-1.2-2.5-1.7-4.3-1.7c-1.7,0-3.1,0.6-4.3,1.7
  c-1.1,1.2-1.7,2.6-1.7,4.3v25.1c0,7.1,1.9,12.7,5.8,16.7c3.9,4,9.5,6,16.7,6c7.3,0,12.9-2,16.8-6c3.9-4,5.9-9.6,5.9-16.7v-25.1
  c0-1.7-0.6-3.2-1.7-4.3C950,1123.3,948.6,1122.7,946.9,1122.7z"/>
<path d="M995,1147.4c-2.4-1.1-5.3-2.1-8.9-3.1c-2.6-0.7-4.6-1.3-6-1.8c-1.4-0.5-2.6-1.2-3.5-2.1c-0.9-0.9-1.4-2.1-1.4-3.5
  c0-3.6,2.5-5.4,7.5-5.4c2.4,0,4.5,0.4,6.4,1.3c1.9,0.9,3.4,2,4.6,3.5c0.9,0.9,2.1,1.4,3.6,1.4c1.2,0,2.2-0.4,3.2-1.1
  c1.3-1,1.9-2.2,1.9-3.8c0-1.3-0.4-2.5-1.3-3.6c-1.9-2.4-4.6-4.3-7.9-5.5c-3.4-1.3-6.7-1.9-10.1-1.9c-3.3,0-6.4,0.6-9.4,1.9
  c-2.9,1.3-5.3,3.1-7.1,5.4c-1.8,2.3-2.7,5.1-2.7,8.3c0,3.6,0.9,6.5,2.6,8.7c1.7,2.1,3.8,3.7,6.2,4.8c2.4,1.1,5.5,2.1,9.4,3.2
  c3.7,1,6.4,2,8.2,3c1.7,1,2.6,2.4,2.6,4.4c0,3.7-2.6,5.6-7.7,5.8c-3,0-5.6-0.5-7.8-1.5c-2.1-1-4.2-2.5-6.2-4.6
  c-1.3-1.3-2.6-1.9-4-1.9c-1,0-1.9,0.3-2.9,0.9c-1.7,1.2-2.6,2.6-2.6,4.4c0,1.2,0.3,2.2,0.9,3c2.4,3.2,5.4,5.6,9.2,7
  c3.8,1.5,7.8,2.2,12.2,2.2c3.2,0,6.3-0.6,9.3-1.9c3-1.3,5.5-3.1,7.4-5.5c1.9-2.4,2.9-5.2,2.9-8.5c0-3.6-0.8-6.4-2.5-8.6
  C999.4,1150.1,997.4,1148.4,995,1147.4z"/>
<path d="M1041.3,1121.7c-3.4,0-6.4,0.8-9.2,2.5c-2.7,1.7-5,3.7-6.8,6.1v-21.9c0-1.7-0.6-3.2-1.7-4.3c-1.1-1.2-2.5-1.7-4.3-1.7
  c-1.7,0-3.1,0.6-4.3,1.7c-1.1,1.2-1.7,2.6-1.7,4.3v61.2c0,1.7,0.6,3.2,1.7,4.3c1.1,1.2,2.5,1.7,4.3,1.7c1.7,0,3.1-0.6,4.3-1.7
  c1.1-1.2,1.7-2.6,1.7-4.3v-25.3c0-3.4,1-6.2,3.1-8.4c2.1-2.2,5-3.3,8.7-3.3c3.6,0,6.1,1,7.5,3.1c1.4,2.1,2.1,4.9,2.1,8.6v25.3
  c0,1.7,0.6,3.2,1.7,4.3c1.1,1.2,2.5,1.7,4.3,1.7c1.7,0,3.1-0.6,4.3-1.7c1.1-1.2,1.7-2.6,1.7-4.3v-25.3c0-7.1-1.3-12.6-3.8-16.6
  C1052.3,1123.7,1047.8,1121.7,1041.3,1121.7z"/>
<path d="M1138.4,1109.4c-3-2-6.2-3-9.6-3h-22.6c-1.7,0-3.2,0.6-4.3,1.7c-1.2,1.2-1.7,2.6-1.7,4.3v57.2c0,1.7,0.5,3.2,1.6,4.3
  c1.1,1.2,2.4,1.7,4.1,1.7c1.7,0,3.1-0.6,4.2-1.7c1.1-1.1,1.6-2.6,1.6-4.4v-18.7h17.2c3.4,0,6.6-1,9.6-3c3-2,5.5-4.7,7.3-8.2
  c1.8-3.4,2.8-7.1,2.8-11.1c0-4-0.9-7.7-2.8-11.1C1143.9,1114.1,1141.4,1111.4,1138.4,1109.4z M1135.5,1134c-0.8,1.7-1.8,3.1-3,4.1
  c-1.2,1.1-2.5,1.6-3.7,1.6h-17.2v-21.9h17.2c1.3,0,2.5,0.5,3.7,1.5c1.2,1,2.2,2.4,3,4.1c0.8,1.7,1.1,3.4,1.1,5.3
  C1136.6,1130.5,1136.2,1132.3,1135.5,1134z"/>
<path d="M1164.1,1104.5c-2.2,0-3.8,0.4-4.8,1.1c-1,0.7-1.5,2-1.5,3.9v1.9c0,1.8,0.5,3.1,1.4,3.9c0.9,0.7,2.5,1.1,4.8,1.1
  c2.3,0,3.9-0.3,4.9-1c1-0.7,1.4-2,1.4-3.9v-1.9c0-1.8-0.5-3.1-1.4-3.9C1168,1104.9,1166.4,1104.5,1164.1,1104.5z"/>
<path d="M1164.1,1122.7c-1.7,0-3.1,0.6-4.3,1.7c-1.1,1.2-1.7,2.6-1.7,4.3v40.9c0,1.7,0.6,3.2,1.7,4.3c1.1,1.2,2.5,1.7,4.3,1.7
  c1.7,0,3.1-0.6,4.3-1.7c1.1-1.2,1.7-2.6,1.7-4.3v-40.9c0-1.7-0.6-3.2-1.7-4.3C1167.3,1123.3,1165.8,1122.7,1164.1,1122.7z"/>
<path d="M1210.5,1121.7c-3.4,0-6.6,0.9-9.5,2.6c-2.9,1.7-5.2,3.8-7,6.1v-1.7c0-1.7-0.6-3.2-1.7-4.3c-1.1-1.2-2.5-1.7-4.3-1.7
  c-1.7,0-3.1,0.6-4.3,1.7c-1.1,1.2-1.7,2.6-1.7,4.3v40.9c0,1.7,0.6,3.2,1.7,4.3c1.1,1.2,2.5,1.7,4.3,1.7c1.7,0,3.1-0.6,4.3-1.7
  c1.1-1.2,1.7-2.6,1.7-4.3v-25.3c0-3.4,1.1-6.2,3.3-8.4c2.2-2.2,5.2-3.3,9-3.3c3.7,0,6.3,1,7.8,3.1c1.5,2.1,2.3,4.9,2.3,8.6v25.3
  c0,1.7,0.6,3.2,1.7,4.3c1.1,1.2,2.5,1.7,4.3,1.7c1.7,0,3.1-0.6,4.3-1.7c1.1-1.2,1.7-2.6,1.7-4.3v-25.3c0-7.1-1.3-12.6-3.9-16.6
  C1221.9,1123.7,1217.3,1121.7,1210.5,1121.7z"/>
<path d="M1285.3,1165.3l-17.3-18.8l14.9-13.8c1.6-1.4,2.4-2.9,2.4-4.5c0-1.3-0.6-2.5-1.7-3.7c-1.2-1.2-2.5-1.8-3.9-1.8
  c-1.7,0-3.1,0.6-4.4,1.9l-21.2,20.5v-36.6c0-1.7-0.6-3.2-1.7-4.3c-1.1-1.2-2.5-1.7-4.3-1.7c-1.7,0-3.1,0.6-4.3,1.7
  c-1.1,1.2-1.7,2.6-1.7,4.3v61.2c0,1.7,0.6,3.2,1.7,4.3c1.1,1.2,2.5,1.7,4.3,1.7c1.7,0,3.1-0.6,4.3-1.7c1.1-1.2,1.7-2.6,1.7-4.3
  v-10.4l4.9-4.5l17.8,18.8c1.2,1.3,2.6,2,4.4,2c1.5,0,2.8-0.6,4.1-1.7c1.3-1.1,1.9-2.5,1.9-4.2
  C1287.2,1168.1,1286.5,1166.6,1285.3,1165.3z"/>
</g></g>
	<text transform="matrix(0.9945 -0.1045 0.1045 0.9945 1074.7903 788.3523)" class="st3 st4 st5">asdasd</text>
</g>

<path class="st0" d="M1517.6,662.4v-34.2h-8.5v-15.7c0-37.4-14.8-73.3-41.3-99.8c-26.4-26.4-62.3-41.3-99.8-41.3h-238.5v-8.5h-34.1
	v8.5H856.8c-37.4,0-73.3,14.8-99.8,41.3c-26.4,26.5-41.3,62.3-41.3,99.8v15.7h-8.5v34.2h8.5v59h-8.5v34.2h8.5v15.7
	c0,37.4,14.8,73.3,41.3,99.8s62.3,41.3,99.8,41.3h97v8h27.3v-8h262.7v8h27.3v-8h97c37.4,0.1,73.3-14.8,99.8-41.3
	s41.3-62.3,41.3-99.8v-15.7h8.5v-34.2h-8.5v-59H1517.6z M1443,766.9c0,43.8-35.5,79.3-79.3,79.3H861.3c-43.8,0-79.3-35.5-79.3-79.3
	V617c0-43.8,35.5-79.3,79.3-79.3h502.4c43.8,0,79.3,35.5,79.3,79.3V766.9z"/>
<g>
	<g>
		<g>
			<path d="M1777.1,1129.4v11.9c0,2.8,3.3,5.1,7.3,5.1h1.4c4,0,7.2,2.3,7.2,5.1v11.9c0,2.8-3.2,5.1-7.2,5.1h-71.7
				c-4,0-7.2-2.3-7.2-5.1v-11.9c0-2.8,3.3-5.1,7.2-5.1h1.4c4,0,7.3-2.3,7.3-5.1v-11.9c0-2.8-3.2-5-7.2-5.1v-0.1h-71.9v0.1
				c-3.8,0.1-7,2.3-7,5v11.9c0,2.8,3.3,5.1,7.2,5.1h1.4c4,0,7.3,2.3,7.3,5.1v11.9c0,2.8-3.2,5.1-7.3,5.1h-71.7c-4,0-7.3-2.3-7.3-5.1
				v-11.9c0-2.8,3.3-5.1,7.3-5.1h1.4c4,0,7.2-2.3,7.2-5.1v-11.9c0-2.8-3.2-5-7.2-5.1v-0.1h-49.7V10h49.6v0.1c4,0,7.2,2.3,7.2,5.1
				v11.9c0,2.8-3.2,5.1-7.3,5.1h-1.4c-4,0-7.2,2.3-7.2,5.1v11.9c0,2.8,3.3,5.1,7.2,5.1h71.7c4,0,7.2-2.3,7.2-5.1V37.2
				c0-2.8-3.2-5.1-7.2-5.1h-1.4c-4,0-7.2-2.3-7.2-5.1V15.1c0-2.7,3.1-4.9,7-5V10h71.9v0.1c4,0,7.2,2.3,7.2,5.1v11.9
				c0,2.8-3.2,5.1-7.2,5.1h-1.4c-4,0-7.2,2.3-7.2,5.1v11.9c0,2.8,3.3,5.1,7.2,5.1h71.7c4,0,7.2-2.3,7.2-5.1V37.2
				c0-2.8-3.2-5.1-7.2-5.1h-1.4c-4,0-7.3-2.3-7.3-5.1V15.1c0-2.7,3.1-4.9,7-5V10h49.9v1114.3h-49.9v0.1
				C1780.2,1124.5,1777.1,1126.7,1777.1,1129.4z"/>
			<rect x="1535.1" y="61.6" class="st9" width="14.2" height="34.2"/>
			<rect x="1535.1" y="430.6" class="st9" width="14.2" height="27.3"/>
			<rect x="1535.1" y="720.6" class="st9" width="14.2" height="27.3"/>
			<rect x="1535.1" y="1082.8" class="st9" width="14.2" height="34.2"/>
			<rect x="1810.1" y="61.6" class="st9" width="14.2" height="34.2"/>
			<rect x="1810.1" y="430.6" class="st9" width="14.2" height="27.3"/>
			<rect x="1810.1" y="720.6" class="st9" width="14.2" height="27.3"/>
			<rect x="1810.1" y="1082.8" class="st9" width="14.2" height="34.2"/>
		</g>
		<g>
			<g>
				<g>
					<line class="st10" x1="1564.6" y1="111.3" x2="1525.5" y2="111.3"/>
					<line class="st10" x1="1564.6" y1="119.8" x2="1525.5" y2="119.8"/>
					<line class="st10" x1="1564.6" y1="128.3" x2="1525.5" y2="128.3"/>
					<line class="st10" x1="1564.6" y1="136.8" x2="1525.5" y2="136.8"/>
					<line class="st10" x1="1564.6" y1="145.3" x2="1525.5" y2="145.3"/>
					<line class="st10" x1="1564.6" y1="153.8" x2="1525.5" y2="153.8"/>
					<line class="st10" x1="1564.6" y1="162.4" x2="1525.5" y2="162.4"/>
					<line class="st10" x1="1564.6" y1="179.4" x2="1525.5" y2="179.4"/>
					<line class="st10" x1="1564.6" y1="170.9" x2="1525.5" y2="170.9"/>
					<line class="st10" x1="1564.6" y1="196.4" x2="1525.5" y2="196.4"/>
					<line class="st10" x1="1564.6" y1="213.4" x2="1525.5" y2="213.4"/>
					<line class="st10" x1="1564.6" y1="187.9" x2="1525.5" y2="187.9"/>
					<line class="st10" x1="1564.6" y1="204.9" x2="1525.5" y2="204.9"/>
					<line class="st10" x1="1564.6" y1="221.9" x2="1525.5" y2="221.9"/>
					<line class="st10" x1="1564.6" y1="230.4" x2="1525.5" y2="230.4"/>
					<line class="st10" x1="1564.6" y1="238.9" x2="1525.5" y2="238.9"/>
				</g>
				<g>
					<line class="st10" x1="1575.9" y1="111.3" x2="1637.6" y2="111.3"/>
					<line class="st10" x1="1575.9" y1="119.8" x2="1637.6" y2="119.8"/>
					<line class="st10" x1="1575.9" y1="128.3" x2="1637.6" y2="128.3"/>
					<line class="st10" x1="1575.9" y1="136.8" x2="1637.6" y2="136.8"/>
					<line class="st10" x1="1575.9" y1="145.3" x2="1637.6" y2="145.3"/>
					<line class="st10" x1="1575.9" y1="153.9" x2="1637.6" y2="153.9"/>
					<line class="st10" x1="1575.9" y1="162.4" x2="1637.6" y2="162.4"/>
					<line class="st10" x1="1575.9" y1="179.4" x2="1637.6" y2="179.4"/>
					<line class="st10" x1="1575.9" y1="170.9" x2="1637.6" y2="170.9"/>
					<line class="st10" x1="1575.9" y1="196.4" x2="1637.6" y2="196.4"/>
					<line class="st10" x1="1575.9" y1="213.4" x2="1637.6" y2="213.4"/>
					<line class="st10" x1="1575.9" y1="187.9" x2="1637.6" y2="187.9"/>
					<line class="st10" x1="1575.9" y1="204.9" x2="1637.6" y2="204.9"/>
					<line class="st10" x1="1575.9" y1="221.9" x2="1637.6" y2="221.9"/>
					<line class="st10" x1="1575.9" y1="230.4" x2="1637.6" y2="230.4"/>
					<line class="st10" x1="1575.9" y1="238.9" x2="1637.6" y2="238.9"/>
				</g>
				<g>
					<line class="st10" x1="1648.9" y1="111.3" x2="1710.5" y2="111.3"/>
					<line class="st10" x1="1648.9" y1="119.8" x2="1710.5" y2="119.8"/>
					<line class="st10" x1="1648.9" y1="128.3" x2="1710.5" y2="128.3"/>
					<line class="st10" x1="1648.9" y1="136.8" x2="1710.5" y2="136.8"/>
					<line class="st10" x1="1648.9" y1="145.3" x2="1710.5" y2="145.3"/>
					<line class="st10" x1="1648.9" y1="153.9" x2="1710.5" y2="153.9"/>
					<line class="st10" x1="1648.9" y1="162.4" x2="1710.5" y2="162.4"/>
					<line class="st10" x1="1648.9" y1="179.4" x2="1710.5" y2="179.4"/>
					<line class="st10" x1="1648.9" y1="170.9" x2="1710.5" y2="170.9"/>
					<line class="st10" x1="1648.9" y1="196.4" x2="1710.5" y2="196.4"/>
					<line class="st10" x1="1648.9" y1="213.4" x2="1710.5" y2="213.4"/>
					<line class="st10" x1="1648.9" y1="187.9" x2="1710.5" y2="187.9"/>
					<line class="st10" x1="1648.9" y1="204.9" x2="1710.5" y2="204.9"/>
					<line class="st10" x1="1648.9" y1="221.9" x2="1710.5" y2="221.9"/>
					<line class="st10" x1="1648.9" y1="230.4" x2="1710.5" y2="230.4"/>
					<line class="st10" x1="1648.9" y1="238.9" x2="1710.5" y2="238.9"/>
				</g>
				<g>
					<line class="st10" x1="1721.9" y1="111.3" x2="1783.5" y2="111.3"/>
					<line class="st10" x1="1721.9" y1="119.8" x2="1783.5" y2="119.8"/>
					<line class="st10" x1="1721.9" y1="128.3" x2="1783.5" y2="128.3"/>
					<line class="st10" x1="1721.9" y1="136.8" x2="1783.5" y2="136.8"/>
					<line class="st10" x1="1721.9" y1="145.3" x2="1783.5" y2="145.3"/>
					<line class="st10" x1="1721.9" y1="153.9" x2="1783.5" y2="153.9"/>
					<line class="st10" x1="1721.9" y1="162.4" x2="1783.5" y2="162.4"/>
					<line class="st10" x1="1721.9" y1="179.4" x2="1783.5" y2="179.4"/>
					<line class="st10" x1="1721.9" y1="170.9" x2="1783.5" y2="170.9"/>
					<line class="st10" x1="1721.9" y1="196.4" x2="1783.5" y2="196.4"/>
					<line class="st10" x1="1721.9" y1="213.4" x2="1783.5" y2="213.4"/>
					<line class="st10" x1="1721.9" y1="187.9" x2="1783.5" y2="187.9"/>
					<line class="st10" x1="1721.9" y1="204.9" x2="1783.5" y2="204.9"/>
					<line class="st10" x1="1721.9" y1="221.9" x2="1783.5" y2="221.9"/>
					<line class="st10" x1="1721.9" y1="230.4" x2="1783.5" y2="230.4"/>
					<line class="st10" x1="1721.9" y1="238.9" x2="1783.5" y2="238.9"/>
				</g>
				<g>
					<line class="st10" x1="1834" y1="111.3" x2="1794.8" y2="111.3"/>
					<line class="st10" x1="1834" y1="119.8" x2="1794.8" y2="119.8"/>
					<line class="st10" x1="1834" y1="128.3" x2="1794.8" y2="128.3"/>
					<line class="st10" x1="1834" y1="136.8" x2="1794.8" y2="136.8"/>
					<line class="st10" x1="1834" y1="145.3" x2="1794.8" y2="145.3"/>
					<line class="st10" x1="1834" y1="153.8" x2="1794.8" y2="153.8"/>
					<line class="st10" x1="1834" y1="162.4" x2="1794.8" y2="162.4"/>
					<line class="st10" x1="1834" y1="179.4" x2="1794.8" y2="179.4"/>
					<line class="st10" x1="1834" y1="170.9" x2="1794.8" y2="170.9"/>
					<line class="st10" x1="1834" y1="196.4" x2="1794.8" y2="196.4"/>
					<line class="st10" x1="1834" y1="213.4" x2="1794.8" y2="213.4"/>
					<line class="st10" x1="1834" y1="187.9" x2="1794.8" y2="187.9"/>
					<line class="st10" x1="1834" y1="204.9" x2="1794.8" y2="204.9"/>
					<line class="st10" x1="1834" y1="221.9" x2="1794.8" y2="221.9"/>
					<line class="st10" x1="1834" y1="230.4" x2="1794.8" y2="230.4"/>
					<line class="st10" x1="1834" y1="238.9" x2="1794.8" y2="238.9"/>
				</g>
				<g>
					<line class="st10" x1="1539.5" y1="115.6" x2="1601.1" y2="115.6"/>
					<line class="st10" x1="1539.5" y1="124.1" x2="1601.1" y2="124.1"/>
					<line class="st10" x1="1539.5" y1="132.6" x2="1601.1" y2="132.6"/>
					<line class="st10" x1="1539.5" y1="141.1" x2="1601.1" y2="141.1"/>
					<line class="st10" x1="1539.5" y1="149.6" x2="1601.1" y2="149.6"/>
					<line class="st10" x1="1539.5" y1="166.6" x2="1601.1" y2="166.6"/>
					<line class="st10" x1="1539.5" y1="158.1" x2="1601.1" y2="158.1"/>
					<line class="st10" x1="1539.5" y1="183.6" x2="1601.1" y2="183.6"/>
					<line class="st10" x1="1539.5" y1="175.1" x2="1601.1" y2="175.1"/>
					<line class="st10" x1="1539.5" y1="192.1" x2="1601.1" y2="192.1"/>
					<line class="st10" x1="1539.5" y1="217.6" x2="1601.1" y2="217.6"/>
					<line class="st10" x1="1539.5" y1="200.6" x2="1601.1" y2="200.6"/>
					<line class="st10" x1="1539.5" y1="209.1" x2="1601.1" y2="209.1"/>
					<line class="st10" x1="1539.5" y1="226.1" x2="1601.1" y2="226.1"/>
					<line class="st10" x1="1539.5" y1="234.6" x2="1601.1" y2="234.6"/>
					<line class="st10" x1="1539.5" y1="243.1" x2="1601.1" y2="243.1"/>
				</g>
				<g>
					<line class="st10" x1="1612.4" y1="115.6" x2="1674" y2="115.6"/>
					<line class="st10" x1="1612.4" y1="124.1" x2="1674" y2="124.1"/>
					<line class="st10" x1="1612.4" y1="132.6" x2="1674" y2="132.6"/>
					<line class="st10" x1="1612.4" y1="141.1" x2="1674" y2="141.1"/>
					<line class="st10" x1="1612.4" y1="149.6" x2="1674" y2="149.6"/>
					<line class="st10" x1="1612.4" y1="166.6" x2="1674" y2="166.6"/>
					<line class="st10" x1="1612.4" y1="158.1" x2="1674" y2="158.1"/>
					<line class="st10" x1="1612.4" y1="183.6" x2="1674" y2="183.6"/>
					<line class="st10" x1="1612.4" y1="175.1" x2="1674" y2="175.1"/>
					<line class="st10" x1="1612.4" y1="192.1" x2="1674" y2="192.1"/>
					<line class="st10" x1="1612.4" y1="217.6" x2="1674" y2="217.6"/>
					<line class="st10" x1="1612.4" y1="200.6" x2="1674" y2="200.6"/>
					<line class="st10" x1="1612.4" y1="209.1" x2="1674" y2="209.1"/>
					<line class="st10" x1="1612.4" y1="226.1" x2="1674" y2="226.1"/>
					<line class="st10" x1="1612.4" y1="234.6" x2="1674" y2="234.6"/>
					<line class="st10" x1="1612.4" y1="243.1" x2="1674" y2="243.1"/>
				</g>
				<g>
					<line class="st10" x1="1685.4" y1="115.6" x2="1747" y2="115.6"/>
					<line class="st10" x1="1685.4" y1="124.1" x2="1747" y2="124.1"/>
					<line class="st10" x1="1685.4" y1="132.6" x2="1747" y2="132.6"/>
					<line class="st10" x1="1685.4" y1="141.1" x2="1747" y2="141.1"/>
					<line class="st10" x1="1685.4" y1="149.6" x2="1747" y2="149.6"/>
					<line class="st10" x1="1685.4" y1="166.6" x2="1747" y2="166.6"/>
					<line class="st10" x1="1685.4" y1="158.1" x2="1747" y2="158.1"/>
					<line class="st10" x1="1685.4" y1="183.6" x2="1747" y2="183.6"/>
					<line class="st10" x1="1685.4" y1="175.1" x2="1747" y2="175.1"/>
					<line class="st10" x1="1685.4" y1="192.1" x2="1747" y2="192.1"/>
					<line class="st10" x1="1685.4" y1="217.6" x2="1747" y2="217.6"/>
					<line class="st10" x1="1685.4" y1="200.6" x2="1747" y2="200.6"/>
					<line class="st10" x1="1685.4" y1="209.1" x2="1747" y2="209.1"/>
					<line class="st10" x1="1685.4" y1="226.1" x2="1747" y2="226.1"/>
					<line class="st10" x1="1685.4" y1="234.6" x2="1747" y2="234.6"/>
					<line class="st10" x1="1685.4" y1="243.1" x2="1747" y2="243.1"/>
				</g>
				<g>
					<line class="st10" x1="1758.3" y1="115.6" x2="1819.9" y2="115.6"/>
					<line class="st10" x1="1758.3" y1="124.1" x2="1819.9" y2="124.1"/>
					<line class="st10" x1="1758.3" y1="132.6" x2="1819.9" y2="132.6"/>
					<line class="st10" x1="1758.3" y1="141.1" x2="1819.9" y2="141.1"/>
					<line class="st10" x1="1758.3" y1="149.6" x2="1819.9" y2="149.6"/>
					<line class="st10" x1="1758.3" y1="166.6" x2="1819.9" y2="166.6"/>
					<line class="st10" x1="1758.3" y1="158.1" x2="1819.9" y2="158.1"/>
					<line class="st10" x1="1758.3" y1="183.6" x2="1819.9" y2="183.6"/>
					<line class="st10" x1="1758.3" y1="175.1" x2="1819.9" y2="175.1"/>
					<line class="st10" x1="1758.3" y1="192.1" x2="1819.9" y2="192.1"/>
					<line class="st10" x1="1758.3" y1="217.6" x2="1819.9" y2="217.6"/>
					<line class="st10" x1="1758.3" y1="200.6" x2="1819.9" y2="200.6"/>
					<line class="st10" x1="1758.3" y1="209.1" x2="1819.9" y2="209.1"/>
					<line class="st10" x1="1758.3" y1="226.1" x2="1819.9" y2="226.1"/>
					<line class="st10" x1="1758.3" y1="234.6" x2="1819.9" y2="234.6"/>
					<line class="st10" x1="1758.3" y1="243.1" x2="1819.9" y2="243.1"/>
				</g>
			</g>
			<g>
				<g>
					<line class="st10" x1="1564.6" y1="247.5" x2="1525.5" y2="247.5"/>
					<line class="st10" x1="1564.6" y1="256" x2="1525.5" y2="256"/>
					<line class="st10" x1="1564.6" y1="264.5" x2="1525.5" y2="264.5"/>
					<line class="st10" x1="1564.6" y1="273" x2="1525.5" y2="273"/>
					<line class="st10" x1="1564.6" y1="281.5" x2="1525.5" y2="281.5"/>
					<line class="st10" x1="1564.6" y1="290" x2="1525.5" y2="290"/>
					<line class="st10" x1="1564.6" y1="298.5" x2="1525.5" y2="298.5"/>
					<line class="st10" x1="1564.6" y1="315.5" x2="1525.5" y2="315.5"/>
					<line class="st10" x1="1564.6" y1="307" x2="1525.5" y2="307"/>
					<line class="st10" x1="1564.6" y1="324" x2="1525.5" y2="324"/>
				</g>
				<g>
					<line class="st10" x1="1575.9" y1="247.5" x2="1637.6" y2="247.5"/>
					<line class="st10" x1="1575.9" y1="256" x2="1637.6" y2="256"/>
					<line class="st10" x1="1575.9" y1="264.5" x2="1637.6" y2="264.5"/>
					<line class="st10" x1="1575.9" y1="273" x2="1637.6" y2="273"/>
					<line class="st10" x1="1575.9" y1="281.5" x2="1637.6" y2="281.5"/>
					<line class="st10" x1="1575.9" y1="290" x2="1637.6" y2="290"/>
					<line class="st10" x1="1575.9" y1="298.5" x2="1637.6" y2="298.5"/>
					<line class="st10" x1="1575.9" y1="315.5" x2="1637.6" y2="315.5"/>
					<line class="st10" x1="1575.9" y1="307" x2="1637.6" y2="307"/>
					<line class="st10" x1="1575.9" y1="324" x2="1637.6" y2="324"/>
				</g>
				<g>
					<line class="st10" x1="1648.9" y1="247.5" x2="1710.5" y2="247.5"/>
					<line class="st10" x1="1648.9" y1="256" x2="1710.5" y2="256"/>
					<line class="st10" x1="1648.9" y1="264.5" x2="1710.5" y2="264.5"/>
					<line class="st10" x1="1648.9" y1="273" x2="1710.5" y2="273"/>
					<line class="st10" x1="1648.9" y1="281.5" x2="1710.5" y2="281.5"/>
					<line class="st10" x1="1648.9" y1="290" x2="1710.5" y2="290"/>
					<line class="st10" x1="1648.9" y1="298.5" x2="1710.5" y2="298.5"/>
					<line class="st10" x1="1648.9" y1="315.5" x2="1710.5" y2="315.5"/>
					<line class="st10" x1="1648.9" y1="307" x2="1710.5" y2="307"/>
					<line class="st10" x1="1648.9" y1="324" x2="1710.5" y2="324"/>
				</g>
				<g>
					<line class="st10" x1="1721.9" y1="247.5" x2="1783.5" y2="247.5"/>
					<line class="st10" x1="1721.9" y1="256" x2="1783.5" y2="256"/>
					<line class="st10" x1="1721.9" y1="264.5" x2="1783.5" y2="264.5"/>
					<line class="st10" x1="1721.9" y1="273" x2="1783.5" y2="273"/>
					<line class="st10" x1="1721.9" y1="281.5" x2="1783.5" y2="281.5"/>
					<line class="st10" x1="1721.9" y1="290" x2="1783.5" y2="290"/>
					<line class="st10" x1="1721.9" y1="298.5" x2="1783.5" y2="298.5"/>
					<line class="st10" x1="1721.9" y1="315.5" x2="1783.5" y2="315.5"/>
					<line class="st10" x1="1721.9" y1="307" x2="1783.5" y2="307"/>
					<line class="st10" x1="1721.9" y1="324" x2="1783.5" y2="324"/>
				</g>
				<g>
					<line class="st10" x1="1834" y1="247.5" x2="1794.8" y2="247.5"/>
					<line class="st10" x1="1834" y1="256" x2="1794.8" y2="256"/>
					<line class="st10" x1="1834" y1="264.5" x2="1794.8" y2="264.5"/>
					<line class="st10" x1="1834" y1="273" x2="1794.8" y2="273"/>
					<line class="st10" x1="1834" y1="281.5" x2="1794.8" y2="281.5"/>
					<line class="st10" x1="1834" y1="290" x2="1794.8" y2="290"/>
					<line class="st10" x1="1834" y1="298.5" x2="1794.8" y2="298.5"/>
					<line class="st10" x1="1834" y1="315.5" x2="1794.8" y2="315.5"/>
					<line class="st10" x1="1834" y1="307" x2="1794.8" y2="307"/>
					<line class="st10" x1="1834" y1="324" x2="1794.8" y2="324"/>
				</g>
				<g>
					<line class="st10" x1="1539.5" y1="251.7" x2="1601.1" y2="251.7"/>
					<line class="st10" x1="1539.5" y1="260.2" x2="1601.1" y2="260.2"/>
					<line class="st10" x1="1539.5" y1="268.7" x2="1601.1" y2="268.7"/>
					<line class="st10" x1="1539.5" y1="277.3" x2="1601.1" y2="277.3"/>
					<line class="st10" x1="1539.5" y1="285.8" x2="1601.1" y2="285.8"/>
					<line class="st10" x1="1539.5" y1="302.8" x2="1601.1" y2="302.8"/>
					<line class="st10" x1="1539.5" y1="294.3" x2="1601.1" y2="294.3"/>
					<line class="st10" x1="1539.5" y1="319.8" x2="1601.1" y2="319.8"/>
					<line class="st10" x1="1539.5" y1="311.3" x2="1601.1" y2="311.3"/>
					<line class="st10" x1="1539.5" y1="328.3" x2="1601.1" y2="328.3"/>
				</g>
				<g>
					<line class="st10" x1="1612.4" y1="251.7" x2="1674" y2="251.7"/>
					<line class="st10" x1="1612.4" y1="260.2" x2="1674" y2="260.2"/>
					<line class="st10" x1="1612.4" y1="268.7" x2="1674" y2="268.7"/>
					<line class="st10" x1="1612.4" y1="277.3" x2="1674" y2="277.3"/>
					<line class="st10" x1="1612.4" y1="285.8" x2="1674" y2="285.8"/>
					<line class="st10" x1="1612.4" y1="302.8" x2="1674" y2="302.8"/>
					<line class="st10" x1="1612.4" y1="294.3" x2="1674" y2="294.3"/>
					<line class="st10" x1="1612.4" y1="319.8" x2="1674" y2="319.8"/>
					<line class="st10" x1="1612.4" y1="311.3" x2="1674" y2="311.3"/>
					<line class="st10" x1="1612.4" y1="328.3" x2="1674" y2="328.3"/>
				</g>
				<g>
					<line class="st10" x1="1685.4" y1="251.7" x2="1747" y2="251.7"/>
					<line class="st10" x1="1685.4" y1="260.2" x2="1747" y2="260.2"/>
					<line class="st10" x1="1685.4" y1="268.7" x2="1747" y2="268.7"/>
					<line class="st10" x1="1685.4" y1="277.3" x2="1747" y2="277.3"/>
					<line class="st10" x1="1685.4" y1="285.8" x2="1747" y2="285.8"/>
					<line class="st10" x1="1685.4" y1="302.8" x2="1747" y2="302.8"/>
					<line class="st10" x1="1685.4" y1="294.3" x2="1747" y2="294.3"/>
					<line class="st10" x1="1685.4" y1="319.8" x2="1747" y2="319.8"/>
					<line class="st10" x1="1685.4" y1="311.3" x2="1747" y2="311.3"/>
					<line class="st10" x1="1685.4" y1="328.3" x2="1747" y2="328.3"/>
				</g>
				<g>
					<line class="st10" x1="1758.3" y1="251.7" x2="1819.9" y2="251.7"/>
					<line class="st10" x1="1758.3" y1="260.2" x2="1819.9" y2="260.2"/>
					<line class="st10" x1="1758.3" y1="268.7" x2="1819.9" y2="268.7"/>
					<line class="st10" x1="1758.3" y1="277.3" x2="1819.9" y2="277.3"/>
					<line class="st10" x1="1758.3" y1="285.8" x2="1819.9" y2="285.8"/>
					<line class="st10" x1="1758.3" y1="302.8" x2="1819.9" y2="302.8"/>
					<line class="st10" x1="1758.3" y1="294.3" x2="1819.9" y2="294.3"/>
					<line class="st10" x1="1758.3" y1="319.8" x2="1819.9" y2="319.8"/>
					<line class="st10" x1="1758.3" y1="311.3" x2="1819.9" y2="311.3"/>
					<line class="st10" x1="1758.3" y1="328.3" x2="1819.9" y2="328.3"/>
				</g>
			</g>
		</g>
		<g>
			<g>
				<g>
					<line class="st10" x1="1564.6" y1="849.7" x2="1525.5" y2="849.7"/>
					<line class="st10" x1="1564.6" y1="866.8" x2="1525.5" y2="866.8"/>
					<line class="st10" x1="1564.6" y1="858.2" x2="1525.5" y2="858.2"/>
					<line class="st10" x1="1564.6" y1="883.8" x2="1525.5" y2="883.8"/>
					<line class="st10" x1="1564.6" y1="900.8" x2="1525.5" y2="900.8"/>
					<line class="st10" x1="1564.6" y1="875.3" x2="1525.5" y2="875.3"/>
					<line class="st10" x1="1564.6" y1="892.3" x2="1525.5" y2="892.3"/>
					<line class="st10" x1="1564.6" y1="909.3" x2="1525.5" y2="909.3"/>
					<line class="st10" x1="1564.6" y1="917.8" x2="1525.5" y2="917.8"/>
					<line class="st10" x1="1564.6" y1="926.3" x2="1525.5" y2="926.3"/>
				</g>
				<g>
					<line class="st10" x1="1575.9" y1="849.7" x2="1637.6" y2="849.7"/>
					<line class="st10" x1="1575.9" y1="866.8" x2="1637.6" y2="866.8"/>
					<line class="st10" x1="1575.9" y1="858.3" x2="1637.6" y2="858.3"/>
					<line class="st10" x1="1575.9" y1="883.8" x2="1637.6" y2="883.8"/>
					<line class="st10" x1="1575.9" y1="900.8" x2="1637.6" y2="900.8"/>
					<line class="st10" x1="1575.9" y1="875.3" x2="1637.6" y2="875.3"/>
					<line class="st10" x1="1575.9" y1="892.3" x2="1637.6" y2="892.3"/>
					<line class="st10" x1="1575.9" y1="909.3" x2="1637.6" y2="909.3"/>
					<line class="st10" x1="1575.9" y1="917.8" x2="1637.6" y2="917.8"/>
					<line class="st10" x1="1575.9" y1="926.3" x2="1637.6" y2="926.3"/>
				</g>
				<g>
					<line class="st10" x1="1648.9" y1="849.7" x2="1710.5" y2="849.7"/>
					<line class="st10" x1="1648.9" y1="866.8" x2="1710.5" y2="866.8"/>
					<line class="st10" x1="1648.9" y1="858.3" x2="1710.5" y2="858.3"/>
					<line class="st10" x1="1648.9" y1="883.8" x2="1710.5" y2="883.8"/>
					<line class="st10" x1="1648.9" y1="900.8" x2="1710.5" y2="900.8"/>
					<line class="st10" x1="1648.9" y1="875.3" x2="1710.5" y2="875.3"/>
					<line class="st10" x1="1648.9" y1="892.3" x2="1710.5" y2="892.3"/>
					<line class="st10" x1="1648.9" y1="909.3" x2="1710.5" y2="909.3"/>
					<line class="st10" x1="1648.9" y1="917.8" x2="1710.5" y2="917.8"/>
					<line class="st10" x1="1648.9" y1="926.3" x2="1710.5" y2="926.3"/>
				</g>
				<g>
					<line class="st10" x1="1721.9" y1="849.7" x2="1783.5" y2="849.7"/>
					<line class="st10" x1="1721.9" y1="866.8" x2="1783.5" y2="866.8"/>
					<line class="st10" x1="1721.9" y1="858.3" x2="1783.5" y2="858.3"/>
					<line class="st10" x1="1721.9" y1="883.8" x2="1783.5" y2="883.8"/>
					<line class="st10" x1="1721.9" y1="900.8" x2="1783.5" y2="900.8"/>
					<line class="st10" x1="1721.9" y1="875.3" x2="1783.5" y2="875.3"/>
					<line class="st10" x1="1721.9" y1="892.3" x2="1783.5" y2="892.3"/>
					<line class="st10" x1="1721.9" y1="909.3" x2="1783.5" y2="909.3"/>
					<line class="st10" x1="1721.9" y1="917.8" x2="1783.5" y2="917.8"/>
					<line class="st10" x1="1721.9" y1="926.3" x2="1783.5" y2="926.3"/>
				</g>
				<g>
					<line class="st10" x1="1834" y1="849.7" x2="1794.8" y2="849.7"/>
					<line class="st10" x1="1834" y1="866.8" x2="1794.8" y2="866.8"/>
					<line class="st10" x1="1834" y1="858.2" x2="1794.8" y2="858.2"/>
					<line class="st10" x1="1834" y1="883.8" x2="1794.8" y2="883.8"/>
					<line class="st10" x1="1834" y1="900.8" x2="1794.8" y2="900.8"/>
					<line class="st10" x1="1834" y1="875.3" x2="1794.8" y2="875.3"/>
					<line class="st10" x1="1834" y1="892.3" x2="1794.8" y2="892.3"/>
					<line class="st10" x1="1834" y1="909.3" x2="1794.8" y2="909.3"/>
					<line class="st10" x1="1834" y1="917.8" x2="1794.8" y2="917.8"/>
					<line class="st10" x1="1834" y1="926.3" x2="1794.8" y2="926.3"/>
				</g>
				<g>
					<line class="st10" x1="1539.5" y1="854" x2="1601.1" y2="854"/>
					<line class="st10" x1="1539.5" y1="871" x2="1601.1" y2="871"/>
					<line class="st10" x1="1539.5" y1="862.5" x2="1601.1" y2="862.5"/>
					<line class="st10" x1="1539.5" y1="879.5" x2="1601.1" y2="879.5"/>
					<line class="st10" x1="1539.5" y1="905" x2="1601.1" y2="905"/>
					<line class="st10" x1="1539.5" y1="888" x2="1601.1" y2="888"/>
					<line class="st10" x1="1539.5" y1="896.5" x2="1601.1" y2="896.5"/>
					<line class="st10" x1="1539.5" y1="913.5" x2="1601.1" y2="913.5"/>
					<line class="st10" x1="1539.5" y1="922" x2="1601.1" y2="922"/>
					<line class="st10" x1="1539.5" y1="930.5" x2="1601.1" y2="930.5"/>
				</g>
				<g>
					<line class="st10" x1="1612.4" y1="854" x2="1674" y2="854"/>
					<line class="st10" x1="1612.4" y1="871" x2="1674" y2="871"/>
					<line class="st10" x1="1612.4" y1="862.5" x2="1674" y2="862.5"/>
					<line class="st10" x1="1612.4" y1="879.5" x2="1674" y2="879.5"/>
					<line class="st10" x1="1612.4" y1="905" x2="1674" y2="905"/>
					<line class="st10" x1="1612.4" y1="888" x2="1674" y2="888"/>
					<line class="st10" x1="1612.4" y1="896.5" x2="1674" y2="896.5"/>
					<line class="st10" x1="1612.4" y1="913.5" x2="1674" y2="913.5"/>
					<line class="st10" x1="1612.4" y1="922" x2="1674" y2="922"/>
					<line class="st10" x1="1612.4" y1="930.5" x2="1674" y2="930.5"/>
				</g>
				<g>
					<line class="st10" x1="1685.4" y1="854" x2="1747" y2="854"/>
					<line class="st10" x1="1685.4" y1="871" x2="1747" y2="871"/>
					<line class="st10" x1="1685.4" y1="862.5" x2="1747" y2="862.5"/>
					<line class="st10" x1="1685.4" y1="879.5" x2="1747" y2="879.5"/>
					<line class="st10" x1="1685.4" y1="905" x2="1747" y2="905"/>
					<line class="st10" x1="1685.4" y1="888" x2="1747" y2="888"/>
					<line class="st10" x1="1685.4" y1="896.5" x2="1747" y2="896.5"/>
					<line class="st10" x1="1685.4" y1="913.5" x2="1747" y2="913.5"/>
					<line class="st10" x1="1685.4" y1="922" x2="1747" y2="922"/>
					<line class="st10" x1="1685.4" y1="930.5" x2="1747" y2="930.5"/>
				</g>
				<g>
					<line class="st10" x1="1758.3" y1="854" x2="1819.9" y2="854"/>
					<line class="st10" x1="1758.3" y1="871" x2="1819.9" y2="871"/>
					<line class="st10" x1="1758.3" y1="862.5" x2="1819.9" y2="862.5"/>
					<line class="st10" x1="1758.3" y1="879.5" x2="1819.9" y2="879.5"/>
					<line class="st10" x1="1758.3" y1="905" x2="1819.9" y2="905"/>
					<line class="st10" x1="1758.3" y1="888" x2="1819.9" y2="888"/>
					<line class="st10" x1="1758.3" y1="896.5" x2="1819.9" y2="896.5"/>
					<line class="st10" x1="1758.3" y1="913.5" x2="1819.9" y2="913.5"/>
					<line class="st10" x1="1758.3" y1="922" x2="1819.9" y2="922"/>
					<line class="st10" x1="1758.3" y1="930.5" x2="1819.9" y2="930.5"/>
				</g>
			</g>
			<g>
				<g>
					<line class="st10" x1="1564.6" y1="934.9" x2="1525.5" y2="934.9"/>
					<line class="st10" x1="1564.6" y1="943.4" x2="1525.5" y2="943.4"/>
					<line class="st10" x1="1564.6" y1="951.9" x2="1525.5" y2="951.9"/>
					<line class="st10" x1="1564.6" y1="960.4" x2="1525.5" y2="960.4"/>
					<line class="st10" x1="1564.6" y1="968.9" x2="1525.5" y2="968.9"/>
					<line class="st10" x1="1564.6" y1="977.4" x2="1525.5" y2="977.4"/>
					<line class="st10" x1="1564.6" y1="985.9" x2="1525.5" y2="985.9"/>
					<line class="st10" x1="1564.6" y1="1002.9" x2="1525.5" y2="1002.9"/>
					<line class="st10" x1="1564.6" y1="994.4" x2="1525.5" y2="994.4"/>
					<line class="st10" x1="1564.6" y1="1019.9" x2="1525.5" y2="1019.9"/>
					<line class="st10" x1="1564.6" y1="1036.9" x2="1525.5" y2="1036.9"/>
					<line class="st10" x1="1564.6" y1="1011.4" x2="1525.5" y2="1011.4"/>
					<line class="st10" x1="1564.6" y1="1028.4" x2="1525.5" y2="1028.4"/>
					<line class="st10" x1="1564.6" y1="1045.4" x2="1525.5" y2="1045.4"/>
					<line class="st10" x1="1564.6" y1="1053.9" x2="1525.5" y2="1053.9"/>
					<line class="st10" x1="1564.6" y1="1062.4" x2="1525.5" y2="1062.4"/>
				</g>
				<g>
					<line class="st10" x1="1575.9" y1="934.9" x2="1637.6" y2="934.9"/>
					<line class="st10" x1="1575.9" y1="943.4" x2="1637.6" y2="943.4"/>
					<line class="st10" x1="1575.9" y1="951.9" x2="1637.6" y2="951.9"/>
					<line class="st10" x1="1575.9" y1="960.4" x2="1637.6" y2="960.4"/>
					<line class="st10" x1="1575.9" y1="968.9" x2="1637.6" y2="968.9"/>
					<line class="st10" x1="1575.9" y1="977.4" x2="1637.6" y2="977.4"/>
					<line class="st10" x1="1575.9" y1="985.9" x2="1637.6" y2="985.9"/>
					<line class="st10" x1="1575.9" y1="1002.9" x2="1637.6" y2="1002.9"/>
					<line class="st10" x1="1575.9" y1="994.4" x2="1637.6" y2="994.4"/>
					<line class="st10" x1="1575.9" y1="1019.9" x2="1637.6" y2="1019.9"/>
					<line class="st10" x1="1575.9" y1="1036.9" x2="1637.6" y2="1036.9"/>
					<line class="st10" x1="1575.9" y1="1011.4" x2="1637.6" y2="1011.4"/>
					<line class="st10" x1="1575.9" y1="1028.4" x2="1637.6" y2="1028.4"/>
					<line class="st10" x1="1575.9" y1="1045.4" x2="1637.6" y2="1045.4"/>
					<line class="st10" x1="1575.9" y1="1053.9" x2="1637.6" y2="1053.9"/>
					<line class="st10" x1="1575.9" y1="1062.4" x2="1637.6" y2="1062.4"/>
				</g>
				<g>
					<line class="st10" x1="1648.9" y1="934.9" x2="1710.5" y2="934.9"/>
					<line class="st10" x1="1648.9" y1="943.4" x2="1710.5" y2="943.4"/>
					<line class="st10" x1="1648.9" y1="951.9" x2="1710.5" y2="951.9"/>
					<line class="st10" x1="1648.9" y1="960.4" x2="1710.5" y2="960.4"/>
					<line class="st10" x1="1648.9" y1="968.9" x2="1710.5" y2="968.9"/>
					<line class="st10" x1="1648.9" y1="977.4" x2="1710.5" y2="977.4"/>
					<line class="st10" x1="1648.9" y1="985.9" x2="1710.5" y2="985.9"/>
					<line class="st10" x1="1648.9" y1="1002.9" x2="1710.5" y2="1002.9"/>
					<line class="st10" x1="1648.9" y1="994.4" x2="1710.5" y2="994.4"/>
					<line class="st10" x1="1648.9" y1="1019.9" x2="1710.5" y2="1019.9"/>
					<line class="st10" x1="1648.9" y1="1036.9" x2="1710.5" y2="1036.9"/>
					<line class="st10" x1="1648.9" y1="1011.4" x2="1710.5" y2="1011.4"/>
					<line class="st10" x1="1648.9" y1="1028.4" x2="1710.5" y2="1028.4"/>
					<line class="st10" x1="1648.9" y1="1045.4" x2="1710.5" y2="1045.4"/>
					<line class="st10" x1="1648.9" y1="1053.9" x2="1710.5" y2="1053.9"/>
					<line class="st10" x1="1648.9" y1="1062.4" x2="1710.5" y2="1062.4"/>
				</g>
				<g>
					<line class="st10" x1="1721.9" y1="934.9" x2="1783.5" y2="934.9"/>
					<line class="st10" x1="1721.9" y1="943.4" x2="1783.5" y2="943.4"/>
					<line class="st10" x1="1721.9" y1="951.9" x2="1783.5" y2="951.9"/>
					<line class="st10" x1="1721.9" y1="960.4" x2="1783.5" y2="960.4"/>
					<line class="st10" x1="1721.9" y1="968.9" x2="1783.5" y2="968.9"/>
					<line class="st10" x1="1721.9" y1="977.4" x2="1783.5" y2="977.4"/>
					<line class="st10" x1="1721.9" y1="985.9" x2="1783.5" y2="985.9"/>
					<line class="st10" x1="1721.9" y1="1002.9" x2="1783.5" y2="1002.9"/>
					<line class="st10" x1="1721.9" y1="994.4" x2="1783.5" y2="994.4"/>
					<line class="st10" x1="1721.9" y1="1019.9" x2="1783.5" y2="1019.9"/>
					<line class="st10" x1="1721.9" y1="1036.9" x2="1783.5" y2="1036.9"/>
					<line class="st10" x1="1721.9" y1="1011.4" x2="1783.5" y2="1011.4"/>
					<line class="st10" x1="1721.9" y1="1028.4" x2="1783.5" y2="1028.4"/>
					<line class="st10" x1="1721.9" y1="1045.4" x2="1783.5" y2="1045.4"/>
					<line class="st10" x1="1721.9" y1="1053.9" x2="1783.5" y2="1053.9"/>
					<line class="st10" x1="1721.9" y1="1062.4" x2="1783.5" y2="1062.4"/>
				</g>
				<g>
					<line class="st10" x1="1834" y1="934.9" x2="1794.8" y2="934.9"/>
					<line class="st10" x1="1834" y1="943.4" x2="1794.8" y2="943.4"/>
					<line class="st10" x1="1834" y1="951.9" x2="1794.8" y2="951.9"/>
					<line class="st10" x1="1834" y1="960.4" x2="1794.8" y2="960.4"/>
					<line class="st10" x1="1834" y1="968.9" x2="1794.8" y2="968.9"/>
					<line class="st10" x1="1834" y1="977.4" x2="1794.8" y2="977.4"/>
					<line class="st10" x1="1834" y1="985.9" x2="1794.8" y2="985.9"/>
					<line class="st10" x1="1834" y1="1002.9" x2="1794.8" y2="1002.9"/>
					<line class="st10" x1="1834" y1="994.4" x2="1794.8" y2="994.4"/>
					<line class="st10" x1="1834" y1="1019.9" x2="1794.8" y2="1019.9"/>
					<line class="st10" x1="1834" y1="1036.9" x2="1794.8" y2="1036.9"/>
					<line class="st10" x1="1834" y1="1011.4" x2="1794.8" y2="1011.4"/>
					<line class="st10" x1="1834" y1="1028.4" x2="1794.8" y2="1028.4"/>
					<line class="st10" x1="1834" y1="1045.4" x2="1794.8" y2="1045.4"/>
					<line class="st10" x1="1834" y1="1053.9" x2="1794.8" y2="1053.9"/>
					<line class="st10" x1="1834" y1="1062.4" x2="1794.8" y2="1062.4"/>
				</g>
				<g>
					<line class="st10" x1="1539.5" y1="939.1" x2="1601.1" y2="939.1"/>
					<line class="st10" x1="1539.5" y1="947.6" x2="1601.1" y2="947.6"/>
					<line class="st10" x1="1539.5" y1="956.1" x2="1601.1" y2="956.1"/>
					<line class="st10" x1="1539.5" y1="964.6" x2="1601.1" y2="964.6"/>
					<line class="st10" x1="1539.5" y1="973.1" x2="1601.1" y2="973.1"/>
					<line class="st10" x1="1539.5" y1="990.2" x2="1601.1" y2="990.2"/>
					<line class="st10" x1="1539.5" y1="981.7" x2="1601.1" y2="981.7"/>
					<line class="st10" x1="1539.5" y1="1007.2" x2="1601.1" y2="1007.2"/>
					<line class="st10" x1="1539.5" y1="998.7" x2="1601.1" y2="998.7"/>
					<line class="st10" x1="1539.5" y1="1015.7" x2="1601.1" y2="1015.7"/>
					<line class="st10" x1="1539.5" y1="1041.2" x2="1601.1" y2="1041.2"/>
					<line class="st10" x1="1539.5" y1="1024.2" x2="1601.1" y2="1024.2"/>
					<line class="st10" x1="1539.5" y1="1032.7" x2="1601.1" y2="1032.7"/>
					<line class="st10" x1="1539.5" y1="1049.7" x2="1601.1" y2="1049.7"/>
					<line class="st10" x1="1539.5" y1="1058.2" x2="1601.1" y2="1058.2"/>
					<line class="st10" x1="1539.5" y1="1066.7" x2="1601.1" y2="1066.7"/>
				</g>
				<g>
					<line class="st10" x1="1612.4" y1="939.1" x2="1674" y2="939.1"/>
					<line class="st10" x1="1612.4" y1="947.6" x2="1674" y2="947.6"/>
					<line class="st10" x1="1612.4" y1="956.1" x2="1674" y2="956.1"/>
					<line class="st10" x1="1612.4" y1="964.6" x2="1674" y2="964.6"/>
					<line class="st10" x1="1612.4" y1="973.1" x2="1674" y2="973.1"/>
					<line class="st10" x1="1612.4" y1="990.2" x2="1674" y2="990.2"/>
					<line class="st10" x1="1612.4" y1="981.6" x2="1674" y2="981.6"/>
					<line class="st10" x1="1612.4" y1="1007.2" x2="1674" y2="1007.2"/>
					<line class="st10" x1="1612.4" y1="998.7" x2="1674" y2="998.7"/>
					<line class="st10" x1="1612.4" y1="1015.7" x2="1674" y2="1015.7"/>
					<line class="st10" x1="1612.4" y1="1041.2" x2="1674" y2="1041.2"/>
					<line class="st10" x1="1612.4" y1="1024.2" x2="1674" y2="1024.2"/>
					<line class="st10" x1="1612.4" y1="1032.7" x2="1674" y2="1032.7"/>
					<line class="st10" x1="1612.4" y1="1049.7" x2="1674" y2="1049.7"/>
					<line class="st10" x1="1612.4" y1="1058.2" x2="1674" y2="1058.2"/>
					<line class="st10" x1="1612.4" y1="1066.7" x2="1674" y2="1066.7"/>
				</g>
				<g>
					<line class="st10" x1="1685.4" y1="939.1" x2="1747" y2="939.1"/>
					<line class="st10" x1="1685.4" y1="947.6" x2="1747" y2="947.6"/>
					<line class="st10" x1="1685.4" y1="956.1" x2="1747" y2="956.1"/>
					<line class="st10" x1="1685.4" y1="964.6" x2="1747" y2="964.6"/>
					<line class="st10" x1="1685.4" y1="973.1" x2="1747" y2="973.1"/>
					<line class="st10" x1="1685.4" y1="990.2" x2="1747" y2="990.2"/>
					<line class="st10" x1="1685.4" y1="981.6" x2="1747" y2="981.6"/>
					<line class="st10" x1="1685.4" y1="1007.2" x2="1747" y2="1007.2"/>
					<line class="st10" x1="1685.4" y1="998.7" x2="1747" y2="998.7"/>
					<line class="st10" x1="1685.4" y1="1015.7" x2="1747" y2="1015.7"/>
					<line class="st10" x1="1685.4" y1="1041.2" x2="1747" y2="1041.2"/>
					<line class="st10" x1="1685.4" y1="1024.2" x2="1747" y2="1024.2"/>
					<line class="st10" x1="1685.4" y1="1032.7" x2="1747" y2="1032.7"/>
					<line class="st10" x1="1685.4" y1="1049.7" x2="1747" y2="1049.7"/>
					<line class="st10" x1="1685.4" y1="1058.2" x2="1747" y2="1058.2"/>
					<line class="st10" x1="1685.4" y1="1066.7" x2="1747" y2="1066.7"/>
				</g>
				<g>
					<line class="st10" x1="1758.3" y1="939.1" x2="1819.9" y2="939.1"/>
					<line class="st10" x1="1758.3" y1="947.6" x2="1819.9" y2="947.6"/>
					<line class="st10" x1="1758.3" y1="956.1" x2="1819.9" y2="956.1"/>
					<line class="st10" x1="1758.3" y1="964.6" x2="1819.9" y2="964.6"/>
					<line class="st10" x1="1758.3" y1="973.1" x2="1819.9" y2="973.1"/>
					<line class="st10" x1="1758.3" y1="990.2" x2="1819.9" y2="990.2"/>
					<line class="st10" x1="1758.3" y1="981.6" x2="1819.9" y2="981.6"/>
					<line class="st10" x1="1758.3" y1="1007.2" x2="1819.9" y2="1007.2"/>
					<line class="st10" x1="1758.3" y1="998.7" x2="1819.9" y2="998.7"/>
					<line class="st10" x1="1758.3" y1="1015.7" x2="1819.9" y2="1015.7"/>
					<line class="st10" x1="1758.3" y1="1041.2" x2="1819.9" y2="1041.2"/>
					<line class="st10" x1="1758.3" y1="1024.2" x2="1819.9" y2="1024.2"/>
					<line class="st10" x1="1758.3" y1="1032.7" x2="1819.9" y2="1032.7"/>
					<line class="st10" x1="1758.3" y1="1049.7" x2="1819.9" y2="1049.7"/>
					<line class="st10" x1="1758.3" y1="1058.2" x2="1819.9" y2="1058.2"/>
					<line class="st10" x1="1758.3" y1="1066.7" x2="1819.9" y2="1066.7"/>
				</g>
			</g>
		</g>
	</g>
	<g>
		<g>
			<g>
				<path d="M2093.5,1129.4v11.9c0,2.8,3.3,5.1,7.3,5.1h1.4c4,0,7.2,2.3,7.2,5.1v11.9c0,2.8-3.2,5.1-7.2,5.1h-71.7
					c-4,0-7.2-2.3-7.2-5.1v-11.9c0-2.8,3.3-5.1,7.2-5.1h1.4c4,0,7.2-2.3,7.2-5.1v-11.9c0-2.8-3.2-5-7.2-5.1v-0.1H1960v0.1
					c-3.9,0.1-7,2.3-7,5v11.9c0,2.8,3.3,5.1,7.2,5.1h1.4c4,0,7.2,2.3,7.2,5.1v11.9c0,2.8-3.2,5.1-7.2,5.1H1890c-4,0-7.2-2.3-7.2-5.1
					v-11.9c0-2.8,3.3-5.1,7.2-5.1h1.4c4,0,7.3-2.3,7.3-5.1v-11.9c0-2.8-3.2-5-7.2-5.1v-0.1h-49.6V10h49.6v0.1c4,0,7.2,2.3,7.2,5.1
					v11.9c0,2.8-3.2,5.1-7.3,5.1h-1.4c-4,0-7.2,2.3-7.2,5.1v11.9c0,2.8,3.3,5.1,7.2,5.1h71.7c4,0,7.2-2.3,7.2-5.1V37.2
					c0-2.8-3.2-5.1-7.2-5.1h-1.4c-4,0-7.2-2.3-7.2-5.1V15.1c0-2.7,3.1-4.9,7-5V10h71.9v0.1c4,0,7.2,2.3,7.2,5.1v11.9
					c0,2.8-3.2,5.1-7.2,5.1h-1.4c-4,0-7.2,2.3-7.2,5.1v11.9c0,2.8,3.3,5.1,7.2,5.1h71.7c4,0,7.2-2.3,7.2-5.1V37.2
					c0-2.8-3.2-5.1-7.2-5.1h-1.4c-4,0-7.3-2.3-7.3-5.1V15.1c0-2.7,3.1-4.9,7-5V10h49.9v1114.3h-49.9v0.1
					C2096.6,1124.5,2093.5,1126.7,2093.5,1129.4z"/>
			</g>
			<rect x="1851.5" y="1082.8" class="st9" width="14.2" height="34.2"/>
			<rect x="2126.5" y="1082.8" class="st9" width="14.2" height="34.2"/>
			<path class="st11" d="M2017.6,383.7v410.5c0,9.3-7.5,16.8-16.8,16.8c-4.6,0-8.8-1.9-11.9-4.9c-3-3-4.9-7.2-4.9-11.9V383.7
				c0-9.3,7.5-16.8,16.8-16.8C2010.1,367,2017.6,374.5,2017.6,383.7z"/>
			<rect x="1851.5" y="61.5" class="st9" width="14.2" height="34.2"/>
			<rect x="2126.5" y="61.5" class="st9" width="14.2" height="34.2"/>
			<rect x="2126.5" y="571.9" class="st9" width="14.2" height="34.2"/>
			<rect x="1851.5" y="571.9" class="st9" width="14.2" height="34.2"/>
		</g>
		<g>
			<g>
				<g>
					<line class="st10" x1="1881" y1="111.3" x2="1841.8" y2="111.3"/>
					<line class="st10" x1="1881" y1="119.8" x2="1841.8" y2="119.8"/>
					<line class="st10" x1="1881" y1="128.3" x2="1841.8" y2="128.3"/>
					<line class="st10" x1="1881" y1="136.8" x2="1841.8" y2="136.8"/>
					<line class="st10" x1="1881" y1="145.3" x2="1841.8" y2="145.3"/>
					<line class="st10" x1="1881" y1="153.8" x2="1841.8" y2="153.8"/>
					<line class="st10" x1="1881" y1="162.4" x2="1841.8" y2="162.4"/>
					<line class="st10" x1="1881" y1="179.4" x2="1841.8" y2="179.4"/>
					<line class="st10" x1="1881" y1="170.9" x2="1841.8" y2="170.9"/>
					<line class="st10" x1="1881" y1="196.4" x2="1841.8" y2="196.4"/>
					<line class="st10" x1="1881" y1="213.4" x2="1841.8" y2="213.4"/>
					<line class="st10" x1="1881" y1="187.9" x2="1841.8" y2="187.9"/>
					<line class="st10" x1="1881" y1="204.9" x2="1841.8" y2="204.9"/>
					<line class="st10" x1="1881" y1="221.9" x2="1841.8" y2="221.9"/>
					<line class="st10" x1="1881" y1="230.4" x2="1841.8" y2="230.4"/>
					<line class="st10" x1="1881" y1="238.9" x2="1841.8" y2="238.9"/>
				</g>
				<g>
					<line class="st10" x1="1892.3" y1="111.3" x2="1953.9" y2="111.3"/>
					<line class="st10" x1="1892.3" y1="119.8" x2="1953.9" y2="119.8"/>
					<line class="st10" x1="1892.3" y1="128.3" x2="1953.9" y2="128.3"/>
					<line class="st10" x1="1892.3" y1="136.8" x2="1953.9" y2="136.8"/>
					<line class="st10" x1="1892.3" y1="145.3" x2="1953.9" y2="145.3"/>
					<line class="st10" x1="1892.3" y1="153.9" x2="1953.9" y2="153.9"/>
					<line class="st10" x1="1892.3" y1="162.4" x2="1953.9" y2="162.4"/>
					<line class="st10" x1="1892.3" y1="179.4" x2="1953.9" y2="179.4"/>
					<line class="st10" x1="1892.3" y1="170.9" x2="1953.9" y2="170.9"/>
					<line class="st10" x1="1892.3" y1="196.4" x2="1953.9" y2="196.4"/>
					<line class="st10" x1="1892.3" y1="213.4" x2="1953.9" y2="213.4"/>
					<line class="st10" x1="1892.3" y1="187.9" x2="1953.9" y2="187.9"/>
					<line class="st10" x1="1892.3" y1="204.9" x2="1953.9" y2="204.9"/>
					<line class="st10" x1="1892.3" y1="221.9" x2="1953.9" y2="221.9"/>
					<line class="st10" x1="1892.3" y1="230.4" x2="1953.9" y2="230.4"/>
					<line class="st10" x1="1892.3" y1="238.9" x2="1953.9" y2="238.9"/>
				</g>
				<g>
					<line class="st10" x1="1965.3" y1="111.3" x2="2026.9" y2="111.3"/>
					<line class="st10" x1="1965.3" y1="119.8" x2="2026.9" y2="119.8"/>
					<line class="st10" x1="1965.3" y1="128.3" x2="2026.9" y2="128.3"/>
					<line class="st10" x1="1965.3" y1="136.8" x2="2026.9" y2="136.8"/>
					<line class="st10" x1="1965.3" y1="145.3" x2="2026.9" y2="145.3"/>
					<line class="st10" x1="1965.3" y1="153.9" x2="2026.9" y2="153.9"/>
					<line class="st10" x1="1965.3" y1="162.4" x2="2026.9" y2="162.4"/>
					<line class="st10" x1="1965.3" y1="179.4" x2="2026.9" y2="179.4"/>
					<line class="st10" x1="1965.3" y1="170.9" x2="2026.9" y2="170.9"/>
					<line class="st10" x1="1965.3" y1="196.4" x2="2026.9" y2="196.4"/>
					<line class="st10" x1="1965.3" y1="213.4" x2="2026.9" y2="213.4"/>
					<line class="st10" x1="1965.3" y1="187.9" x2="2026.9" y2="187.9"/>
					<line class="st10" x1="1965.3" y1="204.9" x2="2026.9" y2="204.9"/>
					<line class="st10" x1="1965.3" y1="221.9" x2="2026.9" y2="221.9"/>
					<line class="st10" x1="1965.3" y1="230.4" x2="2026.9" y2="230.4"/>
					<line class="st10" x1="1965.3" y1="238.9" x2="2026.9" y2="238.9"/>
				</g>
				<g>
					<line class="st10" x1="2038.2" y1="111.3" x2="2099.8" y2="111.3"/>
					<line class="st10" x1="2038.2" y1="119.8" x2="2099.8" y2="119.8"/>
					<line class="st10" x1="2038.2" y1="128.3" x2="2099.8" y2="128.3"/>
					<line class="st10" x1="2038.2" y1="136.8" x2="2099.8" y2="136.8"/>
					<line class="st10" x1="2038.2" y1="145.3" x2="2099.8" y2="145.3"/>
					<line class="st10" x1="2038.2" y1="153.9" x2="2099.8" y2="153.9"/>
					<line class="st10" x1="2038.2" y1="162.4" x2="2099.8" y2="162.4"/>
					<line class="st10" x1="2038.2" y1="179.4" x2="2099.8" y2="179.4"/>
					<line class="st10" x1="2038.2" y1="170.9" x2="2099.8" y2="170.9"/>
					<line class="st10" x1="2038.2" y1="196.4" x2="2099.8" y2="196.4"/>
					<line class="st10" x1="2038.2" y1="213.4" x2="2099.8" y2="213.4"/>
					<line class="st10" x1="2038.2" y1="187.9" x2="2099.8" y2="187.9"/>
					<line class="st10" x1="2038.2" y1="204.9" x2="2099.8" y2="204.9"/>
					<line class="st10" x1="2038.2" y1="221.9" x2="2099.8" y2="221.9"/>
					<line class="st10" x1="2038.2" y1="230.4" x2="2099.8" y2="230.4"/>
					<line class="st10" x1="2038.2" y1="238.9" x2="2099.8" y2="238.9"/>
				</g>
				<g>
					<line class="st10" x1="2150.3" y1="111.3" x2="2111.2" y2="111.3"/>
					<line class="st10" x1="2150.3" y1="119.8" x2="2111.2" y2="119.8"/>
					<line class="st10" x1="2150.3" y1="128.3" x2="2111.2" y2="128.3"/>
					<line class="st10" x1="2150.3" y1="136.8" x2="2111.2" y2="136.8"/>
					<line class="st10" x1="2150.3" y1="145.3" x2="2111.2" y2="145.3"/>
					<line class="st10" x1="2150.3" y1="153.8" x2="2111.2" y2="153.8"/>
					<line class="st10" x1="2150.3" y1="162.4" x2="2111.2" y2="162.4"/>
					<line class="st10" x1="2150.3" y1="179.4" x2="2111.2" y2="179.4"/>
					<line class="st10" x1="2150.3" y1="170.9" x2="2111.2" y2="170.9"/>
					<line class="st10" x1="2150.3" y1="196.4" x2="2111.2" y2="196.4"/>
					<line class="st10" x1="2150.3" y1="213.4" x2="2111.2" y2="213.4"/>
					<line class="st10" x1="2150.3" y1="187.9" x2="2111.2" y2="187.9"/>
					<line class="st10" x1="2150.3" y1="204.9" x2="2111.2" y2="204.9"/>
					<line class="st10" x1="2150.3" y1="221.9" x2="2111.2" y2="221.9"/>
					<line class="st10" x1="2150.3" y1="230.4" x2="2111.2" y2="230.4"/>
					<line class="st10" x1="2150.3" y1="238.9" x2="2111.2" y2="238.9"/>
				</g>
				<g>
					<line class="st10" x1="1855.8" y1="115.6" x2="1917.4" y2="115.6"/>
					<line class="st10" x1="1855.8" y1="124.1" x2="1917.4" y2="124.1"/>
					<line class="st10" x1="1855.8" y1="132.6" x2="1917.4" y2="132.6"/>
					<line class="st10" x1="1855.8" y1="141.1" x2="1917.4" y2="141.1"/>
					<line class="st10" x1="1855.8" y1="149.6" x2="1917.4" y2="149.6"/>
					<line class="st10" x1="1855.8" y1="166.6" x2="1917.4" y2="166.6"/>
					<line class="st10" x1="1855.8" y1="158.1" x2="1917.4" y2="158.1"/>
					<line class="st10" x1="1855.8" y1="183.6" x2="1917.4" y2="183.6"/>
					<line class="st10" x1="1855.8" y1="175.1" x2="1917.4" y2="175.1"/>
					<line class="st10" x1="1855.8" y1="192.1" x2="1917.4" y2="192.1"/>
					<line class="st10" x1="1855.8" y1="217.6" x2="1917.4" y2="217.6"/>
					<line class="st10" x1="1855.8" y1="200.6" x2="1917.4" y2="200.6"/>
					<line class="st10" x1="1855.8" y1="209.1" x2="1917.4" y2="209.1"/>
					<line class="st10" x1="1855.8" y1="226.1" x2="1917.4" y2="226.1"/>
					<line class="st10" x1="1855.8" y1="234.6" x2="1917.4" y2="234.6"/>
					<line class="st10" x1="1855.8" y1="243.1" x2="1917.4" y2="243.1"/>
				</g>
				<g>
					<line class="st10" x1="1928.8" y1="115.6" x2="1990.4" y2="115.6"/>
					<line class="st10" x1="1928.8" y1="124.1" x2="1990.4" y2="124.1"/>
					<line class="st10" x1="1928.8" y1="132.6" x2="1990.4" y2="132.6"/>
					<line class="st10" x1="1928.8" y1="141.1" x2="1990.4" y2="141.1"/>
					<line class="st10" x1="1928.8" y1="149.6" x2="1990.4" y2="149.6"/>
					<line class="st10" x1="1928.8" y1="166.6" x2="1990.4" y2="166.6"/>
					<line class="st10" x1="1928.8" y1="158.1" x2="1990.4" y2="158.1"/>
					<line class="st10" x1="1928.8" y1="183.6" x2="1990.4" y2="183.6"/>
					<line class="st10" x1="1928.8" y1="175.1" x2="1990.4" y2="175.1"/>
					<line class="st10" x1="1928.8" y1="192.1" x2="1990.4" y2="192.1"/>
					<line class="st10" x1="1928.8" y1="217.6" x2="1990.4" y2="217.6"/>
					<line class="st10" x1="1928.8" y1="200.6" x2="1990.4" y2="200.6"/>
					<line class="st10" x1="1928.8" y1="209.1" x2="1990.4" y2="209.1"/>
					<line class="st10" x1="1928.8" y1="226.1" x2="1990.4" y2="226.1"/>
					<line class="st10" x1="1928.8" y1="234.6" x2="1990.4" y2="234.6"/>
					<line class="st10" x1="1928.8" y1="243.1" x2="1990.4" y2="243.1"/>
				</g>
				<g>
					<line class="st10" x1="2001.7" y1="115.6" x2="2063.4" y2="115.6"/>
					<line class="st10" x1="2001.7" y1="124.1" x2="2063.4" y2="124.1"/>
					<line class="st10" x1="2001.7" y1="132.6" x2="2063.4" y2="132.6"/>
					<line class="st10" x1="2001.7" y1="141.1" x2="2063.4" y2="141.1"/>
					<line class="st10" x1="2001.7" y1="149.6" x2="2063.4" y2="149.6"/>
					<line class="st10" x1="2001.7" y1="166.6" x2="2063.4" y2="166.6"/>
					<line class="st10" x1="2001.7" y1="158.1" x2="2063.4" y2="158.1"/>
					<line class="st10" x1="2001.7" y1="183.6" x2="2063.4" y2="183.6"/>
					<line class="st10" x1="2001.7" y1="175.1" x2="2063.4" y2="175.1"/>
					<line class="st10" x1="2001.7" y1="192.1" x2="2063.4" y2="192.1"/>
					<line class="st10" x1="2001.7" y1="217.6" x2="2063.4" y2="217.6"/>
					<line class="st10" x1="2001.7" y1="200.6" x2="2063.4" y2="200.6"/>
					<line class="st10" x1="2001.7" y1="209.1" x2="2063.4" y2="209.1"/>
					<line class="st10" x1="2001.7" y1="226.1" x2="2063.4" y2="226.1"/>
					<line class="st10" x1="2001.7" y1="234.6" x2="2063.4" y2="234.6"/>
					<line class="st10" x1="2001.7" y1="243.1" x2="2063.4" y2="243.1"/>
				</g>
				<g>
					<line class="st10" x1="2074.7" y1="115.6" x2="2136.3" y2="115.6"/>
					<line class="st10" x1="2074.7" y1="124.1" x2="2136.3" y2="124.1"/>
					<line class="st10" x1="2074.7" y1="132.6" x2="2136.3" y2="132.6"/>
					<line class="st10" x1="2074.7" y1="141.1" x2="2136.3" y2="141.1"/>
					<line class="st10" x1="2074.7" y1="149.6" x2="2136.3" y2="149.6"/>
					<line class="st10" x1="2074.7" y1="166.6" x2="2136.3" y2="166.6"/>
					<line class="st10" x1="2074.7" y1="158.1" x2="2136.3" y2="158.1"/>
					<line class="st10" x1="2074.7" y1="183.6" x2="2136.3" y2="183.6"/>
					<line class="st10" x1="2074.7" y1="175.1" x2="2136.3" y2="175.1"/>
					<line class="st10" x1="2074.7" y1="192.1" x2="2136.3" y2="192.1"/>
					<line class="st10" x1="2074.7" y1="217.6" x2="2136.3" y2="217.6"/>
					<line class="st10" x1="2074.7" y1="200.6" x2="2136.3" y2="200.6"/>
					<line class="st10" x1="2074.7" y1="209.1" x2="2136.3" y2="209.1"/>
					<line class="st10" x1="2074.7" y1="226.1" x2="2136.3" y2="226.1"/>
					<line class="st10" x1="2074.7" y1="234.6" x2="2136.3" y2="234.6"/>
					<line class="st10" x1="2074.7" y1="243.1" x2="2136.3" y2="243.1"/>
				</g>
			</g>
			<g>
				<g>
					<line class="st10" x1="1881" y1="247.5" x2="1841.8" y2="247.5"/>
					<line class="st10" x1="1881" y1="256" x2="1841.8" y2="256"/>
					<line class="st10" x1="1881" y1="264.5" x2="1841.8" y2="264.5"/>
					<line class="st10" x1="1881" y1="273" x2="1841.8" y2="273"/>
					<line class="st10" x1="1881" y1="281.5" x2="1841.8" y2="281.5"/>
					<line class="st10" x1="1881" y1="290" x2="1841.8" y2="290"/>
					<line class="st10" x1="1881" y1="298.5" x2="1841.8" y2="298.5"/>
					<line class="st10" x1="1881" y1="315.5" x2="1841.8" y2="315.5"/>
					<line class="st10" x1="1881" y1="307" x2="1841.8" y2="307"/>
					<line class="st10" x1="1881" y1="332.5" x2="1841.8" y2="332.5"/>
					<line class="st10" x1="1881" y1="324" x2="1841.8" y2="324"/>
				</g>
				<g>
					<line class="st10" x1="1892.3" y1="247.5" x2="1953.9" y2="247.5"/>
					<line class="st10" x1="1892.3" y1="256" x2="1953.9" y2="256"/>
					<line class="st10" x1="1892.3" y1="264.5" x2="1953.9" y2="264.5"/>
					<line class="st10" x1="1892.3" y1="273" x2="1953.9" y2="273"/>
					<line class="st10" x1="1892.3" y1="281.5" x2="1953.9" y2="281.5"/>
					<line class="st10" x1="1892.3" y1="290" x2="1953.9" y2="290"/>
					<line class="st10" x1="1892.3" y1="298.5" x2="1953.9" y2="298.5"/>
					<line class="st10" x1="1892.3" y1="315.5" x2="1953.9" y2="315.5"/>
					<line class="st10" x1="1892.3" y1="307" x2="1953.9" y2="307"/>
					<line class="st10" x1="1892.3" y1="332.5" x2="1953.9" y2="332.5"/>
					<line class="st10" x1="1892.3" y1="324" x2="1953.9" y2="324"/>
				</g>
				<g>
					<line class="st10" x1="1965.3" y1="247.5" x2="2026.9" y2="247.5"/>
					<line class="st10" x1="1965.3" y1="256" x2="2026.9" y2="256"/>
					<line class="st10" x1="1965.3" y1="264.5" x2="2026.9" y2="264.5"/>
					<line class="st10" x1="1965.3" y1="273" x2="2026.9" y2="273"/>
					<line class="st10" x1="1965.3" y1="281.5" x2="2026.9" y2="281.5"/>
					<line class="st10" x1="1965.3" y1="290" x2="2026.9" y2="290"/>
					<line class="st10" x1="1965.3" y1="298.5" x2="2026.9" y2="298.5"/>
					<line class="st10" x1="1965.3" y1="315.5" x2="2026.9" y2="315.5"/>
					<line class="st10" x1="1965.3" y1="307" x2="2026.9" y2="307"/>
					<line class="st10" x1="1965.3" y1="332.5" x2="2026.9" y2="332.5"/>
					<line class="st10" x1="1965.3" y1="324" x2="2026.9" y2="324"/>
				</g>
				<g>
					<line class="st10" x1="2038.2" y1="247.5" x2="2099.8" y2="247.5"/>
					<line class="st10" x1="2038.2" y1="256" x2="2099.8" y2="256"/>
					<line class="st10" x1="2038.2" y1="264.5" x2="2099.8" y2="264.5"/>
					<line class="st10" x1="2038.2" y1="273" x2="2099.8" y2="273"/>
					<line class="st10" x1="2038.2" y1="281.5" x2="2099.8" y2="281.5"/>
					<line class="st10" x1="2038.2" y1="290" x2="2099.8" y2="290"/>
					<line class="st10" x1="2038.2" y1="298.5" x2="2099.8" y2="298.5"/>
					<line class="st10" x1="2038.2" y1="315.5" x2="2099.8" y2="315.5"/>
					<line class="st10" x1="2038.2" y1="307" x2="2099.8" y2="307"/>
					<line class="st10" x1="2038.2" y1="332.5" x2="2099.8" y2="332.5"/>
					<line class="st10" x1="2038.2" y1="324" x2="2099.8" y2="324"/>
				</g>
				<g>
					<line class="st10" x1="2150.3" y1="247.5" x2="2111.2" y2="247.5"/>
					<line class="st10" x1="2150.3" y1="256" x2="2111.2" y2="256"/>
					<line class="st10" x1="2150.3" y1="264.5" x2="2111.2" y2="264.5"/>
					<line class="st10" x1="2150.3" y1="273" x2="2111.2" y2="273"/>
					<line class="st10" x1="2150.3" y1="281.5" x2="2111.2" y2="281.5"/>
					<line class="st10" x1="2150.3" y1="290" x2="2111.2" y2="290"/>
					<line class="st10" x1="2150.3" y1="298.5" x2="2111.2" y2="298.5"/>
					<line class="st10" x1="2150.3" y1="315.5" x2="2111.2" y2="315.5"/>
					<line class="st10" x1="2150.3" y1="307" x2="2111.2" y2="307"/>
					<line class="st10" x1="2150.3" y1="332.5" x2="2111.2" y2="332.5"/>
					<line class="st10" x1="2150.3" y1="324" x2="2111.2" y2="324"/>
				</g>
				<g>
					<line class="st10" x1="1855.8" y1="251.7" x2="1917.4" y2="251.7"/>
					<line class="st10" x1="1855.8" y1="260.2" x2="1917.4" y2="260.2"/>
					<line class="st10" x1="1855.8" y1="268.7" x2="1917.4" y2="268.7"/>
					<line class="st10" x1="1855.8" y1="277.3" x2="1917.4" y2="277.3"/>
					<line class="st10" x1="1855.8" y1="285.8" x2="1917.4" y2="285.8"/>
					<line class="st10" x1="1855.8" y1="302.8" x2="1917.4" y2="302.8"/>
					<line class="st10" x1="1855.8" y1="294.3" x2="1917.4" y2="294.3"/>
					<line class="st10" x1="1855.8" y1="319.8" x2="1917.4" y2="319.8"/>
					<line class="st10" x1="1855.8" y1="311.3" x2="1917.4" y2="311.3"/>
					<line class="st10" x1="1855.8" y1="328.3" x2="1917.4" y2="328.3"/>
				</g>
				<g>
					<line class="st10" x1="1928.8" y1="251.7" x2="1990.4" y2="251.7"/>
					<line class="st10" x1="1928.8" y1="260.2" x2="1990.4" y2="260.2"/>
					<line class="st10" x1="1928.8" y1="268.7" x2="1990.4" y2="268.7"/>
					<line class="st10" x1="1928.8" y1="277.3" x2="1990.4" y2="277.3"/>
					<line class="st10" x1="1928.8" y1="285.8" x2="1990.4" y2="285.8"/>
					<line class="st10" x1="1928.8" y1="302.8" x2="1990.4" y2="302.8"/>
					<line class="st10" x1="1928.8" y1="294.3" x2="1990.4" y2="294.3"/>
					<line class="st10" x1="1928.8" y1="319.8" x2="1990.4" y2="319.8"/>
					<line class="st10" x1="1928.8" y1="311.3" x2="1990.4" y2="311.3"/>
					<line class="st10" x1="1928.8" y1="328.3" x2="1990.4" y2="328.3"/>
				</g>
				<g>
					<line class="st10" x1="2001.7" y1="251.7" x2="2063.4" y2="251.7"/>
					<line class="st10" x1="2001.7" y1="260.2" x2="2063.4" y2="260.2"/>
					<line class="st10" x1="2001.7" y1="268.7" x2="2063.4" y2="268.7"/>
					<line class="st10" x1="2001.7" y1="277.3" x2="2063.4" y2="277.3"/>
					<line class="st10" x1="2001.7" y1="285.8" x2="2063.4" y2="285.8"/>
					<line class="st10" x1="2001.7" y1="302.8" x2="2063.4" y2="302.8"/>
					<line class="st10" x1="2001.7" y1="294.3" x2="2063.4" y2="294.3"/>
					<line class="st10" x1="2001.7" y1="319.8" x2="2063.4" y2="319.8"/>
					<line class="st10" x1="2001.7" y1="311.3" x2="2063.4" y2="311.3"/>
					<line class="st10" x1="2001.7" y1="328.3" x2="2063.4" y2="328.3"/>
				</g>
				<g>
					<line class="st10" x1="2074.7" y1="251.7" x2="2136.3" y2="251.7"/>
					<line class="st10" x1="2074.7" y1="260.2" x2="2136.3" y2="260.2"/>
					<line class="st10" x1="2074.7" y1="268.7" x2="2136.3" y2="268.7"/>
					<line class="st10" x1="2074.7" y1="277.3" x2="2136.3" y2="277.3"/>
					<line class="st10" x1="2074.7" y1="285.8" x2="2136.3" y2="285.8"/>
					<line class="st10" x1="2074.7" y1="302.8" x2="2136.3" y2="302.8"/>
					<line class="st10" x1="2074.7" y1="294.3" x2="2136.3" y2="294.3"/>
					<line class="st10" x1="2074.7" y1="319.8" x2="2136.3" y2="319.8"/>
					<line class="st10" x1="2074.7" y1="311.3" x2="2136.3" y2="311.3"/>
					<line class="st10" x1="2074.7" y1="328.3" x2="2136.3" y2="328.3"/>
				</g>
			</g>
		</g>
		<g>
			<g>
				<g>
					<line class="st10" x1="1881" y1="849.7" x2="1841.8" y2="849.7"/>
					<line class="st10" x1="1881" y1="866.8" x2="1841.8" y2="866.8"/>
					<line class="st10" x1="1881" y1="858.2" x2="1841.8" y2="858.2"/>
					<line class="st10" x1="1881" y1="883.8" x2="1841.8" y2="883.8"/>
					<line class="st10" x1="1881" y1="900.8" x2="1841.8" y2="900.8"/>
					<line class="st10" x1="1881" y1="875.3" x2="1841.8" y2="875.3"/>
					<line class="st10" x1="1881" y1="892.3" x2="1841.8" y2="892.3"/>
					<line class="st10" x1="1881" y1="909.3" x2="1841.8" y2="909.3"/>
					<line class="st10" x1="1881" y1="917.8" x2="1841.8" y2="917.8"/>
					<line class="st10" x1="1881" y1="926.3" x2="1841.8" y2="926.3"/>
				</g>
				<g>
					<line class="st10" x1="1892.3" y1="849.7" x2="1953.9" y2="849.7"/>
					<line class="st10" x1="1892.3" y1="866.8" x2="1953.9" y2="866.8"/>
					<line class="st10" x1="1892.3" y1="858.3" x2="1953.9" y2="858.3"/>
					<line class="st10" x1="1892.3" y1="883.8" x2="1953.9" y2="883.8"/>
					<line class="st10" x1="1892.3" y1="900.8" x2="1953.9" y2="900.8"/>
					<line class="st10" x1="1892.3" y1="875.3" x2="1953.9" y2="875.3"/>
					<line class="st10" x1="1892.3" y1="892.3" x2="1953.9" y2="892.3"/>
					<line class="st10" x1="1892.3" y1="909.3" x2="1953.9" y2="909.3"/>
					<line class="st10" x1="1892.3" y1="917.8" x2="1953.9" y2="917.8"/>
					<line class="st10" x1="1892.3" y1="926.3" x2="1953.9" y2="926.3"/>
				</g>
				<g>
					<line class="st10" x1="1965.3" y1="849.7" x2="2026.9" y2="849.7"/>
					<line class="st10" x1="1965.3" y1="866.8" x2="2026.9" y2="866.8"/>
					<line class="st10" x1="1965.3" y1="858.3" x2="2026.9" y2="858.3"/>
					<line class="st10" x1="1965.3" y1="883.8" x2="2026.9" y2="883.8"/>
					<line class="st10" x1="1965.3" y1="900.8" x2="2026.9" y2="900.8"/>
					<line class="st10" x1="1965.3" y1="875.3" x2="2026.9" y2="875.3"/>
					<line class="st10" x1="1965.3" y1="892.3" x2="2026.9" y2="892.3"/>
					<line class="st10" x1="1965.3" y1="909.3" x2="2026.9" y2="909.3"/>
					<line class="st10" x1="1965.3" y1="917.8" x2="2026.9" y2="917.8"/>
					<line class="st10" x1="1965.3" y1="926.3" x2="2026.9" y2="926.3"/>
				</g>
				<g>
					<line class="st10" x1="2038.2" y1="849.7" x2="2099.8" y2="849.7"/>
					<line class="st10" x1="2038.2" y1="866.8" x2="2099.8" y2="866.8"/>
					<line class="st10" x1="2038.2" y1="858.3" x2="2099.8" y2="858.3"/>
					<line class="st10" x1="2038.2" y1="883.8" x2="2099.8" y2="883.8"/>
					<line class="st10" x1="2038.2" y1="900.8" x2="2099.8" y2="900.8"/>
					<line class="st10" x1="2038.2" y1="875.3" x2="2099.8" y2="875.3"/>
					<line class="st10" x1="2038.2" y1="892.3" x2="2099.8" y2="892.3"/>
					<line class="st10" x1="2038.2" y1="909.3" x2="2099.8" y2="909.3"/>
					<line class="st10" x1="2038.2" y1="917.8" x2="2099.8" y2="917.8"/>
					<line class="st10" x1="2038.2" y1="926.3" x2="2099.8" y2="926.3"/>
				</g>
				<g>
					<line class="st10" x1="2150.3" y1="849.7" x2="2111.2" y2="849.7"/>
					<line class="st10" x1="2150.3" y1="866.8" x2="2111.2" y2="866.8"/>
					<line class="st10" x1="2150.3" y1="858.2" x2="2111.2" y2="858.2"/>
					<line class="st10" x1="2150.3" y1="883.8" x2="2111.2" y2="883.8"/>
					<line class="st10" x1="2150.3" y1="900.8" x2="2111.2" y2="900.8"/>
					<line class="st10" x1="2150.3" y1="875.3" x2="2111.2" y2="875.3"/>
					<line class="st10" x1="2150.3" y1="892.3" x2="2111.2" y2="892.3"/>
					<line class="st10" x1="2150.3" y1="909.3" x2="2111.2" y2="909.3"/>
					<line class="st10" x1="2150.3" y1="917.8" x2="2111.2" y2="917.8"/>
					<line class="st10" x1="2150.3" y1="926.3" x2="2111.2" y2="926.3"/>
				</g>
				<g>
					<line class="st10" x1="1855.8" y1="854" x2="1917.4" y2="854"/>
					<line class="st10" x1="1855.8" y1="845.5" x2="1917.4" y2="845.5"/>
					<line class="st10" x1="1855.8" y1="871" x2="1917.4" y2="871"/>
					<line class="st10" x1="1855.8" y1="862.5" x2="1917.4" y2="862.5"/>
					<line class="st10" x1="1855.8" y1="879.5" x2="1917.4" y2="879.5"/>
					<line class="st10" x1="1855.8" y1="905" x2="1917.4" y2="905"/>
					<line class="st10" x1="1855.8" y1="888" x2="1917.4" y2="888"/>
					<line class="st10" x1="1855.8" y1="896.5" x2="1917.4" y2="896.5"/>
					<line class="st10" x1="1855.8" y1="913.5" x2="1917.4" y2="913.5"/>
					<line class="st10" x1="1855.8" y1="922" x2="1917.4" y2="922"/>
					<line class="st10" x1="1855.8" y1="930.5" x2="1917.4" y2="930.5"/>
				</g>
				<g>
					<line class="st10" x1="1928.8" y1="854" x2="1990.4" y2="854"/>
					<line class="st10" x1="1928.8" y1="845.5" x2="1990.4" y2="845.5"/>
					<line class="st10" x1="1928.8" y1="871" x2="1990.4" y2="871"/>
					<line class="st10" x1="1928.8" y1="862.5" x2="1990.4" y2="862.5"/>
					<line class="st10" x1="1928.8" y1="879.5" x2="1990.4" y2="879.5"/>
					<line class="st10" x1="1928.8" y1="905" x2="1990.4" y2="905"/>
					<line class="st10" x1="1928.8" y1="888" x2="1990.4" y2="888"/>
					<line class="st10" x1="1928.8" y1="896.5" x2="1990.4" y2="896.5"/>
					<line class="st10" x1="1928.8" y1="913.5" x2="1990.4" y2="913.5"/>
					<line class="st10" x1="1928.8" y1="922" x2="1990.4" y2="922"/>
					<line class="st10" x1="1928.8" y1="930.5" x2="1990.4" y2="930.5"/>
				</g>
				<g>
					<line class="st10" x1="2001.7" y1="854" x2="2063.4" y2="854"/>
					<line class="st10" x1="2001.7" y1="845.5" x2="2063.4" y2="845.5"/>
					<line class="st10" x1="2001.7" y1="871" x2="2063.4" y2="871"/>
					<line class="st10" x1="2001.7" y1="862.5" x2="2063.4" y2="862.5"/>
					<line class="st10" x1="2001.7" y1="879.5" x2="2063.4" y2="879.5"/>
					<line class="st10" x1="2001.7" y1="905" x2="2063.4" y2="905"/>
					<line class="st10" x1="2001.7" y1="888" x2="2063.4" y2="888"/>
					<line class="st10" x1="2001.7" y1="896.5" x2="2063.4" y2="896.5"/>
					<line class="st10" x1="2001.7" y1="913.5" x2="2063.4" y2="913.5"/>
					<line class="st10" x1="2001.7" y1="922" x2="2063.4" y2="922"/>
					<line class="st10" x1="2001.7" y1="930.5" x2="2063.4" y2="930.5"/>
				</g>
				<g>
					<line class="st10" x1="2074.7" y1="854" x2="2136.3" y2="854"/>
					<line class="st10" x1="2074.7" y1="845.5" x2="2136.3" y2="845.5"/>
					<line class="st10" x1="2074.7" y1="871" x2="2136.3" y2="871"/>
					<line class="st10" x1="2074.7" y1="862.5" x2="2136.3" y2="862.5"/>
					<line class="st10" x1="2074.7" y1="879.5" x2="2136.3" y2="879.5"/>
					<line class="st10" x1="2074.7" y1="905" x2="2136.3" y2="905"/>
					<line class="st10" x1="2074.7" y1="888" x2="2136.3" y2="888"/>
					<line class="st10" x1="2074.7" y1="896.5" x2="2136.3" y2="896.5"/>
					<line class="st10" x1="2074.7" y1="913.5" x2="2136.3" y2="913.5"/>
					<line class="st10" x1="2074.7" y1="922" x2="2136.3" y2="922"/>
					<line class="st10" x1="2074.7" y1="930.5" x2="2136.3" y2="930.5"/>
				</g>
			</g>
			<g>
				<g>
					<line class="st10" x1="1881" y1="934.9" x2="1841.8" y2="934.9"/>
					<line class="st10" x1="1881" y1="943.4" x2="1841.8" y2="943.4"/>
					<line class="st10" x1="1881" y1="951.9" x2="1841.8" y2="951.9"/>
					<line class="st10" x1="1881" y1="960.4" x2="1841.8" y2="960.4"/>
					<line class="st10" x1="1881" y1="968.9" x2="1841.8" y2="968.9"/>
					<line class="st10" x1="1881" y1="977.4" x2="1841.8" y2="977.4"/>
					<line class="st10" x1="1881" y1="985.9" x2="1841.8" y2="985.9"/>
					<line class="st10" x1="1881" y1="1002.9" x2="1841.8" y2="1002.9"/>
					<line class="st10" x1="1881" y1="994.4" x2="1841.8" y2="994.4"/>
					<line class="st10" x1="1881" y1="1019.9" x2="1841.8" y2="1019.9"/>
					<line class="st10" x1="1881" y1="1036.9" x2="1841.8" y2="1036.9"/>
					<line class="st10" x1="1881" y1="1011.4" x2="1841.8" y2="1011.4"/>
					<line class="st10" x1="1881" y1="1028.4" x2="1841.8" y2="1028.4"/>
					<line class="st10" x1="1881" y1="1045.4" x2="1841.8" y2="1045.4"/>
					<line class="st10" x1="1881" y1="1053.9" x2="1841.8" y2="1053.9"/>
					<line class="st10" x1="1881" y1="1062.4" x2="1841.8" y2="1062.4"/>
				</g>
				<g>
					<line class="st10" x1="1892.3" y1="934.9" x2="1953.9" y2="934.9"/>
					<line class="st10" x1="1892.3" y1="943.4" x2="1953.9" y2="943.4"/>
					<line class="st10" x1="1892.3" y1="951.9" x2="1953.9" y2="951.9"/>
					<line class="st10" x1="1892.3" y1="960.4" x2="1953.9" y2="960.4"/>
					<line class="st10" x1="1892.3" y1="968.9" x2="1953.9" y2="968.9"/>
					<line class="st10" x1="1892.3" y1="977.4" x2="1953.9" y2="977.4"/>
					<line class="st10" x1="1892.3" y1="985.9" x2="1953.9" y2="985.9"/>
					<line class="st10" x1="1892.3" y1="1002.9" x2="1953.9" y2="1002.9"/>
					<line class="st10" x1="1892.3" y1="994.4" x2="1953.9" y2="994.4"/>
					<line class="st10" x1="1892.3" y1="1019.9" x2="1953.9" y2="1019.9"/>
					<line class="st10" x1="1892.3" y1="1036.9" x2="1953.9" y2="1036.9"/>
					<line class="st10" x1="1892.3" y1="1011.4" x2="1953.9" y2="1011.4"/>
					<line class="st10" x1="1892.3" y1="1028.4" x2="1953.9" y2="1028.4"/>
					<line class="st10" x1="1892.3" y1="1045.4" x2="1953.9" y2="1045.4"/>
					<line class="st10" x1="1892.3" y1="1053.9" x2="1953.9" y2="1053.9"/>
					<line class="st10" x1="1892.3" y1="1062.4" x2="1953.9" y2="1062.4"/>
				</g>
				<g>
					<line class="st10" x1="1965.3" y1="934.9" x2="2026.9" y2="934.9"/>
					<line class="st10" x1="1965.3" y1="943.4" x2="2026.9" y2="943.4"/>
					<line class="st10" x1="1965.3" y1="951.9" x2="2026.9" y2="951.9"/>
					<line class="st10" x1="1965.3" y1="960.4" x2="2026.9" y2="960.4"/>
					<line class="st10" x1="1965.3" y1="968.9" x2="2026.9" y2="968.9"/>
					<line class="st10" x1="1965.3" y1="977.4" x2="2026.9" y2="977.4"/>
					<line class="st10" x1="1965.3" y1="985.9" x2="2026.9" y2="985.9"/>
					<line class="st10" x1="1965.3" y1="1002.9" x2="2026.9" y2="1002.9"/>
					<line class="st10" x1="1965.3" y1="994.4" x2="2026.9" y2="994.4"/>
					<line class="st10" x1="1965.3" y1="1019.9" x2="2026.9" y2="1019.9"/>
					<line class="st10" x1="1965.3" y1="1036.9" x2="2026.9" y2="1036.9"/>
					<line class="st10" x1="1965.3" y1="1011.4" x2="2026.9" y2="1011.4"/>
					<line class="st10" x1="1965.3" y1="1028.4" x2="2026.9" y2="1028.4"/>
					<line class="st10" x1="1965.3" y1="1045.4" x2="2026.9" y2="1045.4"/>
					<line class="st10" x1="1965.3" y1="1053.9" x2="2026.9" y2="1053.9"/>
					<line class="st10" x1="1965.3" y1="1062.4" x2="2026.9" y2="1062.4"/>
				</g>
				<g>
					<line class="st10" x1="2038.2" y1="934.9" x2="2099.8" y2="934.9"/>
					<line class="st10" x1="2038.2" y1="943.4" x2="2099.8" y2="943.4"/>
					<line class="st10" x1="2038.2" y1="951.9" x2="2099.8" y2="951.9"/>
					<line class="st10" x1="2038.2" y1="960.4" x2="2099.8" y2="960.4"/>
					<line class="st10" x1="2038.2" y1="968.9" x2="2099.8" y2="968.9"/>
					<line class="st10" x1="2038.2" y1="977.4" x2="2099.8" y2="977.4"/>
					<line class="st10" x1="2038.2" y1="985.9" x2="2099.8" y2="985.9"/>
					<line class="st10" x1="2038.2" y1="1002.9" x2="2099.8" y2="1002.9"/>
					<line class="st10" x1="2038.2" y1="994.4" x2="2099.8" y2="994.4"/>
					<line class="st10" x1="2038.2" y1="1019.9" x2="2099.8" y2="1019.9"/>
					<line class="st10" x1="2038.2" y1="1036.9" x2="2099.8" y2="1036.9"/>
					<line class="st10" x1="2038.2" y1="1011.4" x2="2099.8" y2="1011.4"/>
					<line class="st10" x1="2038.2" y1="1028.4" x2="2099.8" y2="1028.4"/>
					<line class="st10" x1="2038.2" y1="1045.4" x2="2099.8" y2="1045.4"/>
					<line class="st10" x1="2038.2" y1="1053.9" x2="2099.8" y2="1053.9"/>
					<line class="st10" x1="2038.2" y1="1062.4" x2="2099.8" y2="1062.4"/>
				</g>
				<g>
					<line class="st10" x1="2150.3" y1="934.9" x2="2111.2" y2="934.9"/>
					<line class="st10" x1="2150.3" y1="943.4" x2="2111.2" y2="943.4"/>
					<line class="st10" x1="2150.3" y1="951.9" x2="2111.2" y2="951.9"/>
					<line class="st10" x1="2150.3" y1="960.4" x2="2111.2" y2="960.4"/>
					<line class="st10" x1="2150.3" y1="968.9" x2="2111.2" y2="968.9"/>
					<line class="st10" x1="2150.3" y1="977.4" x2="2111.2" y2="977.4"/>
					<line class="st10" x1="2150.3" y1="985.9" x2="2111.2" y2="985.9"/>
					<line class="st10" x1="2150.3" y1="1002.9" x2="2111.2" y2="1002.9"/>
					<line class="st10" x1="2150.3" y1="994.4" x2="2111.2" y2="994.4"/>
					<line class="st10" x1="2150.3" y1="1019.9" x2="2111.2" y2="1019.9"/>
					<line class="st10" x1="2150.3" y1="1036.9" x2="2111.2" y2="1036.9"/>
					<line class="st10" x1="2150.3" y1="1011.4" x2="2111.2" y2="1011.4"/>
					<line class="st10" x1="2150.3" y1="1028.4" x2="2111.2" y2="1028.4"/>
					<line class="st10" x1="2150.3" y1="1045.4" x2="2111.2" y2="1045.4"/>
					<line class="st10" x1="2150.3" y1="1053.9" x2="2111.2" y2="1053.9"/>
					<line class="st10" x1="2150.3" y1="1062.4" x2="2111.2" y2="1062.4"/>
				</g>
				<g>
					<line class="st10" x1="1855.8" y1="939.1" x2="1917.4" y2="939.1"/>
					<line class="st10" x1="1855.8" y1="947.6" x2="1917.4" y2="947.6"/>
					<line class="st10" x1="1855.8" y1="956.1" x2="1917.4" y2="956.1"/>
					<line class="st10" x1="1855.8" y1="964.6" x2="1917.4" y2="964.6"/>
					<line class="st10" x1="1855.8" y1="973.1" x2="1917.4" y2="973.1"/>
					<line class="st10" x1="1855.8" y1="990.2" x2="1917.4" y2="990.2"/>
					<line class="st10" x1="1855.8" y1="981.7" x2="1917.4" y2="981.7"/>
					<line class="st10" x1="1855.8" y1="1007.2" x2="1917.4" y2="1007.2"/>
					<line class="st10" x1="1855.8" y1="998.7" x2="1917.4" y2="998.7"/>
					<line class="st10" x1="1855.8" y1="1015.7" x2="1917.4" y2="1015.7"/>
					<line class="st10" x1="1855.8" y1="1041.2" x2="1917.4" y2="1041.2"/>
					<line class="st10" x1="1855.8" y1="1024.2" x2="1917.4" y2="1024.2"/>
					<line class="st10" x1="1855.8" y1="1032.7" x2="1917.4" y2="1032.7"/>
					<line class="st10" x1="1855.8" y1="1049.7" x2="1917.4" y2="1049.7"/>
					<line class="st10" x1="1855.8" y1="1058.2" x2="1917.4" y2="1058.2"/>
					<line class="st10" x1="1855.8" y1="1066.7" x2="1917.4" y2="1066.7"/>
				</g>
				<g>
					<line class="st10" x1="1928.8" y1="939.1" x2="1990.4" y2="939.1"/>
					<line class="st10" x1="1928.8" y1="947.6" x2="1990.4" y2="947.6"/>
					<line class="st10" x1="1928.8" y1="956.1" x2="1990.4" y2="956.1"/>
					<line class="st10" x1="1928.8" y1="964.6" x2="1990.4" y2="964.6"/>
					<line class="st10" x1="1928.8" y1="973.1" x2="1990.4" y2="973.1"/>
					<line class="st10" x1="1928.8" y1="990.2" x2="1990.4" y2="990.2"/>
					<line class="st10" x1="1928.8" y1="981.6" x2="1990.4" y2="981.6"/>
					<line class="st10" x1="1928.8" y1="1007.2" x2="1990.4" y2="1007.2"/>
					<line class="st10" x1="1928.8" y1="998.7" x2="1990.4" y2="998.7"/>
					<line class="st10" x1="1928.8" y1="1015.7" x2="1990.4" y2="1015.7"/>
					<line class="st10" x1="1928.8" y1="1041.2" x2="1990.4" y2="1041.2"/>
					<line class="st10" x1="1928.8" y1="1024.2" x2="1990.4" y2="1024.2"/>
					<line class="st10" x1="1928.8" y1="1032.7" x2="1990.4" y2="1032.7"/>
					<line class="st10" x1="1928.8" y1="1049.7" x2="1990.4" y2="1049.7"/>
					<line class="st10" x1="1928.8" y1="1058.2" x2="1990.4" y2="1058.2"/>
					<line class="st10" x1="1928.8" y1="1066.7" x2="1990.4" y2="1066.7"/>
				</g>
				<g>
					<line class="st10" x1="2001.7" y1="939.1" x2="2063.4" y2="939.1"/>
					<line class="st10" x1="2001.7" y1="947.6" x2="2063.4" y2="947.6"/>
					<line class="st10" x1="2001.7" y1="956.1" x2="2063.4" y2="956.1"/>
					<line class="st10" x1="2001.7" y1="964.6" x2="2063.4" y2="964.6"/>
					<line class="st10" x1="2001.7" y1="973.1" x2="2063.4" y2="973.1"/>
					<line class="st10" x1="2001.7" y1="990.2" x2="2063.4" y2="990.2"/>
					<line class="st10" x1="2001.7" y1="981.6" x2="2063.4" y2="981.6"/>
					<line class="st10" x1="2001.7" y1="1007.2" x2="2063.4" y2="1007.2"/>
					<line class="st10" x1="2001.7" y1="998.7" x2="2063.4" y2="998.7"/>
					<line class="st10" x1="2001.7" y1="1015.7" x2="2063.4" y2="1015.7"/>
					<line class="st10" x1="2001.7" y1="1041.2" x2="2063.4" y2="1041.2"/>
					<line class="st10" x1="2001.7" y1="1024.2" x2="2063.4" y2="1024.2"/>
					<line class="st10" x1="2001.7" y1="1032.7" x2="2063.4" y2="1032.7"/>
					<line class="st10" x1="2001.7" y1="1049.7" x2="2063.4" y2="1049.7"/>
					<line class="st10" x1="2001.7" y1="1058.2" x2="2063.4" y2="1058.2"/>
					<line class="st10" x1="2001.7" y1="1066.7" x2="2063.4" y2="1066.7"/>
				</g>
				<g>
					<line class="st10" x1="2074.7" y1="939.1" x2="2136.3" y2="939.1"/>
					<line class="st10" x1="2074.7" y1="947.6" x2="2136.3" y2="947.6"/>
					<line class="st10" x1="2074.7" y1="956.1" x2="2136.3" y2="956.1"/>
					<line class="st10" x1="2074.7" y1="964.6" x2="2136.3" y2="964.6"/>
					<line class="st10" x1="2074.7" y1="973.1" x2="2136.3" y2="973.1"/>
					<line class="st10" x1="2074.7" y1="990.2" x2="2136.3" y2="990.2"/>
					<line class="st10" x1="2074.7" y1="981.6" x2="2136.3" y2="981.6"/>
					<line class="st10" x1="2074.7" y1="1007.2" x2="2136.3" y2="1007.2"/>
					<line class="st10" x1="2074.7" y1="998.7" x2="2136.3" y2="998.7"/>
					<line class="st10" x1="2074.7" y1="1015.7" x2="2136.3" y2="1015.7"/>
					<line class="st10" x1="2074.7" y1="1041.2" x2="2136.3" y2="1041.2"/>
					<line class="st10" x1="2074.7" y1="1024.2" x2="2136.3" y2="1024.2"/>
					<line class="st10" x1="2074.7" y1="1032.7" x2="2136.3" y2="1032.7"/>
					<line class="st10" x1="2074.7" y1="1049.7" x2="2136.3" y2="1049.7"/>
					<line class="st10" x1="2074.7" y1="1058.2" x2="2136.3" y2="1058.2"/>
					<line class="st10" x1="2074.7" y1="1066.7" x2="2136.3" y2="1066.7"/>
				</g>
			</g>
		</g>
	</g>
</g>
<g>
	<path d="M1380.7,1229.1c-3.6-2-7.6-3-12-3c-1.7,0-3.6,0.2-5.5,0.7c-1.9,0.5-3.5,1.1-4.8,1.8l1.9-14.5h24.8c1.6,0,2.9-0.5,4-1.5
		c1.1-1,1.6-2.3,1.6-3.9c0-1.6-0.5-2.9-1.6-4c-1.1-1.1-2.4-1.6-4-1.6h-28.9c-1.5,0-2.9,0.5-4,1.3c-1.1,0.9-1.8,2.1-2,3.5l-3.1,24.8
		c-0.1,0.3-0.1,0.7-0.1,1.4c0,1.9,0.6,3.6,1.7,5c1.1,1.4,2.9,2.1,5.5,2.1c0.7,0,1.5-0.1,2.1-0.4c0.7-0.3,1.6-0.7,2.9-1.3
		c1.7-0.8,3.1-1.4,4.3-1.8c1.2-0.4,2.6-0.6,4.1-0.6c3.4,0,6.3,1.1,8.8,3.4c2.5,2.3,3.7,5.2,3.7,8.8c0,2.5-0.7,4.8-2.1,6.9
		c-1.4,2.1-3.4,3.8-5.8,5.1c-2.4,1.3-5,1.9-7.7,1.9c-2.1,0-4.6-0.9-7.4-2.6c-1.8-1.3-3.3-1.9-4.5-1.9c-1.7,0-3,0.5-4,1.5
		c-1,1-1.6,2-1.6,3.2c0,1.1,0.3,2.2,0.8,3.4c0.5,1.2,1.2,2.1,2,2.8c1.7,1.4,4,2.5,6.8,3.3c2.8,0.8,5.4,1.2,8,1.2
		c4.9,0,9.4-1.1,13.6-3.3c4.2-2.2,7.6-5.2,10.1-9.1c2.5-3.8,3.8-7.9,3.8-12.4c0-4.3-1-8.3-3-11.8
		C1387.1,1233.9,1384.3,1231.1,1380.7,1229.1z"/>
	<path d="M1467.4,1218.5c-3.9,0-7.5,1.1-10.6,3.4c-3.1,2.3-5.4,4.8-6.9,7.6c-2.3-7.3-7.7-11-16.1-11c-3.4,0-6.5,0.8-9.2,2.5
		c-2.8,1.7-5.1,3.8-6.9,6.2v-1.6c0-1.7-0.6-3.2-1.7-4.3c-1.1-1.2-2.6-1.8-4.3-1.8c-1.7,0-3.2,0.6-4.3,1.8c-1.1,1.2-1.7,2.6-1.7,4.3
		v41.3c0,1.7,0.6,3.2,1.7,4.3c1.1,1.2,2.6,1.8,4.3,1.8c1.7,0,3.2-0.6,4.3-1.8c1.1-1.2,1.7-2.6,1.7-4.3v-25.6c0-3.4,1-6.2,3.1-8.5
		c2.1-2.2,5-3.3,8.8-3.3c3.6,0,6.1,1,7.6,3.2c1.4,2.1,2.1,5,2.1,8.6v25.6c0,1.7,0.6,3.2,1.7,4.3c1.1,1.2,2.6,1.8,4.3,1.8
		c1.7,0,3.2-0.6,4.3-1.8c1.1-1.2,1.7-2.6,1.7-4.3v-25.6c0-3.4,1-6.2,3.1-8.5c2.1-2.2,5-3.3,8.8-3.3c3.6,0,6.1,1,7.5,3.2
		c1.4,2.1,2.2,5,2.2,8.6v25.6c0,1.7,0.6,3.2,1.7,4.3c1.1,1.2,2.6,1.8,4.3,1.8c1.7,0,3.2-0.6,4.3-1.8c1.1-1.2,1.7-2.6,1.7-4.3v-25.6
		c0-7.1-1.3-12.7-3.8-16.8C1478.5,1220.5,1474,1218.5,1467.4,1218.5z"/>
	<path d="M1573.3,1224.6c-2.5-4-7.1-6-13.7-6c-3.9,0-7.5,1.1-10.6,3.4c-3.1,2.3-5.4,4.8-6.9,7.6c-2.3-7.3-7.7-11-16.1-11
		c-3.4,0-6.5,0.8-9.2,2.5c-2.8,1.7-5.1,3.8-6.9,6.2v-1.6c0-1.7-0.6-3.2-1.7-4.3c-1.1-1.2-2.6-1.8-4.3-1.8c-1.7,0-3.2,0.6-4.3,1.8
		c-1.1,1.2-1.7,2.6-1.7,4.3v41.3c0,1.7,0.6,3.2,1.7,4.3c1.1,1.2,2.6,1.8,4.3,1.8c1.7,0,3.2-0.6,4.3-1.8c1.1-1.2,1.7-2.6,1.7-4.3
		v-25.6c0-3.4,1-6.2,3.1-8.5c2.1-2.2,5-3.3,8.8-3.3c3.6,0,6.1,1,7.6,3.2c1.4,2.1,2.1,5,2.1,8.6v25.6c0,1.7,0.6,3.2,1.7,4.3
		c1.1,1.2,2.6,1.8,4.3,1.8c1.7,0,3.2-0.6,4.3-1.8c1.1-1.2,1.7-2.6,1.7-4.3v-25.6c0-3.4,1-6.2,3.1-8.5c2.1-2.2,5-3.3,8.8-3.3
		c3.6,0,6.1,1,7.5,3.2c1.4,2.1,2.2,5,2.2,8.6v25.6c0,1.7,0.6,3.2,1.7,4.3c1.1,1.2,2.6,1.8,4.3,1.8c1.7,0,3.2-0.6,4.3-1.8
		c1.1-1.2,1.7-2.6,1.7-4.3v-25.6C1577.1,1234.2,1575.8,1228.6,1573.3,1224.6z"/>
</g>

<text transform="matrix(1 0 0 1 885.7949 435.7202)" class="st6 st7">asdeawe</text>

</svg>
