<svg version="1.1" id="Layer_1" xmlns="http://www.w3.org/2000/svg" xmlns:xlink="http://www.w3.org/1999/xlink" x="0px" y="0px"
  viewBox="0 0 1609 1175.8" style="enable-background:new 0 0 1609 1175.8;" xml:space="preserve">
<style type="text/css">
 .st0{fill:#E2D6C7;}
 .st1{fill:#161515;}
 .st2{font-family:'Pacifico-Regular';}
 .st3{font-size:23px;}
 .st4{fill:none;stroke:#00FF00;stroke-width:0.3;stroke-miterlimit:10;}
 .st5{fill:#606060;}
 .st6{fill:#9B6E4F;}
 .st7{fill:#E2D6C7;stroke:#E2D6C7;stroke-width:1.34;stroke-linecap:round;stroke-linejoin:round;stroke-miterlimit:10;}
 .st8{font-family:'Kiss Me or Not';}
 .st9{font-size:130px;}
 .st10{fill:#ABDDBA;}
 .st11{font-size:69px;}
</style>

<text transform="matrix(1 0 0 1 20 1300)" class="st8 st11">Font: #1</text>
<g transform="matrix(1 0 0 1 30 1090)"><g>
    <path d="M51.3,65.1H30.9l12.6-13.4c3.6-3.9,6.5-8,8.7-12.2c2.1-4.3,3.2-8.4,3.2-12.4c0-4.1-0.9-7.8-2.7-11
      c-1.8-3.2-4.3-5.8-7.6-7.6C41.8,6.7,38,5.7,33.6,5.7c-3,0-6.2,0.8-9.5,2.3s-6.2,3.5-8.7,6c-1.3,1.3-2.3,2.5-3,3.5s-1,2-1,3
      c0,1.4,0.6,2.6,1.8,3.8c1.2,1.1,2.6,1.7,4,1.7c1.8,0,3.4-0.8,4.6-2.4c1.6-2.1,3.3-3.8,5.3-5.1c1.9-1.3,3.9-1.9,5.8-1.9
      c2.8,0,5.2,1.1,7.3,3.3c2.1,2.2,3.2,4.8,3.2,7.7c0,2.2-0.7,4.7-2.1,7.4c-1.4,2.7-3.4,5.3-5.8,8L13.9,66.1c-1.2,1.3-1.8,2.7-1.8,4.4
      c0,1.7,0.5,3,1.5,4.1s2.3,1.6,4.1,1.6h33.7c1.6,0,2.9-0.5,4-1.5s1.6-2.3,1.6-3.8c0-1.6-0.5-2.9-1.6-4
      C54.2,65.6,52.8,65.1,51.3,65.1z"/>
    <path d="M98.8,32.5c-3.5-2-7.5-3-11.8-3c-1.7,0-3.5,0.2-5.4,0.7s-3.5,1.1-4.8,1.8l1.9-14.4h24.5c1.6,0,2.9-0.5,4-1.5
      s1.6-2.3,1.6-3.8c0-1.6-0.5-2.9-1.6-4s-2.4-1.6-4-1.6H74.6c-1.5,0-2.8,0.4-3.9,1.3s-1.8,2-2,3.4L65.6,36c-0.1,0.3-0.1,0.7-0.1,1.4
      c0,1.9,0.5,3.6,1.6,4.9s2.9,2.1,5.5,2.1c0.7,0,1.4-0.1,2.1-0.4s1.6-0.7,2.8-1.3c1.6-0.8,3.1-1.4,4.3-1.8s2.5-0.6,4.1-0.6
      c3.4,0,6.3,1.1,8.7,3.4c2.4,2.2,3.7,5.1,3.7,8.7c0,2.4-0.7,4.7-2.1,6.8c-1.4,2.1-3.3,3.8-5.7,5c-2.4,1.3-4.9,1.9-7.6,1.9
      c-2.1,0-4.6-0.9-7.3-2.6c-1.8-1.3-3.3-1.9-4.5-1.9c-1.7,0-3,0.5-4,1.4c-1,1-1.5,2-1.5,3.2c0,1.1,0.3,2.2,0.8,3.4
      c0.5,1.2,1.2,2.1,2,2.8c1.7,1.4,3.9,2.5,6.7,3.3c2.7,0.8,5.4,1.2,8,1.2c4.8,0,9.3-1.1,13.5-3.3c4.2-2.2,7.5-5.2,10-9
      c2.5-3.8,3.8-7.9,3.8-12.3c0-4.3-1-8.2-3-11.7C105.1,37.3,102.4,34.5,98.8,32.5z"/>
    <path d="M156.2,32.5c-3.5-2-7.5-3-11.8-3c-1.7,0-3.5,0.2-5.4,0.7s-3.5,1.1-4.8,1.8l1.9-14.4h24.6c1.6,0,2.9-0.5,4-1.5
      s1.6-2.3,1.6-3.8c0-1.6-0.5-2.9-1.6-4s-2.4-1.6-4-1.6h-28.6c-1.5,0-2.8,0.4-3.9,1.3s-1.8,2-2,3.4L123.1,36
      c-0.1,0.3-0.1,0.7-0.1,1.4c0,1.9,0.5,3.6,1.6,4.9c1.1,1.4,2.9,2.1,5.5,2.1c0.7,0,1.4-0.1,2.1-0.4c0.7-0.3,1.6-0.7,2.8-1.3
      c1.6-0.8,3.1-1.4,4.3-1.8s2.5-0.6,4.1-0.6c3.4,0,6.3,1.1,8.7,3.4c2.4,2.2,3.7,5.1,3.7,8.7c0,2.4-0.7,4.7-2.1,6.8
      c-1.4,2.1-3.3,3.8-5.7,5c-2.4,1.3-4.9,1.9-7.6,1.9c-2.1,0-4.6-0.9-7.3-2.6c-1.8-1.3-3.3-1.9-4.5-1.9c-1.7,0-3,0.5-4,1.4
      c-1,1-1.5,2-1.5,3.2c0,1.1,0.3,2.2,0.8,3.4c0.5,1.2,1.2,2.1,2,2.8c1.7,1.4,3.9,2.5,6.7,3.3c2.7,0.8,5.4,1.2,8,1.2
      c4.8,0,9.3-1.1,13.5-3.3c4.2-2.2,7.5-5.2,10-9c2.5-3.8,3.8-7.9,3.8-12.3c0-4.3-1-8.2-3-11.7C162.5,37.3,159.7,34.5,156.2,32.5z"/>
    <path d="M197.2,6.7c-1.7,0-3.1,0.3-4.3,0.9L178,16.5c-0.9,0.5-1.7,1.3-2.2,2.2c-0.6,0.9-0.8,1.9-0.8,3c0,1.5,0.6,2.9,1.7,4.2
      c1.2,1.3,2.6,1.9,4.2,1.9c1.1,0,2.2-0.3,3.2-0.9l6.1-3.8V70c0,1.7,0.6,3.2,1.8,4.3c1.2,1.2,2.7,1.7,4.6,1.7c1.8,0,3.4-0.6,4.7-1.7
      c1.3-1.2,1.9-2.6,1.9-4.3V12.8c0-1.7-0.6-3.2-1.7-4.3C200.2,7.3,198.8,6.7,197.2,6.7z"/>
    <path d="M266.4,39.8h-17.2c-1.7,0-3.2,0.6-4.3,1.7c-1.2,1.1-1.7,2.5-1.7,4.2s0.6,3.1,1.7,4.3c1.2,1.1,2.6,1.7,4.3,1.7h17.2
      c1.7,0,3.2-0.5,4.3-1.6c1.2-1.1,1.7-2.5,1.7-4.1c0-1.7-0.6-3.2-1.7-4.3C269.5,40.3,268.1,39.8,266.4,39.8z"/>
    <path d="M372.6,6.6c-0.9,0-1.8,0.2-2.7,0.7c-0.9,0.5-1.6,1.1-2.1,1.9l-22.2,33.2L324,9.2c-0.5-0.8-1.3-1.4-2.3-1.9s-2-0.7-3-0.7
      c-1.7,0-3.2,0.6-4.4,1.8c-1.2,1.2-1.8,2.6-1.8,4.3V70c0,1.7,0.5,3.2,1.6,4.3c1.1,1.2,2.4,1.7,4.1,1.7s3.1-0.6,4.2-1.7
      s1.6-2.6,1.6-4.4V29.1l16.3,25.8c0.7,0.8,1.4,1.4,2.3,1.9s1.7,0.7,2.6,0.6c0.9,0.1,1.8-0.1,2.7-0.6c0.9-0.5,1.6-1.1,2.3-1.9
      L366.5,30v39.9c0,1.8,0.6,3.2,1.7,4.4c1.2,1.1,2.7,1.7,4.5,1.7s3.3-0.6,4.5-1.7c1.1-1.2,1.7-2.6,1.7-4.3V12.7
      c0-1.7-0.6-3.2-1.8-4.3C375.7,7.2,374.3,6.6,372.6,6.6z"/>
    <path d="M397.9,4.8c-2.2,0-3.8,0.4-4.8,1.1s-1.5,2-1.5,3.9v1.9c0,1.8,0.5,3.1,1.4,3.9c0.9,0.7,2.5,1.1,4.8,1.1s3.9-0.3,4.9-1
      c1-0.7,1.4-2,1.4-3.9V9.9c0-1.8-0.5-3.1-1.4-3.9C401.8,5.2,400.2,4.8,397.9,4.8z"/>
    <path d="M397.9,23c-1.7,0-3.1,0.6-4.3,1.7c-1.1,1.2-1.7,2.6-1.7,4.3v40.9c0,1.7,0.6,3.2,1.7,4.3c1.1,1.2,2.5,1.7,4.3,1.7
      c1.7,0,3.1-0.6,4.3-1.7c1.1-1.2,1.7-2.6,1.7-4.3V29.1c0-1.7-0.6-3.2-1.7-4.3C401,23.6,399.6,23,397.9,23z"/>
    <path d="M444.3,22c-3.4,0-6.6,0.9-9.5,2.6s-5.2,3.8-7,6.1v-1.6c0-1.7-0.6-3.2-1.7-4.3c-1.1-1.2-2.5-1.7-4.3-1.7
      c-1.7,0-3.1,0.6-4.3,1.7c-1.1,1.2-1.7,2.6-1.7,4.3V70c0,1.7,0.6,3.2,1.7,4.3c1.1,1.2,2.5,1.7,4.3,1.7c1.7,0,3.1-0.6,4.3-1.7
      c1.1-1.2,1.7-2.6,1.7-4.3V44.7c0-3.4,1.1-6.2,3.3-8.4c2.2-2.2,5.2-3.3,9-3.3c3.7,0,6.3,1,7.8,3.1s2.3,4.9,2.3,8.6V70
      c0,1.7,0.6,3.2,1.7,4.3c1.1,1.2,2.5,1.7,4.3,1.7c1.7,0,3.1-0.6,4.3-1.7c1.1-1.2,1.7-2.6,1.7-4.3V44.7c0-7.1-1.3-12.6-3.9-16.6
      C455.7,24,451,22,444.3,22z"/>
    <path d="M500.5,64.8c-0.7,0-1.5,0.2-2.3,0.5c-0.9,0.3-1.7,0.4-2.2,0.4c-1.3,0-2.2-0.3-3-0.9c-0.7-0.6-1.1-1.6-1.1-3V35h7
      c1.6,0,2.9-0.5,4-1.5s1.6-2.3,1.6-3.8c0-1.6-0.5-2.9-1.6-4s-2.4-1.6-4-1.6h-7v-6.3c0-1.7-0.6-3.2-1.7-4.3c-1.1-1.2-2.5-1.7-4.2-1.7
      s-3.2,0.6-4.3,1.7c-1.2,1.2-1.7,2.6-1.7,4.3v6.3h-4.6c-1.6,0-2.9,0.5-4,1.5s-1.6,2.3-1.6,3.8c0,1.6,0.5,2.9,1.6,4s2.4,1.6,4,1.6
      h4.6v27.3c0,5.7,1.4,9.4,4.2,11.1s6.3,2.6,10.3,2.6c2.4,0,4.6-0.6,6.6-1.8c1.9-1.2,2.9-2.7,2.9-4.5c0-1.5-0.4-2.6-1.1-3.5
      C502.3,65.3,501.4,64.8,500.5,64.8z"/>
  </g></g>



<path class="st0" d="M835.3,220.1c-48.2,0-87.2,10.7-87.2,24c0,13.2,39.1,24,87.2,24s87.2-10.7,87.2-24S883.5,220.1,835.3,220.1z
  M889.7,252.5c-15,3.5-34.4,5.5-54.4,5.5s-39.4-2-54.4-5.5c-13.1-3.1-19.4-6.5-21.9-8.5c2.5-2,8.8-5.4,21.9-8.5
 c15-3.5,34.4-5.5,54.4-5.5s39.4,2,54.4,5.5c13.1,3.1,19.4,6.5,21.9,8.5C909.1,246,902.8,249.4,889.7,252.5z"/>
<g>
 <path d="M1049.4,1035.5l-15.2-20.1l14.9-14.2c0.8-0.8,1.2-1.7,1.2-2.7s-0.4-1.9-1.1-2.7c-0.7-0.9-1.6-1.3-2.7-1.3
     c-1.2,0-2.3,0.5-3.3,1.6l-21.8,21.5v-18.5c0-1.2-0.4-2.2-1.2-3c-0.8-0.8-1.8-1.2-3-1.2c-1.3,0-2.3,0.4-3.1,1.2s-1.2,1.8-1.2,3v39.4
     c0,1.2,0.4,2.2,1.2,3c0.8,0.8,1.8,1.2,3,1.2c1.3,0,2.3-0.4,3.1-1.2c0.8-0.8,1.2-1.8,1.2-3v-10.8l6.5-6.2l14.8,19.5
     c0.4,0.5,0.8,0.9,1.4,1.2c0.5,0.3,1.1,0.4,1.7,0.4c1.2,0,2.3-0.4,3.2-1.2c0.9-0.8,1.4-1.8,1.4-3.1c0-0.5-0.1-0.9-0.3-1.5
     C1049.9,1036.3,1049.6,1035.9,1049.4,1035.5z"/>
 <path d="M1081.2,1007.9c-2.8-1.6-6-2.4-9.4-2.4c-3.5,0-6.6,0.8-9.4,2.4c-2.8,1.6-5,3.9-6.7,6.7c-1.6,2.9-2.5,6.1-2.5,9.8
     c0,3.6,0.8,6.9,2.5,9.8c1.6,2.9,3.9,5.1,6.7,6.7c2.8,1.6,6,2.4,9.4,2.4s6.5-0.8,9.4-2.4c2.8-1.6,5.1-3.8,6.7-6.7s2.5-6.1,2.5-9.8
     c0-3.6-0.8-6.9-2.5-9.8C1086.3,1011.7,1084.1,1009.5,1081.2,1007.9z M1080.8,1030.3c-0.9,1.7-2.2,3.1-3.7,4c-1.6,1-3.3,1.4-5.2,1.4
     c-1.9,0-3.6-0.5-5.2-1.4c-1.6-1-2.8-2.3-3.7-4c-0.9-1.7-1.4-3.7-1.4-5.9c0-2.2,0.5-4.2,1.4-6s2.2-3.1,3.7-4.1
     c1.6-1,3.3-1.4,5.2-1.4c1.9,0,3.6,0.5,5.2,1.4c1.6,1,2.8,2.3,3.7,4.1c0.9,1.7,1.4,3.7,1.4,6
     C1082.2,1026.6,1081.7,1028.6,1080.8,1030.3z"/>
 <path d="M1136.5,1023.1c-1.6-0.7-3.7-1.4-6.1-2.1c-1.8-0.5-3.1-0.9-4.1-1.3c-1-0.3-1.8-0.8-2.4-1.4c-0.6-0.6-1-1.4-1-2.4
     c0-2.5,1.7-3.8,5.2-3.8c1.6,0,3.1,0.3,4.4,0.9s2.4,1.4,3.2,2.4c0.6,0.6,1.5,1,2.5,1c0.8,0,1.5-0.2,2.2-0.7c0.9-0.7,1.3-1.5,1.3-2.6
     c0-0.9-0.3-1.7-0.9-2.5c-1.3-1.7-3.1-3-5.5-3.8c-2.3-0.9-4.6-1.3-7-1.3c-2.3,0-4.4,0.4-6.4,1.3c-2,0.9-3.7,2.1-4.9,3.7
     c-1.3,1.6-1.9,3.5-1.9,5.7c0,2.5,0.6,4.5,1.8,6c1.2,1.5,2.6,2.6,4.3,3.3c1.7,0.7,3.8,1.5,6.4,2.2c2.5,0.7,4.4,1.4,5.6,2
     c1.2,0.7,1.8,1.7,1.8,3c0,2.5-1.8,3.9-5.3,4c-2.1,0-3.9-0.3-5.3-1c-1.5-0.7-2.9-1.7-4.3-3.1c-0.9-0.9-1.8-1.3-2.7-1.3
     c-0.7,0-1.3,0.2-2,0.6c-1.2,0.8-1.8,1.8-1.8,3c0,0.8,0.2,1.5,0.6,2c1.6,2.2,3.7,3.8,6.3,4.8c2.6,1,5.4,1.5,8.4,1.5
     c2.2,0,4.3-0.4,6.4-1.3c2.1-0.9,3.8-2.1,5.1-3.8c1.3-1.7,2-3.6,2-5.8c0-2.5-0.6-4.4-1.7-5.9
     C1139.5,1024.9,1138.1,1023.8,1136.5,1023.1z"/>
 <path d="M1183,1007.5c0.8-1.6,1.2-3.4,1.2-5.3c0-0.9-0.3-1.7-0.8-2.5s-1.4-1.1-2.5-1.1s-1.9,0.4-2.6,1.1c-0.6,0.7-0.9,1.6-0.9,2.5
     c0,1.4-0.5,2.5-1.5,3.2s-2.4,1.1-4.3,1.1v0.1c-2-0.6-4-1-6-1c-3.5,0-6.6,0.8-9.4,2.4c-2.8,1.6-5,3.9-6.7,6.7
     c-1.6,2.9-2.5,6.1-2.5,9.8c0,3.6,0.8,6.9,2.5,9.8c1.6,2.9,3.9,5.1,6.7,6.7c2.8,1.6,6,2.4,9.4,2.4s6.5-0.8,9.4-2.4
     c2.8-1.6,5.1-3.8,6.7-6.7s2.5-6.1,2.5-9.8c0-2.5-0.4-4.9-1.3-7.2c-0.8-2.2-2-4.2-3.6-5.9C1181,1010.4,1182.2,1009.1,1183,1007.5z
      M1174.6,1030.3c-0.9,1.7-2.2,3.1-3.7,4c-1.6,1-3.3,1.4-5.2,1.4s-3.6-0.5-5.2-1.4c-1.6-1-2.8-2.3-3.7-4c-0.9-1.7-1.4-3.7-1.4-5.9
     c0-2.2,0.5-4.2,1.4-6c0.9-1.7,2.2-3.1,3.7-4.1c1.6-1,3.3-1.4,5.2-1.4s3.6,0.5,5.2,1.4c1.6,1,2.8,2.3,3.7,4.1c0.9,1.7,1.4,3.7,1.4,6
     C1176,1026.6,1175.5,1028.6,1174.6,1030.3z"/>
 <path d="M1220.1,1009.6c-1.8-2.7-5-4.1-9.6-4.1c-2.4,0-4.5,0.6-6.5,1.8s-3.6,2.6-4.8,4.2v-1.2c0-1.2-0.4-2.2-1.2-3
     c-0.8-0.8-1.8-1.2-2.9-1.2c-1.2,0-2.2,0.4-2.9,1.2c-0.8,0.8-1.2,1.8-1.2,3v28.1c0,1.2,0.4,2.2,1.2,3c0.8,0.8,1.7,1.2,2.9,1.2
     c1.2,0,2.2-0.4,2.9-1.2c0.8-0.8,1.2-1.8,1.2-3V1021c0-2.3,0.7-4.2,2.2-5.8c1.5-1.5,3.6-2.3,6.2-2.3c2.5,0,4.3,0.7,5.4,2.1
     c1,1.4,1.6,3.4,1.6,5.9v17.4c0,1.2,0.4,2.2,1.2,3c0.8,0.8,1.7,1.2,2.9,1.2c1.2,0,2.2-0.4,2.9-1.2c0.8-0.8,1.2-1.8,1.2-3v-17.4
     C1222.8,1016.1,1221.9,1012.3,1220.1,1009.6z"/>
</g>
<g>
 <g>
     <path d="M262.5,1011.9c-2.8-1.6-5.8-2.4-9.2-2.4c-1.3,0-2.8,0.2-4.2,0.5c-1.5,0.4-2.7,0.8-3.7,1.4l1.5-11.2H266
         c1.2,0,2.3-0.4,3.1-1.2c0.8-0.8,1.2-1.8,1.2-3s-0.4-2.3-1.2-3.1c-0.8-0.8-1.9-1.2-3.1-1.2h-22.3c-1.2,0-2.2,0.3-3,1
         s-1.4,1.6-1.6,2.7l-2.4,19.1c-0.1,0.2-0.1,0.6-0.1,1.1c0,1.5,0.4,2.8,1.3,3.9c0.8,1.1,2.3,1.6,4.3,1.6c0.6,0,1.1-0.1,1.7-0.3
         c0.5-0.2,1.3-0.5,2.2-1c1.3-0.6,2.4-1.1,3.3-1.4c0.9-0.3,2-0.5,3.2-0.5c2.6,0,4.9,0.9,6.8,2.6c1.9,1.8,2.9,4,2.9,6.8
         c0,1.9-0.6,3.7-1.7,5.3c-1.1,1.6-2.6,3-4.4,3.9c-1.9,1-3.8,1.5-5.9,1.5c-1.6,0-3.6-0.7-5.7-2c-1.4-1-2.5-1.5-3.5-1.5
         c-1.3,0-2.3,0.4-3.1,1.1s-1.2,1.6-1.2,2.5c0,0.8,0.2,1.7,0.6,2.6c0.4,0.9,0.9,1.6,1.5,2.2c1.3,1.1,3.1,1.9,5.2,2.5
         c2.1,0.6,4.2,0.9,6.2,0.9c3.8,0,7.3-0.9,10.5-2.6c3.2-1.7,5.8-4.1,7.8-7s2.9-6.1,2.9-9.6c0-3.3-0.8-6.4-2.4-9.1
         C267.4,1015.7,265.3,1013.5,262.5,1011.9z"/>
     <path d="M332.9,1003.8c-3,0-5.8,0.9-8.1,2.6c-2.4,1.7-4.2,3.7-5.4,5.9c-1.8-5.7-5.9-8.5-12.4-8.5c-2.6,0-5,0.7-7.1,2
         s-3.9,2.9-5.3,4.7v-1.2c0-1.3-0.4-2.5-1.3-3.4s-2-1.4-3.3-1.4s-2.4,0.5-3.3,1.4s-1.3,2-1.3,3.4v31.9c0,1.3,0.4,2.5,1.3,3.4
         s2,1.4,3.3,1.4s2.4-0.4,3.3-1.4c0.9-0.9,1.3-2,1.3-3.4v-19.8c0-2.6,0.8-4.8,2.4-6.5s3.9-2.6,6.8-2.6c2.8,0,4.7,0.8,5.8,2.4
         c1.1,1.6,1.7,3.8,1.7,6.7v19.8c0,1.3,0.4,2.5,1.3,3.4s2,1.4,3.3,1.4s2.4-0.4,3.3-1.4c0.9-0.9,1.3-2,1.3-3.4v-19.8
         c0-2.6,0.8-4.8,2.4-6.5s3.9-2.6,6.8-2.6c2.8,0,4.7,0.8,5.8,2.4c1.1,1.6,1.7,3.8,1.7,6.7v19.8c0,1.3,0.4,2.5,1.3,3.4s2,1.4,3.3,1.4
         s2.4-0.4,3.3-1.4c0.9-0.9,1.3-2,1.3-3.4v-19.8c0-5.5-1-9.8-2.9-12.9C341.5,1005.4,338,1003.8,332.9,1003.8z"/>
     <path d="M418.1,1008.5c-2-3.1-5.5-4.7-10.6-4.7c-3,0-5.8,0.9-8.1,2.6c-2.4,1.7-4.2,3.7-5.4,5.9c-1.8-5.7-5.9-8.5-12.4-8.5
         c-2.6,0-5,0.7-7.1,2s-3.9,2.9-5.3,4.7v-1.2c0-1.3-0.4-2.5-1.3-3.4s-2-1.4-3.3-1.4s-2.4,0.5-3.3,1.4s-1.3,2-1.3,3.4v31.9
         c0,1.3,0.4,2.5,1.3,3.4s2,1.4,3.3,1.4s2.4-0.4,3.3-1.4c0.9-0.9,1.3-2,1.3-3.4v-19.8c0-2.6,0.8-4.8,2.4-6.5s3.9-2.6,6.8-2.6
         c2.8,0,4.7,0.8,5.8,2.4c1.1,1.6,1.7,3.8,1.7,6.7v19.8c0,1.3,0.4,2.5,1.3,3.4s2,1.4,3.3,1.4s2.4-0.4,3.3-1.4c0.9-0.9,1.3-2,1.3-3.4
         v-19.8c0-2.6,0.8-4.8,2.4-6.5s3.9-2.6,6.8-2.6c2.8,0,4.7,0.8,5.8,2.4c1.1,1.6,1.7,3.8,1.7,6.7v19.8c0,1.3,0.4,2.5,1.3,3.4
         s2,1.4,3.3,1.4s2.4-0.4,3.3-1.4c0.9-0.9,1.3-2,1.3-3.4v-19.8C421.1,1015.9,420.1,1011.6,418.1,1008.5z"/>
 </g>
</g>
<g>
 <rect class="st10" x="84.4" y="223.6" width="510.2" height="737"/>
 <g>
     <g>
         <path class="st5" d="M513.4,690.5v-85c0-4.7,3.8-8.5,8.5-8.5H553c4.7,0,8.5,3.8,8.5,8.5v85c0,4.7-3.8,8.5-8.5,8.5h-31.2
             C517.2,699,513.4,695.2,513.4,690.5z"/>
     </g>
     <g>
         <path class="st5" d="M117.5,690.5v-85c0-4.7,3.8-8.5,8.5-8.5h31.2c4.7,0,8.5,3.8,8.5,8.5v85c0,4.7-3.8,8.5-8.5,8.5h-31.2
             C121.4,699,117.5,695.2,117.5,690.5z"/>
     </g>
 </g>
</g>
<g>
 <g>
     <path class="st6" d="M579.7,238.6v707H99.4v-707H579.7 M594.7,223.6H84.4v737h510.2V223.6L594.7,223.6z"/>
 </g>
</g>
<text transform="matrix(0.9469 0 0 1 179.9971 826.7621)" class="st7 st8 st9">aeaqwe</text>
<g>
</g>

false

</svg>
