<?xml version="1.0" encoding="utf-8"?>
<!-- Generator: Adobe Illustrator 27.9.0, SVG Export Plug-In . SVG Version: 6.00 Build 0)  -->
<svg version="1.1" id="Layer_1" xmlns="http://www.w3.org/2000/svg" xmlns:xlink="http://www.w3.org/1999/xlink" x="0px"
	y="0px" viewBox="0 0 612 792" style="enable-background:new 0 0 612 792;" xml:space="preserve">
	<style type="text/css">
		.st0 {
			fill: #FFFFFF;
			stroke: #FFB600;
			stroke-width: 0.25;
			stroke-miterlimit: 10;
		}

		.st1 {
			enable-background: new;
		}

		.st2 {
			font-family: 'RollerSkates-Regular';
		}

		.st3 {
			font-size: 18px;
		}
	</style>

	<path class="st0" d="M340.8,370.631c-0.4-0.5-8.7-9.8-20.5-7.3c-7.1,1.4-12.8,6.6-14.8,13.3c-1.9-6.7-7.6-11.9-14.8-13.4
	c-11.8-2.4-20.1,6.9-20.5,7.4c-5.7,6.7-4.4,14.7-3.8,18.8c2.3,13.8,13.7,22.9,21.1,28.7c6.9,5.4,13.5,8.8,18,10.9
	c4.5-2.1,11.1-5.5,18-10.9c7.4-5.8,18.8-14.8,21.1-28.7C345.3,385.331,346.5,377.231,340.8,370.631L340.8,370.631z" />
	<text transform="matrix(1 0 0 1 291.539 391.6125)" class="st1">
		<tspan x="0" y="0" class="st2 st3">Mrs.</tspan>
		<tspan x="-13.266" y="18" class="st2 st3">Johnson</tspan>
	</text>


	<path transform="translate(100,100)" class="st0" d="M340.8,370.631c-0.4-0.5-8.7-9.8-20.5-7.3c-7.1,1.4-12.8,6.6-14.8,13.3c-1.9-6.7-7.6-11.9-14.8-13.4
	c-11.8-2.4-20.1,6.9-20.5,7.4c-5.7,6.7-4.4,14.7-3.8,18.8c2.3,13.8,13.7,22.9,21.1,28.7c6.9,5.4,13.5,8.8,18,10.9
	c4.5-2.1,11.1-5.5,18-10.9c7.4-5.8,18.8-14.8,21.1-28.7C345.3,385.331,346.5,377.231,340.8,370.631L340.8,370.631z" />
	<text transform="matrix(1 0 0 1 291.539 391.6125) translate(100,100)" class="st1">
		<tspan x="0" y="0" class="st2 st3">Mrs.</tspan>
		<tspan x="-13.266" y="18" class="st2 st3">Meathwe</tspan>
	</text>
</svg>