<?xml version="1.0" encoding="utf-8"?>
<!-- Generator: Adobe Illustrator 27.9.0, SVG Export Plug-In . SVG Version: 6.00 Build 0)  -->
<svg version="1.1" id="Layer_1" xmlns="http://www.w3.org/2000/svg" xmlns:xlink="http://www.w3.org/1999/xlink" x="0px" y="0px"
	 viewBox="0 0 3200.7 3671.2" style="enable-background:new 0 0 3200.7 3671.2;" xml:space="preserve">
<style type="text/css">
	.st0{fill-rule:evenodd;clip-rule:evenodd;fill:#161515;stroke:#1A1A18;stroke-width:0.7065;stroke-miterlimit:10;}
	.st1{fill:#161515;}
	.st2{font-family:'KissMeorNot';}
	.st3{font-size:24.8824px;}
	.st4{font-family:'#9Slide05AgileScriptCalligraphy';}
	.st5{font-family:'#9Slide03NanamiRoundedLight';}
	.st6{font-family:'#9Slide05BrannbollNy-Regular';}
	.st7{font-family:'#9Slide06SVNSharpen';}
	.st8{font-family:'#9Slide05SVNVeryBerry-Regular';}
	.st9{font-family:'GhostBuster-Regular';}
	.st10{font-size:20.3878px;}
	.st11{font-family:'HauntedBloodRegular';}
	.st12{font-family:'AutumninNovember';}
	.st13{font-family:'Pacifico-Regular';}
	.st14{font-family:'SVN-TheWildThingsScript';}
	.st15{font-family:'SVN-BeachwoodScript';}
	.st16{font-family:'SVN-BaliScript';}
	.st17{font-family:'SVN-BistroScript';}
	.st18{font-family:'FunkyBaby';}
	.st19{font-family:'dearheart';}
	.st20{font-family:'Lobster-Regular';}
	.st21{font-family:'AmaticSC-Bold';}
	.st22{font-family:'Bangers-Regular';}
	.st23{font-family:'NerkoOne-Regular';}
	.st24{font-family:'Yellowtail-Regular';}
	.st25{font-family:'RollerSkates-Regular';}
	.st26{font-family:'Sacramento-Regular';}
	.st27{font-family:'MochaFrappuccino-Bold';}
	.st28{font-family:'AndalaScript-Regular';}
	.st29{font-family:'AutumnMoon';}
	.st30{font-family:'TryHappinessDemo';}
	.st31{font-size:18.9719px;}
	.st32{font-family:'HelloConnor-Regular';}
	.st33{font-size:22.5506px;}
	.st34{fill:#020202;}
	.st35{font-family:'HelloMinimalist';}
	.st36{font-size:30.2908px;}
	.st37{font-family:'Riverdale-Regular';}
	.st38{font-size:26.1439px;}
	.st39{font-family:'Carat-Regular';}
	.st40{font-size:16.9513px;}
	.st41{font-family:'BreakSticker-Regular';}
	.st42{font-family:'GhostCastle-Regular';}
	.st43{font-size:22.85px;}
	.st44{font-family:'WitchAdventure';}
	.st45{font-size:26.8841px;}
	.st46{font-family:'SweetBones-Regular';}
	.st47{font-family:'SpookyVampire';}
	.st48{font-size:38.5721px;}
	.st49{font-family:'CreepyNight-Regular';}
	.st50{font-size:23.2102px;}
	.st51{font-family:'#9Slide03IcielNovecentosansMed';}
	.st52{font-size:24.9815px;}
	.st53{font-family:'WildSageRegular';}
	.st54{font-size:35.1618px;}
	.st55{font-family:'BestieForever-Regular';}
	.st56{font-size:27.7766px;}
	.st57{font-family:'SweetKisses';}
	.st58{font-size:46.5831px;}
	.st59{font-family:'SharkBlindateRegular';}
	.st60{font-size:27.0059px;}
	.st61{font-family:'Canterbury-Regular';}
	.st62{font-family:'Meila-LineBold';}
	.st63{font-family:'#9Slide06SVNJonithaScript';}
	.st64{font-family:'Smoothie_Shoppe';}
	.st65{font-family:'SVN-WeekdaysSanttuy-Regular';}
	.st66{fill-rule:evenodd;clip-rule:evenodd;fill:none;}
</style>
<path class="st0" d="M1041.7,1081.6"/>
<text transform="matrix(0.9872 0 0 1 1150.8499 1080.6511)" class="st1 st2 st3">1. Christina , Alex , Zadaya, David</text>
<g>
	<text transform="matrix(0.9872 0 0 1 1121.5618 1119.7468)" class="st1 st4 st3">2. Christina , Alex , Zadaya, David</text>
</g>
<g>
	<text transform="matrix(0.9872 0 0 1 1110.2207 1165.157)" class="st1 st5 st3">3. Christina , Alex , Zadaya, David</text>
</g>
<g>
	<text transform="matrix(0.9872 0 0 1 1124.5828 1251.2576)" class="st1 st6 st3">5. Christina , Alex , Zadaya, David</text>
</g>
<g>
	<text transform="matrix(0.9872 0 0 1 1566.6641 1081.2078)" class="st1 st7 st3">6. Christina  , Alex , Zadaya, David</text>
</g>
<g>
	<text transform="matrix(0.9564 0 0 1 1559.5127 1997.8289)" class="st1 st8 st3">37. Christina  , Alex , Zadaya, David</text>
</g>
<g>
	<text transform="matrix(0.9564 0 0 1 1553.5837 2044.9568)" class="st1 st9 st10">38. Christina  , Alex , Zadaya, David</text>
</g>
<g>
	<text transform="matrix(0.9564 0 0 1 1535.4612 2080.9255)" class="st1 st11 st3">39. Christina  , Alex , Zadaya, David</text>
</g>
<g>
	<text transform="matrix(0.9872 0 0 1 1535.3662 1135.1394)" class="st1 st12 st3">7. Christina , Alex , Zadaya, David</text>
</g>
<g>
	<text transform="matrix(1 0 0 1 1564.7881 1192.6072)" class="st1 st13 st3">8. Christina , Alex , Zadaya, David</text>
</g>
<g>
	<text transform="matrix(1 0 0 1 1152.0947 1404.8904)" class="st1 st14 st3">12.Christina , Alex , Zadaya, David</text>
</g>
<g>
	<text transform="matrix(1 0 0 1 1122.3567 1446.489)" class="st1 st15 st3">13. Christina , Alex , Zadaya, David</text>
</g>
<g>
	<text transform="matrix(1.0376 0 0 1 1140.293 1543.0076)" class="st1 st16 st3"> 15. Christina , Alex , Zadaya, David</text>
</g>
<g>
	<text transform="matrix(0.9469 0 0 1 1620.2754 1365.0183)" class="st1 st17 st3"> 16. Christina , Alex , Zadaya, David</text>
</g>
<g>
	<text transform="matrix(0.9469 0 0 1 1592.8679 1408.7136)" class="st1 st18 st3"> 17. Christina , Alex , Zadaya, David </text>
</g>
<g>
	<text transform="matrix(0.9469 0 0 1 1634.5244 1455.198)" class="st1 st19 st3"> 18. Christina , Alex , Zadaya, David</text>
</g>
<g>
	<text transform="matrix(0.9469 0 0 1 1581.7844 1507.9275)" class="st1 st20 st3"> 19. Christina , Alex , Zadaya, David</text>
</g>
<g>
	<text transform="matrix(0.9469 0 0 1 1630.9783 1553.7185)" class="st1 st21 st3"> 20. Christina , Alex , Zadaya, David</text>
</g>
<g>
	<text transform="matrix(0.9469 0 0 1 1137.8762 1642.3904)" class="st1 st22 st3"> 21. Christina , Alex , Zadaya, David</text>
</g>
<g>
	<text transform="matrix(0.9469 0 0 1 1107.2715 1749.7771)" class="st1 st23 st3"> 23. Christina , Alex , Zadaya, David</text>
</g>
<g>
	<text transform="matrix(0.9469 0 0 1 1131.2136 1797.9617)" class="st1 st24 st3"> 24. Christina , Alex , Zadaya, David</text>
</g>
<g>
	<text transform="matrix(0.9469 0 0 1 1150.7644 1839.8064)" class="st1 st25 st3"> 25. Christina , Alex , Zadaya, David</text>
</g>
<g>
	<text transform="matrix(0.9469 0 0 1 1119.1226 1693.7712)" class="st1 st26 st3"> 22. Christina , Alex , Zadaya, David</text>
</g>
<g>
	<text transform="matrix(0.9469 0 0 1 1531.4458 1643.4939)" class="st1 st27 st3"> 26. Christina , Alex , Zadaya, David, CHRISTINA</text>
</g>
<g>
	<text transform="matrix(0.9469 0 0 1 1609.2705 1683.7683)" class="st1 st28 st3"> 27. Christina , Alex , Zadaya, David</text>
</g>
<g>
	<text transform="matrix(0.9469 0 0 1 1562.957 1729.4753)" class="st1 st29 st3"> 28. Christina , Alex , Zadaya, David</text>
</g>
<g>
	<text transform="matrix(0.9469 0 0 1 1585.2871 1776.1248)" class="st1 st30 st31"> 29. Christina , Alex , Zadaya, David</text>
</g>
<g>
	<text transform="matrix(0.9469 0 0 1 1593.0369 1807.1882)" class="st1 st32 st33"> 30. Christina , Alex , Zadaya, David</text>
</g>
<g>
	<text transform="matrix(0.9469 0 0 1 1120.2043 2037.95)" class="st34 st35 st36"> 33. Christina , Alex , Zadaya, David</text>
</g>
<g>
	<text transform="matrix(0.9469 0 0 1 1096.5308 2112.9705)" class="st34 st37 st38"> 35. Christina , Alex , Zadaya, David</text>
</g>
<g>
	<text transform="matrix(0.9469 0 0 1 1137.3682 1961.1921)"><tspan x="0" y="0" class="st1 st39 st40"> 31</tspan><tspan x="21.5" y="0" class="st1 st30 st40">.</tspan><tspan x="25" y="0" class="st1 st39 st40"> Christina , Alex , Zadaya, David</tspan></text>
</g>
<g>
	<g>
		<g>
			<path class="st1" d="M1132.5,1997c-1,0-1.8-0.2-2.4-0.5c-0.6-0.3-1.1-0.7-1.4-1.2c-0.3-0.5-0.5-0.9-0.5-1.4c0-0.4,0.1-0.7,0.3-1
				c0.2-0.3,0.5-0.4,0.9-0.4c0.3,0,0.5,0,0.7,0.2s0.3,0.3,0.4,0.5c0.1,0.2,0.1,0.4,0.1,0.5c0,0.1,0,0.3-0.1,0.5
				c-0.1,0.2-0.1,0.3-0.2,0.5c0.1,0.3,0.4,0.6,0.8,0.8s0.8,0.2,1.2,0.2c0.9,0,1.5-0.3,2-0.8c0.5-0.5,0.7-1.2,0.7-2.1
				c0-0.5-0.1-1-0.3-1.5c-0.2-0.5-0.5-0.9-0.9-1.2c-0.4-0.3-1.1-0.5-1.9-0.5c-0.1,0-0.2,0-0.4,0c-0.2,0-0.4,0-0.5,0v-1.3
				c0.1,0,0.2,0,0.3,0s0.2,0,0.3,0c0.6,0,1.1-0.1,1.5-0.4c0.4-0.3,0.7-0.6,0.9-1s0.3-0.9,0.3-1.3c0-0.5-0.1-1-0.2-1.4
				c-0.1-0.4-0.3-0.7-0.6-0.9s-0.7-0.3-1.2-0.3c-0.4,0-0.8,0.1-1.2,0.3c-0.3,0.2-0.6,0.5-0.7,0.7c0.1,0.1,0.2,0.3,0.2,0.5
				c0,0.2,0.1,0.3,0.1,0.5c0,0.2,0,0.3-0.1,0.5s-0.2,0.4-0.4,0.5s-0.4,0.2-0.7,0.2c-0.4,0-0.6-0.2-0.8-0.4c-0.2-0.3-0.3-0.6-0.3-0.9
				c0-0.4,0.2-0.9,0.5-1.3c0.3-0.5,0.8-0.9,1.4-1.3s1.4-0.5,2.3-0.5c0.8,0,1.5,0.1,2.2,0.4s1.2,0.6,1.5,1.2c0.4,0.5,0.6,1.3,0.6,2.1
				c0,0.4-0.1,0.8-0.3,1.3c-0.2,0.4-0.5,0.9-1,1.2c-0.4,0.4-1,0.7-1.8,0.9c1.3,0.2,2.2,0.7,2.9,1.4c0.6,0.7,1,1.6,1,2.5
				c0,0.9-0.2,1.7-0.7,2.4c-0.5,0.6-1.1,1.1-1.9,1.5C1134.3,1996.8,1133.4,1997,1132.5,1997z"/>
			<path class="st1" d="M1139.3,1996.6c0-0.7,0.1-1.4,0.3-1.9c0.2-0.6,0.4-1.1,0.8-1.6s0.7-0.9,1.1-1.3c0.4-0.4,0.8-0.8,1.2-1.2
				c0.9-0.9,1.6-1.8,2-2.5c0.4-0.8,0.6-1.5,0.6-2.2c0-0.5-0.1-0.9-0.2-1.4s-0.3-0.8-0.6-1.1s-0.7-0.4-1.3-0.4
				c-0.4,0-0.8,0.1-1.1,0.3c-0.3,0.2-0.6,0.5-0.7,0.8c0.1,0.2,0.2,0.3,0.3,0.5c0.1,0.2,0.1,0.4,0.1,0.5s0,0.3-0.1,0.5
				c-0.1,0.2-0.2,0.4-0.4,0.5c-0.2,0.1-0.4,0.2-0.7,0.2c-0.4,0-0.7-0.2-0.8-0.4c-0.2-0.3-0.3-0.6-0.3-0.9c0-0.3,0.1-0.7,0.3-1
				c0.2-0.4,0.5-0.7,0.8-1c0.4-0.3,0.8-0.6,1.3-0.8c0.5-0.2,1.1-0.3,1.8-0.3c0.5,0,1,0.1,1.6,0.2c0.5,0.1,1,0.4,1.4,0.7
				c0.4,0.3,0.8,0.7,1,1.2c0.2,0.5,0.4,1.1,0.4,1.8c0,0.3-0.1,0.7-0.2,1.1c-0.1,0.4-0.3,0.8-0.7,1.3c-0.3,0.5-0.7,1-1.3,1.5
				c-0.5,0.6-1.2,1.2-2.1,1.9c-0.8,0.7-1.4,1.3-1.8,1.9c-0.4,0.6-0.7,1-0.7,1.4l3.8,0.1c0.4,0,0.8,0,1.1-0.1c0.3,0,0.6-0.2,0.7-0.4
				c0.2-0.2,0.3-0.5,0.3-0.9h1l-0.1,3.2H1139.3z"/>
			<path class="st1" d="M1151.4,1997c-0.4,0-0.7-0.1-1-0.4s-0.4-0.7-0.4-1.1c0-0.4,0.1-0.8,0.4-1.1c0.3-0.3,0.6-0.4,0.9-0.4
				c0.4,0,0.7,0.1,0.9,0.4c0.2,0.3,0.4,0.7,0.4,1.1c0,0.4-0.1,0.8-0.4,1.1S1151.8,1997,1151.4,1997z"/>
			<path class="st1" d="M1170.4,1986.7c-0.2-1.2-0.5-2.1-1.2-2.8c-0.6-0.6-1.4-0.9-2.4-0.9c-0.7,0-1.3,0.2-1.9,0.5
				c-0.5,0.3-1,0.8-1.4,1.3c-0.4,0.6-0.7,1.2-0.9,2c-0.2,0.7-0.3,1.5-0.3,2.4c0,1.2,0.2,2.3,0.6,3.3c0.4,0.9,0.9,1.7,1.6,2.2
				c0.7,0.5,1.5,0.8,2.4,0.8c0.8,0,1.7-0.2,2.5-0.7c0.8-0.4,1.5-1.1,2-1.9l0.8,0.8c-0.6,0.9-1.3,1.6-2,2s-1.4,0.8-2,0.9
				c-0.7,0.2-1.3,0.2-1.8,0.2c-1,0-1.9-0.2-2.8-0.6c-0.8-0.4-1.5-0.9-2.1-1.6c-0.6-0.7-1.1-1.5-1.4-2.4s-0.5-1.9-0.5-2.9
				c0-1,0.1-1.9,0.4-2.8c0.3-0.9,0.7-1.8,1.3-2.5c0.6-0.8,1.3-1.4,2.2-1.8c0.9-0.5,1.9-0.7,3-0.7c0.6,0,1.2,0.1,1.8,0.3
				c0.6,0.2,1.2,0.5,1.8,0.8l-0.1-1h1.4v4.9H1170.4z"/>
			<path class="st1" d="M1179.5,1995.5c0.4,0,0.7-0.1,0.8-0.3c0.2-0.2,0.3-0.4,0.3-0.7c0-0.3,0.1-0.7,0.1-1.1v-3
				c0-1-0.2-1.7-0.5-2.2c-0.3-0.5-0.7-0.7-1.4-0.7c-0.4,0-0.8,0.1-1.1,0.3c-0.4,0.2-0.7,0.4-0.9,0.7v5.2c0,0.2,0,0.5,0,0.8
				c0,0.3,0,0.6-0.1,0.9c0.2,0,0.5,0,0.7-0.1c0.2,0,0.4,0,0.6,0v1.3h-4.8v-1.1c0.4,0,0.7-0.1,0.8-0.3c0.2-0.2,0.3-0.4,0.3-0.7
				c0-0.3,0-0.7,0-1.1v-9c0-0.2,0-0.5,0-0.8c0-0.3,0-0.6,0.1-0.9c-0.2,0-0.5,0-0.7,0c-0.3,0-0.5,0-0.7,0v-1.4c0.6,0,1.1,0,1.5-0.1
				s0.7-0.1,0.9-0.2c0.2-0.1,0.4-0.2,0.5-0.3h0.9v6.2c0.3-0.2,0.6-0.4,0.9-0.6c0.3-0.2,0.7-0.3,1.1-0.4c0.4-0.1,0.7-0.2,1-0.2
				c1.2,0,2,0.4,2.5,1.1c0.5,0.7,0.8,1.9,0.8,3.5l0,3.1c0,0.2,0,0.5,0,0.8c0,0.3,0,0.6-0.1,0.9c0.2,0,0.4,0,0.7-0.1
				c0.2,0,0.4,0,0.6,0v1.3h-4.8V1995.5z"/>
			<path class="st1" d="M1185.5,1995.5c0.4,0,0.7-0.1,0.8-0.3s0.3-0.4,0.3-0.7c0-0.3,0.1-0.7,0.1-1.1v-3.9c0-0.2,0-0.5,0-0.8
				c0-0.3,0-0.6,0.1-0.9c-0.2,0-0.5,0-0.7,0c-0.3,0-0.5,0-0.7,0v-1.3h0.7c0.5,0,1-0.1,1.3-0.2c0.4-0.1,0.6-0.3,0.8-0.4h0.8
				c0,0.2,0,0.4,0.1,0.8c0,0.4,0,0.7,0,1.1c0.3-0.4,0.6-0.8,0.9-1.1s0.7-0.5,1-0.7c0.3-0.2,0.7-0.2,1.1-0.2c0.4,0,0.8,0.1,1.1,0.4
				c0.3,0.2,0.5,0.7,0.5,1.2c0,0.2,0,0.4-0.1,0.6c-0.1,0.2-0.2,0.4-0.4,0.5c-0.2,0.1-0.4,0.2-0.7,0.2c-0.3,0-0.5-0.1-0.8-0.3
				c-0.2-0.2-0.4-0.5-0.4-0.9c-0.3,0-0.6,0.1-0.9,0.3c-0.3,0.2-0.6,0.5-0.8,0.8c-0.2,0.3-0.4,0.6-0.6,1l0,4c0,0.2,0,0.5,0,0.8
				c0,0.3,0,0.6-0.1,0.9c0.2,0,0.4,0,0.7-0.1s0.4,0,0.6,0v1.3h-4.8V1995.5z"/>
			<path class="st1" d="M1194.7,1995.5c0.4,0,0.7-0.1,0.8-0.3c0.2-0.2,0.3-0.4,0.3-0.7c0-0.3,0.1-0.7,0.1-1.1v-3.9
				c0-0.2,0-0.5,0-0.8c0-0.3,0-0.6,0.1-0.9c-0.2,0-0.5,0-0.7,0c-0.3,0-0.5,0-0.7,0v-1.4c0.6,0,1.1,0,1.5-0.1
				c0.4-0.1,0.7-0.1,0.9-0.2c0.2-0.1,0.4-0.2,0.5-0.3h0.9v7.7c0,0.2,0,0.5,0,0.8c0,0.3,0,0.6-0.1,0.9c0.2,0,0.4,0,0.7-0.1
				c0.2,0,0.4,0,0.6,0v1.3h-4.8V1995.5z M1197,1984.2c-0.4,0-0.7-0.1-1-0.4c-0.3-0.3-0.4-0.7-0.4-1.1c0-0.4,0.1-0.8,0.4-1.1
				c0.3-0.3,0.6-0.5,1-0.5c0.4,0,0.7,0.2,1,0.5c0.3,0.3,0.4,0.7,0.4,1.1c0,0.4-0.1,0.8-0.4,1.1S1197.4,1984.2,1197,1984.2z"/>
			<path class="st1" d="M1205.2,1997c-0.6,0-1.2-0.1-1.7-0.2c-0.5-0.2-0.9-0.4-1.3-0.6l0.1,0.7h-1.3l-0.1-3.6h1.1
				c0,0.5,0.2,0.9,0.5,1.3c0.3,0.4,0.6,0.7,1.1,0.9c0.4,0.2,0.9,0.3,1.5,0.3c0.3,0,0.5,0,0.8-0.1c0.2-0.1,0.4-0.2,0.6-0.4
				s0.2-0.4,0.2-0.7c0-0.3-0.1-0.6-0.3-0.8s-0.5-0.4-0.8-0.5c-0.3-0.2-0.7-0.3-1.2-0.5c-0.4-0.2-0.8-0.3-1.2-0.5s-0.8-0.4-1.1-0.7
				c-0.3-0.3-0.6-0.6-0.8-0.9c-0.2-0.4-0.3-0.8-0.3-1.4c0-0.4,0.1-0.8,0.2-1.1c0.1-0.4,0.3-0.7,0.6-1.1c0.3-0.3,0.7-0.6,1.1-0.8
				c0.5-0.2,1-0.3,1.7-0.3c0.4,0,0.8,0.1,1.2,0.2s0.8,0.3,1.2,0.6l0-0.7h1.3v3.7h-1.1c-0.1-0.5-0.2-0.9-0.4-1.3
				c-0.2-0.4-0.5-0.7-0.9-0.9c-0.4-0.2-0.8-0.3-1.3-0.3c-0.4,0-0.8,0.1-1.1,0.3s-0.4,0.5-0.4,0.9c0,0.3,0.1,0.6,0.3,0.9
				c0.2,0.2,0.5,0.4,0.9,0.6c0.4,0.2,0.8,0.3,1.2,0.5c0.6,0.2,1.2,0.5,1.7,0.8c0.5,0.3,0.9,0.7,1.2,1.1c0.3,0.4,0.5,1,0.5,1.6
				c0,0.7-0.2,1.3-0.5,1.8c-0.3,0.5-0.8,0.8-1.3,1C1206.4,1996.8,1205.8,1997,1205.2,1997z"/>
			<path class="st1" d="M1214.2,1997c-0.4,0-0.7,0-1.1-0.1c-0.3-0.1-0.7-0.3-0.9-0.5c-0.3-0.3-0.5-0.7-0.7-1.2
				c-0.2-0.5-0.3-1.2-0.3-2.1l0-5.4l-1.4,0v-1.5c0.4,0,0.8-0.2,1.1-0.4c0.4-0.3,0.7-0.6,1-1.1s0.5-0.9,0.6-1.4h1.2l0,2.9h2.8v1.3
				l-2.8,0.1l0,5.4c0,0.4,0,0.8,0.1,1.2c0.1,0.4,0.2,0.6,0.4,0.8c0.2,0.2,0.5,0.3,0.8,0.3c0.2,0,0.5-0.1,0.9-0.3
				c0.3-0.2,0.6-0.5,1-1l0.8,0.8c-0.3,0.5-0.7,0.9-1,1.2c-0.3,0.3-0.7,0.5-1,0.6c-0.3,0.1-0.6,0.2-0.9,0.3
				C1214.5,1996.9,1214.3,1997,1214.2,1997z"/>
			<path class="st1" d="M1218.3,1995.5c0.4,0,0.7-0.1,0.8-0.3c0.2-0.2,0.3-0.4,0.3-0.7c0-0.3,0.1-0.7,0.1-1.1v-3.9
				c0-0.2,0-0.5,0-0.8c0-0.3,0-0.6,0.1-0.9c-0.2,0-0.5,0-0.7,0c-0.3,0-0.5,0-0.7,0v-1.4c0.6,0,1.1,0,1.5-0.1
				c0.4-0.1,0.7-0.1,0.9-0.2c0.2-0.1,0.4-0.2,0.5-0.3h0.9v7.7c0,0.2,0,0.5,0,0.8c0,0.3,0,0.6-0.1,0.9c0.2,0,0.4,0,0.7-0.1
				c0.2,0,0.4,0,0.6,0v1.3h-4.8V1995.5z M1220.6,1984.2c-0.4,0-0.7-0.1-1-0.4c-0.3-0.3-0.4-0.7-0.4-1.1c0-0.4,0.1-0.8,0.4-1.1
				c0.3-0.3,0.6-0.5,1-0.5c0.4,0,0.7,0.2,1,0.5c0.3,0.3,0.4,0.7,0.4,1.1c0,0.4-0.1,0.8-0.4,1.1S1220.9,1984.2,1220.6,1984.2z"/>
			<path class="st1" d="M1224.4,1996.6v-1.1c0.4,0,0.7-0.1,0.8-0.3s0.3-0.4,0.3-0.7c0-0.3,0.1-0.7,0.1-1.1v-3.9c0-0.2,0-0.5,0-0.8
				c0-0.3,0-0.6,0.1-0.9c-0.2,0-0.5,0-0.7,0c-0.3,0-0.5,0-0.7,0v-1.4c0.6,0,1.1,0,1.5-0.1s0.7-0.1,0.9-0.2c0.2-0.1,0.4-0.2,0.5-0.3
				h0.8c0,0.2,0,0.3,0,0.4c0,0.1,0,0.2,0,0.3c0,0.1,0,0.3,0.1,0.4c0.3-0.2,0.6-0.4,0.9-0.6c0.3-0.2,0.7-0.3,1.1-0.4s0.7-0.2,1-0.2
				c1.2,0,2,0.4,2.5,1.1c0.5,0.7,0.8,1.9,0.8,3.5v3.1c0,0.2,0,0.5,0,0.8c0,0.3,0,0.6-0.1,0.9c0.2,0,0.5,0,0.7-0.1c0.2,0,0.4,0,0.6,0
				v1.3h-4.8v-1.1c0.4,0,0.7-0.1,0.8-0.3c0.2-0.2,0.3-0.4,0.3-0.7c0-0.3,0.1-0.7,0.1-1.1l0-3c0-1-0.1-1.7-0.4-2.2
				c-0.3-0.5-0.7-0.7-1.4-0.7c-0.4,0-0.8,0.1-1.1,0.3c-0.4,0.2-0.7,0.4-0.9,0.7c0,0.2,0,0.3,0,0.5s0,0.4,0,0.5l0,4.1
				c0,0.2,0,0.5,0,0.8c0,0.3,0,0.6-0.1,0.9c0.2,0,0.4,0,0.7-0.1s0.4,0,0.6,0v1.3H1224.4z"/>
			<path class="st1" d="M1242.5,1996.6c0-0.2-0.1-0.4-0.1-0.5c0-0.1,0-0.3,0-0.5c-0.4,0.5-0.9,0.8-1.4,1c-0.5,0.2-1,0.3-1.6,0.3
				c-0.9,0-1.6-0.3-2.1-0.8c-0.5-0.5-0.7-1.1-0.7-1.9c0-0.7,0.2-1.2,0.5-1.7c0.3-0.5,0.8-0.8,1.3-1.1s1.2-0.5,1.8-0.7
				c0.7-0.2,1.3-0.2,2-0.3v-1.1c0-0.4,0-0.8-0.1-1.1c-0.1-0.3-0.2-0.6-0.5-0.8c-0.2-0.2-0.6-0.3-1-0.3c-0.3,0-0.6,0.1-0.9,0.2
				c-0.3,0.1-0.5,0.3-0.7,0.6c0.1,0.1,0.2,0.3,0.2,0.4c0,0.1,0,0.3,0,0.4c0,0.2-0.1,0.5-0.3,0.8c-0.2,0.3-0.5,0.4-0.9,0.4
				c-0.4,0-0.6-0.1-0.8-0.4c-0.2-0.2-0.3-0.5-0.3-0.9c0-0.5,0.2-1,0.5-1.4c0.4-0.4,0.9-0.7,1.5-0.9c0.6-0.2,1.3-0.3,2.1-0.3
				c1.1,0,2,0.3,2.6,0.9c0.6,0.6,0.9,1.6,0.9,3c0,0.5,0,0.9,0,1.3s0,0.8,0,1.2s0,0.8,0,1.3c0,0.2,0,0.5,0,0.8c0,0.3,0,0.6-0.1,0.9
				c0.2,0,0.5,0,0.7-0.1c0.2,0,0.4,0,0.6,0v1.4H1242.5z M1242.3,1991.7c-0.4,0-0.8,0.1-1.2,0.2c-0.4,0.1-0.7,0.2-1,0.4
				s-0.5,0.4-0.7,0.7s-0.3,0.6-0.2,0.9c0,0.4,0.1,0.7,0.4,0.9c0.2,0.2,0.5,0.3,0.9,0.3c0.4,0,0.7-0.1,1-0.3c0.3-0.2,0.6-0.4,0.9-0.7
				c0-0.1,0-0.3,0-0.4c0-0.2,0-0.3,0-0.5c0-0.2,0-0.4,0-0.7S1242.3,1992.1,1242.3,1991.7z"/>
			<path class="st1" d="M1253.8,2000.5l-0.7-0.5c0.1-0.2,0.3-0.5,0.5-0.8s0.3-0.8,0.4-1.2c0.1-0.4,0.2-0.9,0.1-1.3
				c-0.1,0-0.2,0-0.2,0.1c-0.1,0-0.1,0-0.2,0c-0.3,0-0.6-0.1-0.9-0.3c-0.2-0.2-0.4-0.5-0.4-0.9c0-0.4,0.1-0.7,0.4-1
				c0.2-0.3,0.6-0.4,1-0.4c0.6,0,1,0.2,1.3,0.6c0.3,0.4,0.4,0.9,0.4,1.5c0,0.4-0.1,0.9-0.2,1.4c-0.1,0.5-0.3,1-0.6,1.5
				C1254.4,1999.5,1254.1,2000,1253.8,2000.5z"/>
			<path class="st1" d="M1261.6,1996.6v-1.2c0.4,0,0.7-0.1,0.9-0.3c0.2-0.2,0.4-0.5,0.6-0.9c0.1-0.4,0.3-0.8,0.5-1.2l3.9-11.3h1.1
				l4.3,11.5c0.1,0.2,0.2,0.6,0.3,1c0.1,0.4,0.2,0.8,0.2,1.1c0.2,0,0.4,0,0.7,0c0.2,0,0.4,0,0.6,0v1.4h-5v-1.1
				c0.4,0,0.7-0.1,0.8-0.3c0.1-0.2,0.2-0.4,0.2-0.7c0-0.3-0.1-0.6-0.2-0.9l-0.5-1.4l-4.6,0.1l-0.4,1.4c-0.1,0.2-0.2,0.5-0.3,0.8
				c-0.1,0.3-0.2,0.6-0.3,0.8c0.2,0,0.5,0,0.8,0c0.3,0,0.5,0,0.7,0v1.4H1261.6z M1265.7,1990.9h3.7l-1.1-3.1
				c-0.2-0.5-0.3-0.9-0.4-1.4c-0.1-0.5-0.3-0.9-0.3-1.3h0c-0.1,0.3-0.2,0.6-0.3,1.1c-0.1,0.4-0.3,1-0.5,1.5L1265.7,1990.9z"/>
			<path class="st1" d="M1275.1,1995.5c0.4,0,0.7-0.1,0.8-0.3c0.2-0.2,0.3-0.4,0.3-0.7c0-0.3,0-0.7,0-1.1v-9c0-0.2,0-0.5,0-0.8
				c0-0.3,0-0.6,0.1-0.9c-0.2,0-0.5,0-0.7,0c-0.3,0-0.5,0-0.7,0v-1.4c0.6,0,1.1,0,1.5-0.1c0.4-0.1,0.7-0.1,0.9-0.2
				c0.2-0.1,0.4-0.2,0.5-0.3h0.9l0,12.8c0,0.2,0,0.5,0,0.8c0,0.3,0,0.6-0.1,0.9c0.2,0,0.5,0,0.7-0.1c0.2,0,0.4,0,0.6,0v1.3h-4.8
				V1995.5z"/>
			<path class="st1" d="M1286,1997c-0.9,0-1.8-0.2-2.5-0.7c-0.7-0.5-1.3-1.1-1.7-1.9s-0.6-1.8-0.6-2.9c0-1,0.2-1.9,0.6-2.7
				s1-1.5,1.7-2.1c0.7-0.5,1.6-0.8,2.6-0.8c0.6,0,1.1,0.1,1.6,0.2s1,0.4,1.4,0.8c0.4,0.4,0.7,0.9,1,1.5c0.2,0.6,0.4,1.4,0.3,2.3
				l-6.6,0.1c0,0.9,0.1,1.6,0.3,2.3c0.2,0.7,0.5,1.2,0.9,1.6c0.4,0.4,1,0.6,1.7,0.6c0.3,0,0.7-0.1,1-0.2c0.4-0.1,0.7-0.3,1.1-0.5
				s0.7-0.5,0.9-0.9l0.8,0.7c-0.4,0.7-0.9,1.2-1.4,1.5c-0.5,0.4-1.1,0.6-1.6,0.7C1286.9,1996.9,1286.4,1997,1286,1997z
				 M1283.8,1989.7h4.1c0-0.6-0.1-1-0.2-1.4c-0.1-0.4-0.3-0.7-0.6-0.9c-0.3-0.2-0.6-0.3-1-0.3c-0.6,0-1.2,0.2-1.6,0.7
				C1284.2,1988.2,1283.9,1988.9,1283.8,1989.7z"/>
			<path class="st1" d="M1291.8,1996.6v-1.1c0.3-0.1,0.6-0.3,0.8-0.5c0.2-0.2,0.5-0.6,0.8-0.9l1.8-2.3c-0.2-0.3-0.4-0.5-0.6-0.9
				s-0.5-0.6-0.7-0.9s-0.4-0.5-0.6-0.8c-0.2-0.3-0.4-0.6-0.6-0.9c-0.2-0.3-0.4-0.6-0.4-0.8l-0.7,0v-1.3h4.3v1.1
				c-0.4,0-0.6,0.1-0.6,0.4c0,0.2,0.2,0.6,0.5,1l1,1.3l1.1-1.4c0.2-0.2,0.3-0.4,0.5-0.6c0.2-0.2,0.3-0.4,0.5-0.5l-1.1,0.1v-1.3h3.4
				v1.1c-0.3,0.1-0.6,0.2-0.8,0.4s-0.5,0.4-0.7,0.6c-0.2,0.2-0.4,0.5-0.7,0.8l-1.4,1.8l2.4,3.1c0.2,0.2,0.3,0.4,0.5,0.6
				c0.2,0.2,0.3,0.4,0.4,0.7l0.8,0v1.3h-4.4v-1.1c0.4,0,0.6-0.1,0.7-0.3c0.1-0.2,0-0.4-0.3-0.7l-1.5-1.8l-1.2,1.6
				c-0.1,0.2-0.2,0.3-0.4,0.5c-0.2,0.2-0.3,0.4-0.5,0.5l1.1-0.1v1.3H1291.8z"/>
			<path class="st1" d="M1309.3,2000.5l-0.7-0.5c0.1-0.2,0.3-0.5,0.5-0.8c0.2-0.4,0.3-0.8,0.4-1.2c0.1-0.4,0.2-0.9,0.1-1.3
				c-0.1,0-0.2,0-0.2,0.1c-0.1,0-0.1,0-0.2,0c-0.3,0-0.6-0.1-0.9-0.3c-0.2-0.2-0.4-0.5-0.4-0.9c0-0.4,0.1-0.7,0.4-1
				c0.2-0.3,0.6-0.4,1-0.4c0.6,0,1,0.2,1.3,0.6c0.3,0.4,0.4,0.9,0.4,1.5c0,0.4-0.1,0.9-0.2,1.4c-0.1,0.5-0.3,1-0.6,1.5
				C1309.9,1999.5,1309.6,2000,1309.3,2000.5z"/>
			<path class="st1" d="M1317.9,1996.6v-1.4c0.9-1.4,1.9-3,2.9-4.6s2.2-3.4,3.4-5.4c0.2-0.4,0.4-0.7,0.7-1c0.2-0.3,0.4-0.6,0.7-0.9
				l-3.9-0.1c-0.8,0-1.3,0.2-1.8,0.7c-0.4,0.5-0.7,1.3-0.7,2.5h-1.1l0.1-4.4h10v1.3l-6.2,9.8c-0.3,0.4-0.5,0.8-0.8,1.2
				s-0.5,0.7-0.8,1l4,0c0.8,0,1.4-0.2,1.9-0.7c0.5-0.5,0.8-1.3,0.8-2.5h1.1l-0.1,4.4H1317.9z"/>
			<path class="st1" d="M1335.6,1996.6c0-0.2-0.1-0.4-0.1-0.5c0-0.1,0-0.3,0-0.5c-0.4,0.5-0.9,0.8-1.4,1c-0.5,0.2-1,0.3-1.6,0.3
				c-0.9,0-1.6-0.3-2.1-0.8c-0.5-0.5-0.7-1.1-0.7-1.9c0-0.7,0.2-1.2,0.5-1.7c0.3-0.5,0.8-0.8,1.3-1.1c0.6-0.3,1.2-0.5,1.8-0.7
				c0.7-0.2,1.3-0.2,2-0.3v-1.1c0-0.4,0-0.8-0.1-1.1c-0.1-0.3-0.2-0.6-0.5-0.8c-0.2-0.2-0.6-0.3-1-0.3c-0.3,0-0.6,0.1-0.9,0.2
				c-0.3,0.1-0.5,0.3-0.7,0.6c0.1,0.1,0.2,0.3,0.2,0.4c0,0.1,0,0.3,0,0.4c0,0.2-0.1,0.5-0.3,0.8c-0.2,0.3-0.5,0.4-0.9,0.4
				c-0.4,0-0.6-0.1-0.8-0.4c-0.2-0.2-0.3-0.5-0.3-0.9c0-0.5,0.2-1,0.5-1.4s0.9-0.7,1.5-0.9s1.3-0.3,2.1-0.3c1.1,0,2,0.3,2.6,0.9
				c0.6,0.6,0.9,1.6,0.9,3c0,0.5,0,0.9,0,1.3s0,0.8,0,1.2c0,0.4,0,0.8,0,1.3c0,0.2,0,0.5,0,0.8s0,0.6-0.1,0.9c0.2,0,0.5,0,0.7-0.1
				c0.2,0,0.4,0,0.6,0v1.4H1335.6z M1335.4,1991.7c-0.4,0-0.8,0.1-1.2,0.2s-0.7,0.2-1,0.4c-0.3,0.2-0.5,0.4-0.7,0.7
				c-0.2,0.3-0.3,0.6-0.2,0.9c0,0.4,0.1,0.7,0.4,0.9c0.2,0.2,0.5,0.3,0.9,0.3c0.4,0,0.7-0.1,1-0.3c0.3-0.2,0.6-0.4,0.9-0.7
				c0-0.1,0-0.3,0-0.4c0-0.2,0-0.3,0-0.5c0-0.2,0-0.4,0-0.7S1335.4,1992.1,1335.4,1991.7z"/>
			<path class="st1" d="M1344.1,1997c-0.8,0-1.5-0.2-2.1-0.6c-0.6-0.4-1.1-1-1.5-1.8c-0.3-0.8-0.5-1.7-0.5-2.8c0-1.1,0.2-2.1,0.6-3
				c0.4-0.9,1-1.6,1.7-2.1c0.7-0.5,1.6-0.8,2.6-0.8c0.4,0,0.7,0,1.1,0.1c0.3,0.1,0.6,0.2,0.9,0.3v-1.9c0-0.2,0-0.5,0-0.8
				c0-0.3,0-0.6,0-0.9c-0.2,0-0.5,0-0.7,0c-0.3,0-0.5,0-0.7,0v-1.4c0.6,0,1.1,0,1.5-0.1s0.7-0.1,0.9-0.2c0.2-0.1,0.4-0.2,0.5-0.3
				h0.9v12.8c0,0.2,0,0.5,0,0.8s0,0.6-0.1,0.9c0.2,0,0.5,0,0.7-0.1s0.5,0,0.6,0v1.4h-3.4c0-0.2,0-0.3-0.1-0.5c0-0.2,0-0.3-0.1-0.5
				c-0.4,0.5-0.9,0.8-1.3,1C1345.2,1996.9,1344.7,1997,1344.1,1997z M1345.1,1995.4c0.4,0,0.7-0.1,1.1-0.3c0.3-0.2,0.6-0.5,0.8-0.8
				c0-0.2,0-0.4,0-0.6c0-0.2,0-0.4,0-0.6l0-5.3c-0.2-0.2-0.4-0.3-0.8-0.4c-0.3-0.1-0.6-0.1-0.9-0.1c-0.6,0-1.1,0.2-1.5,0.6
				c-0.4,0.4-0.7,0.9-0.8,1.6s-0.3,1.3-0.2,2.1c0,0.7,0.1,1.3,0.3,1.9c0.2,0.6,0.4,1.1,0.8,1.5
				C1344.1,1995.2,1344.5,1995.4,1345.1,1995.4z"/>
			<path class="st1" d="M1357.6,1996.6c0-0.2-0.1-0.4-0.1-0.5c0-0.1,0-0.3,0-0.5c-0.4,0.5-0.9,0.8-1.4,1c-0.5,0.2-1,0.3-1.6,0.3
				c-0.9,0-1.6-0.3-2.1-0.8c-0.5-0.5-0.7-1.1-0.7-1.9c0-0.7,0.2-1.2,0.5-1.7s0.8-0.8,1.3-1.1c0.6-0.3,1.2-0.5,1.8-0.7
				c0.7-0.2,1.3-0.2,2-0.3v-1.1c0-0.4,0-0.8-0.1-1.1c-0.1-0.3-0.2-0.6-0.5-0.8c-0.2-0.2-0.6-0.3-1-0.3c-0.3,0-0.6,0.1-0.9,0.2
				c-0.3,0.1-0.5,0.3-0.7,0.6c0.1,0.1,0.2,0.3,0.2,0.4c0,0.1,0,0.3,0,0.4c0,0.2-0.1,0.5-0.3,0.8c-0.2,0.3-0.5,0.4-0.9,0.4
				c-0.4,0-0.6-0.1-0.8-0.4c-0.2-0.2-0.3-0.5-0.3-0.9c0-0.5,0.2-1,0.5-1.4c0.4-0.4,0.9-0.7,1.5-0.9c0.6-0.2,1.3-0.3,2.1-0.3
				c1.1,0,2,0.3,2.6,0.9c0.6,0.6,0.9,1.6,0.9,3c0,0.5,0,0.9,0,1.3s0,0.8,0,1.2c0,0.4,0,0.8,0,1.3c0,0.2,0,0.5,0,0.8
				c0,0.3,0,0.6-0.1,0.9c0.2,0,0.5,0,0.7-0.1c0.2,0,0.4,0,0.6,0v1.4H1357.6z M1357.4,1991.7c-0.4,0-0.8,0.1-1.2,0.2s-0.7,0.2-1,0.4
				c-0.3,0.2-0.5,0.4-0.7,0.7c-0.2,0.3-0.3,0.6-0.2,0.9c0,0.4,0.1,0.7,0.4,0.9c0.2,0.2,0.5,0.3,0.9,0.3c0.4,0,0.7-0.1,1-0.3
				c0.3-0.2,0.6-0.4,0.9-0.7c0-0.1,0-0.3,0-0.4c0-0.2,0-0.3,0-0.5c0-0.2,0-0.4,0-0.7S1357.4,1992.1,1357.4,1991.7z"/>
			<path class="st1" d="M1364.2,2002.3c-0.5,0-0.9-0.1-1.2-0.4s-0.5-0.7-0.5-1.1c0-0.3,0.1-0.6,0.3-0.9c0.2-0.3,0.5-0.4,0.8-0.4
				c0.3,0,0.5,0.1,0.7,0.3s0.3,0.5,0.3,0.8c0,0,0,0.1,0,0.1s0,0.1,0,0.2c0,0,0.1,0,0.1,0c0.1,0,0.3-0.1,0.4-0.3s0.3-0.4,0.4-0.7
				c0.2-0.3,0.3-0.7,0.5-1.2c0.2-0.5,0.3-1,0.5-1.6l-3.1-6.7c-0.4-0.8-0.6-1.4-0.7-1.8s-0.2-0.8-0.3-1l-0.9,0v-1.3h4.6v1.1h0
				c-0.5,0-0.8,0.2-0.8,0.6s0,0.8,0.3,1.3l2.1,4.9c0.2-0.5,0.4-1.2,0.6-2c0.2-0.8,0.5-1.6,0.8-2.5c0.1-0.2,0.1-0.5,0.2-0.7
				c0.1-0.3,0.2-0.5,0.3-0.8c0.1-0.3,0.2-0.4,0.3-0.6l-1.2,0.1v-1.3h3.4v1.1c-0.4,0.1-0.8,0.4-1,0.8c-0.3,0.4-0.5,1-0.7,1.6
				l-2.5,7.4c-0.4,1.1-0.7,2.1-1.1,2.8c-0.3,0.8-0.7,1.3-1.1,1.7C1365.3,2002.1,1364.8,2002.3,1364.2,2002.3z"/>
			<path class="st1" d="M1378.7,1996.6c0-0.2-0.1-0.4-0.1-0.5c0-0.1,0-0.3,0-0.5c-0.4,0.5-0.9,0.8-1.4,1c-0.5,0.2-1,0.3-1.6,0.3
				c-0.9,0-1.6-0.3-2.1-0.8c-0.5-0.5-0.7-1.1-0.7-1.9c0-0.7,0.2-1.2,0.5-1.7c0.3-0.5,0.8-0.8,1.3-1.1c0.6-0.3,1.2-0.5,1.8-0.7
				c0.7-0.2,1.3-0.2,2-0.3v-1.1c0-0.4,0-0.8-0.1-1.1c-0.1-0.3-0.2-0.6-0.5-0.8c-0.2-0.2-0.6-0.3-1-0.3c-0.3,0-0.6,0.1-0.9,0.2
				c-0.3,0.1-0.5,0.3-0.7,0.6c0.1,0.1,0.2,0.3,0.2,0.4c0,0.1,0,0.3,0,0.4c0,0.2-0.1,0.5-0.3,0.8c-0.2,0.3-0.5,0.4-0.9,0.4
				c-0.4,0-0.6-0.1-0.8-0.4c-0.2-0.2-0.3-0.5-0.3-0.9c0-0.5,0.2-1,0.5-1.4s0.9-0.7,1.5-0.9s1.3-0.3,2.1-0.3c1.1,0,2,0.3,2.6,0.9
				c0.6,0.6,0.9,1.6,0.9,3c0,0.5,0,0.9,0,1.3s0,0.8,0,1.2c0,0.4,0,0.8,0,1.3c0,0.2,0,0.5,0,0.8s0,0.6-0.1,0.9c0.2,0,0.5,0,0.7-0.1
				c0.2,0,0.4,0,0.6,0v1.4H1378.7z M1378.4,1991.7c-0.4,0-0.8,0.1-1.2,0.2s-0.7,0.2-1,0.4c-0.3,0.2-0.5,0.4-0.7,0.7
				c-0.2,0.3-0.3,0.6-0.2,0.9c0,0.4,0.1,0.7,0.4,0.9c0.2,0.2,0.5,0.3,0.9,0.3c0.4,0,0.7-0.1,1-0.3c0.3-0.2,0.6-0.4,0.9-0.7
				c0-0.1,0-0.3,0-0.4c0-0.2,0-0.3,0-0.5c0-0.2,0-0.4,0-0.7S1378.4,1992.1,1378.4,1991.7z"/>
			<path class="st1" d="M1384.8,2000.5l-0.7-0.5c0.1-0.2,0.3-0.5,0.5-0.8c0.2-0.4,0.3-0.8,0.4-1.2c0.1-0.4,0.2-0.9,0.1-1.3
				c-0.1,0-0.2,0-0.2,0.1c-0.1,0-0.1,0-0.2,0c-0.3,0-0.6-0.1-0.9-0.3c-0.2-0.2-0.4-0.5-0.4-0.9c0-0.4,0.1-0.7,0.4-1
				c0.2-0.3,0.6-0.4,1-0.4c0.6,0,1,0.2,1.3,0.6c0.3,0.4,0.4,0.9,0.4,1.5c0,0.4-0.1,0.9-0.2,1.4c-0.1,0.5-0.3,1-0.6,1.5
				C1385.4,1999.5,1385.1,2000,1384.8,2000.5z"/>
			<path class="st1" d="M1393.6,1995.5c0.4,0,0.7-0.1,0.8-0.2c0.2-0.1,0.3-0.3,0.4-0.6s0.1-0.7,0.1-1.2v-8.3c0-0.3,0-0.7,0-1
				c0-0.3,0-0.6,0-0.8c-0.2,0-0.5,0-0.8,0c-0.3,0-0.5,0-0.7,0v-1.4l5.4,0c1.3,0,2.4,0.2,3.3,0.6c1,0.4,1.8,0.9,2.4,1.6
				s1.1,1.4,1.5,2.3c0.3,0.9,0.5,1.8,0.5,2.8c0,0.9-0.1,1.8-0.4,2.6s-0.8,1.7-1.4,2.4c-0.6,0.7-1.4,1.3-2.4,1.7
				c-1,0.4-2.1,0.6-3.4,0.6h-5.5V1995.5z M1397.5,1993.5c0,0.4,0,0.7,0,1c0,0.3,0,0.6-0.1,0.8c0.2,0,0.4,0,0.7,0s0.5,0,0.7,0
				c0.2,0,0.4,0,0.5,0c0.8,0,1.4-0.2,2-0.5c0.6-0.3,1.1-0.8,1.5-1.3c0.4-0.5,0.7-1.2,0.9-1.9c0.2-0.7,0.3-1.4,0.3-2.2
				c0-1.4-0.2-2.5-0.6-3.5c-0.4-0.9-1-1.6-1.7-2.1c-0.8-0.5-1.7-0.7-2.8-0.7c-0.4,0-0.7,0-0.9,0.2c-0.2,0.1-0.4,0.3-0.4,0.6
				c-0.1,0.3-0.1,0.7-0.1,1.2V1993.5z"/>
			<path class="st1" d="M1414,1996.6c0-0.2-0.1-0.4-0.1-0.5c0-0.1,0-0.3,0-0.5c-0.4,0.5-0.9,0.8-1.4,1c-0.5,0.2-1,0.3-1.6,0.3
				c-0.9,0-1.6-0.3-2.1-0.8c-0.5-0.5-0.7-1.1-0.7-1.9c0-0.7,0.2-1.2,0.5-1.7c0.3-0.5,0.8-0.8,1.3-1.1c0.6-0.3,1.2-0.5,1.8-0.7
				c0.7-0.2,1.3-0.2,2-0.3v-1.1c0-0.4,0-0.8-0.1-1.1c-0.1-0.3-0.2-0.6-0.5-0.8c-0.2-0.2-0.6-0.3-1-0.3c-0.3,0-0.6,0.1-0.9,0.2
				c-0.3,0.1-0.5,0.3-0.7,0.6c0.1,0.1,0.2,0.3,0.2,0.4c0,0.1,0,0.3,0,0.4c0,0.2-0.1,0.5-0.3,0.8c-0.2,0.3-0.5,0.4-0.9,0.4
				c-0.4,0-0.6-0.1-0.8-0.4c-0.2-0.2-0.3-0.5-0.3-0.9c0-0.5,0.2-1,0.5-1.4s0.9-0.7,1.5-0.9s1.3-0.3,2.1-0.3c1.1,0,2,0.3,2.6,0.9
				c0.6,0.6,0.9,1.6,0.9,3c0,0.5,0,0.9,0,1.3s0,0.8,0,1.2c0,0.4,0,0.8,0,1.3c0,0.2,0,0.5,0,0.8s0,0.6-0.1,0.9c0.2,0,0.5,0,0.7-0.1
				c0.2,0,0.4,0,0.6,0v1.4H1414z M1413.8,1991.7c-0.4,0-0.8,0.1-1.2,0.2s-0.7,0.2-1,0.4c-0.3,0.2-0.5,0.4-0.7,0.7
				c-0.2,0.3-0.3,0.6-0.2,0.9c0,0.4,0.1,0.7,0.4,0.9c0.2,0.2,0.5,0.3,0.9,0.3c0.4,0,0.7-0.1,1-0.3c0.3-0.2,0.6-0.4,0.9-0.7
				c0-0.1,0-0.3,0-0.4c0-0.2,0-0.3,0-0.5c0-0.2,0-0.4,0-0.7S1413.8,1992.1,1413.8,1991.7z"/>
			<path class="st1" d="M1422.3,1996.7l-3-7.1c-0.2-0.4-0.3-0.7-0.4-1c-0.1-0.3-0.1-0.5-0.2-0.6c0-0.2-0.1-0.3-0.1-0.5l-0.8,0v-1.3
				h4.3v1.1c-0.3,0-0.5,0.1-0.6,0.3s-0.1,0.4-0.1,0.7c0,0.3,0.1,0.6,0.2,0.9l1.2,3c0.1,0.2,0.2,0.5,0.3,0.8c0.1,0.3,0.2,0.5,0.3,0.8
				h0c0.1-0.3,0.2-0.5,0.3-0.8s0.2-0.5,0.3-0.8l1.1-3.2c0.1-0.3,0.2-0.6,0.3-0.9c0.1-0.2,0.2-0.4,0.3-0.6l-1.2,0.1v-1.3h3.5v1.1
				c-0.3,0-0.6,0.2-0.8,0.4c-0.2,0.3-0.4,0.6-0.6,1c-0.2,0.4-0.3,0.8-0.5,1.2l-2.5,6.8H1422.3z"/>
			<path class="st1" d="M1429,1995.5c0.4,0,0.7-0.1,0.8-0.3c0.2-0.2,0.3-0.4,0.3-0.7c0-0.3,0.1-0.7,0.1-1.1v-3.9c0-0.2,0-0.5,0-0.8
				c0-0.3,0-0.6,0.1-0.9c-0.2,0-0.5,0-0.7,0c-0.3,0-0.5,0-0.7,0v-1.4c0.6,0,1.1,0,1.5-0.1c0.4-0.1,0.7-0.1,0.9-0.2
				c0.2-0.1,0.4-0.2,0.5-0.3h0.9v7.7c0,0.2,0,0.5,0,0.8c0,0.3,0,0.6-0.1,0.9c0.2,0,0.4,0,0.7-0.1c0.2,0,0.4,0,0.6,0v1.3h-4.8V1995.5
				z M1431.3,1984.2c-0.4,0-0.7-0.1-1-0.4c-0.3-0.3-0.4-0.7-0.4-1.1c0-0.4,0.1-0.8,0.4-1.1c0.3-0.3,0.6-0.5,1-0.5
				c0.4,0,0.7,0.2,1,0.5c0.3,0.3,0.4,0.7,0.4,1.1c0,0.4-0.1,0.8-0.4,1.1S1431.7,1984.2,1431.3,1984.2z"/>
			<path class="st1" d="M1439.1,1997c-0.8,0-1.5-0.2-2.1-0.6c-0.6-0.4-1.1-1-1.5-1.8c-0.3-0.8-0.5-1.7-0.5-2.8c0-1.1,0.2-2.1,0.6-3
				c0.4-0.9,1-1.6,1.7-2.1c0.7-0.5,1.6-0.8,2.6-0.8c0.4,0,0.7,0,1.1,0.1c0.3,0.1,0.6,0.2,0.9,0.3v-1.9c0-0.2,0-0.5,0-0.8
				c0-0.3,0-0.6,0-0.9c-0.2,0-0.5,0-0.7,0c-0.3,0-0.5,0-0.7,0v-1.4c0.6,0,1.1,0,1.5-0.1s0.7-0.1,0.9-0.2c0.2-0.1,0.4-0.2,0.5-0.3
				h0.9v12.8c0,0.2,0,0.5,0,0.8s0,0.6-0.1,0.9c0.2,0,0.5,0,0.7-0.1c0.2,0,0.5,0,0.6,0v1.4h-3.4c0-0.2,0-0.3-0.1-0.5s0-0.3-0.1-0.5
				c-0.4,0.5-0.9,0.8-1.3,1C1440.2,1996.9,1439.7,1997,1439.1,1997z M1440.1,1995.4c0.4,0,0.7-0.1,1.1-0.3c0.3-0.2,0.6-0.5,0.8-0.8
				c0-0.2,0-0.4,0-0.6c0-0.2,0-0.4,0-0.6l0-5.3c-0.2-0.2-0.4-0.3-0.8-0.4c-0.3-0.1-0.6-0.1-0.9-0.1c-0.6,0-1.1,0.2-1.5,0.6
				c-0.4,0.4-0.7,0.9-0.8,1.6s-0.3,1.3-0.2,2.1c0,0.7,0.1,1.3,0.3,1.9c0.2,0.6,0.4,1.1,0.8,1.5
				C1439,1995.2,1439.5,1995.4,1440.1,1995.4z"/>
		</g>
	</g>
</g>
<g>
	<text transform="matrix(0.9469 0 0 1 1078.5652 1961.1921)" class="st1 st39 st40">Carat</text>
</g>
<g>
	<text transform="matrix(0.9469 0 0 1 1553.9597 1961.1921)" class="st1 st41 st40"> 36. Christina , Alex , Zadaya, David, SOPHIA</text>
</g>
<g>
	<text transform="matrix(0.9469 0 0 1 1505.0076 2114.7068)" class="st1 st42 st43"> 40. Christina , Alex , Zadaya, David, SOPHIA</text>
</g>
<g>
	<text transform="matrix(0.9469 0 0 1 1061.9824 2230.698)" class="st1 st44 st45">41. Christina , Alex , Zadaya, David, SOPHIA</text>
</g>
<g>
	<text transform="matrix(0.9469 0 0 1 1073.0449 2265.6941)" class="st1 st46 st45">42. Christina , Alex , Zadaya, David, SOPHIA</text>
</g>
<g>
	<text transform="matrix(0.9469 0 0 1 1077.4741 2308.6404)" class="st1 st47 st48"> 43. Christina , Alex , Zadaya, David, SOPHIA</text>
</g>
<g>
	<text transform="matrix(0.9469 0 0 1 1068.6423 2342.3542)" class="st1 st49 st50">44. Christina , Alex , Zadaya, David, SOPHIA</text>
</g>
<g>
	<g>
		<g>
			<path class="st1" d="M1077.6,2377.3c-0.5-0.1-1-0.2-1.3-0.4c-0.3-0.2-0.5-0.5-0.5-0.8c0.1-0.5,0.1-1.1,0.2-1.7
				c0.1-0.6,0.2-1.5,0.4-2.6c0-0.1,0.1-0.4,0.2-0.9c0.1-0.5,0.2-1.1,0.4-1.8c-0.3,0-0.7,0-1,0c-0.3,0-0.7,0-0.9,0
				c-0.4,0-0.8,0-1.2,0c-0.4,0-0.7,0-1,0c-0.3,0-0.6,0.1-0.9,0.1s-0.6,0.1-0.8,0.1c-0.3,0-0.5,0.1-0.7,0.1c0-0.2,0-0.4,0.1-0.6
				c0.1-0.2,0.2-0.3,0.3-0.4c0.6-0.8,1.4-1.6,2.3-2.5c0.9-0.9,1.8-1.8,2.8-2.8s1.9-2,2.8-3c0.9-1,1.6-2,2.1-3.1
				c0.1,0,0.1,0.1,0.2,0.2c0.1,0.1,0.1,0.3,0.1,0.5c0,0.4-0.1,0.8-0.4,1.4c-0.1,0.4-0.2,1-0.4,1.9c-0.2,0.9-0.4,1.9-0.6,3.1
				s-0.5,2.5-0.7,3.8c0.2,0,0.3,0,0.5,0c0.2,0,0.3,0,0.5,0c0.3,0,0.6,0,0.8,0s0.4-0.1,0.6-0.1c-0.3,0.4-0.7,0.8-1.1,1.1
				c-0.4,0.3-0.8,0.4-1.1,0.4c-0.1,0-0.2,0-0.3,0s-0.2,0-0.3,0c0,0.2-0.1,0.5-0.1,0.8c0,0.2-0.1,0.5-0.1,0.7
				c-0.1,0.4-0.1,0.9-0.2,1.5c-0.1,0.6-0.2,1.3-0.3,1.9c-0.1,0.7-0.2,1.3-0.2,1.9C1077.7,2376.6,1077.6,2377,1077.6,2377.3z
				 M1072.5,2367.9c0.3,0,0.7-0.1,1.1-0.1c0.4,0,0.8,0,1.3,0c0.5,0,0.9,0,1.3,0c0.4,0,0.8,0,1.1,0c0.2-1.1,0.5-2.2,0.7-3.3
				c0.3-1.1,0.5-2.2,0.8-3c-0.6,0.6-1.2,1.3-1.9,1.9c-0.7,0.7-1.3,1.3-2,1.9c-0.6,0.6-1.2,1.3-1.8,1.8c-0.1,0.1-0.2,0.3-0.3,0.4
				C1072.7,2367.7,1072.6,2367.8,1072.5,2367.9z"/>
			<path class="st1" d="M1085.9,2377.3c-1,0-1.8-0.2-2.4-0.6s-1-0.8-1.2-1.4s-0.4-1.1-0.4-1.6c0-0.4,0.1-0.9,0.2-1.3s0.4-0.8,0.7-1
				c0.3-0.3,0.6-0.4,1.1-0.4c0.1,0,0.2,0,0.2,0c0.1,0,0.1,0,0.2,0c-0.2,0.2-0.4,0.5-0.5,1c-0.1,0.4-0.2,0.9-0.2,1.4
				c0,0.5,0.1,1,0.2,1.4c0.2,0.5,0.4,0.8,0.8,1.1c0.4,0.3,0.8,0.4,1.4,0.4c0.6,0,1.2-0.2,1.7-0.5c0.5-0.3,0.9-0.8,1.2-1.3
				c0.3-0.6,0.6-1.2,0.8-1.8c0.2-0.7,0.3-1.3,0.3-2c0-0.7-0.1-1.3-0.3-1.9c-0.2-0.6-0.5-1.1-1-1.4c-0.5-0.4-1.1-0.5-1.8-0.5
				c-0.3,0-0.6,0-1,0.1c-0.4,0-0.8,0.1-1.2,0.2c0.1-0.5,0.2-1,0.3-1.7c0.2-0.7,0.3-1.4,0.5-2.2c0.2-0.8,0.4-1.6,0.6-2.3
				s0.4-1.5,0.6-2.1c0.2-0.6,0.3-1.1,0.4-1.4c0.5,0.1,0.9,0.2,1.3,0.2c0.4,0,0.8,0.1,1.2,0.1c0.6,0,1.3,0,1.8-0.1
				c0.6-0.1,1.2-0.2,1.8-0.3c0,0.1,0.1,0.3,0.1,0.4c0,0.1,0,0.2,0,0.3c0,0.5-0.1,0.9-0.4,1.1c-0.3,0.3-0.7,0.5-1.1,0.6
				c-0.4,0.1-0.9,0.2-1.3,0.2c-0.6,0-1.1-0.1-1.5-0.2c-0.4-0.1-0.8-0.2-1.1-0.2c-0.1,0-0.2,0-0.3,0.1c-0.1,0.1-0.1,0.2-0.2,0.4
				c-0.1,0.3-0.3,0.7-0.4,1.2c-0.2,0.5-0.3,1.1-0.5,1.6c-0.1,0.6-0.3,1.1-0.4,1.7c-0.1,0.5-0.2,1-0.3,1.3c-0.1,0.4-0.1,0.6-0.2,0.6
				c0.3-0.1,0.7-0.1,1-0.2c0.3,0,0.7-0.1,1-0.1c1.1,0,2,0.2,2.6,0.6c0.7,0.4,1.2,1,1.5,1.7c0.3,0.7,0.5,1.5,0.5,2.4
				c0,1.2-0.3,2.3-0.8,3.2c-0.5,1-1.3,1.7-2.2,2.3C1088.1,2377,1087.1,2377.3,1085.9,2377.3z"/>
			<path class="st1" d="M1094.3,2375.3c-0.2,0-0.4-0.1-0.5-0.2c-0.1-0.1-0.2-0.3-0.2-0.5c0-0.2,0.1-0.4,0.2-0.5s0.3-0.3,0.5-0.4
				s0.4-0.1,0.6-0.1c0.2,0,0.3,0,0.4,0.1c0.1,0.1,0.2,0.2,0.2,0.5c0,0.2-0.1,0.3-0.2,0.5c-0.1,0.2-0.3,0.3-0.5,0.4
				C1094.7,2375.3,1094.5,2375.3,1094.3,2375.3z"/>
			<path class="st1" d="M1109.7,2377.3c-1.1,0-2-0.3-2.7-0.9c-0.7-0.6-1.2-1.4-1.5-2.3c-0.3-0.9-0.5-1.9-0.5-2.9
				c0-1.3,0.2-2.6,0.6-4c0.4-1.3,0.9-2.6,1.5-3.8c0.7-1.2,1.4-2.3,2.2-3.2c0.8-0.9,1.7-1.7,2.6-2.2c0.9-0.5,1.8-0.8,2.7-0.8
				c0.6,0,1.2,0.2,1.6,0.5c0.4,0.3,0.6,0.9,0.6,1.7c0,0.5-0.1,1-0.2,1.6c-0.2,0.6-0.4,1.2-0.6,1.7c-0.3,0.6-0.6,1-0.9,1.4
				c-0.3,0.4-0.7,0.5-1,0.5c-0.1,0-0.3,0-0.4-0.1c-0.1-0.1-0.2-0.2-0.3-0.4c0.2-0.3,0.5-0.6,0.8-1.1c0.3-0.4,0.6-0.9,0.8-1.3
				c0.3-0.5,0.5-0.9,0.7-1.4c0.2-0.5,0.2-0.9,0.2-1.2c0-0.3-0.1-0.6-0.3-0.8c-0.2-0.2-0.5-0.3-0.9-0.3c-0.7,0-1.4,0.3-2.1,0.9
				c-0.7,0.6-1.4,1.4-2.1,2.3c-0.7,1-1.3,2.1-1.9,3.3c-0.6,1.2-1,2.4-1.3,3.7c-0.3,1.2-0.5,2.4-0.5,3.6c0,0.8,0.1,1.6,0.3,2.3
				c0.2,0.7,0.6,1.3,1.1,1.8c0.5,0.5,1.1,0.7,1.9,0.7c0.8,0,1.7-0.2,2.5-0.8c0.8-0.5,1.6-1.2,2.3-2c0.7-0.8,1.2-1.7,1.7-2.6l0.3,0.2
				c-0.5,1.1-1.2,2.1-1.9,3c-0.7,0.9-1.6,1.6-2.5,2.2C1111.8,2377,1110.8,2377.3,1109.7,2377.3z"/>
			<path class="st1" d="M1118.3,2376c-0.3,0-0.5-0.3-0.7-0.8c-0.2-0.5-0.3-1.1-0.3-1.8c0-0.8,0.1-1.7,0.4-2.8c0.3-1.1,0.6-2.3,1-3.5
				s0.9-2.4,1.4-3.6c0.5-1.2,1-2.2,1.6-3.2s1-1.7,1.5-2.3c0.5-0.6,0.9-0.8,1.2-0.8c0.3,0,0.5,0.2,0.6,0.5c0.1,0.4,0.2,0.7,0.2,1
				c0,0.5-0.1,1-0.3,1.7c-0.2,0.7-0.5,1.4-0.8,2.1c-0.3,0.8-0.7,1.5-1.2,2.2c-0.5,0.7-1,1.4-1.5,2c-0.5,0.6-1.1,1.1-1.6,1.4
				c-0.2,0.5-0.4,1-0.5,1.6c-0.1,0.6-0.2,1.2-0.3,1.8c-0.1,0.6-0.1,1.1-0.1,1.5c0,0.2,0,0.3,0,0.5c0,0.1,0,0.3,0,0.4
				c0.2-0.7,0.5-1.3,0.7-2c0.3-0.6,0.5-1.2,0.8-1.8c0.3-0.5,0.6-1,1-1.4c0.3-0.4,0.7-0.7,1.1-0.9s0.8-0.3,1.2-0.3
				c0.4,0,0.8,0.1,1.1,0.3c0.3,0.2,0.4,0.5,0.6,0.8c0.1,0.3,0.2,0.7,0.2,1.1c0,0.5-0.1,1-0.2,1.5c-0.2,0.5-0.3,0.9-0.5,1.4
				c-0.2,0.4-0.3,0.9-0.3,1.3c0,0.3,0.1,0.6,0.2,0.7c0.1,0.1,0.3,0.2,0.5,0.2c0.4,0,0.8-0.2,1.2-0.5c0.4-0.4,0.9-0.9,1.3-1.5
				c0.4-0.6,0.8-1.3,1.1-2l0.3,0.3c-0.3,0.8-0.7,1.6-1.2,2.2c-0.5,0.7-1,1.2-1.6,1.6c-0.6,0.4-1.2,0.6-1.8,0.6
				c-0.5,0-0.9-0.2-1.2-0.5c-0.3-0.3-0.4-0.7-0.4-1.1c0-0.3,0.1-0.7,0.2-1.2c0.1-0.4,0.2-0.9,0.4-1.3c0.1-0.4,0.2-0.9,0.2-1.3
				c0-0.4-0.1-0.7-0.3-0.9c-0.2-0.2-0.4-0.3-0.6-0.3c-0.4,0-0.7,0.2-1.1,0.5c-0.3,0.3-0.6,0.8-0.9,1.3c-0.3,0.5-0.5,1.1-0.7,1.7
				s-0.4,1.1-0.7,1.7s-0.4,1-0.6,1.3C1118.7,2375.9,1118.5,2376,1118.3,2376z M1120.1,2367.4c0.4-0.4,0.9-0.8,1.3-1.4
				s0.8-1.2,1.2-1.8c0.4-0.6,0.7-1.3,1-1.9c0.3-0.6,0.5-1.2,0.7-1.7c0.2-0.5,0.2-0.9,0.2-1.1c0-0.1,0-0.1,0-0.2c0,0,0,0-0.1,0
				c-0.1,0-0.3,0.2-0.7,0.7c-0.3,0.5-0.7,1.1-1.2,1.8c-0.4,0.8-0.9,1.6-1.3,2.6C1120.7,2365.4,1120.4,2366.3,1120.1,2367.4z"/>
			<path class="st1" d="M1132.5,2375.7c-0.5,0-1-0.1-1.3-0.4c-0.3-0.3-0.5-0.7-0.5-1.2c0-0.5,0.1-1,0.3-1.6s0.4-1.1,0.7-1.6
				c0.2-0.5,0.3-1,0.3-1.5c0-0.5-0.1-0.9-0.4-1.2c-0.3-0.3-0.6-0.5-0.9-0.7c-0.4,1-0.7,1.9-1.1,2.8c-0.4,0.9-0.7,1.5-1,2l-0.2-0.4
				c0.2-0.4,0.5-1.1,0.9-1.9c0.4-0.8,0.7-1.8,1.1-2.8c-0.2-0.2-0.2-0.4-0.2-0.6c0-0.5,0.1-0.9,0.4-1.2c0.3-0.3,0.5-0.5,0.6-0.5
				c0.2,0,0.3,0.1,0.3,0.2c0,0.2,0,0.3,0,0.4c0,0.1,0,0.2-0.1,0.5c-0.1,0.2-0.1,0.4-0.1,0.4c0,0.2,0.1,0.4,0.4,0.6
				c0.2,0.2,0.5,0.4,0.8,0.6c0.3,0.2,0.6,0.5,0.8,0.9c0.2,0.3,0.4,0.8,0.4,1.3c0,0.5-0.1,1-0.3,1.5c-0.2,0.5-0.4,1-0.6,1.5
				c-0.2,0.5-0.3,0.9-0.3,1.2c0,0.3,0.1,0.5,0.2,0.6c0.1,0.1,0.3,0.1,0.5,0.1c0.4,0,0.8-0.1,1.2-0.4c0.4-0.2,0.8-0.6,1.2-0.9
				c0.4-0.4,0.7-0.8,1-1.2s0.5-0.8,0.7-1.2l0.3,0.2c-0.3,0.7-0.7,1.4-1.2,2.1s-1.1,1.2-1.7,1.7S1133.2,2375.7,1132.5,2375.7z"/>
			<path class="st1" d="M1138.4,2375.7c-0.6,0-1.1-0.2-1.4-0.6c-0.3-0.4-0.4-0.9-0.4-1.5c0-0.4,0.1-0.9,0.2-1.4s0.3-1.2,0.5-1.8
				c0.2-0.6,0.5-1.2,0.8-1.8s0.6-1,0.9-1.4s0.7-0.5,1-0.5c0.1,0,0.3,0,0.4,0.1s0.2,0.2,0.2,0.4c0,0.2-0.1,0.5-0.4,1
				c-0.2,0.5-0.5,1-0.9,1.5s-0.6,1.2-0.9,1.8c-0.2,0.6-0.4,1.3-0.4,1.8c0,0.6,0.1,1,0.3,1.2c0.2,0.2,0.5,0.3,0.9,0.3
				c0.5,0,1.1-0.3,1.7-0.8c0.6-0.6,1.2-1.6,1.9-3l0.2,0.2c-0.5,1.4-1.1,2.5-2,3.3C1140.2,2375.4,1139.3,2375.7,1138.4,2375.7z
				 M1141.2,2364.3c-0.3,0-0.5-0.1-0.7-0.2c-0.2-0.1-0.3-0.3-0.3-0.6c0-0.3,0.2-0.7,0.6-0.9c0.4-0.3,0.8-0.4,1.1-0.4
				c0.2,0,0.4,0.1,0.6,0.2c0.1,0.1,0.2,0.3,0.2,0.6c0,0.3-0.2,0.6-0.5,0.9C1142,2364.1,1141.6,2364.3,1141.2,2364.3z"/>
			<path class="st1" d="M1144.9,2376.4c-0.7,0-1.3-0.2-1.8-0.5s-0.7-0.8-0.9-1.3c-0.2-0.5-0.3-1-0.3-1.5c0-0.5,0.1-0.9,0.2-1.1
				s0.3-0.5,0.5-0.6c0.2-0.1,0.4-0.2,0.5-0.3s0.3-0.1,0.3-0.2c0.5-0.5,0.9-1.1,1.3-1.7s0.7-1.2,1-1.9v-0.3c0-0.6,0.1-1.1,0.3-1.3
				c0.2-0.3,0.4-0.4,0.6-0.4c0.1,0,0.2,0,0.3,0.1c0.1,0.1,0.1,0.1,0.1,0.2c0,0.1,0,0.2-0.1,0.4c0,0.2-0.1,0.4-0.1,0.7
				c0,0.5,0.1,1.1,0.3,1.8c0.2,0.6,0.4,1.3,0.6,2c0.2,0.7,0.3,1.4,0.3,2.2c0,0.2,0,0.4,0,0.6s-0.1,0.4-0.1,0.6
				c0.6-0.1,1.1-0.4,1.6-0.8s1-1.1,1.4-2l0.2,0.2c-0.3,0.9-0.7,1.6-1.3,2.1c-0.6,0.5-1.3,0.8-2,0.9c-0.3,0.7-0.7,1.2-1.2,1.6
				S1145.5,2376.4,1144.9,2376.4z M1144.9,2375.5c0.2,0,0.4-0.1,0.8-0.2c0.3-0.1,0.6-0.5,0.7-1c-0.7-0.1-1.2-0.4-1.8-0.8
				c-0.5-0.4-0.9-0.8-1.1-1.2c-0.3,0-0.5,0.3-0.5,0.9c0,0.6,0.2,1.2,0.5,1.7C1143.8,2375.2,1144.3,2375.5,1144.9,2375.5z
				 M1146.5,2373.9c0-0.2,0.1-0.3,0.1-0.5c0-0.2,0-0.4,0-0.6c0-0.8-0.1-1.6-0.3-2.3c-0.2-0.8-0.3-1.5-0.5-2.2
				c-0.4,0.6-0.7,1.2-1.1,1.8c-0.4,0.6-0.8,1.1-1.1,1.4c0.2,0.5,0.6,1,1.1,1.5C1145.2,2373.4,1145.8,2373.7,1146.5,2373.9z"/>
			<path class="st1" d="M1152.6,2376.2c-0.7,0-1.2-0.2-1.6-0.6s-0.5-1-0.5-1.8c0-0.7,0.1-1.6,0.4-2.7c0.3-1.1,0.6-2.2,1-3.3
				c-0.2,0-0.3-0.1-0.4-0.1c-0.1,0-0.3-0.1-0.4-0.1v-0.5c0.1,0,0.3,0,0.4,0s0.4,0,0.6,0c0.3-0.9,0.7-1.8,1.1-2.6
				c0.4-0.8,0.8-1.6,1.1-2.2c0.4-0.7,0.7-1.2,1.1-1.6c0.3-0.4,0.6-0.6,0.9-0.6c0.1,0,0.2,0,0.3,0.1c0.1,0.1,0.2,0.2,0.2,0.4
				c0,0.3-0.2,0.7-0.5,1.4c-0.3,0.6-0.7,1.4-1.2,2.3c-0.5,0.9-1,1.8-1.4,2.9c0.1,0,0.3,0,0.4,0c0.1,0,0.3,0,0.4,0c0.5,0,1.1,0,1.6,0
				s1.2-0.1,1.7-0.1v0.4c-0.9,0.1-1.6,0.2-2.3,0.2c-0.7,0.1-1.3,0.1-1.8,0.1c-0.1,0-0.1,0-0.2,0c-0.1,0-0.1,0-0.2,0
				c-0.4,0.9-0.7,1.8-0.9,2.7c-0.3,0.9-0.4,1.8-0.4,2.7c0,0.7,0.1,1.2,0.3,1.5c0.2,0.3,0.5,0.5,1,0.5c0.8,0,1.6-0.4,2.4-1.1
				c0.8-0.8,1.5-1.8,2.1-3.1l0.3,0.2c-0.4,0.9-0.9,1.8-1.4,2.5c-0.6,0.8-1.2,1.3-1.9,1.8C1154,2376,1153.3,2376.2,1152.6,2376.2z"/>
			<path class="st1" d="M1159,2375.7c-0.6,0-1.1-0.2-1.4-0.6c-0.3-0.4-0.4-0.9-0.4-1.5c0-0.4,0.1-0.9,0.2-1.4s0.3-1.2,0.5-1.8
				c0.2-0.6,0.5-1.2,0.8-1.8s0.6-1,0.9-1.4s0.7-0.5,1-0.5c0.1,0,0.3,0,0.4,0.1s0.2,0.2,0.2,0.4c0,0.2-0.1,0.5-0.4,1
				c-0.2,0.5-0.5,1-0.9,1.5s-0.6,1.2-0.9,1.8c-0.2,0.6-0.4,1.3-0.4,1.8c0,0.6,0.1,1,0.3,1.2c0.2,0.2,0.5,0.3,0.9,0.3
				c0.5,0,1.1-0.3,1.7-0.8c0.6-0.6,1.2-1.6,1.9-3l0.2,0.2c-0.5,1.4-1.1,2.5-2,3.3C1160.8,2375.4,1159.9,2375.7,1159,2375.7z
				 M1161.8,2364.3c-0.3,0-0.5-0.1-0.7-0.2c-0.2-0.1-0.3-0.3-0.3-0.6c0-0.3,0.2-0.7,0.6-0.9c0.4-0.3,0.8-0.4,1.1-0.4
				c0.2,0,0.4,0.1,0.6,0.2c0.1,0.1,0.2,0.3,0.2,0.6c0,0.3-0.2,0.6-0.5,0.9C1162.6,2364.1,1162.2,2364.3,1161.8,2364.3z"/>
			<path class="st1" d="M1170.6,2375.6c-0.6,0-1-0.2-1.2-0.5c-0.3-0.3-0.4-0.7-0.4-1.1c0-0.3,0.1-0.7,0.2-1.1
				c0.1-0.4,0.2-0.8,0.3-1.2c0.1-0.4,0.2-0.8,0.2-1.2c0-0.5-0.1-0.8-0.3-1c-0.2-0.2-0.4-0.3-0.7-0.3c-0.5,0-1,0.2-1.5,0.6
				c-0.5,0.4-1,1-1.5,1.6c-0.5,0.7-0.9,1.3-1.3,2s-0.8,1.3-1.1,1.9c-0.3,0-0.5,0-0.7-0.1s-0.4-0.2-0.5-0.4c0-0.1,0.1-0.3,0.2-0.8
				c0.2-0.4,0.4-1,0.6-1.6s0.4-1.3,0.6-1.9c0.2-0.7,0.3-1.3,0.3-1.8c0.1-0.1,0.2-0.2,0.4-0.3s0.4-0.2,0.6-0.2c0.4,0,0.6,0.2,0.6,0.6
				c0,0.3-0.1,0.7-0.2,1.3c-0.1,0.6-0.3,1.3-0.5,2c0.4-0.7,0.9-1.4,1.4-2c0.5-0.7,1.1-1.2,1.7-1.7c0.6-0.4,1.2-0.7,1.8-0.7
				c0.6,0,1.1,0.2,1.3,0.7c0.3,0.5,0.4,1,0.4,1.5c0,0.5-0.1,1-0.2,1.4s-0.3,0.9-0.5,1.3c-0.2,0.4-0.2,0.8-0.2,1.2
				c0,0.4,0.1,0.6,0.2,0.7c0.1,0.1,0.3,0.2,0.5,0.2c0.4,0,0.8-0.2,1.2-0.6c0.4-0.4,0.8-0.9,1.1-1.5c0.4-0.6,0.7-1.2,1-1.8l0.3,0.3
				c-0.3,0.8-0.7,1.5-1.1,2.2s-0.9,1.1-1.3,1.5C1171.8,2375.4,1171.2,2375.6,1170.6,2375.6z"/>
			<path class="st1" d="M1175.1,2376.3c-0.5,0-0.9-0.2-1.2-0.5c-0.3-0.3-0.5-0.9-0.5-1.6c0-0.6,0.1-1.2,0.4-1.9c0.3-0.7,0.6-1.4,1-2
				c0.4-0.7,0.9-1.3,1.5-1.8c0.6-0.6,1.2-1,1.8-1.3c0.6-0.3,1.2-0.5,1.9-0.5c0.6,0,1.1,0.2,1.5,0.5c0.4,0.3,0.6,0.8,0.6,1.4
				c0,0.4-0.1,0.7-0.3,0.8c-0.2,0.2-0.5,0.2-0.8,0.2c0-0.1,0.1-0.3,0.1-0.4s0-0.3,0-0.4c0-0.4-0.1-0.7-0.3-1
				c-0.2-0.3-0.5-0.4-0.9-0.4c-0.4,0-0.9,0.2-1.3,0.5c-0.5,0.3-0.9,0.8-1.3,1.3c-0.4,0.5-0.8,1.1-1.1,1.8c-0.3,0.6-0.6,1.3-0.8,1.9
				c-0.2,0.6-0.3,1.2-0.3,1.6c0,0.6,0.2,1,0.6,1c0.4,0,0.8-0.2,1.2-0.5c0.4-0.4,0.9-0.8,1.3-1.4c0.4-0.6,0.9-1.1,1.3-1.7
				s0.8-1.1,1.1-1.6c0.1-0.1,0.1-0.1,0.1-0.1c0.1,0,0.2,0,0.4,0.1c0.1,0,0.3,0.1,0.4,0.2s0.2,0.2,0.2,0.3c0,0.2-0.1,0.4-0.2,0.6
				c-0.1,0.3-0.3,0.6-0.5,0.9c-0.2,0.3-0.3,0.7-0.5,1c-0.1,0.3-0.2,0.7-0.2,1c0,0.2,0.1,0.5,0.2,0.7c0.1,0.2,0.3,0.4,0.6,0.4
				c0.4,0,1-0.3,1.7-1c0.7-0.7,1.4-1.6,2.1-3l0.2,0.2c-0.3,0.9-0.8,1.7-1.3,2.4c-0.5,0.7-1.1,1.2-1.7,1.6s-1.2,0.6-1.7,0.6
				c-0.6,0-1-0.2-1.3-0.5s-0.4-0.8-0.4-1.2c0-0.1,0-0.2,0-0.3c0-0.1,0-0.3,0-0.4c-0.7,1-1.3,1.7-1.9,2.2
				C1176.3,2376,1175.7,2376.3,1175.1,2376.3z"/>
			<path class="st1" d="M1190.6,2377.3c-0.1-0.1-0.2-0.2-0.3-0.4c-0.1-0.2-0.1-0.3-0.1-0.5c0-0.3,0.1-0.7,0.2-1.1s0.3-0.8,0.5-1.1
				s0.4-0.5,0.7-0.5c0.2,0,0.3,0.1,0.4,0.2c0.1,0.1,0.2,0.3,0.2,0.5c-0.4,0.5-0.8,1-1,1.4
				C1191.1,2376.3,1190.9,2376.8,1190.6,2377.3z"/>
			<path class="st1" d="M1201.7,2377.3c-0.3-0.2-0.6-0.4-0.7-0.7s-0.1-0.4-0.1-0.6c0-0.5,0.2-1.1,0.5-1.9c0.3-0.8,0.8-1.7,1.3-2.7
				c0.5-1,1.1-2.1,1.8-3.2c-0.6,0-1.1-0.1-1.5-0.1c-0.4,0-0.8,0-1.1,0h-0.8c0.2-0.5,0.5-0.8,0.9-1s1-0.3,1.5-0.3
				c0.3,0,0.5,0,0.8,0.1c0.3,0,0.6,0.1,0.9,0.1c0.8-1.3,1.6-2.5,2.5-3.7c0.8-1.2,1.6-2.3,2.4-3.2c0.7-0.9,1.3-1.7,1.8-2.1
				c0.5-0.5,0.8-0.7,1.1-0.7c0.2,0,0.4,0.1,0.6,0.2s0.4,0.3,0.7,0.6c-0.2,0.1-0.4,0.5-0.6,1.1c-0.2,0.6-0.5,1.3-0.8,2.2
				c-0.3,0.9-0.5,1.8-0.8,2.8c-0.3,1-0.5,2.1-0.7,3.2s-0.4,2.1-0.5,3.1s-0.2,1.8-0.2,2.5c0,0.6,0.1,1.1,0.2,1.5s0.4,0.5,0.7,0.5
				c0.4,0,0.9-0.3,1.4-0.9c0.5-0.6,1.1-1.5,1.7-2.8l0.2,0.2c-0.5,1.3-1.1,2.4-1.8,3.3s-1.5,1.3-2.3,1.3c-0.6,0-1.1-0.3-1.4-0.9
				c-0.3-0.6-0.4-1.4-0.4-2.4c0-0.5,0-1.1,0.1-1.7c0.1-0.6,0.2-1.3,0.3-2c-0.7-0.1-1.3-0.2-1.9-0.3c-0.6-0.1-1.1-0.1-1.6-0.2
				c-0.7,1.4-1.5,2.9-2.2,4.5C1202.9,2374.3,1202.3,2375.8,1201.7,2377.3z M1209.4,2367.9c0.2-1.1,0.5-2.2,0.8-3.3
				c0.3-1.1,0.7-2.2,1-3.2c0.4-1,0.7-1.9,1-2.7c-0.5,0.3-1.1,0.9-1.7,1.7s-1.3,1.8-2,2.9c-0.7,1.2-1.4,2.4-2.2,3.8
				c0.5,0.1,1.1,0.2,1.6,0.4C1208.5,2367.6,1209,2367.8,1209.4,2367.9z"/>
			<path class="st1" d="M1217.2,2375.8c-0.7,0-1.2-0.2-1.5-0.7c-0.3-0.5-0.4-1.1-0.4-1.8c0-0.8,0.1-1.7,0.4-2.8
				c0.3-1.1,0.7-2.3,1.1-3.5s1-2.4,1.5-3.6c0.6-1.2,1.1-2.2,1.7-3.2s1.1-1.7,1.5-2.3c0.5-0.6,0.8-0.8,1.1-0.8c0.2,0,0.3,0.1,0.4,0.3
				c0.1,0.2,0.2,0.5,0.3,0.8c0.1,0.3,0.1,0.6,0.1,0.8c0,0.4-0.1,1-0.3,1.8s-0.5,1.5-0.9,2.4c-0.4,0.9-0.8,1.8-1.4,2.7
				c-0.5,0.9-1.1,1.8-1.7,2.6c-0.6,0.8-1.3,1.5-2,2.1c-0.1,0.5-0.2,0.9-0.2,1.3c-0.1,0.4-0.1,0.8-0.1,1.2c0,0.6,0.1,1.1,0.3,1.4
				s0.4,0.5,0.8,0.5c0.4,0,0.8-0.2,1.3-0.6c0.4-0.4,0.8-0.9,1.2-1.5c0.4-0.6,0.7-1.2,1-1.9l0.4,0.2c-0.6,1.4-1.3,2.5-2.1,3.4
				S1218.1,2375.8,1217.2,2375.8z M1217.4,2369.7c0.6-0.6,1.1-1.3,1.6-2c0.5-0.8,1-1.5,1.5-2.4c0.4-0.8,0.8-1.6,1.2-2.4
				s0.6-1.5,0.8-2.1c0.2-0.6,0.3-1.1,0.3-1.4c0-0.2,0-0.3-0.1-0.3c0,0-0.1-0.1-0.1-0.1c-0.1,0-0.3,0.2-0.7,0.6
				c-0.3,0.4-0.7,1-1.1,1.7c-0.4,0.7-0.8,1.5-1.3,2.4c-0.4,0.9-0.8,1.9-1.2,2.9S1217.7,2368.8,1217.4,2369.7z"/>
			<path class="st1" d="M1223.4,2376.2c-1,0-1.7-0.3-2.2-0.8c-0.5-0.6-0.7-1.2-0.7-2.1c0-0.7,0.2-1.5,0.5-2.4
				c0.4-0.8,0.8-1.6,1.4-2.3c0.6-0.7,1.2-1.3,2-1.8c0.7-0.5,1.4-0.7,2.1-0.7c0.4,0,0.7,0.1,1,0.3c0.3,0.2,0.5,0.6,0.5,1.2
				c0,0.6-0.2,1.2-0.5,1.8c-0.4,0.6-0.8,1.1-1.4,1.5c-0.6,0.4-1.2,0.8-1.9,1.1c-0.7,0.3-1.4,0.4-2,0.5c0,0.2-0.1,0.3-0.1,0.5
				c0,0.2,0,0.3,0,0.4c0,0.2,0,0.5,0.1,0.7c0.1,0.2,0.2,0.5,0.3,0.7c0.1,0.2,0.3,0.4,0.6,0.5c0.2,0.1,0.5,0.2,0.9,0.2
				c0.7,0,1.3-0.2,2-0.6c0.7-0.4,1.3-0.9,1.8-1.6c0.6-0.7,1-1.4,1.4-2.2l0.3,0.2c-0.4,1-1,1.9-1.6,2.6c-0.7,0.7-1.4,1.3-2.1,1.7
				S1224.2,2376.2,1223.4,2376.2z M1222.2,2372c0.4-0.2,0.9-0.4,1.4-0.7c0.5-0.3,1.1-0.6,1.5-1c0.5-0.4,0.9-0.8,1.2-1.3
				c0.3-0.5,0.5-1,0.5-1.5c0-0.2,0-0.3-0.1-0.4c-0.1-0.1-0.2-0.1-0.4-0.1c-0.4,0-0.8,0.2-1.2,0.5c-0.4,0.3-0.8,0.7-1.2,1.2
				c-0.4,0.5-0.7,1-1.1,1.6S1222.4,2371.4,1222.2,2372z"/>
			<path class="st1" d="M1229.8,2376.6c-0.1,0-0.1,0-0.2-0.1s-0.1-0.2-0.1-0.3c0-0.2,0.2-0.6,0.5-1.1c0.3-0.5,0.8-1.1,1.3-1.8
				c0.5-0.7,1.1-1.4,1.7-2.1c-0.1-0.8-0.2-1.5-0.3-2c-0.1-0.6-0.4-0.9-0.7-0.9c-0.4,0-0.7,0.2-1,0.5c-0.3,0.3-0.6,0.8-0.9,1.3
				c-0.3,0.5-0.6,1.1-0.9,1.7l-0.2-0.4c0.2-0.5,0.4-0.9,0.6-1.4c0.2-0.5,0.4-0.9,0.7-1.3s0.5-0.8,0.9-1s0.8-0.4,1.3-0.4
				c0.6,0,1.1,0.2,1.4,0.7s0.5,1,0.6,1.7c0.7-0.8,1.4-1.5,2-2.1c0.6-0.6,1-0.8,1.2-0.8c0.1,0,0.2,0,0.4,0.1s0.2,0.1,0.2,0.2
				c-0.2,0-0.4,0.2-0.8,0.5c-0.4,0.3-0.8,0.8-1.3,1.3c-0.5,0.5-1,1.1-1.5,1.8c0,0.5,0.1,1,0.1,1.5c0,0.5,0.1,0.9,0.2,1.3
				c0.1,0.4,0.2,0.7,0.3,1c0.2,0.2,0.4,0.4,0.7,0.4c0.3,0,0.6-0.1,0.9-0.4c0.3-0.2,0.6-0.6,0.9-1s0.6-0.8,0.9-1.2
				c0.3-0.4,0.5-0.8,0.6-1.2l0.2,0.2c-0.2,0.7-0.6,1.4-1,2.1c-0.4,0.7-1,1.2-1.5,1.7c-0.6,0.4-1.1,0.7-1.7,0.7
				c-0.5,0-0.8-0.2-1.1-0.5c-0.3-0.3-0.5-0.7-0.6-1.3c-0.1-0.5-0.2-1.1-0.3-1.7c-0.7,0.8-1.3,1.6-1.8,2.4c-0.6,0.7-1,1.3-1.3,1.7
				C1230,2376.5,1229.9,2376.6,1229.8,2376.6z"/>
			<path class="st1" d="M1244.9,2377.3c-0.1-0.1-0.2-0.2-0.3-0.4c-0.1-0.2-0.1-0.3-0.1-0.5c0-0.3,0.1-0.7,0.2-1.1s0.3-0.8,0.5-1.1
				c0.2-0.3,0.4-0.5,0.7-0.5c0.2,0,0.3,0.1,0.4,0.2s0.2,0.3,0.2,0.5c-0.4,0.5-0.8,1-1,1.4
				C1245.4,2376.3,1245.1,2376.8,1244.9,2377.3z"/>
			<path class="st1" d="M1266.1,2377.3c-0.6,0-1.2-0.1-1.8-0.4c-0.7-0.2-1.3-0.5-2-0.9c-0.7-0.3-1.4-0.7-2.1-1
				c-0.5,0.4-1.1,0.8-1.6,1c-0.5,0.2-1,0.4-1.5,0.4c-0.5,0-0.8-0.1-1.2-0.3c-0.3-0.2-0.6-0.5-0.7-0.8c-0.2-0.3-0.3-0.6-0.3-0.9
				c0-0.3,0.1-0.7,0.4-0.9c0.3-0.3,0.7-0.4,1.4-0.4c0.5,0,1,0.1,1.5,0.2c0.5,0.1,1.1,0.3,1.7,0.5c0.8-0.8,1.5-1.8,2.3-3
				c0.8-1.2,1.6-2.4,2.3-3.7c-0.6,0-1.1,0-1.5,0.1c-0.4,0-1,0.1-1.5,0.2l-0.8,0.1c0-0.5,0.2-0.8,0.5-1.1s0.7-0.4,1.3-0.5
				c0.5-0.1,1.1-0.2,1.7-0.2c0.2,0,0.4,0,0.5,0c0.2,0,0.4,0,0.5,0c0.6-1.1,1.2-2.2,1.7-3.3c0.5-1,0.9-1.9,1.1-2.6
				c-0.3-0.1-0.5-0.2-0.9-0.3s-0.6-0.3-1-0.4c-0.8-0.3-1.6-0.6-2.4-0.9s-1.6-0.4-2.3-0.4c-0.5,0-1,0.1-1.4,0.3
				c-0.4,0.2-0.7,0.6-1,1.1c-0.2,0.5-0.4,1.2-0.4,2.2c0,0.1,0,0.2,0,0.3c0,0.1,0,0.2,0,0.3c0,0.1,0,0.2,0,0.2
				c-0.5-0.1-0.8-0.3-1-0.6c-0.2-0.3-0.3-0.7-0.3-1.2c0-1.1,0.4-2,1.2-2.5c0.8-0.6,1.9-0.8,3.3-0.8c0.8,0,1.6,0.1,2.3,0.2
				c0.7,0.2,1.4,0.3,2.1,0.6c0.7,0.2,1.3,0.4,1.9,0.6s1.2,0.2,1.9,0.2c0.2,0,0.3,0,0.4,0c0.1,0,0.2,0,0.3,0
				c-0.2,0.2-0.4,0.4-0.6,0.5c-0.2,0.1-0.4,0.3-0.6,0.4c-0.3,0.9-0.8,1.9-1.3,3c-0.5,1.1-1.1,2.3-1.8,3.4c0.5,0,0.9,0.1,1.3,0.1
				s0.8,0.1,1.2,0.1c-0.2,0.3-0.4,0.5-0.6,0.6c-0.2,0.1-0.5,0.2-0.9,0.2c-0.4,0-0.9,0.1-1.6,0.1c-0.8,1.3-1.6,2.6-2.5,3.9
				s-1.8,2.3-2.7,3.2c1,0.3,2,0.6,3.1,0.9c1,0.3,1.9,0.4,2.7,0.4c0.3,0,0.6,0,0.9-0.1s0.5-0.2,0.8-0.3c-0.3,0.8-0.6,1.3-1,1.6
				C1267.2,2377.1,1266.7,2377.3,1266.1,2377.3z M1257,2375.8c0.3,0,0.7-0.1,1-0.3c0.4-0.2,0.8-0.5,1.1-0.9c-0.5-0.2-1-0.4-1.5-0.6
				c-0.5-0.1-0.9-0.2-1.3-0.2c-0.3,0-0.6,0.1-0.7,0.2s-0.2,0.3-0.2,0.4c0,0.3,0.1,0.6,0.4,0.9
				C1256.2,2375.6,1256.6,2375.8,1257,2375.8z"/>
			<path class="st1" d="M1271.6,2376.3c-0.5,0-0.9-0.2-1.2-0.5c-0.3-0.3-0.5-0.9-0.5-1.6c0-0.6,0.1-1.2,0.4-1.9c0.3-0.7,0.6-1.4,1-2
				c0.4-0.7,0.9-1.3,1.5-1.8c0.6-0.6,1.2-1,1.8-1.3c0.6-0.3,1.2-0.5,1.9-0.5s1.1,0.2,1.5,0.5c0.4,0.3,0.6,0.8,0.6,1.4
				c0,0.4-0.1,0.7-0.3,0.8c-0.2,0.2-0.5,0.2-0.8,0.2c0-0.1,0.1-0.3,0.1-0.4c0-0.2,0-0.3,0-0.4c0-0.4-0.1-0.7-0.3-1
				c-0.2-0.3-0.5-0.4-0.9-0.4c-0.4,0-0.9,0.2-1.3,0.5c-0.5,0.3-0.9,0.8-1.3,1.3c-0.4,0.5-0.8,1.1-1.1,1.8s-0.6,1.3-0.8,1.9
				c-0.2,0.6-0.3,1.2-0.3,1.6c0,0.6,0.2,1,0.6,1c0.4,0,0.8-0.2,1.2-0.5c0.4-0.4,0.9-0.8,1.3-1.4c0.4-0.6,0.9-1.1,1.3-1.7
				c0.4-0.6,0.8-1.1,1.1-1.6c0.1-0.1,0.1-0.1,0.1-0.1c0.1,0,0.2,0,0.4,0.1s0.3,0.1,0.4,0.2s0.2,0.2,0.2,0.3c0,0.2-0.1,0.4-0.2,0.6
				c-0.1,0.3-0.3,0.6-0.5,0.9c-0.2,0.3-0.3,0.7-0.5,1c-0.1,0.3-0.2,0.7-0.2,1c0,0.2,0.1,0.5,0.2,0.7s0.3,0.4,0.6,0.4
				c0.4,0,1-0.3,1.7-1c0.7-0.7,1.4-1.6,2.1-3l0.2,0.2c-0.3,0.9-0.8,1.7-1.3,2.4s-1.1,1.2-1.7,1.6c-0.6,0.4-1.2,0.6-1.7,0.6
				c-0.6,0-1-0.2-1.3-0.5c-0.3-0.4-0.4-0.8-0.4-1.2c0-0.1,0-0.2,0-0.3c0-0.1,0-0.3,0-0.4c-0.7,1-1.3,1.7-1.9,2.2
				C1272.8,2376,1272.2,2376.3,1271.6,2376.3z"/>
			<path class="st1" d="M1282.2,2375.8c-0.3,0-0.5-0.1-0.8-0.2s-0.5-0.4-0.7-0.7c-0.2-0.3-0.3-0.7-0.3-1.2c0-0.5,0.1-1.2,0.4-1.8
				s0.6-1.4,1-2c0.4-0.7,0.9-1.3,1.5-1.9c0.6-0.6,1.1-1,1.7-1.4c0.6-0.3,1.2-0.5,1.8-0.5c0.3,0,0.6,0.1,0.8,0.2s0.3,0.3,0.3,0.6
				c0,0.1,0,0.1,0,0.2c0,0,0,0.1,0,0.2c-0.1-0.1-0.2-0.2-0.3-0.3s-0.3-0.1-0.6-0.1c-0.5,0-1,0.2-1.5,0.5c-0.5,0.3-0.9,0.8-1.3,1.3
				c-0.4,0.5-0.8,1.1-1.1,1.7c-0.3,0.6-0.5,1.2-0.7,1.7c-0.2,0.6-0.2,1-0.2,1.4c0,0.4,0.1,0.7,0.2,0.9c0.2,0.2,0.4,0.3,0.6,0.3
				c0.4,0,0.9-0.3,1.5-0.8s1.2-1.4,1.9-2.4c0.6-1,1.2-2.2,1.7-3.6c0.3-1,0.7-1.9,1.1-2.9s0.7-2,1.1-2.9c0.4-0.9,0.7-1.7,1.1-2.5
				c0.4-0.7,0.7-1.3,1-1.7c0.3-0.4,0.6-0.6,0.9-0.6c0.1,0,0.2,0.1,0.3,0.2s0.1,0.2,0.1,0.4c0,0.3-0.1,0.7-0.4,1.4
				c-0.3,0.6-0.6,1.4-1,2.3s-0.9,1.9-1.3,2.9c-0.5,1-0.9,2.1-1.3,3.2c-0.4,1.1-0.8,2.1-1,3.1c-0.3,1-0.4,1.9-0.4,2.8
				c0,0.5,0,0.8,0.1,1c0,0.2,0.2,0.3,0.5,0.3c0.3,0,0.7-0.2,1.2-0.5s0.9-0.7,1.3-1.3c0.4-0.5,0.8-1.2,1.2-2l0.3,0.2
				c-0.3,0.8-0.7,1.6-1.2,2.3c-0.5,0.7-1.1,1.2-1.7,1.6c-0.6,0.4-1.2,0.6-1.7,0.6c-0.6,0-1-0.2-1.2-0.6c-0.2-0.4-0.3-0.8-0.3-1.3
				c0-0.3,0-0.7,0.1-1.1c0.1-0.5,0.2-1,0.3-1.5c-0.5,0.9-1,1.7-1.6,2.4c-0.6,0.7-1.1,1.3-1.7,1.7
				C1283.2,2375.6,1282.7,2375.8,1282.2,2375.8z"/>
			<path class="st1" d="M1293.1,2376.3c-0.5,0-0.9-0.2-1.2-0.5c-0.3-0.3-0.5-0.9-0.5-1.6c0-0.6,0.1-1.2,0.4-1.9c0.3-0.7,0.6-1.4,1-2
				c0.4-0.7,0.9-1.3,1.5-1.8c0.6-0.6,1.2-1,1.8-1.3c0.6-0.3,1.2-0.5,1.9-0.5c0.6,0,1.1,0.2,1.5,0.5c0.4,0.3,0.6,0.8,0.6,1.4
				c0,0.4-0.1,0.7-0.3,0.8c-0.2,0.2-0.5,0.2-0.8,0.2c0-0.1,0.1-0.3,0.1-0.4s0-0.3,0-0.4c0-0.4-0.1-0.7-0.3-1
				c-0.2-0.3-0.5-0.4-0.9-0.4c-0.4,0-0.9,0.2-1.3,0.5c-0.5,0.3-0.9,0.8-1.3,1.3c-0.4,0.5-0.8,1.1-1.1,1.8c-0.3,0.6-0.6,1.3-0.8,1.9
				c-0.2,0.6-0.3,1.2-0.3,1.6c0,0.6,0.2,1,0.6,1c0.4,0,0.8-0.2,1.2-0.5c0.4-0.4,0.9-0.8,1.3-1.4c0.4-0.6,0.9-1.1,1.3-1.7
				s0.8-1.1,1.1-1.6c0.1-0.1,0.1-0.1,0.1-0.1c0.1,0,0.2,0,0.4,0.1c0.1,0,0.3,0.1,0.4,0.2s0.2,0.2,0.2,0.3c0,0.2-0.1,0.4-0.2,0.6
				c-0.1,0.3-0.3,0.6-0.5,0.9c-0.2,0.3-0.3,0.7-0.5,1c-0.1,0.3-0.2,0.7-0.2,1c0,0.2,0.1,0.5,0.2,0.7c0.1,0.2,0.3,0.4,0.6,0.4
				c0.4,0,1-0.3,1.7-1c0.7-0.7,1.4-1.6,2.1-3l0.2,0.2c-0.3,0.9-0.8,1.7-1.3,2.4c-0.5,0.7-1.1,1.2-1.7,1.6s-1.2,0.6-1.7,0.6
				c-0.6,0-1-0.2-1.3-0.5s-0.4-0.8-0.4-1.2c0-0.1,0-0.2,0-0.3c0-0.1,0-0.3,0-0.4c-0.7,1-1.3,1.7-1.9,2.2
				C1294.3,2376,1293.7,2376.3,1293.1,2376.3z"/>
			<path class="st1" d="M1303.3,2382.1c-0.4,0-0.7-0.1-1-0.3c-0.3-0.2-0.4-0.6-0.4-1c0-0.5,0.1-1,0.4-1.4c0.3-0.4,0.6-0.8,1-1.1
				s0.9-0.7,1.5-1s1.1-0.6,1.7-0.9c0.2-0.6,0.4-1.3,0.7-2.1c0.2-0.8,0.4-1.6,0.7-2.5c-0.5,0.9-1,1.6-1.6,2.2
				c-0.6,0.6-1.2,0.9-1.8,0.9c-0.3,0-0.6-0.1-0.9-0.2s-0.5-0.4-0.7-0.7c-0.2-0.3-0.3-0.7-0.3-1.1c0-0.5,0.1-1,0.2-1.6
				c0.1-0.6,0.3-1.2,0.6-1.8s0.4-1.1,0.7-1.4s0.4-0.6,0.6-0.6c0.1,0,0.2,0,0.3,0.1s0.3,0.1,0.5,0.2c0.1,0.1,0.2,0.2,0.2,0.3
				c-0.1,0.2-0.3,0.5-0.5,0.9c-0.2,0.4-0.3,0.8-0.5,1.3c-0.2,0.5-0.3,1-0.4,1.4s-0.2,0.9-0.2,1.2c0,0.3,0.1,0.5,0.2,0.7
				c0.1,0.2,0.3,0.3,0.7,0.3c0.3,0,0.6-0.2,1-0.5c0.4-0.3,0.7-0.7,1.1-1.2c0.4-0.5,0.7-1,1-1.5c0-0.2,0.1-0.4,0.1-0.6
				s0.1-0.4,0.1-0.6c0-0.2,0.2-0.5,0.3-0.8c0.2-0.3,0.5-0.5,0.9-0.5c0.1,0,0.2,0,0.2,0c0.1,0,0.2,0,0.3,0.1c0,0.3-0.1,0.8-0.2,1.5
				c-0.2,0.7-0.4,1.6-0.6,2.5c-0.3,1-0.6,2-1,3c0.7-0.3,1.5-0.8,2.2-1.5c0.7-0.7,1.3-1.6,1.7-2.8l0.3,0.2c-0.2,0.8-0.6,1.5-1.1,2.1
				c-0.5,0.6-1,1.1-1.6,1.5c-0.6,0.4-1.2,0.8-1.8,1.1c-0.4,1.1-0.9,2.1-1.3,3c-0.5,0.9-1,1.7-1.5,2.3
				C1304.4,2381.8,1303.9,2382.1,1303.3,2382.1z M1303.2,2381.3c0.2,0,0.6-0.3,1.2-1c0.6-0.7,1.2-1.8,1.8-3.5
				c-0.6,0.4-1.2,0.7-1.8,1.1c-0.6,0.4-1,0.7-1.3,1.2c-0.3,0.4-0.5,0.9-0.5,1.4c0,0.1,0,0.3,0.1,0.5
				C1302.8,2381.2,1303,2381.3,1303.2,2381.3z"/>
			<path class="st1" d="M1312.6,2376.3c-0.5,0-0.9-0.2-1.2-0.5c-0.3-0.3-0.5-0.9-0.5-1.6c0-0.6,0.1-1.2,0.4-1.9c0.3-0.7,0.6-1.4,1-2
				c0.4-0.7,0.9-1.3,1.5-1.8c0.6-0.6,1.2-1,1.8-1.3c0.6-0.3,1.2-0.5,1.9-0.5c0.6,0,1.1,0.2,1.5,0.5c0.4,0.3,0.6,0.8,0.6,1.4
				c0,0.4-0.1,0.7-0.3,0.8c-0.2,0.2-0.5,0.2-0.8,0.2c0-0.1,0.1-0.3,0.1-0.4s0-0.3,0-0.4c0-0.4-0.1-0.7-0.3-1
				c-0.2-0.3-0.5-0.4-0.9-0.4c-0.4,0-0.9,0.2-1.3,0.5c-0.5,0.3-0.9,0.8-1.3,1.3c-0.4,0.5-0.8,1.1-1.1,1.8c-0.3,0.6-0.6,1.3-0.8,1.9
				c-0.2,0.6-0.3,1.2-0.3,1.6c0,0.6,0.2,1,0.6,1c0.4,0,0.8-0.2,1.2-0.5c0.4-0.4,0.9-0.8,1.3-1.4c0.4-0.6,0.9-1.1,1.3-1.7
				s0.8-1.1,1.1-1.6c0.1-0.1,0.1-0.1,0.1-0.1c0.1,0,0.2,0,0.4,0.1c0.1,0,0.3,0.1,0.4,0.2s0.2,0.2,0.2,0.3c0,0.2-0.1,0.4-0.2,0.6
				c-0.1,0.3-0.3,0.6-0.5,0.9c-0.2,0.3-0.3,0.7-0.5,1c-0.1,0.3-0.2,0.7-0.2,1c0,0.2,0.1,0.5,0.2,0.7c0.1,0.2,0.3,0.4,0.6,0.4
				c0.4,0,1-0.3,1.7-1c0.7-0.7,1.4-1.6,2.1-3l0.2,0.2c-0.3,0.9-0.8,1.7-1.3,2.4c-0.5,0.7-1.1,1.2-1.7,1.6s-1.2,0.6-1.7,0.6
				c-0.6,0-1-0.2-1.3-0.5s-0.4-0.8-0.4-1.2c0-0.1,0-0.2,0-0.3c0-0.1,0-0.3,0-0.4c-0.7,1-1.3,1.7-1.9,2.2
				C1313.8,2376,1313.2,2376.3,1312.6,2376.3z"/>
			<path class="st1" d="M1322,2377.3c-0.1-0.1-0.2-0.2-0.3-0.4c-0.1-0.2-0.1-0.3-0.1-0.5c0-0.3,0.1-0.7,0.2-1.1s0.3-0.8,0.5-1.1
				c0.2-0.3,0.4-0.5,0.7-0.5c0.2,0,0.3,0.1,0.4,0.2s0.2,0.3,0.2,0.5c-0.4,0.5-0.8,1-1,1.4C1322.4,2376.3,1322.2,2376.8,1322,2377.3z
				"/>
			<path class="st1" d="M1336.4,2377.3c-0.5,0-1-0.1-1.4-0.2s-0.8-0.4-1.1-0.9c0.2-0.8,0.4-1.7,0.6-2.6c0.2-0.9,0.5-1.9,0.7-2.8
				c0.3-1,0.5-1.9,0.8-2.9c0.3-0.9,0.5-1.8,0.8-2.6c0.3-0.8,0.5-1.5,0.7-2.1c0.2-0.6,0.4-1.1,0.5-1.4c0-0.1,0.1-0.3,0.2-0.6
				c0.1-0.3,0.2-0.5,0.4-0.8c0.2-0.3,0.3-0.5,0.5-0.7s0.4-0.3,0.7-0.3c0.2,0,0.4,0.1,0.7,0.2c-0.5,1.2-1,2.5-1.5,4s-1,2.9-1.4,4.5
				c-0.5,1.5-0.9,3-1.3,4.5c-0.4,1.5-0.7,2.8-0.9,4c0.2,0,0.4,0.1,0.6,0.1c0.1,0,0.3,0,0.5,0c1,0,2-0.2,2.9-0.7
				c0.9-0.5,1.8-1.2,2.6-2s1.5-1.8,2.1-2.9c0.6-1.1,1.1-2.3,1.4-3.5c0.3-1.2,0.5-2.5,0.5-3.7c0-1.3-0.2-2.5-0.6-3.3
				c-0.4-0.9-1-1.5-1.7-1.9c-0.7-0.4-1.6-0.6-2.5-0.6c-1,0-1.9,0.2-2.8,0.6c-0.8,0.4-1.5,1-1.9,1.7c-0.5,0.7-0.7,1.6-0.7,2.5
				c0,0.2,0,0.4,0,0.5c0,0.1,0.1,0.3,0.1,0.4c-0.5,0-0.9-0.1-1.1-0.4s-0.3-0.6-0.3-1c0-0.6,0.2-1.2,0.6-1.8c0.4-0.6,0.9-1.1,1.6-1.6
				c0.7-0.5,1.5-0.9,2.4-1.2c0.9-0.3,1.9-0.5,2.9-0.5c1.4,0,2.6,0.3,3.4,0.9c0.9,0.6,1.5,1.4,1.9,2.5c0.4,1,0.6,2.2,0.6,3.5
				c0,1.4-0.2,2.8-0.6,4.2s-1,2.5-1.8,3.6c-0.7,1.1-1.6,2.1-2.6,2.9c-1,0.8-2,1.5-3.1,1.9C1338.6,2377,1337.5,2377.3,1336.4,2377.3z
				"/>
			<path class="st1" d="M1349.2,2376.3c-0.5,0-0.9-0.2-1.2-0.5c-0.3-0.3-0.5-0.9-0.5-1.6c0-0.6,0.1-1.2,0.4-1.9c0.3-0.7,0.6-1.4,1-2
				c0.4-0.7,0.9-1.3,1.5-1.8c0.6-0.6,1.2-1,1.8-1.3c0.6-0.3,1.2-0.5,1.9-0.5s1.1,0.2,1.5,0.5c0.4,0.3,0.6,0.8,0.6,1.4
				c0,0.4-0.1,0.7-0.3,0.8c-0.2,0.2-0.5,0.2-0.8,0.2c0-0.1,0.1-0.3,0.1-0.4c0-0.2,0-0.3,0-0.4c0-0.4-0.1-0.7-0.3-1
				c-0.2-0.3-0.5-0.4-0.9-0.4c-0.4,0-0.9,0.2-1.3,0.5c-0.5,0.3-0.9,0.8-1.3,1.3c-0.4,0.5-0.8,1.1-1.1,1.8s-0.6,1.3-0.8,1.9
				c-0.2,0.6-0.3,1.2-0.3,1.6c0,0.6,0.2,1,0.6,1c0.4,0,0.8-0.2,1.2-0.5c0.4-0.4,0.9-0.8,1.3-1.4c0.4-0.6,0.9-1.1,1.3-1.7
				c0.4-0.6,0.8-1.1,1.1-1.6c0.1-0.1,0.1-0.1,0.1-0.1c0.1,0,0.2,0,0.4,0.1s0.3,0.1,0.4,0.2s0.2,0.2,0.2,0.3c0,0.2-0.1,0.4-0.2,0.6
				c-0.1,0.3-0.3,0.6-0.5,0.9c-0.2,0.3-0.3,0.7-0.5,1c-0.1,0.3-0.2,0.7-0.2,1c0,0.2,0.1,0.5,0.2,0.7s0.3,0.4,0.6,0.4
				c0.4,0,1-0.3,1.7-1c0.7-0.7,1.4-1.6,2.1-3l0.2,0.2c-0.3,0.9-0.8,1.7-1.3,2.4s-1.1,1.2-1.7,1.6c-0.6,0.4-1.2,0.6-1.7,0.6
				c-0.6,0-1-0.2-1.3-0.5c-0.3-0.4-0.4-0.8-0.4-1.2c0-0.1,0-0.2,0-0.3c0-0.1,0-0.3,0-0.4c-0.7,1-1.3,1.7-1.9,2.2
				C1350.3,2376,1349.8,2376.3,1349.2,2376.3z"/>
			<path class="st1" d="M1359.9,2376.1c-0.5,0-0.8-0.3-1-0.8s-0.3-1.2-0.3-2c0,0,0-0.3,0-0.8c0-0.5,0.1-1.3,0.1-2.5
				c0-0.5,0.1-0.8,0.1-0.9c0.1-0.2,0.3-0.2,0.6-0.2c0.3,0,0.4,0.1,0.5,0.2s0.1,0.3,0.1,0.6c0,0.5,0,1.2-0.1,1.9
				c-0.1,0.7-0.1,1.4-0.1,2.1c0,0.5,0,0.8,0.1,1.1c0.1,0.2,0.2,0.3,0.4,0.3c0.3,0,0.6-0.2,0.9-0.5c0.3-0.3,0.7-0.8,1.1-1.3
				c0.4-0.6,0.7-1.2,1-1.8s0.6-1.2,0.9-1.8c0-1.1,0.1-1.9,0.3-2.3c0.2-0.4,0.4-0.6,0.7-0.6c0.3,0,0.5,0.1,0.7,0.3
				c0.1,0.2,0.2,0.4,0.2,0.6c0,0.2-0.1,0.4-0.2,0.7c-0.1,0.2-0.3,0.5-0.4,0.9c-0.1,0.4-0.2,1-0.2,1.7c0,0.3,0,0.5,0.1,0.8
				s0.1,0.5,0.3,0.7c0.2,0.2,0.4,0.3,0.7,0.3s0.7-0.1,1-0.4s0.6-0.8,0.9-1.4l0.3,0.2c-0.3,0.8-0.7,1.4-1.1,1.7
				c-0.4,0.3-0.8,0.4-1.2,0.4c-0.5,0-1-0.2-1.3-0.6c-0.3-0.4-0.6-1-0.7-1.8c-0.4,0.8-0.8,1.6-1.3,2.4c-0.5,0.8-1,1.4-1.6,1.9
				C1360.9,2375.8,1360.4,2376.1,1359.9,2376.1z"/>
			<path class="st1" d="M1369.7,2375.7c-0.6,0-1.1-0.2-1.4-0.6c-0.3-0.4-0.4-0.9-0.4-1.5c0-0.4,0.1-0.9,0.2-1.4s0.3-1.2,0.5-1.8
				c0.2-0.6,0.5-1.2,0.8-1.8c0.3-0.6,0.6-1,0.9-1.4c0.3-0.4,0.7-0.5,1-0.5c0.1,0,0.3,0,0.4,0.1s0.2,0.2,0.2,0.4c0,0.2-0.1,0.5-0.4,1
				c-0.2,0.5-0.5,1-0.9,1.5s-0.6,1.2-0.9,1.8c-0.2,0.6-0.4,1.3-0.4,1.8c0,0.6,0.1,1,0.3,1.2c0.2,0.2,0.5,0.3,0.9,0.3
				c0.5,0,1.1-0.3,1.7-0.8s1.2-1.6,1.9-3l0.2,0.2c-0.5,1.4-1.1,2.5-2,3.3C1371.5,2375.4,1370.6,2375.7,1369.7,2375.7z
				 M1372.5,2364.3c-0.3,0-0.5-0.1-0.7-0.2c-0.2-0.1-0.3-0.3-0.3-0.6c0-0.3,0.2-0.7,0.6-0.9c0.4-0.3,0.8-0.4,1.1-0.4
				c0.2,0,0.4,0.1,0.6,0.2c0.1,0.1,0.2,0.3,0.2,0.6c0,0.3-0.2,0.6-0.5,0.9C1373.2,2364.1,1372.9,2364.3,1372.5,2364.3z"/>
			<path class="st1" d="M1375.1,2375.8c-0.3,0-0.5-0.1-0.8-0.2s-0.5-0.4-0.7-0.7c-0.2-0.3-0.3-0.7-0.3-1.2c0-0.5,0.1-1.2,0.4-1.8
				s0.6-1.4,1-2c0.4-0.7,0.9-1.3,1.5-1.9c0.6-0.6,1.1-1,1.7-1.4c0.6-0.3,1.2-0.5,1.8-0.5c0.3,0,0.6,0.1,0.8,0.2s0.3,0.3,0.3,0.6
				c0,0.1,0,0.1,0,0.2c0,0,0,0.1,0,0.2c-0.1-0.1-0.2-0.2-0.3-0.3s-0.3-0.1-0.6-0.1c-0.5,0-1,0.2-1.5,0.5c-0.5,0.3-0.9,0.8-1.3,1.3
				c-0.4,0.5-0.8,1.1-1.1,1.7c-0.3,0.6-0.5,1.2-0.7,1.7c-0.2,0.6-0.2,1-0.2,1.4c0,0.4,0.1,0.7,0.2,0.9c0.2,0.2,0.4,0.3,0.6,0.3
				c0.4,0,0.9-0.3,1.5-0.8s1.2-1.4,1.9-2.4c0.6-1,1.2-2.2,1.7-3.6c0.3-1,0.7-1.9,1.1-2.9s0.7-2,1.1-2.9c0.4-0.9,0.7-1.7,1.1-2.5
				c0.4-0.7,0.7-1.3,1-1.7c0.3-0.4,0.6-0.6,0.9-0.6c0.1,0,0.2,0.1,0.3,0.2s0.1,0.2,0.1,0.4c0,0.3-0.1,0.7-0.4,1.4
				c-0.3,0.6-0.6,1.4-1,2.3s-0.9,1.9-1.3,2.9c-0.5,1-0.9,2.1-1.3,3.2c-0.4,1.1-0.8,2.1-1,3.1c-0.3,1-0.4,1.9-0.4,2.8
				c0,0.5,0,0.8,0.1,1c0,0.2,0.2,0.3,0.5,0.3c0.3,0,0.7-0.2,1.2-0.5s0.9-0.7,1.3-1.3c0.4-0.5,0.8-1.2,1.2-2l0.3,0.2
				c-0.3,0.8-0.7,1.6-1.2,2.3c-0.5,0.7-1.1,1.2-1.7,1.6c-0.6,0.4-1.2,0.6-1.7,0.6c-0.6,0-1-0.2-1.2-0.6c-0.2-0.4-0.3-0.8-0.3-1.3
				c0-0.3,0-0.7,0.1-1.1c0.1-0.5,0.2-1,0.3-1.5c-0.5,0.9-1,1.7-1.6,2.4c-0.6,0.7-1.1,1.3-1.7,1.7
				C1376.1,2375.6,1375.6,2375.8,1375.1,2375.8z"/>
			<path class="st1" d="M1385,2377.3c-0.1-0.1-0.2-0.2-0.3-0.4c-0.1-0.2-0.1-0.3-0.1-0.5c0-0.3,0.1-0.7,0.2-1.1
				c0.1-0.4,0.3-0.8,0.5-1.1c0.2-0.3,0.4-0.5,0.7-0.5c0.2,0,0.3,0.1,0.4,0.2s0.2,0.3,0.2,0.5c-0.4,0.5-0.8,1-1,1.4
				C1385.5,2376.3,1385.3,2376.8,1385,2377.3z"/>
			<path class="st1" d="M1400.5,2377.3c-0.9,0-1.7-0.2-2.4-0.5c-0.8-0.3-1.4-0.8-1.8-1.5c-0.5-0.7-0.7-1.5-0.7-2.5
				c0-0.9,0.2-1.5,0.5-2c0.3-0.5,0.7-0.8,1.2-1c0.5-0.2,0.9-0.3,1.3-0.3c-0.4,0.5-0.7,1-1,1.6s-0.3,1.2-0.3,1.7
				c0,0.6,0.1,1.2,0.4,1.7c0.3,0.5,0.7,1,1.2,1.3c0.5,0.3,1.2,0.5,2,0.5c0.7,0,1.4-0.1,2.1-0.4c0.7-0.3,1.2-0.7,1.7-1.2
				c0.4-0.5,0.7-1.2,0.7-2c0-0.7-0.2-1.3-0.5-1.8c-0.3-0.5-0.8-1-1.3-1.4s-1.1-0.8-1.7-1.1c-0.6-0.4-1.2-0.8-1.7-1.2
				c-0.5-0.4-1-0.9-1.3-1.4c-0.3-0.5-0.5-1.2-0.5-1.9c0-0.7,0.2-1.4,0.5-2.2c0.3-0.8,0.8-1.5,1.4-2.2c0.6-0.7,1.3-1.2,2.1-1.7
				c0.8-0.4,1.8-0.6,2.8-0.6c0.9,0,1.6,0.2,1.9,0.7s0.5,1.1,0.5,1.8c0,0.6-0.1,1.2-0.3,1.9c-0.2,0.7-0.4,1.3-0.7,2
				c-0.3,0.6-0.6,1.2-0.8,1.6c-0.3-0.1-0.5-0.2-0.6-0.4s-0.2-0.4-0.2-0.7c0-0.4,0.1-0.8,0.2-1.2c0.1-0.5,0.3-0.9,0.5-1.4
				c0.2-0.5,0.3-1,0.5-1.4c0.1-0.5,0.2-0.9,0.2-1.2c0-0.3-0.1-0.6-0.3-0.8c-0.2-0.2-0.5-0.3-1-0.3c-0.7,0-1.4,0.2-2.1,0.5
				c-0.6,0.4-1.2,0.8-1.7,1.4c-0.5,0.6-0.8,1.2-1.1,1.8c-0.3,0.6-0.4,1.2-0.4,1.7c0,0.6,0.2,1.1,0.5,1.6c0.3,0.4,0.8,0.8,1.3,1.2
				s1.1,0.7,1.7,1.1s1.2,0.8,1.7,1.2s1,0.9,1.3,1.5c0.3,0.6,0.5,1.3,0.5,2.2c0,0.9-0.2,1.6-0.5,2.3c-0.4,0.7-0.8,1.2-1.5,1.7
				c-0.6,0.4-1.3,0.8-2,1C1401.9,2377.1,1401.2,2377.3,1400.5,2377.3z"/>
			<path class="st1" d="M1413.4,2377.3c-0.9,0-1.7-0.3-2.4-0.8c-0.7-0.5-1.2-1.2-1.6-2.2c-0.4-0.9-0.6-2-0.6-3.3
				c0-1.3,0.2-2.6,0.6-3.9c0.4-1.3,0.9-2.6,1.6-3.8c0.7-1.2,1.4-2.3,2.2-3.2c0.8-0.9,1.7-1.7,2.6-2.2c0.9-0.5,1.8-0.8,2.7-0.8
				c0.3,0,0.6,0,0.8,0.1s0.4,0.1,0.6,0.2c-0.1,0-0.2,0-0.2,0c0,0,0,0-0.1,0c-0.8,0-1.6,0.3-2.5,0.9c-0.8,0.6-1.6,1.3-2.4,2.3
				c-0.8,1-1.4,2.1-2,3.3c-0.6,1.2-1.1,2.5-1.4,3.8c-0.3,1.3-0.5,2.6-0.5,3.8c0,0.9,0.1,1.7,0.3,2.5c0.2,0.8,0.6,1.4,1,1.8
				c0.5,0.5,1.1,0.7,1.8,0.7c0.9,0,1.7-0.3,2.5-0.9c0.8-0.6,1.5-1.4,2.1-2.3c0.6-1,1.2-2.1,1.6-3.3c0.4-1.2,0.8-2.5,1-3.7
				c0.2-1.3,0.4-2.5,0.4-3.7c0-0.5,0-1-0.1-1.5c-0.1-0.5-0.2-1-0.3-1.4c-0.2-0.4-0.4-0.6-0.6-0.6c-0.3,0-0.6,0.2-0.9,0.6
				s-0.7,0.8-1,1.4c-0.3,0.6-0.6,1.2-0.8,1.8c-0.2,0.6-0.4,1.1-0.5,1.6c-0.4-0.1-0.7-0.3-0.9-0.5s-0.3-0.5-0.3-0.7
				c0-0.4,0.1-0.9,0.4-1.5c0.3-0.5,0.7-1.1,1.1-1.6s0.9-0.9,1.4-1.2c0.5-0.3,0.9-0.5,1.3-0.5c0.4,0,0.7,0.2,1,0.5
				c0.3,0.3,0.5,0.7,0.6,1.2c0.1,0.5,0.3,1,0.3,1.6c0.1,0.6,0.1,1.1,0.1,1.6c0,1.8-0.2,3.5-0.6,5c-0.4,1.5-0.9,2.8-1.6,3.9
				s-1.4,2.1-2.2,2.9s-1.6,1.4-2.5,1.7S1414.1,2377.3,1413.4,2377.3z"/>
			<path class="st1" d="M1425.1,2377.3c-0.4,0-0.8-0.1-1.1-0.4c-0.3-0.2-0.5-0.5-0.5-0.9c0-0.2,0-0.4,0.1-0.7
				c0.1-0.3,0.1-0.5,0.2-0.7c0.5-1.6,1-3.2,1.4-4.6c0.4-1.4,0.9-2.8,1.3-4.1c0.4-1.3,0.9-2.7,1.4-4c0.5-1.3,1.1-2.7,1.7-4.2
				c-0.6,0.1-1.1,0.3-1.6,0.5c-0.5,0.2-0.8,0.4-1.1,0.6c-0.3,0.2-0.5,0.3-0.6,0.3c-0.1,0-0.2,0-0.3-0.1s-0.2-0.2-0.3-0.3
				s-0.1-0.2-0.1-0.3c0.4-0.2,0.9-0.4,1.5-0.6s1.2-0.4,1.8-0.5c0.6-0.2,1.3-0.2,2-0.2c0.7,0,1.4,0.1,2.1,0.3c0.7,0.2,1.4,0.5,2,0.9
				c0.6,0.4,1.1,0.9,1.4,1.5c0.4,0.6,0.5,1.3,0.5,2.1c0,0.9-0.2,1.6-0.5,2.2c-0.4,0.6-0.8,1.1-1.4,1.6s-1.2,0.8-1.9,1
				c-0.7,0.3-1.4,0.5-2.1,0.6s-1.3,0.2-1.8,0.3c-0.5,0-0.9,0.1-1.2,0.1h-0.2c-0.5,1.7-0.9,3.4-1.4,5.1S1425.5,2375.9,1425.1,2377.3z
				 M1427.8,2367.3c0.9,0,1.7-0.2,2.6-0.5s1.7-0.6,2.4-1.1c0.7-0.5,1.3-1.1,1.8-1.8c0.5-0.7,0.7-1.5,0.7-2.5c0-0.9-0.2-1.6-0.6-2.2
				c-0.4-0.6-0.9-1-1.6-1.3s-1.4-0.4-2.1-0.4c-0.6,1.2-1.2,2.7-1.7,4.4C1428.8,2363.7,1428.3,2365.5,1427.8,2367.3z"/>
			<path class="st1" d="M1436.8,2377.3c0.1-0.6,0.2-1.2,0.3-1.8c0.1-0.6,0.3-1.3,0.5-2c0.2-0.8,0.4-1.6,0.7-2.6
				c0.3-1,0.6-2.2,1.1-3.5c-0.3,0-0.5,0-0.8,0.1c-0.3,0-0.5,0.1-0.8,0.1c0-0.4,0.2-0.7,0.6-1c0.4-0.2,0.8-0.4,1.4-0.5
				c0.1-0.3,0.2-0.7,0.3-1.1c0.1-0.4,0.2-0.8,0.4-1.2c0.1-0.4,0.3-0.8,0.4-1.2s0.3-0.9,0.4-1.3c0.1-0.5,0.3-0.9,0.5-1.4
				c0.1-0.2,0.1-0.4,0.2-0.7c0.1-0.3,0.1-0.5,0.1-0.8c0-0.1,0-0.2-0.1-0.3c0,0-0.1-0.1-0.3-0.1c-0.4,0-0.7,0.2-1.1,0.5
				c-0.4,0.3-0.7,0.7-0.9,1.2c-0.3,0.5-0.5,1-0.7,1.5s-0.2,1-0.2,1.4c0,0.2,0,0.3,0,0.5c0,0.1,0.1,0.3,0.1,0.4
				c-0.5,0-0.9-0.1-1.1-0.4c-0.2-0.3-0.3-0.6-0.3-1c0-0.6,0.2-1.1,0.5-1.7c0.3-0.6,0.7-1.1,1.2-1.6c0.5-0.5,1-0.9,1.6-1.1
				c0.5-0.3,1-0.4,1.5-0.4c0.4,0,0.7,0.1,0.9,0.4c0.1,0.2,0.2,0.5,0.2,0.8c0,0.2,0,0.4-0.1,0.5c0,0.2-0.1,0.4-0.1,0.5l-1.8,6.3
				c0.2,0,0.4,0,0.7,0s0.5,0,0.7,0c0.7,0,1.4,0,2.1,0.1c0.7,0,1.3,0.1,1.9,0.2c0.3-1.1,0.6-2.1,0.9-3.1c0.3-1,0.6-1.9,0.9-2.7
				c0.3-0.8,0.5-1.3,0.6-1.6c0.1-0.1,0.1-0.3,0.3-0.5c0.1-0.2,0.3-0.4,0.4-0.5c0.2-0.2,0.4-0.2,0.6-0.2c-0.2,0.6-0.5,1.4-0.8,2.4
				c-0.3,1-0.6,2-0.9,3.1c-0.3,1.1-0.6,2.3-0.9,3.4c0.3,0,0.6,0,0.9,0.1c0.3,0,0.6,0,0.9,0c-0.3,0.4-0.7,0.6-1,0.7
				c-0.3,0.1-0.7,0.1-1,0.1c-0.1,0.6-0.3,1.2-0.4,1.8c-0.1,0.6-0.2,1.1-0.3,1.6c-0.3,1.4-0.5,2.6-0.6,3.6c-0.1,1-0.2,1.8-0.2,2.4
				c0,0.2,0,0.4,0,0.5c0,0.1,0,0.3,0,0.4c-0.6-0.1-1-0.2-1.3-0.5s-0.4-0.8-0.4-1.4c0-0.4,0-1,0.1-1.6s0.2-1.4,0.4-2.1
				c0.1-0.5,0.3-1.2,0.5-2c0.2-0.8,0.5-1.7,0.7-2.6c-1,0-1.8,0-2.4,0s-1.2,0-1.7,0c-0.5,0-0.9,0-1.4,0.1c-0.3,1-0.6,1.9-0.9,2.9
				c-0.3,0.9-0.5,1.8-0.8,2.6s-0.4,1.5-0.6,2c-0.2,0.5-0.3,0.9-0.3,1.1c-0.2,0.6-0.4,1-0.7,1.2S1437.1,2377.3,1436.8,2377.3z"/>
			<path class="st1" d="M1449.2,2377.3c0.1-0.6,0.3-1.1,0.6-1.3c0.4-0.3,0.8-0.5,1.4-0.5c0.6-0.1,1.2-0.1,1.8-0.1
				c0.3-0.6,0.6-1.4,0.9-2.4c0.3-0.9,0.6-2,0.8-3c0.3-1.1,0.5-2.2,0.8-3.3s0.5-2.2,0.7-3.2c0.2-1,0.4-2,0.6-2.8
				c0.2-0.8,0.4-1.5,0.5-2c-0.8,0-1.5,0-2.1,0.1s-1.1,0.1-1.6,0.1c-0.5,0.1-1,0.2-1.6,0.3c0.1-0.6,0.5-1.1,1.3-1.4
				c0.8-0.3,1.9-0.5,3.5-0.5c0.8,0,1.6,0,2.4,0.1c0.8,0.1,1.6,0.1,2.2,0.2c0.7,0.1,1.2,0.1,1.6,0.2c-0.4,0.4-0.8,0.6-1.2,0.7
				s-0.8,0.1-1.1,0.1c-0.5,0-1,0-1.4,0c-0.4,0-0.8,0-1.2,0c-0.1,0.3-0.2,0.9-0.3,1.6c-0.1,0.7-0.3,1.6-0.4,2.5c-0.2,1-0.4,1.9-0.5,3
				s-0.4,2-0.6,2.9c-0.2,0.9-0.4,1.7-0.5,2.4c-0.3,1.1-0.5,2-0.9,2.7c-0.3,0.7-0.7,1.3-1.1,1.6c0.8,0,1.7,0.1,2.6,0.3
				c0.9,0.1,1.8,0.2,2.5,0.2c-0.5,0.5-0.9,0.8-1.4,0.9c-0.5,0.1-0.9,0.2-1.2,0.2c-0.6,0-1.2,0-1.9,0c-0.6,0-1.2,0-1.8,0
				c-0.6,0-1.2,0.1-1.8,0.1C1450.4,2377.1,1449.8,2377.2,1449.2,2377.3z"/>
			<path class="st1" d="M1461.4,2377.3c-0.3-0.2-0.6-0.4-0.7-0.7s-0.1-0.4-0.1-0.6c0-0.5,0.2-1.1,0.5-1.9c0.3-0.8,0.8-1.7,1.3-2.7
				c0.5-1,1.1-2.1,1.8-3.2c-0.6,0-1.1-0.1-1.5-0.1c-0.4,0-0.8,0-1.1,0h-0.8c0.2-0.5,0.5-0.8,0.9-1s1-0.3,1.5-0.3
				c0.3,0,0.5,0,0.8,0.1c0.3,0,0.6,0.1,0.9,0.1c0.8-1.3,1.6-2.5,2.5-3.7c0.8-1.2,1.6-2.3,2.4-3.2c0.7-0.9,1.3-1.7,1.8-2.1
				c0.5-0.5,0.8-0.7,1.1-0.7c0.2,0,0.4,0.1,0.6,0.2s0.4,0.3,0.7,0.6c-0.2,0.1-0.4,0.5-0.6,1.1c-0.2,0.6-0.5,1.3-0.8,2.2
				c-0.3,0.9-0.5,1.8-0.8,2.8c-0.3,1-0.5,2.1-0.7,3.2s-0.4,2.1-0.5,3.1s-0.2,1.8-0.2,2.5c0,0.6,0.1,1.1,0.2,1.5s0.4,0.5,0.7,0.5
				c0.4,0,0.9-0.3,1.4-0.9c0.5-0.6,1.1-1.5,1.7-2.8l0.2,0.2c-0.5,1.3-1.1,2.4-1.8,3.3s-1.5,1.3-2.3,1.3c-0.6,0-1.1-0.3-1.4-0.9
				c-0.3-0.6-0.4-1.4-0.4-2.4c0-0.5,0-1.1,0.1-1.7c0.1-0.6,0.2-1.3,0.3-2c-0.7-0.1-1.3-0.2-1.9-0.3c-0.6-0.1-1.1-0.1-1.6-0.2
				c-0.7,1.4-1.5,2.9-2.2,4.5C1462.6,2374.3,1462,2375.8,1461.4,2377.3z M1469.2,2367.9c0.2-1.1,0.5-2.2,0.8-3.3
				c0.3-1.1,0.7-2.2,1-3.2c0.4-1,0.7-1.9,1-2.7c-0.5,0.3-1.1,0.9-1.7,1.7s-1.3,1.8-2,2.9c-0.7,1.2-1.4,2.4-2.2,3.8
				c0.5,0.1,1.1,0.2,1.6,0.4C1468.2,2367.6,1468.7,2367.8,1469.2,2367.9z"/>
		</g>
	</g>
</g>
<g>
	<text transform="matrix(0.9469 0 0 1 1584.3513 2219.2253)" class="st1 st51 st52">46. Christina , Alex , Zadaya, David, SOPHIA</text>
</g>
<g>
	<text transform="matrix(0.9469 0 0 1 1589.5339 2300.5994)" class="st1 st53 st54">48. Christina , Alex , Zadaya, David, SOPHIA</text>
</g>
<g>
	<text transform="matrix(0.9469 0 0 1 1583.1655 2337.9177)" class="st1 st55 st56">49. Christina , Alex , Zadaya, David, SOPHIA</text>
</g>
<g>
	<text transform="matrix(0.9469 0 0 1 1589.9111 2389.9216)" class="st1 st57 st58">50. Christina , Alex , Zadaya, David, SOPHIA</text>
</g>
<g>
	<text transform="matrix(0.9469 0 0 1 1055.9031 1491.3967)" class="st1 st59 st60">14. Christina , Alex , Zadaya, David, SOPHIA</text>
</g>
<g>
	<text transform="matrix(0.9469 0 0 1 1590.7737 2254.9431)" class="st1 st61 st52">47. Christina , Alex , Zadaya, David </text>
</g>
<g>
	<text transform="matrix(1 0 0 1 1554.3818 1236.9373)" class="st1 st62 st3">9. Christina , Alex , Zadaya, David</text>
</g>
<g>
	<text transform="matrix(0.9564 0 0 1 1097.1118 1209.3269)" class="st1 st63 st3">4. Christina , Alex , Zadaya, David</text>
</g>
<g>
	<text transform="matrix(1.1068 0 0 1 1560.8298 1269.572)" class="st1 st64 st3">10. Christina , Alex , Zadaya, David</text>
</g>
<g>
	<text transform="matrix(1 0 0 1 1052.4631 1363.4255)" class="st1 st65 st3">11. Christina , Alex , Zadaya, David, Lucas</text>
</g>
<rect x="1282.5" y="1755.4" class="st66" width="1.5" height="0"/>
</svg>
