<svg xmlns="http://www.w3.org/2000/svg">
    <defs>
        <style>
            .st0 {
                fill: #FFFFFF;
                stroke: #FFB600;
                stroke-width: 0.25;
                stroke-miterlimit: 10;
            }

            .st1 {
                font-family: 'RollerSkates-Regular';
            }

            .st2 {
                font-size: 16.8px;
            }


            .st0 {
                fill: #FFFFFF;
                stroke: #FFB600;
                stroke-width: 0.25;
                stroke-miterlimit: 10;
            }

            .st1 {
                font-family: 'RollerSkates-Regular';
            }

            .st2 {
                font-size: 20.18px;
            }
        </style>
    </defs>
    <g id="Layer_1-2" transform="translate(0,0)">
        <path class="st0" d="M75.1,7.9c-0.4-0.5-8.7-9.8-20.5-7.3C47.5,2,41.8,7.2,39.8,13.9C37.9,7.2,32.2,2,25,0.5
		C13.2-1.9,4.9,7.4,4.5,7.9c-5.7,6.7-4.4,14.7-3.8,18.8C3,40.5,14.4,49.6,21.8,55.4c6.9,5.4,13.5,8.8,18,10.9
		c4.5-2.1,11.1-5.5,18-10.9c7.4-5.8,18.8-14.8,21.1-28.7C79.6,22.6,80.8,14.5,75.1,7.9L75.1,7.9z" />
        <text transform="matrix(1 0 0 1 16.48 35.45)" class="st1 st2">Hiii</text>
    </g>
    <g id="Layer_1-2" transform="translate(0,70)">
        <path class="st0" d="M75.1,7.9c-0.4-0.5-8.7-9.8-20.5-7.3C47.5,2,41.8,7.2,39.8,13.9C37.9,7.2,32.2,2,25,0.5
		C13.2-1.9,4.9,7.4,4.5,7.9c-5.7,6.7-4.4,14.7-3.8,18.8C3,40.5,14.4,49.6,21.8,55.4c6.9,5.4,13.5,8.8,18,10.9
		c4.5-2.1,11.1-5.5,18-10.9c7.4-5.8,18.8-14.8,21.1-28.7C79.6,22.6,80.8,14.5,75.1,7.9L75.1,7.9z" />
        <text transform="matrix(1 0 0 1 16.48 35.45)" class="st1 st2">Hiii</text>
    </g>
    <g id="Layer_1-2" transform="translate(0,140)">
        <path class="st0" d="M75.1,7.9c-0.4-0.5-8.7-9.8-20.5-7.3C47.5,2,41.8,7.2,39.8,13.9C37.9,7.2,32.2,2,25,0.5
		C13.2-1.9,4.9,7.4,4.5,7.9c-5.7,6.7-4.4,14.7-3.8,18.8C3,40.5,14.4,49.6,21.8,55.4c6.9,5.4,13.5,8.8,18,10.9
		c4.5-2.1,11.1-5.5,18-10.9c7.4-5.8,18.8-14.8,21.1-28.7C79.6,22.6,80.8,14.5,75.1,7.9L75.1,7.9z" />
        <text transform="matrix(1 0 0 1 16.48 35.45)" class="st1 st2">Hiii</text>
    </g>
    <g id="Layer_1-2" transform="translate(82,0)">
        <path class="st0" d="M53.7,5.7c-0.3-0.4-6.2-7-14.6-5.2c-5.1,1-9.2,4.8-10.6,9.6C27.1,5.2,23,1.5,17.9,0.4C9.4-1.3,3.6,5.3,3.3,5.7
		c-4.1,4.8-3.2,10.5-2.7,13.4c1.6,9.9,9.8,16.4,15.1,20.5c4.9,3.9,9.6,6.3,12.9,7.8c3.2-1.5,8-3.9,12.9-7.8
		c5.3-4.2,13.4-10.6,15-20.5C56.9,16.2,57.8,10.4,53.7,5.7L53.7,5.7z" />
        <text transform="matrix(1 0 0 1 15.77 28.38)" class="st1 st2">Briar</text>
    </g>
    <g id="Layer_1-2" transform="translate(82,50)">
        <path class="st0" d="M53.7,5.7c-0.3-0.4-6.2-7-14.6-5.2c-5.1,1-9.2,4.8-10.6,9.6C27.1,5.2,23,1.5,17.9,0.4C9.4-1.3,3.6,5.3,3.3,5.7
		c-4.1,4.8-3.2,10.5-2.7,13.4c1.6,9.9,9.8,16.4,15.1,20.5c4.9,3.9,9.6,6.3,12.9,7.8c3.2-1.5,8-3.9,12.9-7.8
		c5.3-4.2,13.4-10.6,15-20.5C56.9,16.2,57.8,10.4,53.7,5.7L53.7,5.7z" />
        <text transform="matrix(1 0 0 1 15.77 28.38)" class="st1 st2"> Avary</text>
    </g>
    <g id="Layer_1-2" transform="translate(82,100)">
        <path class="st0" d="M53.7,5.7c-0.3-0.4-6.2-7-14.6-5.2c-5.1,1-9.2,4.8-10.6,9.6C27.1,5.2,23,1.5,17.9,0.4C9.4-1.3,3.6,5.3,3.3,5.7
		c-4.1,4.8-3.2,10.5-2.7,13.4c1.6,9.9,9.8,16.4,15.1,20.5c4.9,3.9,9.6,6.3,12.9,7.8c3.2-1.5,8-3.9,12.9-7.8
		c5.3-4.2,13.4-10.6,15-20.5C56.9,16.2,57.8,10.4,53.7,5.7L53.7,5.7z" />
        <text transform="matrix(1 0 0 1 15.77 28.38)" class="st1 st2"> Phillip</text>
    </g>
    <g id="Layer_1-2" transform="translate(82,150)">
        <path class="st0" d="M53.7,5.7c-0.3-0.4-6.2-7-14.6-5.2c-5.1,1-9.2,4.8-10.6,9.6C27.1,5.2,23,1.5,17.9,0.4C9.4-1.3,3.6,5.3,3.3,5.7
		c-4.1,4.8-3.2,10.5-2.7,13.4c1.6,9.9,9.8,16.4,15.1,20.5c4.9,3.9,9.6,6.3,12.9,7.8c3.2-1.5,8-3.9,12.9-7.8
		c5.3-4.2,13.4-10.6,15-20.5C56.9,16.2,57.8,10.4,53.7,5.7L53.7,5.7z" />
        <text transform="matrix(1 0 0 1 15.77 28.38)" class="st1 st2"> Easton</text>
    </g>
    <g id="Layer_1-2" transform="translate(82,200)">
        <path class="st0" d="M53.7,5.7c-0.3-0.4-6.2-7-14.6-5.2c-5.1,1-9.2,4.8-10.6,9.6C27.1,5.2,23,1.5,17.9,0.4C9.4-1.3,3.6,5.3,3.3,5.7
		c-4.1,4.8-3.2,10.5-2.7,13.4c1.6,9.9,9.8,16.4,15.1,20.5c4.9,3.9,9.6,6.3,12.9,7.8c3.2-1.5,8-3.9,12.9-7.8
		c5.3-4.2,13.4-10.6,15-20.5C56.9,16.2,57.8,10.4,53.7,5.7L53.7,5.7z" />
        <text transform="matrix(1 0 0 1 15.77 28.38)" class="st1 st2"> Jackson</text>
    </g>
    <g id="Layer_1-2" transform="translate(82,250)">
        <path class="st0" d="M53.7,5.7c-0.3-0.4-6.2-7-14.6-5.2c-5.1,1-9.2,4.8-10.6,9.6C27.1,5.2,23,1.5,17.9,0.4C9.4-1.3,3.6,5.3,3.3,5.7
		c-4.1,4.8-3.2,10.5-2.7,13.4c1.6,9.9,9.8,16.4,15.1,20.5c4.9,3.9,9.6,6.3,12.9,7.8c3.2-1.5,8-3.9,12.9-7.8
		c5.3-4.2,13.4-10.6,15-20.5C56.9,16.2,57.8,10.4,53.7,5.7L53.7,5.7z" />
        <text transform="matrix(1 0 0 1 15.77 28.38)" class="st1 st2"> William</text>
    </g>
    <g id="Layer_1-2" transform="translate(82,300)">
        <path class="st0" d="M53.7,5.7c-0.3-0.4-6.2-7-14.6-5.2c-5.1,1-9.2,4.8-10.6,9.6C27.1,5.2,23,1.5,17.9,0.4C9.4-1.3,3.6,5.3,3.3,5.7
		c-4.1,4.8-3.2,10.5-2.7,13.4c1.6,9.9,9.8,16.4,15.1,20.5c4.9,3.9,9.6,6.3,12.9,7.8c3.2-1.5,8-3.9,12.9-7.8
		c5.3-4.2,13.4-10.6,15-20.5C56.9,16.2,57.8,10.4,53.7,5.7L53.7,5.7z" />
        <text transform="matrix(1 0 0 1 15.77 28.38)" class="st1 st2"> Cole A.</text>
    </g>
    <g id="Layer_1-2" transform="translate(82,350)">
        <path class="st0" d="M53.7,5.7c-0.3-0.4-6.2-7-14.6-5.2c-5.1,1-9.2,4.8-10.6,9.6C27.1,5.2,23,1.5,17.9,0.4C9.4-1.3,3.6,5.3,3.3,5.7
		c-4.1,4.8-3.2,10.5-2.7,13.4c1.6,9.9,9.8,16.4,15.1,20.5c4.9,3.9,9.6,6.3,12.9,7.8c3.2-1.5,8-3.9,12.9-7.8
		c5.3-4.2,13.4-10.6,15-20.5C56.9,16.2,57.8,10.4,53.7,5.7L53.7,5.7z" />
        <text transform="matrix(1 0 0 1 15.77 28.38)" class="st1 st2"> Cole W.</text>
    </g>
    <g id="Layer_1-2" transform="translate(82,400)">
        <path class="st0" d="M53.7,5.7c-0.3-0.4-6.2-7-14.6-5.2c-5.1,1-9.2,4.8-10.6,9.6C27.1,5.2,23,1.5,17.9,0.4C9.4-1.3,3.6,5.3,3.3,5.7
		c-4.1,4.8-3.2,10.5-2.7,13.4c1.6,9.9,9.8,16.4,15.1,20.5c4.9,3.9,9.6,6.3,12.9,7.8c3.2-1.5,8-3.9,12.9-7.8
		c5.3-4.2,13.4-10.6,15-20.5C56.9,16.2,57.8,10.4,53.7,5.7L53.7,5.7z" />
        <text transform="matrix(1 0 0 1 15.77 28.38)" class="st1 st2"> Brook</text>
    </g>
    <g id="Layer_1-2" transform="translate(82,450)">
        <path class="st0" d="M53.7,5.7c-0.3-0.4-6.2-7-14.6-5.2c-5.1,1-9.2,4.8-10.6,9.6C27.1,5.2,23,1.5,17.9,0.4C9.4-1.3,3.6,5.3,3.3,5.7
		c-4.1,4.8-3.2,10.5-2.7,13.4c1.6,9.9,9.8,16.4,15.1,20.5c4.9,3.9,9.6,6.3,12.9,7.8c3.2-1.5,8-3.9,12.9-7.8
		c5.3-4.2,13.4-10.6,15-20.5C56.9,16.2,57.8,10.4,53.7,5.7L53.7,5.7z" />
        <text transform="matrix(1 0 0 1 15.77 28.38)" class="st1 st2"> Brittany</text>
    </g>
    <g id="Layer_1-2" transform="translate(82,500)">
        <path class="st0" d="M53.7,5.7c-0.3-0.4-6.2-7-14.6-5.2c-5.1,1-9.2,4.8-10.6,9.6C27.1,5.2,23,1.5,17.9,0.4C9.4-1.3,3.6,5.3,3.3,5.7
		c-4.1,4.8-3.2,10.5-2.7,13.4c1.6,9.9,9.8,16.4,15.1,20.5c4.9,3.9,9.6,6.3,12.9,7.8c3.2-1.5,8-3.9,12.9-7.8
		c5.3-4.2,13.4-10.6,15-20.5C56.9,16.2,57.8,10.4,53.7,5.7L53.7,5.7z" />
        <text transform="matrix(1 0 0 1 15.77 28.38)" class="st1 st2"> Jacie</text>
    </g>
    <g id="Layer_1-2" transform="translate(82,550)">
        <path class="st0" d="M53.7,5.7c-0.3-0.4-6.2-7-14.6-5.2c-5.1,1-9.2,4.8-10.6,9.6C27.1,5.2,23,1.5,17.9,0.4C9.4-1.3,3.6,5.3,3.3,5.7
		c-4.1,4.8-3.2,10.5-2.7,13.4c1.6,9.9,9.8,16.4,15.1,20.5c4.9,3.9,9.6,6.3,12.9,7.8c3.2-1.5,8-3.9,12.9-7.8
		c5.3-4.2,13.4-10.6,15-20.5C56.9,16.2,57.8,10.4,53.7,5.7L53.7,5.7z" />
        <text transform="matrix(1 0 0 1 15.77 28.38)" class="st1 st2"> Patton</text>
    </g>
    <g id="Layer_1-2" transform="translate(82,600)">
        <path class="st0" d="M53.7,5.7c-0.3-0.4-6.2-7-14.6-5.2c-5.1,1-9.2,4.8-10.6,9.6C27.1,5.2,23,1.5,17.9,0.4C9.4-1.3,3.6,5.3,3.3,5.7
		c-4.1,4.8-3.2,10.5-2.7,13.4c1.6,9.9,9.8,16.4,15.1,20.5c4.9,3.9,9.6,6.3,12.9,7.8c3.2-1.5,8-3.9,12.9-7.8
		c5.3-4.2,13.4-10.6,15-20.5C56.9,16.2,57.8,10.4,53.7,5.7L53.7,5.7z" />
        <text transform="matrix(1 0 0 1 15.77 28.38)" class="st1 st2"> Ellie</text>
    </g>
    <g id="Layer_1-2" transform="translate(82,650)">
        <path class="st0" d="M53.7,5.7c-0.3-0.4-6.2-7-14.6-5.2c-5.1,1-9.2,4.8-10.6,9.6C27.1,5.2,23,1.5,17.9,0.4C9.4-1.3,3.6,5.3,3.3,5.7
		c-4.1,4.8-3.2,10.5-2.7,13.4c1.6,9.9,9.8,16.4,15.1,20.5c4.9,3.9,9.6,6.3,12.9,7.8c3.2-1.5,8-3.9,12.9-7.8
		c5.3-4.2,13.4-10.6,15-20.5C56.9,16.2,57.8,10.4,53.7,5.7L53.7,5.7z" />
        <text transform="matrix(1 0 0 1 15.77 28.38)" class="st1 st2"> Michael</text>
    </g>
    <g id="Layer_1-2" transform="translate(82,700)">
        <path class="st0" d="M53.7,5.7c-0.3-0.4-6.2-7-14.6-5.2c-5.1,1-9.2,4.8-10.6,9.6C27.1,5.2,23,1.5,17.9,0.4C9.4-1.3,3.6,5.3,3.3,5.7
		c-4.1,4.8-3.2,10.5-2.7,13.4c1.6,9.9,9.8,16.4,15.1,20.5c4.9,3.9,9.6,6.3,12.9,7.8c3.2-1.5,8-3.9,12.9-7.8
		c5.3-4.2,13.4-10.6,15-20.5C56.9,16.2,57.8,10.4,53.7,5.7L53.7,5.7z" />
        <text transform="matrix(1 0 0 1 15.77 28.38)" class="st1 st2"> Macie</text>
    </g>
    <g id="Layer_1-2" transform="translate(82,750)">
        <path class="st0" d="M53.7,5.7c-0.3-0.4-6.2-7-14.6-5.2c-5.1,1-9.2,4.8-10.6,9.6C27.1,5.2,23,1.5,17.9,0.4C9.4-1.3,3.6,5.3,3.3,5.7
		c-4.1,4.8-3.2,10.5-2.7,13.4c1.6,9.9,9.8,16.4,15.1,20.5c4.9,3.9,9.6,6.3,12.9,7.8c3.2-1.5,8-3.9,12.9-7.8
		c5.3-4.2,13.4-10.6,15-20.5C56.9,16.2,57.8,10.4,53.7,5.7L53.7,5.7z" />
        <text transform="matrix(1 0 0 1 15.77 28.38)" class="st1 st2"> Ashleigh</text>
    </g>
    <g id="Layer_1-2" transform="translate(82,800)">
        <path class="st0" d="M53.7,5.7c-0.3-0.4-6.2-7-14.6-5.2c-5.1,1-9.2,4.8-10.6,9.6C27.1,5.2,23,1.5,17.9,0.4C9.4-1.3,3.6,5.3,3.3,5.7
		c-4.1,4.8-3.2,10.5-2.7,13.4c1.6,9.9,9.8,16.4,15.1,20.5c4.9,3.9,9.6,6.3,12.9,7.8c3.2-1.5,8-3.9,12.9-7.8
		c5.3-4.2,13.4-10.6,15-20.5C56.9,16.2,57.8,10.4,53.7,5.7L53.7,5.7z" />
        <text transform="matrix(1 0 0 1 15.77 28.38)" class="st1 st2"> Addison</text>
    </g>
    <g id="Layer_1-2" transform="translate(82,850)">
        <path class="st0" d="M53.7,5.7c-0.3-0.4-6.2-7-14.6-5.2c-5.1,1-9.2,4.8-10.6,9.6C27.1,5.2,23,1.5,17.9,0.4C9.4-1.3,3.6,5.3,3.3,5.7
		c-4.1,4.8-3.2,10.5-2.7,13.4c1.6,9.9,9.8,16.4,15.1,20.5c4.9,3.9,9.6,6.3,12.9,7.8c3.2-1.5,8-3.9,12.9-7.8
		c5.3-4.2,13.4-10.6,15-20.5C56.9,16.2,57.8,10.4,53.7,5.7L53.7,5.7z" />
        <text transform="matrix(1 0 0 1 15.77 28.38)" class="st1 st2"> Mazie</text>
    </g>
    <g id="Layer_1-2" transform="translate(82,900)">
        <path class="st0" d="M53.7,5.7c-0.3-0.4-6.2-7-14.6-5.2c-5.1,1-9.2,4.8-10.6,9.6C27.1,5.2,23,1.5,17.9,0.4C9.4-1.3,3.6,5.3,3.3,5.7
		c-4.1,4.8-3.2,10.5-2.7,13.4c1.6,9.9,9.8,16.4,15.1,20.5c4.9,3.9,9.6,6.3,12.9,7.8c3.2-1.5,8-3.9,12.9-7.8
		c5.3-4.2,13.4-10.6,15-20.5C56.9,16.2,57.8,10.4,53.7,5.7L53.7,5.7z" />
        <text transform="matrix(1 0 0 1 15.77 28.38)" class="st1 st2"> Lincoln</text>
    </g>
    <g id="Layer_1-2" transform="translate(82,950)">
        <path class="st0" d="M53.7,5.7c-0.3-0.4-6.2-7-14.6-5.2c-5.1,1-9.2,4.8-10.6,9.6C27.1,5.2,23,1.5,17.9,0.4C9.4-1.3,3.6,5.3,3.3,5.7
		c-4.1,4.8-3.2,10.5-2.7,13.4c1.6,9.9,9.8,16.4,15.1,20.5c4.9,3.9,9.6,6.3,12.9,7.8c3.2-1.5,8-3.9,12.9-7.8
		c5.3-4.2,13.4-10.6,15-20.5C56.9,16.2,57.8,10.4,53.7,5.7L53.7,5.7z" />
        <text transform="matrix(1 0 0 1 15.77 28.38)" class="st1 st2"> Jacob</text>
    </g>
    <g id="Layer_1-2" transform="translate(82,1000)">
        <path class="st0" d="M53.7,5.7c-0.3-0.4-6.2-7-14.6-5.2c-5.1,1-9.2,4.8-10.6,9.6C27.1,5.2,23,1.5,17.9,0.4C9.4-1.3,3.6,5.3,3.3,5.7
		c-4.1,4.8-3.2,10.5-2.7,13.4c1.6,9.9,9.8,16.4,15.1,20.5c4.9,3.9,9.6,6.3,12.9,7.8c3.2-1.5,8-3.9,12.9-7.8
		c5.3-4.2,13.4-10.6,15-20.5C56.9,16.2,57.8,10.4,53.7,5.7L53.7,5.7z" />
        <text transform="matrix(1 0 0 1 15.77 28.38)" class="st1 st2"> Bryce</text>
    </g>
    <text style="font-family: '#9Slide03 Quicksand Bold Bold';" transform="translate(0,-20)">
        trắng
    </text>

</svg>