<?xml version="1.0" encoding="utf-8"?>
<!-- Generator: Adobe Illustrator 27.9.0, SVG Export Plug-In . SVG Version: 6.00 Build 0)  -->
<svg version="1.1" id="Layer_1" xmlns="http://www.w3.org/2000/svg" xmlns:xlink="http://www.w3.org/1999/xlink" x="0px" y="0px"
	 viewBox="0 0 2329.8 3015.1" style="enable-background:new 0 0 2329.8 3015.1;" xml:space="preserve">
<style type="text/css">
	.st0{fill:none;stroke:#0000FF;stroke-miterlimit:10;}
	.st1{stroke:#000000;stroke-linecap:round;stroke-linejoin:round;stroke-miterlimit:10;}
	.st2{font-family:'KissMeorNot';}
	.st3{font-size:89.4412px;}
	.st4{fill:#5A4029;}
</style>
<rect x="833" y="1367.2" class="st0" width="680.3" height="226.8"/>
<text transform="matrix(1 0 0 1 877.1317 1512.1766)" class="st1 st2 st3">_mike\charlotte_</text>
<path class="st4" d="M1485,1395.5v170.1H861.4v-170.1H1485 M1513.4,1367.2H833V1594h680.3V1367.2L1513.4,1367.2z"/>
<g>
	<path d="M1159.9,1640.5c-1.5-0.9-3.3-1.3-5.1-1.3c-0.7,0-1.5,0.1-2.4,0.3c-0.8,0.2-1.5,0.5-2.1,0.8l0.8-6.2h10.7
		c0.7,0,1.3-0.2,1.7-0.7s0.7-1,0.7-1.7c0-0.7-0.2-1.3-0.7-1.7c-0.5-0.5-1-0.7-1.7-0.7h-12.5c-0.7,0-1.2,0.2-1.7,0.6
		c-0.5,0.4-0.8,0.9-0.9,1.5l-1.3,10.7c0,0.1,0,0.3,0,0.6c0,0.8,0.2,1.6,0.7,2.2c0.5,0.6,1.3,0.9,2.4,0.9c0.3,0,0.6-0.1,0.9-0.2
		c0.3-0.1,0.7-0.3,1.2-0.6c0.7-0.3,1.3-0.6,1.9-0.8c0.5-0.2,1.1-0.3,1.8-0.3c1.5,0,2.7,0.5,3.8,1.5c1.1,1,1.6,2.2,1.6,3.8
		c0,1.1-0.3,2.1-0.9,3c-0.6,0.9-1.4,1.7-2.5,2.2c-1,0.5-2.1,0.8-3.3,0.8c-0.9,0-2-0.4-3.2-1.1c-0.8-0.5-1.4-0.8-1.9-0.8
		c-0.7,0-1.3,0.2-1.7,0.6c-0.4,0.4-0.7,0.9-0.7,1.4c0,0.5,0.1,0.9,0.3,1.5c0.2,0.5,0.5,0.9,0.9,1.2c0.7,0.6,1.7,1.1,2.9,1.4
		c1.2,0.3,2.3,0.5,3.5,0.5c2.1,0,4-0.5,5.9-1.4c1.8-1,3.3-2.3,4.4-3.9c1.1-1.6,1.6-3.4,1.6-5.3c0-1.9-0.4-3.6-1.3-5.1
		C1162.7,1642.6,1161.4,1641.4,1159.9,1640.5z"/>
	<path d="M1197.2,1636c-1.7,0-3.2,0.5-4.5,1.5c-1.3,1-2.3,2.1-3,3.3c-1-3.2-3.3-4.7-6.9-4.7c-1.5,0-2.8,0.4-4,1.1s-2.2,1.6-3,2.6
		v-0.7c0-0.7-0.2-1.4-0.7-1.9c-0.5-0.5-1.1-0.8-1.9-0.8c-0.7,0-1.4,0.3-1.9,0.8c-0.5,0.5-0.7,1.1-0.7,1.9v17.8
		c0,0.7,0.2,1.4,0.7,1.9c0.5,0.5,1.1,0.8,1.9,0.8c0.7,0,1.4-0.3,1.9-0.8c0.5-0.5,0.7-1.1,0.7-1.9v-11c0-1.5,0.5-2.7,1.4-3.6
		c0.9-1,2.2-1.4,3.8-1.4c1.6,0,2.6,0.5,3.3,1.4c0.6,0.9,0.9,2.1,0.9,3.7v11c0,0.7,0.2,1.4,0.7,1.9c0.5,0.5,1.1,0.8,1.9,0.8
		c0.7,0,1.4-0.3,1.9-0.8c0.5-0.5,0.7-1.1,0.7-1.9v-11c0-1.5,0.5-2.7,1.4-3.6c0.9-1,2.2-1.4,3.8-1.4c1.6,0,2.6,0.5,3.3,1.4
		c0.6,0.9,0.9,2.1,0.9,3.7v11c0,0.7,0.2,1.4,0.7,1.9c0.5,0.5,1.1,0.8,1.9,0.8c0.7,0,1.4-0.3,1.9-0.8c0.5-0.5,0.7-1.1,0.7-1.9v-11
		c0-3.1-0.5-5.5-1.6-7.2C1202.1,1636.8,1200.1,1636,1197.2,1636z"/>
	<path d="M1242.9,1638.6c-1.1-1.7-3.1-2.6-5.9-2.6c-1.7,0-3.2,0.5-4.5,1.5c-1.3,1-2.3,2.1-3,3.3c-1-3.2-3.3-4.7-6.9-4.7
		c-1.5,0-2.8,0.4-4,1.1s-2.2,1.6-3,2.6v-0.7c0-0.7-0.2-1.4-0.7-1.9c-0.5-0.5-1.1-0.8-1.9-0.8c-0.7,0-1.4,0.3-1.9,0.8
		c-0.5,0.5-0.7,1.1-0.7,1.9v17.8c0,0.7,0.2,1.4,0.7,1.9c0.5,0.5,1.1,0.8,1.9,0.8c0.7,0,1.4-0.3,1.9-0.8c0.5-0.5,0.7-1.1,0.7-1.9v-11
		c0-1.5,0.5-2.7,1.4-3.6c0.9-1,2.2-1.4,3.8-1.4c1.6,0,2.6,0.5,3.3,1.4c0.6,0.9,0.9,2.1,0.9,3.7v11c0,0.7,0.2,1.4,0.7,1.9
		c0.5,0.5,1.1,0.8,1.9,0.8c0.7,0,1.4-0.3,1.9-0.8c0.5-0.5,0.7-1.1,0.7-1.9v-11c0-1.5,0.5-2.7,1.4-3.6c0.9-1,2.2-1.4,3.8-1.4
		c1.6,0,2.6,0.5,3.3,1.4c0.6,0.9,0.9,2.1,0.9,3.7v11c0,0.7,0.2,1.4,0.7,1.9c0.5,0.5,1.1,0.8,1.9,0.8c0.7,0,1.4-0.3,1.9-0.8
		c0.5-0.5,0.7-1.1,0.7-1.9v-11C1244.5,1642.7,1244,1640.3,1242.9,1638.6z"/>
</g>
<g>
	<path d="M1898.2,1653.5c-0.4,0-0.7,0.1-0.9,0.2c-0.3,0.1-0.5,0.3-0.8,0.5c-0.3,0.2-0.5,0.4-0.7,0.5c-0.7,0.3-1.7,0.5-3.1,0.5
		c-1.9,0-3.5-0.7-4.7-2c-1.2-1.4-1.9-3.1-1.9-5.1c0-2.2,0.6-3.9,1.8-5.2c1.2-1.3,2.9-2,5.1-2c0.3,0,0.8,0.1,1.4,0.2
		c0.6,0.1,1,0.2,1.3,0.4c0.3,0.1,0.5,0.3,0.8,0.5c0.3,0.2,0.6,0.4,0.8,0.5c0.3,0.1,0.7,0.2,1.1,0.2c0.6,0,1.1-0.2,1.5-0.7
		s0.6-1,0.6-1.7c0-1.3-0.7-2.3-2.2-3c-1.5-0.8-3.5-1.1-5.9-1.1c-2.2,0-4.1,0.5-5.9,1.5c-1.7,1-3.1,2.4-4,4.2c-1,1.8-1.4,3.9-1.4,6.2
		c0,2.2,0.5,4.3,1.4,6.1c0.9,1.8,2.2,3.3,3.9,4.3c1.7,1,3.6,1.6,5.8,1.6c1.5,0,2.9-0.2,4.2-0.5c1.3-0.4,2.4-0.8,3.2-1.4
		c0.8-0.6,1.2-1.2,1.2-1.9c0-0.7-0.2-1.3-0.6-1.8C1899.5,1653.7,1899,1653.5,1898.2,1653.5z"/>
	<path d="M1916.4,1636c-1.5,0-2.8,0.4-4,1.1c-1.2,0.7-2.2,1.6-3,2.6v-9.5c0-0.7-0.2-1.4-0.7-1.9c-0.5-0.5-1.1-0.8-1.9-0.8
		c-0.7,0-1.4,0.3-1.9,0.8c-0.5,0.5-0.7,1.1-0.7,1.9v26.6c0,0.7,0.2,1.4,0.7,1.9c0.5,0.5,1.1,0.8,1.9,0.8c0.7,0,1.4-0.3,1.9-0.8
		c0.5-0.5,0.7-1.1,0.7-1.9v-11c0-1.5,0.5-2.7,1.4-3.6c0.9-1,2.2-1.4,3.8-1.4c1.6,0,2.6,0.5,3.3,1.4c0.6,0.9,0.9,2.1,0.9,3.7v11
		c0,0.7,0.2,1.4,0.7,1.9c0.5,0.5,1.1,0.8,1.9,0.8s1.4-0.3,1.9-0.8c0.5-0.5,0.7-1.1,0.7-1.9v-11c0-3.1-0.5-5.5-1.6-7.2
		C1921.2,1636.8,1919.3,1636,1916.4,1636z"/>
	<path d="M1933.9,1634c0.5,0,0.8-0.1,1.1-0.4c0.3-0.3,0.5-0.6,0.5-1.1c0-0.3,0-0.5-0.1-0.6c-0.1-0.3,0-0.5,0.1-0.6
		c0.2-0.2,0.4-0.3,0.7-0.3c0.3,0,0.7,0.1,1.1,0.3c0.4,0.2,0.9,0.5,1.6,0.9c0.9,0.5,1.6,0.9,2.2,1.2s1.2,0.4,1.8,0.4
		c1.1,0,2-0.2,2.8-0.6s1.3-0.9,1.6-1.5c0.3-0.6,0.5-1.2,0.5-1.7c0-0.9-0.2-1.6-0.7-2.1c-0.5-0.5-1-0.8-1.7-0.8
		c-0.5,0-0.8,0.1-1.1,0.4c-0.3,0.3-0.5,0.6-0.5,1.1c0,0.3,0,0.5,0.1,0.6c0.1,0.3,0,0.5-0.1,0.6c-0.2,0.2-0.4,0.3-0.7,0.3
		c-0.3,0-0.6-0.1-0.9-0.3c-0.3-0.2-0.7-0.4-1.2-0.8c-0.8-0.5-1.5-1-2.1-1.3c-0.6-0.3-1.3-0.5-2-0.5c-1.7,0-3,0.4-3.9,1.1
		c-0.9,0.8-1.4,1.6-1.4,2.6c0,0.9,0.2,1.6,0.7,2.1C1932.7,1633.8,1933.3,1634,1933.9,1634z"/>
	<path d="M1952,1631.5c-0.7,0-1.2,0.2-1.6,0.7s-0.6,1-0.6,1.6c0,1.6-1,2.5-2.9,2.6h-0.2c-0.2,0-0.4,0-0.5,0
		c-0.6,0.1-1.1,0.4-1.5,0.9c-0.4,0.5-0.6,1-0.6,1.7v10.9c0,1.8-0.4,3.1-1.2,3.9c-0.8,0.8-2,1.3-3.5,1.3c-1.6,0-2.7-0.4-3.5-1.3
		c-0.8-0.8-1.2-2.1-1.2-3.9V1639c0-0.7-0.2-1.4-0.7-1.9c-0.5-0.5-1.1-0.8-1.9-0.8s-1.4,0.3-1.9,0.8c-0.5,0.5-0.7,1.1-0.7,1.9v10.9
		c0,3.1,0.8,5.5,2.5,7.3s4.1,2.6,7.3,2.6c3.2,0,5.6-0.9,7.3-2.6s2.6-4.2,2.6-7.3v-9.6c1.6-0.5,2.9-1.3,3.7-2.5
		c0.8-1.2,1.2-2.5,1.2-4.1c0-0.6-0.2-1.1-0.5-1.6S1952.7,1631.5,1952,1631.5z"/>
	<path d="M1978.5,1646.7l6.5-6c0.7-0.6,1-1.2,1-1.9c0-0.5-0.3-1.1-0.8-1.6c-0.5-0.5-1.1-0.8-1.7-0.8c-0.7,0-1.4,0.3-1.9,0.8
		l-9.2,8.9v-15.9c0-0.7-0.2-1.4-0.7-1.9c-0.5-0.5-1.1-0.8-1.9-0.8c-0.7,0-1.4,0.3-1.9,0.8c-0.5,0.5-0.7,1.1-0.7,1.9v26.6
		c0,0.7,0.2,1.4,0.7,1.9c0.5,0.5,1.1,0.8,1.9,0.8c0.7,0,1.4-0.3,1.9-0.8c0.5-0.5,0.7-1.1,0.7-1.9v-4.5l2.1-1.9l7.8,8.2
		c0.5,0.6,1.1,0.9,1.9,0.9c0.6,0,1.2-0.2,1.8-0.7c0.6-0.5,0.8-1.1,0.8-1.8s-0.3-1.4-0.8-1.9L1978.5,1646.7z"/>
	<path d="M2006.8,1637.5c-1.8-1-3.8-1.5-5.9-1.5c-2.2,0-4.2,0.5-5.9,1.5c-1.8,1-3.2,2.4-4.2,4.3s-1.6,3.9-1.6,6.2s0.5,4.4,1.6,6.2
		s2.4,3.2,4.2,4.2c1.8,1,3.8,1.5,5.9,1.5c2.2,0,4.1-0.5,5.9-1.5c1.8-1,3.2-2.4,4.2-4.2c1-1.8,1.6-3.9,1.6-6.2s-0.5-4.4-1.6-6.2
		C2010,1639.9,2008.6,1638.5,2006.8,1637.5z M2006.6,1651.7c-0.6,1.1-1.4,1.9-2.4,2.5c-1,0.6-2.1,0.9-3.3,0.9
		c-1.2,0-2.3-0.3-3.3-0.9c-1-0.6-1.8-1.5-2.4-2.5s-0.9-2.3-0.9-3.7s0.3-2.7,0.9-3.8c0.6-1.1,1.4-2,2.4-2.6c1-0.6,2.1-0.9,3.3-0.9
		c1.2,0,2.3,0.3,3.3,0.9c1,0.6,1.8,1.5,2.4,2.6c0.6,1.1,0.9,2.4,0.9,3.8S2007.2,1650.6,2006.6,1651.7z"/>
	<path d="M2041.7,1647.1c-1-0.5-2.3-0.9-3.9-1.3c-1.1-0.3-2-0.6-2.6-0.8c-0.6-0.2-1.1-0.5-1.5-0.9s-0.6-0.9-0.6-1.5
		c0-1.6,1.1-2.4,3.3-2.4c1,0,2,0.2,2.8,0.6c0.8,0.4,1.5,0.9,2,1.5c0.4,0.4,0.9,0.6,1.6,0.6c0.5,0,1-0.2,1.4-0.5
		c0.5-0.4,0.8-1,0.8-1.6c0-0.6-0.2-1.1-0.6-1.6c-0.8-1.1-2-1.9-3.4-2.4c-1.5-0.5-2.9-0.8-4.4-0.8c-1.4,0-2.8,0.3-4.1,0.8
		c-1.3,0.6-2.3,1.4-3.1,2.4s-1.2,2.2-1.2,3.6c0,1.6,0.4,2.8,1.1,3.8s1.7,1.6,2.7,2.1c1,0.5,2.4,0.9,4.1,1.4c1.6,0.4,2.8,0.9,3.6,1.3
		s1.1,1.1,1.1,1.9c0,1.6-1.1,2.5-3.4,2.5c-1.3,0-2.4-0.2-3.4-0.6s-1.8-1.1-2.7-2c-0.5-0.5-1.1-0.8-1.7-0.8c-0.4,0-0.8,0.1-1.2,0.4
		c-0.7,0.5-1.1,1.1-1.1,1.9c0,0.5,0.1,0.9,0.4,1.3c1,1.4,2.4,2.4,4,3.1c1.6,0.6,3.4,0.9,5.3,0.9c1.4,0,2.7-0.3,4-0.8
		c1.3-0.5,2.4-1.3,3.2-2.4c0.8-1,1.2-2.3,1.2-3.7c0-1.6-0.4-2.8-1.1-3.7C2043.7,1648.3,2042.8,1647.6,2041.7,1647.1z"/>
	<path d="M2071.2,1637.2c0.5-1,0.8-2.1,0.8-3.4c0-0.6-0.2-1.1-0.5-1.6s-0.9-0.7-1.6-0.7c-0.7,0-1.2,0.2-1.6,0.7s-0.6,1-0.6,1.6
		c0,0.9-0.3,1.6-1,2c-0.6,0.4-1.5,0.7-2.7,0.7v0c-1.3-0.4-2.5-0.6-3.8-0.6c-2.2,0-4.2,0.5-5.9,1.5c-1.8,1-3.2,2.4-4.2,4.3
		s-1.6,3.9-1.6,6.2s0.5,4.4,1.6,6.2s2.4,3.2,4.2,4.2c1.8,1,3.8,1.5,5.9,1.5c2.2,0,4.1-0.5,5.9-1.5c1.8-1,3.2-2.4,4.2-4.2
		c1-1.8,1.6-3.9,1.6-6.2c0-1.6-0.3-3.1-0.8-4.5c-0.5-1.4-1.3-2.7-2.3-3.7C2069.9,1639.1,2070.7,1638.3,2071.2,1637.2z
		 M2065.9,1651.7c-0.6,1.1-1.4,1.9-2.4,2.5c-1,0.6-2.1,0.9-3.3,0.9c-1.2,0-2.3-0.3-3.3-0.9c-1-0.6-1.8-1.5-2.4-2.5s-0.9-2.3-0.9-3.7
		s0.3-2.7,0.9-3.8c0.6-1.1,1.4-2,2.4-2.6c1-0.6,2.1-0.9,3.3-0.9c1.2,0,2.3,0.3,3.3,0.9c1,0.6,1.8,1.5,2.4,2.6
		c0.6,1.1,0.9,2.4,0.9,3.8S2066.4,1650.6,2065.9,1651.7z"/>
	<path d="M2094.6,1638.6c-1.1-1.7-3.1-2.6-6.1-2.6c-1.5,0-2.9,0.4-4.1,1.1c-1.2,0.7-2.3,1.6-3,2.7v-0.7c0-0.7-0.2-1.4-0.7-1.9
		c-0.5-0.5-1.1-0.8-1.9-0.8s-1.4,0.3-1.9,0.8c-0.5,0.5-0.7,1.1-0.7,1.9v17.8c0,0.7,0.2,1.4,0.7,1.9c0.5,0.5,1.1,0.8,1.9,0.8
		s1.4-0.3,1.9-0.8c0.5-0.5,0.7-1.1,0.7-1.9v-11c0-1.5,0.5-2.7,1.4-3.6c0.9-1,2.3-1.4,3.9-1.4c1.6,0,2.7,0.5,3.4,1.4
		c0.7,0.9,1,2.1,1,3.7v11c0,0.7,0.2,1.4,0.7,1.9c0.5,0.5,1.1,0.8,1.9,0.8s1.4-0.3,1.9-0.8c0.5-0.5,0.7-1.1,0.7-1.9v-11
		C2096.3,1642.7,2095.7,1640.3,2094.6,1638.6z"/>
</g>
</svg>
