<?xml version="1.0" encoding="utf-8"?>
<!-- Generator: Adobe Illustrator 27.9.0, SVG Export Plug-In . SVG Version: 6.00 Build 0)  -->
<svg version="1.1" id="Layer_1" xmlns="http://www.w3.org/2000/svg" xmlns:xlink="http://www.w3.org/1999/xlink" x="0px" y="0px"
	 viewBox="0 0 3200.7 3671.2" style="enable-background:new 0 0 3200.7 3671.2;" xml:space="preserve">
<style type="text/css">
	.st0{fill:#E2D6C7;}
	.st1{fill:#232122;}
	.st2{font-family:'#9Slide03QuicksandBold-Bold';}
	.st3{font-size:480px;}
	.st4{fill:#ABDDBA;stroke:#ABDDBA;stroke-width:2;stroke-linecap:round;stroke-linejoin:round;stroke-miterlimit:10;}
	.st5{font-size:98px;}
	.st6{font-family:'SharkBlindateRegular';}
	.st7{font-size:222.9332px;}
	.st8{fill:#ABDDBA;}
	.st9{fill:#FFFFFF;}
	.st10{fill:none;}
</style>
<g id="Layer_1-2" transform="translate(800, 600) scale(1.69)">
	<g>
		<path class="st0" d="M496.2,924.3c-0.7-7.2-6.8-12.8-12.9-15.1c0-0.3,0-0.6,0-1c-0.1-6-2.3-11.4-6.1-14.8
			c-3.4-3.1-8.3-4.8-13.5-4.8c-2.7,0-5.4,0.5-7.7,1.5c-0.1,0.1-0.3,0.1-0.4,0.2c0,0-0.1-0.1-0.1-0.1c-5.1-4.8-11.9-8-18.5-8.6
			c-0.8-0.1-1.6-0.1-2.3-0.1l0,0c-3.6,0-7.1,0.7-10.5,2.2c-3,1.3-5.4,2.8-7.2,4.5c-2.1-1.2-4.7-1.8-7.5-1.8c-0.1,0-0.3,0-0.4,0
			c-7.1,0.2-13.3,3.7-16.5,9.5c-1.4,2.5-2.1,5.1-2.3,7.7c-1.8,0.3-3.5,1-5,1.8c-6.8,3.8-10.3,10.8-8.9,18.2c0.3,1.8,0.9,3.6,1.8,5.2
			c-3.1,2.7-5.5,6.8-6.3,11.1c-1.3,7,1.3,13.2,6.9,16c1.1,0.6,2.3,1,3.5,1.4c-0.8,2.6-1,5.4-0.4,8c1.6,7.2,8.1,12.8,15.8,13.7
			c0.8,0.1,1.6,0.1,2.5,0.1c1,0,2-0.1,2.9-0.2c2,2.8,5.1,4.4,7.1,5.1c-0.4,1.4-0.8,3.1-1.2,5c-1.2,6.3-1,10.9,0.7,14.1
			c1.8,3.5,5.1,5.7,9.6,6.4c0.7,0.1,1.4,0.2,2.2,0.2c1.5,1.1,3.4,1.7,5.6,1.7c0.6,0,1.2,0,1.8-0.1c0.5-0.1,1.3-0.2,2.2-0.5
			c0.6-0.3,1.2-0.7,1.7-1.2h13.9c0,0,0.1,0.1,0.1,0.1c0.7,0.8,1.6,1.3,2.9,1.5c0.9,0.2,1.8,0.3,2.6,0.3c1.8,0,3.4-0.4,4.8-1.2
			c0.3-0.2,0.6-0.4,0.9-0.6c0.5,0,1-0.1,1.4-0.2c3.5-0.5,6.3-2,8.2-4.3c4.9-0.2,9-1.8,12.1-4.7c3.7-3.5,5.2-8.1,5.6-11.7
			c1.5-1.4,3-3.6,3.7-7.3c1.2-6.2-2.5-9.8-2.9-10.2c0,0,0,0,0,0l-0.1-0.1c-0.2-0.2-0.4-0.3-0.7-0.5l-0.1,0c-0.5-0.2-1-0.4-1.6-0.4
			c-0.5-0.3-1.1-0.5-1.8-0.5c0,0,0,0,0,0c-0.2,0-0.4,0-0.5,0l0,0c-0.5-0.2-0.9-0.3-1.4-0.3c-0.3,0-0.6,0-0.8,0.1
			c0.2-0.7,0.3-1.4,0.4-2.1c0.1-0.5,0.1-1.1,0.1-1.6c7.3-1,13-5.6,15.1-12.2c1.4-4.1,1.2-8.2-0.3-11.8c-0.7-1.5-1.5-2.9-2.5-4.3
			c1-1,1.7-2.1,2.2-2.9C495.6,931.6,496.5,927.9,496.2,924.3L496.2,924.3z M472.4,981.8c0.3,3.1,1.9,5.3,3.4,6.7
			c-0.5,1.6-1.4,3.4-3.2,4.5c-0.9,0.5-1.8,0.9-2.8,1.1c-0.1-1.6-0.3-3.3-0.7-5.1c-0.6-3.2-1.5-6.1-1.9-7.3c1.9-0.7,3.6-1.6,5.1-2.8
			C472.3,979.9,472.3,980.9,472.4,981.8L472.4,981.8z"/>
		<g>
			<path class="st1" d="M426.8,910.4c0.1,0,8.5-0.9,14.4,0.2l0.6,0.1l0.1-0.6c2-9.5,1.8-9.7,1.5-9.9l-0.3-0.2l-0.3,0.1
				c-0.3,0.1-3.3,1.7-4.6,2.3l-4.1-5.7l-5,5.8l-5.6-2.3l2.9,10.3L426.8,910.4L426.8,910.4z M429.3,903.9l4.6-5.3l3.8,5.3l0.4-0.2
				c1.2-0.6,3.1-1.5,4.1-2.1c-0.2,1.5-0.9,4.7-1.5,7.7c-2.2-0.4-4.7-0.5-6.9-0.5c-3,0-5.7,0.2-6.7,0.3l-2-7L429.3,903.9L429.3,903.9
				z"/>
			<path class="st1" d="M487.3,937.5c1.6-1.1,2.9-2.6,3.9-4.2c1.6-2.6,2.4-5.7,2.1-8.7c-0.7-6.5-7-11.9-13.1-13.4c0.2-1,0.2-2,0.1-3
				c-0.1-4.7-1.6-9.6-5.1-12.8c-4.7-4.2-12.4-5.2-18.1-2.9c-0.8,0.3-1.5,0.7-2.2,1.1c-0.4-0.6-0.9-1.1-1.4-1.6
				c-4.5-4.3-10.6-7.3-16.8-7.9c-3.9-0.4-7.8,0.3-11.4,1.9c-3,1.3-6,3-7.9,5.7c-2.1-2-5.3-2.8-8.2-2.7c-5.8,0.1-11.2,3-14.1,8.1
				c-1.5,2.7-2.3,5.9-1.8,8.9c-2.3,0-4.7,0.6-6.6,1.7c-5.6,3.1-8.7,8.8-7.5,15.2c0.4,2.1,1.3,4.5,2.7,6.5c-3.8,2.2-6.5,6.8-7.3,10.9
				c-1,5.2,0.5,10.4,5.4,12.9c1.9,1,4.1,1.6,6.2,1.9c-1.7,2.8-2.4,6.3-1.7,9.4c1.4,6.3,7.1,10.7,13.3,11.5c2.1,0.2,4.4,0.1,6.5-0.5
				c0,0,0,0.1,0,0.1c1.2,2.7,4.1,4.6,6.7,5.7c0.8,0.3,1.6,0.6,2.4,0.8c-0.2,0.5-1.2,3.7-1.9,7.4c-1,5.5-0.9,9.7,0.4,12.3
				c1.3,2.6,3.9,4.3,7.5,4.9c1,0.2,2,0.2,2.9,0.2c0.2,0.2,0.4,0.4,0.5,0.5c1.5,1.2,3.5,1.3,5.3,1.1c0.5-0.1,1-0.1,1.4-0.3
				c0.4-0.2,0.7-0.5,1-0.9c0.1-0.2,0.2-0.4,0.3-0.6h16.9c0,0,0,0,0,0c0.2,0.4,0.4,0.7,0.7,1c0.3,0.4,0.8,0.5,1.3,0.6
				c1.8,0.4,3.8,0.3,5.5-0.6c0.4-0.2,0.8-0.6,1.1-0.9c0.7,0,1.4-0.1,2.2-0.2c3.3-0.5,5.8-2,7.2-4.3c0.1,0,0.2,0,0.2,0
				c4.8,0,8.6-1.3,11.4-3.9c3.6-3.4,4.6-8.1,4.9-11.1c1.3-0.9,2.9-2.7,3.6-6.4c0.9-4.8-1.9-7.4-2-7.6l-0.1-0.1l-0.1,0
				c-0.2-0.1-0.4-0.1-0.6,0c-0.2,0.1-0.4,0.3-0.6,0.6c-0.1-0.4-0.2-0.7-0.3-0.8c-0.1-0.2-0.3-0.3-0.6-0.3l0,0c-0.2,0-0.5,0-1.2,1.1
				c0-0.3-0.1-0.5-0.1-0.7c0-0.2-0.2-0.5-0.4-0.5c-0.2-0.1-0.5-0.1-0.8,0.2c-1,0.7-4.1,4.9-3.7,8.8c0.3,3.1,2.4,5,3.8,5.9
				c-0.4,2.5-1.6,6-4.9,8c-2.7,1.6-5.2,1.8-7.1,1.6c0.1-2.1-0.1-4.6-0.7-7.5c-0.7-3.8-1.8-7-1.9-7.4l-0.3-2.5
				c6.2-1.3,11.2-5.8,12-12.4c0.1-1.2,0.1-2.6-0.1-3.9c0.9,0,1.8-0.1,2.6-0.2c6-0.8,11-4.4,12.9-10.2c1.1-3.2,1.2-6.6-0.2-9.8
				C490.5,941.1,489.1,939.1,487.3,937.5L487.3,937.5z M454.5,895.8c0.6,1.3,0.6,2.8-0.2,4.2c-1,1.7-1.9-0.1-1.6-1.3
				C452.8,897.6,453.6,896.6,454.5,895.8z M417.5,894.1c0.1,0.2,0.3,0.4,0.4,0.7c0.3,0.5,1.3,4.5-0.2,4.2c-0.6-0.1-0.8-1.3-0.9-1.8
				C416.7,896.2,417,895.1,417.5,894.1z M427,976.6c0,0.4-0.2,0.8-0.3,1.2c-0.8-0.8-1.6-1.9-1.2-2.9c0.1-0.4,0.5-0.9,1-0.7
				C427.3,974.4,427.1,976,427,976.6L427,976.6z M476.4,981.4c-0.3-2.8,1.6-6,2.7-7.2c0.1,0.7,0.2,1.4,0.3,1.4l0.3,1.6l0.8-1.4
				c0.2-0.4,0.5-0.9,0.8-1.3c0.1,0.4,0.2,0.9,0.3,1.4l0.4,2.3l0.8-2.2c0.2-0.5,0.4-1,0.6-1.3c0.6,0.8,2,2.9,1.3,6.1
				c-0.5,2.6-1.4,4.1-2.3,5c-0.4,0.4-0.9,0.7-1.2,0.9c-0.2,0.1-0.4,0.2-0.6,0.2c0,0-0.1,0-0.2-0.1c-0.3-0.1-0.7-0.4-1.1-0.8
				C478,985.2,476.7,983.6,476.4,981.4L476.4,981.4z M474.8,996.5c3.5-2.2,4.9-5.7,5.4-8.4c0,0,0,0,0,0l0.2,0.1l0.2,0
				c0,0,0.2,0,0.4-0.1c-0.4,2.8-1.4,6.7-4.4,9.5c-2.5,2.3-5.9,3.5-10.2,3.6c0.3-0.8,0.6-1.8,0.7-2.9
				C469.1,998.5,471.8,998.2,474.8,996.5L474.8,996.5z M465.9,996.8c0,0.4,0,0.8-0.1,1.2c-0.1,1.2-0.4,2.2-0.8,3.2
				c0,0,0,0.1-0.1,0.1c-0.2,0.4-0.4,0.7-0.6,1c-1.3,1.7-3.3,2.8-6,3.2c-0.4,0.1-0.9,0.1-1.2,0.1c0.4-0.9,0.7-1.9,0.8-2.8
				c0.5-2.6,0.9-5.3,0.7-8c0-0.4-0.6-0.5-0.7-0.1c-0.3,1.9-0.4,3.8-0.7,5.7c0,0.3-0.1,0.5-0.1,0.8c0,0.1-0.1,0.3-0.1,0.5
				c-0.1,0.6-0.2,1.2-0.3,1.8c0,0,0,0,0,0c0,0.2-0.1,0.3-0.1,0.5c0,0,0,0,0,0.1c-0.1,0.2-0.1,0.3-0.2,0.5c0,0,0,0,0,0.1
				c-0.1,0.2-0.1,0.3-0.2,0.5c0,0,0,0,0,0.1c-0.1,0.1-0.2,0.3-0.3,0.4c0,0,0,0.1-0.1,0.1c0,0.1-0.1,0.1-0.2,0.2c0,0,0,0.1-0.1,0.1
				c-0.1,0.1-0.2,0.2-0.3,0.3c-0.1,0.1-0.2,0.2-0.3,0.3c0,0-0.1,0.1-0.1,0.1c-0.1,0-0.1,0.1-0.2,0.2c-0.1,0.1-0.2,0.1-0.3,0.2
				c0,0,0,0,0,0c-0.1,0.1-0.2,0.1-0.4,0.2c0-0.1,0-0.2,0-0.2c0,0,0-0.1,0-0.1c0-0.1,0-0.1,0-0.2c0,0,0-0.1,0-0.1c0-0.1,0-0.2,0-0.3
				c0-0.1,0-0.2,0-0.3c0,0,0,0,0-0.1c0-0.1,0-0.2-0.1-0.2c0,0,0,0,0,0v0c0,0,0-0.1,0-0.1c0-0.1,0-0.1-0.1-0.2
				c-0.1-0.2-0.5-0.2-0.5,0.1c0,0.1,0,0.2,0,0.3c0,0.1,0,0.1,0,0.2c0,0.1,0,0.2,0,0.2c0,0,0,0.1,0,0.1c0,0.2,0,0.5,0,0.8
				c0,0.2-0.1,0.4-0.1,0.6l0,0c-0.7,0.1-1.4,0.2-2.1,0.1c0.1-0.2,0.1-0.4,0.2-0.6c0-0.1,0-0.2,0-0.2c0,0,0-0.1,0-0.1c0,0,0,0,0-0.1
				c0-0.1,0-0.2,0-0.3s0-0.2,0-0.4c0-0.1,0-0.1,0-0.2c0,0,0-0.1,0-0.1c0,0,0,0,0-0.1c-0.1-0.2-0.4-0.2-0.4,0c0,0.1,0,0.2-0.1,0.3
				c0,0.1,0,0.2,0,0.3c0,0.2,0,0.4-0.1,0.6l0,0c0,0.1-0.1,0.2-0.1,0.3c0,0,0,0.1,0,0.1c0,0,0,0,0,0c0,0,0,0,0,0
				c0,0.1-0.1,0.2-0.1,0.2c-0.1,0-0.1,0-0.2,0c-0.1,0-0.1,0-0.1,0c0,0,0,0-0.1,0c0,0-0.1,0-0.1,0c0,0-0.1,0-0.1,0c0,0-0.1,0-0.1-0.1
				c0,0-0.1,0-0.1,0c0,0-0.1,0-0.1-0.1c0,0,0,0-0.1,0c0,0-0.1,0-0.1-0.1c0,0,0,0-0.1,0c0,0-0.1-0.1-0.1-0.1c0,0,0,0,0-0.1
				c0,0-0.1-0.1-0.1-0.1c0,0-0.1-0.1-0.1-0.1c0-0.1-0.1-0.2-0.1-0.3c0,0,0,0,0-0.1c-0.2-0.3-0.2-0.7-0.3-1.1c0-0.3-0.1-0.6-0.1-0.9
				c-0.2-2.1-0.2-4.2,0-6.3c0-0.3,0.1-0.6,0.1-1c0.1-0.7-0.9-0.9-1-0.1c-0.1,0.6-0.1,1.2-0.1,1.9c-0.1,1.8-0.1,3.5,0.1,5.3
				c0,0.2,0,0.3,0,0.5c0,0,0,0,0,0c0,0.1,0,0.3,0,0.4c0,0.1,0,0.1,0,0.1c0,0.1,0,0.2,0,0.3c0,0,0,0.1,0,0.1c0,0,0,0,0,0h-16.2
				c0-0.2,0.1-0.5,0.1-0.7c0.3-2.7,0.2-5.3,0-8c-0.1-0.7-1.1-0.6-1,0.1c0.3,2.1,0.4,4.3,0.2,6.5c-0.1,0.9-0.1,1.8-0.4,2.6
				c-0.1,0.3-0.3,0.7-0.6,0.9c-0.3,0.2-0.8,0.3-1.2,0.4c-0.1-0.1-0.1-0.1-0.1-0.2c0,0,0,0,0,0c0,0,0,0,0,0c0,0,0-0.1,0-0.1
				c0-0.1-0.1-0.2-0.1-0.3c-0.1-0.2-0.1-0.4-0.1-0.6c0-0.2-0.1-0.4-0.1-0.7c0-0.2-0.4-0.2-0.4,0c-0.1,0.2-0.1,0.5-0.1,0.7
				s0,0.5,0,0.8c0,0.2,0.1,0.4,0.2,0.5c-0.7,0-1.4,0-2.1-0.1l0,0l0,0c-0.1-0.2-0.1-0.4-0.1-0.6c-0.1-0.5,0-1,0-1.5
				c0-0.3-0.4-0.3-0.5-0.1c-0.1,0.3-0.2,0.6-0.2,0.9c0,0.3,0,0.5,0,0.8c0,0.1,0,0.1,0,0.2c-0.3-0.1-0.7-0.3-1-0.5
				c-1.5-1-1.8-3-2.1-4.6c-0.4-2.4-0.7-4.8-1-7.2c-0.1-0.4-0.7-0.3-0.7,0.1c-0.1,2.4,0.2,4.8,0.6,7.1c0.2,1.4,0.5,3,1.3,4.2
				c-0.1-0.2-0.3-0.4-0.4-0.6c-0.6,0-1.2-0.1-1.9-0.2c-3.2-0.5-5.4-1.9-6.6-4.2c-2.9-5.7,1.6-18.7,1.6-18.8v0
				c1.7,0.3,3.4,0.4,5.1,0.3c2.4-0.2,5-0.7,6.8-2.3c0.2-0.2,0.4-0.3,0.5-0.5c0.5,0.4,1.1,0.9,1.7,1.2c2.1,1.3,4.5,2.1,7,2.5
				c2.2,0.3,4.4,0.2,6.4-0.3c3-0.7,5.9-2.1,8.1-4.3c0.3-0.3,0.6-0.7,0.9-1c1.3,0.9,2.9,1.4,4.4,1.6c0.1,0,0.1,0,0.2,0
				c1.3,0.2,2.6,0.4,3.9,0.4c1.1,0,2.2-0.1,3.3-0.2l0.3,2.5l0,0.1C463.4,982.5,466.1,990.5,465.9,996.8L465.9,996.8z M451.4,974.3
				c-0.1,0.6-0.3,1.2-0.6,1.8c-0.8-0.7-1.3-1.7-0.9-2.6C450.4,972.3,451.5,973.4,451.4,974.3z M490.8,950.2
				c-0.8,4.6-3.5,8.5-7.8,10.4c-2.3,1-4.9,1.5-7.3,1.4c-0.3-0.9-0.8-1.7-1.4-2.4c-1-1.1-3.2-2.1-4.5-0.9c-1.1,1,0,2.5,0.9,3.2
				c1.2,0.8,2.5,1.3,4,1.4c0.2,1,0.3,2,0.2,2.9c-0.2,5.5-4,10-9.1,11.7c-0.6,0.2-1.2,0.3-1.8,0.5c-1.3,0.3-2.7,0.4-4.1,0.5
				c-1.6,0-3.1-0.1-4.6-0.5c-0.7-0.1-1.3-0.3-1.9-0.6c-0.4-0.2-1-0.4-1.5-0.8c0,0,0-0.1,0.1-0.1c0.5-0.9,0.9-1.8,0.9-2.8
				c0-1.5-1.3-2.7-2.8-2.3c-1.8,0.5-1.6,2.9-0.9,4.2c0.2,0.4,0.5,0.8,0.8,1.1c0,0,0.1,0.1,0.1,0.1c-0.3,0.4-0.7,0.8-1,1.1
				c-1.8,1.7-4.1,2.8-6.4,3.5c-0.7,0.2-1.5,0.4-2.2,0.5c-4.2,0.6-8.6-0.5-12-3.1c-0.2-0.1-0.4-0.3-0.6-0.5c0.1-0.1,0.1-0.2,0.2-0.4
				c0.6-1.3,0.7-2.7,0.3-4c-0.5-1.5-2.2-2.1-3.3-0.9c-1.3,1.3-0.7,3.2,0.3,4.5c0.2,0.3,0.5,0.6,0.7,0.9c0,0,0.1,0.1,0.1,0.1
				c-1.8,2.1-5.5,2.5-8.2,2.5c-0.5,0-1.1-0.1-1.6-0.1c-1.8-0.2-3.5-0.6-5.1-1.3c-2.1-0.9-4.7-2.5-5.6-4.8c1-0.4,2.2-1,2.4-2.1
				c0.3-1.4-1.2-2.3-2.4-1.9c-1.3,0.5-1.7,1.8-1.6,3.1c-8.3,2.6-18.9-3.6-18.4-12.9c0.1-2.1,0.9-4.3,2.1-6.1c0.3,0,0.5,0,0.8,0
				c1.9,0.1,4.6,0,6-1.4c1.2-1.2,0.9-3.2-0.8-3.5c-2.2-0.5-4.6,1-5.9,2.6c-0.9,1.1-0.9,1.1,0,0c-0.3,0.3-0.5,0.6-0.7,0.9
				c-3.3-0.3-6.7-1.4-8.9-3.6c-3-2.9-3-7.9-1.8-11.6c1-3,3.3-6.6,6.4-8.3c1.2,1.3,2.8,2.2,4.6,2.2c1.4,0.1,3.4-0.6,2.9-2.4
				c-0.4-1.8-2.7-2.3-4.3-2.2c-1,0.1-2,0.3-2.8,0.7c-1.9-2.3-2.9-5.7-2.9-8.5c-0.1-5.4,3.4-9.8,8.2-11.9c1.5-0.7,3.3-1,5.1-1
				c0.3,1,0.7,1.9,1.3,2.8c1,1.5,3.1,3.7,5.1,2.6c1.5-0.8,1.2-2.5,0.3-3.6c-1.5-1.8-3.5-2.7-5.6-3c-0.6-3.3,0.5-6.8,2.4-9.5
				c2.6-3.8,7-5.9,11.6-6.2c2.9-0.2,6.1,0.4,8.1,2.5c-1.2,2.2-2.1,5.8,0.4,7.2c1,0.5,2,0,2.5-0.9c0.6-1.2,0.4-2.7,0-3.9
				c-0.3-0.9-0.7-1.7-1.3-2.4c3-4.3,9.2-6.7,14.2-7.2c5.5-0.6,10.9,1.1,15.5,3.9c1.8,1.1,4.4,2.9,5.9,5c-0.8,0.7-1.5,1.4-2,2.3
				c-0.8,1.4-1,3.6,0.4,4.8c1.6,1.3,3.2-0.6,3.6-2c0.5-1.6,0.3-3.2-0.3-4.6c0.1,0,0.1-0.1,0.2-0.1c4.3-2.7,10.4-2.6,15-0.6
				c3.9,1.7,6.5,5.1,7.6,9.1c0.5,1.6,0.7,3.3,0.7,4.9c0,0.8,0,1.8-0.1,2.7c-1.8-0.2-3.8-0.1-5.1,1.2c-1.2,1.1-1.3,2.8,0.4,3.3
				c1.7,0.5,3.8-0.4,4.9-1.7c0.3-0.4,0.6-0.8,0.7-1.3c3.8,0.8,7.6,3.8,9.7,6.5c3.4,4.2,3,10,0,14.3c-0.9,1.3-2,2.6-3.4,3.4
				c-0.8-0.6-1.7-1.1-2.6-1.5c-1.2-0.5-4.9-1.1-4.4,1.4c0.4,2,3.3,2.5,5,2.3c0.6-0.1,1.3-0.3,1.9-0.6c1.1,1,2.1,2.2,2.7,3.2
				C490.6,944.1,491.4,947,490.8,950.2L490.8,950.2z M474.2,961.8c-1.3-0.2-3.1-0.7-3.4-1.8c-0.4-1.1,1.8-0.2,2.2,0.2
				C473.5,960.6,473.9,961.2,474.2,961.8L474.2,961.8z M405.2,973.8c0-0.3,0.1-0.6,0.3-0.9c0.2-0.3,0.7-0.7,1-0.4
				C406.9,973,405.7,973.6,405.2,973.8L405.2,973.8z M388.6,954.1c0,0,0.1-0.1,0.1-0.1l0,0c0.7-0.9,1.7-1.6,2.8-1.9
				c0.5-0.2,1.9-0.6,2.3,0c0.9,1.4-2.8,1.9-3.3,2C389.9,954.1,389.2,954.1,388.6,954.1L388.6,954.1z M384,929.9
				c0.8-0.3,1.6-0.4,2.4-0.4c0.5,0,3,0.5,2.4,1.5c-0.3,0.5-1.4,0.4-1.9,0.3c-0.8-0.1-1.5-0.4-2.1-0.8
				C384.5,930.4,384.2,930.1,384,929.9z M394.8,907.6c1.6,0.3,3.1,1.1,4.2,2.4c0.7,0.9,0.5,2.1-0.9,1.7
				C396.5,911.3,395.4,909.3,394.8,907.6L394.8,907.6z M478.5,912.3c0,0.1-0.1,0.2-0.1,0.3c-0.6,1-2.5,2.2-3.8,1.6
				c-1.3-0.6,1.4-1.7,1.9-1.8C477.2,912.2,477.9,912.2,478.5,912.3L478.5,912.3z M484.9,937.3c-0.5,0.2-1,0.3-1.5,0.3
				c-0.8,0-1.9-0.2-2.5-0.8c-0.6-0.6,0-0.8,0.7-0.7C482.8,936,483.9,936.5,484.9,937.3L484.9,937.3z"/>
			<path class="st1" d="M442.4,931.5c-1.7-5.7-4.3-13.2-7.5-12.7c-0.8,0.1-3.4,0.5-6.7,13.3c-1.3,5-2.2,9.9-2.5,11.7
				c0,0,0,0.1,0,0.1c0,0.1,0,0.4,0,0.7c0,0.2,0,0.4,0.1,0.6c0.3,2.4,1.7,7.2,8.2,8.7c0.5,0.1,1.1,0.2,1.6,0.3
				c0.6-0.1,1.1-0.2,1.6-0.3c6.6-1.5,8-6.5,8.2-8.9c0-0.5,0.1-0.8,0.1-1c0-0.1,0-0.1,0-0.2C445.2,942.1,444,936.8,442.4,931.5
				L442.4,931.5z M426.9,943.8c1.6-9.4,5.1-23.4,8.2-23.9c0,0,0.1,0,0.1,0c2.3,0,5.2,9.1,6,11.9c1.5,5,2.6,10.1,3,12L426.9,943.8
				L426.9,943.8z"/>
			<path class="st1" d="M456.1,930.8c-1.1,1.6-1.9,3.4-4,3.6c-2.2,0.2-4-1.3-4.4-3.4c-0.2-0.8-1.6-0.7-1.5,0.2
				c0.3,3,2.7,5.4,5.8,5.1c2.5-0.2,5-2.3,4.6-5.4C456.6,930.6,456.2,930.6,456.1,930.8L456.1,930.8z"/>
			<path class="st1" d="M423,931c-0.5,2.1-2.2,3.6-4.4,3.4c-2.2-0.2-2.9-2-4-3.6c-0.1-0.2-0.5-0.2-0.5,0.1c-0.3,3.1,2.2,5.2,4.6,5.4
				c3.1,0.3,5.5-2.1,5.8-5.1C424.6,930.3,423.2,930.1,423,931L423,931z"/>
			<path class="st1" d="M441.3,956c-1,1-1.4,2.1-3.1,2c-0.6,0-1.4-0.2-1.9-0.7c-0.3-0.3-0.4-0.5-0.7-0.6c-0.1,0-0.1-0.1-0.2-0.1
				c-0.1,0-0.2,0-0.2,0.1c-0.3,0.1-0.4,0.3-0.6,0.5c-0.5,0.5-1.2,0.8-2,0.8c-0.8,0.1-1.5-0.1-2.1-0.6c-0.4-0.4-0.6-0.9-1-1.3
				c-0.2-0.3-0.6,0-0.7,0.3c-0.3,3.3,4.5,4.1,6.5,2.2c2,2,6.8,1.1,6.5-2.2C441.9,956,441.6,955.7,441.3,956L441.3,956z"/>
			<path class="st1" d="M449.9,948.6c-0.2,0-0.4,0.2-0.4,0.4c0,0.2,0.2,0.4,0.4,0.4c0.2,0,0.4-0.2,0.4-0.4
				C450.3,948.8,450.1,948.6,449.9,948.6z"/>
			<path class="st1" d="M448.6,951.6c-0.2,0-0.4,0.2-0.4,0.4c0,0.2,0.2,0.4,0.4,0.4s0.4-0.2,0.4-0.4
				C449,951.7,448.8,951.6,448.6,951.6z"/>
			<path class="st1" d="M451.5,952.2c-0.2,0-0.4,0.2-0.4,0.4c0,0.2,0.2,0.4,0.4,0.4s0.4-0.2,0.4-0.4
				C451.9,952.4,451.7,952.2,451.5,952.2z"/>
			<path class="st1" d="M473.6,949.5c-2.2-1-4.7-1.5-7.2-1.5c0.4-1.3,0.7-2.7,0.9-4.1c1.4-0.1,2.7-0.1,4.1-0.1c0.2,0,0.2-0.2,0-0.3
				c-1.3-0.3-2.7-0.4-4.1-0.3c0.2-2.1,0.2-4.4-0.1-6.6c-0.8-5.6-3.1-10.8-6.4-14.1c0.5-0.7,1.4-2,1.4-3.6c0-1.3-0.6-2.6-1.9-3.7
				c-1.2-1.1-2.5-1.6-3.9-1.5c-1.9,0.1-3.3,1.4-3.9,2c-1.6-0.4-9-1.9-16.3-2.2v0h-0.8h-0.2h-0.6v0c-7.3,0.2-14.7,1.8-16.3,2.2
				c-0.6-0.6-2-1.8-3.9-2c-1.4-0.1-2.7,0.4-3.9,1.5s-1.9,2.3-1.9,3.7c0,1.6,0.9,3,1.4,3.6c-3.3,3.2-5.7,8.5-6.4,14.1
				c-0.3,2.3-0.3,4.5-0.1,6.7c-1.5-0.1-3,0-4.5,0.3c-0.2,0-0.1,0.3,0,0.3c1.5,0,3,0,4.5,0.1c0.2,1.4,0.5,2.8,0.9,4.1
				c-2.6,0-5.3,0.4-7.6,1.5c-0.1,0.1,0,0.3,0.1,0.3c2.6-0.6,5.1-1.1,7.7-1.1c0.3,1,0.8,2,1.2,2.9c-2.8,0.2-5.8,0.9-8.2,2.5
				c-0.1,0.1,0,0.3,0.1,0.3c2.8-1,5.5-1.9,8.4-2.1c0,0,0,0,0,0c0.3,0.5,0.6,1,0.9,1.5c6,8.7,22.7,9.8,27.4,9.9l0.6,0
				c0,0,0.1,0,0.2,0c0.1,0,0.1,0,0.2,0h0.6v0c4.6-0.1,21.4-1.2,27.4-9.9c0.3-0.5,0.6-1,0.9-1.5c2.8,0.2,5.4,1.1,8,2
				c0.2,0.1,0.2-0.2,0.1-0.3c-2.3-1.5-5.1-2.2-7.8-2.4c0.5-0.9,0.9-1.9,1.3-2.9c2.5,0,4.9,0.5,7.3,1.1
				C473.7,949.8,473.8,949.5,473.6,949.5L473.6,949.5z M466.2,943.3c-1.2,0.1-2.4,0.4-3.6,0.7c-2.7,0.8-5.9,2-7.9,4.2
				c-0.2,0.2,0,0.4,0.2,0.3c2.6-1.4,4.9-3,7.8-3.8c1.1-0.3,2.2-0.5,3.3-0.6c-0.2,1.4-0.5,2.7-0.9,4c-0.1,0-0.2,0-0.3,0
				c-2.8,0.1-6.2,0.7-8.6,2.3c-0.2,0.1-0.1,0.4,0.2,0.4c2.9-0.8,5.4-1.9,8.4-2c0,0,0,0,0.1,0c-0.4,1-0.8,1.9-1.3,2.8
				c-2.7-0.1-5.9,0.1-8.2,1.3c-0.2,0.1-0.1,0.4,0.2,0.4c2.6-0.4,5.1-1.1,7.7-1c-0.2,0.3-0.4,0.6-0.6,0.9c-5.9,8.6-23.5,9.3-27,9.4
				h-0.2c0,0,0,0-0.1,0c0,0,0,0,0,0h-0.2c-3.5-0.1-21.1-0.8-27-9.4c-0.2-0.3-0.4-0.6-0.5-0.9c2.5,0,4.8,0.6,7.3,1
				c0.2,0,0.4-0.3,0.2-0.4c-2.3-1.2-5.2-1.4-7.8-1.4c-0.5-0.9-0.9-1.8-1.3-2.8c2.9,0.2,5.3,1.2,8.1,2c0.2,0.1,0.4-0.2,0.2-0.4
				c-2.4-1.6-5.7-2.2-8.5-2.3c-0.4-1.3-0.7-2.6-0.9-4c1,0.1,1.9,0.3,2.9,0.6c2.9,0.8,5.2,2.4,7.8,3.8c0.2,0.1,0.4-0.2,0.2-0.3
				c-2-2.1-5.2-3.4-7.9-4.2c-1-0.3-2.1-0.5-3.2-0.7c-0.9-7.8,1.9-16.1,6.6-20.4l0.5-0.4l-0.5-0.4c0,0-1.5-1.5-1.5-3.2
				c0-1,0.5-1.9,1.5-2.8c1-0.8,2-1.2,3-1.2c1.9,0.1,3.3,1.8,3.3,1.8l0.2,0.3l0.4-0.1c0.1,0,8.7-2,17-2.2h0.2h0.3
				c8.4,0.2,16.9,2.2,17,2.2l0.4,0.1l0.2-0.3c0,0,1.4-1.7,3.3-1.8c1-0.1,2,0.3,3,1.2c1,0.9,1.5,1.8,1.5,2.8c0,1.8-1.4,3.2-1.5,3.2
				l-0.5,0.4l0.5,0.4C464.3,927.2,467,935.4,466.2,943.3L466.2,943.3z"/>
			<path class="st1" d="M420.7,948.6c-0.2,0-0.4,0.2-0.4,0.4c0,0.2,0.2,0.4,0.4,0.4s0.4-0.2,0.4-0.4
				C421.1,948.8,420.9,948.6,420.7,948.6z"/>
			<path class="st1" d="M422,951.6c-0.2,0-0.4,0.2-0.4,0.4c0,0.2,0.2,0.4,0.4,0.4c0.2,0,0.4-0.2,0.4-0.4
				C422.4,951.7,422.2,951.6,422,951.6z"/>
			<path class="st1" d="M419.1,952.2c-0.2,0-0.4,0.2-0.4,0.4c0,0.2,0.2,0.4,0.4,0.4s0.4-0.2,0.4-0.4
				C419.5,952.4,419.3,952.2,419.1,952.2z"/>
			<path class="st1" d="M412.3,917c-1.6,1.3,0.2,4.1,0.2,4.1l3.9-3.3C416.4,917.8,413.9,915.7,412.3,917z"/>
			<path class="st1" d="M458.6,917c-1.6-1.3-4.2,0.8-4.2,0.8l3.9,3.3C458.3,921.1,460.2,918.3,458.6,917z"/>
			<g>
				<path class="st1" d="M414.9,983.5c-0.1,0.2-0.3,0.4-0.4,0.7c-0.1,0.1-0.1,0.3-0.2,0.4c-0.1,0.2-0.1,0.4-0.1,0.5c0,0,0,0.1,0,0
					c0,0,0,0,0,0c0,0,0,0.1,0,0.1c0,0.1,0.1,0.2,0.1,0.3c0.2,0.2,0.4,0,0.5-0.1c0,0,0-0.1,0.1-0.2c0,0,0,0,0,0c0,0-0.1,0.2,0,0.1
					c0.1-0.1,0.1-0.2,0.1-0.3c0-0.1,0.1-0.2,0.1-0.4c0-0.1,0-0.1,0.1-0.2c0,0,0-0.1,0-0.1c0,0,0,0,0-0.1c0,0,0,0,0,0
					c0-0.1,0.1-0.1,0.1-0.2c0-0.1,0.1-0.1,0.1-0.2c0.1-0.2,0-0.4-0.1-0.5C415.2,983.3,415,983.3,414.9,983.5L414.9,983.5
					L414.9,983.5z"/>
				<path class="st1" d="M414,987c-0.1,0.2-0.1,0.5-0.2,0.7c0,0.1-0.1,0.2-0.1,0.4c0,0.2-0.1,0.4,0,0.6c0.1,0.2,0.3,0.2,0.5,0.1
					c0.2-0.1,0.2-0.3,0.3-0.5c0-0.1,0-0.2,0.1-0.4c0-0.2,0.1-0.5,0.1-0.7c0-0.1,0-0.2,0-0.3c0-0.1-0.1-0.1-0.2-0.2
					C414.2,986.7,414,986.8,414,987L414,987L414,987z"/>
				<path class="st1" d="M413.3,990.3c-0.1,0.2-0.1,0.5-0.2,0.8c0,0.2-0.1,0.3-0.1,0.5c0,0,0,0,0,0.1c0,0,0,0.1,0,0.1
					c0,0.1,0,0.1,0,0.1c0,0,0,0,0,0c0,0.1,0,0.1,0.1,0.1c0.1,0.1,0.1,0.1,0.2,0.1c0.1,0,0.2,0,0.2,0c0.1,0,0.1-0.1,0.1-0.1v0
					c0,0.1,0,0.1,0,0c0,0,0-0.1,0.1-0.1c0,0,0,0,0-0.1c0-0.1,0.1-0.3,0.1-0.5c0-0.2,0-0.5,0.1-0.8c0-0.2-0.1-0.3-0.3-0.3
					C413.5,990,413.3,990.1,413.3,990.3L413.3,990.3L413.3,990.3z"/>
				<path class="st1" d="M412.8,993.9c0,0.2-0.1,0.3-0.1,0.5c0,0.1,0,0.2,0,0.3c0,0,0,0.1,0,0.1c0,0.1,0,0.1,0.1,0.2c0,0,0,0,0,0.1
					c0,0.1,0.2,0.1,0.3,0.1c0.1,0,0.2-0.1,0.3-0.1c0.1-0.1,0.1-0.3,0.1-0.5c0-0.1,0-0.2,0-0.3v0.1c0-0.1,0-0.2,0-0.3
					c0-0.1,0-0.2,0-0.3c0-0.1-0.1-0.1-0.2-0.2C413,993.6,412.8,993.7,412.8,993.9L412.8,993.9L412.8,993.9z"/>
				<path class="st1" d="M412.6,997.3c0,0.3-0.1,0.6,0,0.9c0,0.3,0.1,0.9,0.5,0.9l-0.1,0c0,0,0,0,0,0c0.1,0,0.2,0,0.3-0.1
					c0,0,0,0,0,0l-0.1,0.1c0.2-0.1,0.2-0.3,0.2-0.5c0-0.1,0-0.2,0-0.2c0,0.1,0,0,0,0c0,0,0-0.1,0-0.1c0-0.1,0-0.2,0-0.4
					c0-0.1,0-0.1,0-0.2c0,0,0-0.1,0-0.1c0,0,0-0.1,0,0c0-0.1,0-0.2,0-0.3c-0.1-0.1-0.1-0.2-0.2-0.2
					C412.9,997,412.6,997.1,412.6,997.3L412.6,997.3L412.6,997.3z"/>
				<path class="st1" d="M413.3,1001.2c0.1,0.2,0.2,0.4,0.4,0.6c0.1,0.1,0.2,0.2,0.3,0.4s0.2,0.2,0.3,0.3l0.1,0c0,0,0.1,0,0.1,0
					c0.1,0,0.2,0,0.2-0.1c0.1-0.1,0.1-0.3,0.1-0.5c-0.1-0.2-0.2-0.4-0.4-0.6c-0.1-0.2-0.3-0.4-0.4-0.6c-0.1-0.2-0.4-0.3-0.6-0.1
					C413.2,1000.7,413.1,1001,413.3,1001.2L413.3,1001.2L413.3,1001.2z"/>
				<path class="st1" d="M415.7,1003.7c0.1,0.1,0.3,0.2,0.4,0.3c0.1,0,0.1,0.1,0.2,0.1c0,0,0.1,0,0.1,0c0.1,0,0.1,0.1,0.2,0.1
					c0.1,0,0.3,0,0.4-0.1c0.1-0.1,0.1-0.3,0-0.4c-0.1-0.2-0.3-0.3-0.5-0.4c-0.1-0.1-0.3-0.2-0.4-0.3c-0.1-0.1-0.2-0.1-0.3,0
					c-0.1,0-0.2,0.1-0.2,0.2c-0.1,0.1-0.1,0.2,0,0.3C415.5,1003.6,415.6,1003.6,415.7,1003.7L415.7,1003.7L415.7,1003.7z"/>
				<path class="st1" d="M418.4,1005c0.1,0,0.2,0,0.2,0c0,0,0.1,0,0.1,0c0.1,0,0.1,0,0.2,0c0,0,0,0,0.1,0h0.1c0.1,0,0.1-0.1,0.1-0.1
					c0,0,0.1,0,0.1-0.1c0,0,0.1-0.1,0.1-0.1c0-0.1,0-0.1,0-0.2c0-0.1,0-0.1-0.1-0.1c0,0-0.1-0.1-0.1-0.1c0,0,0,0,0,0c0,0,0,0,0,0
					c0,0,0,0-0.1,0c0,0-0.1,0-0.2,0c-0.1,0-0.1,0-0.2-0.1c-0.1,0-0.1,0-0.2,0c-0.1,0-0.1,0-0.2,0c0,0-0.1,0.1-0.1,0.1
					c0,0-0.1,0.1-0.1,0.2l0,0.1c0,0.1,0,0.2,0.1,0.2C418.2,1004.9,418.3,1005,418.4,1005L418.4,1005L418.4,1005z"/>
				<path class="st1" d="M415.2,989.9c0,0.1,0,0.2,0,0.3c0,0,0,0.1,0,0.1c0,0,0,0.1,0,0c0,0,0,0.1,0,0.2c0,0.1,0,0.2,0,0.3
					c0,0.1,0,0.1,0,0.2c0,0.1,0,0.1,0,0.2c0,0,0,0,0,0c0,0,0,0,0,0c0,0.1,0.1,0.2,0.2,0.2c0.1,0,0.2,0,0.3-0.1c0,0,0,0,0.1-0.1
					c0,0,0,0,0,0c0,0,0,0,0,0c0,0,0.1-0.1,0.1-0.2c0-0.1,0-0.1,0-0.2c0-0.1,0-0.2,0-0.3c0-0.2,0-0.4,0-0.6c0-0.2-0.1-0.3-0.3-0.3
					C415.3,989.6,415.2,989.8,415.2,989.9L415.2,989.9L415.2,989.9z"/>
				<path class="st1" d="M414.7,993.9v0.5c0,0.1,0,0.2,0,0.2c0,0,0,0.1,0,0.1c0,0.1,0,0.1,0,0.2c0,0,0.1,0.1,0.1,0.1l-0.1-0.1
					c0,0.1,0,0.2,0.1,0.2c0,0.1,0.1,0.1,0.2,0.1c0.1,0,0.2,0,0.2-0.1c0.1-0.1,0.1-0.1,0.1-0.2l-0.1,0.1c0,0,0-0.1,0.1-0.1
					c0-0.1,0-0.1,0.1-0.2c0,0,0-0.1,0-0.1c0-0.1,0-0.2,0-0.3v-0.5c0-0.2-0.2-0.4-0.4-0.4S414.8,993.7,414.7,993.9L414.7,993.9
					L414.7,993.9z"/>
				<path class="st1" d="M414.6,997.4c0,0.3,0.1,0.6,0.1,0.9c0,0.1,0,0.3,0.1,0.4c0,0.1,0.1,0.2,0.1,0.2c0,0.1,0.1,0.2,0.2,0.2
					l-0.1-0.1c0,0,0,0,0,0c0,0,0,0,0,0.1c0.1,0.1,0.4,0.1,0.5-0.1c0,0,0,0,0-0.1c0,0,0,0,0,0l-0.1,0.1c0.1-0.1,0.1-0.2,0.1-0.3
					c0-0.1,0-0.1,0-0.2c0-0.2,0-0.3-0.1-0.5c0-0.1,0-0.2-0.1-0.4c0-0.1,0-0.1,0-0.2c0,0,0-0.1,0-0.1c0,0,0,0,0-0.1c0,0,0,0,0,0
					c0-0.1,0-0.2-0.1-0.3c-0.1-0.1-0.2-0.1-0.3-0.1C414.8,997,414.6,997.2,414.6,997.4L414.6,997.4L414.6,997.4z"/>
				<path class="st1" d="M415.9,1000.9c0,0.2,0.1,0.5,0.2,0.7c0.1,0.1,0.1,0.2,0.2,0.3c0,0,0.1,0.1,0.1,0.1c0,0,0.1,0.1,0.1,0.1
					c0.1,0,0.1,0.1,0.2,0.1l-0.1,0c0.1,0,0.1,0.1,0.2,0.1c0.1,0,0.2,0,0.3-0.1c0.1-0.1,0.1-0.2,0.1-0.3c0-0.1-0.1-0.1-0.1-0.2l0,0.1
					c0,0,0-0.1-0.1-0.1c0-0.1-0.1-0.1-0.1-0.1c0,0-0.1-0.1-0.1-0.1l0.1,0.1c-0.1-0.1-0.1-0.2-0.2-0.3l0.1,0.1
					c-0.1-0.2-0.2-0.3-0.3-0.5l0,0.1c0,0,0,0,0-0.1c0-0.1-0.1-0.2-0.2-0.2c-0.1,0-0.2-0.1-0.3,0
					C415.9,1000.5,415.8,1000.7,415.9,1000.9L415.9,1000.9L415.9,1000.9z"/>
				<path class="st1" d="M418.5,1003.1c0.1,0.1,0.2,0.2,0.3,0.2c0.1,0,0.1,0.1,0.2,0.1c0,0,0.1,0.1,0.2,0.1c0.1,0,0.2,0,0.2,0
					c0.1,0,0.2-0.1,0.2-0.1c0-0.1,0.1-0.2,0-0.2c0-0.1-0.1-0.2-0.1-0.2c0,0,0,0-0.1-0.1c-0.1-0.1-0.2-0.1-0.2-0.2
					c-0.1-0.1-0.2-0.2-0.3-0.2c-0.1,0-0.2-0.1-0.3,0c-0.1,0-0.2,0.1-0.2,0.2c-0.1,0.1-0.1,0.2,0,0.3
					C418.3,1003,418.4,1003,418.5,1003.1L418.5,1003.1L418.5,1003.1z"/>
			</g>
			<g>
				<path class="st1" d="M462,981.6c0.1,0.4,0.1,0.8,0.2,1.2c0.1,0.4,0.2,1.3,0.8,1.1c0.3-0.1,0.3-0.5,0.2-0.8
					c-0.1-0.2-0.1-0.4-0.2-0.6c-0.1-0.4-0.3-0.8-0.4-1.1c-0.1-0.2-0.2-0.3-0.4-0.2C462,981.3,462,981.4,462,981.6L462,981.6
					L462,981.6z"/>
				<path class="st1" d="M463.2,985.9c0,0.3,0.1,0.5,0.1,0.8c0,0.1,0.1,0.2,0.1,0.4c0.1,0.2,0.2,0.4,0.4,0.5c0.1,0,0.3,0,0.4-0.1
					c0.1-0.2,0.1-0.4,0-0.5c0-0.1-0.1-0.2-0.1-0.4c-0.1-0.2-0.1-0.5-0.2-0.7c0-0.2-0.2-0.3-0.4-0.2
					C463.3,985.6,463.2,985.7,463.2,985.9L463.2,985.9L463.2,985.9z"/>
				<path class="st1" d="M464.1,989.6c0.1,0.2,0.1,0.4,0.2,0.6c0,0.1,0,0.1,0,0.2c0,0.1,0-0.1,0,0c0,0,0,0,0,0.1c0,0.1,0,0.1,0,0.2
					c0,0,0.1,0.2,0,0.1c0,0,0,0.1,0,0.1c0.1,0.1,0.1,0.1,0.2,0.2l-0.2-0.1c0,0,0,0.1,0.1,0.1c0.1,0.1,0.2,0.1,0.3,0c0,0,0,0,0-0.1
					l-0.1,0.1c0.3-0.2,0.2-0.6,0.2-0.9c0-0.2-0.1-0.4-0.2-0.6c-0.1-0.2-0.2-0.3-0.4-0.2C464.1,989.3,464,989.4,464.1,989.6
					L464.1,989.6L464.1,989.6z"/>
				<path class="st1" d="M464.6,993.8c0,0.2,0.1,0.3,0.1,0.5v-0.1c0,0.1,0,0.1,0,0.2c0,0.1,0,0.2,0,0.3v-0.1c0,0,0,0.1,0,0.2
					c0,0.1,0.1,0.1,0.1,0.2l-0.1-0.2c0,0.1,0.1,0.2,0.1,0.2c0,0.1,0.1,0.1,0.2,0.1s0.2,0,0.2-0.1c0.1-0.1,0.1-0.1,0.1-0.2l-0.1,0.2
					c0,0,0.1-0.1,0.1-0.1c0-0.1,0-0.1,0-0.2c0,0,0-0.1,0-0.1c0-0.1,0-0.2,0-0.3c0-0.2-0.1-0.3-0.2-0.5c0-0.1-0.1-0.2-0.2-0.2
					c-0.1,0-0.2-0.1-0.3,0C464.6,993.5,464.5,993.6,464.6,993.8L464.6,993.8L464.6,993.8z"/>
				<path class="st1" d="M464.6,997.5c0,0.1,0,0.2,0,0.3c0,0.1-0.1,0.2-0.1,0.4c0,0,0,0.1,0,0.1c0,0.1,0,0.2,0,0.2
					c0,0.1,0.1,0.1,0.1,0.2c0,0.1,0.1,0.1,0.2,0.2c0,0,0.1,0,0.1,0c0.1,0,0.1-0.1,0.2-0.1c0,0,0.1-0.1,0.1-0.1c0-0.1,0-0.1,0.1-0.2
					c0,0,0-0.1,0-0.2c0-0.2,0-0.5,0-0.7c0-0.2-0.1-0.3-0.3-0.4c-0.1,0-0.2,0-0.2,0C464.7,997.3,464.6,997.4,464.6,997.5L464.6,997.5
					L464.6,997.5z"/>
				<path class="st1" d="M463.6,1000.4c-0.1,0.2-0.1,0.3-0.2,0.4s-0.2,0.3-0.3,0.4l0.1-0.1c-0.1,0.1-0.1,0.1-0.2,0.2c0,0,0,0,0,0.1
					c-0.1,0.1-0.1,0.3,0,0.4l0-0.2l0,0c0,0.1,0,0.2,0.1,0.2c0.1,0.1,0.1,0.1,0.2,0.1h0c-0.1,0-0.1,0-0.2,0c0.1,0.1,0.3,0.1,0.5,0
					c0.1,0,0.1-0.1,0.2-0.2c0.1-0.1,0.2-0.2,0.3-0.3c0.1-0.1,0.1-0.2,0.2-0.3c0.1-0.1,0.1-0.3,0.2-0.4c0.1-0.2-0.1-0.4-0.2-0.5
					c-0.1,0-0.2-0.1-0.3,0C463.7,1000.2,463.6,1000.3,463.6,1000.4L463.6,1000.4L463.6,1000.4z"/>
				<path class="st1" d="M462.1,1002.6c-0.2,0.1-0.3,0.2-0.5,0.3c-0.1,0.1-0.2,0.1-0.3,0.2c0,0-0.1,0-0.1,0.1c0,0.1-0.1,0.1-0.1,0.2
					c-0.1,0.1-0.1,0.2,0,0.3c0,0,0,0,0.1,0.1c0.1,0.1,0.2,0.1,0.3,0.1c0.1,0,0.1,0,0.2-0.1c0,0,0.1,0,0.1-0.1
					c0.1-0.1,0.2-0.1,0.3-0.2c0.1-0.1,0.3-0.2,0.4-0.3c0.1,0,0.1-0.2,0.1-0.3c0-0.1,0-0.2-0.1-0.2
					C462.5,1002.6,462.2,1002.5,462.1,1002.6L462.1,1002.6L462.1,1002.6z"/>
				<path class="st1" d="M460.2,1003.9c0,0-0.1,0-0.2,0.1c0,0,0,0-0.1,0c0,0,0.1,0,0,0c0,0,0,0-0.1,0c-0.1,0-0.3,0.1-0.4,0.2l0.1,0
					c-0.1,0.1-0.3,0.1-0.4,0.2c0,0,0,0,0,0c0,0,0,0,0,0c0,0,0,0-0.1,0c-0.1,0-0.1,0.1-0.2,0.2c-0.1,0.1,0,0.2,0.1,0.3
					c0.1,0,0.1,0.1,0.2,0.1c0,0,0.1,0,0.1,0c-0.1,0-0.1,0,0,0c0,0,0.1,0,0.1,0c0.1,0,0.3-0.1,0.4-0.1c0.2-0.1,0.5-0.2,0.7-0.4
					c0.1-0.1,0.2-0.3,0.1-0.5C460.5,1003.9,460.3,1003.9,460.2,1003.9L460.2,1003.9L460.2,1003.9z"/>
				<path class="st1" d="M459.7,1003.2c0,0,0.1-0.1,0.1-0.1L459.7,1003.2c0.2-0.1,0.2-0.2,0.4-0.2c0,0,0.1-0.1,0.2-0.1
					c0,0,0,0,0.1,0c0.1,0,0.1-0.1,0.2-0.2c0.1-0.2,0-0.4-0.2-0.5c-0.1,0-0.2,0-0.3,0c0,0-0.1,0-0.1,0c-0.1,0-0.2,0.1-0.3,0.1
					c-0.1,0.1-0.3,0.2-0.4,0.3c-0.1,0.1-0.1,0.2-0.1,0.2c0,0.1,0,0.2,0.1,0.2s0.2,0.1,0.2,0.1
					C459.5,1003.3,459.6,1003.3,459.7,1003.2L459.7,1003.2L459.7,1003.2z"/>
				<path class="st1" d="M462,1001.2c0.2-0.1,0.4-0.3,0.5-0.4c0.1-0.1,0.1-0.1,0.2-0.2c0-0.1,0.1-0.1,0.1-0.2s0.1-0.1,0.1-0.2
					c0,0,0-0.1,0-0.1c0-0.1,0-0.2-0.1-0.2c-0.1,0-0.2-0.1-0.2,0c0,0,0,0,0,0c-0.1,0-0.1,0-0.2,0.1c0,0-0.1,0.1-0.1,0.1
					c-0.1,0.1-0.1,0.1-0.2,0.2c-0.1,0.1-0.2,0.2-0.4,0.3l0.1-0.1c0,0-0.1,0.1-0.1,0.1c-0.1,0-0.1,0.1-0.2,0.2c0,0.1,0,0.2,0,0.3
					c0.1,0.1,0.1,0.1,0.2,0.2C461.9,1001.2,462,1001.2,462,1001.2L462,1001.2L462,1001.2z"/>
				<path class="st1" d="M463.5,998.3c0.1-0.1,0.1-0.2,0.2-0.4c0.1-0.2,0.3-0.5,0.1-0.7l0,0.2c0-0.1,0-0.1-0.1-0.2
					c0-0.1-0.1-0.1-0.1-0.1c-0.1,0-0.1,0-0.2,0c-0.1,0-0.1,0.1-0.2,0.1l0.1-0.1c-0.2,0-0.3,0.2-0.3,0.4c0,0.1-0.1,0.1-0.1,0.2
					c0,0.1-0.1,0.3-0.2,0.4c0,0.1,0,0.2,0,0.3s0.1,0.1,0.2,0.1C463.2,998.5,463.4,998.4,463.5,998.3L463.5,998.3L463.5,998.3z"/>
				<path class="st1" d="M463.9,994.9c0-0.1,0-0.3,0-0.4c0-0.2,0-0.4-0.1-0.5c0,0-0.1-0.1-0.1-0.1c0,0-0.1,0-0.1,0
					c-0.1,0-0.2,0-0.3,0.1c0,0,0,0.1-0.1,0.1c0,0.1-0.1,0.1-0.1,0.2c0,0.1,0,0.2,0,0.3c0,0.1,0,0.3,0,0.4c0,0.1,0,0.2,0.1,0.3
					s0.2,0.1,0.3,0.1C463.7,995.3,463.9,995.1,463.9,994.9L463.9,994.9L463.9,994.9z"/>
				<path class="st1" d="M463.4,991.7c0-0.4,0-0.8-0.1-1.1c0-0.1,0-0.1-0.1-0.2c0,0,0-0.1-0.1-0.1c-0.1-0.1-0.2-0.2-0.4-0.2
					c-0.2,0-0.3,0.2-0.3,0.4c0,0,0,0,0,0c0,0,0,0,0,0c0,0,0,0,0,0c0,0.1,0,0.2,0,0.3v-0.1c0,0.1,0,0.3,0,0.4V991c0,0.2,0,0.5,0,0.7
					c0,0.2,0.2,0.4,0.4,0.4C463.2,992.1,463.4,991.9,463.4,991.7L463.4,991.7L463.4,991.7z"/>
			</g>
		</g>
	</g>
</g>
<text transform="matrix(1 0 0 1 627.2455 2251.9846)" class="st2 st3">L</text>
<g>
	<text transform="matrix(1 0 0 1 2013.3884 2883.1643)" class="st4 st2 st5">#6 - 2551 - Mint</text>
	<text transform="matrix(0.9945 -0.1045 0.1045 0.9945 1702.3976 2277.8838)" class="st4 st6 st7">aweasd</text>
</g>
<circle class="st4" cx="1997" cy="2791.6" r="26.1"/>
<path class="st8" d="M2145.2,1699v-34.2h-8.5v-15.7c0-37.4-14.8-73.3-41.3-99.8c-26.4-26.4-62.3-41.3-99.8-41.3h-238.5v-8.5H1723
	v8.5h-238.6c-37.4,0-73.3,14.8-99.8,41.3c-26.4,26.5-41.3,62.3-41.3,99.8v15.7h-8.5v34.2h8.5v59h-8.5v34.2h8.5v15.7
	c0,37.4,14.8,73.3,41.3,99.8s62.3,41.3,99.8,41.3h97v8h27.3v-8h262.7v8h27.3v-8h97c37.4,0.1,73.3-14.8,99.8-41.3
	s41.3-62.3,41.3-99.8v-15.7h8.5V1758h-8.5v-59H2145.2z M2070.6,1803.4c0,43.8-35.5,79.3-79.3,79.3h-502.4
	c-43.8,0-79.3-35.5-79.3-79.3v-149.8c0-43.8,35.5-79.3,79.3-79.3h502.4c43.8,0,79.3,35.5,79.3,79.3V1803.4z"/>
<path class="st8" d="M2145.2,2151.9v-34.2h-8.5V2102c0-37.4-14.8-73.3-41.3-99.8c-26.4-26.4-62.3-41.3-99.8-41.3h-238.5v-8.5H1723
	v8.5h-238.6c-37.4,0-73.3,14.8-99.8,41.3c-26.4,26.5-41.3,62.3-41.3,99.8v15.7h-8.5v34.2h8.5v59h-8.5v34.2h8.5v15.7
	c0,37.4,14.8,73.3,41.3,99.8s62.3,41.3,99.8,41.3h97v8h27.3v-8h262.7v8h27.3v-8h97c37.4,0.1,73.3-14.8,99.8-41.3
	s41.3-62.3,41.3-99.8v-15.7h8.5v-34.2h-8.5v-59H2145.2z M2070.6,2256.4c0,43.8-35.5,79.3-79.3,79.3h-502.4
	c-43.8,0-79.3-35.5-79.3-79.3v-149.9c0-43.8,35.5-79.3,79.3-79.3h502.4c43.8,0,79.3,35.5,79.3,79.3V2256.4z"/>
<g>
	<g>
		<path d="M2404,2619.1v11.9c0,2.8,3.3,5.1,7.3,5.1h1.4c4,0,7.2,2.3,7.2,5.1v11.9c0,2.8-3.2,5.1-7.2,5.1H2341c-4,0-7.2-2.3-7.2-5.1
			v-11.9c0-2.8,3.3-5.1,7.2-5.1h1.4c4,0,7.3-2.3,7.3-5.1v-11.9c0-2.8-3.2-5-7.2-5.1v-0.1h-71.9v0.1c-3.8,0.1-7,2.3-7,5v11.9
			c0,2.8,3.3,5.1,7.2,5.1h1.4c4,0,7.3,2.3,7.3,5.1v11.9c0,2.8-3.2,5.1-7.3,5.1h-71.7c-4,0-7.3-2.3-7.3-5.1v-11.9
			c0-2.8,3.3-5.1,7.3-5.1h1.4c4,0,7.2-2.3,7.2-5.1V2619c0-2.8-3.2-5-7.2-5.1v-0.1h-49.7V1499.6h49.6v0.1c4,0,7.2,2.3,7.2,5.1v11.9
			c0,2.8-3.2,5.1-7.3,5.1h-1.4c-4,0-7.2,2.3-7.2,5.1v11.9c0,2.8,3.3,5.1,7.2,5.1h71.7c4,0,7.2-2.3,7.2-5.1v-12
			c0-2.8-3.2-5.1-7.2-5.1h-1.4c-4,0-7.2-2.3-7.2-5.1v-11.8c0-2.7,3.1-4.9,7-5v-0.1h71.9v0.1c4,0,7.2,2.3,7.2,5.1v11.9
			c0,2.8-3.2,5.1-7.2,5.1h-1.4c-4,0-7.2,2.3-7.2,5.1v11.9c0,2.8,3.3,5.1,7.2,5.1h71.7c4,0,7.2-2.3,7.2-5.1v-12.1
			c0-2.8-3.2-5.1-7.2-5.1h-1.4c-4,0-7.3-2.3-7.3-5.1v-11.8c0-2.7,3.1-4.9,7-5v-0.1h49.9V2614h-49.9v0.1
			C2407.1,2614.1,2404,2616.4,2404,2619.1z"/>
		<rect x="2164.8" y="1551.2" class="st9" width="8.5" height="34.2"/>
		<rect x="2164.8" y="1920.3" class="st9" width="8.5" height="27.3"/>
		<rect x="2164.8" y="2210.2" class="st9" width="8.5" height="27.3"/>
		<rect x="2164.8" y="2572.5" class="st9" width="8.5" height="34.2"/>
		<rect x="2439.8" y="1551.2" class="st9" width="8.5" height="34.2"/>
		<rect x="2439.8" y="1920.3" class="st9" width="8.5" height="27.3"/>
		<rect x="2439.8" y="2210.2" class="st9" width="8.5" height="27.3"/>
		<rect x="2439.8" y="2572.5" class="st9" width="8.5" height="34.2"/>
		<g id="POLYLINE_00000023962735591220241550000002862722382410006174_">
			<line class="st10" x1="2224.9" y1="1601" x2="2152.3" y2="1601"/>
		</g>
		<g id="POLYLINE_00000072960676605198832940000011322949061667427499_">
			<line class="st10" x1="2242.7" y1="1601" x2="2371.4" y2="1601"/>
		</g>
		<g id="POLYLINE_00000106141444427391298890000000639222807128667042_">
			<line class="st10" x1="2460.8" y1="1601" x2="2389.2" y2="1601"/>
		</g>
		<g id="POLYLINE_00000036952063261971702140000015274106864591794621_">
			<line class="st10" x1="2315.9" y1="1609.9" x2="2444.7" y2="1609.9"/>
		</g>
		<g id="POLYLINE_00000054238928065645628050000015715709525733326991_">
			<line class="st10" x1="2460.8" y1="1618.8" x2="2389.2" y2="1618.8"/>
		</g>
		<g id="POLYLINE_00000163776623224350239290000002600105246699884162_">
			<line class="st10" x1="2169.4" y1="1609.9" x2="2298.2" y2="1609.9"/>
		</g>
		<g id="POLYLINE_00000010270063603619781050000011427681875080402359_">
			<line class="st10" x1="2242.7" y1="1618.8" x2="2371.4" y2="1618.8"/>
		</g>
		<g id="POLYLINE_00000039819854098416755670000002071248462602189726_">
			<line class="st10" x1="2224.9" y1="1618.8" x2="2152.3" y2="1618.8"/>
		</g>
		<g id="POLYLINE_00000116936154070516551980000014244756367398505897_">
			<line class="st10" x1="2224.9" y1="1636.6" x2="2152.3" y2="1636.6"/>
		</g>
		<g id="POLYLINE_00000049180735386351759260000001927815358451373739_">
			<line class="st10" x1="2169.4" y1="1627.7" x2="2298.2" y2="1627.7"/>
		</g>
		<g id="POLYLINE_00000027566476007024348270000009077639058848423342_">
			<line class="st10" x1="2315.9" y1="1627.7" x2="2444.7" y2="1627.7"/>
		</g>
		<g id="POLYLINE_00000084492675712201169310000013075689659654922407_">
			<line class="st10" x1="2460.8" y1="1636.6" x2="2389.2" y2="1636.6"/>
		</g>
		<g id="POLYLINE_00000151515213328985681510000017885819497487754431_">
			<line class="st10" x1="2242.7" y1="1636.6" x2="2371.4" y2="1636.6"/>
		</g>
		<g id="POLYLINE_00000030487584789254865580000004428902081664340883_">
			<line class="st10" x1="2315.9" y1="1645.5" x2="2444.7" y2="1645.5"/>
		</g>
		<g id="POLYLINE_00000152943610433503436950000001619021110215026108_">
			<line class="st10" x1="2169.4" y1="1645.5" x2="2298.2" y2="1645.5"/>
		</g>
		<g id="POLYLINE_00000023970769884350814930000005796370301544453268_">
			<line class="st10" x1="2242.7" y1="1654.4" x2="2371.4" y2="1654.4"/>
		</g>
		<g id="POLYLINE_00000143593939567943008070000017097414594469261467_">
			<line class="st10" x1="2224.9" y1="1654.4" x2="2152.3" y2="1654.4"/>
		</g>
		<g id="POLYLINE_00000039113150563586738710000011534979159040127917_">
			<line class="st10" x1="2460.8" y1="1654.4" x2="2389.2" y2="1654.4"/>
		</g>
		<g id="POLYLINE_00000146484803579324012800000000391431912814723742_">
			<line class="st10" x1="2169.4" y1="1665.3" x2="2298.2" y2="1665.3"/>
		</g>
		<g id="POLYLINE_00000091004960959376490720000015141343076886527407_">
			<line class="st10" x1="2315.9" y1="1665.3" x2="2444.7" y2="1665.3"/>
		</g>
		<g id="POLYLINE_00000034089530539959785110000017768935896596845185_">
			<line class="st10" x1="2224.9" y1="1674.2" x2="2152.3" y2="1674.2"/>
		</g>
		<g id="POLYLINE_00000082360872707419503450000002882638285689112968_">
			<line class="st10" x1="2460.8" y1="1674.2" x2="2389.2" y2="1674.2"/>
		</g>
		<g id="POLYLINE_00000136391505123148425740000011436630267583631238_">
			<line class="st10" x1="2242.7" y1="1674.2" x2="2371.4" y2="1674.2"/>
		</g>
		<g id="POLYLINE_00000029007271808686987920000017167119768064836798_">
			<line class="st10" x1="2242.7" y1="1709.7" x2="2371.4" y2="1709.7"/>
		</g>
		<g id="POLYLINE_00000052783109225335098650000006752435867478218161_">
			<line class="st10" x1="2224.9" y1="1709.7" x2="2152.3" y2="1709.7"/>
		</g>
		<g id="POLYLINE_00000170956913393173071940000008407679174066078631_">
			<line class="st10" x1="2315.9" y1="1683.1" x2="2444.7" y2="1683.1"/>
		</g>
		<g id="POLYLINE_00000144297835675291831870000009951743327366957711_">
			<line class="st10" x1="2242.7" y1="1692" x2="2371.4" y2="1692"/>
		</g>
		<g id="POLYLINE_00000007393756933499570080000018275456138239909791_">
			<line class="st10" x1="2460.8" y1="1691.9" x2="2389.2" y2="1691.9"/>
		</g>
		<g id="POLYLINE_00000170242667096356979960000014995687585450168972_">
			<line class="st10" x1="2315.9" y1="1720.6" x2="2444.7" y2="1720.6"/>
		</g>
		<g id="POLYLINE_00000150788728425978237990000002425556491798767271_">
			<line class="st10" x1="2224.9" y1="1729.5" x2="2152.3" y2="1729.5"/>
		</g>
		<g id="POLYLINE_00000178174505186273870680000011841947681589782181_">
			<line class="st10" x1="2460.8" y1="1729.5" x2="2389.2" y2="1729.5"/>
		</g>
		<g id="POLYLINE_00000047780505953313463250000018428172593327275650_">
			<line class="st10" x1="2169.4" y1="1683.1" x2="2298.2" y2="1683.1"/>
		</g>
		<g id="POLYLINE_00000054968001181224790410000007802945161009494675_">
			<line class="st10" x1="2242.7" y1="1729.5" x2="2371.4" y2="1729.5"/>
		</g>
		<g id="POLYLINE_00000181054576871404625890000010654011120396385172_">
			<line class="st10" x1="2169.4" y1="1720.6" x2="2298.2" y2="1720.6"/>
		</g>
		<g id="POLYLINE_00000096781067807646591720000008680216705435293359_">
			<line class="st10" x1="2224.9" y1="1691.9" x2="2152.3" y2="1691.9"/>
		</g>
		<g id="POLYLINE_00000012443188852820939710000011288788544062463161_">
			<line class="st10" x1="2460.8" y1="1709.7" x2="2389.2" y2="1709.7"/>
		</g>
		<g id="POLYLINE_00000068665626402531307390000006774548614071312824_">
			<line class="st10" x1="2315.9" y1="1700.8" x2="2444.7" y2="1700.8"/>
		</g>
		<g id="POLYLINE_00000021818750907465430990000004734373476667937417_">
			<line class="st10" x1="2169.4" y1="1700.8" x2="2298.2" y2="1700.8"/>
		</g>
		<g id="POLYLINE_00000031172890713143411660000005929972703278180029_">
			<line class="st10" x1="2242.7" y1="1765.1" x2="2371.4" y2="1765.1"/>
		</g>
		<g id="POLYLINE_00000162335450156920795180000006086796048680973197_">
			<line class="st10" x1="2460.8" y1="1765.1" x2="2389.2" y2="1765.1"/>
		</g>
		<g id="POLYLINE_00000165933459394719541830000008626530142590773677_">
			<line class="st10" x1="2169.4" y1="1756.2" x2="2298.2" y2="1756.2"/>
		</g>
		<g id="POLYLINE_00000090976166275652206480000002356394811654545832_">
			<line class="st10" x1="2242.7" y1="1747.3" x2="2371.4" y2="1747.3"/>
		</g>
		<g id="POLYLINE_00000085228700987998038610000011638061252559158974_">
			<line class="st10" x1="2224.9" y1="1765.1" x2="2152.3" y2="1765.1"/>
		</g>
		<g id="POLYLINE_00000031196652682292601980000004230778232537107118_">
			<line class="st10" x1="2460.8" y1="1747.3" x2="2389.2" y2="1747.3"/>
		</g>
		<g id="POLYLINE_00000150077044484670117760000008379288873092388745_">
			<line class="st10" x1="2315.9" y1="1738.4" x2="2444.7" y2="1738.4"/>
		</g>
		<g id="POLYLINE_00000171684779748864651790000005005919690973497511_">
			<line class="st10" x1="2169.4" y1="1738.4" x2="2298.2" y2="1738.4"/>
		</g>
		<g id="POLYLINE_00000120560500067025103930000016491684067003331475_">
			<line class="st10" x1="2224.9" y1="1747.3" x2="2152.3" y2="1747.3"/>
		</g>
		<g id="POLYLINE_00000170959790048137858540000015834542200993849743_">
			<line class="st10" x1="2315.9" y1="1756.2" x2="2444.7" y2="1756.2"/>
		</g>
		<g id="POLYLINE_00000155108743659773752880000016762557288961093013_">
			<line class="st10" x1="2224.9" y1="1784.9" x2="2152.3" y2="1784.9"/>
		</g>
		<g id="POLYLINE_00000052105007875058309060000009520775251169309352_">
			<line class="st10" x1="2315.9" y1="1776" x2="2444.7" y2="1776"/>
		</g>
		<g id="POLYLINE_00000128462781738118236860000000172060430794651573_">
			<line class="st10" x1="2315.9" y1="1793.8" x2="2444.7" y2="1793.8"/>
		</g>
		<g id="POLYLINE_00000090270135463890636920000007713350966181813938_">
			<line class="st10" x1="2169.4" y1="1793.8" x2="2298.2" y2="1793.8"/>
		</g>
		<g id="POLYLINE_00000119804402028329298000000017581085504098481845_">
			<line class="st10" x1="2169.4" y1="1776" x2="2298.2" y2="1776"/>
		</g>
		<g id="POLYLINE_00000091733111737229314010000010867757542901338807_">
			<line class="st10" x1="2169.4" y1="1813.6" x2="2298.2" y2="1813.6"/>
		</g>
		<g id="POLYLINE_00000164473200069653399280000000043391319740212405_">
			<line class="st10" x1="2224.9" y1="1802.7" x2="2152.3" y2="1802.7"/>
		</g>
		<g id="POLYLINE_00000127033595894672094190000010556004971093966513_">
			<line class="st10" x1="2460.8" y1="1802.7" x2="2389.2" y2="1802.7"/>
		</g>
		<g id="POLYLINE_00000132773266568276996580000014582915189789482416_">
			<line class="st10" x1="2315.9" y1="1813.6" x2="2444.7" y2="1813.6"/>
		</g>
		<g id="POLYLINE_00000140712462688207521920000014904407132417292468_">
			<line class="st10" x1="2242.7" y1="1784.9" x2="2371.4" y2="1784.9"/>
		</g>
		<g id="POLYLINE_00000075127019313816277980000009111288001164395441_">
			<line class="st10" x1="2242.7" y1="1802.7" x2="2371.4" y2="1802.7"/>
		</g>
		<g id="POLYLINE_00000049204410298531762180000014039521314920917902_">
			<line class="st10" x1="2460.8" y1="1784.9" x2="2389.2" y2="1784.9"/>
		</g>
		<g id="POLYLINE_00000152260508195843639630000007165412205717742262_">
			<line class="st10" x1="2242.7" y1="1822.5" x2="2371.4" y2="1822.5"/>
		</g>
		<g id="POLYLINE_00000094618090462717228200000005083850160234598040_">
			<line class="st10" x1="2460.8" y1="1822.5" x2="2389.2" y2="1822.5"/>
		</g>
		<g id="POLYLINE_00000153694016879023455360000003581281239515520899_">
			<line class="st10" x1="2224.9" y1="1822.5" x2="2152.3" y2="1822.5"/>
		</g>
		<g id="POLYLINE_00000001638198636811072600000000040184313490378129_">
			<line class="st10" x1="2224.3" y1="2334.8" x2="2152.3" y2="2334.8"/>
		</g>
		<g id="POLYLINE_00000072240589853018006470000010912190298808536718_">
			<line class="st10" x1="2242.1" y1="2334.8" x2="2370.8" y2="2334.8"/>
		</g>
		<g id="POLYLINE_00000006678046847690413950000005610241843863308986_">
			<line class="st10" x1="2460.8" y1="2334.8" x2="2388.6" y2="2334.8"/>
		</g>
		<g id="POLYLINE_00000118382377850226312690000017991761452153663167_">
			<line class="st10" x1="2315.3" y1="2343.7" x2="2444.1" y2="2343.7"/>
		</g>
		<g id="POLYLINE_00000074442777240003993710000018285233984343260606_">
			<line class="st10" x1="2460.8" y1="2352.6" x2="2388.6" y2="2352.6"/>
		</g>
		<g id="POLYLINE_00000180368320605636210950000005283442689670689727_">
			<line class="st10" x1="2168.8" y1="2343.7" x2="2297.6" y2="2343.7"/>
		</g>
		<g id="POLYLINE_00000005234412155106470010000006643200372195697316_">
			<line class="st10" x1="2242.1" y1="2352.6" x2="2370.8" y2="2352.6"/>
		</g>
		<g id="POLYLINE_00000168826983357944990430000006602432071262937761_">
			<line class="st10" x1="2224.3" y1="2352.6" x2="2152.3" y2="2352.6"/>
		</g>
		<g id="POLYLINE_00000174581696180913306170000001523855642986368408_">
			<line class="st10" x1="2224.3" y1="2370.4" x2="2152.3" y2="2370.4"/>
		</g>
		<g id="POLYLINE_00000140719239276163377740000004948880049443577510_">
			<line class="st10" x1="2168.8" y1="2361.5" x2="2297.6" y2="2361.5"/>
		</g>
		<g id="POLYLINE_00000129164286496880139620000013278203897874673067_">
			<line class="st10" x1="2315.3" y1="2361.5" x2="2444.1" y2="2361.5"/>
		</g>
		<g id="POLYLINE_00000061457581813687826880000008279307102086366097_">
			<line class="st10" x1="2460.8" y1="2370.4" x2="2388.6" y2="2370.4"/>
		</g>
		<g id="POLYLINE_00000131363076125024130020000011305445719520667786_">
			<line class="st10" x1="2242.1" y1="2370.4" x2="2370.8" y2="2370.4"/>
		</g>
		<g id="POLYLINE_00000109737145862601909780000003221469102515751566_">
			<line class="st10" x1="2315.3" y1="2379.3" x2="2444.1" y2="2379.3"/>
		</g>
		<g id="POLYLINE_00000182507689629127440110000014024946125638758028_">
			<line class="st10" x1="2168.8" y1="2379.3" x2="2297.6" y2="2379.3"/>
		</g>
		<g id="POLYLINE_00000018918486068922971050000010173573873825486976_">
			<line class="st10" x1="2242.1" y1="2388.2" x2="2370.8" y2="2388.2"/>
		</g>
		<g id="POLYLINE_00000155853000316450265720000015433208517054979514_">
			<line class="st10" x1="2224.3" y1="2388.2" x2="2152.3" y2="2388.2"/>
		</g>
		<g id="POLYLINE_00000044871342268483715350000013937083240309492670_">
			<line class="st10" x1="2460.8" y1="2388.2" x2="2388.6" y2="2388.2"/>
		</g>
		<g id="POLYLINE_00000016046610323739528160000017915898528223938701_">
			<line class="st10" x1="2168.8" y1="2399.1" x2="2297.6" y2="2399.1"/>
		</g>
		<g id="POLYLINE_00000111175673920766860140000003078708986232786602_">
			<line class="st10" x1="2315.3" y1="2399.1" x2="2444.1" y2="2399.1"/>
		</g>
		<g id="POLYLINE_00000005979744532176245310000018340512972736964489_">
			<line class="st10" x1="2224.3" y1="2408" x2="2152.3" y2="2408"/>
		</g>
		<g id="POLYLINE_00000121990763113054668560000010836614319635572129_">
			<line class="st10" x1="2460.8" y1="2408" x2="2388.6" y2="2408"/>
		</g>
		<g id="POLYLINE_00000000943726449465994450000018247056739905843391_">
			<line class="st10" x1="2242.1" y1="2408" x2="2370.8" y2="2408"/>
		</g>
		<g id="POLYLINE_00000044884599341635988070000001114259930826916792_">
			<line class="st10" x1="2242.1" y1="2443.6" x2="2370.8" y2="2443.6"/>
		</g>
		<g id="POLYLINE_00000018217040863566455850000007711243813038299312_">
			<line class="st10" x1="2224.3" y1="2443.6" x2="2152.3" y2="2443.6"/>
		</g>
		<g id="POLYLINE_00000142165443200005267130000001464813245277690814_">
			<line class="st10" x1="2315.3" y1="2416.9" x2="2444.1" y2="2416.9"/>
		</g>
		<g id="POLYLINE_00000054246070929296721080000007389869643916339872_">
			<line class="st10" x1="2242.1" y1="2425.8" x2="2370.8" y2="2425.8"/>
		</g>
		<g id="POLYLINE_00000097465926304940643840000004055485088229773486_">
			<line class="st10" x1="2460.8" y1="2425.8" x2="2388.6" y2="2425.8"/>
		</g>
		<g id="POLYLINE_00000130624793524079745890000003937714812930690695_">
			<line class="st10" x1="2315.3" y1="2454.5" x2="2444.1" y2="2454.5"/>
		</g>
		<g id="POLYLINE_00000178884290401992101010000003814016588046148245_">
			<line class="st10" x1="2224.3" y1="2463.4" x2="2152.3" y2="2463.4"/>
		</g>
		<g id="POLYLINE_00000071543999913231736830000018335356172493218956_">
			<line class="st10" x1="2460.8" y1="2463.4" x2="2388.6" y2="2463.4"/>
		</g>
		<g id="POLYLINE_00000183932280812176231820000017395282442169326228_">
			<line class="st10" x1="2168.8" y1="2416.9" x2="2297.6" y2="2416.9"/>
		</g>
		<g id="POLYLINE_00000074402880531552350430000012004033759186720413_">
			<line class="st10" x1="2242.1" y1="2463.4" x2="2370.8" y2="2463.4"/>
		</g>
		<g id="POLYLINE_00000152974760534919225680000003617127461409672352_">
			<line class="st10" x1="2168.8" y1="2454.5" x2="2297.6" y2="2454.5"/>
		</g>
		<g id="POLYLINE_00000049214190104087643390000003362203704632416164_">
			<line class="st10" x1="2224.3" y1="2425.8" x2="2152.3" y2="2425.8"/>
		</g>
		<g id="POLYLINE_00000156566883600634645940000015983767910309627008_">
			<line class="st10" x1="2460.8" y1="2443.6" x2="2388.6" y2="2443.6"/>
		</g>
		<g id="POLYLINE_00000152257333563897082010000005030014237599712681_">
			<line class="st10" x1="2315.3" y1="2434.7" x2="2444.1" y2="2434.7"/>
		</g>
		<g id="POLYLINE_00000083787743776946380670000006312997899895392676_">
			<line class="st10" x1="2168.8" y1="2434.7" x2="2297.6" y2="2434.7"/>
		</g>
		<g id="POLYLINE_00000122687863748457615410000006066010023185925806_">
			<line class="st10" x1="2242.1" y1="2498.9" x2="2370.8" y2="2498.9"/>
		</g>
		<g id="POLYLINE_00000088824761681420586850000010663340091412119743_">
			<line class="st10" x1="2460.8" y1="2499" x2="2388.6" y2="2499"/>
		</g>
		<g id="POLYLINE_00000173128577674975611030000010835794848562740914_">
			<line class="st10" x1="2168.8" y1="2490.1" x2="2297.6" y2="2490.1"/>
		</g>
		<g id="POLYLINE_00000181082332882631091970000004338885630811817867_">
			<line class="st10" x1="2242.1" y1="2481.2" x2="2370.8" y2="2481.2"/>
		</g>
		<g id="POLYLINE_00000176019406879460028270000010739834894628225157_">
			<line class="st10" x1="2224.3" y1="2499" x2="2152.3" y2="2499"/>
		</g>
		<g id="POLYLINE_00000117649157644403373070000007720368881489211790_">
			<line class="st10" x1="2460.8" y1="2481.2" x2="2388.6" y2="2481.2"/>
		</g>
		<g id="POLYLINE_00000111912232827413406310000004082439111264359060_">
			<line class="st10" x1="2315.3" y1="2472.3" x2="2444.1" y2="2472.3"/>
		</g>
		<g id="POLYLINE_00000166643161419813197290000004544770892948259733_">
			<line class="st10" x1="2168.8" y1="2472.3" x2="2297.6" y2="2472.3"/>
		</g>
		<g id="POLYLINE_00000147916855057736754110000015850963993410843566_">
			<line class="st10" x1="2224.3" y1="2481.2" x2="2152.3" y2="2481.2"/>
		</g>
		<g id="POLYLINE_00000088832558159037440880000008795734812287668129_">
			<line class="st10" x1="2315.3" y1="2490.1" x2="2444.1" y2="2490.1"/>
		</g>
		<g id="POLYLINE_00000089572818876495107830000007566834987526269866_">
			<line class="st10" x1="2224.3" y1="2518.7" x2="2152.3" y2="2518.7"/>
		</g>
		<g id="POLYLINE_00000139275725088743824780000004019351235012378778_">
			<line class="st10" x1="2315.3" y1="2509.8" x2="2444.1" y2="2509.8"/>
		</g>
		<g id="POLYLINE_00000163794574238637096720000006780867076216402607_">
			<line class="st10" x1="2315.3" y1="2527.6" x2="2444.1" y2="2527.6"/>
		</g>
		<g id="POLYLINE_00000109747714080733728700000003160547826435310764_">
			<line class="st10" x1="2168.8" y1="2527.6" x2="2297.6" y2="2527.6"/>
		</g>
		<g id="POLYLINE_00000144303027122096361970000015998130464379274886_">
			<line class="st10" x1="2168.8" y1="2509.8" x2="2297.6" y2="2509.8"/>
		</g>
		<g id="POLYLINE_00000021097756947686193840000002836692324200669577_">
			<line class="st10" x1="2168.8" y1="2547.4" x2="2297.6" y2="2547.4"/>
		</g>
		<g id="POLYLINE_00000183952104604248126000000017058168563937273278_">
			<line class="st10" x1="2224.3" y1="2536.5" x2="2152.3" y2="2536.5"/>
		</g>
		<g id="POLYLINE_00000174591161008228009050000006709707191515467907_">
			<line class="st10" x1="2460.8" y1="2536.5" x2="2388.6" y2="2536.5"/>
		</g>
		<g id="POLYLINE_00000160175838445606020580000011672971088956556219_">
			<line class="st10" x1="2315.3" y1="2547.4" x2="2444.1" y2="2547.4"/>
		</g>
		<g id="POLYLINE_00000096759882614392968200000015721350513327957900_">
			<line class="st10" x1="2242.1" y1="2518.7" x2="2370.8" y2="2518.7"/>
		</g>
		<g id="POLYLINE_00000098909319243770085190000000498829285812147337_">
			<line class="st10" x1="2242.1" y1="2536.5" x2="2370.8" y2="2536.5"/>
		</g>
		<g id="POLYLINE_00000028316101100353259520000002898758709226880678_">
			<line class="st10" x1="2460.8" y1="2518.7" x2="2388.6" y2="2518.7"/>
		</g>
		<g id="POLYLINE_00000105428122735785942900000009581224134359828139_">
			<line class="st10" x1="2242.1" y1="2556.3" x2="2370.8" y2="2556.3"/>
		</g>
		<g id="POLYLINE_00000155135834565992445790000007126376024908298152_">
			<line class="st10" x1="2460.8" y1="2556.3" x2="2388.6" y2="2556.3"/>
		</g>
		<g id="POLYLINE_00000159468793475462548090000011480279008217402027_">
			<line class="st10" x1="2224.3" y1="2556.3" x2="2152.3" y2="2556.3"/>
		</g>
	</g>
	<g>
		<g>
			<path d="M2717.1,2619.1v11.9c0,2.8,3.3,5.1,7.3,5.1h1.4c4,0,7.2,2.3,7.2,5.1v11.9c0,2.8-3.2,5.1-7.2,5.1h-71.7
				c-4,0-7.2-2.3-7.2-5.1v-11.9c0-2.8,3.3-5.1,7.2-5.1h1.4c4,0,7.2-2.3,7.2-5.1v-11.9c0-2.8-3.2-5-7.2-5.1v-0.1h-71.9v0.1
				c-3.9,0.1-7,2.3-7,5v11.9c0,2.8,3.3,5.1,7.2,5.1h1.4c4,0,7.2,2.3,7.2,5.1v11.9c0,2.8-3.2,5.1-7.2,5.1h-71.7c-4,0-7.2-2.3-7.2-5.1
				v-11.9c0-2.8,3.3-5.1,7.2-5.1h1.4c4,0,7.3-2.3,7.3-5.1V2619c0-2.8-3.2-5-7.2-5.1v-0.1h-49.6V1499.7h49.6v0.1c4,0,7.2,2.3,7.2,5.1
				v11.9c0,2.8-3.2,5.1-7.3,5.1h-1.4c-4,0-7.2,2.3-7.2,5.1v11.9c0,2.8,3.3,5.1,7.2,5.1h71.7c4,0,7.2-2.3,7.2-5.1v-12.1
				c0-2.8-3.2-5.1-7.2-5.1h-1.4c-4,0-7.2-2.3-7.2-5.1v-11.8c0-2.7,3.1-4.9,7-5v-0.1h71.9v0.1c4,0,7.2,2.3,7.2,5.1v11.9
				c0,2.8-3.2,5.1-7.2,5.1h-1.4c-4,0-7.2,2.3-7.2,5.1v11.9c0,2.8,3.3,5.1,7.2,5.1h71.7c4,0,7.2-2.3,7.2-5.1v-12.1
				c0-2.8-3.2-5.1-7.2-5.1h-1.4c-4,0-7.3-2.3-7.3-5.1v-11.8c0-2.7,3.1-4.9,7-5v-0.1h49.9V2614h-49.9v0.1
				C2720.2,2614.1,2717.1,2616.4,2717.1,2619.1z"/>
		</g>
		<g id="POLYLINE_00000125605043251864237990000012964057876037553815_">
			<line class="st10" x1="2701.4" y1="2555.8" x2="2774" y2="2555.8"/>
		</g>
		<g id="POLYLINE_00000152952189618036488620000009230408433313295242_">
			<line class="st10" x1="2683.6" y1="2555.8" x2="2554.9" y2="2555.8"/>
		</g>
		<g id="POLYLINE_00000106112569920468182690000004665040134652676528_">
			<line class="st10" x1="2465.5" y1="2555.8" x2="2537.1" y2="2555.8"/>
		</g>
		<g id="POLYLINE_00000151539018304402105920000006154503119343470744_">
			<line class="st10" x1="2610.4" y1="2546.9" x2="2481.6" y2="2546.9"/>
		</g>
		<g id="POLYLINE_00000027581414811228151110000015006700244485317515_">
			<line class="st10" x1="2465.5" y1="2538" x2="2537.1" y2="2538"/>
		</g>
		<g id="POLYLINE_00000131365548270889514350000000519453627410560956_">
			<line class="st10" x1="2756.9" y1="2546.9" x2="2628.1" y2="2546.9"/>
		</g>
		<g id="POLYLINE_00000173146335600234262730000007731288768824373684_">
			<line class="st10" x1="2683.6" y1="2538" x2="2554.9" y2="2538"/>
		</g>
		<g id="POLYLINE_00000068665312149014286920000017545267320836528794_">
			<line class="st10" x1="2701.4" y1="2538" x2="2774" y2="2538"/>
		</g>
		<g id="POLYLINE_00000057870763047703751020000014925722475478525317_">
			<line class="st10" x1="2701.4" y1="2520.2" x2="2774" y2="2520.2"/>
		</g>
		<g id="POLYLINE_00000104689298818977630140000002204281995912914562_">
			<line class="st10" x1="2756.9" y1="2529.1" x2="2628.1" y2="2529.1"/>
		</g>
		<g id="POLYLINE_00000179606080043023458820000006008185279124581538_">
			<line class="st10" x1="2610.4" y1="2529.1" x2="2481.6" y2="2529.1"/>
		</g>
		<g id="POLYLINE_00000003817646629672620710000008076665077652691847_">
			<line class="st10" x1="2465.5" y1="2520.2" x2="2537.1" y2="2520.2"/>
		</g>
		<g id="POLYLINE_00000130633731177625421020000003963468220552608429_">
			<line class="st10" x1="2683.6" y1="2520.2" x2="2554.9" y2="2520.2"/>
		</g>
		<g id="POLYLINE_00000160906767118171458670000015297335777821531522_">
			<line class="st10" x1="2610.4" y1="2511.3" x2="2481.6" y2="2511.3"/>
		</g>
		<g id="POLYLINE_00000112603946889643271480000011640609363336101779_">
			<line class="st10" x1="2756.9" y1="2511.3" x2="2628.1" y2="2511.3"/>
		</g>
		<g id="POLYLINE_00000067916402312116933240000011196718913748975005_">
			<line class="st10" x1="2683.6" y1="2502.4" x2="2554.9" y2="2502.4"/>
		</g>
		<g id="POLYLINE_00000181058933783039020880000014558486833130308249_">
			<line class="st10" x1="2701.4" y1="2502.4" x2="2774" y2="2502.4"/>
		</g>
		<g id="POLYLINE_00000068648257719811233520000017487830844648783744_">
			<line class="st10" x1="2465.5" y1="2502.4" x2="2537.1" y2="2502.4"/>
		</g>
		<g id="POLYLINE_00000036234158462146334180000017713306552647011476_">
			<line class="st10" x1="2756.9" y1="2491.5" x2="2628.1" y2="2491.5"/>
		</g>
		<g id="POLYLINE_00000102505801150496441640000002639266549353091468_">
			<line class="st10" x1="2610.4" y1="2491.5" x2="2481.6" y2="2491.5"/>
		</g>
		<g id="POLYLINE_00000073697207045498876710000000911479826004342201_">
			<line class="st10" x1="2701.4" y1="2482.6" x2="2774" y2="2482.6"/>
		</g>
		<g id="POLYLINE_00000061431251888719277160000002446736551591937157_">
			<line class="st10" x1="2465.5" y1="2482.6" x2="2537.1" y2="2482.6"/>
		</g>
		<g id="POLYLINE_00000079486343865465411890000008456012227979103400_">
			<line class="st10" x1="2683.6" y1="2482.6" x2="2554.9" y2="2482.6"/>
		</g>
		<g id="POLYLINE_00000119800374164258424140000002546428715146559373_">
			<line class="st10" x1="2683.6" y1="2447" x2="2554.9" y2="2447"/>
		</g>
		<g id="POLYLINE_00000000935251744238420740000002214054263176356242_">
			<line class="st10" x1="2701.4" y1="2447" x2="2774" y2="2447"/>
		</g>
		<g id="POLYLINE_00000088134800258088108360000004281642793680375205_">
			<line class="st10" x1="2610.4" y1="2473.7" x2="2481.6" y2="2473.7"/>
		</g>
		<g id="POLYLINE_00000163774972219358764140000013689293194118060479_">
			<line class="st10" x1="2683.6" y1="2464.8" x2="2554.9" y2="2464.8"/>
		</g>
		<g id="POLYLINE_00000164486853790946328250000016916217741175640494_">
			<line class="st10" x1="2465.5" y1="2464.8" x2="2537.1" y2="2464.8"/>
		</g>
		<g id="POLYLINE_00000066500535017487513670000003532634256415858593_">
			<line class="st10" x1="2610.4" y1="2436.1" x2="2481.6" y2="2436.1"/>
		</g>
		<g id="POLYLINE_00000072971759940596931230000003002579930527715002_">
			<line class="st10" x1="2701.4" y1="2427.2" x2="2774" y2="2427.2"/>
		</g>
		<g id="POLYLINE_00000178173989416615283560000012784658286891890613_">
			<line class="st10" x1="2465.5" y1="2427.2" x2="2537.1" y2="2427.2"/>
		</g>
		<g id="POLYLINE_00000087393609673952985230000012556807329892880520_">
			<line class="st10" x1="2756.9" y1="2473.7" x2="2628.1" y2="2473.7"/>
		</g>
		<g id="POLYLINE_00000052067365638163314560000017906903465389068429_">
			<line class="st10" x1="2683.6" y1="2427.2" x2="2554.9" y2="2427.2"/>
		</g>
		<g id="POLYLINE_00000109743915559706239740000002738634200640055948_">
			<line class="st10" x1="2756.9" y1="2436.1" x2="2628.1" y2="2436.1"/>
		</g>
		<g id="POLYLINE_00000077308095908968368370000009343610545422392495_">
			<line class="st10" x1="2701.4" y1="2464.8" x2="2774" y2="2464.8"/>
		</g>
		<g id="POLYLINE_00000112598237059473632820000003103674408718150588_">
			<line class="st10" x1="2465.5" y1="2447" x2="2537.1" y2="2447"/>
		</g>
		<g id="POLYLINE_00000129200549395348603980000010815346519944592050_">
			<line class="st10" x1="2610.4" y1="2455.9" x2="2481.6" y2="2455.9"/>
		</g>
		<g id="POLYLINE_00000142865016539582448960000016285386225562330006_">
			<line class="st10" x1="2756.9" y1="2455.9" x2="2628.1" y2="2455.9"/>
		</g>
		<g id="POLYLINE_00000077319447714428891750000003498758512954213542_">
			<line class="st10" x1="2683.6" y1="2391.6" x2="2554.9" y2="2391.6"/>
		</g>
		<g id="POLYLINE_00000113339503333430776160000003438515660826372279_">
			<line class="st10" x1="2465.5" y1="2391.6" x2="2537.1" y2="2391.6"/>
		</g>
		<g id="POLYLINE_00000099632805191934425340000007125342924829160599_">
			<line class="st10" x1="2756.9" y1="2400.5" x2="2628.1" y2="2400.5"/>
		</g>
		<g id="POLYLINE_00000176015561274594207380000001748293564566408833_">
			<line class="st10" x1="2683.6" y1="2409.4" x2="2554.9" y2="2409.4"/>
		</g>
		<g id="POLYLINE_00000072249225180968477220000004403050304955182981_">
			<line class="st10" x1="2701.4" y1="2391.6" x2="2774" y2="2391.6"/>
		</g>
		<g id="POLYLINE_00000101789798577880871240000014728334628324659331_">
			<line class="st10" x1="2465.5" y1="2409.4" x2="2537.1" y2="2409.4"/>
		</g>
		<g id="POLYLINE_00000106837198775283740370000011617157257845340837_">
			<line class="st10" x1="2610.4" y1="2418.3" x2="2481.6" y2="2418.3"/>
		</g>
		<g id="POLYLINE_00000111153547960514178920000012300081365856884398_">
			<line class="st10" x1="2756.9" y1="2418.3" x2="2628.1" y2="2418.3"/>
		</g>
		<g id="POLYLINE_00000181070146895167230110000017182932428342802097_">
			<line class="st10" x1="2701.4" y1="2409.4" x2="2774" y2="2409.4"/>
		</g>
		<g id="POLYLINE_00000028311673920564889470000017233256319593498515_">
			<line class="st10" x1="2610.4" y1="2400.5" x2="2481.6" y2="2400.5"/>
		</g>
		<g id="POLYLINE_00000036946667937585943420000005832841857338704534_">
			<line class="st10" x1="2701.4" y1="2371.8" x2="2774" y2="2371.8"/>
		</g>
		<g id="POLYLINE_00000055679217653185659410000017775230473707323554_">
			<line class="st10" x1="2610.4" y1="2380.7" x2="2481.6" y2="2380.7"/>
		</g>
		<g id="POLYLINE_00000084516596665468951300000011654634171598258619_">
			<line class="st10" x1="2610.4" y1="2363" x2="2481.6" y2="2363"/>
		</g>
		<g id="POLYLINE_00000099646065937933671340000003338553074470520967_">
			<line class="st10" x1="2756.9" y1="2363" x2="2628.1" y2="2363"/>
		</g>
		<g id="POLYLINE_00000096745866377720504240000017109106780694138769_">
			<line class="st10" x1="2756.9" y1="2380.7" x2="2628.1" y2="2380.7"/>
		</g>
		<g id="POLYLINE_00000081648591523691380510000018097192390695255688_">
			<line class="st10" x1="2756.9" y1="2343.2" x2="2628.1" y2="2343.2"/>
		</g>
		<g id="POLYLINE_00000066498165941399985610000006026406835272632211_">
			<line class="st10" x1="2701.4" y1="2354" x2="2774" y2="2354"/>
		</g>
		<g id="POLYLINE_00000155827983417145623680000011268013782060889243_">
			<line class="st10" x1="2465.5" y1="2354" x2="2537.1" y2="2354"/>
		</g>
		<g id="POLYLINE_00000009569551718280529960000008596861592841483440_">
			<line class="st10" x1="2610.4" y1="2343.2" x2="2481.6" y2="2343.2"/>
		</g>
		<g id="POLYLINE_00000107572963436970326920000012904504496088162996_">
			<line class="st10" x1="2683.6" y1="2371.8" x2="2554.9" y2="2371.8"/>
		</g>
		<g id="POLYLINE_00000174565183536698254080000005598409767429493177_">
			<line class="st10" x1="2683.6" y1="2354.1" x2="2554.9" y2="2354.1"/>
		</g>
		<g id="POLYLINE_00000021102725855999852450000008918631707501594764_">
			<line class="st10" x1="2465.5" y1="2371.8" x2="2537.1" y2="2371.8"/>
		</g>
		<g id="POLYLINE_00000048479125362381120920000013715016288146819263_">
			<line class="st10" x1="2683.6" y1="2334.3" x2="2554.9" y2="2334.3"/>
		</g>
		<g id="POLYLINE_00000027600263501426089690000015790272002559540377_">
			<line class="st10" x1="2465.5" y1="2334.3" x2="2537.1" y2="2334.3"/>
		</g>
		<g id="POLYLINE_00000022543960441140285690000018223535765778051990_">
			<line class="st10" x1="2701.4" y1="2334.3" x2="2774" y2="2334.3"/>
		</g>
		<g id="POLYLINE_00000101787681694374022340000017198274322765836169_">
			<line class="st10" x1="2702" y1="1823" x2="2774" y2="1823"/>
		</g>
		<g id="POLYLINE_00000024713588483195675520000000640045776304532891_">
			<line class="st10" x1="2684.2" y1="1823" x2="2555.5" y2="1823"/>
		</g>
		<g id="POLYLINE_00000109713104425265183800000006389294431348946315_">
			<line class="st10" x1="2465.5" y1="1823" x2="2537.7" y2="1823"/>
		</g>
		<g id="POLYLINE_00000029013399191611519390000012913641699109059747_">
			<line class="st10" x1="2611" y1="1814.1" x2="2482.2" y2="1814.1"/>
		</g>
		<g id="POLYLINE_00000016759579036153258200000013358221685741550750_">
			<line class="st10" x1="2465.5" y1="1805.2" x2="2537.7" y2="1805.2"/>
		</g>
		<g id="POLYLINE_00000034789668568891884010000017576170693266147204_">
			<line class="st10" x1="2757.5" y1="1814.1" x2="2628.7" y2="1814.1"/>
		</g>
		<g id="POLYLINE_00000090988816099081137330000002802036560298602938_">
			<line class="st10" x1="2684.2" y1="1805.2" x2="2555.5" y2="1805.2"/>
		</g>
		<g id="POLYLINE_00000080887175214355885920000000675764075802618258_">
			<line class="st10" x1="2702" y1="1805.2" x2="2774" y2="1805.2"/>
		</g>
		<g id="POLYLINE_00000008123532921209316190000009203821743395214516_">
			<line class="st10" x1="2702" y1="1787.4" x2="2774" y2="1787.4"/>
		</g>
		<g id="POLYLINE_00000158708208034653317820000016907251015624201909_">
			<line class="st10" x1="2757.5" y1="1796.3" x2="2628.7" y2="1796.3"/>
		</g>
		<g id="POLYLINE_00000047061404444410738470000010233747853549532585_">
			<line class="st10" x1="2611" y1="1796.3" x2="2482.2" y2="1796.3"/>
		</g>
		<g id="POLYLINE_00000168826094896374469760000009650711181768967330_">
			<line class="st10" x1="2465.5" y1="1787.4" x2="2537.7" y2="1787.4"/>
		</g>
		<g id="POLYLINE_00000174573563770206703570000013712283796779479950_">
			<line class="st10" x1="2684.2" y1="1787.4" x2="2555.5" y2="1787.4"/>
		</g>
		<g id="POLYLINE_00000111181014056562487040000005476747480114970294_">
			<line class="st10" x1="2611" y1="1778.5" x2="2482.2" y2="1778.5"/>
		</g>
		<g id="POLYLINE_00000103232398415971310260000018265983785790478734_">
			<line class="st10" x1="2757.5" y1="1778.5" x2="2628.7" y2="1778.5"/>
		</g>
		<g id="POLYLINE_00000157300434337650909710000007286808149128503682_">
			<line class="st10" x1="2684.2" y1="1769.6" x2="2555.5" y2="1769.6"/>
		</g>
		<g id="POLYLINE_00000102505217100375871190000008104781453868873402_">
			<line class="st10" x1="2702" y1="1769.6" x2="2774" y2="1769.6"/>
		</g>
		<g id="POLYLINE_00000044875650872817391160000004412017799028001445_">
			<line class="st10" x1="2465.5" y1="1769.6" x2="2537.7" y2="1769.6"/>
		</g>
		<g id="POLYLINE_00000136371165696817527550000017855050857942922115_">
			<line class="st10" x1="2757.5" y1="1758.7" x2="2628.7" y2="1758.7"/>
		</g>
		<g id="POLYLINE_00000062914133524728803500000003581970190157587348_">
			<line class="st10" x1="2611" y1="1758.7" x2="2482.2" y2="1758.7"/>
		</g>
		<g id="POLYLINE_00000038407647042232668610000017595558150052087446_">
			<line class="st10" x1="2702" y1="1749.8" x2="2774" y2="1749.8"/>
		</g>
		<g id="POLYLINE_00000129894036676311734120000011877011319664633008_">
			<line class="st10" x1="2465.5" y1="1749.8" x2="2537.7" y2="1749.8"/>
		</g>
		<g id="POLYLINE_00000041281799317792067310000005769690145461700224_">
			<line class="st10" x1="2684.2" y1="1749.8" x2="2555.5" y2="1749.8"/>
		</g>
		<g id="POLYLINE_00000039091256695169411840000005827007406105936821_">
			<line class="st10" x1="2684.2" y1="1714.2" x2="2555.5" y2="1714.2"/>
		</g>
		<g id="POLYLINE_00000112605207219370355280000001347547487004011428_">
			<line class="st10" x1="2702" y1="1714.2" x2="2774" y2="1714.2"/>
		</g>
		<g id="POLYLINE_00000119818129724382040430000003322388126547632780_">
			<line class="st10" x1="2611" y1="1740.9" x2="2482.2" y2="1740.9"/>
		</g>
		<g id="POLYLINE_00000042701243675419423800000004144223607778231203_">
			<line class="st10" x1="2684.2" y1="1732" x2="2555.5" y2="1732"/>
		</g>
		<g id="POLYLINE_00000031896350636349075490000017916853535833869210_">
			<line class="st10" x1="2465.5" y1="1732" x2="2537.7" y2="1732"/>
		</g>
		<g id="POLYLINE_00000183247972642820043450000006747419927530690489_">
			<line class="st10" x1="2611" y1="1703.3" x2="2482.2" y2="1703.3"/>
		</g>
		<g id="POLYLINE_00000072260143468263010840000000503517619107303359_">
			<line class="st10" x1="2702" y1="1694.5" x2="2774" y2="1694.5"/>
		</g>
		<g id="POLYLINE_00000183937310352127572120000014286327615112587428_">
			<line class="st10" x1="2465.5" y1="1694.5" x2="2537.7" y2="1694.5"/>
		</g>
		<g id="POLYLINE_00000073709884569610458840000008811209375339443128_">
			<line class="st10" x1="2757.5" y1="1740.9" x2="2628.7" y2="1740.9"/>
		</g>
		<g id="POLYLINE_00000171692464407864913180000007826213803959578814_">
			<line class="st10" x1="2684.2" y1="1694.5" x2="2555.5" y2="1694.5"/>
		</g>
		<g id="POLYLINE_00000046300118053645195340000011876565626095842438_">
			<line class="st10" x1="2757.5" y1="1703.3" x2="2628.7" y2="1703.3"/>
		</g>
		<g id="POLYLINE_00000016049549970422865700000013677717287713219231_">
			<line class="st10" x1="2702" y1="1732" x2="2774" y2="1732"/>
		</g>
		<g id="POLYLINE_00000055687177677544943360000004608768756279441541_">
			<line class="st10" x1="2465.5" y1="1714.2" x2="2537.7" y2="1714.2"/>
		</g>
		<g id="POLYLINE_00000047027181055351415510000004320200527962501760_">
			<line class="st10" x1="2611" y1="1723.1" x2="2482.2" y2="1723.1"/>
		</g>
		<g id="POLYLINE_00000145051627567511171820000001349213541601500837_">
			<line class="st10" x1="2757.5" y1="1723.1" x2="2628.7" y2="1723.1"/>
		</g>
		<g id="POLYLINE_00000150791220765982973360000003781983458451207041_">
			<line class="st10" x1="2684.2" y1="1658.9" x2="2555.5" y2="1658.9"/>
		</g>
		<g id="POLYLINE_00000163779238435827610670000001820071237981744569_">
			<line class="st10" x1="2465.5" y1="1658.9" x2="2537.7" y2="1658.9"/>
		</g>
		<g id="POLYLINE_00000072975873821973503410000013073169249977562539_">
			<line class="st10" x1="2757.5" y1="1667.8" x2="2628.7" y2="1667.8"/>
		</g>
		<g id="POLYLINE_00000162333826854954747170000014667652902971240359_">
			<line class="st10" x1="2684.2" y1="1676.7" x2="2555.5" y2="1676.7"/>
		</g>
		<g id="POLYLINE_00000067915648773619373110000015424073926544995720_">
			<line class="st10" x1="2702" y1="1658.9" x2="2774" y2="1658.9"/>
		</g>
		<g id="POLYLINE_00000025441807658580435580000003665789127252375690_">
			<line class="st10" x1="2465.5" y1="1676.7" x2="2537.7" y2="1676.7"/>
		</g>
		<g id="POLYLINE_00000071534240122318771670000008619218397000665255_">
			<line class="st10" x1="2611" y1="1685.6" x2="2482.2" y2="1685.6"/>
		</g>
		<g id="POLYLINE_00000086690511430761197940000018433228896716056254_">
			<line class="st10" x1="2757.5" y1="1685.6" x2="2628.7" y2="1685.6"/>
		</g>
		<g id="POLYLINE_00000040556445358795347120000013359574611167984059_">
			<line class="st10" x1="2702" y1="1676.7" x2="2774" y2="1676.7"/>
		</g>
		<g id="POLYLINE_00000173149823212579728930000001159304470730618533_">
			<line class="st10" x1="2611" y1="1667.8" x2="2482.2" y2="1667.8"/>
		</g>
		<g id="POLYLINE_00000005987217101693584460000012806504923336761272_">
			<line class="st10" x1="2702" y1="1639.1" x2="2774" y2="1639.1"/>
		</g>
		<g id="POLYLINE_00000040546396618891358460000000433630226629853852_">
			<line class="st10" x1="2611" y1="1648" x2="2482.2" y2="1648"/>
		</g>
		<g id="POLYLINE_00000139987569482783947930000000003237760655942024_">
			<line class="st10" x1="2611" y1="1630.2" x2="2482.2" y2="1630.2"/>
		</g>
		<g id="POLYLINE_00000029738066765879492350000011842721795548855431_">
			<line class="st10" x1="2757.5" y1="1630.2" x2="2628.7" y2="1630.2"/>
		</g>
		<g id="POLYLINE_00000154402929205804964150000016934488185451638699_">
			<line class="st10" x1="2757.5" y1="1648" x2="2628.7" y2="1648"/>
		</g>
		<g id="POLYLINE_00000134950903175996510640000007838803752850728125_">
			<line class="st10" x1="2757.5" y1="1610.4" x2="2628.7" y2="1610.4"/>
		</g>
		<g id="POLYLINE_00000088829845583512639400000017005269337970127036_">
			<line class="st10" x1="2702" y1="1621.3" x2="2774" y2="1621.3"/>
		</g>
		<g id="POLYLINE_00000093876374437767657050000004875766737265103266_">
			<line class="st10" x1="2465.5" y1="1621.3" x2="2537.7" y2="1621.3"/>
		</g>
		<g id="POLYLINE_00000168117685847529697970000016073730388331807896_">
			<line class="st10" x1="2611" y1="1610.4" x2="2482.2" y2="1610.4"/>
		</g>
		<g id="POLYLINE_00000022523205822722452450000013275149512100978076_">
			<line class="st10" x1="2684.2" y1="1639.1" x2="2555.5" y2="1639.1"/>
		</g>
		<g id="POLYLINE_00000044139633160038265700000008399619944804144795_">
			<line class="st10" x1="2684.2" y1="1621.3" x2="2555.5" y2="1621.3"/>
		</g>
		<g id="POLYLINE_00000093159497230982435350000004806362529104308394_">
			<line class="st10" x1="2465.5" y1="1639.1" x2="2537.7" y2="1639.1"/>
		</g>
		<g id="POLYLINE_00000095313534721308363050000010361350737139785656_">
			<line class="st10" x1="2684.2" y1="1601.5" x2="2555.5" y2="1601.5"/>
		</g>
		<g id="POLYLINE_00000158745760367606462650000001089588413370361500_">
			<line class="st10" x1="2465.5" y1="1601.5" x2="2537.7" y2="1601.5"/>
		</g>
		<g id="POLYLINE_00000133509281308481798340000003580135362459034511_">
			<line class="st10" x1="2702" y1="1601.5" x2="2774" y2="1601.5"/>
		</g>
		<rect x="2478" y="2572.4" class="st9" width="8.5" height="34.2"/>
		<rect x="2753" y="2572.4" class="st9" width="8.5" height="34.2"/>
		<path class="st9" d="M2641.3,1873.4v410.5c0,9.3-7.5,16.8-16.8,16.8c-4.6,0-8.8-1.9-11.9-4.9c-3-3-4.9-7.2-4.9-11.9v-410.5
			c0-9.3,7.5-16.8,16.8-16.8S2641.3,1864.1,2641.3,1873.4z"/>
		<rect x="2478" y="1551.2" class="st9" width="8.5" height="34.2"/>
		<rect x="2753" y="1551.2" class="st9" width="8.5" height="34.2"/>
		<rect x="2753" y="2061.6" class="st9" width="8.5" height="34.2"/>
		<rect x="2478" y="2061.6" class="st9" width="8.5" height="34.2"/>
	</g>
</g>
</svg>
