<?xml version="1.0" encoding="utf-8"?>
<!-- Generator: Adobe Illustrator 27.9.0, SVG Export Plug-In . SVG Version: 6.00 Build 0)  -->
<svg version="1.1" id="Layer_1" xmlns="http://www.w3.org/2000/svg" xmlns:xlink="http://www.w3.org/1999/xlink" x="0px" y="0px"
	 viewBox="0 0 612 792" style="enable-background:new 0 0 612 792;" xml:space="preserve">
<style type="text/css">
	.st0{fill:#010101;}
</style>
<g>
	<g>
		<g>
			<path class="st0" d="M173.9,151.8c-0.6,0-1.1,0-1.5-0.1c-0.4,0-0.7-0.1-1.1-0.3c-0.3-0.2-0.7-0.4-1.1-0.8
				c-0.6-0.6-1.2-1.1-1.6-1.6s-0.9-0.9-1.3-1.2c-0.4-0.3-0.9-0.5-1.5-0.5c-1.3,0-2.5-0.3-3.4-0.7c-0.9-0.5-1.7-1.1-2.3-1.9
				s-1-1.6-1.3-2.6c-0.3-0.9-0.4-1.9-0.4-2.8c0-0.9,0.2-1.8,0.5-2.8c0.3-0.9,0.8-1.8,1.4-2.6c0.6-0.8,1.4-1.4,2.4-1.9
				c1-0.5,2.1-0.7,3.3-0.7c1.3,0,2.5,0.2,3.4,0.7c1,0.5,1.7,1.1,2.4,1.9c0.6,0.8,1.1,1.6,1.4,2.6c0.3,0.9,0.4,1.8,0.4,2.8
				c0,0.8-0.1,1.5-0.3,2.3s-0.5,1.5-1,2.2c-0.4,0.7-1,1.3-1.6,1.9s-1.4,0.9-2.3,1.2c0.4,0,0.8,0,1.1,0.1s0.6,0.2,1,0.4
				s0.7,0.5,1.1,0.8c0.5,0.5,0.9,0.8,1.2,1.1c0.3,0.3,0.6,0.5,0.8,0.7c0.2,0.2,0.4,0.3,0.6,0.3s0.4,0.1,0.6,0.1v1.2H173.9z
				 M166.2,146.1c0.8,0,1.5-0.2,2-0.6c0.6-0.4,1-0.9,1.4-1.5c0.3-0.6,0.6-1.3,0.8-2c0.2-0.7,0.2-1.4,0.2-2.2c0-1-0.1-1.9-0.3-2.7
				c-0.2-0.8-0.5-1.6-0.9-2.2c-0.4-0.6-0.9-1.1-1.5-1.5c-0.6-0.4-1.3-0.5-2.1-0.5c-0.8,0-1.5,0.2-2,0.6c-0.6,0.4-1,0.9-1.4,1.5
				s-0.6,1.3-0.8,2c-0.2,0.7-0.2,1.5-0.2,2.2c0,0.7,0.1,1.5,0.3,2.3c0.2,0.8,0.4,1.5,0.8,2.3c0.4,0.7,0.9,1.3,1.5,1.7
				C164.6,145.9,165.4,146.1,166.2,146.1z"/>
			<path class="st0" d="M181.8,133.1c-0.4,0-0.7,0.1-0.9,0.2c-0.2,0.1-0.4,0.3-0.5,0.6c-0.1,0.3-0.1,0.6-0.1,1.1v5.8
				c0,0.9,0.1,1.6,0.2,2.3c0.2,0.6,0.4,1.2,0.7,1.6c0.3,0.4,0.7,0.8,1.2,1c0.5,0.2,1,0.3,1.6,0.3c0.9,0,1.6-0.2,2.2-0.5
				c0.6-0.4,1.1-1,1.4-1.7c0.3-0.8,0.5-1.7,0.5-2.8l0-5.8c0-0.4,0-0.7,0-1c0-0.3,0-0.6,0.1-0.8c-0.2,0-0.5,0-0.8,0
				c-0.3,0-0.6,0-0.8,0v-1.4h4.7v1.2c-0.4,0-0.7,0.1-0.9,0.2c-0.2,0.1-0.4,0.3-0.5,0.6c-0.1,0.3-0.1,0.7-0.1,1.3l0,5.3
				c0,1.1-0.1,2.1-0.4,3c-0.3,0.9-0.7,1.6-1.2,2.2s-1.1,1-1.9,1.3c-0.7,0.3-1.6,0.4-2.5,0.4c-1.2,0-2.2-0.2-3-0.5
				c-0.8-0.3-1.4-0.8-1.9-1.4c-0.5-0.6-0.8-1.4-1-2.2c-0.2-0.9-0.3-1.8-0.3-2.9v-5c0-0.4,0-0.8,0-1.2c0-0.4,0-0.7,0.1-0.9
				c-0.2,0-0.5,0-0.8,0c-0.3,0-0.6,0-0.8,0v-1.4h5.8V133.1z"/>
			<path class="st0" d="M201.1,147.4c-1.4,0-2.5-0.2-3.5-0.7c-1-0.5-1.8-1.1-2.4-1.9c-0.6-0.8-1-1.6-1.3-2.6
				c-0.3-0.9-0.4-1.9-0.4-2.8c0-0.9,0.2-1.8,0.5-2.8c0.3-0.9,0.8-1.8,1.4-2.6c0.6-0.8,1.4-1.4,2.4-1.9c1-0.5,2.1-0.7,3.4-0.7
				c1.3,0,2.5,0.2,3.4,0.7c1,0.5,1.7,1.1,2.4,1.9c0.6,0.8,1.1,1.6,1.4,2.6c0.3,0.9,0.4,1.8,0.4,2.8c0,0.9-0.2,1.8-0.5,2.7
				c-0.3,0.9-0.8,1.8-1.4,2.6s-1.4,1.4-2.4,1.9C203.5,147.2,202.4,147.4,201.1,147.4z M201.3,146.1c0.8,0,1.5-0.2,2-0.6
				c0.6-0.4,1-0.9,1.4-1.5c0.3-0.6,0.6-1.3,0.8-2c0.2-0.7,0.2-1.4,0.2-2.2c0-1-0.1-1.9-0.3-2.7c-0.2-0.8-0.5-1.6-0.9-2.2
				c-0.4-0.6-0.9-1.1-1.5-1.5c-0.6-0.4-1.3-0.5-2.1-0.5s-1.5,0.2-2,0.6c-0.6,0.4-1,0.9-1.4,1.5s-0.6,1.3-0.8,2
				c-0.2,0.7-0.2,1.5-0.2,2.2c0,0.7,0.1,1.5,0.3,2.3c0.2,0.8,0.4,1.5,0.8,2.3s0.9,1.3,1.5,1.7C199.7,145.9,200.4,146.1,201.3,146.1z
				"/>
			<path class="st0" d="M222.8,136.7c0-0.8-0.1-1.5-0.3-2c-0.2-0.5-0.5-0.9-0.9-1.2s-0.9-0.4-1.5-0.4h-1.3v10.7c0,0.4,0,0.8,0,1.1
				c0,0.3,0,0.6-0.1,0.8c0.3,0,0.6,0,0.9,0s0.6,0,0.8,0v1.4h-5.9v-1.2c0.4,0,0.7-0.1,0.9-0.2c0.2-0.1,0.4-0.3,0.5-0.7
				c0.1-0.3,0.1-0.7,0.1-1.3l0-10.6h-1.4c-0.9,0-1.5,0.3-2,0.9c-0.4,0.6-0.7,1.5-0.7,2.7h-1.2l0.1-4.8h13l0.1,4.8H222.8z"/>
			<path class="st0" d="M233.8,141.7c0-0.6-0.1-1.1-0.3-1.3s-0.4-0.4-0.8-0.5s-0.7-0.1-1.2-0.1l-0.9,0v4c0,0.4,0,0.7,0,1.1
				c0,0.3,0,0.6-0.1,0.8l3.3,0c0.5,0,1-0.1,1.4-0.3c0.4-0.2,0.8-0.5,1-1c0.3-0.5,0.4-1.1,0.4-1.9h1.2l-0.1,4.6h-11.4v-1.2
				c0.4,0,0.7-0.1,0.9-0.2c0.2-0.1,0.4-0.3,0.5-0.7c0.1-0.3,0.1-0.7,0.1-1.3v-8.6c0-0.4,0-0.7,0-1c0-0.3,0-0.6,0.1-0.8
				c-0.2,0-0.5,0-0.8,0c-0.3,0-0.6,0-0.8,0v-1.4h10.7l0.1,4.1h-1.2c0-0.8-0.1-1.4-0.4-1.9c-0.3-0.4-0.6-0.7-1-0.8
				c-0.4-0.1-0.9-0.2-1.3-0.2l-1.1,0c-0.4,0-0.7,0.1-0.9,0.2c-0.2,0.1-0.4,0.3-0.5,0.6c-0.1,0.3-0.1,0.7-0.1,1.3v3.3l3,0l-0.1-1.9
				h1.4v5H233.8z"/>
			<path class="st0" d="M255.2,143.9c0,0.4,0,0.7,0,1c0,0.3,0,0.6-0.1,0.8c0.3,0,0.6,0,0.9-0.1c0.3,0,0.6,0,0.8,0v1.4h-5.9v-1.2h0.1
				c0.4,0,0.7-0.1,0.9-0.2s0.4-0.3,0.5-0.7c0.1-0.3,0.2-0.7,0.2-1.3v-0.7h-6.1v-1.7l7.6-9.8h1.1v9.8h2.1v1.7h-2.1V143.9z
				 M252.6,135.6l-4.3,5.6l4.3,0L252.6,135.6L252.6,135.6z"/>
			<path class="st0" d="M261.6,147.4c-0.4,0-0.8-0.2-1.1-0.5s-0.4-0.7-0.4-1.1c0-0.4,0.1-0.8,0.4-1.1c0.3-0.3,0.6-0.5,1-0.5
				c0.4,0,0.8,0.2,1,0.5c0.3,0.3,0.4,0.7,0.4,1.1c0,0.4-0.1,0.8-0.4,1.1S262,147.4,261.6,147.4z"/>
		</g>
	</g>
</g>
<g>
	<g>
		<g>
			<path class="st0" d="M57.1,212.2c-0.4,0-0.7,0.1-0.9,0.2c-0.2,0.1-0.4,0.3-0.5,0.6c-0.1,0.3-0.1,0.7-0.1,1.3v8.6
				c0,0.4,0,0.8,0,1.1c0,0.3,0,0.6-0.1,0.8c0.2,0,0.5,0,0.8,0c0.3,0,0.6,0,0.8,0v1.4h-5.8v-1.2c0.4,0,0.7-0.1,0.9-0.2
				c0.2-0.1,0.4-0.3,0.5-0.6c0.1-0.3,0.1-0.7,0.1-1.3v-8.6c0-0.4,0-0.7,0-1c0-0.3,0-0.6,0.1-0.8c-0.2,0-0.5,0-0.8,0s-0.6,0-0.8,0
				V211h5.8V212.2z"/>
			<path class="st0" d="M60.3,226.1v-1.2c0.4,0,0.7-0.1,0.9-0.2c0.2-0.1,0.4-0.3,0.5-0.6c0.1-0.3,0.1-0.7,0.1-1.3v-8.6
				c0-0.4,0-0.7,0-1c0-0.3,0-0.6,0.1-0.8c-0.2,0-0.5,0-0.8,0s-0.6,0-0.8,0V211h10.6L71,215h-1.2c0-0.8-0.1-1.4-0.4-1.9
				c-0.3-0.4-0.6-0.7-1-0.8s-0.8-0.2-1.3-0.2l-1.1,0c-0.4,0-0.7,0.1-0.9,0.2c-0.2,0.1-0.4,0.4-0.4,0.7c-0.1,0.3-0.1,0.7-0.1,1.3v3.8
				h2.7l-0.1-1.9h1.4v5h-1.2c0-0.6-0.1-1.1-0.3-1.3s-0.5-0.4-0.8-0.5c-0.3-0.1-0.7-0.1-1.2-0.1l-0.6,0v3.5c0,0.4,0,0.8,0,1.1
				c0,0.3,0,0.6-0.1,0.8c0.2,0,0.4,0,0.7,0c0.3,0,0.5,0,0.8,0c0.3,0,0.5,0,0.6,0v1.4H60.3z"/>
			<path class="st0" d="M80,226.1v-1.2c0.4,0,0.7-0.1,0.9-0.2c0.2-0.1,0.4-0.3,0.5-0.6c0.1-0.3,0.1-0.7,0.1-1.3v-8.6
				c0-0.4,0-0.7,0-1c0-0.3,0-0.6,0.1-0.8c-0.2,0-0.5,0-0.8,0s-0.6,0-0.8,0V211h5.8v1.2c-0.4,0-0.7,0.1-0.9,0.2
				c-0.2,0.1-0.4,0.3-0.5,0.6c-0.1,0.3-0.1,0.7-0.1,1.3v8.6c0,0.4,0,0.7,0,1.1c0,0.3,0,0.6-0.1,0.8l3.3,0c0.9,0,1.5-0.3,2-0.9
				c0.5-0.6,0.7-1.5,0.7-2.7h1.2l-0.1,5H80z"/>
			<path class="st0" d="M101,226.5c-1.4,0-2.5-0.2-3.5-0.7c-1-0.5-1.8-1.1-2.4-1.9c-0.6-0.8-1-1.6-1.3-2.6c-0.3-0.9-0.4-1.9-0.4-2.8
				c0-0.9,0.2-1.8,0.5-2.8c0.3-0.9,0.8-1.8,1.4-2.6c0.6-0.8,1.4-1.4,2.4-1.9c1-0.5,2.1-0.7,3.4-0.7c1.3,0,2.5,0.2,3.4,0.7
				c1,0.5,1.7,1.1,2.4,1.9c0.6,0.8,1.1,1.6,1.4,2.6s0.4,1.8,0.4,2.8c0,0.9-0.2,1.8-0.5,2.7c-0.3,0.9-0.8,1.8-1.4,2.6
				s-1.4,1.4-2.4,1.9C103.4,226.2,102.3,226.5,101,226.5z M101.2,225.1c0.8,0,1.5-0.2,2-0.6c0.6-0.4,1-0.9,1.4-1.5
				c0.3-0.6,0.6-1.3,0.8-2c0.2-0.7,0.2-1.4,0.2-2.2c0-1-0.1-1.9-0.3-2.7c-0.2-0.8-0.5-1.6-0.9-2.2c-0.4-0.6-0.9-1.1-1.5-1.5
				c-0.6-0.4-1.3-0.5-2.1-0.5c-0.8,0-1.5,0.2-2,0.6c-0.6,0.4-1,0.9-1.4,1.5c-0.4,0.6-0.6,1.3-0.8,2c-0.2,0.7-0.2,1.5-0.2,2.2
				c0,0.7,0.1,1.5,0.3,2.3c0.2,0.8,0.4,1.5,0.8,2.3c0.4,0.7,0.9,1.3,1.5,1.7C99.6,224.9,100.3,225.1,101.2,225.1z"/>
			<path class="st0" d="M117.3,226.3l-5-11.6c-0.2-0.5-0.4-0.9-0.5-1.4c-0.1-0.4-0.2-0.7-0.2-1c-0.2,0-0.4,0-0.6,0s-0.4,0-0.6,0V211
				h5.9v1.2c-0.6,0-1,0.2-1.3,0.5c-0.2,0.3-0.2,0.8,0,1.4c0.3,0.8,0.7,1.6,1,2.4c0.3,0.8,0.7,1.6,1,2.5c0.3,0.7,0.5,1.3,0.8,1.8
				c0.2,0.5,0.4,1.1,0.6,1.6h0c0.2-0.5,0.3-0.9,0.5-1.5s0.4-1,0.5-1.6c0.3-0.7,0.5-1.4,0.7-2s0.4-1.2,0.6-1.7c0.2-0.5,0.4-1,0.5-1.5
				c0.1-0.3,0.2-0.6,0.3-1s0.3-0.7,0.5-0.9c-0.2,0-0.5,0-0.9,0c-0.3,0-0.6,0-0.8,0V211h4.7v1.2c-0.5,0-1,0.2-1.4,0.5
				c-0.4,0.3-0.7,0.9-1,1.7c-0.2,0.4-0.3,0.9-0.5,1.4s-0.4,1-0.5,1.5c-0.2,0.5-0.4,1.1-0.6,1.7c-0.2,0.6-0.5,1.3-0.7,2
				c-0.3,0.7-0.6,1.5-0.9,2.4c-0.3,0.9-0.7,1.9-1.1,2.9H117.3z"/>
			<path class="st0" d="M134.7,220.8c0-0.6-0.1-1.1-0.3-1.3s-0.4-0.4-0.8-0.5c-0.3-0.1-0.7-0.1-1.2-0.1l-0.9,0v4c0,0.4,0,0.7,0,1.1
				c0,0.3,0,0.6-0.1,0.8l3.3,0c0.5,0,1-0.1,1.4-0.3s0.8-0.5,1-1c0.3-0.5,0.4-1.1,0.4-1.9h1.2l-0.1,4.6h-11.4v-1.2
				c0.4,0,0.7-0.1,0.9-0.2c0.2-0.1,0.4-0.3,0.5-0.6c0.1-0.3,0.1-0.7,0.1-1.3v-8.6c0-0.4,0-0.7,0-1c0-0.3,0-0.6,0.1-0.8
				c-0.2,0-0.5,0-0.8,0s-0.6,0-0.8,0V211H138l0.1,4.1h-1.2c0-0.8-0.1-1.4-0.4-1.9s-0.6-0.7-1-0.8c-0.4-0.1-0.9-0.2-1.3-0.2l-1.1,0
				c-0.4,0-0.7,0.1-0.9,0.2c-0.2,0.1-0.4,0.3-0.5,0.6c-0.1,0.3-0.1,0.7-0.1,1.3v3.3l3,0l-0.1-1.9h1.4v5H134.7z"/>
			<path class="st0" d="M147.2,226.1v-1.2c0.4,0,0.7-0.1,1-0.3s0.4-0.5,0.6-0.9c0.2-0.4,0.3-0.8,0.5-1.3l4.3-11.8h1.2l4.7,12
				c0.1,0.2,0.2,0.6,0.3,1c0.1,0.4,0.2,0.8,0.2,1.2c0.2,0,0.5,0,0.7,0c0.2,0,0.4,0,0.6,0v1.4h-5.5v-1.2c0.4,0,0.8-0.1,0.9-0.3
				c0.2-0.2,0.2-0.4,0.2-0.7c0-0.3-0.1-0.6-0.2-0.9l-0.5-1.5l-5,0.1l-0.5,1.5c-0.1,0.2-0.2,0.5-0.3,0.8c-0.1,0.3-0.2,0.6-0.3,0.8
				c0.3,0,0.5,0,0.9,0c0.3,0,0.6,0,0.7,0v1.5H147.2z M151.6,220.2h4.1l-1.2-3.2c-0.2-0.5-0.3-1-0.5-1.5c-0.2-0.5-0.3-1-0.4-1.4h0
				c-0.1,0.3-0.2,0.7-0.3,1.1c-0.1,0.5-0.3,1-0.5,1.6L151.6,220.2z"/>
			<path class="st0" d="M163.3,226.1v-1.2c0.4,0,0.7-0.1,0.9-0.2c0.2-0.1,0.4-0.3,0.5-0.6c0.1-0.3,0.1-0.7,0.1-1.3v-8.6
				c0-0.4,0-0.7,0-1c0-0.3,0-0.6,0.1-0.8c-0.2,0-0.5,0-0.8,0s-0.6,0-0.8,0V211h5.8v1.2c-0.4,0-0.7,0.1-0.9,0.2
				c-0.2,0.1-0.4,0.3-0.5,0.6c-0.1,0.3-0.1,0.7-0.1,1.3v8.6c0,0.4,0,0.7,0,1.1c0,0.3,0,0.6-0.1,0.8l3.3,0c0.9,0,1.5-0.3,2-0.9
				c0.5-0.6,0.7-1.5,0.7-2.7h1.2l-0.1,5H163.3z"/>
			<path class="st0" d="M184.4,226.5c-1.4,0-2.5-0.2-3.5-0.7c-1-0.5-1.8-1.1-2.4-1.9c-0.6-0.8-1-1.6-1.3-2.6
				c-0.3-0.9-0.4-1.9-0.4-2.8c0-0.9,0.2-1.8,0.5-2.8c0.3-0.9,0.8-1.8,1.4-2.6c0.6-0.8,1.4-1.4,2.4-1.9c1-0.5,2.1-0.7,3.4-0.7
				c1.3,0,2.5,0.2,3.4,0.7c1,0.5,1.7,1.1,2.4,1.9c0.6,0.8,1.1,1.6,1.4,2.6s0.4,1.8,0.4,2.8c0,0.9-0.2,1.8-0.5,2.7
				c-0.3,0.9-0.8,1.8-1.4,2.6s-1.4,1.4-2.4,1.9C186.8,226.2,185.7,226.5,184.4,226.5z M184.6,225.1c0.8,0,1.5-0.2,2-0.6
				c0.6-0.4,1-0.9,1.4-1.5c0.3-0.6,0.6-1.3,0.8-2c0.2-0.7,0.2-1.4,0.2-2.2c0-1-0.1-1.9-0.3-2.7c-0.2-0.8-0.5-1.6-0.9-2.2
				c-0.4-0.6-0.9-1.1-1.5-1.5c-0.6-0.4-1.3-0.5-2.1-0.5c-0.8,0-1.5,0.2-2,0.6c-0.6,0.4-1,0.9-1.4,1.5c-0.4,0.6-0.6,1.3-0.8,2
				c-0.2,0.7-0.2,1.5-0.2,2.2c0,0.7,0.1,1.5,0.3,2.3c0.2,0.8,0.4,1.5,0.8,2.3c0.4,0.7,0.9,1.3,1.5,1.7
				C183,224.9,183.7,225.1,184.6,225.1z"/>
			<path class="st0" d="M206.5,226.4l-7.5-9.8c-0.2-0.2-0.3-0.5-0.5-0.7c-0.2-0.2-0.4-0.5-0.5-0.7h0l0,7.6c0,0.4,0,0.8,0,1.1
				c0,0.4,0,0.7-0.1,0.9c0.2,0,0.5,0,0.8,0c0.3,0,0.6,0,0.8,0v1.4h-4.6v-1.2c0.4,0,0.7-0.1,0.9-0.2c0.2-0.1,0.4-0.3,0.5-0.6
				s0.2-0.6,0.2-1.1l0-9c0-0.3,0-0.7,0-1c0-0.3,0-0.6,0-0.8c-0.2,0-0.5,0-0.8,0c-0.3,0-0.6,0-0.8,0V211h3.1l7.1,9.2
				c0.3,0.4,0.6,0.7,0.8,1s0.4,0.6,0.6,0.8h0v-7.9c0-0.4,0-0.7,0-1c0-0.3,0-0.6,0-0.8c-0.2,0-0.5,0-0.8,0c-0.3,0-0.6,0-0.8,0V211
				h4.6v1.2c-0.4,0-0.7,0.1-0.9,0.2s-0.4,0.3-0.5,0.6c-0.1,0.3-0.1,0.7-0.1,1.3l0,12.1H206.5z"/>
			<path class="st0" d="M219.8,220.8c0-0.6-0.1-1.1-0.3-1.3s-0.4-0.4-0.8-0.5c-0.3-0.1-0.7-0.1-1.2-0.1l-0.9,0v4c0,0.4,0,0.7,0,1.1
				c0,0.3,0,0.6-0.1,0.8l3.3,0c0.5,0,1-0.1,1.4-0.3s0.8-0.5,1-1c0.3-0.5,0.4-1.1,0.4-1.9h1.2l-0.1,4.6h-11.4v-1.2
				c0.4,0,0.7-0.1,0.9-0.2c0.2-0.1,0.4-0.3,0.5-0.6c0.1-0.3,0.1-0.7,0.1-1.3v-8.6c0-0.4,0-0.7,0-1c0-0.3,0-0.6,0.1-0.8
				c-0.2,0-0.5,0-0.8,0s-0.6,0-0.8,0V211h10.7l0.1,4.1H222c0-0.8-0.1-1.4-0.4-1.9s-0.6-0.7-1-0.8c-0.4-0.1-0.9-0.2-1.3-0.2l-1.1,0
				c-0.4,0-0.7,0.1-0.9,0.2c-0.2,0.1-0.4,0.3-0.5,0.6c-0.1,0.3-0.1,0.7-0.1,1.3v3.3l3,0l-0.1-1.9h1.4v5H219.8z"/>
			<path class="st0" d="M244.8,215.8c-0.2-1.3-0.6-2.2-1.3-2.9c-0.7-0.7-1.6-1-2.6-1c-0.8,0-1.4,0.2-2,0.5c-0.6,0.3-1.1,0.8-1.5,1.4
				c-0.4,0.6-0.7,1.3-0.9,2c-0.2,0.8-0.3,1.6-0.3,2.5c0,1.3,0.2,2.4,0.6,3.4c0.4,1,1,1.8,1.7,2.3c0.7,0.6,1.6,0.8,2.6,0.8
				c0.9,0,1.8-0.2,2.7-0.7s1.7-1.1,2.2-1.9l0.9,0.8c-0.7,0.9-1.4,1.6-2.2,2.1s-1.5,0.8-2.2,1c-0.7,0.2-1.4,0.3-2,0.3
				c-1.1,0-2.1-0.2-3-0.6c-0.9-0.4-1.7-0.9-2.3-1.6c-0.7-0.7-1.2-1.5-1.5-2.4c-0.4-0.9-0.5-1.9-0.5-3c0-1,0.2-2,0.5-2.9
				c0.3-1,0.8-1.8,1.4-2.6c0.6-0.8,1.4-1.4,2.4-1.9c1-0.5,2.1-0.7,3.3-0.7c0.6,0,1.3,0.1,2,0.3c0.7,0.2,1.3,0.5,2,0.9l-0.1-1h1.5v5
				H244.8z"/>
			<path class="st0" d="M256.5,226.5c-1.4,0-2.5-0.2-3.5-0.7c-1-0.5-1.8-1.1-2.4-1.9c-0.6-0.8-1-1.6-1.3-2.6
				c-0.3-0.9-0.4-1.9-0.4-2.8c0-0.9,0.2-1.8,0.5-2.8c0.3-0.9,0.8-1.8,1.4-2.6c0.6-0.8,1.4-1.4,2.4-1.9c1-0.5,2.1-0.7,3.4-0.7
				c1.3,0,2.5,0.2,3.4,0.7c1,0.5,1.7,1.1,2.4,1.9c0.6,0.8,1.1,1.6,1.4,2.6s0.4,1.8,0.4,2.8c0,0.9-0.2,1.8-0.5,2.7
				c-0.3,0.9-0.8,1.8-1.4,2.6s-1.4,1.4-2.4,1.9C258.9,226.2,257.8,226.5,256.5,226.5z M256.7,225.1c0.8,0,1.5-0.2,2-0.6
				c0.6-0.4,1-0.9,1.4-1.5c0.3-0.6,0.6-1.3,0.8-2c0.2-0.7,0.2-1.4,0.2-2.2c0-1-0.1-1.9-0.3-2.7c-0.2-0.8-0.5-1.6-0.9-2.2
				c-0.4-0.6-0.9-1.1-1.5-1.5c-0.6-0.4-1.3-0.5-2.1-0.5c-0.8,0-1.5,0.2-2,0.6c-0.6,0.4-1,0.9-1.4,1.5c-0.4,0.6-0.6,1.3-0.8,2
				c-0.2,0.7-0.2,1.5-0.2,2.2c0,0.7,0.1,1.5,0.3,2.3c0.2,0.8,0.4,1.5,0.8,2.3c0.4,0.7,0.9,1.3,1.5,1.7
				C255.1,224.9,255.8,225.1,256.7,225.1z"/>
			<path class="st0" d="M272.2,212.2c-0.4,0-0.7,0.1-0.9,0.2s-0.4,0.3-0.5,0.6c-0.1,0.3-0.1,0.6-0.1,1.1v5.8c0,0.9,0.1,1.6,0.2,2.3
				c0.2,0.6,0.4,1.2,0.7,1.6c0.3,0.4,0.7,0.8,1.2,1c0.5,0.2,1,0.3,1.6,0.3c0.9,0,1.6-0.2,2.2-0.5c0.6-0.4,1.1-1,1.4-1.7
				c0.3-0.8,0.5-1.7,0.5-2.8l0-5.8c0-0.4,0-0.7,0-1c0-0.3,0-0.6,0.1-0.8c-0.2,0-0.5,0-0.8,0s-0.6,0-0.8,0V211h4.7v1.2
				c-0.4,0-0.7,0.1-0.9,0.2c-0.2,0.1-0.4,0.3-0.5,0.6c-0.1,0.3-0.1,0.7-0.1,1.3l0,5.3c0,1.1-0.1,2.1-0.4,3c-0.3,0.9-0.7,1.6-1.2,2.2
				c-0.5,0.6-1.1,1-1.9,1.3c-0.7,0.3-1.6,0.4-2.5,0.4c-1.2,0-2.2-0.2-3-0.5c-0.8-0.3-1.4-0.8-1.9-1.4c-0.5-0.6-0.8-1.4-1-2.2
				c-0.2-0.9-0.3-1.8-0.3-2.9v-5c0-0.4,0-0.8,0-1.2c0-0.4,0-0.7,0.1-0.9c-0.2,0-0.5,0-0.8,0c-0.3,0-0.6,0-0.8,0V211h5.8V212.2z"/>
			<path class="st0" d="M284.2,226.1v-1.2c0.4,0,0.7-0.1,0.9-0.2c0.2-0.1,0.4-0.3,0.5-0.6c0.1-0.3,0.1-0.7,0.1-1.3v-8.6
				c0-0.4,0-0.7,0-1c0-0.3,0-0.6,0.1-0.8c-0.2,0-0.5,0-0.8,0s-0.6,0-0.8,0V211h5.8v1.2c-0.4,0-0.7,0.1-0.9,0.2
				c-0.2,0.1-0.4,0.3-0.5,0.6c-0.1,0.3-0.1,0.7-0.1,1.3v8.6c0,0.4,0,0.7,0,1.1c0,0.3,0,0.6-0.1,0.8l3.3,0c0.9,0,1.5-0.3,2-0.9
				c0.5-0.6,0.7-1.5,0.7-2.7h1.2l-0.1,5H284.2z"/>
			<path class="st0" d="M298,224.9c0.4,0,0.7-0.1,0.9-0.2c0.2-0.1,0.4-0.3,0.5-0.6c0.1-0.3,0.1-0.7,0.1-1.3v-8.6c0-0.4,0-0.7,0-1
				c0-0.3,0-0.6,0.1-0.8c-0.2,0-0.5,0-0.8,0s-0.6,0-0.8,0V211l5.9,0c1.4,0,2.6,0.2,3.7,0.6c1.1,0.4,1.9,0.9,2.7,1.6
				c0.7,0.7,1.2,1.5,1.6,2.4c0.4,0.9,0.6,1.9,0.6,2.9c0,0.9-0.2,1.8-0.5,2.7s-0.8,1.7-1.5,2.5c-0.7,0.7-1.5,1.3-2.6,1.8
				c-1.1,0.4-2.3,0.7-3.8,0.7h-6V224.9z M302.3,222.9c0,0.4,0,0.8,0,1.1c0,0.3,0,0.6-0.1,0.8c0.2,0,0.5,0,0.8,0s0.5,0,0.8,0
				c0.3,0,0.5,0,0.6,0c0.8,0,1.6-0.2,2.2-0.5c0.6-0.3,1.2-0.8,1.6-1.3c0.4-0.6,0.7-1.2,1-1.9c0.2-0.7,0.3-1.5,0.3-2.3
				c0-1.4-0.2-2.6-0.7-3.6s-1.1-1.7-1.9-2.2c-0.8-0.5-1.8-0.8-3.1-0.8c-0.4,0-0.7,0-1,0.2c-0.2,0.1-0.4,0.3-0.5,0.6
				c-0.1,0.3-0.1,0.7-0.1,1.3V222.9z"/>
			<path class="st0" d="M321.8,226.1v-1.2c0.4,0,0.7-0.1,0.9-0.2c0.2-0.1,0.4-0.3,0.5-0.6s0.1-0.7,0.1-1.3v-8.6c0-0.4,0-0.7,0-1
				c0-0.3,0-0.6,0.1-0.8c-0.2,0-0.5,0-0.8,0c-0.3,0-0.6,0-0.8,0V211h5.8v1.2c-0.4,0-0.7,0.1-0.9,0.2c-0.2,0.1-0.4,0.3-0.5,0.6
				c-0.1,0.3-0.1,0.7-0.1,1.3v3.4h6.5v-3.6c0-0.4,0-0.7,0-1c0-0.3,0-0.6,0.1-0.8c-0.2,0-0.5,0-0.8,0c-0.3,0-0.6,0-0.8,0V211h5.8v1.2
				c-0.4,0-0.7,0.1-0.9,0.2c-0.2,0.1-0.4,0.3-0.5,0.6c-0.1,0.3-0.1,0.7-0.1,1.3v8.6c0,0.4,0,0.8,0,1.1c0,0.3,0,0.6-0.1,0.8
				c0.2,0,0.5,0,0.9,0c0.3,0,0.6,0,0.7,0v1.4h-5.8v-1.2c0.4,0,0.7-0.1,0.9-0.2c0.2-0.1,0.4-0.3,0.5-0.6s0.1-0.7,0.1-1.3v-3.7
				l-6.5,0.1v3.7c0,0.4,0,0.8,0,1.1c0,0.3,0,0.6-0.1,0.8c0.2,0,0.5,0,0.8,0c0.3,0,0.6,0,0.8,0v1.4H321.8z"/>
			<path class="st0" d="M338.9,226.1v-1.2c0.4,0,0.7-0.1,1-0.3c0.2-0.2,0.4-0.5,0.6-0.9s0.3-0.8,0.5-1.3l4.3-11.8h1.2l4.7,12
				c0.1,0.2,0.2,0.6,0.3,1c0.1,0.4,0.2,0.8,0.2,1.2c0.2,0,0.5,0,0.7,0c0.2,0,0.4,0,0.6,0v1.4h-5.5v-1.2c0.4,0,0.8-0.1,0.9-0.3
				c0.2-0.2,0.2-0.4,0.2-0.7c0-0.3-0.1-0.6-0.2-0.9l-0.5-1.5l-5,0.1l-0.5,1.5c-0.1,0.2-0.2,0.5-0.3,0.8c-0.1,0.3-0.2,0.6-0.3,0.8
				c0.3,0,0.5,0,0.9,0c0.3,0,0.6,0,0.7,0v1.5H338.9z M343.4,220.2h4.1l-1.2-3.2c-0.2-0.5-0.3-1-0.5-1.5c-0.2-0.5-0.3-1-0.4-1.4h0
				c-0.1,0.3-0.2,0.7-0.3,1.1c-0.1,0.5-0.3,1-0.5,1.6L343.4,220.2z"/>
			<path class="st0" d="M360.9,226.3l-5-11.6c-0.2-0.5-0.4-0.9-0.5-1.4c-0.1-0.4-0.2-0.7-0.2-1c-0.2,0-0.4,0-0.6,0
				c-0.2,0-0.4,0-0.6,0V211h5.9v1.2c-0.6,0-1,0.2-1.3,0.5c-0.2,0.3-0.2,0.8,0,1.4c0.3,0.8,0.7,1.6,1,2.4c0.3,0.8,0.7,1.6,1,2.5
				c0.3,0.7,0.5,1.3,0.8,1.8c0.2,0.5,0.4,1.1,0.6,1.6h0c0.2-0.5,0.3-0.9,0.5-1.5c0.2-0.5,0.4-1,0.5-1.6c0.3-0.7,0.5-1.4,0.7-2
				s0.4-1.2,0.6-1.7s0.4-1,0.5-1.5c0.1-0.3,0.2-0.6,0.3-1s0.3-0.7,0.5-0.9c-0.2,0-0.5,0-0.9,0s-0.6,0-0.8,0V211h4.7v1.2
				c-0.5,0-1,0.2-1.4,0.5c-0.4,0.3-0.7,0.9-1,1.7c-0.2,0.4-0.3,0.9-0.5,1.4c-0.2,0.5-0.4,1-0.5,1.5c-0.2,0.5-0.4,1.1-0.6,1.7
				c-0.2,0.6-0.5,1.3-0.7,2s-0.6,1.5-0.9,2.4c-0.3,0.9-0.7,1.9-1.1,2.9H360.9z"/>
			<path class="st0" d="M378.3,220.8c0-0.6-0.1-1.1-0.3-1.3s-0.4-0.4-0.8-0.5c-0.3-0.1-0.7-0.1-1.2-0.1l-0.9,0v4c0,0.4,0,0.7,0,1.1
				c0,0.3,0,0.6-0.1,0.8l3.3,0c0.5,0,1-0.1,1.4-0.3s0.8-0.5,1-1c0.3-0.5,0.4-1.1,0.4-1.9h1.2l-0.1,4.6h-11.4v-1.2
				c0.4,0,0.7-0.1,0.9-0.2c0.2-0.1,0.4-0.3,0.5-0.6s0.1-0.7,0.1-1.3v-8.6c0-0.4,0-0.7,0-1c0-0.3,0-0.6,0.1-0.8c-0.2,0-0.5,0-0.8,0
				c-0.3,0-0.6,0-0.8,0V211h10.7l0.1,4.1h-1.2c0-0.8-0.1-1.4-0.4-1.9c-0.3-0.4-0.6-0.7-1-0.8c-0.4-0.1-0.9-0.2-1.3-0.2l-1.1,0
				c-0.4,0-0.7,0.1-0.9,0.2c-0.2,0.1-0.4,0.3-0.5,0.6c-0.1,0.3-0.1,0.7-0.1,1.3v3.3l3,0l-0.1-1.9h1.4v5H378.3z"/>
			<path class="st0" d="M391.9,226.1v-1.2c0.4,0,0.7-0.1,0.9-0.2c0.2-0.1,0.4-0.3,0.5-0.6c0.1-0.3,0.1-0.7,0.1-1.3v-8.6
				c0-0.4,0-0.7,0-1c0-0.3,0-0.6,0.1-0.8c-0.2,0-0.5,0-0.8,0c-0.3,0-0.6,0-0.8,0V211h5.8v1.2c-0.4,0-0.7,0.1-0.9,0.2
				s-0.4,0.3-0.5,0.6s-0.1,0.7-0.1,1.3v3.4h1.6l2-3.3c0.2-0.4,0.5-0.8,0.7-1.2s0.5-0.7,0.8-0.9c-0.2,0-0.5,0-0.7,0
				c-0.2,0-0.5,0-0.7,0V211h5.1v1.2c-0.4,0-0.8,0.1-1.2,0.2c-0.4,0.1-0.8,0.3-1.2,0.7s-0.8,0.9-1.3,1.5l-2.1,3.4
				c0.3,0.2,0.6,0.4,0.9,0.7c0.2,0.2,0.5,0.5,0.7,0.8l2.3,3.2c0.4,0.5,0.7,0.9,1.1,1.3s0.6,0.6,1,0.8s0.6,0.3,0.9,0.3v1.2h-3.1
				c-0.1,0-0.3-0.1-0.6-0.4c-0.3-0.2-0.5-0.5-0.8-0.9c-0.3-0.3-0.5-0.7-0.8-1l-2.3-3.2c-0.2-0.3-0.4-0.6-0.7-0.9
				c-0.2-0.3-0.5-0.5-0.7-0.7l-0.9,0v3.8c0,0.4,0,0.8,0,1.1c0,0.3,0,0.6-0.1,0.8c0.2,0,0.5,0,0.8,0c0.3,0,0.6,0,0.8,0v1.4H391.9z"/>
			<path class="st0" d="M415.4,220.8c0-0.6-0.1-1.1-0.3-1.3s-0.4-0.4-0.8-0.5c-0.3-0.1-0.7-0.1-1.2-0.1l-0.9,0v4c0,0.4,0,0.7,0,1.1
				c0,0.3,0,0.6-0.1,0.8l3.3,0c0.5,0,1-0.1,1.4-0.3s0.8-0.5,1-1c0.3-0.5,0.4-1.1,0.4-1.9h1.2l-0.1,4.6H408v-1.2
				c0.4,0,0.7-0.1,0.9-0.2c0.2-0.1,0.4-0.3,0.5-0.6s0.1-0.7,0.1-1.3v-8.6c0-0.4,0-0.7,0-1c0-0.3,0-0.6,0.1-0.8c-0.2,0-0.5,0-0.8,0
				c-0.3,0-0.6,0-0.8,0V211h10.7l0.1,4.1h-1.2c0-0.8-0.1-1.4-0.4-1.9c-0.3-0.4-0.6-0.7-1-0.8c-0.4-0.1-0.9-0.2-1.3-0.2l-1.1,0
				c-0.4,0-0.7,0.1-0.9,0.2c-0.2,0.1-0.4,0.3-0.5,0.6c-0.1,0.3-0.1,0.7-0.1,1.3v3.3l3,0l-0.1-1.9h1.4v5H415.4z"/>
			<path class="st0" d="M422.4,224.9c0.4,0,0.7-0.1,0.9-0.2c0.2-0.1,0.4-0.3,0.5-0.6c0.1-0.3,0.1-0.7,0.1-1.3v-8.6c0-0.4,0-0.7,0-1
				c0-0.3,0-0.6,0.1-0.8c-0.2,0-0.5,0-0.8,0c-0.3,0-0.6,0-0.8,0V211c0.9,0,1.9,0,2.8,0s1.9,0,2.9,0c1.3,0,2.4,0.1,3.4,0.5
				c1,0.3,1.7,0.9,2.2,1.5c0.5,0.7,0.8,1.6,0.8,2.7c0,0.6-0.1,1.2-0.4,1.7c-0.2,0.6-0.6,1.1-1.1,1.6c-0.5,0.5-1.2,0.9-2,1.2
				c-0.8,0.3-1.8,0.5-3,0.5c-0.2,0-0.5,0-0.7,0c-0.2,0-0.4,0-0.6,0v2.3c0,0.4,0,0.8,0,1.1c0,0.3,0,0.6-0.1,0.8c0.2,0,0.4,0,0.6,0
				c0.2,0,0.5,0,0.7,0s0.4,0,0.6,0v1.4h-6V224.9z M426.6,219.2c0.2,0,0.4,0,0.5,0c0.2,0,0.4,0,0.6,0c0.8,0,1.5-0.1,2-0.4
				c0.6-0.3,1-0.7,1.3-1.2c0.3-0.5,0.4-1.2,0.4-2c0-0.7-0.1-1.3-0.3-1.7s-0.5-0.8-0.8-1s-0.7-0.4-1.1-0.5c-0.4-0.1-0.8-0.1-1.2-0.1
				c-0.4,0-0.7,0.1-0.9,0.2c-0.2,0.1-0.4,0.3-0.4,0.6c-0.1,0.3-0.1,0.7-0.1,1.2V219.2z"/>
			<path class="st0" d="M448.1,215.8c0-0.8-0.1-1.5-0.3-2c-0.2-0.5-0.5-0.9-0.9-1.2c-0.4-0.3-0.9-0.4-1.5-0.4h-1.3v10.7
				c0,0.4,0,0.8,0,1.1c0,0.3,0,0.6-0.1,0.8c0.3,0,0.6,0,0.9,0c0.4,0,0.6,0,0.8,0v1.4h-5.9v-1.2c0.4,0,0.7-0.1,0.9-0.2
				c0.2-0.1,0.4-0.3,0.5-0.6c0.1-0.3,0.1-0.7,0.1-1.3l0-10.6H440c-0.9,0-1.5,0.3-2,0.9c-0.4,0.6-0.7,1.5-0.7,2.7h-1.2l0.1-4.8h13
				l0.1,4.8H448.1z"/>
			<path class="st0" d="M461.7,226.1v-1.2c0.4,0,0.7-0.1,0.9-0.2c0.2-0.1,0.4-0.3,0.5-0.6c0.1-0.3,0.1-0.7,0.1-1.3v-2.1l-3.9-6.2
				c-0.3-0.4-0.5-0.8-0.6-1.2c-0.2-0.4-0.3-0.7-0.3-1c-0.2,0-0.4,0-0.6,0c-0.2,0-0.4,0-0.5,0V211h6.1v1.2c-0.5,0-0.9,0.1-1.2,0.2
				s-0.4,0.4-0.4,0.6c0,0.3,0.1,0.6,0.4,1.1l1.7,2.7c0.1,0.1,0.2,0.3,0.3,0.6c0.1,0.2,0.3,0.5,0.4,0.8c0.2,0.3,0.3,0.5,0.4,0.7h0
				c0.1-0.2,0.2-0.5,0.4-0.8c0.2-0.3,0.4-0.7,0.6-1.2l1.4-2.6c0.1-0.2,0.2-0.4,0.3-0.6c0.1-0.2,0.3-0.5,0.4-0.7
				c0.1-0.2,0.3-0.4,0.4-0.6c-0.2,0-0.5,0-0.9,0c-0.3,0-0.6,0-0.8,0V211h4.7v1.2c-0.6,0.1-1.1,0.3-1.5,0.6c-0.4,0.4-0.8,1-1.3,1.8
				c-0.5,0.9-1,1.8-1.4,2.7c-0.5,0.9-0.9,1.8-1.4,2.6c0,0.2,0,0.5,0,0.8s0,0.6,0,0.8c0,0.3,0,0.6,0,0.8s0,0.4,0,0.6
				c0,0.4,0,0.8,0,1.1c0,0.3,0,0.6-0.1,0.8c0.3,0,0.6,0,0.9,0c0.4,0,0.6,0,0.8,0v1.4H461.7z"/>
			<path class="st0" d="M480.8,226.5c-1.4,0-2.5-0.2-3.5-0.7c-1-0.5-1.8-1.1-2.4-1.9c-0.6-0.8-1-1.6-1.3-2.6s-0.4-1.9-0.4-2.8
				c0-0.9,0.2-1.8,0.5-2.8c0.3-0.9,0.8-1.8,1.4-2.6c0.6-0.8,1.4-1.4,2.4-1.9s2.1-0.7,3.4-0.7c1.3,0,2.5,0.2,3.4,0.7s1.7,1.1,2.4,1.9
				c0.6,0.8,1.1,1.6,1.4,2.6s0.4,1.8,0.4,2.8c0,0.9-0.2,1.8-0.5,2.7c-0.3,0.9-0.8,1.8-1.4,2.6c-0.6,0.8-1.4,1.4-2.4,1.9
				C483.2,226.2,482,226.5,480.8,226.5z M480.9,225.1c0.8,0,1.5-0.2,2-0.6c0.6-0.4,1-0.9,1.4-1.5c0.3-0.6,0.6-1.3,0.8-2
				c0.2-0.7,0.2-1.4,0.2-2.2c0-1-0.1-1.9-0.3-2.7c-0.2-0.8-0.5-1.6-0.9-2.2c-0.4-0.6-0.9-1.1-1.5-1.5s-1.3-0.5-2.1-0.5
				c-0.8,0-1.5,0.2-2,0.6c-0.6,0.4-1,0.9-1.4,1.5c-0.4,0.6-0.6,1.3-0.8,2c-0.2,0.7-0.2,1.5-0.2,2.2c0,0.7,0.1,1.5,0.3,2.3
				c0.2,0.8,0.4,1.5,0.8,2.3c0.4,0.7,0.9,1.3,1.5,1.7C479.3,224.9,480.1,225.1,480.9,225.1z"/>
			<path class="st0" d="M496.4,212.2c-0.4,0-0.7,0.1-0.9,0.2c-0.2,0.1-0.4,0.3-0.5,0.6c-0.1,0.3-0.1,0.6-0.1,1.1v5.8
				c0,0.9,0.1,1.6,0.2,2.3c0.2,0.6,0.4,1.2,0.7,1.6c0.3,0.4,0.7,0.8,1.2,1c0.5,0.2,1,0.3,1.6,0.3c0.9,0,1.6-0.2,2.2-0.5
				c0.6-0.4,1.1-1,1.4-1.7c0.3-0.8,0.5-1.7,0.5-2.8l0-5.8c0-0.4,0-0.7,0-1c0-0.3,0-0.6,0.1-0.8c-0.2,0-0.5,0-0.8,0
				c-0.3,0-0.6,0-0.8,0V211h4.7v1.2c-0.4,0-0.7,0.1-0.9,0.2s-0.4,0.3-0.5,0.6c-0.1,0.3-0.1,0.7-0.1,1.3l0,5.3c0,1.1-0.1,2.1-0.4,3
				c-0.3,0.9-0.7,1.6-1.2,2.2c-0.5,0.6-1.1,1-1.9,1.3c-0.7,0.3-1.6,0.4-2.5,0.4c-1.2,0-2.2-0.2-3-0.5c-0.8-0.3-1.4-0.8-1.9-1.4
				c-0.5-0.6-0.8-1.4-1-2.2c-0.2-0.9-0.3-1.8-0.3-2.9v-5c0-0.4,0-0.8,0-1.2c0-0.4,0-0.7,0.1-0.9c-0.2,0-0.5,0-0.8,0
				c-0.3,0-0.6,0-0.8,0V211h5.8V212.2z"/>
			<path class="st0" d="M515.1,226.1v-1.2c0.4,0,0.7-0.1,0.9-0.2c0.2-0.1,0.4-0.3,0.5-0.6c0.1-0.3,0.1-0.7,0.1-1.3v-8.6
				c0-0.4,0-0.7,0-1c0-0.3,0-0.6,0.1-0.8c-0.2,0-0.5,0-0.8,0c-0.3,0-0.6,0-0.8,0V211h5.8v1.2c-0.4,0-0.7,0.1-0.9,0.2
				s-0.4,0.3-0.5,0.6s-0.1,0.7-0.1,1.3v3.4h6.5v-3.6c0-0.4,0-0.7,0-1c0-0.3,0-0.6,0.1-0.8c-0.2,0-0.5,0-0.8,0c-0.3,0-0.6,0-0.8,0
				V211h5.8v1.2c-0.4,0-0.7,0.1-0.9,0.2s-0.4,0.3-0.5,0.6s-0.1,0.7-0.1,1.3v8.6c0,0.4,0,0.8,0,1.1c0,0.3,0,0.6-0.1,0.8
				c0.2,0,0.5,0,0.9,0c0.3,0,0.6,0,0.7,0v1.4h-5.8v-1.2c0.4,0,0.7-0.1,0.9-0.2c0.2-0.1,0.4-0.3,0.5-0.6c0.1-0.3,0.1-0.7,0.1-1.3
				v-3.7l-6.5,0.1v3.7c0,0.4,0,0.8,0,1.1c0,0.3,0,0.6-0.1,0.8c0.2,0,0.5,0,0.8,0c0.3,0,0.6,0,0.8,0v1.4H515.1z"/>
			<path class="st0" d="M540.6,220.8c0-0.6-0.1-1.1-0.3-1.3s-0.4-0.4-0.8-0.5c-0.3-0.1-0.7-0.1-1.2-0.1l-0.9,0v4c0,0.4,0,0.7,0,1.1
				c0,0.3,0,0.6-0.1,0.8l3.3,0c0.5,0,1-0.1,1.4-0.3s0.8-0.5,1-1c0.3-0.5,0.4-1.1,0.4-1.9h1.2l-0.1,4.6h-11.4v-1.2
				c0.4,0,0.7-0.1,0.9-0.2c0.2-0.1,0.4-0.3,0.5-0.6s0.1-0.7,0.1-1.3v-8.6c0-0.4,0-0.7,0-1c0-0.3,0-0.6,0.1-0.8c-0.2,0-0.5,0-0.8,0
				c-0.3,0-0.6,0-0.8,0V211h10.7l0.1,4.1h-1.2c0-0.8-0.1-1.4-0.4-1.9c-0.3-0.4-0.6-0.7-1-0.8c-0.4-0.1-0.9-0.2-1.3-0.2l-1.1,0
				c-0.4,0-0.7,0.1-0.9,0.2c-0.2,0.1-0.4,0.3-0.5,0.6c-0.1,0.3-0.1,0.7-0.1,1.3v3.3l3,0l-0.1-1.9h1.4v5H540.6z"/>
			<path class="st0" d="M547.6,226.1v-1.2c0.4,0,0.7-0.1,0.9-0.2c0.2-0.1,0.4-0.3,0.5-0.6c0.1-0.3,0.1-0.7,0.1-1.3v-8.6
				c0-0.4,0-0.7,0-1c0-0.3,0-0.6,0.1-0.8c-0.2,0-0.5,0-0.8,0c-0.3,0-0.6,0-0.8,0V211c1,0,1.9,0,2.9,0c1,0,1.9,0,2.9,0
				c1.3,0,2.4,0.2,3.3,0.5c0.9,0.3,1.6,0.8,2.1,1.4c0.5,0.6,0.7,1.5,0.7,2.5c0,0.6-0.2,1.2-0.4,1.7c-0.3,0.6-0.7,1.1-1.2,1.5
				c-0.6,0.4-1.3,0.8-2.3,1c0.3,0.1,0.5,0.4,0.8,0.6c0.3,0.3,0.5,0.6,0.7,0.9l1.2,1.8c0.3,0.4,0.6,0.8,0.8,1.1
				c0.2,0.3,0.5,0.5,0.8,0.7c0.3,0.2,0.6,0.2,0.9,0.2v1.2h-3.3c-0.3-0.2-0.6-0.5-0.9-0.9c-0.3-0.4-0.5-0.8-0.8-1.3l-1.6-2.5
				c-0.2-0.3-0.4-0.6-0.5-0.9c-0.2-0.3-0.3-0.5-0.6-0.7c-0.2,0-0.4,0-0.6,0s-0.4,0-0.6,0v2.9c0,0.4,0,0.8,0,1.1c0,0.3,0,0.6-0.1,0.8
				c0.2,0,0.4,0,0.6,0s0.4,0,0.7,0s0.4,0,0.5,0v1.4H547.6z M553,218.6c0.8,0,1.5-0.1,2-0.4c0.5-0.2,0.9-0.6,1.2-1.1s0.4-1.1,0.4-1.9
				c0-0.6-0.1-1.2-0.3-1.6c-0.2-0.4-0.5-0.7-0.8-0.9c-0.3-0.2-0.7-0.4-1.1-0.4c-0.4-0.1-0.8-0.1-1.1-0.1c-0.4,0-0.7,0.1-0.9,0.2
				c-0.2,0.1-0.4,0.3-0.4,0.6c-0.1,0.3-0.1,0.7-0.1,1.2v4.4c0.2,0,0.4,0,0.5,0C552.6,218.6,552.8,218.6,553,218.6z"/>
			<path class="st0" d="M570.4,220.8c0-0.6-0.1-1.1-0.3-1.3s-0.4-0.4-0.8-0.5c-0.3-0.1-0.7-0.1-1.2-0.1l-0.9,0v4c0,0.4,0,0.7,0,1.1
				c0,0.3,0,0.6-0.1,0.8l3.3,0c0.5,0,1-0.1,1.4-0.3s0.8-0.5,1-1c0.3-0.5,0.4-1.1,0.4-1.9h1.2l-0.1,4.6H563v-1.2
				c0.4,0,0.7-0.1,0.9-0.2c0.2-0.1,0.4-0.3,0.5-0.6c0.1-0.3,0.1-0.7,0.1-1.3v-8.6c0-0.4,0-0.7,0-1c0-0.3,0-0.6,0.1-0.8
				c-0.2,0-0.5,0-0.8,0c-0.3,0-0.6,0-0.8,0V211h10.7l0.1,4.1h-1.2c0-0.8-0.1-1.4-0.4-1.9s-0.6-0.7-1-0.8s-0.9-0.2-1.3-0.2l-1.1,0
				c-0.4,0-0.7,0.1-0.9,0.2c-0.2,0.1-0.4,0.3-0.5,0.6s-0.1,0.7-0.1,1.3v3.3l3,0l-0.1-1.9h1.4v5H570.4z"/>
			<path class="st0" d="M578.8,230.1l-0.8-0.5c0.2-0.2,0.3-0.5,0.5-0.9c0.2-0.4,0.3-0.8,0.5-1.2s0.2-0.9,0.2-1.3
				c-0.1,0-0.2,0.1-0.3,0.1c-0.1,0-0.1,0-0.2,0c-0.4,0-0.7-0.1-0.9-0.3c-0.3-0.2-0.4-0.6-0.4-1c0-0.4,0.1-0.8,0.4-1.1
				c0.3-0.3,0.6-0.4,1.1-0.4c0.6,0,1.1,0.2,1.4,0.6c0.3,0.4,0.5,0.9,0.5,1.5c0,0.4-0.1,0.9-0.2,1.4s-0.4,1-0.6,1.6
				C579.5,229.1,579.2,229.6,578.8,230.1z"/>
			<path class="st0" d="M54.7,270.2V269c0.4,0,0.7-0.1,0.9-0.2c0.2-0.1,0.4-0.3,0.5-0.6c0.1-0.3,0.1-0.7,0.1-1.3v-2.1l-3.9-6.2
				c-0.3-0.4-0.5-0.8-0.6-1.2c-0.2-0.4-0.3-0.7-0.3-1c-0.2,0-0.4,0-0.6,0s-0.4,0-0.5,0V255h6.1v1.2c-0.5,0-0.9,0.1-1.2,0.2
				c-0.3,0.1-0.4,0.4-0.4,0.6c0,0.3,0.1,0.6,0.4,1.1l1.7,2.7c0.1,0.1,0.2,0.3,0.3,0.6c0.1,0.2,0.3,0.5,0.4,0.8
				c0.2,0.3,0.3,0.5,0.4,0.7h0c0.1-0.2,0.2-0.5,0.4-0.8c0.2-0.3,0.4-0.7,0.6-1.2l1.4-2.6c0.1-0.2,0.2-0.4,0.3-0.6
				c0.1-0.2,0.3-0.5,0.4-0.7c0.1-0.2,0.3-0.4,0.4-0.6c-0.2,0-0.5,0-0.9,0c-0.3,0-0.6,0-0.8,0V255h4.7v1.2c-0.6,0.1-1.1,0.3-1.5,0.6
				c-0.4,0.4-0.8,1-1.3,1.8c-0.5,0.9-1,1.8-1.4,2.7c-0.5,0.9-0.9,1.8-1.4,2.6c0,0.2,0,0.5,0,0.8s0,0.6,0,0.8c0,0.3,0,0.6,0,0.8
				s0,0.4,0,0.6c0,0.4,0,0.8,0,1.1c0,0.3,0,0.6-0.1,0.8c0.3,0,0.6,0,0.9,0c0.4,0,0.6,0,0.8,0v1.4H54.7z"/>
			<path class="st0" d="M73.8,270.5c-1.4,0-2.5-0.2-3.5-0.7c-1-0.5-1.8-1.1-2.4-1.9c-0.6-0.8-1-1.6-1.3-2.6
				c-0.3-0.9-0.4-1.9-0.4-2.8c0-0.9,0.2-1.8,0.5-2.8c0.3-0.9,0.8-1.8,1.4-2.6c0.6-0.8,1.4-1.4,2.4-1.9c1-0.5,2.1-0.7,3.4-0.7
				c1.3,0,2.5,0.2,3.4,0.7c1,0.5,1.7,1.1,2.4,1.9c0.6,0.8,1.1,1.6,1.4,2.6s0.4,1.8,0.4,2.8c0,0.9-0.2,1.8-0.5,2.7
				c-0.3,0.9-0.8,1.8-1.4,2.6s-1.4,1.4-2.4,1.9C76.2,270.3,75.1,270.5,73.8,270.5z M74,269.2c0.8,0,1.5-0.2,2-0.6
				c0.6-0.4,1-0.9,1.4-1.5c0.3-0.6,0.6-1.3,0.8-2c0.2-0.7,0.2-1.4,0.2-2.2c0-1-0.1-1.9-0.3-2.7c-0.2-0.8-0.5-1.6-0.9-2.2
				c-0.4-0.6-0.9-1.1-1.5-1.5c-0.6-0.4-1.3-0.5-2.1-0.5c-0.8,0-1.5,0.2-2,0.6c-0.6,0.4-1,0.9-1.4,1.5c-0.4,0.6-0.6,1.3-0.8,2
				c-0.2,0.7-0.2,1.5-0.2,2.2c0,0.7,0.1,1.5,0.3,2.3c0.2,0.8,0.4,1.5,0.8,2.3c0.4,0.7,0.9,1.3,1.5,1.7C72.3,269,73.1,269.2,74,269.2
				z"/>
			<path class="st0" d="M89.4,256.2c-0.4,0-0.7,0.1-0.9,0.2s-0.4,0.3-0.5,0.6c-0.1,0.3-0.1,0.6-0.1,1.1v5.8c0,0.9,0.1,1.6,0.2,2.3
				c0.2,0.6,0.4,1.2,0.7,1.6c0.3,0.4,0.7,0.8,1.2,1c0.5,0.2,1,0.3,1.6,0.3c0.9,0,1.6-0.2,2.2-0.5c0.6-0.4,1.1-1,1.4-1.7
				c0.3-0.8,0.5-1.7,0.5-2.8l0-5.8c0-0.4,0-0.7,0-1c0-0.3,0-0.6,0.1-0.8c-0.2,0-0.5,0-0.8,0s-0.6,0-0.8,0V255h4.7v1.2
				c-0.4,0-0.7,0.1-0.9,0.2c-0.2,0.1-0.4,0.3-0.5,0.6c-0.1,0.3-0.1,0.7-0.1,1.3l0,5.3c0,1.1-0.1,2.1-0.4,3c-0.3,0.9-0.7,1.6-1.2,2.2
				c-0.5,0.6-1.1,1-1.9,1.3c-0.7,0.3-1.6,0.4-2.5,0.4c-1.2,0-2.2-0.2-3-0.5c-0.8-0.3-1.4-0.8-1.9-1.4c-0.5-0.6-0.8-1.4-1-2.2
				c-0.2-0.9-0.3-1.8-0.3-2.9v-5c0-0.4,0-0.8,0-1.2c0-0.4,0-0.7,0.1-0.9c-0.2,0-0.5,0-0.8,0c-0.3,0-0.6,0-0.8,0V255h5.8V256.2z"/>
			<path class="st0" d="M113,270.3l-3.9-11.6c-0.2-0.5-0.3-1-0.4-1.4s-0.2-0.7-0.2-1c-0.2,0-0.5,0-0.7,0s-0.4,0-0.6,0V255h6v1.2
				c-0.6,0-1.1,0.1-1.3,0.4c-0.2,0.3-0.2,0.8,0,1.5c0.2,0.9,0.4,1.7,0.7,2.5s0.5,1.6,0.7,2.5c0.2,0.5,0.3,1.1,0.4,1.5
				c0.1,0.5,0.3,1.1,0.4,1.7h0c0.1-0.2,0.1-0.5,0.2-0.9c0.1-0.4,0.2-0.8,0.3-1.2c0.1-0.4,0.2-0.8,0.3-1.1c0.1-0.3,0.2-0.6,0.2-0.7
				c0.3-0.9,0.6-1.8,0.9-2.7s0.5-1.7,0.8-2.5c0.3-0.8,0.5-1.5,0.7-2.2h1.5c0.2,0.6,0.4,1.3,0.6,1.9s0.4,1.4,0.7,2.1
				c0.2,0.7,0.5,1.4,0.7,2.1c0.2,0.7,0.4,1.3,0.6,1.9c0.2,0.5,0.3,1.1,0.5,1.7c0.2,0.6,0.3,1.1,0.4,1.7h0c0.1-0.4,0.3-0.9,0.4-1.4
				s0.3-1,0.4-1.5c0.2-0.6,0.4-1.2,0.5-1.6c0.1-0.5,0.3-0.9,0.4-1.4s0.2-0.8,0.3-1.2c0.1-0.4,0.2-0.7,0.3-1.1c0.1-0.3,0.2-0.6,0.3-1
				s0.3-0.6,0.5-0.9c-0.2,0-0.5,0-0.9,0c-0.3,0-0.6,0-0.8,0V255h4.7v1.2c-0.4,0-0.7,0.1-1,0.3c-0.3,0.2-0.5,0.4-0.8,0.8
				c-0.2,0.4-0.5,0.9-0.7,1.6c-0.6,1.9-1.2,3.9-1.8,5.8c-0.6,1.9-1.2,3.8-1.8,5.7h-1.5l-2.8-8.3c-0.2-0.5-0.3-1-0.4-1.5
				s-0.2-0.9-0.4-1.4c-0.1,0.4-0.2,0.9-0.3,1.3s-0.2,0.9-0.4,1.3l-2.7,8.6H113z"/>
			<path class="st0" d="M138.1,270.5c-1.4,0-2.5-0.2-3.5-0.7c-1-0.5-1.8-1.1-2.4-1.9c-0.6-0.8-1-1.6-1.3-2.6
				c-0.3-0.9-0.4-1.9-0.4-2.8c0-0.9,0.2-1.8,0.5-2.8c0.3-0.9,0.8-1.8,1.4-2.6c0.6-0.8,1.4-1.4,2.4-1.9c1-0.5,2.1-0.7,3.4-0.7
				c1.3,0,2.5,0.2,3.4,0.7c1,0.5,1.7,1.1,2.4,1.9c0.6,0.8,1.1,1.6,1.4,2.6s0.4,1.8,0.4,2.8c0,0.9-0.2,1.8-0.5,2.7
				c-0.3,0.9-0.8,1.8-1.4,2.6s-1.4,1.4-2.4,1.9C140.5,270.3,139.4,270.5,138.1,270.5z M138.3,269.2c0.8,0,1.5-0.2,2-0.6
				c0.6-0.4,1-0.9,1.4-1.5c0.3-0.6,0.6-1.3,0.8-2c0.2-0.7,0.2-1.4,0.2-2.2c0-1-0.1-1.9-0.3-2.7c-0.2-0.8-0.5-1.6-0.9-2.2
				c-0.4-0.6-0.9-1.1-1.5-1.5c-0.6-0.4-1.3-0.5-2.1-0.5c-0.8,0-1.5,0.2-2,0.6c-0.6,0.4-1,0.9-1.4,1.5c-0.4,0.6-0.6,1.3-0.8,2
				c-0.2,0.7-0.2,1.5-0.2,2.2c0,0.7,0.1,1.5,0.3,2.3c0.2,0.8,0.4,1.5,0.8,2.3c0.4,0.7,0.9,1.3,1.5,1.7
				C136.7,269,137.4,269.2,138.3,269.2z"/>
			<path class="st0" d="M153.8,256.2c-0.4,0-0.7,0.1-0.9,0.2s-0.4,0.3-0.5,0.6c-0.1,0.3-0.1,0.6-0.1,1.1v5.8c0,0.9,0.1,1.6,0.2,2.3
				c0.2,0.6,0.4,1.2,0.7,1.6c0.3,0.4,0.7,0.8,1.2,1c0.5,0.2,1,0.3,1.6,0.3c0.9,0,1.6-0.2,2.2-0.5c0.6-0.4,1.1-1,1.4-1.7
				c0.3-0.8,0.5-1.7,0.5-2.8l0-5.8c0-0.4,0-0.7,0-1c0-0.3,0-0.6,0.1-0.8c-0.2,0-0.5,0-0.8,0s-0.6,0-0.8,0V255h4.7v1.2
				c-0.4,0-0.7,0.1-0.9,0.2c-0.2,0.1-0.4,0.3-0.5,0.6c-0.1,0.3-0.1,0.7-0.1,1.3l0,5.3c0,1.1-0.1,2.1-0.4,3c-0.3,0.9-0.7,1.6-1.2,2.2
				c-0.5,0.6-1.1,1-1.9,1.3c-0.7,0.3-1.6,0.4-2.5,0.4c-1.2,0-2.2-0.2-3-0.5c-0.8-0.3-1.4-0.8-1.9-1.4c-0.5-0.6-0.8-1.4-1-2.2
				c-0.2-0.9-0.3-1.8-0.3-2.9v-5c0-0.4,0-0.8,0-1.2c0-0.4,0-0.7,0.1-0.9c-0.2,0-0.5,0-0.8,0c-0.3,0-0.6,0-0.8,0V255h5.8V256.2z"/>
			<path class="st0" d="M165.8,270.2V269c0.4,0,0.7-0.1,0.9-0.2c0.2-0.1,0.4-0.3,0.5-0.6c0.1-0.3,0.1-0.7,0.1-1.3v-8.6
				c0-0.4,0-0.7,0-1c0-0.3,0-0.6,0.1-0.8c-0.2,0-0.5,0-0.8,0s-0.6,0-0.8,0V255h5.8v1.2c-0.4,0-0.7,0.1-0.9,0.2
				c-0.2,0.1-0.4,0.3-0.5,0.6c-0.1,0.3-0.1,0.7-0.1,1.3v8.6c0,0.4,0,0.7,0,1.1c0,0.3,0,0.6-0.1,0.8l3.3,0c0.9,0,1.5-0.3,2-0.9
				c0.5-0.6,0.7-1.5,0.7-2.7h1.2l-0.1,5H165.8z"/>
			<path class="st0" d="M179.6,269c0.4,0,0.7-0.1,0.9-0.2c0.2-0.1,0.4-0.3,0.5-0.6c0.1-0.3,0.1-0.7,0.1-1.3v-8.6c0-0.4,0-0.7,0-1
				c0-0.3,0-0.6,0.1-0.8c-0.2,0-0.5,0-0.8,0s-0.6,0-0.8,0V255l5.9,0c1.4,0,2.6,0.2,3.7,0.6c1.1,0.4,1.9,0.9,2.7,1.6
				c0.7,0.7,1.2,1.5,1.6,2.4c0.4,0.9,0.6,1.9,0.6,2.9c0,0.9-0.2,1.8-0.5,2.7s-0.8,1.7-1.5,2.5c-0.7,0.7-1.5,1.3-2.6,1.8
				c-1.1,0.4-2.3,0.7-3.8,0.7h-6V269z M183.9,266.9c0,0.4,0,0.8,0,1.1c0,0.3,0,0.6-0.1,0.8c0.2,0,0.5,0,0.8,0s0.5,0,0.8,0
				c0.3,0,0.5,0,0.6,0c0.8,0,1.6-0.2,2.2-0.5c0.6-0.3,1.2-0.8,1.6-1.3c0.4-0.6,0.7-1.2,1-1.9c0.2-0.7,0.3-1.5,0.3-2.3
				c0-1.4-0.2-2.6-0.7-3.6s-1.1-1.7-1.9-2.2c-0.8-0.5-1.8-0.8-3.1-0.8c-0.4,0-0.7,0-1,0.2c-0.2,0.1-0.4,0.3-0.5,0.6
				c-0.1,0.3-0.1,0.7-0.1,1.3V266.9z"/>
			<path class="st0" d="M203.4,270.2V269c0.4,0,0.7-0.1,0.9-0.2c0.2-0.1,0.4-0.3,0.5-0.6c0.1-0.3,0.1-0.7,0.1-1.3v-8.6
				c0-0.4,0-0.7,0-1c0-0.3,0-0.6,0.1-0.8c-0.2,0-0.5,0-0.8,0s-0.6,0-0.8,0V255h5.8v1.2c-0.4,0-0.7,0.1-0.9,0.2
				c-0.2,0.1-0.4,0.3-0.5,0.6c-0.1,0.3-0.1,0.7-0.1,1.3v3.4h6.5v-3.6c0-0.4,0-0.7,0-1c0-0.3,0-0.6,0.1-0.8c-0.2,0-0.5,0-0.8,0
				s-0.6,0-0.8,0V255h5.8v1.2c-0.4,0-0.7,0.1-0.9,0.2c-0.2,0.1-0.4,0.3-0.5,0.6c-0.1,0.3-0.1,0.7-0.1,1.3v8.6c0,0.4,0,0.8,0,1.1
				c0,0.3,0,0.6-0.1,0.8c0.2,0,0.5,0,0.9,0c0.3,0,0.6,0,0.7,0v1.4h-5.8V269c0.4,0,0.7-0.1,0.9-0.2c0.2-0.1,0.4-0.3,0.5-0.6
				c0.1-0.3,0.1-0.7,0.1-1.3v-3.7l-6.5,0.1v3.7c0,0.4,0,0.8,0,1.1c0,0.3,0,0.6-0.1,0.8c0.2,0,0.5,0,0.8,0c0.3,0,0.6,0,0.8,0v1.4
				H203.4z"/>
			<path class="st0" d="M220.5,270.2v-1.2c0.4,0,0.7-0.1,1-0.3s0.4-0.5,0.6-0.9c0.2-0.4,0.3-0.8,0.5-1.3l4.3-11.8h1.2l4.7,12
				c0.1,0.2,0.2,0.6,0.3,1c0.1,0.4,0.2,0.8,0.2,1.2c0.2,0,0.5,0,0.7,0c0.2,0,0.4,0,0.6,0v1.4h-5.5V269c0.4,0,0.8-0.1,0.9-0.3
				c0.2-0.2,0.2-0.4,0.2-0.7c0-0.3-0.1-0.6-0.2-0.9l-0.5-1.5l-5,0.1l-0.5,1.5c-0.1,0.2-0.2,0.5-0.3,0.8c-0.1,0.3-0.2,0.6-0.3,0.8
				c0.3,0,0.5,0,0.9,0c0.3,0,0.6,0,0.7,0v1.5H220.5z M224.9,264.3h4.1l-1.2-3.2c-0.2-0.5-0.3-1-0.5-1.5c-0.2-0.5-0.3-1-0.4-1.4h0
				c-0.1,0.3-0.2,0.7-0.3,1.1c-0.1,0.5-0.3,1-0.5,1.6L224.9,264.3z"/>
			<path class="st0" d="M242.5,270.3l-5-11.6c-0.2-0.5-0.4-0.9-0.5-1.4c-0.1-0.4-0.2-0.7-0.2-1c-0.2,0-0.4,0-0.6,0s-0.4,0-0.6,0V255
				h5.9v1.2c-0.6,0-1,0.2-1.3,0.5c-0.2,0.3-0.2,0.8,0,1.4c0.3,0.8,0.7,1.6,1,2.4c0.3,0.8,0.7,1.6,1,2.5c0.3,0.7,0.5,1.3,0.8,1.8
				c0.2,0.5,0.4,1.1,0.6,1.6h0c0.2-0.5,0.3-0.9,0.5-1.5s0.4-1,0.5-1.6c0.3-0.7,0.5-1.4,0.7-2s0.4-1.2,0.6-1.7c0.2-0.5,0.4-1,0.5-1.5
				c0.1-0.3,0.2-0.6,0.3-1s0.3-0.7,0.5-0.9c-0.2,0-0.5,0-0.9,0c-0.3,0-0.6,0-0.8,0V255h4.7v1.2c-0.5,0-1,0.2-1.4,0.5
				c-0.4,0.3-0.7,0.9-1,1.7c-0.2,0.4-0.3,0.9-0.5,1.4s-0.4,1-0.5,1.5c-0.2,0.5-0.4,1.1-0.6,1.7c-0.2,0.6-0.5,1.3-0.7,2
				c-0.3,0.7-0.6,1.5-0.9,2.4c-0.3,0.9-0.7,1.9-1.1,2.9H242.5z"/>
			<path class="st0" d="M259.9,264.8c0-0.6-0.1-1.1-0.3-1.3s-0.4-0.4-0.8-0.5c-0.3-0.1-0.7-0.1-1.2-0.1l-0.9,0v4c0,0.4,0,0.7,0,1.1
				c0,0.3,0,0.6-0.1,0.8l3.3,0c0.5,0,1-0.1,1.4-0.3s0.8-0.5,1-1c0.3-0.5,0.4-1.1,0.4-1.9h1.2l-0.1,4.6h-11.4V269
				c0.4,0,0.7-0.1,0.9-0.2c0.2-0.1,0.4-0.3,0.5-0.6c0.1-0.3,0.1-0.7,0.1-1.3v-8.6c0-0.4,0-0.7,0-1c0-0.3,0-0.6,0.1-0.8
				c-0.2,0-0.5,0-0.8,0s-0.6,0-0.8,0V255h10.7l0.1,4.1h-1.2c0-0.8-0.1-1.4-0.4-1.9s-0.6-0.7-1-0.8c-0.4-0.1-0.9-0.2-1.3-0.2l-1.1,0
				c-0.4,0-0.7,0.1-0.9,0.2c-0.2,0.1-0.4,0.3-0.5,0.6c-0.1,0.3-0.1,0.7-0.1,1.3v3.3l3,0l-0.1-1.9h1.4v5H259.9z"/>
			<path class="st0" d="M273.5,270.2V269c0.4,0,0.7-0.1,0.9-0.2c0.2-0.1,0.4-0.3,0.5-0.6c0.1-0.3,0.1-0.7,0.1-1.3v-8.6
				c0-0.4,0-0.7,0-1c0-0.3,0-0.6,0.1-0.8c-0.2,0-0.5,0-0.8,0s-0.6,0-0.8,0V255h5.8v1.2c-0.4,0-0.7,0.1-0.9,0.2
				c-0.2,0.1-0.4,0.3-0.5,0.6c-0.1,0.3-0.1,0.7-0.1,1.3v8.6c0,0.4,0,0.7,0,1.1c0,0.3,0,0.6-0.1,0.8l3.3,0c0.9,0,1.5-0.3,2-0.9
				c0.5-0.6,0.7-1.5,0.7-2.7h1.2l-0.1,5H273.5z"/>
			<path class="st0" d="M293,256.2c-0.4,0-0.7,0.1-0.9,0.2c-0.2,0.1-0.4,0.3-0.5,0.6c-0.1,0.3-0.1,0.7-0.1,1.3v8.6
				c0,0.4,0,0.8,0,1.1c0,0.3,0,0.6-0.1,0.8c0.2,0,0.5,0,0.8,0c0.3,0,0.6,0,0.8,0v1.4h-5.8V269c0.4,0,0.7-0.1,0.9-0.2
				c0.2-0.1,0.4-0.3,0.5-0.6c0.1-0.3,0.1-0.7,0.1-1.3v-8.6c0-0.4,0-0.7,0-1c0-0.3,0-0.6,0.1-0.8c-0.2,0-0.5,0-0.8,0s-0.6,0-0.8,0
				V255h5.8V256.2z"/>
			<path class="st0" d="M302,270.3l-5-11.6c-0.2-0.5-0.4-0.9-0.5-1.4c-0.1-0.4-0.2-0.7-0.2-1c-0.2,0-0.4,0-0.6,0s-0.4,0-0.6,0V255
				h5.9v1.2c-0.6,0-1,0.2-1.3,0.5c-0.2,0.3-0.2,0.8,0,1.4c0.3,0.8,0.7,1.6,1,2.4c0.3,0.8,0.7,1.6,1,2.5c0.3,0.7,0.5,1.3,0.8,1.8
				c0.2,0.5,0.4,1.1,0.6,1.6h0c0.2-0.5,0.3-0.9,0.5-1.5s0.4-1,0.5-1.6c0.3-0.7,0.5-1.4,0.7-2s0.4-1.2,0.6-1.7c0.2-0.5,0.4-1,0.5-1.5
				c0.1-0.3,0.2-0.6,0.3-1s0.3-0.7,0.5-0.9c-0.2,0-0.5,0-0.9,0c-0.3,0-0.6,0-0.8,0V255h4.7v1.2c-0.5,0-1,0.2-1.4,0.5
				c-0.4,0.3-0.7,0.9-1,1.7c-0.2,0.4-0.3,0.9-0.5,1.4c-0.2,0.5-0.4,1-0.5,1.5s-0.4,1.1-0.6,1.7c-0.2,0.6-0.5,1.3-0.7,2
				c-0.3,0.7-0.6,1.5-0.9,2.4c-0.3,0.9-0.7,1.9-1.1,2.9H302z"/>
			<path class="st0" d="M319.4,264.8c0-0.6-0.1-1.1-0.3-1.3s-0.4-0.4-0.8-0.5c-0.3-0.1-0.7-0.1-1.2-0.1l-0.9,0v4c0,0.4,0,0.7,0,1.1
				c0,0.3,0,0.6-0.1,0.8l3.3,0c0.5,0,1-0.1,1.4-0.3s0.8-0.5,1-1c0.3-0.5,0.4-1.1,0.4-1.9h1.2l-0.1,4.6H312V269
				c0.4,0,0.7-0.1,0.9-0.2c0.2-0.1,0.4-0.3,0.5-0.6s0.1-0.7,0.1-1.3v-8.6c0-0.4,0-0.7,0-1c0-0.3,0-0.6,0.1-0.8c-0.2,0-0.5,0-0.8,0
				c-0.3,0-0.6,0-0.8,0V255h10.7l0.1,4.1h-1.2c0-0.8-0.1-1.4-0.4-1.9c-0.3-0.4-0.6-0.7-1-0.8c-0.4-0.1-0.9-0.2-1.3-0.2l-1.1,0
				c-0.4,0-0.7,0.1-0.9,0.2c-0.2,0.1-0.4,0.3-0.5,0.6c-0.1,0.3-0.1,0.7-0.1,1.3v3.3l3,0l-0.1-1.9h1.4v5H319.4z"/>
			<path class="st0" d="M326.4,269c0.4,0,0.7-0.1,0.9-0.2c0.2-0.1,0.4-0.3,0.5-0.6c0.1-0.3,0.1-0.7,0.1-1.3v-8.6c0-0.4,0-0.7,0-1
				c0-0.3,0-0.6,0.1-0.8c-0.2,0-0.5,0-0.8,0c-0.3,0-0.6,0-0.8,0V255l5.9,0c1.4,0,2.6,0.2,3.7,0.6c1.1,0.4,1.9,0.9,2.7,1.6
				c0.7,0.7,1.2,1.5,1.6,2.4c0.4,0.9,0.6,1.9,0.6,2.9c0,0.9-0.2,1.8-0.5,2.7s-0.8,1.7-1.5,2.5c-0.7,0.7-1.5,1.3-2.6,1.8
				c-1.1,0.4-2.3,0.7-3.8,0.7h-6V269z M330.6,266.9c0,0.4,0,0.8,0,1.1c0,0.3,0,0.6-0.1,0.8c0.2,0,0.5,0,0.8,0s0.5,0,0.8,0
				c0.3,0,0.5,0,0.6,0c0.8,0,1.6-0.2,2.2-0.5c0.6-0.3,1.2-0.8,1.6-1.3c0.4-0.6,0.7-1.2,1-1.9c0.2-0.7,0.3-1.5,0.3-2.3
				c0-1.4-0.2-2.6-0.7-3.6s-1.1-1.7-1.9-2.2c-0.8-0.5-1.8-0.8-3.1-0.8c-0.4,0-0.7,0-1,0.2c-0.2,0.1-0.4,0.3-0.5,0.6
				s-0.1,0.7-0.1,1.3V266.9z"/>
			<path class="st0" d="M350.2,270.2V269c0.4,0,0.7-0.1,0.9-0.2c0.2-0.1,0.4-0.3,0.5-0.6s0.1-0.7,0.1-1.3v-8.6c0-0.4,0-0.7,0-1
				c0-0.3,0-0.6,0.1-0.8c-0.2,0-0.5,0-0.8,0c-0.3,0-0.6,0-0.8,0V255h10.6l0.1,4.1h-1.2c0-0.8-0.1-1.4-0.4-1.9s-0.6-0.7-1-0.8
				s-0.8-0.2-1.3-0.2l-1.1,0c-0.4,0-0.7,0.1-0.9,0.2c-0.2,0.1-0.4,0.4-0.4,0.7c-0.1,0.3-0.1,0.7-0.1,1.3v3.8h2.7l-0.1-1.9h1.4v5
				h-1.2c0-0.6-0.1-1.1-0.3-1.3s-0.5-0.4-0.8-0.5c-0.3-0.1-0.7-0.1-1.2-0.1l-0.6,0v3.5c0,0.4,0,0.8,0,1.1c0,0.3,0,0.6-0.1,0.8
				c0.2,0,0.4,0,0.7,0c0.3,0,0.5,0,0.8,0s0.5,0,0.6,0v1.4H350.2z"/>
			<path class="st0" d="M370.6,270.5c-1.4,0-2.5-0.2-3.5-0.7c-1-0.5-1.8-1.1-2.4-1.9c-0.6-0.8-1-1.6-1.3-2.6s-0.4-1.9-0.4-2.8
				c0-0.9,0.2-1.8,0.5-2.8c0.3-0.9,0.8-1.8,1.4-2.6c0.6-0.8,1.4-1.4,2.4-1.9s2.1-0.7,3.4-0.7c1.3,0,2.5,0.2,3.4,0.7s1.7,1.1,2.4,1.9
				c0.6,0.8,1.1,1.6,1.4,2.6s0.4,1.8,0.4,2.8c0,0.9-0.2,1.8-0.5,2.7c-0.3,0.9-0.8,1.8-1.4,2.6c-0.6,0.8-1.4,1.4-2.4,1.9
				C373,270.3,371.9,270.5,370.6,270.5z M370.8,269.2c0.8,0,1.5-0.2,2-0.6c0.6-0.4,1-0.9,1.4-1.5c0.3-0.6,0.6-1.3,0.8-2
				c0.2-0.7,0.2-1.4,0.2-2.2c0-1-0.1-1.9-0.3-2.7c-0.2-0.8-0.5-1.6-0.9-2.2c-0.4-0.6-0.9-1.1-1.5-1.5s-1.3-0.5-2.1-0.5
				c-0.8,0-1.5,0.2-2,0.6c-0.6,0.4-1,0.9-1.4,1.5c-0.4,0.6-0.6,1.3-0.8,2c-0.2,0.7-0.2,1.5-0.2,2.2c0,0.7,0.1,1.5,0.3,2.3
				c0.2,0.8,0.4,1.5,0.8,2.3c0.4,0.7,0.9,1.3,1.5,1.7C369.2,269,369.9,269.2,370.8,269.2z"/>
			<path class="st0" d="M381,270.2V269c0.4,0,0.7-0.1,0.9-0.2c0.2-0.1,0.4-0.3,0.5-0.6c0.1-0.3,0.1-0.7,0.1-1.3v-8.6
				c0-0.4,0-0.7,0-1c0-0.3,0-0.6,0.1-0.8c-0.2,0-0.5,0-0.8,0c-0.3,0-0.6,0-0.8,0V255c1,0,1.9,0,2.9,0c1,0,1.9,0,2.9,0
				c1.3,0,2.4,0.2,3.3,0.5c0.9,0.3,1.6,0.8,2.1,1.4c0.5,0.6,0.7,1.5,0.7,2.5c0,0.6-0.2,1.2-0.4,1.7c-0.3,0.6-0.7,1.1-1.2,1.5
				c-0.6,0.4-1.3,0.8-2.3,1c0.3,0.1,0.5,0.4,0.8,0.6c0.3,0.3,0.5,0.6,0.7,0.9l1.2,1.8c0.3,0.4,0.6,0.8,0.8,1.1
				c0.2,0.3,0.5,0.5,0.8,0.7c0.3,0.2,0.6,0.2,0.9,0.2v1.2h-3.3c-0.3-0.2-0.6-0.5-0.9-0.9c-0.3-0.4-0.5-0.8-0.8-1.3l-1.6-2.5
				c-0.2-0.3-0.4-0.6-0.5-0.9c-0.2-0.3-0.3-0.5-0.6-0.7c-0.2,0-0.4,0-0.6,0s-0.4,0-0.6,0v2.9c0,0.4,0,0.8,0,1.1c0,0.3,0,0.6-0.1,0.8
				c0.2,0,0.4,0,0.6,0s0.4,0,0.7,0s0.4,0,0.5,0v1.4H381z M386.4,262.7c0.8,0,1.5-0.1,2-0.4c0.5-0.2,0.9-0.6,1.2-1.1s0.4-1.1,0.4-1.9
				c0-0.6-0.1-1.2-0.3-1.6c-0.2-0.4-0.5-0.7-0.8-0.9c-0.3-0.2-0.7-0.4-1.1-0.4c-0.4-0.1-0.8-0.1-1.1-0.1c-0.4,0-0.7,0.1-0.9,0.2
				c-0.2,0.1-0.4,0.3-0.4,0.6c-0.1,0.3-0.1,0.7-0.1,1.2v4.4c0.2,0,0.4,0,0.5,0C386,262.7,386.2,262.7,386.4,262.7z"/>
			<path class="st0" d="M403.8,264.8c0-0.6-0.1-1.1-0.3-1.3s-0.4-0.4-0.8-0.5c-0.3-0.1-0.7-0.1-1.2-0.1l-0.9,0v4c0,0.4,0,0.7,0,1.1
				c0,0.3,0,0.6-0.1,0.8l3.3,0c0.5,0,1-0.1,1.4-0.3s0.8-0.5,1-1c0.3-0.5,0.4-1.1,0.4-1.9h1.2l-0.1,4.6h-11.4V269
				c0.4,0,0.7-0.1,0.9-0.2c0.2-0.1,0.4-0.3,0.5-0.6c0.1-0.3,0.1-0.7,0.1-1.3v-8.6c0-0.4,0-0.7,0-1c0-0.3,0-0.6,0.1-0.8
				c-0.2,0-0.5,0-0.8,0c-0.3,0-0.6,0-0.8,0V255H407l0.1,4.1H406c0-0.8-0.1-1.4-0.4-1.9c-0.3-0.4-0.6-0.7-1-0.8s-0.9-0.2-1.3-0.2
				l-1.1,0c-0.4,0-0.7,0.1-0.9,0.2c-0.2,0.1-0.4,0.3-0.5,0.6s-0.1,0.7-0.1,1.3v3.3l3,0l-0.1-1.9h1.4v5H403.8z"/>
			<path class="st0" d="M416.6,270.3l-5-11.6c-0.2-0.5-0.4-0.9-0.5-1.4c-0.1-0.4-0.2-0.7-0.2-1c-0.2,0-0.4,0-0.6,0
				c-0.2,0-0.4,0-0.6,0V255h5.9v1.2c-0.6,0-1,0.2-1.3,0.5c-0.2,0.3-0.2,0.8,0,1.4c0.3,0.8,0.7,1.6,1,2.4c0.3,0.8,0.7,1.6,1,2.5
				c0.3,0.7,0.5,1.3,0.8,1.8s0.4,1.1,0.6,1.6h0c0.2-0.5,0.3-0.9,0.5-1.5c0.2-0.5,0.4-1,0.5-1.6c0.3-0.7,0.5-1.4,0.7-2
				s0.4-1.2,0.6-1.7c0.2-0.5,0.4-1,0.5-1.5c0.1-0.3,0.2-0.6,0.3-1s0.3-0.7,0.5-0.9c-0.2,0-0.5,0-0.9,0c-0.3,0-0.6,0-0.8,0V255h4.7
				v1.2c-0.5,0-1,0.2-1.4,0.5c-0.4,0.3-0.7,0.9-1,1.7c-0.2,0.4-0.3,0.9-0.5,1.4c-0.2,0.5-0.4,1-0.5,1.5s-0.4,1.1-0.6,1.7
				c-0.2,0.6-0.5,1.3-0.7,2c-0.3,0.7-0.6,1.5-0.9,2.4c-0.3,0.9-0.7,1.9-1.1,2.9H416.6z"/>
			<path class="st0" d="M434,264.8c0-0.6-0.1-1.1-0.3-1.3s-0.4-0.4-0.8-0.5c-0.3-0.1-0.7-0.1-1.2-0.1l-0.9,0v4c0,0.4,0,0.7,0,1.1
				c0,0.3,0,0.6-0.1,0.8l3.3,0c0.5,0,1-0.1,1.4-0.3s0.8-0.5,1-1c0.3-0.5,0.4-1.1,0.4-1.9h1.2l-0.1,4.6h-11.4V269
				c0.4,0,0.7-0.1,0.9-0.2c0.2-0.1,0.4-0.3,0.5-0.6c0.1-0.3,0.1-0.7,0.1-1.3v-8.6c0-0.4,0-0.7,0-1c0-0.3,0-0.6,0.1-0.8
				c-0.2,0-0.5,0-0.8,0c-0.3,0-0.6,0-0.8,0V255h10.7l0.1,4.1h-1.2c0-0.8-0.1-1.4-0.4-1.9c-0.3-0.4-0.6-0.7-1-0.8s-0.9-0.2-1.3-0.2
				l-1.1,0c-0.4,0-0.7,0.1-0.9,0.2c-0.2,0.1-0.4,0.3-0.5,0.6s-0.1,0.7-0.1,1.3v3.3l3,0l-0.1-1.9h1.4v5H434z"/>
			<path class="st0" d="M441,270.2V269c0.4,0,0.7-0.1,0.9-0.2c0.2-0.1,0.4-0.3,0.5-0.6s0.1-0.7,0.1-1.3v-8.6c0-0.4,0-0.7,0-1
				c0-0.3,0-0.6,0.1-0.8c-0.2,0-0.5,0-0.8,0c-0.3,0-0.6,0-0.8,0V255c1,0,1.9,0,2.9,0c1,0,1.9,0,2.9,0c1.3,0,2.4,0.2,3.3,0.5
				s1.6,0.8,2.1,1.4c0.5,0.6,0.7,1.5,0.7,2.5c0,0.6-0.2,1.2-0.4,1.7c-0.3,0.6-0.7,1.1-1.2,1.5c-0.6,0.4-1.3,0.8-2.3,1
				c0.3,0.1,0.5,0.4,0.8,0.6s0.5,0.6,0.7,0.9l1.2,1.8c0.3,0.4,0.6,0.8,0.8,1.1c0.2,0.3,0.5,0.5,0.8,0.7c0.3,0.2,0.6,0.2,0.9,0.2v1.2
				h-3.3c-0.3-0.2-0.6-0.5-0.9-0.9c-0.3-0.4-0.5-0.8-0.8-1.3l-1.6-2.5c-0.2-0.3-0.4-0.6-0.5-0.9c-0.2-0.3-0.4-0.5-0.6-0.7
				c-0.2,0-0.4,0-0.6,0c-0.2,0-0.4,0-0.6,0v2.9c0,0.4,0,0.8,0,1.1c0,0.3,0,0.6-0.1,0.8c0.2,0,0.3,0,0.6,0c0.2,0,0.4,0,0.7,0
				c0.2,0,0.4,0,0.5,0v1.4H441z M446.3,262.7c0.8,0,1.5-0.1,2-0.4c0.5-0.2,0.9-0.6,1.2-1.1c0.3-0.5,0.4-1.1,0.4-1.9
				c0-0.6-0.1-1.2-0.3-1.6c-0.2-0.4-0.5-0.7-0.8-0.9s-0.7-0.4-1.1-0.4c-0.4-0.1-0.8-0.1-1.1-0.1s-0.7,0.1-0.9,0.2
				c-0.2,0.1-0.4,0.3-0.4,0.6c-0.1,0.3-0.1,0.7-0.1,1.2v4.4c0.2,0,0.4,0,0.5,0C445.9,262.7,446.1,262.7,446.3,262.7z"/>
		</g>
	</g>
</g>
</svg>
