<?xml version="1.0" encoding="utf-8"?>
<!-- Generator: Adobe Illustrator 27.9.0, SVG Export Plug-In . SVG Version: 6.00 Build 0)  -->
<svg version="1.1" id="Layer_1" xmlns="http://www.w3.org/2000/svg" xmlns:xlink="http://www.w3.org/1999/xlink" x="0px"
	y="0px" viewBox="0 0 2836.9 3671.2" style="enable-background:new 0 0 2836.9 3671.2;" xml:space="preserve">
	<style type="text/css">
		.st0 {
			fill: #E2D6C7;
		}

		.st1 {
			fill: #2E2723;
		}

		.st2 {
			font-family: '#9Slide03QuicksandBold-Bold';
		}

		.st3 {
			font-size: 480px;
		}

		.st4 {
			font-size: 98px;
		}

		.st5 {
			fill: #EDD2CE;
		}

		.st6 {
			font-family: 'SharkBlindateRegular';
		}

		.st7 {
			font-size: 184.4964px;
		}

		.st8 {
			fill: none;
			stroke: #EDD2CE;
			stroke-width: 2;
			stroke-linecap: round;
			stroke-linejoin: round;
			stroke-miterlimit: 9.9998;
		}

		.st9 {
			stroke: #000000;
			stroke-width: 2;
			stroke-linecap: round;
			stroke-linejoin: round;
			stroke-miterlimit: 10;
		}

		.st10 {
			fill: #FFFFFF;
		}

		.st11 {
			fill: none;
		}
	</style>
	<g id="Layer_1-2" transform="translate(860, 600) scale(1.3)">
		<g>
			<path class="st0" d="M184,321.2c-0.5-2.9-1.9-5.4-4.1-7.5c-0.6-0.5-1.1-1.1-1.7-1.6c-0.1-0.1-0.3-0.2-0.4-0.4
			c0.2-0.2,0.4-0.4,0.6-0.5l0.1-0.1c2.9-2.8,4.6-6.2,5.1-10.1c0.3-2.7-0.5-5.5-2.3-7.7c-0.8-1-1.8-1.9-3-2.6c-0.9-1.7-2-3.3-3.5-4.8
			c-0.6-5.5-4.3-10.4-9.7-12.4c-2.2-0.8-4.2-1-5.8-1.1c-0.7,0-1.4-0.1-2.2-0.1c-1.1,0-2.1,0-3,0.1l-0.8,0c-0.4,0-0.8,0-1.2,0
			c-1.7,0-3.2-0.2-4.7-0.5c-1.4-0.3-2.8-0.8-4.4-1.2c-2.4-0.7-4.8-1.1-7.1-1.1c-3.4,0-6.8,0.8-10.1,2.3c-3.7,1.8-6.7,4.3-8.6,7.5
			c-0.6,0.2-1.1,0.5-1.7,0.8c-4.5,2.7-7.6,6.9-8.8,12.1c-0.8,3.6-1,7.3-0.4,11c0.1,0.3,0.1,0.6,0.1,0.9c0.2,1.2,0.4,2.7,0.9,4.3
			c0.2,0.8,0.5,1.6,0.7,2.4c-1.2-0.2-2.3-0.2-3.4-0.2c-2.2,0-4.2,0.3-6.2,1c-5.4,1.8-9.3,5.5-11.2,10.5c-0.7,1.8-1,3.7-0.9,5.5
			c-0.2,0.2-0.4,0.3-0.6,0.5c-6,4.8-8.9,11.1-8.5,18.3c0.3,4.5,2.3,8.5,5.5,11.3c-1.3-0.1-2.6-0.2-3.9-0.2c-4,0-7.9,0.6-11.7,1.9
			c-4.5,1.5-7.9,3.4-10.7,6.1c-1.2,1.1-2.5,2.5-3.6,4.5c-1.4,2.6-1.6,5.7-0.5,8.3s3.5,4.6,6.4,5.3c1,0.2,2,0.4,3.1,0.4
			c0.4,0,0.8,0,1.2-0.1c0.6,0,1.2-0.1,1.7-0.1l0,0c0.2,0,0.3,0,0.4,0.1c0.5,0.3,1.1,0.9,1.6,1.4c1.8,1.9,3.6,3.7,5.4,5.3
			c2.9,2.6,6.2,4.4,10.1,5.3c2.3,0.5,4.6,0.8,7.1,0.8c1.1,0,2.3-0.1,3.4-0.2c2.6-0.3,5-0.9,7.3-1.8c3.8,4,8.4,7,13.9,9.1
			c4.9,1.9,10,2.8,15.2,2.8c3.2,0,6.5-0.4,9.8-1.1c8.2-1.8,15.3-5.5,21.2-11c7.1-6.6,11.4-14.4,12.8-23.3c1-0.8,1.8-1.8,2.4-2.9
			c2-1.6,3.4-3.9,3.8-6.3c1-1.7,1.5-3.7,1.3-5.7c-0.3-3.2-2.1-6-5-7.6c1.8-2.6,3.2-5.5,4.3-8.7c1.2-3.5,1.9-6.9,2-10.2
			c1-1,1.8-2.3,2.2-3.9C184.3,324.6,184.3,322.9,184,321.2L184,321.2z" />
			<g>
				<path class="st1" d="M177.1,319.1c-0.3-1.4-0.9-2.5-1.9-3.4c-1.2-1.2-2.5-2.4-3.8-3.6c-0.8-0.7-1.3-1.6-1.9-2.4
				c-0.2-0.3-0.2-0.6,0-0.9c0.6-1.3,1.3-2.5,1.8-3.8c0.4-0.9,0.8-1.6,1.7-2.1c0.3-0.2,0.6-0.5,0.8-0.7c1.6-1.5,2.6-3.3,2.8-5.5
				c0.2-1.4-0.9-3-2.5-3.1c-0.4,0-0.7,0-1.1,0c-0.4-2.9-1.9-5-4.1-6.8c-0.2-0.2-0.5-0.4-0.8-0.6c-0.3-0.2-0.4-0.4-0.3-0.8
				c0.6-3.4-1.4-7-4.7-8.2c-1.2-0.4-2.4-0.6-3.7-0.7c-1.7-0.1-3.5,0-5.2,0c-2.6,0.1-5.2,0-7.8-0.6c-1.7-0.4-3.3-0.9-4.9-1.4
				c-4.1-1.2-8-1-11.8,0.8c-3.1,1.4-5.3,3.6-6.4,6.9c-0.1,0.3-0.2,0.4-0.6,0.4c-1-0.1-1.9,0.2-2.7,0.7c-2.8,1.7-4.5,4.2-5.2,7.3
				c-0.6,2.7-0.7,5.4-0.3,8.1c0.2,1.4,0.4,2.8,0.8,4.2c0.6,2,1.1,4,1.4,6c0.2,1.4,0,2.7-0.5,4c-0.7,1.6-1.8,2.4-3.6,2.5
				c-1.4,0.1-2.8,0-4.1-0.3c-2.3-0.4-4.6-0.5-6.9,0.3c-3.1,1-5.3,3-6.5,6c-0.8,2.2-0.5,4.3,0.8,6.2c0.1,0.2,0.3,0.3,0.3,0.5
				c0,0-0.1,0.1-0.1,0.1c-0.2,0-0.3,0.1-0.5,0.1c-1.6,0.5-3.1,1.2-4.5,2.3c-3.8,3.1-5.9,6.9-5.7,11.9c0.2,4.1,3.1,7.3,7.1,8.2
				c0.9,0.2,1.8,0.2,2.7,0.2c0.1,0.2,0,0.4-0.1,0.5c-1.8,4.2-2.5,8.6-1.8,13.2c0,0.2,0.1,0.4,0,0.5c-0.2,0.2-0.3,0-0.5-0.1
				c-2.2-1.4-4.6-2.2-7.1-2.7c-5.3-1-10.5-0.8-15.6,0.9c-2.9,0.9-5.6,2.2-7.8,4.3c-0.8,0.8-1.6,1.6-2.2,2.6
				c-0.7,1.2-0.2,2.3,1.1,2.6c0.6,0.1,1.1,0.2,1.7,0.1c0.7-0.1,1.5-0.1,2.2-0.1c1.6,0,3,0.4,4.4,1.1c1.2,0.7,2.3,1.7,3.2,2.7
				c1.6,1.7,3.3,3.3,5,4.9c1.9,1.8,4.2,2.9,6.7,3.5c2.6,0.6,5.3,0.7,8,0.5c3.4-0.3,6.5-1.4,9.1-3.8c0.2-0.2,0.4-0.4,0.7-0.5
				c0.1,0.1,0.2,0.2,0.3,0.4c3.5,5.5,8.5,9.3,14.5,11.7c6.8,2.6,13.7,3,20.7,1.4c6.7-1.5,12.7-4.5,17.7-9.1
				c6.5-6.1,10.4-13.4,10.8-22.4c0-0.5,0.2-0.5,0.6-0.6c1.8-0.2,2.5-1,2.6-2.7c0-0.2,0.1-0.3,0.3-0.4c0.2,0,0.5-0.1,0.7-0.1
				c1.2-0.4,2-1.8,1.7-2.9c-0.2-0.5,0-0.7,0.4-1c1.4-1,1.2-2.8-0.3-3.6c-0.4-0.2-0.8-0.3-1.1-0.5c-0.4-0.1-0.9-0.2-1.3-0.4
				c-0.7-0.2-1.3-0.6-1.9-1.1c-0.4-0.3-0.5-0.6-0.3-1.1c0.5-1.4,0.5-2.8-0.2-4.1c-0.2-0.4-0.1-0.5,0.1-0.8c2.6-2.8,4.4-6.1,5.6-9.7
				c1.3-3.8,2-7.8,1.5-11.9c-0.1-0.9-0.4-1.8-0.5-2.6c-0.1-0.1-0.1-0.2,0-0.3c0,0,0.1,0,0.2,0.1c0.7,0.3,1.2,0.9,1.8,1.4
				c0.5,0.5,0.8,0.4,1-0.3C177.2,320.2,177.2,319.6,177.1,319.1L177.1,319.1z M173.6,294.1c1.2-0.1,2.2,0.9,2.2,2.1
				c0,1.4-0.5,2.8-1.3,4c-0.7,1-1.6,1.9-2.6,2.5c-0.4,0.3-0.7,0.6-0.9,1.1c-1.5,3.4-3.1,6.7-5.3,9.7c-2,2.7-3.8,5.5-5.5,8.4
				c-0.3,0.5-0.5,0.7-1.2,0.6c-0.5-0.2-1,0-1.5,0.1c-1.9,0.6-3.2,1.9-4,3.7c-0.5,1.2-0.8,2.5-0.8,3.8c0,0.7-0.6,1-1.2,0.8
				c-3.1-1.3-6.1-1.1-9,0.5c-0.8,0.4-1.4,1.1-1.7,2c-0.1,0.4-0.3,0.5-0.6,0.7c-1.6,1.1-3.3,1.9-5.1,2.8c-2.2,1.1-4.5,2.2-6.8,3.4
				c-2.3,1.1-4.7,2-7.1,2.9c-0.5,0.2-0.9,0.4-1.2,0.8c-0.6,0.6-1.2,1.2-1.8,1.8c-1.1,1.1-2.3,1.9-3.8,2.2c-1.6,0.3-3.2-0.8-3.4-2.3
				c-0.1-0.7,0-1.3,0.5-1.9c0.4-0.5,0.9-0.9,1.4-1.4c0.2-0.1,0.3-0.3,0.4-0.5c0.3-0.4,0.2-0.6-0.2-0.8c-0.2-0.1-0.5-0.2-0.8-0.3
				c-0.4-0.2-0.6-0.5-0.7-0.8c-0.1-0.5,0.1-0.9,0.6-1.1c0.2-0.1,0.4-0.1,0.6-0.1c1.8,0.2,3.6-0.1,5.3-0.4c0.1,0,0.2,0,0.3,0
				c0.6,0,1.2,0.1,1.8-0.2c0.5-0.2,1-0.7,1.4-1c4.3-3.3,8.6-6.5,12.8-9.8c2-1.6,4.1-3,6-4.8c0.3-0.3,0.7-0.3,1.1-0.3
				c1.3-0.1,2.7-0.1,4.1-0.2c2.6-0.2,5.1-1.1,7.4-2.2c1.7-0.8,3.3-1.9,4.9-3c1.3-0.9,2.3-2,3.2-3.2c0.6-0.7,0.9-1.6,1.2-2.6
				c0.2,0.2,0.3,0.2,0.4,0.3c0.6,0.5,1.3,0.7,2,0.3c0.8-0.4,1.1-1.1,1-1.9c-0.1-0.5,0.1-0.9,0.3-1.4c0.8-1.3,1-2.8,0.6-4.2
				c-0.2-0.5-0.1-1,0.3-1.4c0.4-0.4,0.7-0.8,0.9-1.3c0.1-0.2,0.3-0.4,0.5-0.5c0.6-0.3,1.1-0.7,1.6-1.1c1.5-1.3,2.5-2.8,2.8-4.8
				C173,294.3,173.1,294.2,173.6,294.1L173.6,294.1z M164.1,344.6c-0.4,2.2-1.2,4.2-2.8,6c-1,1.1-2.1,2.2-2.9,3.6
				c-1.6-1.3-3.5-1.5-5.4-1.8c-1.5-0.3-3-0.5-4.5-0.8c-1.7-0.3-3.3-1-4.8-2c-1.3-0.8-2-2.1-2.1-3.6c-0.1-1.5,0.2-3,0.3-4.5
				c0.3,0,0.3,0.2,0.4,0.3c0.6,0.9,1.4,1.4,2.4,1.6c1.2,0.2,2.4-0.1,3.6-0.5c2.4-1,4.3-2.4,5.5-4.8c0.2-0.4,0.4-0.8,0.5-1.3
				c0-0.4,0.2-0.4,0.5-0.4c0.9,0,1.6-0.4,1.9-1.3c0.1-0.4,0.3-0.4,0.6-0.3c1.9,0.4,3.7-0.1,5.4-1.1c0.5-0.3,0.6-0.3,0.7,0.3
				C164.3,337.5,164.8,341,164.1,344.6L164.1,344.6z M165,344c0-0.1,0.1-0.2,0.1-0.3c0.3-0.1,0.4,0.1,0.6,0.2
				c1.3,1.1,1.7,2.6,1.4,4.3c-0.3,1.4-1.1,2.5-2.2,3.4c-0.8,0.6-1.6,1-2.5,1.4c-0.9,0.3-1.7,0.7-2.6,1.1c0-0.1-0.1-0.1-0.1-0.2
				c0.7-0.8,1.3-1.7,2.1-2.5C163.6,349.3,164.6,346.8,165,344L165,344z M144.9,365.3c-0.3-0.2-0.5,0-0.6,0.2
				c-0.8,0.7-1.7,0.9-2.7,0.7c-1.3-0.2-1.9-1.2-1.5-2.5c0.1-0.2,0.2-0.5-0.1-0.7c-0.2-0.2-0.5,0-0.7,0.1c-0.8,0.5-1.8,0.7-2.7,0.5
				c-1.8-0.3-2.5-1.8-1.7-3.4c0.1-0.2,0.2-0.3,0.1-0.5c-0.1-0.2-0.4-0.2-0.6-0.1c-0.4,0-0.8,0.1-1.1,0c-0.9-0.1-1.5-0.7-1.8-1.5
				c-0.3-0.8,0-1.6,0.8-2.1c0.1-0.1,0.3-0.2,0.4-0.3c1.8-1.1,3.5-2.3,4.6-4.2c0.5,0.6,0.9,1.1,1.4,1.4c1.2,0.8,2.6,1.3,4.1,1.5
				c2.5,0.4,5,0.4,7.5,0.3c1.9-0.1,3.8-0.2,5.7,0.2c0.5,0.1,0.9,0.3,1.4,0.4c0.3,0.1,0.4,0.3,0.2,0.5c-0.2,0.5-0.4,1-0.7,1.4
				c-1.9,3.2-4,6.1-6.6,8.8c-0.6,0.6-1.3,1.1-2,1.5c-0.5,0.2-1.1,0.4-1.7,0.3c-1.1-0.1-1.7-0.9-1.6-2
				C145,365.7,145.1,365.4,144.9,365.3L144.9,365.3z M136.7,350.4c0.1,0.3,0.1,0.5-0.1,0.8c-0.2,0.3-0.3,0.6-0.6,0.9
				c-1.3,1.6-2.9,2.8-5,3.3c-1.4,0.3-2.9,0.5-4.3,0.6c-1.7,0.1-3.4,0.4-5,1c-1.3,0.4-2.4,1.2-3.2,2.3c-0.6,0.8-0.8,1.8-0.6,2.8
				c0.2,1.3,1.4,2.2,2.7,2.1c0.6-0.1,1-0.3,1.4-0.8c0.1-0.2,0.2-0.4,0-0.5c-0.2-0.2-0.4-0.1-0.5,0c-0.5,0.6-1.1,0.8-1.8,0.4
				c-0.8-0.4-1.1-1.1-1-2c0-0.8,0.4-1.3,1.2-1.6c1-0.4,1.9-0.3,2.8,0.2c2.5,1.6,3,4.7,1.2,7.1c-1.7,2.1-4.1,3-6.8,2.5
				c-1.3-0.2-2.4-1.1-3.2-2.1c-0.2-0.3-0.2-0.6-0.2-1c0.1-1.7,0-3.5-0.4-5.2c-0.3-1.2-0.6-2.3-1.1-3.4c-0.3-0.7-0.2-1.2,0.1-1.9
				c0.7-1.5,1.7-2.6,3.1-3.5c2.6-1.6,5.5-2.7,8.5-3.4c2.4-0.6,4.7-1.3,7.1-2.2c3.6-1.3,6.9-3.2,9.9-5.6c0.2-0.2,0.4-0.4,0.8-0.6
				c0,0.4-0.1,0.6-0.1,0.9c0,0.4-0.2,0.6-0.6,0.8C137.6,343.6,135.6,347.1,136.7,350.4L136.7,350.4z M113.3,368.3
				c0.3-0.1,0.4,0.1,0.5,0.2c1.8,1.6,3.8,2.1,6.2,1.5c1.3-0.4,2.6-1,3.6-1.9c1.3-1.2,1.9-2.6,1.9-4.3c0.1-2.2-1.5-4.3-3.6-5
				c-0.6-0.2-1.3-0.2-2.1,0c0.7-0.7,1.3-1,2.1-1.2c1.4-0.5,2.9-0.7,4.4-0.9c1.5-0.1,3.1-0.2,4.7-0.6c-0.1,0.3-0.2,0.5-0.2,0.7
				c-0.3,1-0.2,2,0.6,2.7c0.4,0.4,0.4,0.7,0.2,1.1c-0.5,1.1-0.6,2.2-0.7,3.3c-0.4,2.6-0.9,5.2-1.5,7.8c-0.9,3.7-3.1,6.4-6.4,8.3
				c-3.2,1.8-6.6,2.1-10.1,1.3c-1.9-0.5-4-1.9-5.1-3.7c1.7-1,3-2.3,3.9-4C112.4,371.9,113,370.1,113.3,368.3L113.3,368.3z
				 M155.2,354.1c-2.1-0.3-4.1-0.1-6.2-0.1c-2.2,0.1-4.5,0-6.7-0.4c-1-0.2-1.9-0.5-2.7-1c-1.9-1.1-2.7-2.8-2.3-5
				c0.4-2,1.9-4,3.8-4.7c0,0.7-0.1,1.4-0.1,2c-0.1,2.4,0.8,4.2,2.9,5.5c1.7,1,3.4,1.6,5.3,1.9c1.8,0.3,3.6,0.6,5.4,0.9
				c0.6,0.1,1.3,0.3,1.9,0.5c0.5,0.1,0.9,0.4,1.2,0.8C156.8,354.4,156,354.2,155.2,354.1L155.2,354.1z M142.2,335.2
				c-0.8-0.9-0.9-1.9,0-2.8c0.5-0.5,1.1-0.9,1.8-1.1c1.2-0.5,2.4-0.7,3.8-0.7c1.4,0,2.9,0.3,4.2,1.1c0.2,0.1,0.4,0.2,0.4,0.5
				c0.1,0.2,0.2,0.3,0.4,0.4c0.3,0.1,0.4,0.3,0.4,0.7c0,0.2,0,0.5,0.1,0.6c0.5,0.4,0.5,1.1,0.5,1.6c0,0.7-0.1,1.5-0.4,2.1
				c-1.5,2.8-3.8,4.4-6.9,5c-1,0.2-2,0.1-2.8-0.6c-0.8-0.6-0.9-1.3-0.4-2.2c0.2-0.4,0.2-0.6-0.3-0.6c-0.1,0-0.2,0-0.3,0
				c-0.8-0.1-1.3-0.5-1.5-1.1c-0.2-0.8,0-1.5,0.7-1.9c0.1-0.1,0.2-0.1,0.3-0.2C142.5,335.8,142.5,335.6,142.2,335.2L142.2,335.2z
				 M154.3,334.1c-0.4,0-0.7-0.3-0.7-0.8c0-0.3,0.6-0.8,1-0.8c0.3,0,0.6,0.4,0.6,0.7C155.2,333.7,154.7,334.1,154.3,334.1z
				 M155.4,334c0.2-0.2,0.5,0.2,0.6,0.5c0.2,0.4,0,0.8-0.5,1.1c-0.2,0.1-0.4,0.1-0.5,0.1c-0.3,0-0.6-0.1-0.7-0.3
				c-0.1-0.1-0.2-0.3-0.2-0.4C154.2,334.2,155,334.4,155.4,334z M153.5,332.5c-0.4,0-0.7-0.3-0.7-0.7c0-0.4,0.3-0.7,0.7-0.7
				c0.4,0,0.7,0.3,0.7,0.7C154.2,332.3,153.9,332.5,153.5,332.5z M163.5,332.1c-0.2,0.4-0.6,0.7-0.9,0.9c-1.2,0.8-2.6,1.2-4.4,1.2
				c-0.4,0.1-1.1-0.3-1.9-0.3c-0.3,0-0.7-0.4-0.8-0.8c0,0,0-0.1,0-0.2c-0.1-0.5-0.7-0.6-0.9-1c-0.2-0.4-0.2-0.9-0.7-1.1
				c-0.3-0.1-0.4-0.3-0.4-0.6c-0.1-2.7,0.7-5,3.1-6.5c0.6-0.4,1.2-0.6,2-0.7c1.1-0.1,1.8,0.5,1.8,1.6c0,0.8,0,0.8,0.8,0.8
				c0.7-0.1,1.3,0.2,1.8,0.8c0.5,0.6,0.5,1.7-0.2,2.2c-0.6,0.4-0.5,0.6,0.1,1C163.9,330.1,164.1,331.1,163.5,332.1z M163.2,324.8
				c-0.1,0.2-0.3,0.4-0.5,0.2c-0.1,0-0.2-0.1-0.3-0.1c-0.4-0.3-1.1,0.2-1.2-0.6c-0.1-0.5-0.3-0.9-0.6-1.3c-0.1-0.1,0-0.3,0.1-0.4
				c1.5-2.5,2.9-5,4.8-7.5c0.3,1.1,0.2,2.1,0,3.1c-0.3,2.1-1,4.2-2,6.1C163.3,324.5,163.2,324.7,163.2,324.8z M130.3,317.5
				c0.7,0,1.3,0.7,1.4,1.4c0,0.7-0.5,1.2-1.1,1.2c-0.7,0-1.4-0.6-1.4-1.4C129.1,318.1,129.6,317.5,130.3,317.5z M128.5,318.2
				c-1.5-0.6-2.4-1.8-2.8-3.3c-0.2-1.1,0-2,0.8-2.8c0.3-0.3,0.4-0.3,0.7,0.1c0.6,0.9,1.2,1.8,1.7,2.6c0.4,0.7,0.9,1.3,1.4,2.1
				C129.5,316.9,128.9,317.4,128.5,318.2z M126.1,308.2c-0.2-0.5-0.2-0.8,0.1-1.3c1.8-3.2,2.6-6.8,2.9-10.4c0.1-1,0.1-2.1,0-3.1
				c0-0.3-0.1-0.6-0.1-1.1c1.4,1.1,2.8,1.6,4.3,1.8c1.1,0.2,2.2,0.3,3.3,0.3c3.4,0.1,6.7-0.2,10-0.7c2.7-0.4,5.4-0.7,8.1-0.7
				c2.1,0,4.1,0.2,6.1,0.8c0.6,0.2,0.9,0.5,1.1,1.1c0.5,2.8,0.9,5.7,0.7,8.6c-0.1,1.7-0.1,3.4-0.3,5.1c-0.2,1.8-0.7,3.6-1.9,5
				c-0.6,0.8-1.4,1.5-2.2,2c-2.6,1.8-5.2,3.4-8.2,4.4c-1.3,0.4-2.6,0.7-3.9,0.8c-2.8,0.4-5.5,0.2-8.3-0.1c-2.3-0.3-4.1-1.3-5.5-3.1
				C129.8,314.8,127.7,311.7,126.1,308.2z M166,303.7c0.5,1.4,0.4,2.8-0.3,4.1c-0.1,0.2-0.1,0.4-0.5,0.3c-1.1-0.5-1.1-0.5-2.2-0.2
				c0.2-1.5,0.2-2.9,0.3-4.4c0-0.4,0.1-0.9,0.1-1.3c0-0.4,0.2-0.4,0.5-0.4C164.9,302,165.6,302.6,166,303.7z M166.1,301.9
				c0.2-0.1,0.4-0.2,0.8-0.3c-0.1,0.4-0.3,0.5-0.5,0.7c-0.1,0.2-0.3,0.1-0.4,0C165.9,302.1,165.9,302,166.1,301.9z M165.3,309.7
				c0,0.7-0.5,1.3-1.2,1.3c-0.7,0-1.3-0.6-1.3-1.4c0-0.7,0.6-1.3,1.2-1.3C164.8,308.2,165.3,308.9,165.3,309.7z M163.4,300.1
				c-0.2-1.8-0.5-3.5-0.8-5.2c0.9,0.2,2,1.4,2.2,2.4C165,298.5,164.1,299.2,163.4,300.1L163.4,300.1z M124.2,281.8
				c0.8-2.2,2.2-3.9,4.2-5c2.9-1.7,5.9-2.6,9.3-2.3c1.2,0.1,2.5,0.4,3.7,0.7c2.2,0.7,4.5,1.4,6.8,1.7c2.6,0.4,5.1,0.4,7.7,0.2
				c1.8-0.1,3.7-0.1,5.5,0.2c0.5,0.1,1,0.2,1.4,0.4c2.7,0.9,4.6,3.8,4.4,6.7c0,0.1,0,0.2,0,0.2c-0.1,0.6-0.2,0.7-0.8,0.4
				c-1.2-0.7-2.5-1.2-3.9-1.7c-0.2-0.1-0.4-0.1-0.5-0.2c-0.2,0-0.4,0-0.5,0.2c-0.1,0.2,0,0.4,0.2,0.5c0.3,0.1,0.5,0.2,0.8,0.3
				c2.6,0.9,5.1,2.2,7.1,4.2c1.1,1.1,2,2.4,2.4,3.9c0.5,2,0.2,3.9-1.1,5.6c-1.4,1.8-3.2,2.8-5.3,3.5c-0.3,0.1-0.5,0.1-0.8,0
				c-0.3-0.1-0.6-0.2-0.9-0.3c-0.1-0.2,0.1-0.3,0.3-0.4c0.4-0.4,0.7-0.9,1-1.4c0.7-1.2,0.6-2.3-0.2-3.4c-0.9-1.2-2.2-2-3.6-2.5
				c-1.3-0.5-2.7-0.8-4.1-0.9c-3-0.2-6,0-9,0.4c-3.2,0.4-6.5,1-9.8,1c-2.2,0-4.3,0-6.4-0.6c-1.6-0.5-3-1.3-3.9-2.8
				c-0.4-0.6-0.7-1.2-1.2-1.7c-0.5-0.6-0.8-1.3-1.1-2.1c0.2-0.2,0.4,0,0.5,0c1.5,0.4,3,0.4,4.4,0.1c3.9-0.7,7.9-1.5,11.8-2.6
				c2.8-0.8,5.7-1.2,8.7-1.3c2.5-0.1,5,0.1,7.4,0.8c0.2,0.1,0.4,0.2,0.8,0c-0.2-0.2-0.4-0.2-0.5-0.3c-2.3-0.7-4.7-0.9-7.2-0.9
				c-3.7,0-7.3,0.8-10.9,1.8c-2.9,0.8-5.9,1.3-8.9,1.9c-1.5,0.3-3,0.5-4.5,0.3c-1-0.1-1.9-0.5-2.6-1.2
				C124,284.3,123.7,283.2,124.2,281.8L124.2,281.8z M95.7,321.8c1-2.9,3.1-4.7,6-5.6c2.1-0.7,4.3-0.6,6.4-0.3
				c1.5,0.2,3,0.5,4.6,0.3c2.1-0.2,3.4-1.3,4.1-3.2c0.6-1.6,0.7-3.2,0.4-4.8c-0.2-1.3-0.5-2.5-0.8-3.8c-0.6-2.4-1.1-4.9-1.4-7.4
				c-0.3-2.6,0-5.2,0.9-7.7c0.9-2.4,2.4-4.2,4.7-5.5c0.8-0.4,1.6-0.6,2.5-0.5c0.3,0,0.5,0.1,0.6,0.4c0.2,0.9,0.8,1.6,1.6,2.2
				c0.1,0.1,0.2,0.2,0.3,0.4c0.1,0.7,0.5,1.2,0.8,1.8c0.2,0.4,0.5,0.8,0.6,1.3c0,0.1,0.1,0.3,0.2,0.4c0.9,1,1.1,2.3,1.2,3.5
				c0.3,3-0.2,6-1.1,8.8c-0.7,2.5-2,4.7-3.1,7c-0.8,1.5-1.6,3-1.9,4.8c-0.2,1.2-0.1,2.4,0.2,3.6c0,0.1,0.1,0.2,0.1,0.3
				c0.1,0.2,0.2,0.5,0.5,0.3c0.3-0.1,0.2-0.4,0.1-0.6c-0.2-0.5-0.2-1-0.3-1.4c-0.2-1.1-0.1-2.1,0.2-3.1c0.5-1.6,1.3-3.1,2.2-4.6
				c0.4,0.8,0.7,1.5,1.1,2.1c0.2,0.3,0.1,0.4-0.2,0.6c-1.5,1.3-1.7,3-1,4.7c0.4,1,1.1,1.8,1.9,2.4c0.3,0.2,0.5,0.5,0.3,0.9
				c-1.5,4.1-3.8,7.2-8.4,7.9c-1.5,0.2-2.9,0.3-4.4,0.1c-2.3-0.2-4.5-0.4-6.8-0.4c-0.2,0-0.3,0-0.5-0.1c0.1-0.7,0-1.5-0.3-2.2
				c-0.6-1.4-2.2-2.4-3.7-2.3c-0.9,0.1-1.9,0.9-2.1,1.7c-0.2,0.8,0.2,1.6,0.9,1.9c0.2,0.1,0.5,0.1,0.7-0.1c0.1-0.3-0.1-0.4-0.3-0.5
				c-0.8-0.5-0.8-1.1-0.2-1.8c0.5-0.5,1.1-0.6,1.8-0.5c2,0.5,3,2.7,2,4.6c-0.9,1.7-2.5,2.5-4.3,2.5c-2.2,0-4.1-0.9-5.5-2.7
				C95.3,325.8,95,323.9,95.7,321.8L95.7,321.8z M94.8,350.4c-2.9,0-5.3-1-7-3.3c-1.4-1.9-1.8-4.1-1.6-6.4
				c0.5-5.3,4.6-10.1,9.8-11.5c0.6-0.2,1-0.1,1.6,0.3c1.9,1.5,4.1,1.9,6.4,1.2c1.4-0.5,2.5-1.4,3.2-2.8c0.2-0.4,0.4-0.5,0.8-0.5
				c2.1-0.1,4.1,0.1,6.2,0.3c2.4,0.3,4.8,0.2,7.1-0.6c2-0.7,3.6-1.8,4.7-3.5c0.9-1.3,1.6-2.7,2.1-4.2c0-0.1,0.1-0.3,0.2-0.3
				c0.1,0,0.2,0.1,0.3,0.2c0.1,0.1,0.1,0.3,0.2,0.4c0.4,0.7,1,1.1,1.8,1.1c0.8,0,1.4-0.5,1.6-1.4c0-0.1,0.1-0.1,0.1-0.2
				c0,0,0,0,0.1,0c1.9,1,0.4,1.4,7.3,2.8c-0.1,0.3-0.4,0.5-0.6,0.6c-2,1.6-4,3.1-6,4.7c-4,3.2-8.1,6.2-12.2,9.3
				c-0.5,0.4-1,0.6-1.6,0.6c-1,0.1-2,0.2-3,0.4c-1,0.2-2,0.2-3,0.1c-0.2,0-0.5,0-0.7,0c-0.8,0.2-1.4,0.6-1.5,1.3
				c-0.1,0.7,0.2,1.5,0.8,1.9c0.2,0.1,0.5,0.2,0.8,0.4c-0.3,0.5-0.8,0.8-1.1,1.2c-0.7,0.7-1.2,1.5-1.1,2.5c0.1,1.4,0.7,2.3,1.9,2.9
				c1.2,0.6,2.4,0.6,3.6,0.1c1.2-0.5,2.2-1.2,3.1-2.1c1.3-1.5,2.8-2.4,4.7-3c2.8-0.9,5.4-2.2,8-3.5c2.1-1,4.2-2.1,6.2-3.1
				c1-0.5,1.9-1.1,2.9-1.7c0.2,0.4,0.4,0.7,0.7,1.1c-0.6,0.5-1.1,1.2-1.1,2.1c0,0.9,0.5,1.5,1.2,2c-0.3,0.4-0.7,0.7-1,1
				c-3.2,2.6-6.7,4.5-10.6,5.9c-2.7,0.9-5.4,1.7-8.1,2.4c-2.5,0.7-4.9,1.8-7.1,3.1c-1.2,0.8-2.2,1.8-2.9,3.1
				c-0.1,0.2-0.2,0.5-0.4,0.7c-0.2,0-0.3-0.2-0.3-0.4c-0.6-1.3-1.2-2.5-2-3.7c-1.8-3-2-6.1-1-9.3c0.2-0.5,0.3-1,0.4-1.5
				c0.1-0.2,0.1-0.5,0.1-0.7c0.1-1-0.6-1.5-1.6-1.3c-0.9,0.2-1.7,0.6-2.5,1.1c-0.8,0.5-1.6,1.1-2.3,1.8c-0.2,0.2-0.4,0.3-0.7,0.6
				c-0.2-1.4-0.9-2.3-1.9-3c-2.5-1.8-6.1-0.6-7.1,2.2c-0.3,0.9-0.1,1.8,0.6,2.5c0.7,0.7,1.6,1,2.6,0.8c0.2,0,0.4-0.1,0.4-0.4
				c0-0.2-0.2-0.3-0.4-0.3c-0.2,0-0.4,0-0.6,0c-1.5-0.1-2.3-1.4-1.7-2.8c0.7-1.5,1.8-2.2,3.4-2.2c1.7-0.1,2.9,0.7,3.7,2.1
				c0.5,0.9,0.4,1.7-0.3,2.4c-1.6,1.7-2.9,3.6-3.9,5.6C95.9,350.2,95.5,350.4,94.8,350.4L94.8,350.4z M103.8,341.6
				c0.7-0.6,1.5-1,2.2-1.5c0.3-0.2,0.6-0.2,1-0.2l0.9,0.3c0.1,0.5-0.2,0.9-0.3,1.2c-0.6,2.4-1.1,4.8-0.6,7.2c0.2,1,0.7,1.9,1.1,2.9
				c0.4,0.7,0.7,1.3,1.1,2c1.4,2.5,2.4,5.1,3.1,7.8c0.5,2.1,0.5,4.2,0.3,6.3c-0.1,1.7-0.6,3.3-1.4,4.9c-1.1,2.3-2.8,4.1-5.2,5
				c-0.1,0-0.1,0.1-0.2,0.1c0,0-0.1,0-0.1,0l-2,0c-0.4,0.1-0.7-0.1-0.9-0.3c-1.1-0.6-2.1-1.5-3-2.4c-1.1-1-2-2.1-2.9-3.3
				c-1.8-2.5-2.8-5.3-3-8.3C93.4,354.3,97,347.2,103.8,341.6z M101.1,381L101.1,381l-1.1,1.1c-0.1,0.3-0.4,0.4-0.6,0.6
				c-1.7,1.1-3.6,1.8-5.6,2.1c-3.2,0.5-6.4,0.4-9.6-0.4c-2.2-0.6-4.2-1.7-6-3.2c-1.7-1.5-3.3-3.1-4.9-4.8c-0.7-0.8-1.5-1.5-2.4-2.2
				c-2-1.5-4.2-2.1-6.7-1.9c-0.5,0-1,0.1-1.4,0h-0.1l-1.3,0l-0.8-0.7h0c0,0,0,0,0,0c-0.1-0.5-0.1-0.6,0.2-1.1c0.6-1,1.4-1.8,2.3-2.6
				c1.9-1.7,4.2-2.8,6.6-3.6c6.2-2.1,12.5-2.2,18.8-0.3c1.6,0.5,3.1,1.3,4.5,2.2c0.5,0.4,0.9,0.8,1.1,1.5c0.6,2,1.7,3.8,3,5.4
				c0.2,0.2,0.3,0.4,0.5,0.6l3.7,3.5c0.4,0.4,1,0.7,1.6,1.1l0.4,0.5c0,0.4-0.3,0.7-0.5,1C102.2,380.2,101.7,380.6,101.1,381
				L101.1,381z M164.7,369.3c-1.1,4.4-3.1,8.3-5.9,11.9c-1,1.3-2.1,2.4-3.2,3.5c-0.8,0.6-1.8,0.7-2.7,0.5c-1.1-0.3-1.9-1.1-2.2-2.2
				c0,0,0,0,0,0c0,0,0,0,0-0.1c0,0,0,0,0,0c0,0-0.1,0-0.1,0s-0.1,0-0.1,0c0,0,0,0,0,0c0,0,0,0,0,0c0,0,0,0-0.1,0
				c-0.8,0.8-2,1-3.1,0.7c-1.1-0.3-1.9-1.1-2.2-2.2c0,0,0,0,0-0.1c0,0,0,0,0,0c0,0,0,0,0,0c0,0-0.1,0-0.1,0c0,0-0.1,0-0.1,0
				c0,0,0,0,0,0c0,0,0,0,0,0c0,0,0,0-0.1,0c-0.8,0.8-2,1-3.1,0.7c-1.1-0.3-1.9-1.1-2.2-2.2c0-0.1-0.2-0.2-0.3-0.2
				c-0.1,0-0.2,0.2-0.2,0.3c0.4,1.2,1.3,2.2,2.6,2.6c0.3,0.1,0.7,0.1,1,0.1c0.8,0,1.6-0.3,2.2-0.8c0.4,1.1,1.3,1.9,2.4,2.3
				c0.4,0.1,0.7,0.1,1.1,0.1c0.8,0,1.6-0.3,2.2-0.8c0.4,1.1,1.3,1.9,2.4,2.2c0.3,0.1,0.7,0.1,1.1,0.1c0.2,0,0.5,0,0.7-0.1
				c-3.4,3-7.3,5.4-11.7,7c-5.2,1.9-10.5,2.7-16,2.3c-2.7-0.2-5.3-0.7-7.9-1.6c-4.3-1.4-8.1-3.6-11.4-6.7c-1.7-1.6-3.2-3.4-4.5-5.4
				c-0.2-0.3-0.2-0.6,0-0.9c0.4-0.4,0.7-0.8,0.9-1.3c0.1-0.2,0.2-0.3,0.5-0.3c0.6-0.1,1.3-0.3,1.8-0.6c0.4-0.2,0.7-0.1,1,0.2
				c1,1.4,2.3,2.4,3.8,3.1c0.5,0.2,1.1,0.4,1.6,0.5c5,1.1,9.4-0.1,13.2-3.3c2.2-1.9,3.5-4.3,4.1-7.1c0.7-3,1.3-6,1.7-9
				c0.1-0.6,0.2-1.2,0.5-1.8c0.1-0.3,0.3-0.4,0.6-0.3c0.3,0.1,0.6,0.1,1,0.1c-0.1,0.4-0.1,0.7-0.2,0.9c0,1.2,0.5,2,1.5,2.6
				c1.1,0.6,2.2,0.7,3.4,0.3c0.1,0,0.2-0.1,0.2-0.1c0.1,0,0.1,0,0.2-0.1c0.2,0.1,0.1,0.2,0.1,0.4c-0.1,1,0.5,1.7,1.4,2.1
				c0.9,0.4,1.9,0.5,2.9,0.1c0.2-0.1,0.4-0.2,0.6-0.2c0.2,0,0.2,0.1,0.2,0.2c0.5,1.4,1.8,2.1,3.2,1.7c0.7-0.2,1.4-0.5,2-0.9
				c1.1-0.8,2.1-1.6,2.9-2.7c1.5-1.9,3-3.7,4.2-5.8c0.6-0.9,1.1-1.8,1.5-2.8c0.1-0.3,0.3-0.7,0.7-0.8c0.1,0,0.2,0.1,0.2,0.2
				c0.8,1.8,2,3.4,3.4,4.8c0.8,0.8,1.6,1.5,2.7,1.9c0.4,0.1,0.5,0.4,0.5,0.8C165.5,365.3,165.2,367.3,164.7,369.3L164.7,369.3z
				 M170.4,352.1c0.5,0.1,1,0.3,1.4,0.5c0.6,0.3,0.9,0.9,0.8,1.6c-0.1,0.6-0.7,1.1-1.3,1.2c-0.7,0.1-0.7,0.2-0.3,0.7
				c0.6,0.8,0.6,1.3,0.2,2c-0.4,0.7-1.1,1-1.9,0.8c-0.7-0.1-0.9,0-0.7,0.7c0.4,1.5-0.2,2.4-1.8,2.4c-0.9,0-1.7-0.2-2.4-0.7
				c-1.5-1-2.5-2.3-3.5-3.7c-0.4-0.6-0.7-1.2-1-1.8c-0.5-0.9-0.5-0.9,0.5-1.4c0.6-0.3,1.3-0.6,1.9-0.8c1.9-0.7,3.5-1.7,4.7-3.4
				C167.9,351.3,169.1,351.8,170.4,352.1L170.4,352.1z M176.3,320.1c-0.4-0.1-0.6-0.4-0.9-0.6c-0.8-0.6-1.6-0.9-2.6-0.8
				c-0.2,0-0.3,0-0.5,0.1c-0.2,0-0.3,0.2-0.2,0.4c0,0.2,0.2,0.3,0.3,0.2c0.8-0.1,0.8,0.5,1,1c0.8,3.3,0.7,6.7,0,10
				c-0.9,4.6-2.8,8.8-5.7,12.4c-0.3,0.4-0.6,0.8-1,1.1c-0.4-0.3-0.8-0.7-1.3-0.9c-0.3-0.1-0.3-0.3-0.2-0.5c0.1-1.9-0.1-3.7-0.4-5.6
				c-0.1-1.2-0.4-2.4-0.8-3.5c-0.1-0.3-0.1-0.5,0.1-0.8c0.9-1.5,0.7-2.4-0.6-3.6c0-0.1,0-0.1,0.1-0.2c0.7-1,0.8-1.9,0-2.9
				c-0.3-0.3-0.2-0.6-0.1-0.9c1.4-2.7,2.3-5.5,2.4-8.5c0-0.5,0.1-1-0.2-1.5c-0.1-0.2,0.1-0.4,0.1-0.5c1.1-1.2,1.8-2.5,2.7-3.9
				c0.1-0.1,0.2-0.3,0.3-0.4c0.2,0,0.2,0.1,0.3,0.2c1,1.5,2.3,2.8,3.6,4c0.9,0.8,1.7,1.6,2.5,2.4c0.7,0.8,1.1,1.8,1.2,2.9
				C176.4,319.7,176.5,319.9,176.3,320.1L176.3,320.1z" />
				<path class="st1" d="M160.6,301.6c-0.1-0.1-0.2-0.1-0.4-0.1c-0.1,0-0.2,0.1-0.3,0.2c-0.5,0.3-0.8,0.2-1.1-0.2
				c-0.1-0.2-0.4-0.4-0.4-0.7c0.4-0.1,0.8-0.2,1-0.5c0.1-0.2,0.3-0.4,0.1-0.6c-0.2-0.2-0.4-0.1-0.6,0c-0.5,0.5-1.1,0.4-1.8,0.2
				c-0.3-0.1-0.6-0.3-1-0.5c0.2-0.4,0.4-0.6,0.5-1c0-0.2,0-0.3-0.2-0.4c-0.2-0.1-0.3,0-0.4,0.1c-0.1,0.1-0.1,0.2-0.2,0.4
				c-0.3,0.5-0.7,0.7-1.2,0.7c-3,0-5,2-5.1,5c-0.1,2.1,1.5,3.9,3.6,4c2.1,0.1,3.9-1.4,4.1-3.5c0.2-2.1-1.3-4-3.4-4.2
				c-0.3,0-0.6-0.1-1-0.1c0.1-0.1,0.1-0.2,0.1-0.2c1.8-0.8,4.3-0.1,5.3,1.6c0.1,0.2,0.2,0.4,0.3,0.6c0.1,0.2,0.3,0.3,0.5,0.2
				c0.3-0.2,0.6-0.1,0.9-0.2c0.3-0.1,0.5-0.2,0.6-0.5C160.7,301.9,160.7,301.7,160.6,301.6z M155.2,304.4c0.4,0,0.7,0.3,0.7,0.7
				c0,0.4-0.3,0.7-0.7,0.7c-0.4,0-0.6-0.3-0.7-0.7C154.4,304.7,154.7,304.4,155.2,304.4L155.2,304.4z M153,303.5
				c0.4,0.2,0.8,0.2,1.3,0.3c-0.4,0.4-0.8,0.6-1,1.1c-0.2,0.4,0,0.9-0.1,1.3c-0.3,0.1-0.4-0.2-0.4-0.3c-0.3-0.6-0.8-1-1.5-0.9
				c-0.2,0-0.3,0-0.4-0.2c0-0.1,0.1-0.2,0.2-0.3c0.8-0.4,0.9-1,0.8-1.8c0-0.1-0.1-0.3,0.1-0.3c0.1,0,0.2,0,0.2,0.1
				C152.4,302.9,152.6,303.3,153,303.5z" />
				<path class="st1"
					d="M140.1,306.9c-1.5-2.4-4.2-3.2-6.8-1.9c-0.6,0.3-1.2,0.6-1.9,0c-0.2-0.1-0.4-0.1-0.5,0.1
				c-0.2,0.2-0.1,0.4,0.1,0.6c0.2,0.2,0.5,0.3,0.7,0.5c-0.1,0.2-0.2,0.3-0.3,0.5c-0.5,0.7-1,1.3-2,1.1c-0.2,0-0.4,0-0.4,0.2
				c-0.1,0.3,0.1,0.4,0.3,0.5c0.4,0.1,0.8,0.1,1.3,0c0,0.9,0,1.1-0.2,1.3c-0.2,0.3-0.6,0.2-0.9,0.2c-0.2,0-0.3,0.1-0.3,0.3
				c0,0.2,0.1,0.3,0.3,0.4c0.3,0.1,0.6,0.1,0.9,0c0.2-0.1,0.4-0.2,0.6-0.2c0.3,0,0.4-0.2,0.4-0.5c0-0.2,0-0.4,0-0.6
				c0-2.2,1.9-4.2,4.2-4.2c-0.4,0.3-0.8,0.5-1.1,0.7c-1.6,1.2-2,3.6-0.8,5.2c1.2,1.8,3.6,2.2,5.3,1
				C140.7,310.9,141.2,308.6,140.1,306.9L140.1,306.9z M135.7,311.1c-0.4,0-0.7-0.4-0.7-0.7c0-0.4,0.4-0.7,0.8-0.7
				c0.4,0,0.7,0.4,0.6,0.8C136.4,310.8,136.1,311.1,135.7,311.1L135.7,311.1z M139.2,308.3c-0.8,0.4-1,1.1-1,2c0,0,0,0.1-0.1,0.2
				c-0.4-0.3-0.4-0.9-0.9-1.1c-0.4-0.3-0.9-0.3-1.3-0.4c-0.1-0.2,0.1-0.3,0.2-0.4c0.6-0.4,0.9-1,0.8-1.7c0-0.1,0-0.3,0.1-0.3
				c0.1,0,0.2,0.1,0.2,0.2c0.3,0.8,0.8,1.3,1.7,1.2c0.1,0,0.2,0,0.2,0.1C139.4,308.1,139.3,308.2,139.2,308.3L139.2,308.3z" />
				<path class="st1" d="M151,313.1c-0.6-0.4-1.1-0.4-1.7,0c-0.7,0.4-1.4,0.5-1.9,0.5c-0.8,0-1.4-0.1-1.9,0.1c-0.6,0.2-1,0.6-1.2,1.2
				c-0.2,0.9,0.2,1.8,0.9,2.2c1.8,1.2,4.6,0.7,5.9-1c0.3-0.4,0.6-0.9,0.6-1.5C151.7,314,151.6,313.5,151,313.1z M145.7,316.9
				c-0.8-0.4-0.8-0.7,0-1.1c1.2-0.7,3.2-0.2,3.7,1C148.1,317.3,146.9,317.6,145.7,316.9z" />
				<path class="st1" d="M129.7,303.3c1.8-1.4,3.8-2.2,6.1-2c0.3,0,0.5,0,0.6-0.3c0.1-0.4-0.2-0.5-0.5-0.5c-0.3-0.1-0.7-0.1-1.1-0.1
				c-2.1,0.1-4,1-5.6,2.3c-0.2,0.2-0.6,0.4-0.3,0.8C129.2,303.9,129.5,303.5,129.7,303.3z" />
				<path class="st1" d="M150.3,297.4c0.1-0.1,0.2-0.2,0.3-0.2c0.7-0.6,1.5-0.9,2.4-1.1c1.3-0.3,2.7-0.4,4-0.1c0.2,0,0.5,0,0.5-0.2
				c0.1-0.3-0.2-0.4-0.4-0.5c-0.6-0.1-1.2-0.2-1.9-0.2c-1.7,0-3.4,0.4-4.8,1.4c-0.2,0.1-0.4,0.3-0.6,0.5c-0.1,0.1-0.1,0.3,0,0.4
				C150,297.5,150.1,297.5,150.3,297.4L150.3,297.4z" />
				<path class="st1" d="M146.8,308.7c0.4,0,0.7,0.2,1,0.4c0.2,0.2,0.4,0.5,0.3,0.9c-0.1,0.4-0.4,0.5-0.7,0.6c-0.2,0-0.3,0-0.5,0
				c-0.1,0-0.3,0.1-0.3,0.2c0,0.2,0.1,0.3,0.3,0.3c0.8,0.2,2.1-0.3,1.9-1.6c-0.1-0.8-1-1.5-1.9-1.5c-0.2,0-0.5,0-0.5,0.3
				C146.3,308.7,146.5,308.7,146.8,308.7L146.8,308.7z" />
				<path class="st1" d="M159,349c-0.2-0.2-0.5-0.1-0.7-0.2c-0.1-0.3,0.1-0.5,0.1-0.8c0-0.1,0-0.2-0.1-0.2c0,0-0.1,0-0.1,0
				c-0.6,0.5-0.4,1.9,0.2,2.2c0.4,0.2,0.8,0.1,1-0.3C159.5,349.5,159.4,349.2,159,349L159,349z M158.8,349.8c-0.3,0-0.4-0.2-0.5-0.5
				c0-0.2,0.1-0.1,0.2-0.2c0.3,0,0.5,0.1,0.5,0.4C159,349.7,158.9,349.8,158.8,349.8z" />
				<path class="st1" d="M150.1,372.7c-0.8,0.8-2,1-3.1,0.7c-1.1-0.3-1.9-1.1-2.2-2.2c0,0,0,0,0,0c0,0,0,0,0-0.1c0,0,0,0,0,0
				c0,0-0.1,0-0.1,0c0,0-0.1,0-0.1,0c0,0,0,0,0,0c0,0,0,0,0,0c0,0,0,0-0.1,0c-0.8,0.8-2,1-3.1,0.7c-1.1-0.3-1.9-1.1-2.2-2.2
				c0,0,0,0,0,0c0,0,0,0,0-0.1c0,0,0,0,0,0c0,0-0.1,0-0.1,0c0,0-0.1,0-0.1,0c0,0,0,0,0,0c0,0,0,0,0,0c0,0,0,0-0.1,0
				c-0.8,0.8-2,1-3.1,0.7s-1.9-1.1-2.2-2.2c0-0.1-0.2-0.2-0.3-0.2c-0.1,0-0.2,0.2-0.2,0.3c0.4,1.2,1.3,2.2,2.6,2.6
				c0.4,0.1,0.7,0.2,1.1,0.2c0.8,0,1.6-0.3,2.2-0.8c0.4,1.1,1.3,1.9,2.4,2.2c0.3,0.1,0.7,0.1,1.1,0.1c0.8,0,1.6-0.3,2.2-0.8
				c0.4,1.1,1.3,1.9,2.4,2.2c0.4,0.1,0.7,0.2,1.1,0.2c0.9,0,1.8-0.3,2.5-1c0.1-0.1,0.1-0.2,0-0.3
				C150.4,372.6,150.2,372.6,150.1,372.7L150.1,372.7z" />
				<path class="st1" d="M135.6,388.3c-1.1-0.3-1.9-1.1-2.2-2.2c0,0,0,0,0,0c0,0,0,0,0-0.1c0,0,0,0,0,0c0,0-0.1,0-0.1,0
				c0,0-0.1,0-0.1,0c0,0,0,0,0,0c0,0,0,0,0,0c0,0,0,0-0.1,0c-0.8,0.8-2,1-3.1,0.7c-1.1-0.3-1.9-1.1-2.2-2.2c0,0,0,0,0,0c0,0,0,0,0,0
				c0,0,0,0,0,0c0,0-0.1,0-0.1,0c0,0-0.1,0-0.1,0c0,0,0,0,0,0c0,0,0,0,0,0c0,0,0,0-0.1,0c-0.8,0.8-2,1-3.1,0.7
				c-1.1-0.3-1.9-1.1-2.2-2.2c0-0.1-0.2-0.2-0.3-0.2c-0.1,0-0.2,0.2-0.2,0.3c0.4,1.2,1.3,2.2,2.6,2.6c0.3,0.1,0.7,0.1,1.1,0.1
				c0.8,0,1.6-0.3,2.2-0.8c0.4,1.1,1.3,1.9,2.4,2.2c0.4,0.1,0.7,0.1,1.1,0.1c0.8,0,1.6-0.3,2.2-0.8c0.4,1.1,1.3,1.9,2.4,2.2
				c0.3,0.1,0.7,0.1,1.1,0.1c0.9,0,1.8-0.3,2.5-1c0.1-0.1,0.1-0.2,0-0.4c-0.1-0.1-0.2-0.1-0.3,0
				C137.8,388.3,136.7,388.6,135.6,388.3L135.6,388.3z" />
			</g>
			<path class="st1" d="M188,371.5L188,371.5L188,371.5L188,371.5L188,371.5z" />
			<path class="st1"
				d="M190.2,372.3L190.2,372.3C190.1,372.3,190.2,372.3,190.2,372.3L190.2,372.3L190.2,372.3z" />
		</g>
	</g>
	<text transform="matrix(1 0 0 1 84.3136 1073.072)" class="st2 st3">M</text>
	<text transform="matrix(1 0 0 1 1429.2841 1619.5837)" class="st2 st4">Den - Black</text>
	<text transform="matrix(0.9945 -0.1045 0.1045 0.9945 1151.7393 1079.1606)" class="st5 st6 st7">Moew</text>
	<text transform="matrix(0.9945 -0.1045 0.1045 0.9945 1151.7393 1079.1606)" class="st8 st6 st7">Moew</text>
	<circle class="st9" cx="1412.9" cy="1528.1" r="26.1" />
	<g>
		<path class="st10" d="M2746.9,715.4v48.8l0,0v28.3l0,0v13c0,31-12.2,60.7-34.1,82.6c-21.9,21.9-51.6,34.2-82.6,34.2H2550l0,0h-22.6
		l0,0H2310l0,0h-22.6l0,0h-80.2c-31,0-60.7-12.3-82.6-34.2c-21.2-21.2-33.4-49.7-34.1-79.5V671.1c0.7-29.9,12.9-58.4,34.1-79.5
		c21.9-21.9,51.6-34.2,82.6-34.2h197.4l0,0h28.3l0,0h197.4c31,0,60.7,12.3,82.6,34.2c21.9,21.9,34.2,51.6,34.2,82.6v13l0,0
		L2746.9,715.4L2746.9,715.4z" />
		<path class="st10" d="M2746.9,1086.8v48.8l0,0v28.3l0,0v13c0,31-12.2,60.7-34.1,82.6c-21.9,21.9-51.6,34.2-82.6,34.1H2550l0,0
		h-22.6l0,0H2310l0,0h-22.6l0,0h-80.2c-31,0-60.7-12.3-82.6-34.2c-21.2-21.2-33.4-49.7-34.1-79.5v-137.4
		c0.7-29.9,12.9-58.4,34.1-79.5c21.9-21.9,51.6-34.2,82.6-34.2h197.4l0,0h28.3l0,0h197.4c31,0,60.7,12.3,82.6,34.2
		c21.9,21.9,34.2,51.6,34.2,82.6v13l0,0L2746.9,1086.8L2746.9,1086.8z" />
	</g>
	<path class="st5"
		d="M1528.2,976.7v-28.3h-8.5v-13c0-31-12.3-60.7-34.2-82.6c-21.9-21.9-51.6-34.2-82.6-34.2h-197.4v-8.5h-28.3v8.5
	H979.9c-31,0-60.7,12.3-82.6,34.2c-21.9,21.9-34.2,51.6-34.2,82.6v13h-8.4v28.3h8.4v48.8h-8.4v28.3h8.4v13c0,31,12.3,60.7,34.2,82.6
	c21.9,21.9,51.6,34.2,82.6,34.2h80.2v8.5h22.6v-8.5h217.4v8.5h22.6v-8.5h80.2c31,0,60.7-12.2,82.6-34.1
	c21.9-21.9,34.2-51.6,34.1-82.6v-13h8.5v-28.3h-8.5v-48.8h8.6V976.7z M1465,1063.1c0,36.3-29.4,65.7-65.7,65.7H983.5
	c-36.3,0-65.7-29.4-65.7-65.7v-124c0-36.3,29.4-65.6,65.7-65.6h415.8c36.3,0,65.7,29.4,65.7,65.6L1465,1063.1L1465,1063.1z" />
	<path class="st5"
		d="M1528.2,601.8v-28.3h-8.5v-13c0-31-12.3-60.7-34.2-82.6c-21.9-21.9-51.6-34.2-82.6-34.2h-197.4v-8.4h-28.3v8.5
	H979.9c-31,0-60.7,12.3-82.6,34.2c-21.9,21.9-34.2,51.6-34.2,82.6v13h-8.4v28.3h8.4v48.8h-8.4V679h8.4v13c0,31,12.3,60.7,34.2,82.6
	c21.9,21.9,51.6,34.2,82.6,34.2h80.2v8.5h22.6v-8.5h217.4v8.5h22.6v-8.5h80.2c31,0,60.7-12.2,82.6-34.1
	c21.9-21.9,34.2-51.6,34.1-82.6v-13h8.5v-28.3h-8.5V602h8.6V601.8z M1465,688.2c0,36.3-29.4,65.7-65.7,65.7H983.5
	c-36.3,0-65.7-29.4-65.7-65.7v-124c0-36.3,29.4-65.6,65.7-65.6h415.8c36.3,0,65.7,29.4,65.7,65.6L1465,688.2L1465,688.2z" />
	<g>
		<path d="M2367,1339.6c-0.9,0-1.8,0.2-2.7,0.7s-1.6,1.1-2.1,1.9l-22.2,33.2l-21.6-33.2c-0.5-0.8-1.3-1.4-2.3-1.9s-2-0.7-3-0.7
		c-1.7,0-3.2,0.6-4.4,1.8c-1.2,1.2-1.8,2.6-1.8,4.3v57.3c0,1.7,0.5,3.2,1.6,4.3c1.1,1.2,2.4,1.7,4.1,1.7c1.7,0,3.1-0.6,4.2-1.7
		c1.1-1.1,1.6-2.6,1.6-4.4v-40.8l16.3,25.8c0.7,0.8,1.4,1.4,2.3,1.9c0.9,0.5,1.7,0.7,2.6,0.6c0.9,0.1,1.8-0.1,2.7-0.6
		s1.6-1.1,2.3-1.9l16.3-24.9v39.9c0,1.8,0.6,3.2,1.7,4.4c1.2,1.1,2.7,1.7,4.5,1.7s3.3-0.6,4.5-1.7c1.1-1.2,1.7-2.6,1.7-4.3v-57.3
		c0-1.7-0.6-3.2-1.8-4.3C2370.1,1340.2,2368.6,1339.6,2367,1339.6z" />
		<path d="M2392.2,1356c-1.7,0-3.1,0.6-4.3,1.7c-1.1,1.2-1.7,2.6-1.7,4.3v40.9c0,1.7,0.6,3.2,1.7,4.3c1.1,1.2,2.5,1.7,4.3,1.7
		c1.7,0,3.1-0.6,4.3-1.7c1.1-1.2,1.7-2.6,1.7-4.3V1362c0-1.7-0.6-3.2-1.7-4.3C2395.4,1356.6,2394,1356,2392.2,1356z" />
		<path d="M2392.2,1337.8c-2.2,0-3.8,0.4-4.8,1.1s-1.5,2-1.5,3.9v1.9c0,1.8,0.5,3.1,1.4,3.9c0.9,0.7,2.5,1.1,4.8,1.1s3.9-0.3,4.9-1
		c1-0.7,1.4-2,1.4-3.9v-1.9c0-1.8-0.5-3.1-1.4-3.9C2396.2,1338.2,2394.6,1337.8,2392.2,1337.8z" />
		<path d="M2447.4,1395.3c-0.9,0-1.6,0.1-2.2,0.4c-0.6,0.3-1.2,0.6-1.9,1.1s-1.2,0.8-1.6,1c-1.6,0.8-4,1.2-7.2,1.2
		c-4.4,0-8.1-1.6-10.9-4.7c-2.8-3.1-4.3-7.1-4.3-11.8c0-5,1.4-9,4.2-12c2.8-3.1,6.7-4.6,11.6-4.6c0.8,0,1.8,0.1,3.1,0.4
		s2.3,0.6,2.9,0.9c0.6,0.3,1.2,0.7,1.8,1.2s1.3,0.9,1.9,1.2c0.7,0.3,1.5,0.4,2.6,0.4c1.4,0,2.5-0.5,3.4-1.6s1.3-2.4,1.3-3.8
		c0-2.9-1.7-5.2-5.1-7c-3.4-1.7-8-2.6-13.6-2.6c-5,0-9.5,1.2-13.5,3.5c-4,2.3-7,5.6-9.3,9.8c-2.2,4.2-3.3,8.9-3.3,14.3
		c0,5.1,1.1,9.8,3.2,14c2.1,4.2,5.1,7.5,9,9.9s8.3,3.6,13.4,3.6c3.4,0,6.7-0.4,9.7-1.2c3-0.8,5.5-1.9,7.3-3.3
		c1.8-1.4,2.8-2.9,2.8-4.5s-0.5-3-1.4-4.1C2450.3,1395.9,2449,1395.3,2447.4,1395.3z" />
		<path d="M2508.5,1356.7c-1.1-1.1-2.5-1.7-4.3-1.7c-1.7,0-3.1,0.6-4.3,1.7c-1.1,1.2-1.7,2.6-1.7,4.3v0.1c-1.9-1.8-4.3-3.2-7-4.4
		c-2.8-1.2-5.7-1.7-8.9-1.7c-4.4,0-8.5,1.2-12.1,3.5c-3.7,2.3-6.6,5.6-8.7,9.8c-2.1,4.2-3.2,8.9-3.2,14.2c0,5.3,1.1,10,3.2,14.2
		c2.1,4.2,5.1,7.4,8.8,9.8c3.7,2.3,7.8,3.5,12.4,3.5c3.1,0,6.1-0.7,8.9-2c2.8-1.4,5-3,6.7-4.9c0.1,1.7,0.6,3.1,1.7,4.3
		c1.1,1.1,2.5,1.7,4.2,1.7s3.1-0.6,4.3-1.7c1.1-1.2,1.7-2.6,1.7-4.3v-41.9C2510.2,1359.3,2509.6,1357.9,2508.5,1356.7z
		 M2494.7,1394.4c-2.7,3.1-6.2,4.7-10.5,4.7s-7.8-1.6-10.4-4.7c-2.7-3.1-4-7.1-4-11.8c0-4.7,1.4-8.7,4.1-11.9
		c2.7-3.2,6.2-4.8,10.4-4.8c4.3,0,7.8,1.6,10.5,4.8c2.7,3.2,4.1,7.1,4.1,11.9S2497.4,1391.3,2494.7,1394.4z" />
	</g>
	<g>
		<g>
			<path d="M1744.2,1361.7v9.9c0,2.3,2.7,4.2,6,4.2h1.2c3.3,0,6,1.9,6,4.2v9.9c0,2.3-2.7,4.2-6,4.2h-59.3c-3.3,0-6-1.9-6-4.2v-9.9
			c0-2.3,2.7-4.2,6-4.2h1.2c3.3,0,6-1.9,6-4.2v-9.9c0-2.3-2.7-4.2-6-4.2v-0.1h-59.5v0.1c-3.2,0.1-5.8,1.9-5.8,4.2v9.9
			c0,2.3,2.7,4.2,6,4.2h1.2c3.3,0,6,1.9,6,4.2v9.9c0,2.3-2.7,4.2-6,4.2h-59.3c-3.3,0-6-1.9-6-4.2v-9.9c0-2.3,2.7-4.2,6-4.2h1.2
			c3.3,0,6-1.9,6-4.2v-9.9c0-2.3-2.7-4.2-6-4.2v-0.1H1536V435.3h41.1v0.1c3.3,0,6,1.9,6,4.2v9.8c0,2.3-2.7,4.2-6,4.2h-1.2
			c-3.3,0-6,1.9-6,4.2v9.9c0,2.3,2.7,4.2,6,4.2h59.3c3.3,0,6-1.9,6-4.2v-9.9c0-2.3-2.7-4.2-6-4.2h-1.2c-3.3,0-6-1.9-6-4.2v-9.9
			c0-2.3,2.6-4.1,5.8-4.2l0,0h59.5v0.1c3.3,0,6,1.9,6,4.2v9.8c0,2.3-2.7,4.2-6,4.2h-1.2c-3.3,0-6,1.9-6,4.2v9.9c0,2.3,2.7,4.2,6,4.2
			h59.3c3.3,0,6-1.9,6-4.2v-9.9c0-2.3-2.7-4.2-6-4.2h-1.2c-3.3,0-6-1.9-6-4.2v-9.9c0-2.3,2.6-4.1,5.8-4.2l0,0h41.3v922.2H1750v0.1
			C1746.8,1357.6,1744.2,1359.5,1744.2,1361.7z" />
			<rect x="1545.6" y="478" class="st10" width="8.5" height="28.3" />
			<rect x="1545.6" y="783.4" class="st10" width="8.5" height="22.6" />
			<rect x="1545.6" y="1023.4" class="st10" width="8.5" height="22.6" />
			<rect x="1545.6" y="1323.1" class="st10" width="8.5" height="28.3" />
			<rect x="1773.2" y="478" class="st10" width="8.5" height="28.3" />
			<rect x="1773.2" y="783.4" class="st10" width="8.5" height="22.6" />
			<rect x="1773.2" y="1023.4" class="st10" width="8.5" height="22.6" />
			<rect x="1773.2" y="1323.1" class="st10" width="8.5" height="28.3" />
			<g id="POLYLINE_00000009570830822342720300000011983516098343901068_">
				<line class="st11" x1="1596.1" y1="519.2" x2="1536" y2="519.2" />
			</g>
			<g id="POLYLINE_00000062912352275716011710000000500638423312635547_">
				<line class="st11" x1="1610.8" y1="519.2" x2="1717.3" y2="519.2" />
			</g>
			<g id="POLYLINE_00000045606203435082220730000005786787860928402343_">
				<line class="st11" x1="1791.3" y1="519.2" x2="1732" y2="519.2" />
			</g>
			<g id="POLYLINE_00000168838044812224869050000015409761271680458923_">
				<line class="st11" x1="1671.4" y1="526.5" x2="1777.9" y2="526.5" />
			</g>
			<g id="POLYLINE_00000116201082355716077730000011023075913240597920_">
				<line class="st11" x1="1791.3" y1="533.9" x2="1732" y2="533.9" />
			</g>
			<g id="POLYLINE_00000011718189789155445480000009088177131774525370_">
				<line class="st11" x1="1550.1" y1="526.5" x2="1656.7" y2="526.5" />
			</g>
			<g id="POLYLINE_00000050635099907687462070000015632426156782095276_">
				<line class="st11" x1="1610.8" y1="533.9" x2="1717.3" y2="533.9" />
			</g>
			<g id="POLYLINE_00000013151189641826280690000003031370290978325669_">
				<line class="st11" x1="1596.1" y1="533.9" x2="1536" y2="533.9" />
			</g>
			<g id="POLYLINE_00000130624150576172545000000005697968421138359970_">
				<line class="st11" x1="1596.1" y1="548.6" x2="1536" y2="548.6" />
			</g>
			<g id="POLYLINE_00000076581934504905273230000000161899857655175328_">
				<line class="st11" x1="1550.1" y1="541.2" x2="1656.7" y2="541.2" />
			</g>
			<g id="POLYLINE_00000060745710311065336820000010111375039873181363_">
				<line class="st11" x1="1671.4" y1="541.2" x2="1777.9" y2="541.2" />
			</g>
			<g id="POLYLINE_00000178175035697095959260000003192641423187335602_">
				<line class="st11" x1="1791.3" y1="548.6" x2="1732" y2="548.6" />
			</g>
			<g id="POLYLINE_00000158737389775021851000000002995264333435526308_">
				<line class="st11" x1="1610.8" y1="548.6" x2="1717.3" y2="548.6" />
			</g>
			<g id="POLYLINE_00000029010116850261787230000016476759637940033159_">
				<line class="st11" x1="1671.4" y1="556" x2="1777.9" y2="556" />
			</g>
			<g id="POLYLINE_00000114032624733885858130000004736844641158028961_">
				<line class="st11" x1="1550.1" y1="556" x2="1656.7" y2="556" />
			</g>
			<g id="POLYLINE_00000015342750557847312560000003598100626069598344_">
				<line class="st11" x1="1610.8" y1="563.3" x2="1717.3" y2="563.3" />
			</g>
			<g id="POLYLINE_00000144317005445340536410000010740282878623361670_">
				<line class="st11" x1="1596.1" y1="563.3" x2="1536" y2="563.3" />
			</g>
			<g id="POLYLINE_00000170255870074867512340000014756792175192033194_">
				<line class="st11" x1="1791.3" y1="563.3" x2="1732" y2="563.3" />
			</g>
			<g id="POLYLINE_00000088837878165116193840000003619008116381743761_">
				<line class="st11" x1="1550.1" y1="572.4" x2="1656.7" y2="572.4" />
			</g>
			<g id="POLYLINE_00000064316388155971973010000016858838903309738636_">
				<line class="st11" x1="1671.4" y1="572.4" x2="1777.9" y2="572.4" />
			</g>
			<g id="POLYLINE_00000029040773325613667460000006379447763470665859_">
				<line class="st11" x1="1596.1" y1="579.7" x2="1536" y2="579.7" />
			</g>
			<g id="POLYLINE_00000058580175470108844770000010961143120400878756_">
				<line class="st11" x1="1791.3" y1="579.7" x2="1732" y2="579.7" />
			</g>
			<g id="POLYLINE_00000165194425800638457940000009387430546662050746_">
				<line class="st11" x1="1610.8" y1="579.7" x2="1717.3" y2="579.7" />
			</g>
			<g id="POLYLINE_00000023269169394219836750000001326472706202976191_">
				<line class="st11" x1="1610.8" y1="609.2" x2="1717.3" y2="609.2" />
			</g>
			<g id="POLYLINE_00000118365735611712113050000007242581730400184487_">
				<line class="st11" x1="1596.1" y1="609.2" x2="1536" y2="609.2" />
			</g>
			<g id="POLYLINE_00000085230555655596358510000014107683518193399468_">
				<line class="st11" x1="1671.4" y1="587.1" x2="1777.9" y2="587.1" />
			</g>
			<g id="POLYLINE_00000138549602950810282210000015267093954483339935_">
				<line class="st11" x1="1610.8" y1="594.4" x2="1717.3" y2="594.4" />
			</g>
			<g id="POLYLINE_00000127766666942658420060000012892775587933164939_">
				<line class="st11" x1="1791.3" y1="594.4" x2="1732" y2="594.4" />
			</g>
			<g id="POLYLINE_00000114764573584586159890000015182804414914608516_">
				<line class="st11" x1="1671.4" y1="618.2" x2="1777.9" y2="618.2" />
			</g>
			<g id="POLYLINE_00000042731598396128948110000005113299670000979846_">
				<line class="st11" x1="1596.1" y1="625.6" x2="1536" y2="625.6" />
			</g>
			<g id="POLYLINE_00000013187334500080267460000010660815947168470423_">
				<line class="st11" x1="1791.3" y1="625.6" x2="1732" y2="625.6" />
			</g>
			<g id="POLYLINE_00000080179847177227302820000012549022814314512568_">
				<line class="st11" x1="1550.1" y1="587.1" x2="1656.7" y2="587.1" />
			</g>
			<g id="POLYLINE_00000106138891224608964960000006373009853878499507_">
				<line class="st11" x1="1610.8" y1="625.6" x2="1717.3" y2="625.6" />
			</g>
			<g id="POLYLINE_00000177450488712919002090000017636252332516120744_">
				<line class="st11" x1="1550.1" y1="618.2" x2="1656.7" y2="618.2" />
			</g>
			<g id="POLYLINE_00000161609961036761276540000009073892055291304631_">
				<line class="st11" x1="1596.1" y1="594.4" x2="1536" y2="594.4" />
			</g>
			<g id="POLYLINE_00000117660866347989311470000011516293840394187168_">
				<line class="st11" x1="1791.3" y1="609.2" x2="1732" y2="609.2" />
			</g>
			<g id="POLYLINE_00000054954111578777975460000010814161796014334354_">
				<line class="st11" x1="1671.4" y1="601.8" x2="1777.9" y2="601.8" />
			</g>
			<g id="POLYLINE_00000056400438257900352000000013438913257029882007_">
				<line class="st11" x1="1550.1" y1="601.8" x2="1656.7" y2="601.8" />
			</g>
			<g id="POLYLINE_00000070080021896007234860000014186739887198197888_">
				<line class="st11" x1="1610.8" y1="655" x2="1717.3" y2="655" />
			</g>
			<g id="POLYLINE_00000071530619766757950620000005178251575311324838_">
				<line class="st11" x1="1791.3" y1="655" x2="1732" y2="655" />
			</g>
			<g id="POLYLINE_00000066513319683376915870000017275363315311272836_">
				<line class="st11" x1="1550.1" y1="647.6" x2="1656.7" y2="647.6" />
			</g>
			<g id="POLYLINE_00000057133098879246317790000016564395137410162849_">
				<line class="st11" x1="1610.8" y1="640.3" x2="1717.3" y2="640.3" />
			</g>
			<g id="POLYLINE_00000070104380153592891360000006624838803189743256_">
				<line class="st11" x1="1596.1" y1="655" x2="1536" y2="655" />
			</g>
			<g id="POLYLINE_00000096017498298526220030000007161582126794392196_">
				<line class="st11" x1="1791.3" y1="640.3" x2="1732" y2="640.3" />
			</g>
			<g id="POLYLINE_00000065780964402368600390000000227557108113708447_">
				<line class="st11" x1="1671.4" y1="632.9" x2="1777.9" y2="632.9" />
			</g>
			<g id="POLYLINE_00000165201718543933474520000014986984088259516290_">
				<line class="st11" x1="1550.1" y1="632.9" x2="1656.7" y2="632.9" />
			</g>
			<g id="POLYLINE_00000166636408162369821770000010226319330028123580_">
				<line class="st11" x1="1596.1" y1="640.3" x2="1536" y2="640.3" />
			</g>
			<g id="POLYLINE_00000094605153612506952700000009807442164177626040_">
				<line class="st11" x1="1671.4" y1="647.6" x2="1777.9" y2="647.6" />
			</g>
			<g id="POLYLINE_00000005986778367172137670000015904207920458675331_">
				<line class="st11" x1="1596.1" y1="671.4" x2="1536" y2="671.4" />
			</g>
			<g id="POLYLINE_00000121280088377576420610000011826241611240430005_">
				<line class="st11" x1="1671.4" y1="664" x2="1777.9" y2="664" />
			</g>
			<g id="POLYLINE_00000062911749812823701460000016414138083312073618_">
				<line class="st11" x1="1671.4" y1="678.8" x2="1777.9" y2="678.8" />
			</g>
			<g id="POLYLINE_00000078727561158057277180000009334503900043429767_">
				<line class="st11" x1="1550.1" y1="678.8" x2="1656.7" y2="678.8" />
			</g>
			<g id="POLYLINE_00000000207702319278323140000018245321166418903729_">
				<line class="st11" x1="1550.1" y1="664" x2="1656.7" y2="664" />
			</g>
			<g id="POLYLINE_00000122722042651782537390000015255524918080881337_">
				<line class="st11" x1="1550.1" y1="695.1" x2="1656.7" y2="695.1" />
			</g>
			<g id="POLYLINE_00000049223867339912721850000016768618392278620329_">
				<line class="st11" x1="1596.1" y1="686.1" x2="1536" y2="686.1" />
			</g>
			<g id="POLYLINE_00000065788284156960891660000001620619858266331061_">
				<line class="st11" x1="1791.3" y1="686.1" x2="1732" y2="686.1" />
			</g>
			<g id="POLYLINE_00000053539857743244477960000007642097626128156830_">
				<line class="st11" x1="1671.4" y1="695.1" x2="1777.9" y2="695.1" />
			</g>
			<g id="POLYLINE_00000100378846686054557970000000184145634659126702_">
				<line class="st11" x1="1610.8" y1="671.4" x2="1717.3" y2="671.4" />
			</g>
			<g id="POLYLINE_00000119100570660697874520000016593769393215661744_">
				<line class="st11" x1="1610.8" y1="686.1" x2="1717.3" y2="686.1" />
			</g>
			<g id="POLYLINE_00000072275933540062377080000001602627731831081389_">
				<line class="st11" x1="1791.3" y1="671.4" x2="1732" y2="671.4" />
			</g>
			<g id="POLYLINE_00000143597081924744754120000013442199718631807624_">
				<line class="st11" x1="1610.8" y1="702.5" x2="1717.3" y2="702.5" />
			</g>
			<g id="POLYLINE_00000019670383461167462330000005714179533985069750_">
				<line class="st11" x1="1791.3" y1="702.5" x2="1732" y2="702.5" />
			</g>
			<g id="POLYLINE_00000066517403955917596150000006445448550131735469_">
				<line class="st11" x1="1596.1" y1="702.5" x2="1536" y2="702.5" />
			</g>
			<g id="POLYLINE_00000134235202509007960800000003250565284848795264_">
				<line class="st11" x1="1595.6" y1="1126.5" x2="1536" y2="1126.5" />
			</g>
			<g id="POLYLINE_00000073688856894028353000000014460015535694922881_">
				<line class="st11" x1="1610.3" y1="1126.5" x2="1716.8" y2="1126.5" />
			</g>
			<g id="POLYLINE_00000044139670857434668140000017031636149376011909_">
				<line class="st11" x1="1791.3" y1="1126.5" x2="1731.5" y2="1126.5" />
			</g>
			<g id="POLYLINE_00000112610675076690465140000001032055994915546791_">
				<line class="st11" x1="1670.9" y1="1133.8" x2="1777.4" y2="1133.8" />
			</g>
			<g id="POLYLINE_00000170278949779430410580000002032269725830598017_">
				<line class="st11" x1="1791.3" y1="1141.2" x2="1731.5" y2="1141.2" />
			</g>
			<g id="POLYLINE_00000006688482161473422370000004709668945595930759_">
				<line class="st11" x1="1549.6" y1="1133.8" x2="1656.2" y2="1133.8" />
			</g>
			<g id="POLYLINE_00000005259738361222126860000015686840577771097994_">
				<line class="st11" x1="1610.3" y1="1141.2" x2="1716.8" y2="1141.2" />
			</g>
			<g id="POLYLINE_00000046337638277825208150000015909706360412030355_">
				<line class="st11" x1="1595.6" y1="1141.2" x2="1536" y2="1141.2" />
			</g>
			<g id="POLYLINE_00000142167568114047246940000011092798787310705836_">
				<line class="st11" x1="1595.6" y1="1155.9" x2="1536" y2="1155.9" />
			</g>
			<g id="POLYLINE_00000127756838215319373400000013221622211960140468_">
				<line class="st11" x1="1549.6" y1="1148.5" x2="1656.2" y2="1148.5" />
			</g>
			<g id="POLYLINE_00000068676295165607959070000005695176553023542691_">
				<line class="st11" x1="1670.9" y1="1148.5" x2="1777.4" y2="1148.5" />
			</g>
			<g id="POLYLINE_00000022543035481853548260000003445888132468338821_">
				<line class="st11" x1="1791.3" y1="1155.9" x2="1731.5" y2="1155.9" />
			</g>
			<g id="POLYLINE_00000124870961589626896870000009943090067007495051_">
				<line class="st11" x1="1610.3" y1="1155.9" x2="1716.8" y2="1155.9" />
			</g>
			<g id="POLYLINE_00000181805696228857301310000011485987071888682151_">
				<line class="st11" x1="1670.9" y1="1163.3" x2="1777.4" y2="1163.3" />
			</g>
			<g id="POLYLINE_00000014618518700836418750000017118364113124838073_">
				<line class="st11" x1="1549.6" y1="1163.3" x2="1656.2" y2="1163.3" />
			</g>
			<g id="POLYLINE_00000092431585043099659760000013806850430349044625_">
				<line class="st11" x1="1610.3" y1="1170.6" x2="1716.8" y2="1170.6" />
			</g>
			<g id="POLYLINE_00000082346421456276097600000007510858963540633019_">
				<line class="st11" x1="1595.6" y1="1170.6" x2="1536" y2="1170.6" />
			</g>
			<g id="POLYLINE_00000022536558646253967100000006375774444751848591_">
				<line class="st11" x1="1791.3" y1="1170.6" x2="1731.5" y2="1170.6" />
			</g>
			<g id="POLYLINE_00000054260088189908556150000001940612418150421159_">
				<line class="st11" x1="1549.6" y1="1179.6" x2="1656.2" y2="1179.6" />
			</g>
			<g id="POLYLINE_00000106867154160923255940000004399774576761445041_">
				<line class="st11" x1="1670.9" y1="1179.6" x2="1777.4" y2="1179.6" />
			</g>
			<g id="POLYLINE_00000096059951449249986300000003367931714114069130_">
				<line class="st11" x1="1595.6" y1="1187" x2="1536" y2="1187" />
			</g>
			<g id="POLYLINE_00000049204453590663641140000002802592715400047793_">
				<line class="st11" x1="1791.3" y1="1187" x2="1731.5" y2="1187" />
			</g>
			<g id="POLYLINE_00000026154392963277091380000004463533530692948657_">
				<line class="st11" x1="1610.3" y1="1187" x2="1716.8" y2="1187" />
			</g>
			<g id="POLYLINE_00000075853618760270532500000006313748490270069179_">
				<line class="st11" x1="1610.3" y1="1216.5" x2="1716.8" y2="1216.5" />
			</g>
			<g id="POLYLINE_00000142855665255460210030000007519593325027882397_">
				<line class="st11" x1="1595.6" y1="1216.5" x2="1536" y2="1216.5" />
			</g>
			<g id="POLYLINE_00000168110362529661561200000001577907211607260061_">
				<line class="st11" x1="1670.9" y1="1194.4" x2="1777.4" y2="1194.4" />
			</g>
			<g id="POLYLINE_00000073681824591474607850000012742705380862152869_">
				<line class="st11" x1="1610.3" y1="1201.7" x2="1716.8" y2="1201.7" />
			</g>
			<g id="POLYLINE_00000098217860626289343360000004662111429470785675_">
				<line class="st11" x1="1791.3" y1="1201.7" x2="1731.5" y2="1201.7" />
			</g>
			<g id="POLYLINE_00000128486888518882285320000016830024812343985063_">
				<line class="st11" x1="1670.9" y1="1225.5" x2="1777.4" y2="1225.5" />
			</g>
			<g id="POLYLINE_00000167380899612035902470000009959003547404760498_">
				<line class="st11" x1="1595.6" y1="1232.8" x2="1536" y2="1232.8" />
			</g>
			<g id="POLYLINE_00000076588269244261895320000012722350750645131666_">
				<line class="st11" x1="1791.3" y1="1232.8" x2="1731.5" y2="1232.8" />
			</g>
			<g id="POLYLINE_00000163762528765852396600000005004284755799250330_">
				<line class="st11" x1="1549.6" y1="1194.4" x2="1656.2" y2="1194.4" />
			</g>
			<g id="POLYLINE_00000052076811926521856440000014035293554664516521_">
				<line class="st11" x1="1610.3" y1="1232.8" x2="1716.8" y2="1232.8" />
			</g>
			<g id="POLYLINE_00000162319419812946463910000016873731668556689839_">
				<line class="st11" x1="1549.6" y1="1225.5" x2="1656.2" y2="1225.5" />
			</g>
			<g id="POLYLINE_00000066516152893509801620000002289079675273676730_">
				<line class="st11" x1="1595.6" y1="1201.7" x2="1536" y2="1201.7" />
			</g>
			<g id="POLYLINE_00000013170905904557447630000005638427715787254923_">
				<line class="st11" x1="1791.3" y1="1216.5" x2="1731.5" y2="1216.5" />
			</g>
			<g id="POLYLINE_00000035522228198260502170000016536175959271618975_">
				<line class="st11" x1="1670.9" y1="1209.1" x2="1777.4" y2="1209.1" />
			</g>
			<g id="POLYLINE_00000169525598244664171520000007615813696724282523_">
				<line class="st11" x1="1549.6" y1="1209.1" x2="1656.2" y2="1209.1" />
			</g>
			<g id="POLYLINE_00000123438190373056599530000012558856881026829472_">
				<line class="st11" x1="1610.3" y1="1262.3" x2="1716.8" y2="1262.3" />
			</g>
			<g id="POLYLINE_00000083806043337280966880000015847432196379681707_">
				<line class="st11" x1="1791.3" y1="1262.3" x2="1731.5" y2="1262.3" />
			</g>
			<g id="POLYLINE_00000050629633331356585630000016790363569298893708_">
				<line class="st11" x1="1549.6" y1="1254.9" x2="1656.2" y2="1254.9" />
			</g>
			<g id="POLYLINE_00000016768829280731469380000008088184072352863920_">
				<line class="st11" x1="1610.3" y1="1247.6" x2="1716.8" y2="1247.6" />
			</g>
			<g id="POLYLINE_00000038387883521403734760000014553874447534084010_">
				<line class="st11" x1="1595.6" y1="1262.3" x2="1536" y2="1262.3" />
			</g>
			<g id="POLYLINE_00000139274678825643583350000012932944227637768109_">
				<line class="st11" x1="1791.3" y1="1247.6" x2="1731.5" y2="1247.6" />
			</g>
			<g id="POLYLINE_00000132071419855869327750000015659909442980817061_">
				<line class="st11" x1="1670.9" y1="1240.2" x2="1777.4" y2="1240.2" />
			</g>
			<g id="POLYLINE_00000016053302229488143040000012058564563800640934_">
				<line class="st11" x1="1549.6" y1="1240.2" x2="1656.2" y2="1240.2" />
			</g>
			<g id="POLYLINE_00000019651815670618007600000000822074200109669540_">
				<line class="st11" x1="1595.6" y1="1247.6" x2="1536" y2="1247.6" />
			</g>
			<g id="POLYLINE_00000141457156851749558290000001490703270885511572_">
				<line class="st11" x1="1670.9" y1="1254.9" x2="1777.4" y2="1254.9" />
			</g>
			<g id="POLYLINE_00000013156365281626956660000017878509611335881358_">
				<line class="st11" x1="1595.6" y1="1278.7" x2="1536" y2="1278.7" />
			</g>
			<g id="POLYLINE_00000100370965232810546500000002429155856275569838_">
				<line class="st11" x1="1670.9" y1="1271.3" x2="1777.4" y2="1271.3" />
			</g>
			<g id="POLYLINE_00000173120955334845306170000003640615174104906936_">
				<line class="st11" x1="1670.9" y1="1286" x2="1777.4" y2="1286" />
			</g>
			<g id="POLYLINE_00000048493074179281457240000006547246240320591018_">
				<line class="st11" x1="1549.6" y1="1286" x2="1656.2" y2="1286" />
			</g>
			<g id="POLYLINE_00000175324901009384783140000016792236958143101110_">
				<line class="st11" x1="1549.6" y1="1271.3" x2="1656.2" y2="1271.3" />
			</g>
			<g id="POLYLINE_00000043457610466424206380000005391599486433465787_">
				<line class="st11" x1="1549.6" y1="1302.4" x2="1656.2" y2="1302.4" />
			</g>
			<g id="POLYLINE_00000075884404672346391780000000509771267294144916_">
				<line class="st11" x1="1595.6" y1="1293.4" x2="1536" y2="1293.4" />
			</g>
			<g id="POLYLINE_00000093169920538504445810000008972307609629547953_">
				<line class="st11" x1="1791.3" y1="1293.4" x2="1731.5" y2="1293.4" />
			</g>
			<g id="POLYLINE_00000053517122530528205510000013575470409383844762_">
				<line class="st11" x1="1670.9" y1="1302.4" x2="1777.4" y2="1302.4" />
			</g>
			<g id="POLYLINE_00000041271677714770733870000016909436941046944952_">
				<line class="st11" x1="1610.3" y1="1278.7" x2="1716.8" y2="1278.7" />
			</g>
			<g id="POLYLINE_00000016064423499528811370000014981469074964895889_">
				<line class="st11" x1="1610.3" y1="1293.4" x2="1716.8" y2="1293.4" />
			</g>
			<g id="POLYLINE_00000010286554795854575430000009337714226387642755_">
				<line class="st11" x1="1791.3" y1="1278.7" x2="1731.5" y2="1278.7" />
			</g>
			<g id="POLYLINE_00000077318012378420270220000002276066749733599395_">
				<line class="st11" x1="1610.3" y1="1309.8" x2="1716.8" y2="1309.8" />
			</g>
			<g id="POLYLINE_00000011746818441240739170000016682191961730251452_">
				<line class="st11" x1="1791.3" y1="1309.8" x2="1731.5" y2="1309.8" />
			</g>
			<g id="POLYLINE_00000071556625578684769280000014403372570863985840_">
				<line class="st11" x1="1595.6" y1="1309.8" x2="1536" y2="1309.8" />
			</g>
		</g>
		<g>
			<g>
				<path d="M2003.4,1361.7v9.9c0,2.3,2.7,4.2,6,4.2h1.2c3.3,0,6,1.9,6,4.2v9.9c0,2.3-2.7,4.2-6,4.2h-59.3c-3.3,0-6-1.9-6-4.2v-9.9
				c0-2.3,2.7-4.2,6-4.2h1.2c3.3,0,6-1.9,6-4.2v-9.9c0-2.3-2.7-4.2-6-4.2v-0.1H1893v0.1c-3.2,0.1-5.8,1.9-5.8,4.2v9.9
				c0,2.3,2.7,4.2,6,4.2h1.2c3.3,0,6,1.9,6,4.2v9.9c0,2.3-2.7,4.2-6,4.2h-59.3c-3.3,0-6-1.9-6-4.2v-9.9c0-2.3,2.7-4.2,6-4.2h1.2
				c3.3,0,6-1.9,6-4.2v-9.9c0-2.3-2.7-4.2-6-4.2v-0.1h-41.1V435.3h41.1v0.1c3.3,0,6,1.9,6,4.2v9.8c0,2.3-2.7,4.2-6,4.2h-1.2
				c-3.3,0-6,1.9-6,4.2v9.9c0,2.3,2.7,4.2,6,4.2h59.3c3.3,0,6-1.9,6-4.2v-9.9c0-2.3-2.7-4.2-6-4.2h-1.2c-3.3,0-6-1.9-6-4.2v-9.9
				c0-2.3,2.6-4.1,5.8-4.2l0,0h59.5v0.1c3.3,0,6,1.9,6,4.2v9.8c0,2.3-2.7,4.2-6,4.2h-1.2c-3.3,0-6,1.9-6,4.2v9.9
				c0,2.3,2.7,4.2,6,4.2h59.3c3.3,0,6-1.9,6-4.2v-9.9c0-2.3-2.7-4.2-6-4.2h-1.2c-3.3,0-6-1.9-6-4.2v-9.9c0-2.3,2.6-4.1,5.8-4.2l0,0
				h41.3v922.2h-41.3v0.1C2006,1357.6,2003.4,1359.5,2003.4,1361.7z" />
			</g>
			<g>
				<g id="POLYLINE_00000116951525351163924250000000805434798158965408_">
					<line class="st11" x1="1990.4" y1="1309.3" x2="2050.4" y2="1309.3" />
				</g>
				<g id="POLYLINE_00000019657570925134201910000008013459600544545195_">
					<line class="st11" x1="1975.7" y1="1309.4" x2="1869.1" y2="1309.4" />
				</g>
				<g id="POLYLINE_00000107553336060074729150000013438119940657741232_">
					<line class="st11" x1="1795.1" y1="1309.3" x2="1854.4" y2="1309.3" />
				</g>
				<g id="POLYLINE_00000041296181003447471900000012686891759387332529_">
					<line class="st11" x1="1915" y1="1302" x2="1808.5" y2="1302" />
				</g>
				<g id="POLYLINE_00000168089094100034525170000015683804119021831045_">
					<line class="st11" x1="1795.1" y1="1294.6" x2="1854.4" y2="1294.6" />
				</g>
				<g id="POLYLINE_00000018934300264659887490000017235547991380538240_">
					<line class="st11" x1="2036.3" y1="1302" x2="1929.7" y2="1302" />
				</g>
				<g id="POLYLINE_00000114038458749687375620000003608608054438147462_">
					<line class="st11" x1="1975.7" y1="1294.6" x2="1869.1" y2="1294.6" />
				</g>
				<g id="POLYLINE_00000142138162743987197840000001730558455873388434_">
					<line class="st11" x1="1990.4" y1="1294.6" x2="2050.4" y2="1294.6" />
				</g>
				<g id="POLYLINE_00000023988427725675201510000016689564807784270983_">
					<line class="st11" x1="1990.4" y1="1279.9" x2="2050.4" y2="1279.9" />
				</g>
				<g id="POLYLINE_00000147902655010911032240000009460992391204194235_">
					<line class="st11" x1="2036.3" y1="1287.3" x2="1929.7" y2="1287.3" />
				</g>
				<g id="POLYLINE_00000151540277516478097250000012965600640831853982_">
					<line class="st11" x1="1915" y1="1287.3" x2="1808.5" y2="1287.3" />
				</g>
				<g id="POLYLINE_00000064319784261987546960000015108854342666543780_">
					<line class="st11" x1="1795.1" y1="1279.9" x2="1854.4" y2="1279.9" />
				</g>
				<g id="POLYLINE_00000086657251903774034570000010421604066646825143_">
					<line class="st11" x1="1975.7" y1="1279.9" x2="1869.1" y2="1279.9" />
				</g>
				<g id="POLYLINE_00000146494888704967069820000005306536758114312088_">
					<line class="st11" x1="1915" y1="1272.5" x2="1808.5" y2="1272.5" />
				</g>
				<g id="POLYLINE_00000029044542297959735780000011565167423061452730_">
					<line class="st11" x1="2036.3" y1="1272.5" x2="1929.7" y2="1272.5" />
				</g>
				<g id="POLYLINE_00000023979051789865515380000005434575763498803891_">
					<line class="st11" x1="1975.7" y1="1265.2" x2="1869.1" y2="1265.2" />
				</g>
				<g id="POLYLINE_00000093164028759214355560000012731559599997422004_">
					<line class="st11" x1="1990.4" y1="1265.2" x2="2050.4" y2="1265.2" />
				</g>
				<g id="POLYLINE_00000142144284459159452970000007519800038530708888_">
					<line class="st11" x1="1795.1" y1="1265.2" x2="1854.4" y2="1265.2" />
				</g>
				<g id="POLYLINE_00000118373680743741039440000005897028749073509549_">
					<line class="st11" x1="2036.3" y1="1256.2" x2="1929.7" y2="1256.2" />
				</g>
				<g id="POLYLINE_00000020384096242331513300000014389296582752407211_">
					<line class="st11" x1="1915" y1="1256.2" x2="1808.5" y2="1256.2" />
				</g>
				<g id="POLYLINE_00000161613052344827113050000010895457356214497679_">
					<line class="st11" x1="1990.4" y1="1248.8" x2="2050.4" y2="1248.8" />
				</g>
				<g id="POLYLINE_00000057132183766234475130000002229277187784846500_">
					<line class="st11" x1="1795.1" y1="1248.8" x2="1854.4" y2="1248.8" />
				</g>
				<g id="POLYLINE_00000161624959494789193580000016926614150716084613_">
					<line class="st11" x1="1975.7" y1="1248.8" x2="1869.1" y2="1248.8" />
				</g>
				<g id="POLYLINE_00000182507440231919705130000014981859204996489648_">
					<line class="st11" x1="1975.7" y1="1219.3" x2="1869.1" y2="1219.3" />
				</g>
				<g id="POLYLINE_00000171685589458082365110000002454889859392842380_">
					<line class="st11" x1="1990.4" y1="1219.3" x2="2050.4" y2="1219.3" />
				</g>
				<g id="POLYLINE_00000051347708847542580760000005257890971994105016_">
					<line class="st11" x1="1915" y1="1241.4" x2="1808.5" y2="1241.4" />
				</g>
				<g id="POLYLINE_00000160186307273019674000000009231744563949564556_">
					<line class="st11" x1="1975.7" y1="1234.1" x2="1869.1" y2="1234.1" />
				</g>
				<g id="POLYLINE_00000070079343022850123430000014883073999932599211_">
					<line class="st11" x1="1795.1" y1="1234.1" x2="1854.4" y2="1234.1" />
				</g>
				<g id="POLYLINE_00000008827590889829868600000003664706638540531110_">
					<line class="st11" x1="1915" y1="1210.3" x2="1808.5" y2="1210.3" />
				</g>
				<g id="POLYLINE_00000132067201600857895440000016458994007452804252_">
					<line class="st11" x1="1990.4" y1="1203" x2="2050.4" y2="1203" />
				</g>
				<g id="POLYLINE_00000062186576021118991860000007785701062875669183_">
					<line class="st11" x1="1795.1" y1="1203" x2="1854.4" y2="1203" />
				</g>
				<g id="POLYLINE_00000095336652338545563980000001776331934593703810_">
					<line class="st11" x1="2036.3" y1="1241.4" x2="1929.7" y2="1241.4" />
				</g>
				<g id="POLYLINE_00000135661404050145742630000005006980987620973494_">
					<line class="st11" x1="1975.7" y1="1203" x2="1869.1" y2="1203" />
				</g>
				<g id="POLYLINE_00000147194413275438944600000012181725850117484422_">
					<line class="st11" x1="2036.3" y1="1210.3" x2="1929.7" y2="1210.3" />
				</g>
				<g id="POLYLINE_00000080171268767537512980000013730630151113555596_">
					<line class="st11" x1="1990.4" y1="1234.1" x2="2050.4" y2="1234.1" />
				</g>
				<g id="POLYLINE_00000133489345150579438270000001390014435500313985_">
					<line class="st11" x1="1795.1" y1="1219.3" x2="1854.4" y2="1219.3" />
				</g>
				<g id="POLYLINE_00000078761446636877268850000001832192943405912450_">
					<line class="st11" x1="1915" y1="1226.7" x2="1808.5" y2="1226.7" />
				</g>
				<g id="POLYLINE_00000091699557851425253970000000096280513411501971_">
					<line class="st11" x1="2036.3" y1="1226.7" x2="1929.7" y2="1226.7" />
				</g>
				<g id="POLYLINE_00000086679536980676213100000009635327041945243312_">
					<line class="st11" x1="1975.7" y1="1173.5" x2="1869.1" y2="1173.5" />
				</g>
				<g id="POLYLINE_00000165929027440658653270000012204352102670698676_">
					<line class="st11" x1="1795.1" y1="1173.5" x2="1854.4" y2="1173.5" />
				</g>
				<g id="POLYLINE_00000167392467393625889300000006084313044218879888_">
					<line class="st11" x1="2036.3" y1="1180.9" x2="1929.7" y2="1180.9" />
				</g>
				<g id="POLYLINE_00000100362530338080689780000000747646811811639730_">
					<line class="st11" x1="1975.7" y1="1188.2" x2="1869.1" y2="1188.2" />
				</g>
				<g id="POLYLINE_00000085221934509137767890000000156798428193628837_">
					<line class="st11" x1="1990.4" y1="1173.5" x2="2050.4" y2="1173.5" />
				</g>
				<g id="POLYLINE_00000119811264065399003780000005217879783326381998_">
					<line class="st11" x1="1795.1" y1="1188.2" x2="1854.4" y2="1188.2" />
				</g>
				<g id="POLYLINE_00000044158500628091521050000000211718940980536489_">
					<line class="st11" x1="1915" y1="1195.6" x2="1808.5" y2="1195.6" />
				</g>
				<g id="POLYLINE_00000007404520594268254740000005720290802270975893_">
					<line class="st11" x1="2036.3" y1="1195.6" x2="1929.7" y2="1195.6" />
				</g>
				<g id="POLYLINE_00000063600817337213971980000011019494387266149505_">
					<line class="st11" x1="1990.4" y1="1188.2" x2="2050.4" y2="1188.2" />
				</g>
				<g id="POLYLINE_00000152226697675512822710000009987360340260916134_">
					<line class="st11" x1="1915" y1="1180.9" x2="1808.5" y2="1180.9" />
				</g>
				<g id="POLYLINE_00000070819159161696862650000018204852927266125479_">
					<line class="st11" x1="1990.4" y1="1157.1" x2="2050.4" y2="1157.1" />
				</g>
				<g id="POLYLINE_00000137822750680894983400000011843037910729160370_">
					<line class="st11" x1="1915" y1="1164.5" x2="1808.5" y2="1164.5" />
				</g>
				<g id="POLYLINE_00000044174724156956532220000006804778916136184448_">
					<line class="st11" x1="1915" y1="1149.8" x2="1808.5" y2="1149.8" />
				</g>
				<g id="POLYLINE_00000107578768324187822210000000966988736678788998_">
					<line class="st11" x1="2036.3" y1="1149.8" x2="1929.7" y2="1149.8" />
				</g>
				<g id="POLYLINE_00000041261236567588326370000003327908402954786723_">
					<line class="st11" x1="2036.3" y1="1164.5" x2="1929.7" y2="1164.5" />
				</g>
				<g id="POLYLINE_00000080197743296831389050000008142475110745854084_">
					<line class="st11" x1="2036.3" y1="1133.4" x2="1929.7" y2="1133.4" />
				</g>
				<g id="POLYLINE_00000014597616057609611450000005745432753380610451_">
					<line class="st11" x1="1990.4" y1="1142.4" x2="2050.4" y2="1142.4" />
				</g>
				<g id="POLYLINE_00000051378389117101207000000002510325753030073488_">
					<line class="st11" x1="1795.1" y1="1142.4" x2="1854.4" y2="1142.4" />
				</g>
				<g id="POLYLINE_00000166677057275213212800000017720874767167464864_">
					<line class="st11" x1="1915" y1="1133.4" x2="1808.5" y2="1133.4" />
				</g>
				<g id="POLYLINE_00000005249984229256867740000012415332537258033838_">
					<line class="st11" x1="1975.7" y1="1157.1" x2="1869.1" y2="1157.1" />
				</g>
				<g id="POLYLINE_00000116234986536122022340000017813301411045908414_">
					<line class="st11" x1="1975.7" y1="1142.4" x2="1869.1" y2="1142.4" />
				</g>
				<g id="POLYLINE_00000046307634865511423730000009365161913656295810_">
					<line class="st11" x1="1795.1" y1="1157.1" x2="1854.4" y2="1157.1" />
				</g>
				<g id="POLYLINE_00000147931202078236252470000009444242265712223408_">
					<line class="st11" x1="1975.7" y1="1126" x2="1869.1" y2="1126" />
				</g>
				<g id="POLYLINE_00000175309206737089570630000009057318204918261675_">
					<line class="st11" x1="1795.1" y1="1126" x2="1854.4" y2="1126" />
				</g>
				<g id="POLYLINE_00000106129868677831720050000003359938026116147367_">
					<line class="st11" x1="1990.4" y1="1126" x2="2050.4" y2="1126" />
				</g>
				<g id="POLYLINE_00000023979595633336912430000009288857882635601599_">
					<line class="st11" x1="1990.9" y1="702.9" x2="2050.4" y2="702.9" />
				</g>
				<g id="POLYLINE_00000122687712542091888900000014265869276683898244_">
					<line class="st11" x1="1976.2" y1="702.9" x2="1869.6" y2="702.9" />
				</g>
				<g id="POLYLINE_00000174573307984790787320000006078233795921454491_">
					<line class="st11" x1="1795.1" y1="702.9" x2="1854.9" y2="702.9" />
				</g>
				<g id="POLYLINE_00000147926983827991090690000004811770630116095422_">
					<line class="st11" x1="1915.5" y1="695.5" x2="1809" y2="695.5" />
				</g>
				<g id="POLYLINE_00000081648698576198148510000010131449421390871432_">
					<line class="st11" x1="1795.1" y1="688.2" x2="1854.9" y2="688.2" />
				</g>
				<g id="POLYLINE_00000039098304817843611650000004540802356129707709_">
					<line class="st11" x1="2036.8" y1="695.5" x2="1930.2" y2="695.5" />
				</g>
				<g id="POLYLINE_00000090976051179093535410000018127395173525428618_">
					<line class="st11" x1="1976.2" y1="688.2" x2="1869.6" y2="688.2" />
				</g>
				<g id="POLYLINE_00000136381433686776225060000011583248972320595099_">
					<line class="st11" x1="1990.9" y1="688.2" x2="2050.4" y2="688.2" />
				</g>
				<g id="POLYLINE_00000104671774885844504630000007606699608934337439_">
					<line class="st11" x1="1990.9" y1="673.5" x2="2050.4" y2="673.5" />
				</g>
				<g id="POLYLINE_00000018205680511449760600000008816773000510730883_">
					<line class="st11" x1="2036.8" y1="680.8" x2="1930.2" y2="680.8" />
				</g>
				<g id="POLYLINE_00000040564995259031436810000001231430243187293872_">
					<line class="st11" x1="1915.5" y1="680.8" x2="1809" y2="680.8" />
				</g>
				<g id="POLYLINE_00000035502786840456271650000006890774824345240753_">
					<line class="st11" x1="1795.1" y1="673.5" x2="1854.9" y2="673.5" />
				</g>
				<g id="POLYLINE_00000090980028047887687740000001725644343781702051_">
					<line class="st11" x1="1976.2" y1="673.5" x2="1869.6" y2="673.5" />
				</g>
				<g id="POLYLINE_00000030482875440533487770000006933498489497273758_">
					<line class="st11" x1="1915.5" y1="666.1" x2="1809" y2="666.1" />
				</g>
				<g id="POLYLINE_00000165208655103938372290000013750252462365352588_">
					<line class="st11" x1="2036.8" y1="666.1" x2="1930.2" y2="666.1" />
				</g>
				<g id="POLYLINE_00000041260021962839735180000010172635214181979325_">
					<line class="st11" x1="1976.2" y1="658.7" x2="1869.6" y2="658.7" />
				</g>
				<g id="POLYLINE_00000018943405510644182290000013854544266197904002_">
					<line class="st11" x1="1990.9" y1="658.7" x2="2050.4" y2="658.7" />
				</g>
				<g id="POLYLINE_00000054975355449051197510000006159820784040351920_">
					<line class="st11" x1="1795.1" y1="658.7" x2="1854.9" y2="658.7" />
				</g>
				<g id="POLYLINE_00000183966628972513336650000018223079880757488307_">
					<line class="st11" x1="2036.8" y1="649.7" x2="1930.2" y2="649.7" />
				</g>
				<g id="POLYLINE_00000023997904524385125410000008091039973094614455_">
					<line class="st11" x1="1915.5" y1="649.7" x2="1809" y2="649.7" />
				</g>
				<g id="POLYLINE_00000032635764142463306860000005094156848068875691_">
					<line class="st11" x1="1990.9" y1="642.4" x2="2050.4" y2="642.4" />
				</g>
				<g id="POLYLINE_00000063634635558089458720000001296199571578086296_">
					<line class="st11" x1="1795.1" y1="642.4" x2="1854.9" y2="642.4" />
				</g>
				<g id="POLYLINE_00000136373298768557138200000006473887530267008660_">
					<line class="st11" x1="1976.2" y1="642.3" x2="1869.6" y2="642.3" />
				</g>
				<g id="POLYLINE_00000162342411962168720170000006475713010754649769_">
					<line class="st11" x1="1976.2" y1="612.9" x2="1869.6" y2="612.9" />
				</g>
				<g id="POLYLINE_00000141434901041374928790000012702551657880963519_">
					<line class="st11" x1="1990.9" y1="612.9" x2="2050.4" y2="612.9" />
				</g>
				<g id="POLYLINE_00000147193262492545632590000016849442874749547657_">
					<line class="st11" x1="1915.5" y1="635" x2="1809" y2="635" />
				</g>
				<g id="POLYLINE_00000075847859431889267270000011455823044684037292_">
					<line class="st11" x1="1976.2" y1="627.6" x2="1869.6" y2="627.6" />
				</g>
				<g id="POLYLINE_00000148646599116396853000000016068099692660970629_">
					<line class="st11" x1="1795.1" y1="627.6" x2="1854.9" y2="627.6" />
				</g>
				<g id="POLYLINE_00000060741470288729290080000013762122859608488863_">
					<line class="st11" x1="1915.5" y1="603.9" x2="1809" y2="603.9" />
				</g>
				<g id="POLYLINE_00000077289264628913598380000003799521423612768644_">
					<line class="st11" x1="1990.9" y1="596.5" x2="2050.4" y2="596.5" />
				</g>
				<g id="POLYLINE_00000145038025851796478700000015008385179291045532_">
					<line class="st11" x1="1795.1" y1="596.5" x2="1854.9" y2="596.5" />
				</g>
				<g id="POLYLINE_00000127726326949381322100000006442057462044752257_">
					<line class="st11" x1="2036.8" y1="635" x2="1930.2" y2="635" />
				</g>
				<g id="POLYLINE_00000096745972883413899570000005990235948910809783_">
					<line class="st11" x1="1976.2" y1="596.5" x2="1869.6" y2="596.5" />
				</g>
				<g id="POLYLINE_00000073705116232169769140000017742212198850638239_">
					<line class="st11" x1="2036.8" y1="603.9" x2="1930.2" y2="603.9" />
				</g>
				<g id="POLYLINE_00000073697974700055809740000017022736320714944186_">
					<line class="st11" x1="1990.9" y1="627.6" x2="2050.4" y2="627.6" />
				</g>
				<g id="POLYLINE_00000071561722388107009460000011823343263254480036_">
					<line class="st11" x1="1795.1" y1="612.9" x2="1854.9" y2="612.9" />
				</g>
				<g id="POLYLINE_00000016040219652627463870000011894991849749523640_">
					<line class="st11" x1="1915.5" y1="620.3" x2="1809" y2="620.3" />
				</g>
				<g id="POLYLINE_00000089553334034404069480000002193650210825374880_">
					<line class="st11" x1="2036.8" y1="620.3" x2="1930.2" y2="620.3" />
				</g>
				<g id="POLYLINE_00000013159203726718566180000006202367319251240340_">
					<line class="st11" x1="1976.2" y1="567.1" x2="1869.6" y2="567.1" />
				</g>
				<g id="POLYLINE_00000034796951089540323060000018358838264262889642_">
					<line class="st11" x1="1795.1" y1="567.1" x2="1854.9" y2="567.1" />
				</g>
				<g id="POLYLINE_00000083072569002903403830000008827620660159492511_">
					<line class="st11" x1="2036.8" y1="574.4" x2="1930.2" y2="574.4" />
				</g>
				<g id="POLYLINE_00000134935897326505911900000011655239187344093576_">
					<line class="st11" x1="1976.2" y1="581.8" x2="1869.6" y2="581.8" />
				</g>
				<g id="POLYLINE_00000043421332927678424060000015203637065850728074_">
					<line class="st11" x1="1990.9" y1="567.1" x2="2050.4" y2="567.1" />
				</g>
				<g id="POLYLINE_00000109710113645849975360000006132308112375743663_">
					<line class="st11" x1="1795.1" y1="581.8" x2="1854.9" y2="581.8" />
				</g>
				<g id="POLYLINE_00000066483149143520313570000013086359251851702923_">
					<line class="st11" x1="1915.5" y1="589.1" x2="1809" y2="589.1" />
				</g>
				<g id="POLYLINE_00000036220877826030333100000013743935430412006329_">
					<line class="st11" x1="2036.8" y1="589.1" x2="1930.2" y2="589.1" />
				</g>
				<g id="POLYLINE_00000096031184234431955720000003065520156984712588_">
					<line class="st11" x1="1990.9" y1="581.8" x2="2050.4" y2="581.8" />
				</g>
				<g id="POLYLINE_00000041289155617973344750000013912315723684022970_">
					<line class="st11" x1="1915.5" y1="574.4" x2="1809" y2="574.4" />
				</g>
				<g id="POLYLINE_00000106866980125648643430000003842779920982569353_">
					<line class="st11" x1="1990.9" y1="550.7" x2="2050.4" y2="550.7" />
				</g>
				<g id="POLYLINE_00000177457471491471323780000001140473675537554337_">
					<line class="st11" x1="1915.5" y1="558" x2="1809" y2="558" />
				</g>
				<g id="POLYLINE_00000139996760423091802350000016502807546943184015_">
					<line class="st11" x1="1915.5" y1="543.3" x2="1809" y2="543.3" />
				</g>
				<g id="POLYLINE_00000126319804044901572330000018223488028238601133_">
					<line class="st11" x1="2036.8" y1="543.3" x2="1930.2" y2="543.3" />
				</g>
				<g id="POLYLINE_00000183962827171146482640000000584753712157599644_">
					<line class="st11" x1="2036.8" y1="558" x2="1930.2" y2="558" />
				</g>
				<g id="POLYLINE_00000029743175429524972090000017878020137799736470_">
					<line class="st11" x1="2036.8" y1="526.9" x2="1930.2" y2="526.9" />
				</g>
				<g id="POLYLINE_00000104671460548664829380000012090334259437719439_">
					<line class="st11" x1="1990.9" y1="535.9" x2="2050.4" y2="535.9" />
				</g>
				<g id="POLYLINE_00000067944056892354831410000006363154182692746915_">
					<line class="st11" x1="1795.1" y1="535.9" x2="1854.9" y2="535.9" />
				</g>
				<g id="POLYLINE_00000167389473824529041510000008611443568101130136_">
					<line class="st11" x1="1915.5" y1="526.9" x2="1809" y2="526.9" />
				</g>
				<g id="POLYLINE_00000014609341817789046740000008219273249506315168_">
					<line class="st11" x1="1976.2" y1="550.7" x2="1869.6" y2="550.7" />
				</g>
				<g id="POLYLINE_00000147187971218742254610000015612516808510869940_">
					<line class="st11" x1="1976.2" y1="535.9" x2="1869.6" y2="535.9" />
				</g>
				<g id="POLYLINE_00000098200130764346386650000016454006913388427418_">
					<line class="st11" x1="1795.1" y1="550.7" x2="1854.9" y2="550.7" />
				</g>
				<g id="POLYLINE_00000090256063199423438030000005939003815370314169_">
					<line class="st11" x1="1976.2" y1="519.6" x2="1869.6" y2="519.6" />
				</g>
				<g id="POLYLINE_00000009564353471412768810000005470395433113698201_">
					<line class="st11" x1="1795.1" y1="519.6" x2="1854.9" y2="519.6" />
				</g>
				<g id="POLYLINE_00000163792952817040726250000002879462941600443011_">
					<line class="st11" x1="1990.9" y1="519.6" x2="2050.4" y2="519.6" />
				</g>
			</g>
			<rect x="1804.7" y="1323.1" class="st10" width="8.5" height="28.3" />
			<rect x="2032.3" y="1323.1" class="st10" width="8.5" height="28.3" />
			<path class="st10" d="M1940.6,744.6v339.7c0,7.7-6.2,13.9-13.9,13.9c-3.8,0-7.3-1.6-9.8-4.1s-4.1-6-4.1-9.8V744.6
			c0-7.7,6.2-13.9,13.9-13.9C1934.4,730.7,1940.6,736.9,1940.6,744.6z" />
			<rect x="1804.7" y="478" class="st10" width="8.5" height="28.3" />
			<rect x="2032.3" y="478" class="st10" width="8.5" height="28.3" />
			<rect x="2032.3" y="900.3" class="st10" width="8.5" height="28.3" />
			<rect x="1804.7" y="900.3" class="st10" width="8.5" height="28.3" />
		</g>
	</g>
</svg>