<svg version="1.1" id="Layer_1" xmlns="http://www.w3.org/2000/svg"
	xmlns:xlink="http://www.w3.org/1999/xlink" x="0px" y="0px"
	viewBox="0 0 1383.1 1287.2" style="enable-background:new 0 0 1383.1 1287.2;"
	xml:space="preserve">
<style type="text/css">
	.st0{fill:#FFFFFF;}
	.st1{fill:#606060;}
	.st2{fill:#9A6E50;}
	.st3{fill:#E2D6C7;stroke:#E2D6C7;stroke-linecap:round;stroke-linejoin:round;stroke-miterlimit:10;}
	.st4{font-family:'#9Slide03 Nanami Rounded Light';}
	.st5{font-size:174.4363px;}
	.st6{fill:#E2D6C7;}
	.st7{fill:#171616;}
	.st8{font-family:'Pacifico-Regular';}
	.st9{font-size:28.4855px;}
    .st11{font-size:69px;}
</style>

<text transform="matrix(1 0 0 1 20 1300)" class="st4 st11">Font: #3</text>
<text transform="matrix(1 0 0 1 20 1400)" class="st4 st11">Ear: #2 - Airedale Terrier</text>
<g transform="matrix(1 0 0 1 30 1280)"><g>
      <path d="M63.7,31.2h-44c-1.7,0-3.2,0.5-4.3,1.6c-1.2,1.1-1.7,2.4-1.7,4.1s0.6,3.1,1.7,4.2c1.1,1.1,2.6,1.6,4.4,1.6h15.5v51.9
        c0,1.7,0.6,3.2,1.8,4.3c1.2,1.2,2.7,1.7,4.6,1.7c1.8,0,3.4-0.6,4.7-1.7c1.3-1.2,1.9-2.6,1.9-4.3V42.7h15.5c1.8,0,3.2-0.5,4.4-1.5
        c1.1-1,1.7-2.4,1.7-4.1s-0.6-3.1-1.7-4.2C66.9,31.7,65.5,31.2,63.7,31.2z"/>
      <path d="M105.7,48.2c-1.4-1.1-3-1.7-5-1.7c-3.2,0-6.3,0.7-9.1,2.1s-5,3.5-6.5,6.2v-1.3c0-1.7-0.6-3.2-1.7-4.3
        c-1.1-1.2-2.5-1.7-4.3-1.7c-1.7,0-3.1,0.6-4.3,1.7c-1.1,1.2-1.7,2.6-1.7,4.3v40.9c0,1.7,0.6,3.2,1.7,4.3c1.1,1.2,2.5,1.7,4.3,1.7
        c1.7,0,3.1-0.6,4.3-1.7c1.1-1.2,1.7-2.6,1.7-4.3V70.9c0-3,0.5-5.5,1.5-7.7c1-2.1,2.3-3.7,3.9-4.8c1.6-1.1,3.2-1.6,5-1.6
        c0.8,0,1.5,0.1,2.2,0.3c0.7,0.2,1.1,0.3,1.3,0.4c1.3,0.5,2.4,0.7,3.4,0.7c1.5,0,2.7-0.5,3.8-1.5s1.6-2.6,1.6-4.6
        C107.8,50.7,107.1,49.3,105.7,48.2z"/>
      <path d="M129.9,41c2.7,1.6,6,2.4,9.8,2.4s7-0.8,9.8-2.4c2.7-1.6,4.7-3.9,6-7c0.3-0.7,0.4-1.4,0.4-2.1c0-1-0.3-1.8-0.9-2.3
        c-0.6-0.6-1.4-0.8-2.4-0.8c-1.3,0-2.4,0.3-3.2,0.8c-0.8,0.6-1.7,1.5-2.7,2.7c-1.6,1.8-3.9,2.7-6.8,2.7s-5.2-0.9-6.8-2.7
        c-1-1.3-1.9-2.2-2.7-2.7c-0.8-0.6-1.9-0.8-3.2-0.8c-1,0-1.8,0.3-2.4,0.9c-0.6,0.6-0.9,1.4-0.9,2.4c0,0.6,0.2,1.3,0.5,2.2
        C125.2,37.1,127.1,39.4,129.9,41z"/>
      <path d="M138,28.7c0.8,0.6,1.5,0.9,2.1,0.9c1.9,0,3.4-0.6,4.5-1.7l7.5-8.3c1.1-1.3,1.7-2.7,1.9-4.3c0.1-1.5-0.3-2.6-1.2-3.6
        c-0.9-0.9-2.2-1.4-4-1.4c-1.1,0-2.1,0.4-3.1,1.1c-0.9,0.7-1.7,1.7-2.4,2.9l-5.7,10.1c-0.4,0.7-0.6,1.3-0.6,1.9
        C136.9,27.3,137.2,28.1,138,28.7z"/>
      <path d="M157.9,46.5c-1.7,0-3.1,0.6-4.3,1.7c-1.1,1.2-1.7,2.6-1.7,4.3v0.1c-1.9-1.8-4.3-3.2-7-4.4c-2.8-1.2-5.7-1.7-8.9-1.7
        c-4.4,0-8.5,1.2-12.1,3.5c-3.7,2.3-6.6,5.6-8.7,9.8C113.1,64,112,68.7,112,74c0,5.3,1.1,10,3.2,14.2c2.1,4.2,5.1,7.4,8.8,9.8
        c3.7,2.3,7.8,3.5,12.4,3.5c3.1,0,6.1-0.7,8.9-2c2.8-1.4,5-3,6.7-4.9c0.1,1.7,0.6,3.1,1.7,4.3c1.1,1.1,2.5,1.7,4.2,1.7
        s3.1-0.6,4.3-1.7c1.1-1.2,1.7-2.6,1.7-4.3V52.7c0-1.8-0.6-3.2-1.7-4.4C161,47.1,159.6,46.5,157.9,46.5z M148.3,85.9
        c-2.7,3.1-6.2,4.7-10.5,4.7s-7.8-1.6-10.4-4.7c-2.7-3.1-4-7.1-4-11.8s1.4-8.7,4.1-11.9c2.7-3.2,6.2-4.8,10.4-4.8
        c4.3,0,7.8,1.6,10.5,4.8c2.7,3.2,4.1,7.1,4.1,11.9S151.1,82.8,148.3,85.9z"/>
      <path d="M205,46.5c-3.4,0-6.6,0.9-9.5,2.6s-5.2,3.8-7,6.1v-1.7c0-1.7-0.6-3.2-1.7-4.3c-1.1-1.2-2.5-1.7-4.3-1.7
        c-1.7,0-3.1,0.6-4.3,1.7c-1.1,1.2-1.7,2.6-1.7,4.3v40.9c0,1.7,0.6,3.2,1.7,4.3c1.1,1.2,2.5,1.7,4.3,1.7c1.7,0,3.1-0.6,4.3-1.7
        c1.1-1.2,1.7-2.6,1.7-4.3V69.1c0-3.4,1.1-6.2,3.3-8.4c2.2-2.2,5.2-3.3,9-3.3c3.7,0,6.3,1,7.8,3.1s2.3,4.9,2.3,8.6v25.3
        c0,1.7,0.6,3.2,1.7,4.3c1.1,1.2,2.5,1.7,4.3,1.7c1.7,0,3.1-0.6,4.3-1.7c1.1-1.2,1.7-2.6,1.7-4.3V69.1c0-7.1-1.3-12.6-3.9-16.6
        C216.4,48.5,211.7,46.5,205,46.5z"/>
      <path d="M279.5,46.5c-1.7,0-3.1,0.6-4.3,1.7c-1.1,1.2-1.7,2.6-1.7,4.3v1.1c-1.8-2-4.1-3.7-7-5c-2.9-1.4-6-2.1-9.4-2.1
        c-4.6,0-8.7,1.2-12.4,3.5s-6.7,5.6-8.8,9.8c-2.1,4.2-3.2,8.9-3.2,14.2c0,5.3,1.1,10,3.3,14.2s5.2,7.4,9,9.8c3.8,2.3,8,3.5,12.6,3.5
        c3.4,0,6.5-0.8,9.5-2.5c2.9-1.6,5.1-3.5,6.6-5.5v4.8c0,3.6-1.2,6.3-3.6,8.3c-2.4,1.9-6.1,2.9-10.9,2.9c-2.4,0-5.2-0.6-8.2-1.7
        c-3-1.2-4.6-1.8-4.9-1.8c-0.6-0.2-1.2-0.3-1.9-0.3c-1.1,0-2.2,0.4-3.1,1.1c-1,0.8-1.6,1.9-2,3.3c-0.2,0.6-0.3,1.1-0.3,1.6
        c0,2.4,1.6,4.4,4.9,5.7c1.5,0.7,3.9,1.3,7.4,2s6.2,1,8.2,1c7.7,0,14-1.9,19-5.8s7.5-9.8,7.5-17.9V52.6c0-1.8-0.6-3.2-1.7-4.4
        C282.7,47.1,281.2,46.5,279.5,46.5z M269.9,85.9c-2.8,3.1-6.4,4.7-10.8,4.7c-4.4,0-8-1.6-10.8-4.7s-4.2-7.1-4.2-11.8
        s1.4-8.7,4.2-11.9c2.8-3.2,6.4-4.8,10.8-4.8c4.4,0,8,1.6,10.8,4.8c2.8,3.2,4.2,7.1,4.2,11.9S272.7,82.8,269.9,85.9z"/>
      <path d="M347.8,64.3h-17.2c-1.7,0-3.2,0.6-4.3,1.7c-1.2,1.1-1.7,2.5-1.7,4.2s0.6,3.1,1.7,4.3c1.2,1.1,2.6,1.7,4.3,1.7h17.2
        c1.7,0,3.2-0.5,4.3-1.6c1.2-1.1,1.7-2.5,1.7-4.1c0-1.7-0.6-3.2-1.7-4.3C351,64.8,349.5,64.3,347.8,64.3z"/>
      <path d="M476.3,32.7c-1.4-1.2-2.8-1.8-4.4-1.8c-1.3,0-2.5,0.3-3.6,1c-1.1,0.7-1.8,1.6-2.2,2.8l-14.7,44.5l-12.2-30.6
        c-0.5-1.2-1.3-2.1-2.2-2.8c-1-0.7-2.1-1-3.3-0.9c-1.3-0.1-2.4,0.2-3.4,0.9c-1,0.7-1.7,1.6-2.3,2.8l-12.9,30.9l-14.8-44.7
        c-0.4-1.2-1.1-2.1-2.2-2.8c-1.1-0.7-2.2-1-3.6-1c-1.7,0-3.2,0.6-4.5,1.8c-1.4,1.2-2,2.8-2,4.6c0,0.6,0.1,1.3,0.3,2l19.5,57.4
        c0.4,1.1,1.1,2,2.1,2.7s2.1,1,3.3,1.1c1.2,0,2.3-0.3,3.4-1c1.1-0.7,1.9-1.6,2.5-2.9l14.2-32l14.1,32c0.6,1.3,1.4,2.2,2.5,2.9
        c1.1,0.7,2.2,1,3.4,1c1.2-0.1,2.3-0.4,3.3-1.1s1.7-1.5,2.1-2.7l19.5-57.4c0.2-0.7,0.3-1.4,0.3-2C478.3,35.5,477.6,33.9,476.3,32.7z
        "/>
      <path d="M514.1,46.5c-3.4,0-6.4,0.8-9.2,2.5c-2.7,1.7-5,3.7-6.8,6.1V33.2c0-1.7-0.6-3.2-1.7-4.3c-1.1-1.2-2.5-1.7-4.3-1.7
        c-1.7,0-3.1,0.6-4.3,1.7c-1.1,1.2-1.7,2.6-1.7,4.3v61.2c0,1.7,0.6,3.2,1.7,4.3c1.1,1.2,2.5,1.7,4.3,1.7c1.7,0,3.1-0.6,4.3-1.7
        c1.1-1.2,1.7-2.6,1.7-4.3V69.1c0-3.4,1-6.2,3.1-8.4c2.1-2.2,5-3.3,8.7-3.3c3.6,0,6.1,1,7.5,3.1s2.1,4.9,2.1,8.6v25.3
        c0,1.7,0.6,3.2,1.7,4.3c1.1,1.2,2.5,1.7,4.3,1.7c1.7,0,3.1-0.6,4.3-1.7c1.1-1.2,1.7-2.6,1.7-4.3V69.1c0-7.1-1.3-12.6-3.8-16.6
        C525.2,48.5,520.7,46.5,514.1,46.5z"/>
      <path d="M549.6,29.3c-2.2,0-3.8,0.4-4.8,1.1s-1.5,2-1.5,3.9v1.9c0,1.8,0.5,3.1,1.4,3.9c0.9,0.7,2.5,1.1,4.8,1.1s3.9-0.3,4.9-1
        s1.4-2,1.4-3.9v-1.9c0-1.8-0.5-3.1-1.4-3.9C553.5,29.7,551.9,29.3,549.6,29.3z"/>
      <path d="M549.6,47.5c-1.7,0-3.1,0.6-4.3,1.7c-1.1,1.2-1.7,2.6-1.7,4.3v40.9c0,1.7,0.6,3.2,1.7,4.3c1.1,1.2,2.5,1.7,4.3,1.7
        c1.7,0,3.1-0.6,4.3-1.7c1.1-1.2,1.7-2.6,1.7-4.3V53.5c0-1.7-0.6-3.2-1.7-4.3C552.7,48.1,551.3,47.5,549.6,47.5z"/>
      <path d="M591.8,59.4c1.6,0,2.9-0.5,4-1.5s1.6-2.3,1.6-3.8c0-1.6-0.5-2.9-1.6-4s-2.4-1.6-4-1.6h-7v-6.3c0-1.7-0.6-3.2-1.7-4.3
        c-1.1-1.2-2.5-1.7-4.2-1.7s-3.2,0.6-4.3,1.7c-1.2,1.2-1.7,2.6-1.7,4.3v6.3h-4.6c-1.6,0-2.9,0.5-4,1.5s-1.6,2.3-1.6,3.8
        c0,1.6,0.5,2.9,1.6,4s2.4,1.6,4,1.6h4.6v27.3c0,5.7,1.4,9.4,4.2,11.1c2.8,1.7,6.3,2.6,10.3,2.6c2.4,0,4.6-0.6,6.6-1.8
        c1.9-1.2,2.9-2.7,2.9-4.5c0-1.5-0.4-2.6-1.1-3.5c-0.8-0.9-1.6-1.3-2.5-1.3c-0.7,0-1.5,0.2-2.3,0.5c-0.9,0.3-1.7,0.4-2.2,0.4
        c-1.3,0-2.2-0.3-3-0.9c-0.7-0.6-1.1-1.6-1.1-3V59.5L591.8,59.4L591.8,59.4z"/>
      <path d="M653.3,76.6c1.2-1,1.8-2.3,1.9-3.9c0-4.7-1.2-9-3.5-13.1c-2.3-4-5.4-7.2-9.3-9.6s-8-3.6-12.3-3.6c-4.4,0-8.6,1.1-12.5,3.4
        s-7,5.6-9.4,9.9s-3.6,9.3-3.6,14.9c0,5.1,1.1,9.7,3.4,13.7c2.2,4.1,5.4,7.2,9.6,9.6c4.1,2.3,9,3.5,14.5,3.5c3.2,0,6.3-0.5,9.4-1.6
        s5.6-2.3,7.4-3.9c1.8-1.5,2.8-3.1,2.8-4.9c0-1.3-0.5-2.5-1.5-3.5S648,86,646.6,86c-1.1,0-2.2,0.3-3.4,0.9c-0.3,0.2-0.9,0.6-1.8,1.1
        c-0.9,0.6-2.1,1.1-3.6,1.6s-3.6,0.7-6.3,0.7c-3.6,0-6.8-1.1-9.6-3.3c-2.8-2.2-4.7-5.3-5.4-9.2h32.7
        C650.8,78.1,652.2,77.6,653.3,76.6z M642.6,68.2h-25.9c1.4-7.2,5.9-10.8,13.6-10.8c3.1,0,5.9,1,8.3,3s3.8,4.4,4.1,7.1L642.6,68.2
        L642.6,68.2z"/>
    </g></g>

<g>
	<path d="M1181.4,1217.2l-15.2-20.1l14.9-14.2c0.8-0.8,1.2-1.7,1.2-2.7s-0.4-1.9-1.1-2.7c-0.7-0.9-1.6-1.3-2.7-1.3
		c-1.2,0-2.3,0.5-3.3,1.6l-21.8,21.5v-18.5c0-1.2-0.4-2.2-1.2-3c-0.8-0.8-1.8-1.2-3-1.2c-1.3,0-2.3,0.4-3.1,1.2
		c-0.8,0.8-1.2,1.8-1.2,3v39.4c0,1.2,0.4,2.2,1.2,3c0.8,0.8,1.8,1.2,3,1.2c1.3,0,2.3-0.4,3.1-1.2c0.8-0.8,1.2-1.8,1.2-3v-10.8
		l6.5-6.2l14.8,19.5c0.4,0.5,0.8,0.9,1.4,1.2c0.5,0.3,1.1,0.4,1.7,0.4c1.2,0,2.3-0.4,3.2-1.2c0.9-0.8,1.4-1.8,1.4-3.1
		c0-0.5-0.1-0.9-0.3-1.5C1181.9,1218,1181.6,1217.6,1181.4,1217.2z"/>
	<path d="M1213.2,1189.6c-2.8-1.6-6-2.4-9.4-2.4c-3.5,0-6.6,0.8-9.4,2.4c-2.8,1.6-5,3.9-6.7,6.7c-1.6,2.9-2.5,6.1-2.5,9.8
		c0,3.6,0.8,6.9,2.5,9.8c1.6,2.9,3.9,5.1,6.7,6.7c2.8,1.6,6,2.4,9.4,2.4s6.5-0.8,9.4-2.4c2.8-1.6,5.1-3.8,6.7-6.7s2.5-6.1,2.5-9.8
		c0-3.6-0.8-6.9-2.5-9.8C1218.3,1193.4,1216.1,1191.2,1213.2,1189.6z M1212.8,1212c-0.9,1.7-2.2,3.1-3.7,4c-1.6,1-3.3,1.4-5.2,1.4
		c-1.9,0-3.6-0.5-5.2-1.4c-1.6-1-2.8-2.3-3.7-4c-0.9-1.7-1.4-3.7-1.4-5.9s0.5-4.2,1.4-6c0.9-1.8,2.2-3.1,3.7-4.1
		c1.6-1,3.3-1.4,5.2-1.4c1.9,0,3.6,0.5,5.2,1.4c1.6,1,2.8,2.3,3.7,4.1c0.9,1.7,1.4,3.7,1.4,6
		C1214.2,1208.3,1213.7,1210.3,1212.8,1212z"/>
	<path d="M1268.5,1204.8c-1.6-0.7-3.7-1.4-6.1-2.1c-1.8-0.5-3.1-0.9-4.1-1.3c-1-0.3-1.8-0.8-2.4-1.4c-0.6-0.6-1-1.4-1-2.4
		c0-2.5,1.7-3.8,5.2-3.8c1.6,0,3.1,0.3,4.4,0.9c1.3,0.6,2.4,1.4,3.2,2.4c0.6,0.6,1.5,1,2.5,1c0.8,0,1.5-0.2,2.2-0.7
		c0.9-0.7,1.3-1.5,1.3-2.6c0-0.9-0.3-1.7-0.9-2.5c-1.3-1.7-3.1-3-5.5-3.8c-2.3-0.9-4.6-1.3-7-1.3c-2.3,0-4.4,0.4-6.4,1.3
		s-3.7,2.1-4.9,3.7c-1.3,1.6-1.9,3.5-1.9,5.7c0,2.5,0.6,4.5,1.8,6c1.2,1.5,2.6,2.6,4.3,3.3c1.7,0.7,3.8,1.5,6.4,2.2
		c2.5,0.7,4.4,1.4,5.6,2c1.2,0.7,1.8,1.7,1.8,3c0,2.5-1.8,3.9-5.3,4c-2.1,0-3.9-0.3-5.3-1c-1.5-0.7-2.9-1.7-4.3-3.1
		c-0.9-0.9-1.8-1.3-2.7-1.3c-0.7,0-1.3,0.2-2,0.6c-1.2,0.8-1.8,1.8-1.8,3c0,0.8,0.2,1.5,0.6,2c1.6,2.2,3.7,3.8,6.3,4.8
		c2.6,1,5.4,1.5,8.4,1.5c2.2,0,4.3-0.4,6.4-1.3s3.8-2.1,5.1-3.8c1.3-1.7,2-3.6,2-5.8c0-2.5-0.6-4.4-1.7-5.9
		C1271.5,1206.6,1270.1,1205.5,1268.5,1204.8z"/>
	<path d="M1315,1189.2c0.8-1.6,1.2-3.4,1.2-5.3c0-0.9-0.3-1.7-0.8-2.5c-0.5-0.8-1.4-1.1-2.5-1.1s-1.9,0.4-2.6,1.1
		c-0.6,0.7-0.9,1.6-0.9,2.5c0,1.4-0.5,2.5-1.5,3.2c-1,0.7-2.4,1.1-4.3,1.1v0.1c-2-0.6-4-1-6-1c-3.5,0-6.6,0.8-9.4,2.4
		c-2.8,1.6-5,3.9-6.7,6.7c-1.6,2.9-2.5,6.1-2.5,9.8c0,3.6,0.8,6.9,2.5,9.8c1.6,2.9,3.9,5.1,6.7,6.7c2.8,1.6,6,2.4,9.4,2.4
		s6.5-0.8,9.4-2.4c2.8-1.6,5.1-3.8,6.7-6.7s2.5-6.1,2.5-9.8c0-2.5-0.4-4.9-1.3-7.2c-0.8-2.2-2-4.2-3.6-5.9
		C1313,1192.1,1314.2,1190.8,1315,1189.2z M1306.6,1212c-0.9,1.7-2.2,3.1-3.7,4c-1.6,1-3.3,1.4-5.2,1.4s-3.6-0.5-5.2-1.4
		c-1.6-1-2.8-2.3-3.7-4c-0.9-1.7-1.4-3.7-1.4-5.9s0.5-4.2,1.4-6c0.9-1.7,2.2-3.1,3.7-4.1c1.6-1,3.3-1.4,5.2-1.4s3.6,0.5,5.2,1.4
		c1.6,1,2.8,2.3,3.7,4.1c0.9,1.7,1.4,3.7,1.4,6C1308,1208.3,1307.5,1210.3,1306.6,1212z"/>
	<path d="M1352.1,1191.3c-1.8-2.7-5-4.1-9.6-4.1c-2.4,0-4.5,0.6-6.5,1.8c-2,1.2-3.6,2.6-4.8,4.2v-1.2c0-1.2-0.4-2.2-1.2-3
		c-0.8-0.8-1.8-1.2-2.9-1.2c-1.2,0-2.2,0.4-2.9,1.2c-0.8,0.8-1.2,1.8-1.2,3v28.1c0,1.2,0.4,2.2,1.2,3c0.8,0.8,1.7,1.2,2.9,1.2
		c1.2,0,2.2-0.4,2.9-1.2c0.8-0.8,1.2-1.8,1.2-3v-17.4c0-2.3,0.7-4.2,2.2-5.8c1.5-1.5,3.6-2.3,6.2-2.3c2.5,0,4.3,0.7,5.4,2.1
		c1,1.4,1.6,3.4,1.6,5.9v17.4c0,1.2,0.4,2.2,1.2,3c0.8,0.8,1.7,1.2,2.9,1.2c1.2,0,2.2-0.4,2.9-1.2c0.8-0.8,1.2-1.8,1.2-3v-17.4
		C1354.8,1197.8,1353.9,1194,1352.1,1191.3z"/>
</g>
<g>
	<g>
		<path d="M350.3,1190.7c-2.8-1.6-5.8-2.4-9.2-2.4c-1.3,0-2.8,0.2-4.2,0.5c-1.5,0.4-2.7,0.8-3.7,1.4l1.5-11.2h19.1
			c1.2,0,2.3-0.4,3.1-1.2c0.8-0.8,1.2-1.8,1.2-3c0-1.2-0.4-2.3-1.2-3.1c-0.8-0.8-1.9-1.2-3.1-1.2h-22.3c-1.2,0-2.2,0.3-3,1
			c-0.8,0.7-1.4,1.6-1.6,2.7l-2.4,19.1c-0.1,0.2-0.1,0.6-0.1,1.1c0,1.5,0.4,2.8,1.3,3.9c0.8,1.1,2.3,1.6,4.3,1.6
			c0.6,0,1.1-0.1,1.7-0.3c0.5-0.2,1.3-0.5,2.2-1c1.3-0.6,2.4-1.1,3.3-1.4c0.9-0.3,2-0.5,3.2-0.5c2.6,0,4.9,0.9,6.8,2.6
			c1.9,1.8,2.9,4,2.9,6.8c0,1.9-0.6,3.7-1.7,5.3c-1.1,1.6-2.6,3-4.4,3.9c-1.9,1-3.8,1.5-5.9,1.5c-1.6,0-3.6-0.7-5.7-2
			c-1.4-1-2.5-1.5-3.5-1.5c-1.3,0-2.3,0.4-3.1,1.1c-0.8,0.7-1.2,1.6-1.2,2.5c0,0.8,0.2,1.7,0.6,2.6c0.4,0.9,0.9,1.6,1.5,2.2
			c1.3,1.1,3.1,1.9,5.2,2.5c2.1,0.6,4.2,0.9,6.2,0.9c3.8,0,7.3-0.9,10.5-2.6s5.8-4.1,7.8-7s2.9-6.1,2.9-9.6c0-3.3-0.8-6.4-2.4-9.1
			C355.2,1194.5,353.1,1192.3,350.3,1190.7z"/>
		<path d="M420.7,1182.6c-3,0-5.8,0.9-8.1,2.6c-2.4,1.7-4.2,3.7-5.4,5.9c-1.8-5.7-5.9-8.5-12.4-8.5c-2.6,0-5,0.7-7.1,2
			c-2.1,1.3-3.9,2.9-5.3,4.7v-1.2c0-1.3-0.4-2.5-1.3-3.4s-2-1.4-3.3-1.4s-2.4,0.5-3.3,1.4s-1.3,2-1.3,3.4v31.9
			c0,1.3,0.4,2.5,1.3,3.4s2,1.4,3.3,1.4s2.4-0.4,3.3-1.4c0.9-0.9,1.3-2,1.3-3.4v-19.8c0-2.6,0.8-4.8,2.4-6.5
			c1.6-1.7,3.9-2.6,6.8-2.6c2.8,0,4.7,0.8,5.8,2.4c1.1,1.6,1.7,3.8,1.7,6.7v19.8c0,1.3,0.4,2.5,1.3,3.4s2,1.4,3.3,1.4
			s2.4-0.4,3.3-1.4c0.9-0.9,1.3-2,1.3-3.4v-19.8c0-2.6,0.8-4.8,2.4-6.5c1.6-1.7,3.9-2.6,6.8-2.6c2.8,0,4.7,0.8,5.8,2.4
			c1.1,1.6,1.7,3.8,1.7,6.7v19.8c0,1.3,0.4,2.5,1.3,3.4s2,1.4,3.3,1.4s2.4-0.4,3.3-1.4c0.9-0.9,1.3-2,1.3-3.4v-19.8
			c0-5.5-1-9.8-2.9-12.9C429.3,1184.2,425.8,1182.6,420.7,1182.6z"/>
		<path d="M505.9,1187.3c-2-3.1-5.5-4.7-10.6-4.7c-3,0-5.8,0.9-8.1,2.6c-2.4,1.7-4.2,3.7-5.4,5.9c-1.8-5.7-5.9-8.5-12.4-8.5
			c-2.6,0-5,0.7-7.1,2c-2.1,1.3-3.9,2.9-5.3,4.7v-1.2c0-1.3-0.4-2.5-1.3-3.4s-2-1.4-3.3-1.4s-2.4,0.5-3.3,1.4s-1.3,2-1.3,3.4v31.9
			c0,1.3,0.4,2.5,1.3,3.4s2,1.4,3.3,1.4s2.4-0.4,3.3-1.4c0.9-0.9,1.3-2,1.3-3.4v-19.8c0-2.6,0.8-4.8,2.4-6.5
			c1.6-1.7,3.9-2.6,6.8-2.6c2.8,0,4.7,0.8,5.8,2.4c1.1,1.6,1.7,3.8,1.7,6.7v19.8c0,1.3,0.4,2.5,1.3,3.4s2,1.4,3.3,1.4
			s2.4-0.4,3.3-1.4c0.9-0.9,1.3-2,1.3-3.4v-19.8c0-2.6,0.8-4.8,2.4-6.5c1.6-1.7,3.9-2.6,6.8-2.6c2.8,0,4.7,0.8,5.8,2.4
			c1.1,1.6,1.7,3.8,1.7,6.7v19.8c0,1.3,0.4,2.5,1.3,3.4s2,1.4,3.3,1.4s2.4-0.4,3.3-1.4c0.9-0.9,1.3-2,1.3-3.4v-19.8
			C508.9,1194.7,507.9,1190.4,505.9,1187.3z"/>
	</g>
</g>
<g>
	<rect x="62.3" y="78" class="st0" width="708.7" height="1020.5"/>
	<g>
		<g>
			<g>
				<path class="st1" d="M650.5,714.1v-96.4c0-4.7,3.8-8.5,8.5-8.5h36.5c4.7,0,8.5,3.8,8.5,8.5v96.4c0,4.7-3.8,8.5-8.5,8.5H659
					C654.3,722.6,650.5,718.8,650.5,714.1z"/>
			</g>
		</g>
		<g>
			<g>
				<path class="st1" d="M129.2,714.1v-96.4c0-4.7,3.8-8.5,8.5-8.5h36.5c4.7,0,8.5,3.8,8.5,8.5v96.4c0,4.7-3.8,8.5-8.5,8.5h-36.5
					C133,722.6,129.2,718.8,129.2,714.1z"/>
			</g>
		</g>
	</g>
</g>


<path class="st6" d="M980.5,223.7c-61,0-110.5,13.6-110.5,30.4c0,16.8,49.5,30.4,110.5,30.4s110.5-13.6,110.5-30.4
	C1091,237.3,1041.5,223.7,980.5,223.7z M1052.4,266.9c-19.6,4.9-45.1,7.6-71.9,7.6s-52.3-2.7-71.9-7.6c-20.1-5-27.2-10.7-28.5-12.8
	c1.3-2.1,8.4-7.8,28.5-12.8c19.6-4.9,45.1-7.6,71.9-7.6s52.3,2.7,71.9,7.6c20.1,5,27.2,10.7,28.5,12.8
	C1079.6,256.2,1072.5,261.8,1052.4,266.9z"/>

<g>
	<g>
		<path class="st2" d="M727.9,121v934.5H105.3V121H727.9 M770.9,78H62.3v1020.5h708.7V78L770.9,78z"/>
	</g>
</g>

<text transform="matrix(0.9469 0 0 1 221.1387 922.4924)" class="st3 st4 st5">asd</text>

false

<g class="st6" transform="translate(0, 0) scale(3)"><path  d="M232.6,74.8c-1.2-1.6-2.6-3.1-3.9-4.4c-0.4-0.4-0.8-0.8-1.2-1.2l-0.3-0.3c-1.5-1.6-3.1-3.3-4.6-5
  c-3.4-4.1-5.2-7.6-5.6-11.1c-0.3-2.9,0.3-5.7,1-8.8c0.5-2.2,1-4.4,1.1-6.8c0.5-7-3-12.9-8.8-15c-3.3-1.2-6.5-1.2-9.7-1.3
  c-2.8,0-5.4-0.1-7.9-0.9c-3.2-1.1-5.9-3.1-8.8-5.2c-1.4-1.1-2.9-2.2-4.5-3.2c-5.6-3.5-12.4-4.7-18.3-3.1c-4.8,1.3-8,4.6-11.2,7.7
  c-0.6,0.6-1.2,1.2-1.8,1.7c-1.3,1.2-2.7,1.5-5.7,1.3c-2.5-0.2-5.9-0.6-9.2-1.4c-1.9-0.5-3.8-1-5.8-1.7c-0.9-0.3-1.9-0.6-2.8-0.9
  c-3-0.9-6.3-1.4-10.1-1.5c-6.1-0.2-12.5,0.8-19.1,2.9c-1.5,0.5-2.8,1.2-3.9,1.8c-0.7,0.4-1.5,0.7-2.3,1c-0.7,0.3-1.3,0.5-1.9,0.8
  c-0.8,0.4-1.6,0.7-2.4,1.1c-0.6,0.3-1.2,0.6-1.8,0.8l-0.6,0.3c-1,0.5-2.1,1-2.9,1c-0.6,0-1.4-0.5-2.3-1c-0.2-0.1-0.4-0.2-0.6-0.4
  c-0.4-0.2-0.8-0.5-1.2-0.7c-1-0.6-2-1.2-3.1-1.8c-2.6-1.4-5.9-2.4-9.5-2.8C57,16.1,50.6,17.9,45.7,22c-1.3,1.1-2.6,2.3-3.8,3.4
  c-1,0.9-2,1.8-3,2.7c-1.9,1.6-4.1,2.8-7,3.6c-0.9,0.3-1.9,0.5-2.8,0.8c-1.8,0.5-3.7,1-5.5,1.7c-2.6,1-5,2.7-7.1,4.9
  c-4,4.4-6,10.2-5.3,15.7c0.3,2.2,0.8,4.4,1.3,6.4c0.9,3.7,1.8,7.2,1.3,10.7c-0.3,2.7-0.7,5.5-1.7,8c-0.4,1-1,2-1.6,3.1l-0.3,0.4
  c-0.1,0.2-0.3,0.5-0.4,0.7c-0.2,0.4-0.4,0.8-0.6,1c-0.2,0.2-0.3,0.4-0.5,0.6c-0.3,0.4-0.7,0.9-1.1,1.5c-2,3.3-2.7,6.7-2,9.8
  c0.8,3.5,3.3,6.1,6.8,7c0.8,0.2,1.7,0.3,2.5,0.3c5.1,0,9.7-3.6,12.6-7.4c3.5-4.6,5.8-10.2,7.6-15.5c0.2,0.1,0.5,0.3,0.7,0.4
  c0.2,0.1,0.5,0.3,0.7,0.4c0.4,0.2,0.8,0.4,1.2,0.7c1.2,0.7,2.3,1.3,3.3,2c5.2,3.9,7.4,10.6,9.1,16.6c0.4,1.3,1.4,2.3,2.7,2.7
  c1.3,0.3,2.8-0.1,3.8-1.1c0.9-1,1.3-2.3,0.9-3.6c-1.7-6-3.9-12.9-8.9-17.9l-0.2-0.2c-1.1-1.1-2.2-2.2-3.7-3.2
  c-1.1-0.8-2.3-1.4-3.4-2l-1-0.5c-0.2-0.1-0.5-0.3-0.9-0.4c-0.3-0.2-1-0.5-1.3-0.7c0,0,0-0.1,0-0.1c3.7-6.2,8.5-11.2,14.1-15
  c3.2-2.1,6.8-4,11-5.6c1.4-0.5,2.9-1.1,4.3-1.6c3-1.1,6-2.2,9-3.5c2.5-1.1,9-4.1,9.4-10.6c0.1-0.5,0.1-0.9,0-1.4
  c0-0.4-0.1-0.8-0.3-1.1c-0.4-1.7-1.1-3.4-2-4.9c1.8-0.6,3.4-1.4,5-2.2c1.1-0.5,2-1,3.1-1.4c0.3-0.1,0.7-0.3,1-0.4c1-0.4,2-0.8,3-1.4
  c0.8-0.5,1.9-0.8,3-1.1c0.3-0.1,0.6-0.2,0.8-0.2c5.9-1.7,11.7-2.3,17.1-1.8c3.2,0.3,6.3,1.3,9.6,2.2c2.7,0.8,5.4,1.6,8.3,2.1
  c2.9,0.5,6.3,1,9.6,1.1c0.4,0,0.9,0,1.3-0.1c-0.2,0.4-0.4,0.9-0.5,1.4c-0.8,3.5,0.7,7.3,1.3,8.4c0.1,0.3,0.3,0.6,0.4,0.9
  c0.3,0.7,0.6,1.6,1.2,2.4c0.8,1.2,1.8,2.2,3,3.1c2.4,1.7,5.2,2.3,7.1,2.6c3.4,0.6,6.9,0.9,10.3,1.2c1.1,0.1,2.3,0.2,3.4,0.3
  c8.4,0.8,17.8,2.3,23.7,9.1c0.1,0.2,0.3,0.4,0.5,0.6c0.1,0.2,0.1,0.3,0.2,0.5l0.2,0.3c0.2,0.4,0.5,0.9,0.8,1.3
  c-0.5,0.6-1.5,1.5-1.9,1.8l-0.2,0.2c-1.1,0.9-2.4,1.8-4.2,2.8c-0.7,0.4-1.5,0.8-2.2,1.2c-2.7,1.4-5.4,2.8-7.6,5.4
  c-5.7,6.9-6.5,16.1-7.2,24.2l0,0.3c-0.2,2.1,1.3,3.8,3.4,4c2.2,0.2,4.1-1.4,4.3-3.6c0.4-4.4,0.8-8.6,1.9-12.7c1.1-4.1,2.8-7,5-8.7
  c0.9-0.7,2.1-1.3,3.3-1.9c0.4-0.2,0.8-0.4,1.2-0.6c2-1,3.7-2,5.2-3.1c1.1-0.8,2.3-1.7,3.4-2.7l0.2,0.2c0.7,1.2,1.4,2.3,2.2,3.5
  c3,4.7,6.4,9.6,11.1,15.8c1.5,2,3.3,4.2,5.9,5.7c2.5,1.4,6.3,2.3,9.6,0.9c2.9-1.3,5-4.4,5.3-8C236.3,80.8,234.4,77.2,232.6,74.8z
   M211.6,67.1c-0.1-0.2-0.1-0.3-0.2-0.5c-0.9-1.6-1.9-3.1-2.9-4.4c-1.4-2.3-2.9-4.8-4.7-7.9c-0.7-1.3-1.5-2.6-2.2-3.9
  c-0.8-1.4-1.6-2.8-2.4-4.3c-0.5-0.8-1-1.6-1.5-2.3c-0.4-0.5-0.7-1-1-1.4c-0.1-0.1-0.2-0.3-0.3-0.6c-0.1-0.3-0.3-0.7-0.5-1
  c-0.3-0.6-0.8-1.1-1.1-1.5c-0.1-0.2-0.3-0.3-0.4-0.5c-3.6-5.2-7-8.6-10.9-11.2c-4.6-3-9.8-4.3-14.9-5.6c-3.5-0.9-7.8-1.7-12.2-1.1
  c2.4-2.4,4.5-4.5,7.5-5.1c4.4-0.9,9.1,0.4,14.2,4.2l0.9,0.6c4.1,3,8.3,6.1,13.6,7.3c2.8,0.6,5.6,0.7,8.3,0.7l1.4,0
  c2.4,0,4.9,0.2,6.7,1.4c3.1,1.9,2.9,6.2,1.6,12c-1.1,4.8-2.1,10.5-0.2,16.2c1.7,5.1,5.1,9.2,8.1,12.6c0.9,1,1.9,2,2.9,3
  c2.5,2.5,4.8,4.9,6.2,7.7c0.4,0.8,0.8,1.7,0.6,2.2c-0.2,0.7-0.5,1.3-0.8,1.4c-0.9,0.5-2.8-0.5-4-1.6c-1.4-1.3-2.6-3-3.9-4.8
  c-0.3-0.5-0.7-1-1-1.4c-1.8-2.5-3.6-5.1-5.4-7.7C212.7,68.8,212.1,68,211.6,67.1z M154.1,29.8c1.5-0.9,3.4-1.3,5.6-1.3
  c0.2,0,0.3,0,0.5,0c2.5,0.1,5,0.7,7.2,1.3c2.4,0.6,4.9,1.3,7.2,2.1c4,1.4,7.8,4.1,11,8c0.7,0.9,1.4,1.8,2.1,2.8
  c-5.9-2-12.1-2.5-18-3c-3-0.3-6.2-0.5-9.1-1c0,0,0,0,0,0c-1.7-0.3-3.6-0.6-5-1.6c-1.1-0.8-1.8-2.6-2.3-4.4c-0.2-0.8-0.5-1.6-0.4-2.1
  C153.1,30.4,153.7,30.1,154.1,29.8z M72.4,42.1c-2.3,1-4.7,1.8-7,2.6c-2,0.7-4.1,1.5-6.1,2.3c-6.6,2.7-12.4,6.2-17.2,10.7
  c0.9-3.1,1.8-5.9,2.8-8.6c0.2-0.7,0.5-1.4,0.7-2.1c0.9-2.8,1.8-5.2,3.6-7.2c0.9-0.9,1.8-1.7,2.8-2.6c0.6-0.5,1.2-1.1,1.8-1.6
  c0.2-0.2,0.4-0.4,0.5-0.6c0.1-0.1,0.3-0.3,0.4-0.4c0.1-0.1,0.2-0.1,0.3-0.2c0.4-0.2,0.8-0.5,1.4-0.9l0.3-0.3
  c0.8-0.7,1.6-1.4,2.3-1.7c0.1,0,0.2-0.1,0.4-0.1c0.3-0.1,0.8-0.2,1.2-0.3c0.5-0.2,0.9-0.4,1.2-0.6c0.2-0.1,0.3-0.2,0.5-0.3
  c0.9-0.4,1.9-0.8,3-1c0.8-0.1,1.5-0.2,2.3-0.2c1.2,0,2.4,0.2,3.6,0.5c1.9,0.5,3.6,1.5,4.8,2.7c1.5,1.4,2.2,3.5,2.6,5
  c-0.2,2-2.7,3.3-6,4.7L72.4,42.1z M14.9,90.5c0.9-1,1.5-2.1,2.1-3.1c0.2-0.3,0.3-0.6,0.5-0.9c1-1.7,1.7-3.1,2.2-4.5
  c1.1-2.9,1.5-5.8,1.8-8.6c0.4-3.2,0.3-6.3-0.3-9.6c-0.3-1.7-0.7-3.3-1.1-4.9c-0.4-1.4-0.7-2.7-1-4c-0.8-4.1,0.6-8.3,3.7-11.3
  c2.3-2.1,5.4-3,8.7-3.9c1.6-0.4,3.3-0.9,4.9-1.5c2.9-1.1,5.5-2.7,8.2-5.1c0.8-0.7,1.6-1.5,2.4-2.2c1.4-1.3,2.8-2.6,4.3-3.7
  c0.7-0.5,1.4-1,2.2-1.3c-0.2,0.2-0.5,0.3-0.7,0.5c-0.6,0.4-1.1,0.9-1.6,1.4c-0.1,0.1-0.2,0.1-0.4,0.2c-0.2,0.1-0.4,0.2-0.7,0.4
  c-0.9,0.6-1.6,1.3-2.3,2c-0.3,0.3-0.6,0.6-0.9,0.9c-3.5,3.2-6.6,6.2-8.2,10.9c-0.4,1.1-0.8,2.2-1.2,3.3c-0.8,2.2-1.5,4.4-2.2,6.6
  c-1.2,4-2.3,8-3.3,11.9c-0.5,1.8-0.9,3.6-1.4,5.5c-1.4,5-3.1,10.9-5.7,16.4c-2.1,4.4-4.5,8.8-8.5,10.3h0c-1.1,0.4-2.8,0.5-3.2-0.3
  C12.8,94.3,13.6,91.9,14.9,90.5z"/>
</g>

</svg>