<?xml version="1.0" encoding="UTF-8"?>
<svg id="Layer_2" data-name="Layer 2" xmlns="http://www.w3.org/2000/svg" viewBox="0 0 869.29 901.51">
	<defs>
		<style>
			.cls-1 {
			font-family: AutumninNovember, 'Autumn in November';
			font-size: 82px;
			}

			.cls-1, .cls-2, .cls-3, .cls-5, .cls-6 {
			isolation: isolate;
			}

			.cls-7, .cls-8, .cls-9 {
			stroke-width: 0px;
			}

			.cls-8, .cls-3 {
			fill: #fff;
			}

			.cls-3 {
			font-family: Arial-BoldMT, Arial;
			font-size: 123px;
			font-weight: 700;
			}

			.cls-9 {
			fill: #5a4029;
			}

			.cls-5, .cls-6 {
			font-size: 20px;
			letter-spacing: .04em;
			}

			.cls-5, .cls-6 {
			font-family: Lora-Regular, Lora;
			font-variation-settings: 'wght' 600;
			}

		</style>
	</defs>

	<g>
		<rect class="cls-8" y="170.5" width="869.29" height="566.93" />
		<g>
			<rect class="cls-7" x="380.78" y="638.8" width="107.72" height="50.87" rx="8.98"
				ry="8.98" />
			<rect class="cls-7" x="380.78" y="218.26" width="107.72" height="50.87" rx="8.98"
				ry="8.98" />
		</g>
	</g>

	<rect class="cls-7" x="524.81" y="241.37" width="283.46" height="425.2" />
	<g class="cls-2">
		<text class="cls-1" transform="translate(135.16 332.5)">
			<tspan x="0" y="0">asd</tspan>
		</text>
	</g>
	<g class="cls-2">
		<text class="cls-6" transform="translate(56 611.76)">
			<tspan x="0" y="0">IN LOVING MEMORY</tspan>
		</text>
		<text class="cls-6" transform="translate(56 646.99)">
			<tspan x="0" y="0">DATE</tspan>
		</text>
	</g>
	<rect class="cls-7" x="56.76" y="538.91" width="211.54" height="2" />
	<g class="cls-2">
		<text class="cls-5" transform="translate(56.76 415.36)">
			<tspan x="0" y="0">IF LOVE ALONE COULD HAVE </tspan>
		</text>
		<text class="cls-5" transform="translate(56.76 450.59)">
			<tspan x="0" y="0">KEPT YOU HERE, YOU WOULD </tspan>
		</text>
		<text class="cls-5" transform="translate(56.76 485.82)">
			<tspan x="0" y="0">HAVE LIVED FOREVER</tspan>
		</text>
	</g>
	<path class="cls-9"
		d="m826.79,213v481.93H42.5V213h784.29m42.5-42.5H0v566.93h869.29V170.5h0Z" />
	<g class="cls-2">
		<text class="cls-3" transform="translate(383.42 105.52)">
			<tspan x="0" y="0">M</tspan>
		</text>
	</g>
	<g>
		<path class="cls-7"
			d="m221.78,842.2c-3.31-1.89-7.01-2.83-11.09-2.83-1.61,0-3.31.22-5.11.65-1.79.44-3.28.99-4.45,1.67l1.76-13.45h23c1.49,0,2.72-.48,3.71-1.44.99-.96,1.49-2.15,1.49-3.57s-.5-2.72-1.49-3.71-2.22-1.49-3.71-1.49h-26.81c-1.43,0-2.65.41-3.67,1.25s-1.66,1.9-1.9,3.2l-2.87,23c-.06.25-.09.68-.09,1.3,0,1.79.51,3.34,1.53,4.64,1.02,1.3,2.74,1.95,5.15,1.95.68,0,1.34-.12,1.99-.37s1.53-.65,2.64-1.21c1.55-.74,2.87-1.3,3.99-1.67,1.12-.37,2.38-.56,3.8-.56,3.15,0,5.87,1.06,8.16,3.15,2.29,2.1,3.43,4.83,3.43,8.16,0,2.29-.66,4.42-1.99,6.4-1.33,1.98-3.11,3.56-5.33,4.73-2.22,1.18-4.61,1.76-7.14,1.76-1.98,0-4.27-.81-6.86-2.41-1.67-1.18-3.06-1.76-4.17-1.76-1.55,0-2.8.45-3.76,1.34-.96.9-1.44,1.9-1.44,3.02,0,.99.25,2.04.74,3.15.5,1.12,1.12,1.98,1.86,2.59,1.61,1.3,3.7,2.32,6.26,3.06,2.56.74,5.05,1.12,7.47,1.12,4.51,0,8.72-1.03,12.62-3.11s7.02-4.87,9.37-8.39c2.35-3.52,3.52-7.36,3.52-11.5s-.94-7.67-2.83-10.94c-1.89-3.28-4.49-5.86-7.79-7.74v.02Z" />
		<path class="cls-7"
			d="m302.15,832.41c-3.65,0-6.91,1.06-9.79,3.15-2.87,2.1-5.02,4.45-6.45,7.05-2.16-6.8-7.14-10.2-14.93-10.2-3.15,0-6.02.79-8.58,2.37-2.56,1.58-4.68,3.48-6.36,5.7v-1.49c0-1.61-.53-2.96-1.58-4.03-1.06-1.08-2.38-1.62-3.99-1.62s-2.94.54-3.99,1.62c-1.06,1.09-1.58,2.43-1.58,4.03v38.31c0,1.61.53,2.96,1.58,4.03,1.05,1.09,2.38,1.62,3.99,1.62s2.93-.54,3.99-1.62c1.05-1.08,1.58-2.43,1.58-4.03v-23.75c0-3.15.97-5.76,2.93-7.84,1.95-2.07,4.65-3.11,8.11-3.11s5.67.97,7.01,2.92c1.33,1.95,1.99,4.62,1.99,8.02v23.75c0,1.61.53,2.96,1.58,4.03,1.05,1.09,2.38,1.62,3.99,1.62s2.93-.54,3.99-1.62c1.05-1.08,1.58-2.43,1.58-4.03v-23.75c0-3.15.97-5.76,2.92-7.84s4.65-3.11,8.11-3.11,5.67.97,7.01,2.92c1.33,1.95,1.99,4.62,1.99,8.02v23.75c0,1.61.53,2.96,1.58,4.03,1.05,1.09,2.38,1.62,3.99,1.62s2.93-.54,3.99-1.62c1.05-1.08,1.58-2.43,1.58-4.03v-23.75c0-6.61-1.18-11.79-3.52-15.54-2.35-3.74-6.58-5.61-12.71-5.61h0Z" />
		<path class="cls-7"
			d="m387.67,832.41c-3.65,0-6.91,1.06-9.79,3.15-2.87,2.1-5.02,4.45-6.45,7.05-2.16-6.8-7.14-10.2-14.93-10.2-3.15,0-6.02.79-8.58,2.37s-4.68,3.48-6.36,5.7v-1.49c0-1.61-.53-2.96-1.58-4.03-1.06-1.08-2.38-1.62-3.99-1.62s-2.94.54-3.99,1.62c-1.06,1.09-1.58,2.43-1.58,4.03v38.31c0,1.61.53,2.96,1.58,4.03,1.05,1.09,2.38,1.62,3.99,1.62s2.93-.54,3.99-1.62c1.05-1.08,1.58-2.43,1.58-4.03v-23.75c0-3.15.97-5.76,2.93-7.84,1.95-2.07,4.65-3.11,8.11-3.11s5.67.97,7.01,2.92c1.33,1.95,1.99,4.62,1.99,8.02v23.75c0,1.61.53,2.96,1.58,4.03,1.05,1.09,2.38,1.62,3.99,1.62s2.93-.54,3.99-1.62c1.05-1.08,1.58-2.43,1.58-4.03v-23.75c0-3.15.97-5.76,2.92-7.84s4.65-3.11,8.11-3.11,5.67.97,7.01,2.92c1.33,1.95,1.99,4.62,1.99,8.02v23.75c0,1.61.53,2.96,1.58,4.03,1.05,1.09,2.38,1.62,3.99,1.62s2.93-.54,3.99-1.62c1.05-1.08,1.58-2.43,1.58-4.03v-23.75c0-6.61-1.18-11.79-3.52-15.54-2.35-3.74-6.58-5.61-12.71-5.61h0Z" />
		<path class="cls-7"
			d="m464.47,844.47c1.49,0,2.72-.48,3.71-1.44.99-.96,1.49-2.15,1.49-3.57s-.5-2.72-1.49-3.71-2.22-1.49-3.71-1.49h-6.58v-5.93c0-1.61-.53-2.96-1.58-4.03-1.05-1.08-2.35-1.62-3.9-1.62s-2.96.54-4.03,1.62c-1.09,1.09-1.62,2.43-1.62,4.03v5.93h-4.27c-1.49,0-2.72.48-3.71,1.44-.99.96-1.49,2.15-1.49,3.57s.5,2.72,1.49,3.71,2.22,1.49,3.71,1.49h4.27v25.6c0,5.32,1.31,8.8,3.94,10.44,2.62,1.64,5.86,2.46,9.69,2.46,2.29,0,4.34-.57,6.17-1.72,1.83-1.15,2.74-2.55,2.74-4.22,0-1.36-.35-2.46-1.07-3.3-.71-.84-1.5-1.25-2.37-1.25-.68,0-1.39.16-2.13.47-.87.25-1.55.37-2.04.37-1.18,0-2.1-.29-2.78-.88-.68-.59-1.02-1.53-1.02-2.83v-25.14h6.59Z" />
		<path class="cls-7"
			d="m510.34,833.99c-1.27-1.05-2.83-1.58-4.68-1.58-3.03,0-5.87.66-8.54,1.99s-4.7,3.27-6.12,5.8v-1.21c0-1.61-.53-2.96-1.58-4.03-1.06-1.08-2.38-1.62-3.99-1.62s-2.94.54-3.99,1.62c-1.06,1.09-1.58,2.43-1.58,4.03v38.31c0,1.61.53,2.96,1.58,4.03,1.05,1.09,2.38,1.62,3.99,1.62s2.93-.54,3.99-1.62c1.05-1.08,1.58-2.43,1.58-4.03v-21.98c0-2.78.48-5.18,1.44-7.19.96-2.01,2.18-3.51,3.67-4.5,1.49-.99,3.03-1.49,4.64-1.49.74,0,1.44.09,2.09.28s1.06.31,1.25.37c1.18.43,2.22.65,3.15.65,1.36,0,2.53-.48,3.52-1.44.99-.96,1.49-2.4,1.49-4.31,0-1.42-.63-2.65-1.9-3.71h0Z" />
		<path class="cls-7"
			d="m532.98,827.21c2.56,1.49,5.61,2.22,9.14,2.22s6.57-.75,9.14-2.27c2.56-1.52,4.43-3.7,5.61-6.54.25-.68.37-1.33.37-1.95,0-.93-.29-1.65-.88-2.18-.59-.53-1.34-.78-2.27-.78-1.24,0-2.24.26-3.02.78-.78.53-1.62,1.38-2.55,2.55-1.49,1.67-3.62,2.5-6.4,2.5s-4.92-.84-6.4-2.5c-.93-1.18-1.78-2.02-2.55-2.55-.78-.53-1.78-.78-3.02-.78-.93,0-1.69.28-2.27.84-.59.56-.88,1.3-.88,2.22,0,.56.15,1.24.47,2.04,1.12,2.78,2.95,4.92,5.52,6.4v-.02Z" />
		<path class="cls-7"
			d="m540.58,815.71c.71.56,1.37.84,1.99.84,1.79,0,3.18-.53,4.18-1.58l7.05-7.79c1.05-1.24,1.64-2.56,1.76-3.99.06-1.36-.32-2.47-1.16-3.34-.84-.87-2.09-1.3-3.76-1.3-1.06,0-2.01.34-2.87,1.02-.87.68-1.61,1.58-2.22,2.69l-5.38,9.46c-.37.62-.56,1.21-.56,1.76-.06.93.26,1.67.97,2.22h0Z" />
		<path class="cls-7"
			d="m559.18,832.41c-1.61,0-2.94.54-3.99,1.62-1.06,1.09-1.58,2.43-1.58,4.03v.09c-1.79-1.67-3.99-3.05-6.58-4.13s-5.38-1.62-8.35-1.62c-4.15,0-7.93,1.1-11.36,3.3s-6.14,5.26-8.11,9.19c-1.98,3.93-2.97,8.36-2.97,13.31s1,9.37,3.02,13.27c2.01,3.9,4.74,6.95,8.21,9.14,3.46,2.19,7.33,3.3,11.6,3.3,2.9,0,5.67-.63,8.3-1.9,2.62-1.27,4.71-2.8,6.26-4.59.06,1.61.6,2.94,1.62,3.99,1.02,1.06,2.33,1.58,3.94,1.58s2.93-.54,3.99-1.62c1.05-1.08,1.58-2.43,1.58-4.03v-39.24c0-1.67-.53-3.03-1.58-4.08-1.06-1.05-2.38-1.58-3.99-1.58v-.02Zm-8.91,36.87c-2.53,2.94-5.81,4.4-9.83,4.4s-7.28-1.47-9.79-4.4-3.76-6.63-3.76-11.09,1.27-8.16,3.8-11.13,5.78-4.45,9.74-4.45,7.29,1.49,9.83,4.45c2.53,2.97,3.8,6.68,3.8,11.13s-1.27,8.14-3.8,11.09Z" />
		<path class="cls-7"
			d="m603.33,832.41c-3.21,0-6.17.81-8.86,2.41s-4.87,3.52-6.54,5.75v-1.58c0-1.61-.53-2.96-1.58-4.03-1.06-1.08-2.38-1.62-3.99-1.62s-2.94.54-3.99,1.62c-1.06,1.09-1.58,2.43-1.58,4.03v38.31c0,1.61.53,2.96,1.58,4.03,1.05,1.09,2.38,1.62,3.99,1.62s2.93-.54,3.99-1.62c1.05-1.08,1.58-2.43,1.58-4.03v-23.75c0-3.15,1.02-5.76,3.06-7.84s4.86-3.11,8.44-3.11,5.9.97,7.33,2.92c1.43,1.95,2.13,4.62,2.13,8.02v23.75c0,1.61.53,2.96,1.58,4.03,1.05,1.09,2.38,1.62,3.99,1.62s2.93-.54,3.99-1.62c1.05-1.08,1.58-2.43,1.58-4.03v-23.75c0-6.61-1.21-11.79-3.62-15.54-2.41-3.74-6.77-5.61-13.08-5.61h0Z" />
		<path class="cls-7"
			d="m677.17,833.99c-1.06-1.05-2.38-1.58-3.99-1.58s-2.94.54-3.99,1.62c-1.06,1.09-1.58,2.43-1.58,4.03v1.02c-1.67-1.86-3.86-3.43-6.58-4.73-2.72-1.3-5.66-1.95-8.82-1.95-4.27,0-8.14,1.1-11.64,3.3-3.49,2.19-6.24,5.26-8.26,9.19s-3.02,8.36-3.02,13.31,1.02,9.37,3.06,13.27,4.84,6.95,8.39,9.14,7.5,3.3,11.82,3.3c3.15,0,6.11-.78,8.86-2.32s4.81-3.28,6.17-5.2v4.45c0,3.34-1.13,5.92-3.39,7.74-2.25,1.82-5.67,2.74-10.25,2.74-2.29,0-4.84-.54-7.65-1.62-2.81-1.09-4.34-1.66-4.59-1.72-.56-.19-1.15-.28-1.76-.28-1.06,0-2.03.35-2.93,1.06s-1.53,1.75-1.9,3.11c-.19.56-.28,1.05-.28,1.49,0,2.29,1.52,4.08,4.55,5.38,1.36.62,3.67,1.24,6.91,1.86s5.8.93,7.65.93c7.17,0,13.09-1.81,17.76-5.43s7.01-9.2,7.01-16.74v-41.28c0-1.67-.53-3.03-1.58-4.08h.02Zm-13.03,35.29c-2.63,2.94-6.02,4.4-10.16,4.4s-7.51-1.47-10.11-4.4c-2.59-2.93-3.9-6.63-3.9-11.09s1.3-8.16,3.9-11.13c2.59-2.97,5.97-4.45,10.11-4.45s7.53,1.49,10.16,4.45c2.62,2.97,3.94,6.68,3.94,11.13s-1.31,8.14-3.94,11.09Z" />
	</g>


</svg>