<?xml version="1.0" encoding="UTF-8"?>
<svg id="Layer_2" data-name="Layer 2" xmlns="http://www.w3.org/2000/svg" viewBox="0 0 651.97 789.3">
	<defs>
		<style>
			.cls-1 {
			font-family: #9Slide03QuicksandBold-Bold, '#9Slide03 Quicksand Bold';
			font-size: 123px;
			font-weight: 700;
			}

			.cls-1, .cls-2 {
			fill: #fff;
			}

			.cls-3, .cls-2, .cls-4 {
			stroke-width: 0px;
			}

			.cls-5 {
			font-family: LoraRoman-SemiBold, Lora;
			font-size: 14px;
			font-variation-settings: 'wght' 600;
			font-weight: 600;
			letter-spacing: .04em;
			}

			.cls-6 {
			font-family: AutumninNovember, 'Autumn in November';
			font-size: 59.05px;
			}

			.cls-4 {
			fill: #5a4029;
			}
		</style>
	</defs>

	<rect class="cls-2" x="0" y="156.14" width="651.97" height="425.2" />
	<path class="cls-4"
		d="m623.62,184.48v368.5H28.35V184.48h595.28m28.35-28.35H0v425.2h651.97V156.14h0Z" />
	<g>
		<rect class="cls-3" x="274.96" y="486.11" width="102.05" height="48.19" rx="8.5" ry="8.5"
			transform="translate(651.97 1020.41) rotate(-180)" />
		<rect class="cls-3" x="274.96" y="203.17" width="102.05" height="48.19" rx="8.5" ry="8.5"
			transform="translate(651.97 454.53) rotate(-180)" />
	</g>
	<rect class="cls-3" x="400.7" y="219.92" width="198.43" height="297.64" />
	<text class="cls-6" transform="translate(85.91 277.63)">
		<tspan x="0" y="0">asd</tspan>
	</text>
	<text class="cls-5" transform="translate(42.57 354.3)">
		<tspan x="0" y="0">NO LONGER BY MY SIDE </tspan>
		<tspan x="0" y="26.42">BUT FOREVER IN MY HEART </tspan>
	</text>
	<text class="cls-5" transform="translate(42 487.08)">
		<tspan x="0" y="0">IN LOVING MEMORY</tspan>
		<tspan x="0" y="26.42">DATE</tspan>
	</text>
	<rect class="cls-3" x="42.57" y="432.19" width="178.32" height="2" />
	<text class="cls-1" transform="translate(289.27 104.55)">
		<tspan x="0" y="0">S</tspan>
	</text>
	<g>
		<path class="cls-3"
			d="m121.29,729.31c-3.35-1.91-7.08-2.86-11.21-2.86-1.63,0-3.35.22-5.16.66-1.81.44-3.32,1-4.5,1.69l1.78-13.6h23.27c1.5,0,2.75-.48,3.75-1.45,1-.97,1.5-2.17,1.5-3.61s-.5-2.75-1.5-3.75c-1-1-2.25-1.5-3.75-1.5h-27.11c-1.44,0-2.67.42-3.71,1.27-1.03.84-1.67,1.92-1.92,3.24l-2.91,23.27c-.06.25-.09.69-.09,1.31,0,1.81.52,3.38,1.55,4.69,1.03,1.31,2.77,1.97,5.21,1.97.69,0,1.36-.12,2.02-.37.66-.25,1.55-.66,2.67-1.22,1.56-.75,2.91-1.31,4.03-1.69,1.13-.38,2.41-.56,3.85-.56,3.19,0,5.94,1.06,8.26,3.19,2.31,2.13,3.47,4.88,3.47,8.26,0,2.32-.67,4.47-2.02,6.47-1.35,2-3.14,3.6-5.39,4.79-2.25,1.19-4.66,1.78-7.22,1.78-2,0-4.32-.81-6.94-2.44-1.69-1.19-3.1-1.78-4.22-1.78-1.56,0-2.83.45-3.8,1.36-.97.91-1.45,1.92-1.45,3.05,0,1,.25,2.06.75,3.19.5,1.13,1.13,2,1.88,2.63,1.63,1.31,3.74,2.34,6.33,3.1,2.59.75,5.11,1.13,7.55,1.13,4.56,0,8.82-1.05,12.76-3.14,3.94-2.09,7.1-4.93,9.48-8.49,2.38-3.57,3.57-7.44,3.57-11.63s-.95-7.75-2.86-11.07c-1.91-3.31-4.54-5.93-7.88-7.83Z" />
		<path class="cls-3"
			d="m202.59,719.41c-3.69,0-6.99,1.06-9.9,3.19-2.91,2.13-5.08,4.5-6.52,7.13-2.19-6.88-7.22-10.32-15.11-10.32-3.19,0-6.08.8-8.68,2.39-2.6,1.59-4.74,3.52-6.43,5.77v-1.5c0-1.63-.53-2.99-1.59-4.08-1.06-1.09-2.41-1.64-4.03-1.64s-2.97.55-4.03,1.64c-1.06,1.09-1.59,2.46-1.59,4.08v38.75c0,1.63.53,2.99,1.59,4.08,1.06,1.09,2.41,1.64,4.03,1.64s2.97-.55,4.03-1.64c1.06-1.09,1.59-2.45,1.59-4.08v-24.02c0-3.19.99-5.83,2.96-7.93,1.97-2.09,4.71-3.14,8.21-3.14s5.74.98,7.08,2.95c1.34,1.97,2.02,4.68,2.02,8.12v24.02c0,1.63.53,2.99,1.59,4.08,1.06,1.09,2.41,1.64,4.03,1.64s2.97-.55,4.03-1.64c1.06-1.09,1.59-2.45,1.59-4.08v-24.02c0-3.19.98-5.83,2.95-7.93,1.97-2.09,4.71-3.14,8.21-3.14s5.74.98,7.08,2.95c1.34,1.97,2.02,4.68,2.02,8.12v24.02c0,1.63.53,2.99,1.59,4.08,1.06,1.09,2.41,1.64,4.03,1.64s2.97-.55,4.03-1.64c1.06-1.09,1.59-2.45,1.59-4.08v-24.02c0-6.69-1.19-11.93-3.57-15.71-2.38-3.78-6.66-5.68-12.85-5.68Z" />
		<path class="cls-3"
			d="m289.09,719.41c-3.69,0-6.99,1.06-9.9,3.19-2.91,2.13-5.08,4.5-6.52,7.13-2.19-6.88-7.22-10.32-15.11-10.32-3.19,0-6.08.8-8.68,2.39-2.6,1.59-4.74,3.52-6.43,5.77v-1.5c0-1.63-.53-2.99-1.59-4.08-1.06-1.09-2.41-1.64-4.03-1.64s-2.97.55-4.03,1.64c-1.06,1.09-1.59,2.46-1.59,4.08v38.75c0,1.63.53,2.99,1.59,4.08,1.06,1.09,2.41,1.64,4.03,1.64s2.97-.55,4.03-1.64c1.06-1.09,1.59-2.45,1.59-4.08v-24.02c0-3.19.99-5.83,2.96-7.93,1.97-2.09,4.71-3.14,8.21-3.14s5.74.98,7.08,2.95c1.34,1.97,2.02,4.68,2.02,8.12v24.02c0,1.63.53,2.99,1.59,4.08,1.06,1.09,2.41,1.64,4.03,1.64s2.97-.55,4.03-1.64c1.06-1.09,1.59-2.45,1.59-4.08v-24.02c0-3.19.98-5.83,2.95-7.93,1.97-2.09,4.71-3.14,8.21-3.14s5.74.98,7.08,2.95c1.34,1.97,2.02,4.68,2.02,8.12v24.02c0,1.63.53,2.99,1.59,4.08,1.06,1.09,2.41,1.64,4.03,1.64s2.97-.55,4.03-1.64c1.06-1.09,1.59-2.45,1.59-4.08v-24.02c0-6.69-1.19-11.93-3.57-15.71-2.38-3.78-6.66-5.68-12.85-5.68Z" />
		<path class="cls-3"
			d="m366.77,731.61c1.5,0,2.75-.48,3.75-1.45,1-.97,1.5-2.17,1.5-3.61s-.5-2.75-1.5-3.75c-1-1-2.25-1.5-3.75-1.5h-6.66v-6c0-1.63-.53-2.99-1.6-4.08-1.06-1.09-2.38-1.64-3.94-1.64s-2.99.55-4.08,1.64c-1.1,1.09-1.64,2.46-1.64,4.08v6h-4.32c-1.5,0-2.75.49-3.75,1.45-1,.97-1.5,2.17-1.5,3.61s.5,2.75,1.5,3.75c1,1,2.25,1.5,3.75,1.5h4.32v25.89c0,5.38,1.33,8.9,3.99,10.55,2.66,1.66,5.93,2.49,9.8,2.49,2.31,0,4.39-.58,6.24-1.74,1.84-1.16,2.77-2.58,2.77-4.27,0-1.38-.36-2.49-1.08-3.33-.72-.84-1.52-1.27-2.39-1.27-.69,0-1.41.16-2.16.47-.88.25-1.56.38-2.06.38-1.19,0-2.13-.3-2.81-.89-.69-.59-1.03-1.55-1.03-2.86v-25.43h6.66Z" />
		<path class="cls-3"
			d="m413.17,721c-1.28-1.06-2.86-1.59-4.74-1.59-3.07,0-5.94.67-8.63,2.02-2.69,1.35-4.75,3.3-6.19,5.86v-1.22c0-1.63-.53-2.99-1.59-4.08-1.06-1.09-2.41-1.64-4.03-1.64s-2.97.55-4.03,1.64c-1.06,1.09-1.59,2.46-1.59,4.08v38.75c0,1.63.53,2.99,1.59,4.08,1.06,1.09,2.41,1.64,4.03,1.64s2.97-.55,4.03-1.64c1.06-1.09,1.59-2.45,1.59-4.08v-22.24c0-2.81.48-5.24,1.45-7.27.97-2.03,2.2-3.55,3.71-4.55,1.5-1,3.06-1.5,4.69-1.5.75,0,1.45.09,2.11.28s1.08.31,1.27.38c1.19.44,2.25.66,3.19.66,1.38,0,2.56-.48,3.57-1.45,1-.97,1.5-2.42,1.5-4.36,0-1.44-.64-2.69-1.92-3.75Z" />
		<path class="cls-3"
			d="m436.06,714.16c2.59,1.5,5.68,2.25,9.24,2.25s6.65-.77,9.24-2.3c2.6-1.53,4.49-3.74,5.68-6.61.25-.69.38-1.34.38-1.97,0-.94-.3-1.67-.89-2.2-.6-.53-1.36-.8-2.3-.8-1.25,0-2.27.27-3.05.8-.78.53-1.64,1.39-2.58,2.58-1.5,1.69-3.66,2.53-6.47,2.53s-4.97-.84-6.47-2.53c-.94-1.19-1.8-2.05-2.58-2.58-.78-.53-1.8-.8-3.05-.8-.94,0-1.71.28-2.3.84-.6.56-.89,1.31-.89,2.25,0,.56.15,1.25.47,2.06,1.13,2.81,2.99,4.97,5.58,6.47Z" />
		<path class="cls-3"
			d="m443.75,702.52c.72.56,1.39.84,2.02.84,1.81,0,3.22-.53,4.22-1.59l7.13-7.88c1.06-1.25,1.66-2.59,1.78-4.03.06-1.38-.33-2.5-1.17-3.38-.84-.88-2.11-1.31-3.8-1.31-1.06,0-2.03.34-2.91,1.03-.88.69-1.63,1.59-2.25,2.72l-5.44,9.57c-.38.63-.56,1.22-.56,1.78-.06.94.27,1.69.99,2.25Z" />
		<path class="cls-3"
			d="m462.56,719.41c-1.63,0-2.97.55-4.03,1.64-1.06,1.09-1.59,2.46-1.59,4.08v.09c-1.81-1.69-4.03-3.08-6.66-4.18-2.63-1.09-5.44-1.64-8.44-1.64-4.19,0-8.02,1.11-11.49,3.33-3.47,2.22-6.21,5.32-8.21,9.29-2,3.97-3,8.46-3,13.46s1.02,9.48,3.05,13.42c2.03,3.94,4.8,7.02,8.3,9.24,3.5,2.22,7.41,3.33,11.73,3.33,2.94,0,5.74-.64,8.4-1.92,2.66-1.28,4.77-2.83,6.33-4.64.06,1.63.61,2.97,1.64,4.03,1.03,1.06,2.36,1.59,3.99,1.59s2.97-.55,4.03-1.64c1.06-1.09,1.59-2.45,1.59-4.08v-39.69c0-1.69-.53-3.06-1.59-4.13-1.06-1.06-2.41-1.59-4.03-1.59Zm-9.01,37.29c-2.57,2.97-5.88,4.46-9.94,4.46s-7.36-1.49-9.9-4.46c-2.53-2.97-3.8-6.71-3.8-11.21s1.28-8.26,3.85-11.26c2.56-3,5.85-4.5,9.85-4.5s7.38,1.5,9.94,4.5c2.56,3,3.85,6.75,3.85,11.26s-1.28,8.24-3.85,11.21Z" />
		<path class="cls-3"
			d="m507.22,719.41c-3.25,0-6.24.81-8.96,2.44-2.72,1.63-4.93,3.57-6.61,5.82v-1.59c0-1.63-.53-2.99-1.59-4.08-1.06-1.09-2.41-1.64-4.03-1.64s-2.97.55-4.03,1.64c-1.06,1.09-1.59,2.46-1.59,4.08v38.75c0,1.63.53,2.99,1.59,4.08,1.06,1.09,2.41,1.64,4.03,1.64s2.97-.55,4.03-1.64c1.06-1.09,1.59-2.45,1.59-4.08v-24.02c0-3.19,1.03-5.83,3.1-7.93,2.06-2.09,4.91-3.14,8.54-3.14s5.97.98,7.41,2.95c1.44,1.97,2.16,4.68,2.16,8.12v24.02c0,1.63.53,2.99,1.59,4.08,1.06,1.09,2.41,1.64,4.03,1.64s2.97-.55,4.03-1.64c1.06-1.09,1.6-2.45,1.6-4.08v-24.02c0-6.69-1.22-11.93-3.66-15.71-2.44-3.78-6.85-5.68-13.23-5.68Z" />
		<path class="cls-3"
			d="m581.9,721c-1.06-1.06-2.41-1.59-4.03-1.59s-2.97.55-4.03,1.64c-1.06,1.09-1.6,2.46-1.6,4.08v1.03c-1.69-1.88-3.91-3.47-6.66-4.79-2.75-1.31-5.72-1.97-8.91-1.97-4.32,0-8.24,1.11-11.77,3.33-3.53,2.22-6.32,5.32-8.35,9.29-2.03,3.97-3.05,8.46-3.05,13.46s1.03,9.48,3.1,13.42,4.89,7.02,8.49,9.24c3.6,2.22,7.58,3.33,11.96,3.33,3.19,0,6.18-.78,8.96-2.35,2.78-1.56,4.86-3.31,6.24-5.25v4.5c0,3.38-1.14,5.99-3.42,7.83-2.28,1.84-5.74,2.77-10.37,2.77-2.32,0-4.9-.55-7.74-1.64-2.85-1.1-4.4-1.67-4.64-1.74-.56-.19-1.16-.28-1.78-.28-1.06,0-2.05.36-2.96,1.08-.91.72-1.55,1.77-1.92,3.14-.19.56-.28,1.06-.28,1.5,0,2.31,1.53,4.13,4.6,5.44,1.38.62,3.71,1.25,6.99,1.88,3.28.62,5.86.94,7.74.94,7.25,0,13.24-1.83,17.97-5.49,4.72-3.66,7.08-9.3,7.08-16.93v-41.75c0-1.69-.53-3.06-1.59-4.13Zm-13.18,35.7c-2.66,2.97-6.08,4.46-10.27,4.46s-7.6-1.49-10.23-4.46c-2.63-2.97-3.94-6.71-3.94-11.21s1.31-8.26,3.94-11.26c2.63-3,6.04-4.5,10.23-4.5s7.61,1.5,10.27,4.5c2.66,3,3.99,6.75,3.99,11.26s-1.33,8.24-3.99,11.21Z" />
	</g>
</svg>